<svg width="80" height="80" viewBox="0 0 80 80" fill="none" xmlns="http://www.w3.org/2000/svg">
<path fill-rule="evenodd" clip-rule="evenodd" d="M40 80C70.0914 80 80 72.0914 80 40C80 7.90861 70.0914 0 40 0C9.90861 0 0 9.90861 0 40C0 70.0914 9.90861 80 40 80Z" fill="#F472B6"/>
<path fill-rule="evenodd" clip-rule="evenodd" d="M57.7066 19.7926C56.9267 18.5164 55.0733 18.5164 54.2934 19.7926L47.316 31.2102C46.4171 32.6811 47.6757 34.5241 49.3728 34.2222L53 33.5771V49C53 53.0803 50.5549 55 48 55C45.4451 55 43 53.0803 43 49V35C43 28.0346 38.2816 23 32 23C25.7184 23 21 28.0346 21 35V55C21 56.6569 22.3431 58 24 58C25.6569 58 27 56.6569 27 55V35C27 30.9197 29.4451 29 32 29C34.5549 29 37 30.9197 37 35V49C37 55.9654 41.7184 61 48 61C54.2816 61 59 55.9654 59 49V33.5771L62.6272 34.2222C64.3243 34.5241 65.5829 32.6811 64.684 31.2102L57.7066 19.7926Z" fill="white"/>
</svg>
