<?xml version="1.0" encoding="UTF-8"?>
<svg width="81px" height="81px" viewBox="0 0 81 81" version="1.1" xmlns="http://www.w3.org/2000/svg" xmlns:xlink="http://www.w3.org/1999/xlink">
    <!-- Generator: Sketch 50 (54983) - http://www.bohemiancoding.com/sketch -->
    <title>Group 4</title>
    <desc>Created with Sketch.</desc>
    <defs></defs>
    <g id="Desktop" stroke="none" stroke-width="1" fill="none" fill-rule="evenodd">
        <g id="surveys" transform="translate(-680.000000, -224.000000)">
            <g id="Group-4" transform="translate(680.000000, 224.000000)">
                <path d="M40.5,81 C70.9675324,81 81,70.9675324 81,40.5 C81,10.0324676 70.9675324,0 40.5,0 C10.0324676,3.7311966e-15 0,10.0324676 0,40.5 C1.8655983e-15,70.9675324 10.0324676,81 40.5,81 Z" id="Oval-Copy-4" fill="#FAB005"></path>
                <path d="M39.9827033,48.1692054 L39.6660205,48.1692054 C38.4520699,48.1692054 37.554802,47.2719375 37.3964606,46.0579869 L36.868656,41.5188671 C36.6575341,40.0937946 37.5020215,39.0381854 38.927094,38.879844 C43.8884575,38.4048199 46.6330415,36.5047232 46.6330415,33.1795541 L46.6330415,33.0739932 C46.6330415,30.1182873 44.3634816,28.0598493 40.5632883,28.0598493 C37.7659238,28.0598493 35.496364,29.062678 33.3851455,30.9627747 C32.8573409,31.3850184 32.1711949,31.7017012 31.4322684,31.7017012 C29.7960741,31.7017012 28.4765625,30.3821896 28.4765625,28.7987757 C28.4765625,28.0070688 28.7932453,27.1625814 29.5321717,26.5292159 C32.3295362,23.8901928 35.8658272,22.1484375 40.7216297,22.1484375 C48.1108944,22.1484375 53.1250383,26.2653136 53.1250383,32.8628713 L53.1250383,32.9684322 C53.1250383,39.6187705 48.3220163,42.6272568 42.463385,43.6300856 L42.2522631,46.0579869 C42.0411413,47.219157 41.1966539,48.1692054 39.9827033,48.1692054 Z M35.9186077,55.664031 C35.9186077,53.605593 37.5020215,52.0221791 39.6660205,52.0221791 C41.8300194,52.0221791 43.4134333,53.605593 43.4134333,55.664031 L43.4134333,56.1918356 C43.4134333,58.2502736 41.8300194,59.8336875 39.6660205,59.8336875 C37.5020215,59.8336875 35.9186077,58.2502736 35.9186077,56.1918356 L35.9186077,55.664031 Z" id="?" fill="#FFFFFF"></path>
            </g>
        </g>
    </g>
</svg>