<?xml version="1.0" encoding="UTF-8"?>
<svg width="16px" height="16px" viewBox="0 0 16 16" version="1.1" xmlns="http://www.w3.org/2000/svg" xmlns:xlink="http://www.w3.org/1999/xlink">
    <!-- Generator: Sketch 50 (54983) - http://www.bohemiancoding.com/sketch -->
    <title>Shape</title>
    <desc>Created with Sketch.</desc>
    <defs></defs>
    <g id="Symbols" stroke="none" stroke-width="1" fill="none" fill-rule="evenodd">
        <g id="footer" transform="translate(-1230.000000, -426.000000)" fill="#8BA6C0" fill-rule="nonzero">
            <path d="M1243.844,426 L1232.15614,426 C1230.96541,426 1230.00009,426.96528 1230.00009,428.156048 L1230.00009,439.843991 C1230.00009,441.034759 1230.96537,442.000039 1232.15614,442.000039 L1237.92054,442.000039 L1237.93036,436.282491 L1236.44494,436.282491 C1236.2519,436.282491 1236.09522,436.126399 1236.09448,435.933359 L1236.08736,434.090356 C1236.08661,433.896258 1236.24376,433.738523 1236.43786,433.738523 L1237.92057,433.738523 L1237.92057,431.957714 C1237.92057,429.891102 1239.18273,428.765816 1241.02629,428.765816 L1242.53906,428.765816 C1242.73261,428.765816 1242.88956,428.92273 1242.88956,429.116318 L1242.88956,430.670347 C1242.88956,430.863858 1242.73273,431.020732 1242.53926,431.02085 L1241.61089,431.02128 C1240.60831,431.02128 1240.41417,431.497697 1240.41417,432.196861 L1240.41417,433.738562 L1242.61719,433.738562 C1242.82709,433.738562 1242.98996,433.921856 1242.96522,434.130318 L1242.74678,435.973321 C1242.72588,436.149687 1242.57632,436.282569 1242.39874,436.282569 L1240.42399,436.282569 L1240.41417,442.000117 L1243.84408,442.000117 C1245.03481,442.000117 1246.00009,441.034837 1246.00009,439.844109 L1246.00009,428.156048 C1246.00005,426.96528 1245.03477,426 1243.844,426 Z" id="Shape"></path>
        </g>
    </g>
</svg>