<?xml version="1.0" encoding="UTF-8"?>
<svg width="486px" height="100px" viewBox="0 0 486 100" version="1.1" xmlns="http://www.w3.org/2000/svg" xmlns:xlink="http://www.w3.org/1999/xlink"><script xmlns=""/>
    <!-- Generator: Sketch 60.1 (88133) - https://sketch.com -->
    <title>GD_LOCKUP_RGB_BLACK</title>
    <desc>Created with Sketch.</desc>
    <g id="Page-1" stroke="none" stroke-width="1" fill="none" fill-rule="evenodd">
        <g id="Newsroom_MediaResources" transform="translate(-1137.000000, -876.000000)" fill="#111111" fill-rule="nonzero">
            <g id="02" transform="translate(980.000000, 675.000000)">
                <g id="GD_LOCKUP_RGB_BLACK" transform="translate(157.000000, 201.000000)">
                    <path d="M96.4881517,4.58293839 C84.8672986,-2.67772512 69.5687204,-0.947867299 55.9241706,7.62559242 C42.3222749,-0.947867299 27.014218,-2.67772512 15.4075829,4.58293839 C-2.95260664,16.056872 -5.18483412,45.6066351 10.4265403,70.5876777 C21.9336493,89.0047393 39.92891,99.7962085 55.9478673,99.5971564 C71.9668246,99.7962085 89.9620853,89.0047393 101.469194,70.5876777 C117.061611,45.6066351 114.848341,16.056872 96.4881517,4.58293839 Z M18.8672986,65.3127962 C15.6482884,60.2097791 13.2195607,54.6492711 11.6635071,48.8199052 C10.2810203,43.7597013 9.75243736,38.5043052 10.0995261,33.2701422 C10.7962085,24.0379147 14.5545024,16.8483412 20.6777251,13.0236967 C26.8009479,9.19905213 34.8957346,8.96682464 43.5165877,12.3886256 C44.8104265,12.9052133 46.0900474,13.5023697 47.3601896,14.1611374 C42.5696067,18.5292575 38.4040186,23.536894 34.9810427,29.042654 C25.5023697,44.2085308 22.6113744,61.0853081 25.9194313,74.5402844 C23.2817006,71.6948132 20.9203731,68.6050924 18.8672986,65.3127962 L18.8672986,65.3127962 Z M100.236967,48.8151659 C98.6788539,54.6438116 96.2502578,60.2040185 93.0331754,65.3080569 C90.9783576,68.6050397 88.6171935,71.700894 85.9810427,74.5545024 C88.9383886,62.492891 86.92891,47.7156398 79.6777251,33.8578199 C79.443525,33.39627 79.0247759,33.0555247 78.5252566,32.9200312 C78.0257373,32.7845378 77.4922001,32.8669775 77.056872,33.1469194 L54.450237,47.2701422 C54.0337913,47.529988 53.7378091,47.9448134 53.6275637,48.4231362 C53.5173183,48.901459 53.6018652,49.4039901 53.8625592,49.8199052 L57.1800948,55.1232227 C57.4390424,55.5393498 57.8530292,55.8352395 58.3305808,55.9455122 C58.8081324,56.0557848 59.309938,55.9713629 59.7251185,55.7109005 L74.3791469,46.5545024 C74.8530806,47.9763033 75.3270142,49.3981043 75.6824645,50.8199052 C77.0647056,55.8737118 77.5948774,61.1225729 77.2511848,66.3507109 C76.5545024,75.5781991 72.7962085,82.7677725 66.6729858,86.5971564 C63.5146671,88.5281751 59.8957755,89.5757059 56.1943128,89.6303318 C56.1137441,89.6303318 56.028436,89.6303318 55.9478673,89.6303318 L55.7251185,89.6303318 C52.0234827,89.5768656 48.4042911,88.5292479 45.2464455,86.5971564 C39.1184834,82.7677725 35.3601896,75.5781991 34.6635071,66.3507109 C34.3185458,61.1165843 34.8470934,55.8615398 36.2274882,50.8009479 C39.4037059,39.0930046 45.9693857,28.584949 55.0995261,20.5971564 C59.0367948,17.1411817 63.521336,14.3639694 68.3696682,12.3791469 C76.9668246,8.95734597 85.0758294,9.18483412 91.2037915,13.014218 C97.3317536,16.8436019 101.085308,24.028436 101.781991,33.2606635 C102.133561,38.4953084 101.611419,43.7519663 100.236967,48.8151659 L100.236967,48.8151659 Z M216.92891,37.7867299 C205.042654,37.7867299 195.436019,47.0663507 195.436019,58.8720379 C195.436019,70.5971564 205.042654,79.7251185 216.92891,79.7251185 C228.895735,79.7251185 238.50237,70.6113744 238.50237,58.8720379 C238.50237,47.07109 228.909953,37.7914692 216.92891,37.7914692 L216.92891,37.7867299 Z M216.92891,68.7014218 C211.450237,68.7014218 207.279621,64.2701422 207.279621,58.7914692 C207.279621,53.3127962 211.450237,48.8151659 216.92891,48.8151659 C222.488152,48.8151659 226.658768,53.3270142 226.658768,58.8056872 C226.658768,64.2843602 222.488152,68.7203791 216.92891,68.7203791 L216.92891,68.7014218 Z M265.303318,21.5920948 L243.43128,21.5920948 C242.953837,21.5832692 242.493313,21.769231 242.156096,22.1073429 C241.818878,22.4454548 241.634137,22.9064694 241.64455,23.3838863 L241.64455,76.7061611 C241.610129,77.1997029 241.783545,77.6851704 242.122876,78.0452026 C242.462206,78.4052348 242.936566,78.6070631 243.43128,78.6019926 L265.303318,78.6019926 C282.805687,78.6019926 294.966825,66.9620853 294.966825,50.028436 C294.966825,32.9905213 282.805687,21.5920948 265.303318,21.5920948 Z M265.819905,67.3412322 L253.853081,67.3412322 L253.853081,32.8246445 L265.819905,32.8246445 C275.507109,32.8246445 282.184834,40.07109 282.184834,50.0047393 C282.184834,59.7725118 275.507109,67.3412322 265.819905,67.3412322 Z M338.50237,38.9336493 L330.279621,38.9336493 C329.337191,39.0081727 328.60195,39.7801758 328.57346,40.7251185 L328.57346,43.1658768 C326.701422,40.07109 322.469194,37.7914692 317.199052,37.7914692 C306.943128,37.7914692 297.336493,45.8483412 297.336493,58.7156398 C297.336493,71.5118483 306.85782,79.7156398 317.118483,79.7156398 C322.407583,79.7156398 326.725118,77.4407583 328.597156,74.3459716 L328.597156,76.8672986 C328.602309,77.8082154 329.362419,78.5704369 330.303318,78.5781991 L338.526066,78.5781991 C338.982957,78.5886763 339.424245,78.4117878 339.7474,78.0886326 C340.070556,77.7654773 340.247444,77.324189 340.236967,76.8672986 L340.236967,40.7251185 C340.251045,40.255674 340.074681,39.8004881 339.747983,39.4630791 C339.421285,39.12567 338.972024,38.934718 338.50237,38.9336493 L338.50237,38.9336493 Z M319.374408,68.7914692 C313.92891,68.7914692 309.838863,64.6066351 309.838863,58.8009479 C309.838863,52.9952607 313.92891,48.8151659 319.374408,48.8151659 C324.819905,48.8151659 328.909953,52.9905213 328.909953,58.7962085 C328.909953,64.6018957 324.824645,68.7867299 319.374408,68.7867299 L319.374408,68.7914692 Z M384.658768,21.5924171 L376.436019,21.5924171 C375.971094,21.578397 375.520016,21.7516882 375.184063,22.0733833 C374.84811,22.3950784 374.655432,22.8382213 374.649289,23.3033175 L374.649289,43.0047393 C372.753555,40.07109 368.459716,37.7914692 363.090047,37.7914692 C352.909953,37.7914692 343.469194,45.8483412 343.469194,58.7156398 C343.469194,71.5118483 352.990521,79.7156398 363.251185,79.7156398 C368.540284,79.7156398 372.530806,77.4407583 374.729858,74.3459716 L374.729858,76.8672986 C374.732446,77.8092817 375.494047,78.5729983 376.436019,78.5781991 L384.658768,78.5781991 C385.116056,78.5900485 385.558149,78.4136013 385.88161,78.0901408 C386.20507,77.7666803 386.381518,77.3245873 386.369668,76.8672986 L386.369668,23.3127962 C386.384172,22.853887 386.208899,22.4092868 385.885137,22.0837314 C385.561375,21.7581759 385.11775,21.5804486 384.658768,21.5924171 Z M365.530806,68.8909953 C360.109005,68.8909953 356.052133,64.6635071 356.052133,58.7962085 C356.052133,52.92891 360.123223,48.7014218 365.530806,48.7014218 C370.938389,48.7014218 375.009479,52.92891 375.009479,58.7962085 C375.009479,64.6635071 370.957346,68.8909953 365.530806,68.8909953 Z M430.805687,21.5924171 L422.597156,21.5924171 C422.131784,21.5784034 421.680219,21.75155 421.343518,22.073109 C421.006816,22.394668 420.813088,22.8377926 420.805687,23.3033175 L420.805687,43.0047393 C418.933649,40.07109 414.616114,37.7914692 409.246445,37.7914692 C399.066351,37.7914692 389.625592,45.8483412 389.625592,58.7156398 C389.625592,71.5118483 399.151659,79.7156398 409.407583,79.7156398 C414.701422,79.7156398 418.687204,77.4407583 420.886256,74.3459716 L420.886256,76.8672986 C420.891436,77.8100488 421.654406,78.573019 422.597156,78.5781991 L430.805687,78.5781991 C431.262565,78.5901078 431.704218,78.4135202 432.02694,78.0899013 C432.349663,77.7662825 432.525024,77.3241414 432.511848,76.8672986 L432.511848,23.3127962 C432.527689,22.8543355 432.353507,22.4096825 432.030481,22.0839652 C431.707456,21.7582479 431.264264,21.580381 430.805687,21.5924171 Z M411.677725,68.8909953 C406.251185,68.8909953 402.199052,64.6635071 402.199052,58.7962085 C402.199052,52.92891 406.270142,48.7014218 411.677725,48.7014218 C417.085308,48.7014218 421.156398,52.92891 421.156398,58.7962085 C421.156398,64.6635071 417.113744,68.8909953 411.691943,68.8909953 L411.677725,68.8909953 Z M475.829384,41.7061611 L463.559242,83.7867299 C461.189573,91.2748815 455.905213,95.7535545 447.682464,95.7535545 C443.943128,95.7535545 440.540284,94.9905213 437.872038,93.464455 C436.317536,92.5781991 435.028436,91.7677725 435.028436,90.4691943 C435.028436,89.6635071 435.2891,89.2464455 435.763033,88.492891 L438.199052,84.8436019 C438.886256,83.8246445 439.393365,83.492891 440.132701,83.492891 C440.718573,83.5072909 441.285288,83.704481 441.753555,84.056872 C443.28436,85.0473934 444.706161,85.9004739 446.872038,85.9004739 C449.402844,85.9004739 451.336493,85.0900474 452.379147,82.0758294 L453.43128,78.5829384 L448.464455,78.5829384 C447.241706,78.5829384 446.56872,77.8530806 446.265403,76.8720379 L435.28436,41.7061611 C434.876777,40.3222749 435.251185,38.9383739 437.28436,38.9383739 L445.933649,38.9383739 C446.990521,38.9383739 447.729858,39.2985782 448.194313,40.8104265 L456.303318,69.1279621 L463.886256,40.8104265 C464.127962,39.8341232 464.781991,38.9383739 466.085308,38.9383739 L474.2891,38.9383739 C475.905213,38.9336493 476.393365,40.07109 475.829384,41.7061611 Z M192.336718,54.2227488 L192.336718,76.7014218 C192.34425,77.1964835 192.151008,77.6735476 191.800903,78.0236521 C191.450799,78.3737566 190.973735,78.5669987 190.478673,78.5592417 L183.691943,78.5592417 C183.196487,78.568335 182.718641,78.3755223 182.368242,78.0251229 C182.017843,77.6747235 181.82503,77.196878 181.834123,76.7014218 L181.834123,70.8009479 C177.526066,76.2417062 170.033175,79.6682464 161.559242,79.6682464 C145.64455,79.6682464 133.208531,67.6966825 133.208531,50.6540284 C133.208531,32.943128 146.635071,20.7345972 163.597156,20.7345972 C176.118483,20.7345972 186.127962,26.1184834 190.57346,36.9478673 C190.697982,37.2340159 190.767134,37.5411758 190.777251,37.8530806 C190.777251,38.3649289 190.440758,38.7535545 189.35545,39.1279621 L181.43128,42.1800948 C180.953274,42.3782871 180.417686,42.3867616 179.933649,42.2037915 C179.509317,41.9532294 179.176957,41.5726765 178.985782,41.1184834 C176.14218,35.7109005 171.080569,32.0379147 163.2891,32.0379147 C153.184834,32.0379147 145.947867,39.92891 145.947867,50.1611374 C145.947867,60.0805687 152.109005,68.2369668 163.578199,68.2369668 C169.611374,68.2369668 174.421801,65.3933649 176.663507,62.2701422 L169.507109,62.2701422 C169.012047,62.2778992 168.534983,62.084657 168.184879,61.7345526 C167.834774,61.3844481 167.641532,60.907384 167.649289,60.4123223 L167.649289,54.3033175 C167.641532,53.8082558 167.834774,53.3311917 168.184879,52.9810872 C168.534983,52.6309828 169.012047,52.4377407 169.507109,52.4454976 L190.478673,52.4454976 C190.964564,52.4207041 191.439195,52.5972611 191.790758,52.9335776 C192.142321,53.2698941 192.339734,53.736236 192.336718,54.2227488 Z M476.052133,30.6113744 L476.052133,30.0663507 C476.051605,30.0281301 476.065092,29.9910394 476.090047,29.9620853 C476.117548,29.9378308 476.152905,29.9243614 476.189573,29.9241706 L479.654028,29.9241706 C479.690951,29.9229189 479.726823,29.9365845 479.753555,29.9620853 C479.77851,29.9910394 479.791997,30.0281301 479.791484,30.0663507 L479.791484,30.6113744 C479.791278,30.6480424 479.777809,30.6833996 479.753555,30.7109005 C479.726823,30.7364013 479.690951,30.7500668 479.654028,30.7488152 L478.388626,30.7488152 L478.388626,34.1658768 C478.386164,34.2433582 478.323927,34.3055953 478.246445,34.3080569 L477.592417,34.3080569 C477.55621,34.3078894 477.521768,34.2923908 477.49763,34.2654028 C477.470392,34.2394619 477.454976,34.2034911 477.454976,34.1658768 L477.454976,30.7488152 L476.189573,30.7488152 C476.152314,30.7516945 476.115657,30.7381416 476.089232,30.7117163 C476.062806,30.685291 476.049253,30.6486343 476.052133,30.6113744 L476.052133,30.6113744 Z M482.109005,30.0473934 L483.056872,32.2417062 L484.004739,30.0473934 C484.019245,30.0085109 484.045819,29.9752939 484.080569,29.9526066 C484.120031,29.9321798 484.164131,29.9223797 484.208531,29.9241706 L485.308057,29.9241706 C485.344445,29.9214387 485.380268,29.9343716 485.406519,29.9597175 C485.43277,29.9850633 485.446952,30.0204109 485.445498,30.056872 L485.445498,34.1706161 C485.44823,34.2070039 485.435297,34.2428271 485.409951,34.2690782 C485.384605,34.2953292 485.349257,34.3095108 485.312796,34.3080569 L484.696682,34.3080569 C484.65976,34.3093085 484.623888,34.295643 484.597156,34.2701422 C484.570093,34.2444236 484.55615,34.2078221 484.559242,34.1706161 L484.559242,31.0663507 L483.540284,33.3222749 C483.525457,33.3648632 483.499228,33.4025668 483.464455,33.4312796 C483.425417,33.4528497 483.380993,33.4627217 483.336493,33.4597156 L482.834123,33.4597156 C482.791187,33.4620736 482.748462,33.4522139 482.7109,33.4312796 C482.674668,33.4039398 482.648104,33.3657533 482.635071,33.3222749 L481.620853,31.0663507 L481.620853,34.1706161 C481.620662,34.2072841 481.607193,34.2426413 481.582938,34.2701422 C481.556674,34.2933544 481.523179,34.3067521 481.488152,34.3080569 L480.85782,34.3080569 C480.823862,34.3083668 480.791281,34.2946487 480.767773,34.2701422 C480.74071,34.2444236 480.726766,34.2078221 480.729858,34.1706161 L480.729858,30.056872 C480.728404,30.0204109 480.742585,29.9850633 480.768837,29.9597175 C480.795088,29.9343716 480.830911,29.9214387 480.867299,29.9241706 L481.933649,29.9241706 C481.976476,29.9229854 482.018895,29.9327743 482.056872,29.9526066 C482.082871,29.9786305 482.10095,30.0115 482.109005,30.0473934 L482.109005,30.0473934 Z" id="Shape"/>
                </g>
            </g>
        </g>
    </g>
</svg>