<?xml version="1.0" encoding="UTF-8"?>
<svg width="16px" height="14px" viewBox="0 0 16 14" version="1.1" xmlns="http://www.w3.org/2000/svg" xmlns:xlink="http://www.w3.org/1999/xlink">
    <!-- Generator: Sketch 50 (54983) - http://www.bohemiancoding.com/sketch -->
    <title>Shape</title>
    <desc>Created with Sketch.</desc>
    <defs></defs>
    <g id="Symbols" stroke="none" stroke-width="1" fill="none" fill-rule="evenodd">
        <g id="footer" transform="translate(-1272.000000, -428.000000)" fill="#8BA6C0" fill-rule="nonzero">
            <path d="M1287.74555,429.569758 C1287.39005,429.727396 1287.02102,429.851759 1286.64235,429.941793 C1287.0596,429.545299 1287.37332,429.049369 1287.5503,428.495822 C1287.60082,428.337794 1287.42918,428.201143 1287.28648,428.285755 C1286.75969,428.598222 1286.19226,428.832631 1285.5999,428.982545 C1285.56553,428.991245 1285.53007,428.995653 1285.49449,428.995653 C1285.38659,428.995653 1285.2817,428.95559 1285.19919,428.882876 C1284.56895,428.327417 1283.75837,428.021504 1282.91681,428.021504 C1282.55266,428.021504 1282.18499,428.078263 1281.824,428.19022 C1280.70551,428.537133 1279.8425,429.459751 1279.57174,430.598052 C1279.47016,431.025013 1279.44265,431.452364 1279.48993,431.868207 C1279.49536,431.915993 1279.47277,431.949347 1279.45884,431.964989 C1279.43438,431.992413 1279.3997,432.008134 1279.3637,432.008134 C1279.35968,432.008134 1279.35554,432.007939 1279.35145,432.007549 C1276.90312,431.780084 1274.69533,430.600549 1273.13475,428.686267 C1273.05517,428.588626 1272.90257,428.600602 1272.83914,428.7094 C1272.53354,429.23369 1272.37204,429.833346 1272.37204,430.443535 C1272.37204,431.378674 1272.74774,432.259941 1273.40033,432.902391 C1273.1259,432.837323 1272.86028,432.734845 1272.61355,432.597804 C1272.49418,432.531488 1272.3473,432.616724 1272.34563,432.753258 C1272.32854,434.142469 1273.14189,435.378607 1274.36032,435.935236 C1274.33578,435.935821 1274.31125,435.936094 1274.28667,435.936094 C1274.09353,435.936094 1273.89798,435.917448 1273.7055,435.880661 C1273.57108,435.854993 1273.45814,435.982516 1273.49988,436.112847 C1273.89536,437.347541 1274.95845,438.257637 1276.23064,438.464271 C1275.1748,439.173037 1273.94526,439.546906 1272.66555,439.546906 L1272.26659,439.546672 C1272.14367,439.546672 1272.03971,439.626797 1272.00839,439.745855 C1271.97753,439.863118 1272.03437,439.986818 1272.13919,440.04779 C1273.58122,440.887004 1275.22606,441.330544 1276.89661,441.330544 C1278.35889,441.330544 1279.72672,441.040351 1280.96216,440.46808 C1282.09472,439.943439 1283.09556,439.193478 1283.93684,438.239029 C1284.72054,437.349921 1285.33338,436.323538 1285.75828,435.188435 C1286.16331,434.106424 1286.3774,432.951895 1286.3774,431.849638 L1286.3774,431.797131 C1286.37736,431.620144 1286.45741,431.453612 1286.59706,431.34025 C1287.12701,430.909973 1287.58849,430.403472 1287.96864,429.834828 C1288.06901,429.68468 1287.91071,429.496498 1287.74555,429.569758 Z" id="Shape"></path>
        </g>
    </g>
</svg>