<?xml version="1.0" encoding="UTF-8"?>
<svg width="64px" height="55px" viewBox="0 0 64 55" version="1.1" xmlns="http://www.w3.org/2000/svg" xmlns:xlink="http://www.w3.org/1999/xlink">
    <!-- Generator: Sketch 50 (54983) - http://www.bohemiancoding.com/sketch -->
    <title>“</title>
    <desc>Created with Sketch.</desc>
    <defs></defs>
    <g id="Desktop" stroke="none" stroke-width="1" fill="none" fill-rule="evenodd">
        <g id="Home" transform="translate(-829.000000, -2078.000000)" fill="#EBF2FA">
            <g id="Group-9" transform="translate(148.000000, 1758.000000)">
                <path d="M745,328.590022 C735.347552,333.36228 730.521401,338.969599 730.521401,345.412148 C734.635559,345.889373 738.0376,347.579523 740.727626,350.482646 C743.417653,353.38577 744.762646,356.746185 744.762646,360.563991 C744.762646,364.620411 743.457211,368.040478 740.846304,370.824295 C738.235396,373.608112 734.95203,375 730.996109,375 C726.565477,375 722.728291,373.190546 719.484436,369.571584 C716.24058,365.952621 714.618677,361.558233 714.618677,356.388286 C714.618677,340.878447 723.242456,328.74914 740.490272,320 L745,328.590022 Z M711.381323,328.590022 C701.649757,333.36228 696.784047,338.969599 696.784047,345.412148 C700.977323,345.889373 704.418923,347.579523 707.108949,350.482646 C709.798976,353.38577 711.143969,356.746185 711.143969,360.563991 C711.143969,364.620411 709.818755,368.040478 707.168288,370.824295 C704.517821,373.608112 701.214676,375 697.258755,375 C692.828123,375 689.010716,373.190546 685.80642,369.571584 C682.602124,365.952621 681,361.558233 681,356.388286 C681,340.878447 689.58422,328.74914 706.752918,320 L711.381323,328.590022 Z" id="“"></path>
            </g>
        </g>
    </g>
</svg>