<?xml version="1.0" encoding="UTF-8"?>
<svg width="152px" height="26px" viewBox="0 0 152 26" version="1.1" xmlns="http://www.w3.org/2000/svg" xmlns:xlink="http://www.w3.org/1999/xlink">
    <!-- Generator: Sketch 50 (54983) - http://www.bohemiancoding.com/sketch -->
    <title>logo copy</title>
    <desc>Created with Sketch.</desc>
    <defs></defs>
    <g id="Symbols" stroke="none" stroke-width="1" fill="none" fill-rule="evenodd">
        <g id="Header" transform="translate(-2.000000, -8.000000)">
            <g id="Group-9">
                <g id="logo-copy" transform="translate(0.000000, 6.000000)">
                    <g id="Group" transform="translate(0.194244, 0.189831)">
                        <g id="hubert" transform="translate(15.001800, 14.706145) rotate(-11.000000) translate(-15.001800, -14.706145) translate(2.353151, 2.600882)">
                            <path d="M16.7253286,0.042303078 C18.1267067,0.049437142 19.8356169,1.07115191 20.5422891,2.32436327 L24.7288731,9.7490067 C25.4355453,11.002238 25.4403318,13.0370044 24.7396427,14.2938207 L20.6453981,21.6374094 C19.944709,22.8942257 18.2405853,23.9072604 16.8392072,23.9000903 L8.53670642,23.8578667 C7.13532826,23.8506967 5.42642472,22.8290313 4.71976583,21.5758001 L0.533169874,14.15115 C-0.17348902,12.8979187 -0.178318722,10.8631523 0.52238232,9.60633604 L4.61665019,2.26275397 C5.31735256,1.0059576 7.02144967,-0.00709662064 8.42282782,3.74499974e-05 L16.7253286,0.042303078 L16.7253286,0.042303078 L16.7253286,0.042303078 L16.7253286,0.042303078 Z" id="head" fill="#DD6461"></path>
                            <path d="M6.98029914,11.8172997 C7.71460667,11.8172997 8.30987993,11.2228298 8.30987993,10.4895132 C8.30987993,9.75619666 7.71460667,9.16172673 6.98029914,9.16172673 C6.24599162,9.16172673 5.65071835,9.75619666 5.65071835,10.4895132 C5.65071835,11.2228298 6.24599162,11.8172997 6.98029914,11.8172997 L6.98029914,11.8172997 L6.98029914,11.8172997 L6.98029914,11.8172997 Z" id="eye-left" fill="#613433"></path>
                            <path d="M18.2817359,11.8172997 C19.0160633,11.8172997 19.6113166,11.2228298 19.6113166,10.4895132 C19.6113166,9.75619666 19.0160633,9.16172673 18.2817359,9.16172673 C17.5474084,9.16172673 16.9521551,9.75619666 16.9521551,10.4895132 C16.9521551,11.2228298 17.5474084,11.8172997 18.2817359,11.8172997 L18.2817359,11.8172997 L18.2817359,11.8172997 L18.2817359,11.8172997 Z" id="eye-right" fill="#613433"></path>
                            <path d="M10.6890185,18.7283088 C11.703349,19.1570843 13.558686,19.1570843 14.5730032,18.7283088 C15.7650389,18.2244205 16.7200103,17.2707113 17.2245862,16.0803043 C17.6539743,15.0673426 16.7240655,14.140926 15.6225743,14.140926 L9.63946072,14.140926 C8.53800276,14.140926 7.60808352,15.0673426 8.03743819,16.0803043 C8.5420048,17.2707113 9.49700279,18.2244205 10.6890185,18.7283088 L10.6890185,18.7283088 L10.6890185,18.7283088 L10.6890185,18.7283088 Z" id="mouth" fill="#613433"></path>
                            <path d="M10.3334952,18.175943 C10.6520096,18.3583079 11.2120091,18.5698707 11.5734756,18.6341621 C12.2304215,18.7510007 13.0316135,18.7510007 13.6885594,18.6341621 C14.0500259,18.5698707 14.6100254,18.3583079 14.9285398,18.175943 C15.3098835,17.9576085 15.651958,17.6865408 15.9428703,17.373794 C16.1926985,17.105143 16.1588607,16.6250619 15.8679484,16.4013896 C15.2101383,15.8956722 14.3100454,15.5448452 13.2947376,15.4371757 C12.9296347,15.3984581 12.3324003,15.3984581 11.9672974,15.4371757 C10.9519896,15.5448452 10.0518967,15.8956722 9.3941185,16.4013896 C9.10319359,16.6250619 9.06932451,17.105143 9.31918532,17.373794 C9.6100504,17.6865408 9.95215153,17.9576085 10.3334952,18.175943 L10.3334952,18.175943 L10.3334952,18.175943 L10.3334952,18.175943 Z" id="tongue" fill="#AB4F4F"></path>
                        </g>
                        <path d="M43.0401892,16.3431579 C43.0401892,19.0063158 41.5613514,20.3621053 39.3794595,20.3621053 C37.1733243,20.3621053 35.6944865,19.0063158 35.6944865,16.3431579 L35.6944865,6.68315789 C35.6944865,5.95684211 35.2581081,5.52105263 34.6277838,5.52105263 C33.9732162,5.52105263 33.5368378,5.95684211 33.5368378,6.68315789 L33.5368378,16.3431579 C33.5368378,20.3621053 35.8641892,22.3715789 39.3552162,22.3715789 C42.8947297,22.3715789 45.1978378,20.3621053 45.1978378,16.3431579 L45.1978378,6.68315789 C45.1978378,5.95684211 44.7614595,5.52105263 44.1311351,5.52105263 C43.4765676,5.52105263 43.0401892,5.95684211 43.0401892,6.68315789 L43.0401892,16.3431579 Z M52.1597363,22.3715789 C55.2386281,22.3715789 56.8871687,20.8705263 56.8871687,18.5947368 C56.8871687,16.7063158 55.820466,15.5684211 53.3961417,15.3021053 L52.1839795,15.1810526 C50.438466,15.0115789 49.9051146,14.5273684 49.9051146,13.6073684 C49.9051146,12.6631579 50.6566552,12.0094737 52.1112498,12.0094737 C53.032493,12.0094737 53.9052498,12.2515789 54.6810336,12.6147368 C54.9961957,12.76 55.2143849,12.8084211 55.4083309,12.8084211 C55.8931957,12.8084211 56.2810876,12.4210526 56.2810876,11.9368421 C56.2810876,11.5736842 56.0871417,11.3073684 55.6750065,11.0894737 C54.7780065,10.5810526 53.5658444,10.2421053 52.2082227,10.2421053 C49.4929795,10.2421053 47.9171687,11.5736842 47.9171687,13.7768421 C47.9171687,15.6410526 49.1050876,16.8031579 51.3839525,17.0452632 L52.5961146,17.1663158 C54.4386011,17.36 54.8749795,17.8442105 54.8749795,18.8126316 C54.8749795,19.8294737 54.0022227,20.5557895 52.329439,20.5557895 C51.0203038,20.5557895 50.0263309,20.0957895 49.0808444,19.5389474 C48.7899254,19.3694737 48.5959795,19.3210526 48.4020336,19.3210526 C47.844439,19.3210526 47.4565471,19.7568421 47.4565471,20.2410526 C47.4565471,20.58 47.6262498,20.8705263 47.9414119,21.0884211 C48.9111417,21.7663158 50.3899795,22.3715789 52.1597363,22.3715789 L52.1597363,22.3715789 Z M68.5764995,20.6768421 L68.1643644,19.9263158 C67.9946617,19.5873684 67.9461752,19.3452632 67.9461752,18.74 L67.9461752,14.5757895 C67.9461752,11.7189474 66.4915806,10.2421053 63.3884455,10.2421053 C61.7883914,10.2421053 60.5762293,10.6294737 59.848932,11.1136842 C59.5095266,11.3073684 59.3640671,11.6221053 59.3640671,11.9368421 C59.3640671,12.4694737 59.7034725,12.8084211 60.2368239,12.8084211 C60.4065266,12.8084211 60.6247158,12.7357895 60.8186617,12.6389474 C61.3762563,12.3484211 62.2974995,12.0578947 63.1944995,12.0578947 C65.230932,12.0578947 65.9824725,12.9778947 65.9824725,14.6 L65.9824725,15.1568421 C65.9824725,15.2536842 65.933986,15.3021053 65.8370131,15.3021053 L63.1944995,15.3021053 C60.3095536,15.3021053 58.6610131,16.4884211 58.6610131,18.8852632 C58.6610131,21.0884211 60.1640941,22.3715789 62.7581212,22.3715789 C64.4551482,22.3715789 65.5460941,21.8631579 66.3218779,20.9915789 L66.3461212,20.9915789 L66.8067428,21.7178947 C67.0491752,22.0568421 67.3400941,22.2263158 67.7037428,22.2263158 C68.3098239,22.2263158 68.7462022,21.8147368 68.7462022,21.2578947 C68.7462022,21.0642105 68.6734725,20.8463158 68.5764995,20.6768421 L68.5764995,20.6768421 Z M63.0490401,20.6284211 C61.4974725,20.6284211 60.6247158,20.0231579 60.6247158,18.8126316 C60.6247158,17.5052632 61.5217158,16.9242105 63.5096617,16.9242105 L65.8370131,16.9242105 C65.933986,16.9242105 65.9824725,16.9726316 65.9824725,17.0694737 L65.9824725,18.3526316 C65.9824725,19.7810526 64.8430401,20.6284211 63.0490401,20.6284211 L63.0490401,20.6284211 Z M71.9988844,22.2263158 C72.5807223,22.2263158 73.0171007,21.8147368 73.0171007,21.1368421 L73.0171007,20.8221053 L73.0413439,20.8221053 C73.5989385,21.7421053 74.6171547,22.3715789 76.338425,22.3715789 C78.3021277,22.3715789 79.732479,21.2821053 80.3385601,19.4663158 C80.629479,18.5463158 80.7506953,17.6263158 80.7506953,16.2947368 C80.7506953,14.9873684 80.629479,14.0673684 80.3385601,13.1473684 C79.732479,11.3315789 78.3021277,10.2421053 76.338425,10.2421053 C74.5929115,10.2421053 73.5746953,10.8957895 73.0413439,11.7915789 L73.0171007,11.7915789 L73.0171007,6.61052632 C73.0171007,5.93263158 72.5807223,5.52105263 71.9988844,5.52105263 C71.4170466,5.52105263 70.9806682,5.93263158 70.9806682,6.61052632 L70.9806682,21.1368421 C70.9806682,21.8147368 71.4170466,22.2263158 71.9988844,22.2263158 L71.9988844,22.2263158 Z M75.8535601,20.4831579 C74.544425,20.4831579 73.6716682,19.8294737 73.2837763,18.6673684 C73.0655872,18.0378947 73.0171007,17.3115789 73.0171007,16.2947368 C73.0171007,15.3021053 73.0655872,14.5757895 73.2837763,13.9463158 C73.6716682,12.7842105 74.544425,12.1305263 75.8535601,12.1305263 C77.138452,12.1305263 78.0112088,12.7842105 78.3991007,13.9463158 C78.6172899,14.5757895 78.6657763,15.3021053 78.6657763,16.2947368 C78.6657763,17.3115789 78.6172899,18.0378947 78.3991007,18.6673684 C78.0112088,19.8294737 77.138452,20.4831579 75.8535601,20.4831579 L75.8535601,20.4831579 Z M84.1730802,8.18421053 C84.9003775,8.18421053 85.5064585,7.57894737 85.5064585,6.85263158 C85.5064585,6.10210526 84.9003775,5.52105263 84.1730802,5.52105263 C83.4457829,5.52105263 82.8397018,6.10210526 82.8397018,6.85263158 C82.8397018,7.57894737 83.4457829,8.18421053 84.1730802,8.18421053 L84.1730802,8.18421053 Z M83.154864,21.1368421 C83.154864,21.8147368 83.5912423,22.2263158 84.1730802,22.2263158 C84.754918,22.2263158 85.1912964,21.8147368 85.1912964,21.1368421 L85.1912964,11.4768421 C85.1912964,10.7989474 84.754918,10.3873684 84.1730802,10.3873684 C83.5912423,10.3873684 83.154864,10.7989474 83.154864,11.4768421 L83.154864,21.1368421 Z M91.3046813,22.2263158 C91.9834921,22.2263158 92.3471407,21.8389474 92.3471407,21.2821053 C92.3471407,20.7252632 91.9834921,20.3378947 91.4016543,20.3378947 C90.6016272,20.3378947 90.2864651,19.9747368 90.2864651,19.0063158 L90.2864651,6.61052632 C90.2864651,5.93263158 89.8500867,5.52105263 89.2682489,5.52105263 C88.686411,5.52105263 88.2500326,5.93263158 88.2500326,6.61052632 L88.2500326,19.1273684 C88.2500326,21.2094737 89.0015732,22.2263158 91.0864921,22.2263158 L91.3046813,22.2263158 Z M95.2119311,8.18421053 C95.9392284,8.18421053 96.5453094,7.57894737 96.5453094,6.85263158 C96.5453094,6.10210526 95.9392284,5.52105263 95.2119311,5.52105263 C94.4846338,5.52105263 93.8785527,6.10210526 93.8785527,6.85263158 C93.8785527,7.57894737 94.4846338,8.18421053 95.2119311,8.18421053 L95.2119311,8.18421053 Z M94.1937148,21.1368421 C94.1937148,21.8147368 94.6300932,22.2263158 95.2119311,22.2263158 C95.7937689,22.2263158 96.2301473,21.8147368 96.2301473,21.1368421 L96.2301473,11.4768421 C96.2301473,10.7989474 95.7937689,10.3873684 95.2119311,10.3873684 C94.6300932,10.3873684 94.1937148,10.7989474 94.1937148,11.4768421 L94.1937148,21.1368421 Z M103.070829,22.2263158 C103.798127,22.2263158 104.161775,21.8389474 104.161775,21.2821053 C104.161775,20.7252632 103.798127,20.3378947 103.167802,20.3378947 C101.931397,20.3378947 101.616235,19.9747368 101.616235,18.74 L101.616235,12.3 C101.616235,12.2031579 101.664721,12.1547368 101.761694,12.1547368 L103.289019,12.1547368 C103.846613,12.1547368 104.161775,11.8157895 104.161775,11.3315789 C104.161775,10.8473684 103.846613,10.5084211 103.289019,10.5084211 L101.761694,10.5084211 C101.664721,10.5084211 101.616235,10.46 101.616235,10.3631579 L101.616235,7.82105263 C101.616235,7.14315789 101.179857,6.73157895 100.598019,6.73157895 C100.016181,6.73157895 99.5798025,7.14315789 99.5798025,7.82105263 L99.5798025,10.3631579 C99.5798025,10.46 99.531316,10.5084211 99.434343,10.5084211 L98.7797754,10.5084211 C98.2221808,10.5084211 97.9070187,10.8473684 97.9070187,11.3315789 C97.9070187,11.8157895 98.2221808,12.1547368 98.7797754,12.1547368 L99.434343,12.1547368 C99.531316,12.1547368 99.5798025,12.2031579 99.5798025,12.3 L99.5798025,18.8126316 C99.5798025,21.2336842 100.452559,22.2263158 102.828397,22.2263158 L103.070829,22.2263158 Z M106.856863,26.4631579 C108.529647,26.4631579 109.45089,25.8578947 110.469106,23.2431579 L114.83289,11.8157895 C114.881377,11.6705263 114.929863,11.5010526 114.929863,11.3315789 C114.929863,10.7989474 114.541971,10.3873684 113.93589,10.3873684 C113.475268,10.3873684 113.160106,10.6294737 112.990404,11.1136842 L110.081214,19.1273684 L110.032728,19.1273684 L107.002322,11.1136842 C106.83262,10.6294737 106.517458,10.3873684 106.032593,10.3873684 C105.450755,10.3873684 105.014377,10.7989474 105.014377,11.3315789 C105.014377,11.5010526 105.062863,11.6705263 105.11135,11.8157895 L109.062998,21.7663158 L108.675106,22.8315789 C108.165998,24.2115789 107.608404,24.5747368 106.662917,24.5747368 C106.032593,24.5747368 105.668944,24.9863158 105.668944,25.5189474 C105.668944,26.0515789 106.032593,26.4631579 106.662917,26.4631579 L106.856863,26.4631579 Z M116.921897,21.0642105 C116.921897,21.7905263 117.358275,22.2263158 118.012843,22.2263158 C118.643167,22.2263158 119.079545,21.7905263 119.079545,21.0642105 L119.079545,14.9389474 C119.079545,14.8421053 119.128032,14.7936842 119.225005,14.7936842 L126.376761,14.7936842 C126.473734,14.7936842 126.522221,14.8421053 126.522221,14.9389474 L126.522221,21.0642105 C126.522221,21.7905263 126.958599,22.2263158 127.613167,22.2263158 C128.243491,22.2263158 128.67987,21.7905263 128.67987,21.0642105 L128.67987,6.68315789 C128.67987,5.95684211 128.243491,5.52105263 127.613167,5.52105263 C126.958599,5.52105263 126.522221,5.95684211 126.522221,6.68315789 L126.522221,12.6389474 C126.522221,12.7357895 126.473734,12.7842105 126.376761,12.7842105 L119.225005,12.7842105 C119.128032,12.7842105 119.079545,12.7357895 119.079545,12.6389474 L119.079545,6.68315789 C119.079545,5.95684211 118.643167,5.52105263 118.012843,5.52105263 C117.358275,5.52105263 116.921897,5.95684211 116.921897,6.68315789 L116.921897,21.0642105 Z M140.926795,11.4768421 C140.926795,10.7989474 140.490417,10.3873684 139.908579,10.3873684 C139.326741,10.3873684 138.890363,10.7989474 138.890363,11.4768421 L138.890363,17.6505263 C138.890363,19.3694737 137.847903,20.4831579 136.272092,20.4831579 C134.526579,20.4831579 133.702309,19.3936842 133.702309,17.5294737 L133.702309,11.4768421 C133.702309,10.7989474 133.26593,10.3873684 132.684092,10.3873684 C132.102254,10.3873684 131.665876,10.7989474 131.665876,11.4768421 L131.665876,18.0136842 C131.665876,20.6526316 133.144714,22.3715789 135.666011,22.3715789 C137.241822,22.3715789 138.308525,21.6936842 138.866119,20.7978947 L138.890363,20.7978947 L138.890363,21.1368421 C138.890363,21.8147368 139.326741,22.2263158 139.908579,22.2263158 C140.490417,22.2263158 140.926795,21.8147368 140.926795,21.1368421 L140.926795,11.4768421 Z M145.052234,22.2263158 C145.634072,22.2263158 146.07045,21.8147368 146.07045,21.1368421 L146.07045,20.8221053 L146.094693,20.8221053 C146.652288,21.7421053 147.670504,22.3715789 149.391775,22.3715789 C151.355477,22.3715789 152.785829,21.2821053 153.39191,19.4663158 C153.682829,18.5463158 153.804045,17.6263158 153.804045,16.2947368 C153.804045,14.9873684 153.682829,14.0673684 153.39191,13.1473684 C152.785829,11.3315789 151.355477,10.2421053 149.391775,10.2421053 C147.646261,10.2421053 146.628045,10.8957895 146.094693,11.7915789 L146.07045,11.7915789 L146.07045,6.61052632 C146.07045,5.93263158 145.634072,5.52105263 145.052234,5.52105263 C144.470396,5.52105263 144.034018,5.93263158 144.034018,6.61052632 L144.034018,21.1368421 C144.034018,21.8147368 144.470396,22.2263158 145.052234,22.2263158 L145.052234,22.2263158 Z M148.90691,20.4831579 C147.597775,20.4831579 146.725018,19.8294737 146.337126,18.6673684 C146.118937,18.0378947 146.07045,17.3115789 146.07045,16.2947368 C146.07045,15.3021053 146.118937,14.5757895 146.337126,13.9463158 C146.725018,12.7842105 147.597775,12.1305263 148.90691,12.1305263 C150.191802,12.1305263 151.064558,12.7842105 151.45245,13.9463158 C151.670639,14.5757895 151.719126,15.3021053 151.719126,16.2947368 C151.719126,17.3115789 151.670639,18.0378947 151.45245,18.6673684 C151.064558,19.8294737 150.191802,20.4831579 148.90691,20.4831579 L148.90691,20.4831579 Z" id="UsabilityHub" fill="#38444F"></path>
                    </g>
                </g>
            </g>
        </g>
    </g>
</svg>