<svg width="80" height="80" viewBox="0 0 80 80" fill="none" xmlns="http://www.w3.org/2000/svg">
<path d="M80 40C80 62.0914 62.0914 80 40 80C17.9086 80 0 62.0914 0 40C0 17.9086 17.9086 0 40 0C62.0914 0 80 17.9086 80 40Z" fill="#00B5D8"/>
<path d="M16 28C16 25.7909 17.7909 24 20 24H60C62.2091 24 64 25.7909 64 28V44C64 46.2091 62.2091 48 60 48H20C17.7909 48 16 46.2091 16 44V28Z" fill="white"/>
<path d="M20 52C20 54.2091 21.7909 56 24 56H56C58.2091 56 60 54.2091 60 52H20Z" fill="white"/>
<path d="M24.067 60.333C24.4113 62.1921 26.0412 63.6 28 63.6H52C53.9588 63.6 55.5887 62.1921 55.933 60.333C55.6954 60.377 55.4504 60.4 55.2 60.4H24.8C24.5496 60.4 24.3046 60.377 24.067 60.333Z" fill="white"/>
</svg>
