<?xml version="1.0" encoding="UTF-8"?>
<svg width="80px" height="80px" viewBox="0 0 80 80" version="1.1" xmlns="http://www.w3.org/2000/svg" xmlns:xlink="http://www.w3.org/1999/xlink">
    <!-- Generator: Sketch 50 (54983) - http://www.bohemiancoding.com/sketch -->
    <title>Group 6</title>
    <desc>Created with Sketch.</desc>
    <defs></defs>
    <g id="Desktop" stroke="none" stroke-width="1" fill="none" fill-rule="evenodd">
        <g id="click" transform="translate(-680.000000, -224.000000)">
            <g id="Group-6" transform="translate(680.000000, 224.000000)">
                <path d="M40,80 C70.09139,80 80,72.09139 80,40 C80,7.90861001 70.09139,0 40,0 C9.90861001,3.68513244e-15 -1.07182509e-13,9.90861001 -3.55271368e-14,40 C3.55271368e-14,70.09139 9.90861001,80 40,80 Z" id="Oval" fill="#7753BE"></path>
                <path d="M42.9867378,45.2069927 L42.9867378,58.5559511 C42.9867378,59.1082358 42.5390226,59.5559511 41.9867378,59.5559511 L37.7367378,59.5559511 C37.1844531,59.5559511 36.7367378,59.1082358 36.7367378,58.5559511 L36.7367378,45.2069927 L26.9291016,47.2502503 C26.3884256,47.3628911 25.8588077,47.0159001 25.7461669,46.4752241 C25.6990469,46.249048 25.7316948,46.0135336 25.8385625,45.8087038 L38.975153,20.6302387 C39.2306211,20.1405914 39.8346566,19.9507517 40.3243038,20.2062198 C40.5056908,20.3008565 40.653686,20.4488517 40.7483227,20.6302387 L53.8849132,45.8087038 C54.1403814,46.2983511 53.9505417,46.9023866 53.4608944,47.1578547 C53.2560647,47.2647224 53.0205502,47.2973703 52.7943741,47.2502503 L42.9867378,45.2069927 Z" id="Combined-Shape" fill="#FFFFFF" transform="translate(39.861883, 40.073200) rotate(-45.000000) translate(-39.861883, -40.073200) "></path>
            </g>
        </g>
    </g>
</svg>