<?xml version="1.0" encoding="UTF-8"?>
<svg width="80px" height="80px" viewBox="0 0 80 80" version="1.1" xmlns="http://www.w3.org/2000/svg" xmlns:xlink="http://www.w3.org/1999/xlink">
    <!-- Generator: Sketch 50 (54983) - http://www.bohemiancoding.com/sketch -->
    <title>Group 5</title>
    <desc>Created with Sketch.</desc>
    <defs></defs>
    <g id="Desktop" stroke="none" stroke-width="1" fill="none" fill-rule="evenodd">
        <g id="five-second" transform="translate(-680.000000, -224.000000)">
            <g id="Group-5" transform="translate(680.000000, 224.000000)">
                <path d="M40,80 C70.09139,80 80,74.09139 80,40 C80,5.90861001 70.09139,0 40,0 C9.90861001,0 1.84256622e-15,9.90861001 0,40 C0,70.09139 9.90861001,80 40,80 Z" id="Oval-Copy-3" fill="#4DADF7"></path>
                <path d="M48.6304244,33.8202812 C49.9014708,32.3037822 50.6033325,30.4011929 50.6033325,28.4654343 L50.6033325,25.36518 C50.6033325,24.8183187 50.1599486,24.375 49.6079188,24.375 L30.3704137,24.375 C29.8206619,24.375 29.375,24.8127481 29.375,25.36518 L29.375,28.4654343 C29.375,30.4011929 30.075535,32.3024554 31.3479082,33.8189544 L35.4423228,38.7014709 C36.1946018,39.5996947 36.1999089,40.8574734 35.4542637,41.7610043 L31.3014712,46.7947727 C30.0596137,48.3019843 29.375,50.184672 29.375,52.095222 L29.375,55.2196106 C29.375,55.770729 29.8183839,56.2174988 30.3704137,56.2174988 L49.6079188,56.2174988 C50.1576706,56.2174988 50.6033325,55.7763429 50.6033325,55.2196106 L50.6033325,52.095222 C50.6033325,50.184672 49.917392,48.3033111 48.6755346,46.7960995 L44.522742,41.7623311 C43.7770968,40.8588002 43.7824039,39.6010215 44.534683,38.7027977 L48.6304244,33.8202812 Z" id="Shape" fill="#FFFFFF" fill-rule="nonzero"></path>
            </g>
        </g>
    </g>
</svg>