<svg width="32" height="32" viewBox="0 0 32 32" fill="none" xmlns="http://www.w3.org/2000/svg">
<path d="M6.3931 9.40799C6.3931 7.74265 7.74243 6.39332 9.40777 6.39199H10.7798C11.5758 6.39199 12.3384 6.07599 12.9038 5.51599L13.8624 4.55599C15.0371 3.37465 16.9464 3.36932 18.1278 4.54399L18.1291 4.54532L18.1411 4.55599L19.1011 5.51599C19.6664 6.07732 20.4291 6.39199 21.2251 6.39199H22.5958C24.2611 6.39199 25.6118 7.74132 25.6118 9.40799V10.7773C25.6118 11.5733 25.9264 12.3373 26.4878 12.9027L27.4478 13.8627C28.6291 15.0373 28.6358 16.9467 27.4611 18.128L27.4598 18.1293L27.4478 18.1413L26.4878 19.1013C25.9264 19.6653 25.6118 20.428 25.6118 21.224V22.596C25.6118 24.2613 24.2624 25.6107 22.5971 25.6107H22.5958H21.2224C20.4264 25.6107 19.6624 25.9267 19.0984 26.488L18.1384 27.4467C16.9651 28.628 15.0571 28.6347 13.8758 27.4627C13.8744 27.4613 13.8731 27.46 13.8718 27.4587L13.8598 27.4467L12.9011 26.488C12.3371 25.9267 11.5731 25.612 10.7771 25.6107H9.40777C7.74243 25.6107 6.3931 24.2613 6.3931 22.596V21.2213C6.3931 20.4253 6.0771 19.6627 5.51577 19.0987L4.5571 18.1387C3.37577 16.9653 3.3691 15.0573 4.54243 13.876C4.54243 13.8747 4.54377 13.8733 4.5451 13.872L4.5571 13.86L5.51577 12.9C6.0771 12.3347 6.3931 11.572 6.3931 10.7747V9.40799" stroke="white" stroke-width="1.5" stroke-linecap="round" stroke-linejoin="round"/>
<path d="M12.5754 19.4289L19.4288 12.5756" stroke="white" stroke-width="1.5" stroke-linecap="round" stroke-linejoin="round"/>
<path d="M19.3272 19.3333H19.3392" stroke="white" stroke-width="2" stroke-linecap="round" stroke-linejoin="round"/>
<path d="M12.6607 12.6667H12.6727" stroke="white" stroke-width="2" stroke-linecap="round" stroke-linejoin="round"/>
</svg>
