<svg width="24" height="24" viewBox="0 0 24 24" fill="none" xmlns="http://www.w3.org/2000/svg">
<mask id="mask0_270_657" style="mask-type:alpha" maskUnits="userSpaceOnUse" x="8" y="2" width="15" height="20">
<path fill-rule="evenodd" clip-rule="evenodd" d="M8.79395 21.9996L8.79394 2L22.5379 2L22.5379 21.9996L8.79395 21.9996Z" fill="white"/>
</mask>
<g mask="url(#mask0_270_657)">
<path fill-rule="evenodd" clip-rule="evenodd" d="M22.5379 6.4346L22.5379 17.5646C22.5379 20.0096 20.5489 21.9996 18.1029 21.9996L13.2279 21.9996C10.7829 21.9996 8.79395 20.0096 8.79395 17.5646L8.79395 16.6316C8.79395 16.2176 9.12995 15.8816 9.54395 15.8816C9.95795 15.8816 10.2939 16.2176 10.2939 16.6316L10.2939 17.5646C10.2939 19.1836 11.6099 20.4996 13.2279 20.4996L18.1029 20.4996C19.7219 20.4996 21.0379 19.1836 21.0379 17.5646L21.0379 6.4346C21.0379 4.8166 19.7219 3.4996 18.1029 3.4996L13.2189 3.4996C11.6059 3.4996 10.2939 4.8116 10.2939 6.4236L10.2939 7.3666C10.2939 7.7806 9.95794 8.1166 9.54394 8.1166C9.12994 8.1166 8.79394 7.7806 8.79394 7.3666L8.79394 6.4236C8.79394 3.9846 10.7789 1.9996 13.2189 1.9996L18.1029 1.9996C20.5489 1.9996 22.5379 3.9896 22.5379 6.4346" fill="#E62A2A"/>
</g>
<mask id="mask1_270_657" style="mask-type:alpha" maskUnits="userSpaceOnUse" x="2" y="11" width="14" height="2">
<path fill-rule="evenodd" clip-rule="evenodd" d="M2 12.75L2 11.25L15.5409 11.25L15.5409 12.75L2 12.75Z" fill="white"/>
</mask>
<g mask="url(#mask1_270_657)">
<path fill-rule="evenodd" clip-rule="evenodd" d="M15.541 12C15.541 12.414 15.205 12.75 14.791 12.75L2.75 12.75C2.336 12.75 2 12.414 2 12C2 11.586 2.336 11.25 2.75 11.25L14.791 11.25C15.205 11.25 15.541 11.586 15.541 12" fill="#E62A2A"/>
</g>
<path fill-rule="evenodd" clip-rule="evenodd" d="M6.42853 14.915C6.42853 15.106 6.35553 15.298 6.20953 15.444C5.91753 15.737 5.44353 15.739 5.14953 15.446L2.22153 12.531C1.93853 12.25 1.93853 11.75 2.22153 11.469L5.14953 8.55301C5.44353 8.26101 5.91753 8.26201 6.20953 8.55501C6.50153 8.84901 6.50153 9.32301 6.20753 9.61501L3.81353 12L6.20753 14.384C6.35553 14.53 6.42853 14.723 6.42853 14.915" fill="#E62A2A"/>
</svg>
