<svg width="170" height="170" viewBox="0 0 170 170" fill="none" xmlns="http://www.w3.org/2000/svg">
<path d="M170 158.1C170 160.805 168.925 163.4 167.012 165.312C165.1 167.225 162.505 168.3 159.8 168.3H10.2C7.49479 168.3 4.90038 167.225 2.98751 165.312C1.07464 163.4 0 160.805 0 158.1L0 34H170V158.1Z" fill="#242476"/>
<path d="M6.79999 0H163.2V34H6.79999V0Z" fill="#0A0E2F"/>
<path d="M163.2 34H149.6V13.6L163.2 0V34ZM6.79999 34H20.4V13.6L6.79999 0V34Z" fill="#242476"/>
<path d="M20.4 13.6V34H0L20.4 13.6ZM149.6 13.6V34H170L149.6 13.6Z" fill="#FABA3E"/>
<path opacity="0.3" d="M44.2 76.5C48.8944 76.5 52.7 72.6944 52.7 68C52.7 63.3056 48.8944 59.5 44.2 59.5C39.5056 59.5 35.7 63.3056 35.7 68C35.7 72.6944 39.5056 76.5 44.2 76.5Z" fill="black"/>
<path opacity="0.3" d="M125.8 76.5C130.494 76.5 134.3 72.6944 134.3 68C134.3 63.3056 130.494 59.5 125.8 59.5C121.106 59.5 117.3 63.3056 117.3 68C117.3 72.6944 121.106 76.5 125.8 76.5Z" fill="black"/>
<path d="M125.8 68C125.8 90.5318 107.534 108.8 85 108.8C62.4665 108.8 44.2 90.5335 44.2 68" stroke="white" stroke-width="6" stroke-miterlimit="10" stroke-linecap="round"/>
</svg>
