<svg width="24" height="24" viewBox="0 0 24 24" fill="none" xmlns="http://www.w3.org/2000/svg">
<path d="M2.81344 15.4667L1.54677 20.9333C1.50308 21.1332 1.50458 21.3403 1.55116 21.5394C1.59774 21.7386 1.68823 21.9249 1.81602 22.0846C1.9438 22.2444 2.10566 22.3735 2.28976 22.4627C2.47386 22.5519 2.67555 22.5988 2.88011 22.6C2.97542 22.6096 3.07146 22.6096 3.16677 22.6L8.66677 21.3333L19.2268 10.8133L13.3334 4.93335L2.81344 15.4667Z" fill="#0A0E2F"/>
<path d="M22.5468 5.54673L18.6135 1.61339C18.3549 1.3561 18.005 1.21167 17.6402 1.21167C17.2754 1.21167 16.9254 1.3561 16.6668 1.61339L14.4802 3.80006L20.3668 9.68673L22.5535 7.50006C22.6815 7.37145 22.7828 7.21886 22.8517 7.05104C22.9207 6.88321 22.9558 6.70344 22.9552 6.52201C22.9546 6.34058 22.9182 6.16106 22.8481 5.99371C22.7781 5.82636 22.6757 5.67447 22.5468 5.54673V5.54673Z" fill="#0A0E2F"/>
</svg>
