<svg width="24" height="24" viewBox="0 0 24 24" fill="none" xmlns="http://www.w3.org/2000/svg">
<path fill-rule="evenodd" clip-rule="evenodd" d="M11.9996 9.64133C10.6696 9.64133 9.58862 10.7233 9.58862 12.0533C9.58862 13.3823 10.6696 14.4633 11.9996 14.4633C13.3296 14.4633 14.4116 13.3823 14.4116 12.0533C14.4116 10.7233 13.3296 9.64133 11.9996 9.64133M11.9996 15.9633C9.84262 15.9633 8.08862 14.2093 8.08862 12.0533C8.08862 9.89633 9.84262 8.14133 11.9996 8.14133C14.1566 8.14133 15.9116 9.89633 15.9116 12.0533C15.9116 14.2093 14.1566 15.9633 11.9996 15.9633" fill="#0A0E2F"/>
<mask id="mask0_270_679" style="mask-type:alpha" maskUnits="userSpaceOnUse" x="2" y="4" width="20" height="17">
<path fill-rule="evenodd" clip-rule="evenodd" d="M2.00024 4.00021H22.0001V20.1052H2.00024V4.00021Z" fill="white"/>
</mask>
<g mask="url(#mask0_270_679)">
<path fill-rule="evenodd" clip-rule="evenodd" d="M3.56999 12.0525C5.42999 16.1615 8.56299 18.6045 12 18.6055C15.437 18.6045 18.57 16.1615 20.43 12.0525C18.57 7.94451 15.437 5.50151 12 5.50051C8.56399 5.50151 5.42999 7.94451 3.56999 12.0525V12.0525ZM12.002 20.1055H11.998H11.997C7.86099 20.1025 4.14699 17.2035 2.06099 12.3485C1.97999 12.1595 1.97999 11.9455 2.06099 11.7565C4.14699 6.90251 7.86199 4.00351 11.997 4.00051C11.999 3.99951 11.999 3.99951 12 4.00051C12.002 3.99951 12.002 3.99951 12.003 4.00051C16.139 4.00351 19.853 6.90251 21.939 11.7565C22.021 11.9455 22.021 12.1595 21.939 12.3485C19.854 17.2035 16.139 20.1025 12.003 20.1055H12.002Z" fill="#0A0E2F"/>
</g>
</svg>
