<svg width="24" height="24" viewBox="0 0 24 24" fill="none" xmlns="http://www.w3.org/2000/svg">
<path d="M14.8844 7.63218L15.0007 7.86798L15.2609 7.9058L21.2101 8.77041C21.2103 8.77044 21.2105 8.77047 21.2107 8.7705C21.3522 8.79182 21.4423 8.92021 21.4223 9.05038L21.4222 9.05037L21.4214 9.05591C21.4139 9.10889 21.3889 9.15867 21.3489 9.19801C21.3488 9.19815 21.3486 9.19828 21.3485 9.19842L17.0439 13.3952L16.8557 13.5787L16.9002 13.8378L17.9174 19.7651L17.9174 19.7655C17.9406 19.8999 17.8504 20.029 17.7135 20.0526L17.7128 20.0528C17.6583 20.0622 17.6026 20.053 17.5576 20.029L17.5553 20.0278L12.2327 17.2294L12 17.107L11.7673 17.2294L6.44466 20.0278L6.44389 20.0282C6.40277 20.0499 6.35639 20.0597 6.31001 20.0564C6.26363 20.0531 6.21911 20.0368 6.18149 20.0095C6.14386 19.9822 6.11465 19.9449 6.09716 19.9018C6.07967 19.8587 6.0746 19.8116 6.08252 19.7658L6.08264 19.7651L7.09983 13.8378L7.14429 13.5787L6.95607 13.3952L2.6506 9.19752L2.65057 9.19749C2.6029 9.15102 2.57563 9.08752 2.57474 9.02096C2.57387 8.95468 2.59922 8.89076 2.64525 8.84311C2.68455 8.80329 2.73424 8.77837 2.78712 8.77082L2.78832 8.77064L8.7391 7.9058L8.99929 7.86798L9.1156 7.63218L11.7746 2.24163C11.7747 2.24134 11.7749 2.24104 11.775 2.24075C11.8381 2.11567 11.9897 2.0664 12.1115 2.12653L12.1121 2.12681C12.1607 2.15074 12.2001 2.19015 12.224 2.23878L12.2242 2.23921L14.8844 7.63218ZM6.60703 13.7532L5.58984 19.6805L2.7164 8.27584C2.55234 8.29928 2.40234 8.37662 2.2875 8.49381C2.14866 8.63651 2.07215 8.8285 2.07479 9.02758C2.07743 9.22666 2.15899 9.41655 2.30156 9.55553L6.60703 13.7532Z" stroke="#FABA3E"/>
</svg>
