<svg width="24" height="24" viewBox="0 0 24 24" fill="none" xmlns="http://www.w3.org/2000/svg">
<path d="M21.2836 8.27584L15.3328 7.411L12.6727 2.01803C12.6 1.87037 12.4805 1.75084 12.3328 1.67818C11.9625 1.49537 11.5125 1.64771 11.3273 2.01803L8.66719 7.411L2.7164 8.27584C2.55234 8.29928 2.40234 8.37662 2.2875 8.49381C2.14866 8.63651 2.07215 8.8285 2.07479 9.02758C2.07743 9.22666 2.15899 9.41655 2.30156 9.55553L6.60703 13.7532L5.58984 19.6805C5.56599 19.8184 5.58125 19.9602 5.63389 20.0899C5.68653 20.2195 5.77444 20.3318 5.88766 20.4141C6.00088 20.4963 6.13487 20.5452 6.27445 20.5551C6.41403 20.5651 6.5536 20.5357 6.67734 20.4704L12 17.6719L17.3227 20.4704C17.468 20.5477 17.6367 20.5735 17.7984 20.5454C18.2063 20.4751 18.4805 20.0883 18.4102 19.6805L17.393 13.7532L21.6984 9.55553C21.8156 9.44068 21.893 9.29068 21.9164 9.12662C21.9797 8.71646 21.6938 8.33678 21.2836 8.27584V8.27584Z" fill="#FABA3E"/>
</svg>
