<svg width="124" height="124" viewBox="0 0 124 124" fill="none" xmlns="http://www.w3.org/2000/svg">
<path d="M62 0C78.4434 0 94.2134 6.53212 105.841 18.1594C117.468 29.7866 124 45.5566 124 62C124 78.4434 117.468 94.2134 105.841 105.841C94.2134 117.468 78.4434 124 62 124C45.5566 124 29.7866 117.468 18.1594 105.841C6.53212 94.2134 0 78.4434 0 62C0 45.5566 6.53212 29.7866 18.1594 18.1594C29.7866 6.53212 45.5566 0 62 0V0ZM54.2766 74.2317L40.5037 60.45C40.01 59.9562 39.4238 59.5646 38.7787 59.2974C38.1336 59.0301 37.4421 58.8926 36.7439 58.8926C36.0456 58.8926 35.3542 59.0301 34.709 59.2974C34.0639 59.5646 33.4777 59.9562 32.984 60.45C31.9868 61.4472 31.4266 62.7996 31.4266 64.2099C31.4266 65.6201 31.9868 66.9725 32.984 67.9697L50.5211 85.5069C51.0135 86.0031 51.5992 86.3969 52.2445 86.6657C52.8898 86.9345 53.582 87.0729 54.281 87.0729C54.98 87.0729 55.6722 86.9345 56.3175 86.6657C56.9628 86.3969 57.5485 86.0031 58.0409 85.5069L94.3551 49.1837C94.8555 48.692 95.2535 48.1061 95.5263 47.4598C95.7991 46.8135 95.9412 46.1196 95.9445 45.4181C95.9477 44.7166 95.8121 44.0213 95.5453 43.3725C95.2786 42.7237 94.886 42.1341 94.3902 41.6378C93.8945 41.1415 93.3054 40.7482 92.6569 40.4807C92.0084 40.2131 91.3133 40.0767 90.6118 40.0791C89.9103 40.0815 89.2162 40.2228 88.5696 40.4949C87.9229 40.7669 87.3366 41.1642 86.8443 41.664L54.2766 74.2317Z" fill="#4BCB51"/>
</svg>
