<?xml version="1.0" encoding="UTF-8"?>
<svg width="127px" height="28px" viewBox="0 0 127 28" version="1.1" xmlns="http://www.w3.org/2000/svg" xmlns:xlink="http://www.w3.org/1999/xlink">
    <!-- Generator: Sketch 50.2 (55047) - http://www.bohemiancoding.com/sketch -->
    <title>logo</title>
    <desc>Created with Sketch.</desc>
    <defs></defs>
    <g id="Page-1" stroke="none" stroke-width="1" fill="none" fill-rule="evenodd">
        <g id="logo" fill="#ECEFF3">
            <path d="M40,6.2239047 L42.4663407,6.2239047 L44.3807729,13.4233019 L44.6567271,14.7495066 L44.7947042,14.7495066 L45.1568941,13.4233019 L46.9333493,7.87735477 L49.1064886,7.87735477 L50.900191,13.4233019 L51.2451337,14.7322832 L51.3831108,14.7322832 L51.6418179,13.4233019 L53.4355202,6.2239047 L55.9018608,6.2239047 L52.6249047,18.5558865 L50.3827768,18.5558865 L48.4510974,12.6138003 L48.0889075,11.2531487 L47.9509304,11.2531487 L47.5887405,12.6138003 L45.6570611,18.5558865 L43.4149332,18.5558865 L40,6.2239047 Z M61.1306181,17.6602677 L60.992641,17.6602677 C60.7281835,17.9817735 60.4091147,18.2573457 60.0354248,18.4869927 C59.661735,18.7166397 59.1816944,18.8314615 58.5952888,18.8314615 C58.1583592,18.8314615 57.7473065,18.7596979 57.3621185,18.6161685 C56.9769305,18.4726391 56.6406147,18.2745716 56.3531609,18.0219599 C56.0657072,17.7693482 55.8414967,17.4650705 55.6805226,17.1091177 C55.5195485,16.7531648 55.4390627,16.3627708 55.4390627,15.9379239 C55.4390627,15.5015946 55.5252975,15.10833 55.6977697,14.7581183 C55.870242,14.4079067 56.1116995,14.1064995 56.4221495,13.8538878 C56.7325995,13.6012761 57.0976603,13.4089497 57.5173427,13.2769027 C57.9370252,13.1448556 58.3940698,13.0788331 58.8884902,13.0788331 C59.4404013,13.0788331 59.8945714,13.1218913 60.251014,13.2080089 C60.6074567,13.2941265 60.9006551,13.3831134 61.1306181,13.4749722 L61.1306181,13.2166206 C61.1306181,12.768809 60.9523994,12.3985088 60.5959568,12.1057089 C60.2395142,11.8129089 59.7968421,11.6665112 59.2679272,11.6665112 C58.486053,11.6665112 57.8249194,11.9937532 57.2845064,12.6482472 L55.6460283,11.5287237 C56.5428839,10.4034534 57.7674185,9.84082673 59.3196686,9.84082673 C60.6304576,9.84082673 61.6307816,10.147975 62.3206705,10.7622807 C63.0105595,11.3765864 63.3554988,12.2865489 63.3554988,13.4921956 L63.3554988,18.5558865 L61.1306181,18.5558865 L61.1306181,17.6602677 Z M61.1306181,15.1284223 C60.8661606,15.0021164 60.5930837,14.9016474 60.311379,14.8270121 C60.0296744,14.7523768 59.7221035,14.7150597 59.3886572,14.7150597 C58.8482441,14.7150597 58.4314425,14.8327521 58.1382397,15.0681402 C57.8450369,15.3035284 57.6984377,15.5934534 57.6984377,15.9379239 C57.6984377,16.2823943 57.8392879,16.5579666 58.1209925,16.7646489 C58.4026972,16.9713312 58.727515,17.0746708 59.0954558,17.0746708 C59.3944077,17.0746708 59.6703591,17.0201304 59.9233184,16.9110481 C60.1762777,16.8019658 60.3918648,16.6584386 60.5700861,16.4804622 C60.7483074,16.3024857 60.8862831,16.0958066 60.9840174,15.8604184 C61.0817517,15.6250302 61.1306181,15.381034 61.1306181,15.1284223 Z M70.8608782,12.0454268 L67.6701577,12.0454268 L67.6701577,18.5558865 L65.4107827,18.5558865 L65.4107827,12.0454268 L63.8930346,12.0454268 L63.8930346,10.1164017 L65.4107827,10.1164017 L65.4107827,9.2896767 C65.4107827,8.77297097 65.488394,8.31655442 65.643619,7.92041336 C65.7988441,7.5242723 66.0201801,7.19128916 66.3076338,6.92145395 C66.5950876,6.65161873 66.9342779,6.44493954 67.325215,6.30141017 C67.716152,6.1578808 68.1473262,6.08611719 68.6187503,6.08611719 C68.8487133,6.08611719 69.0326809,6.09759937 69.1706587,6.12056407 C69.3086365,6.14352877 69.4408632,6.1779753 69.5673428,6.2239047 L69.4293657,8.3423876 C69.3488787,8.30794055 69.2568949,8.27923511 69.1534115,8.25627041 C69.0499282,8.23330571 68.9177015,8.22182353 68.7567274,8.22182353 C68.4232811,8.22182353 68.1588276,8.33090422 67.963359,8.54906886 C67.7678905,8.7672335 67.6701577,9.06577011 67.6701577,9.44468765 L67.6701577,10.1164017 L70.8608782,10.1164017 L70.8608782,7.532886 L73.1202532,7.532886 L73.1202532,10.1164017 L75.1899097,10.1164017 L75.1899097,12.0454268 L73.1202532,12.0454268 L73.1202532,15.3178801 C73.1202532,15.51308 73.1403746,15.6939243 73.1806182,15.8604184 C73.2208617,16.0269125 73.298473,16.1675691 73.4134545,16.2823926 C73.5744286,16.4661102 73.8043881,16.5579676 74.10334,16.5579676 C74.2988086,16.5579676 74.4540313,16.5378738 74.5690127,16.4976856 C74.6839942,16.4574974 74.793225,16.402957 74.8967084,16.3340629 L75.5348524,18.3147583 C75.270395,18.4410642 74.9858201,18.5357921 74.6811191,18.5989451 C74.3764182,18.662098 74.0401024,18.693674 73.6721616,18.693674 C73.2467301,18.693674 72.8644223,18.6276515 72.5252269,18.4956044 C72.1860315,18.3635574 71.9014566,18.1827131 71.6714936,17.9530661 C71.1310806,17.4363604 70.8608782,16.7015011 70.8608782,15.748466 L70.8608782,12.0454268 Z M78.9181659,8.42850479 L78.9181659,11.2875955 L83.8680944,11.2875955 L83.8680944,13.4921956 L78.9181659,13.4921956 L78.9181659,16.3512864 L84.4200028,16.3512864 L84.4200028,18.5558865 L76.5898024,18.5558865 L76.5898024,6.2239047 L84.4200028,6.2239047 L84.4200028,8.42850479 L78.9181659,8.42850479 Z M87.6998335,11.2187018 L87.8378106,11.2187018 C88.102268,10.7938548 88.4587053,10.4580012 88.9071331,10.2111306 C89.3555609,9.96426013 89.8672209,9.84082673 90.4421283,9.84082673 C90.9710432,9.84082673 91.4367113,9.92694306 91.8391465,10.0991783 C92.2415817,10.2714135 92.5721485,10.5154098 92.8308569,10.8311744 C93.0895653,11.146939 93.2850309,11.5258509 93.4172596,11.9679213 C93.5494883,12.4099918 93.6156017,12.9008549 93.6156017,13.4405253 L93.6156017,18.5558865 L91.3562266,18.5558865 L91.3562266,13.7161003 C91.3562266,13.1075358 91.2211254,12.6568603 90.9509189,12.3640604 C90.6807124,12.0712605 90.2869067,11.9248628 89.76949,11.9248628 C89.45904,11.9248628 89.185963,11.9908853 88.9502509,12.1229323 C88.7145389,12.2549793 88.5133243,12.4329531 88.3466011,12.6568589 C88.179878,12.8807647 88.0534002,13.1448548 87.9671641,13.449137 C87.880928,13.7534193 87.8378106,14.0777908 87.8378106,14.4222613 L87.8378106,18.5558865 L85.5784356,18.5558865 L85.5784356,10.1164017 L87.6998335,10.1164017 L87.6998335,11.2187018 Z M98.7581232,22.5517241 C98.1602194,22.5517241 97.628438,22.4742194 97.162763,22.3192077 C96.6970879,22.164196 96.2917842,21.9632579 95.9468398,21.7163874 C95.6018953,21.4695169 95.3144459,21.1968152 95.0844829,20.8982741 C94.8545199,20.599733 94.6877992,20.3011964 94.5843159,20.0026553 L96.7402081,19.1414834 C96.9011822,19.589295 97.1656356,19.9366309 97.5335764,20.1835014 C97.9015172,20.4303719 98.3096954,20.5538053 98.7581232,20.5538053 C99.4710084,20.5538053 100.034409,20.3327734 100.448343,19.8907029 C100.862276,19.4486325 101.06924,18.8314654 101.06924,18.0391833 L101.06924,17.4535864 L100.931263,17.4535864 C100.666805,17.8210216 100.318991,18.1109466 99.8878107,18.3233701 C99.4566301,18.5357935 98.9478446,18.6420037 98.361439,18.6420037 C97.8555204,18.6420037 97.3639819,18.5386641 96.8868088,18.3319818 C96.4096356,18.1252995 95.9870849,17.8296334 95.6191441,17.4449747 C95.2512034,17.060316 94.952256,16.5981584 94.722293,16.0584879 C94.49233,15.5188175 94.3773502,14.9160032 94.3773502,14.2500269 C94.3773502,13.5840506 94.49233,12.9783658 94.722293,12.4329542 C94.952256,11.8875426 95.2512034,11.4225144 95.6191441,11.0378557 C95.9870849,10.653197 96.4096356,10.3575309 96.8868088,10.1508486 C97.3639819,9.94416632 97.8555204,9.84082673 98.361439,9.84082673 C98.9478446,9.84082673 99.4566301,9.94703687 99.8878107,10.1594603 C100.318991,10.3718838 100.666805,10.6618088 100.931263,11.029244 L101.06924,11.029244 L101.06924,10.1164017 L103.225132,10.1164017 L103.225132,17.9530661 C103.225132,18.6649718 103.115901,19.3051032 102.897436,19.8734795 C102.678971,20.4418558 102.374275,20.9241072 101.983338,21.3202483 C101.592401,21.7163894 101.123858,22.0206671 100.577696,22.2330905 C100.031534,22.445514 99.4250158,22.5517241 98.7581232,22.5517241 Z M98.8443589,16.6096379 C99.1203144,16.6096379 99.3933914,16.5579682 99.6635979,16.454627 C99.9338044,16.3512859 100.172387,16.199147 100.379354,15.9982059 C100.586321,15.7972648 100.753041,15.550398 100.879521,15.257598 C101.006001,14.9647981 101.06924,14.6289444 101.06924,14.2500269 C101.06924,13.8711094 101.006001,13.5323851 100.879521,13.2338441 C100.753041,12.935303 100.586321,12.6855656 100.379354,12.4846245 C100.172387,12.2836834 99.9338044,12.1315445 99.6635979,12.0282034 C99.3933914,11.9248622 99.1203144,11.8731924 98.8443589,11.8731924 C98.5684033,11.8731924 98.2982008,11.9248622 98.0337434,12.0282034 C97.769286,12.1315445 97.5335774,12.2865539 97.3266108,12.4932362 C97.1196441,12.6999185 96.9529234,12.9496559 96.8264438,13.2424558 C96.6999641,13.5352557 96.6367253,13.8711094 96.6367253,14.2500269 C96.6367253,14.6289444 96.6999641,14.9647981 96.8264438,15.257598 C96.9529234,15.550398 97.1196441,15.7972648 97.3266108,15.9982059 C97.5335774,16.199147 97.769286,16.3512859 98.0337434,16.454627 C98.2982008,16.5579682 98.5684033,16.6096379 98.8443589,16.6096379 Z M105.884066,8.89353762 C105.688597,8.89353762 105.501755,8.85622055 105.323534,8.78158527 C105.145312,8.70695 104.99009,8.60361041 104.857861,8.47156339 C104.725632,8.33951637 104.62215,8.18737752 104.547412,8.01514227 C104.472674,7.84290703 104.435306,7.6534511 104.435306,7.44676881 C104.435306,7.24008652 104.472674,7.05063059 104.547412,6.87839535 C104.62215,6.70616011 104.725632,6.55402126 104.857861,6.42197424 C104.99009,6.28992722 105.145312,6.18658762 105.323534,6.11195235 C105.501755,6.03731708 105.688597,6 105.884066,6 C106.286501,6 106.63144,6.14065667 106.918894,6.42197424 C107.206348,6.7032918 107.350072,7.04488658 107.350072,7.44676881 C107.350072,7.84865105 107.206348,8.19024582 106.918894,8.47156339 C106.63144,8.75288095 106.286501,8.89353762 105.884066,8.89353762 Z M104.763002,18.5558865 L104.763002,10.1164017 L107.022377,10.1164017 L107.022377,18.5558865 L104.763002,18.5558865 Z M110.681644,11.2187018 L110.819621,11.2187018 C111.084079,10.7938548 111.440516,10.4580012 111.888944,10.2111306 C112.337372,9.96426013 112.849032,9.84082673 113.423939,9.84082673 C113.952854,9.84082673 114.418522,9.92694306 114.820957,10.0991783 C115.223393,10.2714135 115.553959,10.5154098 115.812668,10.8311744 C116.071376,11.146939 116.266842,11.5258509 116.39907,11.9679213 C116.531299,12.4099918 116.597412,12.9008549 116.597412,13.4405253 L116.597412,18.5558865 L114.338037,18.5558865 L114.338037,13.7161003 C114.338037,13.1075358 114.202936,12.6568603 113.93273,12.3640604 C113.662523,12.0712605 113.268718,11.9248628 112.751301,11.9248628 C112.440851,11.9248628 112.167774,11.9908853 111.932062,12.1229323 C111.69635,12.2549793 111.495135,12.4329531 111.328412,12.6568589 C111.161689,12.8807647 111.035211,13.1448548 110.948975,13.449137 C110.862739,13.7534193 110.819621,14.0777908 110.819621,14.4222613 L110.819621,18.5558865 L108.560246,18.5558865 L108.560246,10.1164017 L110.681644,10.1164017 L110.681644,11.2187018 Z M125.930988,16.5235208 C125.540051,17.2124617 125.014019,17.7693473 124.352875,18.1941943 C123.691732,18.6190412 122.883999,18.8314615 121.929652,18.8314615 C121.285756,18.8314615 120.690736,18.7195103 120.144574,18.4956044 C119.598412,18.2716986 119.12412,17.9588093 118.721685,17.5569271 C118.31925,17.1550448 118.00593,16.681405 117.781716,16.1359934 C117.557502,15.5905818 117.445397,14.990638 117.445397,14.3361441 C117.445397,13.7275796 117.554628,13.1506002 117.773092,12.6051886 C117.991557,12.059777 118.296254,11.5832666 118.687191,11.1756432 C119.078128,10.7680198 119.540921,10.4436483 120.075585,10.2025189 C120.610249,9.96138959 121.19952,9.84082673 121.843417,9.84082673 C122.521808,9.84082673 123.125451,9.95277795 123.654366,10.1766838 C124.183281,10.4005896 124.625953,10.7106084 124.982396,11.1067494 C125.338838,11.5028905 125.609041,11.9707892 125.793011,12.5104597 C125.976982,13.0501301 126.068966,13.6357211 126.068966,14.2672503 L126.068966,14.4739316 C126.057467,14.5428257 126.051718,14.6059777 126.051718,14.6633894 C126.04022,14.7208012 126.034471,14.7839532 126.034471,14.8528472 L119.670277,14.8528472 C119.71627,15.1973177 119.811128,15.4929838 119.954855,15.7398543 C120.098582,15.9867248 120.276801,16.193404 120.489517,16.3598981 C120.702232,16.5263922 120.935066,16.646955 121.188026,16.7215903 C121.440985,16.7962256 121.699689,16.8335426 121.964147,16.8335426 C122.481563,16.8335426 122.909863,16.7158503 123.249059,16.4804622 C123.588254,16.245074 123.855582,15.9494079 124.05105,15.5934551 L125.930988,16.5235208 Z M123.878579,13.2510675 C123.867081,13.101797 123.818214,12.9353054 123.731978,12.7515878 C123.645742,12.5678702 123.519265,12.3956375 123.352541,12.2348846 C123.185818,12.0741317 122.978855,11.9420867 122.731644,11.8387456 C122.484434,11.7354044 122.188361,11.6837346 121.843417,11.6837346 C121.360495,11.6837346 120.935069,11.8215207 120.567129,12.0970971 C120.199188,12.3726735 119.940483,12.7573265 119.791007,13.2510675 L123.878579,13.2510675 Z" id="WaftEngine"></path>
            <path d="M28,15.9264163 L25.7589033,16.4136007 C25.4146232,16.4885708 25.1399754,16.7476907 25.0453529,17.0868759 C24.7990919,17.9702615 24.4448642,18.8245325 23.9926173,19.625912 C23.8193855,19.9328284 23.8300608,20.3103478 24.0207615,20.6068315 L25.2617715,22.5371298 L22.5373724,25.2617715 L20.6068315,24.0207615 C20.3103478,23.8300608 19.9328284,23.8193855 19.6261546,23.9926173 C18.8245325,24.4448642 17.9702615,24.7990919 17.0868759,25.0453529 C16.7476907,25.1399754 16.4885708,25.4146232 16.4136007,25.7589033 L15.9264163,28 L12.0735837,28 L11.5863993,25.7589033 C11.5114292,25.4146232 11.2523093,25.1399754 10.9131241,25.0453529 C10.0297385,24.7990919 9.1754675,24.4448642 8.37408801,23.9926173 C8.06717157,23.8193855 7.68965221,23.8303034 7.39316846,24.0207615 L5.46287021,25.2617715 L2.73847115,22.5371298 L3.97923849,20.6068315 C4.16993918,20.3103478 4.18085714,19.9328284 4.00762528,19.625912 C3.55537843,18.8245325 3.20115075,17.9702615 2.9546471,17.0868759 C2.86002461,16.7476907 2.58561945,16.4885708 2.2413393,16.4136007 L0,15.9264163 L0,12.0735837 L2.24109669,11.5863993 C2.58537684,11.5114292 2.86002461,11.2523093 2.9546471,10.9131241 C3.20090808,10.0297385 3.55513582,9.1754675 4.00738267,8.37408801 C4.18061454,8.06717157 4.16993918,7.68965221 3.97923849,7.39316846 L2.73822854,5.46287021 L5.4626276,2.73822854 L7.39316846,3.97923849 C7.68965221,4.16993918 8.06717157,4.18061454 8.3738454,4.00738267 C9.1754675,3.55513582 10.0297385,3.20090808 10.9131241,2.9546471 C11.2523093,2.86002461 11.5114292,2.58537684 11.5863993,2.24109669 L12.0735837,0 L15.9264163,0 L16.4136007,2.24109669 C16.4885708,2.58537684 16.7476907,2.86002461 17.0868759,2.9546471 C17.9702615,3.20090808 18.8245325,3.55513582 19.625912,4.00738267 C19.9328284,4.18061454 20.3103478,4.16969658 20.6068315,3.97923849 L22.5371298,2.73822854 L25.2615289,5.46287021 L24.0207615,7.39316846 C23.8300608,7.68965221 23.8191429,8.06717157 23.9923747,8.37408801 C24.4448642,9.1754675 24.7988493,10.0297385 25.0453529,10.9131241 C25.1399754,11.2523093 25.4143806,11.5114292 25.7586607,11.5863993 L28,12.0735837 L28,15.9264163 Z M7.57055801,7.57055801 L10.9853245,19.9077636 L16.8234622,11.8724874 L7.57055801,7.57055801 Z M11.4259348,21.4499144 L19.1366883,18.246986 L18.1626984,12.1970101 L11.4259348,21.4499144 Z M19.4451137,11.734365 L20.1568756,17.9029678 L22.5294151,14.4940031 L19.4451137,11.734365 Z" id="Combined-Shape"></path>
        </g>
    </g>
</svg>