<svg width="363" height="224" viewBox="0 0 363 224" fill="none" xmlns="http://www.w3.org/2000/svg">
<g filter="url(#filter0_d_6_18)">
<rect x="60" y="30" width="243" height="104" rx="10" fill="#2C3239"/>
<path d="M149.094 108C148.933 108 148.801 107.949 148.698 107.846C148.61 107.743 148.566 107.619 148.566 107.472V96.076L145.222 98.65C145.09 98.738 144.958 98.7747 144.826 98.76C144.694 98.7307 144.577 98.65 144.474 98.518L143.55 97.33C143.462 97.198 143.425 97.0587 143.44 96.912C143.469 96.7653 143.55 96.648 143.682 96.56L148.61 92.754C148.698 92.6807 148.786 92.6367 148.874 92.622C148.962 92.6073 149.057 92.6 149.16 92.6H151.096C151.243 92.6 151.367 92.6513 151.47 92.754C151.573 92.8567 151.624 92.9813 151.624 93.128V107.472C151.624 107.619 151.573 107.743 151.47 107.846C151.367 107.949 151.243 108 151.096 108H149.094ZM160.4 108.22C159.358 108.22 158.471 108.066 157.738 107.758C157.004 107.45 156.403 107.025 155.934 106.482C155.464 105.939 155.112 105.316 154.878 104.612C154.643 103.893 154.504 103.131 154.46 102.324C154.445 101.928 154.43 101.495 154.416 101.026C154.416 100.542 154.416 100.058 154.416 99.574C154.43 99.09 154.445 98.6427 154.46 98.232C154.489 97.4253 154.628 96.67 154.878 95.966C155.127 95.2473 155.486 94.624 155.956 94.096C156.44 93.568 157.048 93.15 157.782 92.842C158.515 92.534 159.388 92.38 160.4 92.38C161.426 92.38 162.306 92.534 163.04 92.842C163.773 93.15 164.374 93.568 164.844 94.096C165.328 94.624 165.687 95.2473 165.922 95.966C166.171 96.67 166.31 97.4253 166.34 98.232C166.369 98.6427 166.384 99.09 166.384 99.574C166.384 100.058 166.384 100.542 166.384 101.026C166.384 101.495 166.369 101.928 166.34 102.324C166.31 103.131 166.178 103.893 165.944 104.612C165.709 105.316 165.357 105.939 164.888 106.482C164.418 107.025 163.81 107.45 163.062 107.758C162.328 108.066 161.441 108.22 160.4 108.22ZM160.4 105.69C161.353 105.69 162.05 105.382 162.49 104.766C162.944 104.135 163.179 103.285 163.194 102.214C163.223 101.789 163.238 101.363 163.238 100.938C163.238 100.498 163.238 100.058 163.238 99.618C163.238 99.178 163.223 98.76 163.194 98.364C163.179 97.3227 162.944 96.4867 162.49 95.856C162.05 95.2107 161.353 94.888 160.4 94.888C159.461 94.888 158.764 95.2107 158.31 95.856C157.87 96.4867 157.635 97.3227 157.606 98.364C157.606 98.76 157.598 99.178 157.584 99.618C157.584 100.058 157.584 100.498 157.584 100.938C157.598 101.363 157.606 101.789 157.606 102.214C157.635 103.285 157.877 104.135 158.332 104.766C158.786 105.382 159.476 105.69 160.4 105.69ZM174.859 108.22C173.817 108.22 172.93 108.066 172.197 107.758C171.463 107.45 170.862 107.025 170.393 106.482C169.923 105.939 169.571 105.316 169.337 104.612C169.102 103.893 168.963 103.131 168.919 102.324C168.904 101.928 168.889 101.495 168.875 101.026C168.875 100.542 168.875 100.058 168.875 99.574C168.889 99.09 168.904 98.6427 168.919 98.232C168.948 97.4253 169.087 96.67 169.337 95.966C169.586 95.2473 169.945 94.624 170.415 94.096C170.899 93.568 171.507 93.15 172.241 92.842C172.974 92.534 173.847 92.38 174.859 92.38C175.885 92.38 176.765 92.534 177.499 92.842C178.232 93.15 178.833 93.568 179.303 94.096C179.787 94.624 180.146 95.2473 180.381 95.966C180.63 96.67 180.769 97.4253 180.799 98.232C180.828 98.6427 180.843 99.09 180.843 99.574C180.843 100.058 180.843 100.542 180.843 101.026C180.843 101.495 180.828 101.928 180.799 102.324C180.769 103.131 180.637 103.893 180.403 104.612C180.168 105.316 179.816 105.939 179.347 106.482C178.877 107.025 178.269 107.45 177.521 107.758C176.787 108.066 175.9 108.22 174.859 108.22ZM174.859 105.69C175.812 105.69 176.509 105.382 176.949 104.766C177.403 104.135 177.638 103.285 177.653 102.214C177.682 101.789 177.697 101.363 177.697 100.938C177.697 100.498 177.697 100.058 177.697 99.618C177.697 99.178 177.682 98.76 177.653 98.364C177.638 97.3227 177.403 96.4867 176.949 95.856C176.509 95.2107 175.812 94.888 174.859 94.888C173.92 94.888 173.223 95.2107 172.769 95.856C172.329 96.4867 172.094 97.3227 172.065 98.364C172.065 98.76 172.057 99.178 172.043 99.618C172.043 100.058 172.043 100.498 172.043 100.938C172.057 101.363 172.065 101.789 172.065 102.214C172.094 103.285 172.336 104.135 172.791 104.766C173.245 105.382 173.935 105.69 174.859 105.69ZM194.917 108.22C194.066 108.22 193.355 108.073 192.783 107.78C192.226 107.487 191.764 107.113 191.397 106.658V107.472C191.397 107.619 191.346 107.743 191.243 107.846C191.155 107.949 191.03 108 190.869 108H189.131C188.984 108 188.86 107.949 188.757 107.846C188.654 107.743 188.603 107.619 188.603 107.472V92.908C188.603 92.7613 188.654 92.6367 188.757 92.534C188.86 92.4313 188.984 92.38 189.131 92.38H191.001C191.162 92.38 191.287 92.4313 191.375 92.534C191.478 92.6367 191.529 92.7613 191.529 92.908V97.792C191.896 97.3667 192.35 97.022 192.893 96.758C193.45 96.4793 194.125 96.34 194.917 96.34C195.694 96.34 196.369 96.472 196.941 96.736C197.513 97 197.99 97.374 198.371 97.858C198.767 98.3273 199.068 98.8773 199.273 99.508C199.478 100.139 199.588 100.821 199.603 101.554C199.618 101.818 199.625 102.06 199.625 102.28C199.625 102.485 199.618 102.72 199.603 102.984C199.574 103.747 199.456 104.451 199.251 105.096C199.046 105.727 198.752 106.277 198.371 106.746C197.99 107.215 197.513 107.582 196.941 107.846C196.369 108.095 195.694 108.22 194.917 108.22ZM194.103 105.866C194.734 105.866 195.225 105.734 195.577 105.47C195.929 105.191 196.186 104.832 196.347 104.392C196.508 103.952 196.604 103.468 196.633 102.94C196.648 102.5 196.648 102.06 196.633 101.62C196.604 101.092 196.508 100.608 196.347 100.168C196.186 99.728 195.929 99.376 195.577 99.112C195.225 98.8333 194.734 98.694 194.103 98.694C193.516 98.694 193.04 98.826 192.673 99.09C192.306 99.354 192.028 99.6913 191.837 100.102C191.646 100.498 191.544 100.916 191.529 101.356C191.514 101.62 191.507 101.906 191.507 102.214C191.507 102.507 191.514 102.786 191.529 103.05C191.558 103.505 191.654 103.952 191.815 104.392C191.991 104.817 192.262 105.169 192.629 105.448C193.01 105.727 193.502 105.866 194.103 105.866ZM202.623 112.18C202.476 112.18 202.352 112.129 202.249 112.026C202.146 111.923 202.095 111.799 202.095 111.652V97.088C202.095 96.9413 202.146 96.8167 202.249 96.714C202.352 96.6113 202.476 96.56 202.623 96.56H204.361C204.522 96.56 204.647 96.6113 204.735 96.714C204.838 96.8167 204.889 96.9413 204.889 97.088V97.968C205.241 97.4987 205.703 97.11 206.275 96.802C206.847 96.494 207.558 96.34 208.409 96.34C209.186 96.34 209.861 96.4647 210.433 96.714C211.005 96.9633 211.482 97.3227 211.863 97.792C212.244 98.2467 212.538 98.7893 212.743 99.42C212.948 100.051 213.066 100.747 213.095 101.51C213.11 101.759 213.117 102.016 213.117 102.28C213.117 102.544 213.11 102.808 213.095 103.072C213.08 103.805 212.97 104.487 212.765 105.118C212.56 105.734 212.259 106.277 211.863 106.746C211.482 107.201 211.005 107.56 210.433 107.824C209.861 108.088 209.186 108.22 208.409 108.22C207.617 108.22 206.942 108.081 206.385 107.802C205.828 107.509 205.373 107.127 205.021 106.658V111.652C205.021 111.799 204.97 111.923 204.867 112.026C204.779 112.129 204.654 112.18 204.493 112.18H202.623ZM207.595 105.866C208.226 105.866 208.717 105.734 209.069 105.47C209.421 105.191 209.678 104.832 209.839 104.392C210 103.952 210.096 103.468 210.125 102.94C210.14 102.5 210.14 102.06 210.125 101.62C210.096 101.092 210 100.608 209.839 100.168C209.678 99.728 209.421 99.376 209.069 99.112C208.717 98.8333 208.226 98.694 207.595 98.694C206.994 98.694 206.502 98.8333 206.121 99.112C205.754 99.3907 205.483 99.75 205.307 100.19C205.146 100.615 205.05 101.055 205.021 101.51C205.006 101.774 204.999 102.053 204.999 102.346C204.999 102.639 205.006 102.925 205.021 103.204C205.036 103.644 205.138 104.069 205.329 104.48C205.52 104.876 205.798 105.206 206.165 105.47C206.532 105.734 207.008 105.866 207.595 105.866ZM216.115 108C215.968 108 215.843 107.949 215.741 107.846C215.638 107.743 215.587 107.619 215.587 107.472V97.088C215.587 96.9413 215.638 96.8167 215.741 96.714C215.843 96.6113 215.968 96.56 216.115 96.56H217.831C217.977 96.56 218.102 96.6113 218.205 96.714C218.307 96.8167 218.359 96.9413 218.359 97.088V97.836C218.667 97.4253 219.077 97.0807 219.591 96.802C220.119 96.5087 220.742 96.3547 221.461 96.34C223.133 96.3107 224.299 96.9633 224.959 98.298C225.296 97.7113 225.78 97.242 226.411 96.89C227.056 96.5233 227.767 96.34 228.545 96.34C229.307 96.34 229.997 96.516 230.613 96.868C231.243 97.22 231.735 97.7553 232.087 98.474C232.453 99.178 232.637 100.073 232.637 101.158V107.472C232.637 107.619 232.585 107.743 232.483 107.846C232.38 107.949 232.255 108 232.109 108H230.305C230.158 108 230.033 107.949 229.931 107.846C229.828 107.743 229.777 107.619 229.777 107.472V101.334C229.777 100.674 229.681 100.153 229.491 99.772C229.3 99.376 229.043 99.0973 228.721 98.936C228.398 98.7747 228.039 98.694 227.643 98.694C227.32 98.694 226.997 98.7747 226.675 98.936C226.352 99.0973 226.088 99.376 225.883 99.772C225.677 100.153 225.575 100.674 225.575 101.334V107.472C225.575 107.619 225.523 107.743 225.421 107.846C225.318 107.949 225.193 108 225.047 108H223.243C223.096 108 222.971 107.949 222.869 107.846C222.766 107.743 222.715 107.619 222.715 107.472V101.334C222.715 100.674 222.612 100.153 222.407 99.772C222.201 99.376 221.937 99.0973 221.615 98.936C221.292 98.7747 220.947 98.694 220.581 98.694C220.243 98.694 219.913 98.782 219.591 98.958C219.268 99.1193 219.004 99.3907 218.799 99.772C218.593 100.153 218.491 100.674 218.491 101.334V107.472C218.491 107.619 218.439 107.743 218.337 107.846C218.234 107.949 218.109 108 217.963 108H216.115Z" fill="white"/>
<path d="M152.774 58.3C152.414 58.108 152.03 57.958 151.622 57.85C151.214 57.73 150.824 57.646 150.452 57.598C150.08 57.538 149.774 57.508 149.534 57.508C148.634 57.508 147.824 57.664 147.104 57.976C146.384 58.288 145.76 58.732 145.232 59.308C144.716 59.884 144.32 60.568 144.044 61.36C143.768 62.14 143.63 62.998 143.63 63.934C143.63 64.81 143.75 65.632 143.99 66.4C144.242 67.168 144.614 67.84 145.106 68.416C145.598 68.992 146.204 69.442 146.924 69.766C147.656 70.09 148.496 70.252 149.444 70.252C149.78 70.252 150.152 70.216 150.56 70.144C150.98 70.084 151.394 69.994 151.802 69.874C152.21 69.754 152.57 69.616 152.882 69.46L152 67.732C151.628 67.888 151.22 68.02 150.776 68.128C150.332 68.236 149.852 68.29 149.336 68.29C148.808 68.29 148.34 68.176 147.932 67.948C147.524 67.72 147.182 67.402 146.906 66.994C146.642 66.586 146.432 66.118 146.276 65.59C146.132 65.062 146.06 64.504 146.06 63.916C146.06 62.98 146.21 62.188 146.51 61.54C146.81 60.88 147.218 60.37 147.734 60.01C148.25 59.65 148.826 59.47 149.462 59.47C149.822 59.47 150.128 59.494 150.38 59.542C150.632 59.59 150.89 59.65 151.154 59.722C151.418 59.782 151.718 59.866 152.054 59.974L152.774 58.3ZM155.932 67.39C155.932 67.078 156.04 66.796 156.256 66.544C156.472 66.292 156.784 66.166 157.192 66.166H158.956V67.498C158.656 67.786 158.338 68.002 158.002 68.146C157.678 68.29 157.354 68.362 157.03 68.362C156.814 68.362 156.622 68.32 156.454 68.236C156.298 68.14 156.172 68.02 156.076 67.876C155.98 67.72 155.932 67.558 155.932 67.39ZM154.996 63.772C155.32 63.628 155.722 63.496 156.202 63.376C156.682 63.256 157.126 63.196 157.534 63.196C157.966 63.196 158.302 63.322 158.542 63.574C158.794 63.814 158.926 64.15 158.938 64.582V64.6H157.228C156.244 64.612 155.446 64.858 154.834 65.338C154.222 65.806 153.916 66.49 153.916 67.39C153.916 68.23 154.174 68.914 154.69 69.442C155.206 69.958 155.998 70.216 157.066 70.216C157.498 70.216 157.906 70.108 158.29 69.892C158.686 69.676 159.046 69.4 159.37 69.064L159.766 70H161.296V64.258C161.296 63.634 161.122 63.082 160.774 62.602C160.438 62.11 159.982 61.726 159.406 61.45C158.83 61.174 158.194 61.036 157.498 61.036C157.258 61.036 156.928 61.072 156.508 61.144C156.1 61.216 155.698 61.312 155.302 61.432C154.906 61.54 154.594 61.672 154.366 61.828L154.996 63.772ZM165.705 70V57.292L163.383 57.49V70H165.705ZM171.983 70.216C171.035 70.216 170.213 70.03 169.517 69.658C168.821 69.286 168.281 68.758 167.897 68.074C167.513 67.378 167.321 66.568 167.321 65.644C167.333 64.708 167.525 63.898 167.897 63.214C168.281 62.518 168.821 61.984 169.517 61.612C170.225 61.228 171.047 61.036 171.983 61.036C172.943 61.036 173.765 61.222 174.449 61.594C175.145 61.966 175.685 62.494 176.069 63.178C176.453 63.862 176.645 64.672 176.645 65.608C176.645 66.532 176.453 67.342 176.069 68.038C175.685 68.734 175.145 69.274 174.449 69.658C173.753 70.03 172.931 70.216 171.983 70.216ZM172.001 68.218C172.445 68.218 172.829 68.104 173.153 67.876C173.489 67.648 173.753 67.336 173.945 66.94C174.137 66.544 174.233 66.1 174.233 65.608C174.233 65.104 174.137 64.66 173.945 64.276C173.753 63.892 173.489 63.592 173.153 63.376C172.817 63.148 172.427 63.034 171.983 63.034C171.551 63.034 171.161 63.148 170.813 63.376C170.477 63.604 170.213 63.916 170.021 64.312C169.829 64.696 169.733 65.14 169.733 65.644C169.733 66.148 169.829 66.592 170.021 66.976C170.213 67.36 170.483 67.666 170.831 67.894C171.179 68.11 171.569 68.218 172.001 68.218ZM180.414 70V64.672C180.75 64.372 181.104 64.108 181.476 63.88C181.86 63.652 182.226 63.472 182.574 63.34C182.922 63.208 183.234 63.142 183.51 63.142L183.042 61.27C182.73 61.27 182.388 61.348 182.016 61.504C181.656 61.66 181.302 61.852 180.954 62.08C180.606 62.296 180.312 62.512 180.072 62.728L179.298 61.27H178.074V70H180.414ZM187.041 70V61.27H184.683V70H187.041ZM185.853 60.046C186.213 60.046 186.519 59.92 186.771 59.668C187.023 59.404 187.149 59.086 187.149 58.714C187.149 58.342 187.017 58.03 186.753 57.778C186.501 57.526 186.195 57.4 185.835 57.4C185.475 57.4 185.169 57.526 184.917 57.778C184.665 58.03 184.539 58.342 184.539 58.714C184.539 59.086 184.665 59.404 184.917 59.668C185.169 59.92 185.481 60.046 185.853 60.046ZM196.838 66.328V65.608C196.838 64.78 196.694 64.018 196.406 63.322C196.13 62.626 195.698 62.074 195.11 61.666C194.522 61.246 193.772 61.036 192.86 61.036C191.96 61.036 191.18 61.228 190.52 61.612C189.86 61.984 189.35 62.518 188.99 63.214C188.642 63.898 188.468 64.708 188.468 65.644C188.468 66.568 188.654 67.378 189.026 68.074C189.398 68.758 189.956 69.286 190.7 69.658C191.456 70.03 192.398 70.216 193.526 70.216C194.03 70.216 194.474 70.168 194.858 70.072C195.254 69.988 195.608 69.868 195.92 69.712C196.244 69.544 196.538 69.352 196.802 69.136L196.118 67.444C195.734 67.672 195.344 67.858 194.948 68.002C194.552 68.146 194.096 68.218 193.58 68.218C193.004 68.218 192.536 68.14 192.176 67.984C191.816 67.828 191.54 67.612 191.348 67.336C191.156 67.048 191.024 66.712 190.952 66.328H196.838ZM190.97 64.762C191.042 64.378 191.162 64.06 191.33 63.808C191.498 63.556 191.708 63.364 191.96 63.232C192.212 63.1 192.494 63.034 192.806 63.034C193.118 63.034 193.394 63.1 193.634 63.232C193.886 63.352 194.096 63.538 194.264 63.79C194.432 64.042 194.552 64.366 194.624 64.762H190.97ZM197.767 69.316C198.043 69.52 198.367 69.694 198.739 69.838C199.123 69.97 199.501 70.066 199.873 70.126C200.245 70.186 200.551 70.216 200.791 70.216C201.979 70.216 202.879 69.976 203.491 69.496C204.115 69.016 204.427 68.35 204.427 67.498C204.427 66.982 204.277 66.538 203.977 66.166C203.689 65.782 203.317 65.452 202.861 65.176C202.417 64.9 201.949 64.684 201.457 64.528C201.157 64.42 200.851 64.3 200.539 64.168C200.239 64.024 200.095 63.862 200.107 63.682C200.107 63.478 200.203 63.304 200.395 63.16C200.599 63.004 200.851 62.926 201.151 62.926C201.547 62.926 201.925 62.98 202.285 63.088C202.645 63.196 203.035 63.34 203.455 63.52L204.157 61.954C203.869 61.75 203.539 61.582 203.167 61.45C202.795 61.318 202.429 61.216 202.069 61.144C201.721 61.072 201.421 61.036 201.169 61.036C200.113 61.036 199.279 61.276 198.667 61.756C198.067 62.224 197.767 62.872 197.767 63.7C197.767 64.18 197.911 64.594 198.199 64.942C198.499 65.29 198.871 65.584 199.315 65.824C199.771 66.052 200.221 66.244 200.665 66.4C201.001 66.496 201.277 66.604 201.493 66.724C201.721 66.844 201.895 66.976 202.015 67.12C202.135 67.252 202.195 67.402 202.195 67.57C202.195 67.738 202.111 67.882 201.943 68.002C201.787 68.11 201.601 68.194 201.385 68.254C201.169 68.302 200.959 68.326 200.755 68.326C200.539 68.326 200.305 68.302 200.053 68.254C199.813 68.206 199.561 68.14 199.297 68.056C199.033 67.96 198.757 67.858 198.469 67.75L197.767 69.316ZM215.47 70C216.118 70 216.706 69.922 217.234 69.766C217.774 69.598 218.236 69.358 218.62 69.046C219.004 68.734 219.292 68.356 219.484 67.912C219.688 67.468 219.79 66.964 219.79 66.4C219.79 65.644 219.61 65.02 219.25 64.528C218.902 64.036 218.452 63.646 217.9 63.358C218.236 63.094 218.542 62.782 218.818 62.422C219.094 62.05 219.232 61.636 219.232 61.18C219.232 60.352 219.058 59.692 218.71 59.2C218.374 58.696 217.9 58.33 217.288 58.102C216.688 57.874 215.992 57.76 215.2 57.76H210.448V70H215.47ZM214.858 59.704C215.254 59.704 215.59 59.752 215.866 59.848C216.154 59.932 216.37 60.088 216.514 60.316C216.67 60.532 216.748 60.832 216.748 61.216C216.748 61.564 216.652 61.852 216.46 62.08C216.268 62.308 215.998 62.476 215.65 62.584C215.314 62.692 214.93 62.746 214.498 62.746H212.77V59.704H214.858ZM215.452 64.636C216.028 64.636 216.49 64.792 216.838 65.104C217.186 65.404 217.36 65.842 217.36 66.418C217.36 66.766 217.27 67.066 217.09 67.318C216.922 67.558 216.682 67.744 216.37 67.876C216.07 68.008 215.71 68.074 215.29 68.074H212.77V64.636H215.452ZM227.096 61.27V67.318C226.904 67.462 226.682 67.612 226.43 67.768C226.19 67.924 225.926 68.056 225.638 68.164C225.362 68.272 225.068 68.326 224.756 68.326C224.372 68.326 224.066 68.182 223.838 67.894C223.61 67.606 223.496 67.186 223.496 66.634V61.27H221.156V66.742C221.156 67.414 221.24 68.02 221.408 68.56C221.576 69.088 221.876 69.508 222.308 69.82C222.74 70.132 223.352 70.288 224.144 70.288C224.456 70.288 224.798 70.234 225.17 70.126C225.554 70.03 225.944 69.898 226.34 69.73C226.748 69.55 227.138 69.328 227.51 69.064L227.888 70H229.436V61.27H227.096ZM233.781 70V64.672C234.117 64.372 234.471 64.108 234.843 63.88C235.227 63.652 235.593 63.472 235.941 63.34C236.289 63.208 236.601 63.142 236.877 63.142L236.409 61.27C236.097 61.27 235.755 61.348 235.383 61.504C235.023 61.66 234.669 61.852 234.321 62.08C233.973 62.296 233.679 62.512 233.439 62.728L232.665 61.27H231.441V70H233.781ZM240.391 70V63.97C240.595 63.826 240.817 63.67 241.057 63.502C241.309 63.334 241.579 63.196 241.867 63.088C242.155 62.98 242.443 62.926 242.731 62.926C243.115 62.926 243.421 63.07 243.649 63.358C243.877 63.646 243.991 64.072 243.991 64.636V70H246.331V64.528C246.331 63.856 246.241 63.256 246.061 62.728C245.893 62.188 245.593 61.762 245.161 61.45C244.741 61.138 244.135 60.982 243.343 60.982C243.031 60.982 242.683 61.03 242.299 61.126C241.927 61.21 241.537 61.348 241.129 61.54C240.733 61.72 240.349 61.936 239.977 62.188L239.581 61.27H238.051V70H240.391ZM256.093 66.328V65.608C256.093 64.78 255.949 64.018 255.661 63.322C255.385 62.626 254.953 62.074 254.365 61.666C253.777 61.246 253.027 61.036 252.115 61.036C251.215 61.036 250.435 61.228 249.775 61.612C249.115 61.984 248.605 62.518 248.245 63.214C247.897 63.898 247.723 64.708 247.723 65.644C247.723 66.568 247.909 67.378 248.281 68.074C248.653 68.758 249.211 69.286 249.955 69.658C250.711 70.03 251.653 70.216 252.781 70.216C253.285 70.216 253.729 70.168 254.113 70.072C254.509 69.988 254.863 69.868 255.175 69.712C255.499 69.544 255.793 69.352 256.057 69.136L255.373 67.444C254.989 67.672 254.599 67.858 254.203 68.002C253.807 68.146 253.351 68.218 252.835 68.218C252.259 68.218 251.791 68.14 251.431 67.984C251.071 67.828 250.795 67.612 250.603 67.336C250.411 67.048 250.279 66.712 250.207 66.328H256.093ZM250.225 64.762C250.297 64.378 250.417 64.06 250.585 63.808C250.753 63.556 250.963 63.364 251.215 63.232C251.467 63.1 251.749 63.034 252.061 63.034C252.373 63.034 252.649 63.1 252.889 63.232C253.141 63.352 253.351 63.538 253.519 63.79C253.687 64.042 253.807 64.366 253.879 64.762H250.225ZM263.323 68.362L264.439 70H265.663V57.292L263.323 57.49V68.362ZM263.809 67.066C263.389 67.45 262.993 67.738 262.621 67.93C262.261 68.122 261.877 68.218 261.469 68.218C261.049 68.218 260.677 68.11 260.353 67.894C260.041 67.666 259.801 67.36 259.633 66.976C259.477 66.592 259.399 66.154 259.399 65.662C259.399 65.146 259.477 64.696 259.633 64.312C259.801 63.916 260.041 63.604 260.353 63.376C260.665 63.148 261.043 63.034 261.487 63.034C261.883 63.034 262.261 63.124 262.621 63.304C262.993 63.472 263.395 63.79 263.827 64.258L264.475 62.674C264.295 62.398 264.037 62.134 263.701 61.882C263.377 61.63 263.011 61.426 262.603 61.27C262.207 61.114 261.823 61.036 261.451 61.036C260.515 61.036 259.711 61.234 259.039 61.63C258.379 62.014 257.869 62.554 257.509 63.25C257.161 63.934 256.987 64.738 256.987 65.662C256.987 66.574 257.161 67.372 257.509 68.056C257.869 68.74 258.379 69.274 259.039 69.658C259.699 70.03 260.479 70.216 261.379 70.216C261.799 70.216 262.189 70.15 262.549 70.018C262.921 69.886 263.269 69.7 263.593 69.46C263.917 69.208 264.211 68.92 264.475 68.596L263.809 67.066Z" fill="#4F5358"/>
<path d="M87.3846 108H84.3077C83.6957 108 83.1087 107.752 82.6759 107.312C82.2431 106.871 82 106.273 82 105.65V91.55C82 90.9267 82.2431 90.329 82.6759 89.8883C83.1087 89.4476 83.6957 89.2 84.3077 89.2H87.3846C87.9967 89.2 88.5836 89.4476 89.0164 89.8883C89.4492 90.329 89.6923 90.9267 89.6923 91.55V105.65C89.6923 106.273 89.4492 106.871 89.0164 107.312C88.5836 107.752 87.9967 108 87.3846 108V108ZM108.923 108H105.846C105.234 108 104.647 107.752 104.214 107.312C103.782 106.871 103.538 106.273 103.538 105.65V82.15C103.538 81.5267 103.782 80.929 104.214 80.4883C104.647 80.0476 105.234 79.8 105.846 79.8H108.923C109.535 79.8 110.122 80.0476 110.555 80.4883C110.988 80.929 111.231 81.5267 111.231 82.15V105.65C111.231 106.273 110.988 106.871 110.555 107.312C110.122 107.752 109.535 108 108.923 108V108ZM119.692 108H116.615C116.003 108 115.416 107.752 114.984 107.312C114.551 106.871 114.308 106.273 114.308 105.65V71.1833C114.308 70.5601 114.551 69.9623 114.984 69.5216C115.416 69.0809 116.003 68.8333 116.615 68.8333H119.692C120.304 68.8333 120.891 69.0809 121.324 69.5216C121.757 69.9623 122 70.5601 122 71.1833V105.65C122 106.273 121.757 106.871 121.324 107.312C120.891 107.752 120.304 108 119.692 108V108ZM98.1538 108H95.0769C94.4649 108 93.8779 107.752 93.4451 107.312C93.0124 106.871 92.7692 106.273 92.7692 105.65V63.35C92.7692 62.7267 93.0124 62.129 93.4451 61.6883C93.8779 61.2476 94.4649 61 95.0769 61H98.1538C98.7659 61 99.3529 61.2476 99.7856 61.6883C100.218 62.129 100.462 62.7267 100.462 63.35V105.65C100.462 106.273 100.218 106.871 99.7856 107.312C99.3529 107.752 98.7659 108 98.1538 108V108Z" fill="#FD3D0C"/>
</g>
<defs>
<filter id="filter0_d_6_18" x="0" y="0" width="363" height="224" filterUnits="userSpaceOnUse" color-interpolation-filters="sRGB">
<feFlood flood-opacity="0" result="BackgroundImageFix"/>
<feColorMatrix in="SourceAlpha" type="matrix" values="0 0 0 0 0 0 0 0 0 0 0 0 0 0 0 0 0 0 127 0" result="hardAlpha"/>
<feOffset dy="30"/>
<feGaussianBlur stdDeviation="30"/>
<feComposite in2="hardAlpha" operator="out"/>
<feColorMatrix type="matrix" values="0 0 0 0 0 0 0 0 0 0 0 0 0 0 0 0 0 0 0.4 0"/>
<feBlend mode="normal" in2="BackgroundImageFix" result="effect1_dropShadow_6_18"/>
<feBlend mode="normal" in="SourceGraphic" in2="effect1_dropShadow_6_18" result="shape"/>
</filter>
</defs>
</svg>
