<svg width="255" height="270" viewBox="0 0 255 270" fill="none" xmlns="http://www.w3.org/2000/svg">
<g filter="url(#filter0_d_6_16)">
<rect x="60" y="30" width="135" height="150" rx="10" fill="#141B22"/>
<path d="M86.094 154C85.9473 154 85.8153 153.949 85.698 153.846C85.5953 153.729 85.544 153.597 85.544 153.45V142.978L82.53 145.288C82.398 145.391 82.2587 145.427 82.112 145.398C81.98 145.369 81.8627 145.288 81.76 145.156L80.462 143.462C80.374 143.33 80.3373 143.191 80.352 143.044C80.3813 142.883 80.4693 142.758 80.616 142.67L85.676 138.754C85.764 138.695 85.8447 138.659 85.918 138.644C86.006 138.615 86.1013 138.6 86.204 138.6H88.954C89.1153 138.6 89.2473 138.651 89.35 138.754C89.4527 138.857 89.504 138.989 89.504 139.15V153.45C89.504 153.597 89.4527 153.729 89.35 153.846C89.2473 153.949 89.1153 154 88.954 154H86.094ZM98.3935 154.22C97.3375 154.22 96.4209 154.073 95.6435 153.78C94.8809 153.472 94.2429 153.054 93.7295 152.526C93.2162 151.998 92.8275 151.382 92.5635 150.678C92.2995 149.974 92.1455 149.219 92.1015 148.412C92.0869 148.016 92.0722 147.569 92.0575 147.07C92.0575 146.557 92.0575 146.043 92.0575 145.53C92.0722 145.002 92.0869 144.533 92.1015 144.122C92.1455 143.315 92.2995 142.567 92.5635 141.878C92.8422 141.174 93.2382 140.565 93.7515 140.052C94.2795 139.524 94.9249 139.113 95.6875 138.82C96.4649 138.527 97.3669 138.38 98.3935 138.38C99.4349 138.38 100.337 138.527 101.1 138.82C101.877 139.113 102.522 139.524 103.036 140.052C103.549 140.565 103.945 141.174 104.224 141.878C104.502 142.567 104.664 143.315 104.708 144.122C104.722 144.533 104.73 145.002 104.73 145.53C104.744 146.043 104.744 146.557 104.73 147.07C104.73 147.569 104.722 148.016 104.708 148.412C104.664 149.219 104.502 149.974 104.224 150.678C103.96 151.382 103.571 151.998 103.058 152.526C102.559 153.054 101.921 153.472 101.144 153.78C100.381 154.073 99.4642 154.22 98.3935 154.22ZM98.3935 151.03C99.1562 151.03 99.7062 150.788 100.044 150.304C100.396 149.805 100.579 149.138 100.594 148.302C100.623 147.877 100.638 147.429 100.638 146.96C100.652 146.491 100.652 146.021 100.638 145.552C100.638 145.083 100.623 144.65 100.594 144.254C100.579 143.447 100.396 142.795 100.044 142.296C99.7062 141.797 99.1562 141.541 98.3935 141.526C97.6455 141.541 97.0955 141.797 96.7435 142.296C96.4062 142.795 96.2229 143.447 96.1935 144.254C96.1935 144.65 96.1862 145.083 96.1715 145.552C96.1715 146.021 96.1715 146.491 96.1715 146.96C96.1862 147.429 96.1935 147.877 96.1935 148.302C96.2229 149.138 96.4135 149.805 96.7655 150.304C97.1175 150.788 97.6602 151.03 98.3935 151.03ZM113.347 154.22C112.291 154.22 111.374 154.073 110.597 153.78C109.834 153.472 109.196 153.054 108.683 152.526C108.169 151.998 107.781 151.382 107.517 150.678C107.253 149.974 107.099 149.219 107.055 148.412C107.04 148.016 107.025 147.569 107.011 147.07C107.011 146.557 107.011 146.043 107.011 145.53C107.025 145.002 107.04 144.533 107.055 144.122C107.099 143.315 107.253 142.567 107.517 141.878C107.795 141.174 108.191 140.565 108.705 140.052C109.233 139.524 109.878 139.113 110.641 138.82C111.418 138.527 112.32 138.38 113.347 138.38C114.388 138.38 115.29 138.527 116.053 138.82C116.83 139.113 117.475 139.524 117.989 140.052C118.502 140.565 118.898 141.174 119.177 141.878C119.455 142.567 119.617 143.315 119.661 144.122C119.675 144.533 119.683 145.002 119.683 145.53C119.697 146.043 119.697 146.557 119.683 147.07C119.683 147.569 119.675 148.016 119.661 148.412C119.617 149.219 119.455 149.974 119.177 150.678C118.913 151.382 118.524 151.998 118.011 152.526C117.512 153.054 116.874 153.472 116.097 153.78C115.334 154.073 114.417 154.22 113.347 154.22ZM113.347 151.03C114.109 151.03 114.659 150.788 114.997 150.304C115.349 149.805 115.532 149.138 115.547 148.302C115.576 147.877 115.591 147.429 115.591 146.96C115.605 146.491 115.605 146.021 115.591 145.552C115.591 145.083 115.576 144.65 115.547 144.254C115.532 143.447 115.349 142.795 114.997 142.296C114.659 141.797 114.109 141.541 113.347 141.526C112.599 141.541 112.049 141.797 111.697 142.296C111.359 142.795 111.176 143.447 111.147 144.254C111.147 144.65 111.139 145.083 111.125 145.552C111.125 146.021 111.125 146.491 111.125 146.96C111.139 147.429 111.147 147.877 111.147 148.302C111.176 149.138 111.367 149.805 111.719 150.304C112.071 150.788 112.613 151.03 113.347 151.03ZM133.819 154.22C133.013 154.22 132.331 154.081 131.773 153.802C131.216 153.523 130.761 153.171 130.409 152.746V153.45C130.409 153.597 130.351 153.729 130.233 153.846C130.131 153.949 130.006 154 129.859 154H127.373C127.212 154 127.08 153.949 126.977 153.846C126.875 153.729 126.823 153.597 126.823 153.45V138.93C126.823 138.769 126.875 138.637 126.977 138.534C127.08 138.431 127.212 138.38 127.373 138.38H130.057C130.219 138.38 130.351 138.431 130.453 138.534C130.556 138.637 130.607 138.769 130.607 138.93V143.638C130.974 143.257 131.421 142.949 131.949 142.714C132.477 142.465 133.101 142.34 133.819 142.34C134.553 142.34 135.198 142.465 135.755 142.714C136.327 142.949 136.811 143.293 137.207 143.748C137.603 144.188 137.911 144.731 138.131 145.376C138.351 146.007 138.476 146.711 138.505 147.488C138.52 147.781 138.527 148.045 138.527 148.28C138.527 148.5 138.52 148.757 138.505 149.05C138.476 149.871 138.351 150.605 138.131 151.25C137.911 151.881 137.596 152.423 137.185 152.878C136.789 153.318 136.313 153.655 135.755 153.89C135.198 154.11 134.553 154.22 133.819 154.22ZM132.631 151.272C133.13 151.272 133.519 151.169 133.797 150.964C134.076 150.759 134.274 150.48 134.391 150.128C134.523 149.776 134.604 149.387 134.633 148.962C134.663 148.507 134.663 148.053 134.633 147.598C134.604 147.173 134.523 146.784 134.391 146.432C134.274 146.08 134.076 145.801 133.797 145.596C133.519 145.391 133.13 145.288 132.631 145.288C132.177 145.288 131.803 145.391 131.509 145.596C131.216 145.787 130.996 146.043 130.849 146.366C130.703 146.674 130.622 147.011 130.607 147.378C130.593 147.657 130.585 147.928 130.585 148.192C130.585 148.456 130.593 148.735 130.607 149.028C130.637 149.424 130.717 149.791 130.849 150.128C130.981 150.465 131.194 150.744 131.487 150.964C131.781 151.169 132.162 151.272 132.631 151.272ZM141.252 158.18C141.091 158.18 140.959 158.121 140.856 158.004C140.754 157.901 140.702 157.777 140.702 157.63V143.11C140.702 142.949 140.754 142.817 140.856 142.714C140.959 142.611 141.091 142.56 141.252 142.56H143.738C143.885 142.56 144.01 142.611 144.112 142.714C144.23 142.817 144.288 142.949 144.288 143.11V143.902C144.64 143.462 145.095 143.095 145.652 142.802C146.21 142.494 146.892 142.34 147.698 142.34C148.432 142.34 149.077 142.457 149.634 142.692C150.192 142.912 150.668 143.242 151.064 143.682C151.475 144.122 151.79 144.657 152.01 145.288C152.23 145.919 152.355 146.645 152.384 147.466C152.399 147.759 152.406 148.031 152.406 148.28C152.406 148.529 152.399 148.801 152.384 149.094C152.355 149.886 152.23 150.597 152.01 151.228C151.79 151.859 151.482 152.394 151.086 152.834C150.69 153.274 150.206 153.619 149.634 153.868C149.077 154.103 148.432 154.22 147.698 154.22C146.98 154.22 146.349 154.095 145.806 153.846C145.278 153.582 144.838 153.215 144.486 152.746V157.63C144.486 157.777 144.435 157.901 144.332 158.004C144.23 158.121 144.098 158.18 143.936 158.18H141.252ZM146.51 151.272C147.009 151.272 147.398 151.169 147.676 150.964C147.955 150.759 148.153 150.48 148.27 150.128C148.402 149.776 148.483 149.387 148.512 148.962C148.542 148.507 148.542 148.053 148.512 147.598C148.483 147.173 148.402 146.784 148.27 146.432C148.153 146.08 147.955 145.801 147.676 145.596C147.398 145.391 147.009 145.288 146.51 145.288C146.041 145.288 145.66 145.398 145.366 145.618C145.073 145.823 144.86 146.095 144.728 146.432C144.596 146.769 144.516 147.136 144.486 147.532C144.472 147.811 144.464 148.082 144.464 148.346C144.464 148.61 144.472 148.889 144.486 149.182C144.501 149.549 144.582 149.893 144.728 150.216C144.875 150.524 145.095 150.781 145.388 150.986C145.682 151.177 146.056 151.272 146.51 151.272ZM155.131 154C154.97 154 154.838 153.949 154.735 153.846C154.633 153.729 154.581 153.597 154.581 153.45V143.11C154.581 142.949 154.633 142.817 154.735 142.714C154.838 142.611 154.97 142.56 155.131 142.56H157.529C157.691 142.56 157.823 142.611 157.925 142.714C158.028 142.817 158.079 142.949 158.079 143.11V143.858C158.373 143.462 158.783 143.117 159.311 142.824C159.839 142.516 160.463 142.355 161.181 142.34C162.883 142.296 164.049 142.927 164.679 144.232C165.017 143.675 165.493 143.22 166.109 142.868C166.74 142.516 167.429 142.34 168.177 142.34C168.94 142.34 169.622 142.516 170.223 142.868C170.839 143.205 171.331 143.733 171.697 144.452C172.064 145.156 172.247 146.073 172.247 147.202V153.45C172.247 153.597 172.196 153.729 172.093 153.846C171.991 153.949 171.859 154 171.697 154H169.145C168.984 154 168.845 153.949 168.727 153.846C168.625 153.729 168.573 153.597 168.573 153.45V147.356C168.573 146.843 168.5 146.439 168.353 146.146C168.207 145.838 168.009 145.618 167.759 145.486C167.51 145.354 167.224 145.288 166.901 145.288C166.637 145.288 166.373 145.354 166.109 145.486C165.86 145.618 165.655 145.838 165.493 146.146C165.347 146.439 165.273 146.843 165.273 147.356V153.45C165.273 153.597 165.222 153.729 165.119 153.846C165.017 153.949 164.885 154 164.723 154H162.171C162.01 154 161.878 153.949 161.775 153.846C161.673 153.729 161.621 153.597 161.621 153.45V147.356C161.621 146.843 161.541 146.439 161.379 146.146C161.218 145.838 161.013 145.618 160.763 145.486C160.514 145.354 160.243 145.288 159.949 145.288C159.671 145.288 159.399 145.354 159.135 145.486C158.886 145.618 158.681 145.838 158.519 146.146C158.373 146.439 158.299 146.835 158.299 147.334V153.45C158.299 153.597 158.241 153.729 158.123 153.846C158.021 153.949 157.896 154 157.749 154H155.131Z" fill="white"/>
<path d="M90.998 116V103.76H88.676V108.944H83.852V103.67L81.53 103.76V116H83.852V110.816H88.676V116H90.998ZM101.353 112.328V111.608C101.353 110.78 101.209 110.018 100.921 109.322C100.645 108.626 100.213 108.074 99.6252 107.666C99.0372 107.246 98.2872 107.036 97.3752 107.036C96.4752 107.036 95.6952 107.228 95.0352 107.612C94.3752 107.984 93.8652 108.518 93.5052 109.214C93.1572 109.898 92.9832 110.708 92.9832 111.644C92.9832 112.568 93.1692 113.378 93.5412 114.074C93.9132 114.758 94.4712 115.286 95.2152 115.658C95.9712 116.03 96.9132 116.216 98.0412 116.216C98.5452 116.216 98.9892 116.168 99.3732 116.072C99.7692 115.988 100.123 115.868 100.435 115.712C100.759 115.544 101.053 115.352 101.317 115.136L100.633 113.444C100.249 113.672 99.8592 113.858 99.4632 114.002C99.0672 114.146 98.6112 114.218 98.0952 114.218C97.5192 114.218 97.0512 114.14 96.6912 113.984C96.3312 113.828 96.0552 113.612 95.8632 113.336C95.6712 113.048 95.5392 112.712 95.4672 112.328H101.353ZM95.4852 110.762C95.5572 110.378 95.6772 110.06 95.8452 109.808C96.0132 109.556 96.2232 109.364 96.4752 109.232C96.7272 109.1 97.0092 109.034 97.3212 109.034C97.6332 109.034 97.9092 109.1 98.1492 109.232C98.4012 109.352 98.6112 109.538 98.7792 109.79C98.9472 110.042 99.0672 110.366 99.1392 110.762H95.4852ZM104.569 113.39C104.569 113.078 104.677 112.796 104.893 112.544C105.109 112.292 105.421 112.166 105.829 112.166H107.593V113.498C107.293 113.786 106.975 114.002 106.639 114.146C106.315 114.29 105.991 114.362 105.667 114.362C105.451 114.362 105.259 114.32 105.091 114.236C104.935 114.14 104.809 114.02 104.713 113.876C104.617 113.72 104.569 113.558 104.569 113.39ZM103.633 109.772C103.957 109.628 104.359 109.496 104.839 109.376C105.319 109.256 105.763 109.196 106.171 109.196C106.603 109.196 106.939 109.322 107.179 109.574C107.431 109.814 107.563 110.15 107.575 110.582V110.6H105.865C104.881 110.612 104.083 110.858 103.471 111.338C102.859 111.806 102.553 112.49 102.553 113.39C102.553 114.23 102.811 114.914 103.327 115.442C103.843 115.958 104.635 116.216 105.703 116.216C106.135 116.216 106.543 116.108 106.927 115.892C107.323 115.676 107.683 115.4 108.007 115.064L108.403 116H109.933V110.258C109.933 109.634 109.759 109.082 109.411 108.602C109.075 108.11 108.619 107.726 108.043 107.45C107.467 107.174 106.831 107.036 106.135 107.036C105.895 107.036 105.565 107.072 105.145 107.144C104.737 107.216 104.335 107.312 103.939 107.432C103.543 107.54 103.231 107.672 103.003 107.828L103.633 109.772ZM114.18 116V110.672C114.516 110.372 114.87 110.108 115.242 109.88C115.626 109.652 115.992 109.472 116.34 109.34C116.688 109.208 117 109.142 117.276 109.142L116.808 107.27C116.496 107.27 116.154 107.348 115.782 107.504C115.422 107.66 115.068 107.852 114.72 108.08C114.372 108.296 114.078 108.512 113.838 108.728L113.064 107.27H111.84V116H114.18ZM122.715 107.306H121.131V104.804L118.809 105.218V107.306H117.639L117.621 109.07H118.809V113.21C118.809 113.882 118.953 114.452 119.241 114.92C119.529 115.388 119.925 115.748 120.429 116C120.945 116.24 121.563 116.36 122.283 116.36C122.475 116.36 122.685 116.33 122.913 116.27C123.141 116.222 123.357 116.156 123.561 116.072C123.765 116 123.927 115.916 124.047 115.82L123.363 114.128C123.195 114.2 123.033 114.254 122.877 114.29C122.721 114.326 122.565 114.344 122.409 114.344C121.989 114.344 121.671 114.2 121.455 113.912C121.239 113.624 121.131 113.252 121.131 112.796V109.07H123.435L122.715 107.306ZM133.649 105.704C134.165 105.704 134.603 105.77 134.963 105.902C135.323 106.034 135.599 106.244 135.791 106.532C135.995 106.808 136.097 107.174 136.097 107.63C136.097 108.062 135.989 108.41 135.773 108.674C135.569 108.926 135.287 109.118 134.927 109.25C134.567 109.382 134.153 109.448 133.685 109.448H132.209V105.704H133.649ZM129.887 103.76V116H132.209V111.356H133.289C133.469 111.356 133.649 111.362 133.829 111.374C134.021 111.374 134.213 111.368 134.405 111.356L136.997 116H139.481L136.493 110.726C137.093 110.438 137.585 110.024 137.969 109.484C138.365 108.932 138.563 108.278 138.563 107.522C138.563 106.658 138.341 105.95 137.897 105.398C137.465 104.846 136.883 104.438 136.151 104.174C135.419 103.898 134.603 103.76 133.703 103.76H129.887ZM142.432 113.39C142.432 113.078 142.54 112.796 142.756 112.544C142.972 112.292 143.284 112.166 143.692 112.166H145.456V113.498C145.156 113.786 144.838 114.002 144.502 114.146C144.178 114.29 143.854 114.362 143.53 114.362C143.314 114.362 143.122 114.32 142.954 114.236C142.798 114.14 142.672 114.02 142.576 113.876C142.48 113.72 142.432 113.558 142.432 113.39ZM141.496 109.772C141.82 109.628 142.222 109.496 142.702 109.376C143.182 109.256 143.626 109.196 144.034 109.196C144.466 109.196 144.802 109.322 145.042 109.574C145.294 109.814 145.426 110.15 145.438 110.582V110.6H143.728C142.744 110.612 141.946 110.858 141.334 111.338C140.722 111.806 140.416 112.49 140.416 113.39C140.416 114.23 140.674 114.914 141.19 115.442C141.706 115.958 142.498 116.216 143.566 116.216C143.998 116.216 144.406 116.108 144.79 115.892C145.186 115.676 145.546 115.4 145.87 115.064L146.266 116H147.796V110.258C147.796 109.634 147.622 109.082 147.274 108.602C146.938 108.11 146.482 107.726 145.906 107.45C145.33 107.174 144.694 107.036 143.998 107.036C143.758 107.036 143.428 107.072 143.008 107.144C142.6 107.216 142.198 107.312 141.802 107.432C141.406 107.54 141.094 107.672 140.866 107.828L141.496 109.772ZM153.969 107.306H152.385V104.804L150.063 105.218V107.306H148.893L148.875 109.07H150.063V113.21C150.063 113.882 150.207 114.452 150.495 114.92C150.783 115.388 151.179 115.748 151.683 116C152.199 116.24 152.817 116.36 153.537 116.36C153.729 116.36 153.939 116.33 154.167 116.27C154.395 116.222 154.611 116.156 154.815 116.072C155.019 116 155.181 115.916 155.301 115.82L154.617 114.128C154.449 114.2 154.287 114.254 154.131 114.29C153.975 114.326 153.819 114.344 153.663 114.344C153.243 114.344 152.925 114.2 152.709 113.912C152.493 113.624 152.385 113.252 152.385 112.796V109.07H154.689L153.969 107.306ZM164.388 112.328V111.608C164.388 110.78 164.244 110.018 163.956 109.322C163.68 108.626 163.248 108.074 162.66 107.666C162.072 107.246 161.322 107.036 160.41 107.036C159.51 107.036 158.73 107.228 158.07 107.612C157.41 107.984 156.9 108.518 156.54 109.214C156.192 109.898 156.018 110.708 156.018 111.644C156.018 112.568 156.204 113.378 156.576 114.074C156.948 114.758 157.506 115.286 158.25 115.658C159.006 116.03 159.948 116.216 161.076 116.216C161.58 116.216 162.024 116.168 162.408 116.072C162.804 115.988 163.158 115.868 163.47 115.712C163.794 115.544 164.088 115.352 164.352 115.136L163.668 113.444C163.284 113.672 162.894 113.858 162.498 114.002C162.102 114.146 161.646 114.218 161.13 114.218C160.554 114.218 160.086 114.14 159.726 113.984C159.366 113.828 159.09 113.612 158.898 113.336C158.706 113.048 158.574 112.712 158.502 112.328H164.388ZM158.52 110.762C158.592 110.378 158.712 110.06 158.88 109.808C159.048 109.556 159.258 109.364 159.51 109.232C159.762 109.1 160.044 109.034 160.356 109.034C160.668 109.034 160.944 109.1 161.184 109.232C161.436 109.352 161.646 109.538 161.814 109.79C161.982 110.042 162.102 110.366 162.174 110.762H158.52Z" fill="#3D4549"/>
<path d="M98.2822 83.75C97.7177 83.7493 97.1665 83.5787 96.7002 83.2604C89.7929 78.5715 86.802 75.3564 85.1522 73.3464C81.6366 69.0617 79.9535 64.6628 80.001 59.8991C80.0563 54.4402 84.4359 50 89.7639 50C93.6381 50 96.3214 52.1823 97.8841 53.9999C97.9336 54.0569 97.9947 54.1026 98.0634 54.1339C98.1321 54.1652 98.2067 54.1815 98.2822 54.1815C98.3577 54.1815 98.4323 54.1652 98.501 54.1339C98.5697 54.1026 98.6309 54.0569 98.6804 53.9999C100.243 52.1806 102.926 50 106.801 50C112.129 50 116.508 54.4402 116.563 59.9C116.611 64.6646 114.926 69.0635 111.412 73.3473C109.763 75.3573 106.772 78.5724 99.8643 83.2613C99.3979 83.5793 98.8467 83.7495 98.2822 83.75V83.75Z" fill="#F44336"/>
</g>
<defs>
<filter id="filter0_d_6_16" x="0" y="0" width="255" height="270" filterUnits="userSpaceOnUse" color-interpolation-filters="sRGB">
<feFlood flood-opacity="0" result="BackgroundImageFix"/>
<feColorMatrix in="SourceAlpha" type="matrix" values="0 0 0 0 0 0 0 0 0 0 0 0 0 0 0 0 0 0 127 0" result="hardAlpha"/>
<feOffset dy="30"/>
<feGaussianBlur stdDeviation="30"/>
<feComposite in2="hardAlpha" operator="out"/>
<feColorMatrix type="matrix" values="0 0 0 0 0 0 0 0 0 0 0 0 0 0 0 0 0 0 0.4 0"/>
<feBlend mode="normal" in2="BackgroundImageFix" result="effect1_dropShadow_6_16"/>
<feBlend mode="normal" in="SourceGraphic" in2="effect1_dropShadow_6_16" result="shape"/>
</filter>
</defs>
</svg>
