<svg xmlns="http://www.w3.org/2000/svg" width="124" height="330"><g fill="none" fill-rule="evenodd" stroke="#9E96C6"><path d="M185.248 17.983c-40.947-12.815-83.05-34.188-126.155 4.85C15.99 61.874-11.11 96.07 6.39 140.318c17.5 44.247 88.934 16.687 109.69 56.234 20.755 39.547-24.85 75.438-5.188 110.635 19.661 35.196 34.779 57.753 97.963 35.374 63.185-22.378 57.359-79.32 105.408-112.665 48.048-33.344 100.034-83.262 28.692-172.334-71.342-89.072-116.76-26.764-157.706-39.578z"/><path d="M190.037 40.695c-33.343-10.405-67.629-27.759-102.73 3.94-35.101 31.697-57.17 59.464-42.918 95.392 14.25 35.927 72.42 13.55 89.322 45.66s-20.235 61.253-4.224 89.831c16.01 28.578 28.321 46.894 79.774 28.723 51.452-18.17 46.708-64.405 85.835-91.48 39.128-27.074 81.46-67.606 23.365-139.93-58.096-72.323-95.08-21.73-128.424-32.136z"/><path d="M200.203 54.055c-26.936-8.47-54.632-22.596-82.988 3.207-28.355 25.803-46.182 48.407-34.67 77.653 11.512 29.246 58.503 11.03 72.157 37.169 13.653 26.139-16.347 49.862-3.413 73.126 12.934 23.263 22.878 38.173 64.443 23.381 41.564-14.791 37.732-52.428 69.34-74.468 31.607-22.04 65.804-55.034 18.874-113.907-46.93-58.874-76.807-17.69-103.743-26.16z"/><path d="M210.233 71.814c-21.831-6.827-44.279-18.214-67.26 2.585-22.982 20.798-37.43 39.017-28.1 62.59 9.33 23.574 47.416 8.89 58.482 29.96 11.066 21.069-13.248 40.19-2.766 58.942 10.482 18.751 18.543 30.769 52.23 18.846 33.687-11.922 30.581-42.259 56.198-60.024 25.618-17.764 53.334-44.359 15.298-91.813-38.037-47.454-62.251-14.259-84.082-21.086z"/></g></svg>