<svg xmlns="http://www.w3.org/2000/svg" width="434" height="250"><g fill="none" fill-rule="evenodd" stroke="#9E96C6"><path d="M374.872-183.487c-83.088-26.03-168.523-69.446-255.99 9.854C31.415-94.333-23.575-24.865 11.936 65.016c35.51 89.881 180.463 33.898 222.58 114.23 42.116 80.332-50.424 153.24-10.528 224.736 39.896 71.496 70.573 117.318 198.785 71.859 128.212-45.46 116.391-161.127 213.89-228.861 97.5-67.734 202.988-169.134 58.222-350.07-144.766-180.935-236.925-54.367-320.013-80.397z"/><path d="M384.985-142.161c-67.557-21.138-137.022-56.395-208.139 8.002C105.73-69.762 61.02-13.351 89.892 59.638c28.873 72.99 146.729 27.527 180.973 92.762 34.243 65.235-40.998 124.441-8.56 182.5 32.439 58.059 57.381 95.27 161.627 58.354 104.246-36.916 94.634-130.846 173.908-185.85C677.114 152.4 762.883 70.057 645.178-76.874c-117.705-146.93-192.637-44.15-260.193-65.287z"/><path d="M404.804-113.49c-54.849-17.232-111.247-45.974-168.987 6.523-57.74 52.496-94.04 98.482-70.598 157.983 23.442 59.5 119.13 22.44 146.932 75.62 27.802 53.179-33.286 101.444-6.95 148.773 26.337 47.33 46.587 77.663 131.224 47.57 84.637-30.094 76.834-106.665 141.196-151.504 64.362-44.84 133.998-111.966 38.434-231.743-95.565-119.778-156.402-35.99-211.25-53.223z"/><path d="M424.91-80.123c-44.205-13.836-89.659-36.915-136.194 5.238-46.534 42.153-75.79 79.079-56.898 126.856 18.893 47.777 96.011 18.018 118.418 60.72 22.407 42.7-26.826 81.456-5.6 119.46 21.225 38.003 37.546 62.36 105.758 38.196 68.213-24.164 61.923-85.648 113.796-121.652 51.872-36.005 107.994-89.905 30.975-186.082-77.02-96.177-126.05-28.9-170.255-42.736z"/><path d="M430.256-58.56c-36.06-11.317-73.137-30.194-111.097 4.285-37.96 34.478-61.824 64.681-46.413 103.76 15.411 39.079 78.319 14.738 96.597 49.665 18.278 34.928-21.883 66.627-4.57 97.712 17.315 31.085 30.629 51.008 86.271 31.243 55.642-19.765 50.512-70.056 92.826-99.505 42.313-29.45 88.093-73.537 25.267-152.204-62.827-78.668-102.822-23.638-138.881-34.956z"/><path d="M440.955-42.498c-29.325-9.164-59.479-24.448-90.35 3.469-30.87 27.916-50.278 52.37-37.745 84.012 12.533 31.641 63.693 11.933 78.557 40.213 14.865 28.28-17.796 53.946-3.715 79.115 14.08 25.169 24.908 41.3 70.16 25.296 45.25-16.003 41.078-56.722 75.49-80.566C567.763 85.196 604.994 49.5 553.9-14.196 502.807-77.89 470.28-33.335 440.955-42.498z"/></g></svg>