<svg xmlns="http://www.w3.org/2000/svg" width="168" height="165"><g fill="none" fill-rule="evenodd" stroke="#96A9C6"><path d="M-20.97-256.987c-52.677-16.501-106.841-44.025-162.294 6.247-55.453 50.272-90.316 94.31-67.803 151.29 22.514 56.979 114.411 21.488 141.113 72.415 26.7 50.926-31.968 97.145-6.674 142.469 25.293 45.324 44.742 74.373 126.027 45.554C90.684 132.17 83.189 58.843 145.002 15.904c61.814-42.94 128.692-107.221 36.912-221.924-91.78-114.702-150.207-34.465-202.884-50.967z"/><path d="M-13.955-230.22c-42.902-13.399-87.015-35.746-132.178 5.072-45.163 40.818-73.556 76.574-55.22 122.838 18.335 46.265 93.18 17.449 114.926 58.798 21.747 41.349-26.035 78.877-5.435 115.677 20.6 36.801 36.44 60.387 102.64 36.988 66.201-23.399 60.098-82.937 110.44-117.8 50.343-34.865 104.81-87.059 30.062-180.19C76.532-281.97 28.947-216.823-13.955-230.22z"/><path d="M-1.61-212.607c-34.755-10.916-70.492-29.123-107.08 4.132-36.587 33.255-59.59 62.386-44.735 100.078 14.854 37.693 75.487 14.216 93.105 47.903 17.617 33.688-21.092 64.263-4.404 94.245 16.689 29.982 29.52 49.197 83.152 30.134 53.631-19.064 48.686-67.57 89.47-95.974 40.785-28.405 84.91-70.927 24.355-146.803-60.556-75.876-99.106-22.8-133.862-33.715z"/><path d="M11.09-190.546c-28.022-8.762-56.835-23.376-86.334 3.317-29.498 26.693-48.044 50.076-36.068 80.33 11.976 30.255 60.862 11.41 75.066 38.451 14.204 27.04-17.005 51.582-3.55 75.647 13.455 24.066 23.8 39.49 67.041 24.188 43.24-15.301 39.253-54.236 72.136-77.035 32.882-22.8 68.458-56.932 19.635-117.836-48.823-60.904-79.904-18.3-107.926-27.062z"/><path d="M14.12-176.738c-22.917-7.155-46.481-19.09-70.606 2.71-24.125 21.799-39.292 40.895-29.498 65.602 9.795 24.708 49.775 9.319 61.391 31.402C-12.976-54.941-38.5-34.9-27.496-15.245-16.492 4.408-8.031 17.005 27.332 4.508 62.695-7.988 59.435-39.785 86.327-58.405c26.892-18.62 55.987-46.494 16.058-96.232s-65.348-14.945-88.265-22.1z"/></g></svg>