<svg xmlns="http://www.w3.org/2000/svg" width="86" height="86"><g fill="none" fill-rule="evenodd"><circle cx="43" cy="43" r="43" fill="#96A9C6"/><path fill="#FFF" fill-rule="nonzero" d="M43 27c-8.836 0-16 7.164-16 16s7.164 16 16 16c8.838 0 16-7.164 16-16s-7.162-16-16-16zm4.363 22.178c-.787.883-1.924 1.402-3.41 1.558V53H42.06v-2.252c-2.479-.254-4.012-1.695-4.604-4.32l2.93-.764c.271 1.65 1.17 2.475 2.695 2.475.713 0 1.24-.176 1.576-.53a1.79 1.79 0 00.504-1.279c0-.518-.168-.91-.504-1.176-.336-.267-1.084-.605-2.242-1.015-1.04-.362-1.855-.717-2.441-1.073a4.032 4.032 0 01-1.428-1.48c-.365-.637-.549-1.379-.549-2.223 0-1.107.328-2.105.98-2.992.653-.885 1.68-1.426 3.083-1.623V33h1.894v1.748c2.117.254 3.488 1.451 4.111 3.594l-2.609 1.07c-.51-1.469-1.295-2.203-2.361-2.203-.535 0-.965.164-1.287.492a1.636 1.636 0 00-.487 1.194c0 .476.157.841.47 1.097.31.254.98.569 2.003.946 1.125.41 2.008.798 2.647 1.164a4.16 4.16 0 011.533 1.513c.38.645.572 1.397.572 2.258 0 1.322-.395 2.424-1.182 3.305z"/></g></svg>