<svg xmlns="http://www.w3.org/2000/svg" width="86" height="86"><g fill="none" fill-rule="evenodd"><circle cx="43" cy="43" r="43" fill="#96A9C6"/><path fill="#FFF" fill-rule="nonzero" d="M52.874 49.874l-5.095-2.547c-.48-.24-.779-.724-.779-1.261v-1.804c.122-.149.25-.32.383-.507.661-.933 1.19-1.972 1.576-3.093a2.116 2.116 0 001.241-1.929V36.6c0-.514-.192-1.011-.533-1.4v-2.837c.03-.293.147-2.04-1.116-3.48C47.455 27.633 45.678 27 43.267 27c-2.412 0-4.19.634-5.285 1.883-1.263 1.44-1.145 3.187-1.115 3.48V35.2a2.127 2.127 0 00-.534 1.4v2.133c0 .65.295 1.255.799 1.658.488 1.935 1.51 3.392 1.868 3.86v1.765c0 .516-.282.99-.734 1.237l-4.758 2.596A4.81 4.81 0 0031 54.073V55.8c0 2.531 8.024 3.2 12.267 3.2 4.242 0 12.266-.669 12.266-3.2v-1.623a4.786 4.786 0 00-2.659-4.303z"/></g></svg>