<svg xmlns="http://www.w3.org/2000/svg" width="374" height="374" fill="none" viewBox="0 0 374 374"><g clip-path="url(#clip0)"><path fill="#2B3531" d="M162.368 20.9573C164.107 21.0523 166.225 21.644 166.13 24.2956C165.59 39.3797 165.575 54.9314 165.926 69.9206C165.936 70.3883 165.78 70.8444 165.486 71.2081C165.192 71.5718 164.778 71.8196 164.319 71.9075C128.767 78.7958 133.405 104.925 133.537 134.136C133.537 138.395 133.683 144.217 133.946 148.161C133.978 148.6 134.176 149.011 134.501 149.308C134.825 149.606 135.251 149.768 135.692 149.761C146.43 149.593 209.067 149.914 241.829 149.71C248.001 149.578 253.801 149.534 259.966 149.512C262.45 149.512 263.363 148.629 263.327 146.218C262.348 114.392 269.083 84.0041 232.289 71.367C231.772 71.1888 231.324 70.8522 231.009 70.4051C230.695 69.9579 230.529 69.4229 230.536 68.8761C230.726 53.1637 230.266 37.6851 230.236 21.98C230.237 21.4895 230.418 21.0164 230.746 20.6512C231.073 20.286 231.524 20.0543 232.011 20.0004C256.256 17.3707 282.837 29.8106 295.825 49.6501C297.586 52.331 299.076 52.6524 301.019 49.599C311.552 33.0685 324.708 27.1079 340.325 22.2941C347.981 19.9274 356.315 21.3006 362.159 21.3079C364.964 21.3079 366.038 21.9361 365.965 24.9019C365.826 30.9282 366.045 36.9619 366.111 42.9956C366.111 53.6823 366.06 63.2953 366.001 68.562C365.986 69.1247 365.761 69.6614 365.37 70.0669C364.98 70.4723 364.452 70.7171 363.89 70.7534C336.746 72.5942 332.363 89.7163 331.333 113.741C331.494 142.149 328.703 175.298 364.409 179.98C364.8 180.036 365.16 180.226 365.427 180.518C365.693 180.81 365.85 181.185 365.87 181.58C365.928 182.763 366.155 184.699 366.206 185.875C366.286 187.899 365.884 189.002 363.941 189.571C359.814 190.784 349.42 193.888 345.161 197.833C339.025 203.501 332.064 213.509 332.275 223.94C331.881 238.454 331.808 252.991 331.866 267.512C331.866 267.512 334.16 294.153 361.523 297.63C363.781 297.915 364.526 298.397 364.548 301.107C364.643 315.541 365.059 329.595 364.168 344.562C364.117 345.49 363.496 346.944 362.305 347.141C359.88 347.429 357.43 347.451 355 347.207C335.906 346.308 320.559 339.96 311.954 333.328C309.032 331.063 303.356 325.292 300.391 322.042C300.17 321.795 299.901 321.597 299.6 321.459C299.3 321.321 298.974 321.247 298.643 321.242C298.312 321.236 297.984 321.299 297.679 321.427C297.373 321.555 297.098 321.744 296.87 321.983C278.564 340.844 259.272 350.128 232.019 346.133C231.821 331.085 231.383 316.768 231.361 301.574C231.361 299.427 232.267 298.419 233.713 297.856C240.448 295.226 261.281 296.512 263.999 269.134C264.495 252.699 263.823 239.185 263.999 222.698C263.874 222.311 263.144 221.581 262.603 221.807C219.769 221.617 169.834 221.734 134.91 222.063C133.486 222.063 132.777 222.435 132.784 224.093C132.85 233.589 133.632 240.733 133.836 250.222C134.421 260.062 135.122 268.798 139.11 278.484C143.004 287.922 150.396 294.825 163.267 297.958C165.845 298.587 167.248 300.055 167.394 303.02C168.125 317.14 168.227 333.189 168.672 347.316C156.349 347.564 144.136 347.44 132.149 343.065C120.038 338.645 113.887 332.166 105.728 324C105.422 323.69 105.05 323.452 104.64 323.305C104.23 323.157 103.792 323.103 103.359 323.147C102.926 323.19 102.507 323.33 102.135 323.556C101.762 323.782 101.445 324.088 101.206 324.452C86.1513 347.141 59.7741 347.287 39.4086 347.097C36.4868 347.097 36.2019 346.023 36.085 343.131C35.486 328.565 35.3545 313.824 35.0331 299.207C35.0056 298.882 35.0464 298.555 35.1528 298.247C35.2593 297.939 35.4291 297.656 35.6513 297.417C35.8735 297.179 36.1433 296.989 36.4431 296.861C36.743 296.733 37.0664 296.669 37.3925 296.673C53.7989 295.942 66.6113 284.795 66.8377 272.107C66.9619 266.621 67.203 259.317 67.203 253.816C67.203 224.48 68.8246 202.64 34.8578 190.777C34.3027 190.587 34.8578 185.232 34.6825 182.815C34.6704 182.679 34.7082 182.543 34.7888 182.433C34.8695 182.322 34.9875 182.245 35.1208 182.216C51.5271 178.614 64.2227 163.275 65.9904 146.876C65.2088 118.694 72.1409 77.7147 36.0412 71.6372C35.149 71.5004 34.3297 71.0644 33.7179 70.4008C33.106 69.7371 32.7378 68.8853 32.6737 67.9849C32.1624 57.0936 32.1916 36.3921 32.3523 24.5512C32.4254 19.4891 34.0981 19.0654 38.3714 18.9924C44.5842 18.8051 50.8023 19.0712 56.9764 19.7886C71.4762 21.6513 88.3866 35.3622 96.7577 50.607C98.0215 52.9372 99.2706 52.3894 100.067 50.4098C108.065 32.4914 128.394 22.2356 146.817 21.1911L162.368 20.9573Z"/><path fill="#B53A25" d="M180.601 266.57H180.47C177.473 266.546 174.552 265.634 172.074 263.949C169.596 262.264 167.674 259.881 166.551 257.103C165.428 254.326 165.155 251.277 165.765 248.343C166.375 245.41 167.842 242.723 169.98 240.624C172.798 237.815 176.615 236.238 180.594 236.241H180.725C182.719 236.255 184.691 236.663 186.527 237.441C188.363 238.219 190.027 239.351 191.424 240.774C192.822 242.196 193.924 243.88 194.669 245.73C195.414 247.579 195.787 249.558 195.766 251.552L190.974 251.508L195.766 251.552C195.731 255.545 194.121 259.364 191.285 262.177C188.449 264.989 184.617 266.568 180.623 266.57H180.601ZM180.601 245.854C179.125 245.847 177.707 246.427 176.658 247.466C175.609 248.505 175.016 249.918 175.009 251.395C175.003 252.871 175.583 254.289 176.622 255.338C177.661 256.387 179.074 256.979 180.55 256.986H180.601C182.044 256.94 183.412 256.336 184.419 255.301C185.425 254.266 185.99 252.881 185.996 251.438C186.002 249.994 185.447 248.605 184.449 247.562C183.451 246.519 182.087 245.904 180.645 245.847L180.601 245.854Z"/><path fill="#B53A25" d="M180.601 200.499H180.47C178.48 200.491 176.512 200.091 174.677 199.322C172.842 198.553 171.176 197.431 169.775 196.018C166.946 193.165 165.365 189.305 165.382 185.287C165.398 181.269 167.01 177.422 169.863 174.593C172.716 171.763 176.576 170.183 180.594 170.199H180.725C184.746 170.232 188.589 171.86 191.41 174.726C194.23 177.592 195.797 181.46 195.766 185.481L190.974 185.437L195.766 185.481C195.731 189.475 194.121 193.293 191.285 196.106C188.449 198.918 184.617 200.497 180.623 200.499H180.601ZM180.601 179.783C179.125 179.776 177.707 180.356 176.658 181.395C175.609 182.434 175.016 183.847 175.01 185.324C175.003 186.8 175.583 188.218 176.622 189.267C177.661 190.316 179.074 190.909 180.55 190.915H180.601C182.078 190.921 183.496 190.34 184.544 189.301C185.592 188.261 186.184 186.847 186.189 185.371C186.195 183.895 185.614 182.477 184.575 181.429C183.535 180.381 182.121 179.789 180.645 179.783H180.601Z"/><path fill="#B53A25" d="M293.897 179.98H191.39V189.564H293.897V179.98Z"/><path fill="#B53A25" d="M192.581 256.628C190.569 256.628 188.562 256.445 186.583 256.081L188.315 246.658C199.608 248.739 211.88 242.333 219.564 230.332C222.72 225.416 225.145 219.725 227.724 213.713C229.718 209.038 231.778 204.217 234.239 199.71C241.887 185.693 252.45 178.753 262.479 181.142L260.288 190.463C253.714 188.899 246.694 196.935 242.676 204.298C240.441 208.403 238.556 212.808 236.562 217.446C233.947 223.56 231.244 229.864 227.665 235.474C219.141 248.783 205.846 256.628 192.581 256.628Z"/><path fill="#B53A25" d="M296.322 201.157H296.183C293.082 201.131 290.058 200.186 287.494 198.441C284.93 196.697 282.941 194.23 281.779 191.355C280.617 188.479 280.334 185.324 280.966 182.288C281.597 179.251 283.116 176.47 285.329 174.297C286.788 172.844 288.524 171.698 290.433 170.925C292.342 170.152 294.387 169.769 296.446 169.798C300.604 169.836 304.576 171.523 307.491 174.489C310.405 177.454 312.024 181.455 311.991 185.612L306.673 185.561L311.991 185.612C311.956 189.746 310.29 193.698 307.356 196.609C304.421 199.521 300.456 201.155 296.322 201.157ZM296.322 180.441C295.019 180.484 293.784 181.031 292.875 181.966C291.967 182.901 291.456 184.152 291.451 185.456C291.445 186.76 291.945 188.015 292.845 188.958C293.745 189.901 294.976 190.459 296.278 190.514C296.941 190.522 297.599 190.398 298.213 190.147C298.827 189.896 299.383 189.524 299.85 189.053C300.562 188.355 301.051 187.461 301.254 186.485C301.457 185.509 301.366 184.495 300.992 183.571C300.618 182.646 299.978 181.854 299.153 181.294C298.328 180.734 297.356 180.432 296.359 180.426L296.322 180.441Z"/><path fill="#B53A25" d="M302.292 24.2482L292.708 24.2666L292.994 173.275L302.578 173.256L302.292 24.2482Z"/><path fill="#B53A25" d="M340.508 62.959C337.517 62.9589 334.594 62.0736 332.105 60.4147C329.617 58.7557 327.675 56.3973 326.524 53.6367C325.374 50.8761 325.066 47.8367 325.64 44.9015C326.214 41.9664 327.644 39.2668 329.75 37.1429C331.856 35.019 334.543 33.5658 337.473 32.9665C340.403 32.3672 343.445 32.6485 346.215 33.775C348.986 34.9015 351.361 36.8229 353.041 39.2969C354.722 41.7709 355.632 44.687 355.658 47.6776C355.687 51.6933 354.122 55.5565 351.307 58.42C348.491 61.2834 344.655 62.9132 340.64 62.9517L340.508 62.959ZM340.508 42.2429H340.457C338.981 42.2497 337.568 42.8427 336.529 43.8913C335.49 44.94 334.91 46.3584 334.916 47.8347C334.923 49.3109 335.516 50.724 336.565 51.7631C337.613 52.8021 339.032 53.3821 340.508 53.3753H340.552C342.028 53.3618 343.438 52.7636 344.473 51.7119C345.508 50.6603 346.084 49.241 346.074 47.7653C346.059 46.2991 345.467 44.8979 344.427 43.8645C343.387 42.8311 341.982 42.2486 340.515 42.2429H340.508Z"/><path fill="#B53A25" d="M302.524 113.398L292.954 112.909C293.064 110.717 296.03 59.4968 327.155 48.9707L330.223 58.0431C323.218 60.4171 313.532 67.5392 307.199 88.153C304.731 96.3739 303.163 104.839 302.524 113.398Z"/><path fill="#B53A25" d="M301.492 191.445L291.909 191.465L292.245 352.197L301.829 352.177L301.492 191.445Z"/><path fill="#B53A25" d="M339.741 334.701H339.609C336.613 334.676 333.691 333.763 331.213 332.078C328.736 330.392 326.813 328.01 325.69 325.232C324.566 322.454 324.291 319.405 324.901 316.471C325.51 313.537 326.976 310.85 329.112 308.749C331.249 306.648 333.961 305.228 336.905 304.668C339.849 304.108 342.893 304.434 345.651 305.605C348.41 306.775 350.759 308.737 352.403 311.243C354.046 313.749 354.909 316.686 354.884 319.682C354.845 323.675 353.233 327.491 350.398 330.303C347.563 333.115 343.734 334.695 339.741 334.701ZM339.741 313.985C338.265 313.978 336.846 314.558 335.798 315.597C334.749 316.636 334.156 318.049 334.149 319.525C334.142 321.001 334.722 322.42 335.761 323.469C336.801 324.517 338.214 325.11 339.69 325.117H339.741C341.217 325.123 342.635 324.542 343.683 323.502C344.731 322.462 345.323 321.049 345.329 319.573C345.335 318.096 344.754 316.678 343.714 315.63C342.674 314.582 341.261 313.99 339.785 313.985H339.741Z"/><path fill="#B53A25" d="M297.126 374H296.994C292.943 373.983 289.064 372.359 286.209 369.485C283.354 366.611 281.755 362.722 281.764 358.671C281.773 354.62 283.388 350.738 286.256 347.877C289.123 345.015 293.009 343.408 297.06 343.408C301.111 343.408 304.997 345.015 307.864 347.877C310.732 350.738 312.347 354.62 312.356 358.671C312.365 362.722 310.766 366.611 307.911 369.485C305.055 372.359 301.177 373.983 297.126 374ZM297.126 353.284C296.395 353.281 295.67 353.422 294.994 353.699C294.317 353.976 293.702 354.384 293.183 354.899C292.664 355.414 292.252 356.026 291.97 356.7C291.687 357.374 291.54 358.097 291.538 358.828C291.535 359.559 291.676 360.284 291.953 360.96C292.23 361.636 292.638 362.252 293.152 362.771C293.667 363.289 294.279 363.702 294.953 363.984C295.628 364.267 296.351 364.413 297.082 364.416C297.814 364.435 298.543 364.303 299.222 364.029C299.902 363.755 300.518 363.345 301.034 362.824C301.817 362.051 302.354 361.063 302.577 359.986C302.799 358.908 302.698 357.788 302.286 356.768C301.873 355.748 301.168 354.873 300.259 354.253C299.35 353.633 298.277 353.296 297.177 353.284H297.126Z"/><path fill="#B53A25" d="M297.125 30.3H296.994C292.976 30.2835 289.129 28.6716 286.3 25.8188C283.47 22.966 281.89 19.106 281.906 15.088C281.923 11.07 283.535 7.22305 286.387 4.39353C289.24 1.56402 293.1 -0.0163398 297.118 0.000127412H297.25C301.265 0.0387086 305.102 1.66847 307.917 4.53189C310.733 7.39532 312.297 11.2586 312.268 15.2742L307.476 15.2377L312.268 15.2742C312.232 19.2682 310.621 23.0865 307.786 25.8999C304.95 28.7132 301.12 30.2944 297.125 30.3ZM297.125 9.58388C295.649 9.57807 294.231 10.1589 293.183 11.1987C292.135 12.2384 291.543 13.6519 291.537 15.1281C291.532 16.6044 292.112 18.0225 293.152 19.0704C294.192 20.1184 295.605 20.7104 297.082 20.7162H297.133C298.609 20.722 300.027 20.1412 301.075 19.1014C302.123 18.0617 302.715 16.6482 302.721 15.172C302.727 13.6957 302.146 12.2776 301.106 11.2297C300.066 10.1817 298.653 9.58969 297.177 9.58388H297.125Z"/><path fill="#B53A25" d="M326.76 319.748C295.686 309.237 292.034 259.119 291.895 257.008L301.45 256.373C302.212 264.755 303.887 273.029 306.446 281.048C313.02 301.223 322.801 308.294 329.821 310.668L326.76 319.748Z"/><path fill="#91A88C" d="M290.887 140.856L294.678 142.967C296.183 148.081 297.666 153.479 298.754 157.752C300.1 157.482 301.462 157.295 302.83 157.19L300.756 154.633C300.245 152.054 299.521 150.148 297.834 143.223C297.599 142.212 297.477 141.178 297.469 140.14C297.367 133.442 297.25 126.736 297.25 120.038C297.25 111.484 297.476 102.93 297.359 94.3839C297.364 89.6119 296.023 84.9353 293.488 80.8921C291.83 78.2917 289.952 75.6693 286.351 76.1441C282.75 76.6189 281.574 79.5992 280.507 82.5138C280.054 83.7264 279.499 84.9097 278.995 86.1077L277.929 86.0493C277.33 83.3977 274.89 66.8087 273.729 61.2864C271.734 51.7464 269.134 42.3672 259.601 37.0202C259.601 37.0202 253.027 34.3686 250.909 39.0436C250.215 40.5776 248.958 42.1042 248.812 43.7113C248.527 46.7939 248.812 49.9203 248.893 53.0321C248.893 53.7625 248.958 54.493 248.995 55.165L248.308 55.3403C247.045 52.528 245.73 49.7376 244.524 46.8961C242.614 42.2601 239.582 38.1712 235.7 34.9968C233.011 32.7673 229.897 31.1072 226.548 30.1173C219.798 28.2984 214.261 33.5212 215.167 40.3438C215.255 40.9939 215.386 41.6367 215.678 43.3607C214.63 42.6444 213.526 42.0142 212.377 41.476C209.629 40.4335 206.813 39.5841 203.947 38.934C197.563 37.7287 192.5 42.8201 194.151 48.8903C194.805 51.1042 196.012 53.1152 197.658 54.7341C200.039 57.0789 202.939 58.9269 205.612 60.9869C206.27 61.4982 206.913 62.0241 207.76 62.6962C205.569 63.4778 203.706 63.916 202.07 64.7926C197.468 67.247 196.92 72.5575 201.025 75.6328C202.725 76.8665 204.667 77.7277 206.723 78.1602C210.857 79.0587 215.079 79.6211 219.287 80.1398C224.67 80.8264 230.098 81.2355 235.467 82.0171C237.563 82.3239 239.901 82.7037 241.201 85.0047C239.009 86.6848 236.584 85.9032 234.305 86.0931C230.653 86.3853 227.001 86.5533 223.443 87.3349C220.339 88.0142 217.745 89.8842 217.241 93.3174C216.825 96.137 218.943 98.9493 222.355 100.483C222.777 100.693 223.22 100.857 223.677 100.973C229.17 102.222 234.634 103.661 240.185 104.625C245.737 105.589 251.186 106.086 256.679 106.853C259.083 107.211 261.471 107.817 263.129 110.133C261.889 110.555 260.582 110.745 259.273 110.695C256.446 110.6 253.597 110.096 250.799 110.33C246.226 110.717 244.225 114.917 247.052 118.365C248.468 120.044 250.285 121.341 252.333 122.134C256.293 123.638 260.355 124.858 264.488 125.787C274.883 128.219 283.78 133.011 290.887 140.856Z"/><path fill="#2B3531" d="M288.835 132.945C288.038 132.054 287.79 130.79 287.293 129.702C287.262 129.61 287.212 129.526 287.147 129.454C285.957 128.77 284.806 128.022 283.699 127.211C282.051 125.936 280.237 124.889 278.309 124.099C273.599 122.408 268.785 121.022 263.896 119.95C263.822 119.931 263.746 119.917 263.67 119.906C263.396 119.894 263.128 119.822 262.885 119.696C262.642 119.569 262.429 119.392 262.26 119.176C262.114 118.914 262.026 118.624 262.003 118.325C261.98 118.026 262.023 117.725 262.129 117.445C262.179 117.255 262.3 117.091 262.467 116.988C262.634 116.885 262.835 116.849 263.027 116.89L265.277 117.321C270.916 118.394 276.694 119.512 281.946 122.434C282.677 122.784 283.48 123.164 284.306 123.588C281.618 118.745 278.944 114.275 276.183 109.979C274.959 108.15 273.332 106.626 271.428 105.523C267.104 102.741 262.221 100.945 257.125 100.264C250.346 99.4314 243.56 98.5621 236.993 97.7294C236.73 97.7294 236.467 97.6709 236.197 97.649C235.083 97.6598 233.989 97.3477 233.049 96.7506C232.967 96.7274 232.891 96.6903 232.822 96.641C232.69 96.5464 232.592 96.4102 232.546 96.254C232.5 96.0978 232.507 95.9306 232.567 95.779C232.64 95.5854 232.783 95.4263 232.968 95.3335L232.413 95.2166H233.144C233.933 94.8318 234.828 94.7237 235.686 94.9098H235.861C237.198 95.0705 238.535 95.2093 239.871 95.3481C241.931 95.5672 244.057 95.7863 246.146 96.0785C247.607 96.2904 249.177 96.4657 250.66 96.641C257.067 97.3715 263.655 98.1677 269.85 101.455L267.41 98.6571C262.041 92.4919 256.489 86.1076 250.463 80.3369C248.16 78.1373 245.424 76.4429 242.428 75.3624C235.854 72.8715 228.439 71.7831 219.133 71.9365H218.534C215.474 71.9877 212.311 72.0461 208.512 70.9577C208.353 70.9149 208.213 70.8194 208.115 70.6868C208.016 70.5541 207.966 70.3922 207.972 70.2272C207.976 70.0561 208.037 69.8912 208.145 69.7589C208.254 69.6265 208.404 69.5342 208.571 69.4968C210.372 69.1235 212.22 69.0323 214.049 69.2265C214.933 69.3062 215.822 69.3208 216.708 69.2703C220.307 69.0198 223.92 69.0198 227.519 69.2703C232.413 69.5479 237.11 70.7751 241.661 72.0023L241.566 71.9292L241.383 71.7758C232.868 64.7231 223.726 58.4637 214.071 53.0758C213.523 52.7763 212.946 52.5061 212.34 52.2285C210.689 51.498 208.98 50.6872 207.789 49.0875C207.71 49.049 207.641 48.9942 207.585 48.9268C207.498 48.8286 207.44 48.709 207.415 48.5805C207.391 48.452 207.401 48.3193 207.446 48.1963V48.1087C207.493 47.9737 207.577 47.8545 207.688 47.7643C207.799 47.674 207.932 47.6163 208.074 47.5973C208.218 47.5741 208.365 47.5944 208.498 47.6558C209.25 47.7054 209.974 47.9578 210.594 48.3862L210.908 48.5615C219.076 52.7807 226.952 57.5443 234.48 62.8203C238.293 65.5595 241.953 68.5545 246.029 72.0534C245.81 71.5859 245.598 71.1184 245.386 70.6509C243.962 67.5245 242.611 64.5661 241.23 61.6735C239.945 59.137 238.481 56.6959 236.847 54.3688C235.868 52.9078 234.853 51.3665 233.925 49.796C232.333 47.2025 230.566 44.7205 228.637 42.3672C227.906 41.4395 227.176 40.4826 226.387 39.4453C226.287 39.3169 226.232 39.1588 226.232 38.9961C226.232 38.8333 226.287 38.6752 226.387 38.5468C226.501 38.3976 226.669 38.2982 226.854 38.2692C226.759 38.1743 226.672 38.072 226.569 37.9771C226.716 38.072 226.847 38.167 226.993 38.2546C227.09 38.2538 227.187 38.2711 227.278 38.3058C229.198 38.9297 230.868 40.1536 232.041 41.7974C232.932 42.9296 233.801 44.0765 234.627 45.2452C234.765 45.4278 234.89 45.6104 235.021 45.8004C237.268 48.9884 239.284 52.3327 241.055 55.8078C241.267 56.2388 241.471 56.6697 241.676 57.1007C242.552 58.6931 243.407 60.3002 244.218 61.9218C244.327 62.0898 244.429 62.2578 244.546 62.4185C245.116 63.2765 245.589 64.1952 245.956 65.1578C246.533 66.5165 247.074 67.8021 248.228 68.686C248.372 68.795 248.471 68.9537 248.505 69.1315C248.653 69.9301 248.86 70.7164 249.126 71.4837C250.5 73.9819 251.961 76.4289 253.568 78.7883C254.437 79.8256 255.357 80.841 256.3 81.8782C256.92 82.5576 257.534 83.2442 258.14 83.9308C260.332 86.3852 262.596 88.7885 264.831 91.1114L267.023 93.4123C267.214 93.6312 267.372 93.8774 267.49 94.1428C267.554 94.2661 267.625 94.3856 267.702 94.5007C267.624 93.9054 267.459 93.3246 267.213 92.7768C266.986 92.2498 266.813 91.7017 266.694 91.1406C265.906 86.2633 265.447 81.3386 265.321 76.3997L265.233 74.5589C264.736 64.4858 262.655 55.9393 258.871 48.4374C258.831 48.3594 258.787 48.2838 258.739 48.2109C258.509 47.9219 258.374 47.5691 258.352 47.2006C258.33 46.832 258.422 46.4655 258.615 46.151C258.693 46.0314 258.803 45.9355 258.931 45.8736C259.06 45.8118 259.203 45.7865 259.346 45.8004C260.858 45.9099 261.413 47.0641 261.771 47.8238C264.751 54.062 267.461 60.2417 267.892 67.2469L268.177 71.9512C268.491 77.2324 268.812 82.6963 269.309 88.0215C269.864 94.0259 271.691 98.9054 274.89 102.952C277.203 105.796 279.218 108.871 280.902 112.127C281.09 112.478 281.337 112.795 281.632 113.062C281.859 113.274 281.983 113.274 282.063 113.252C282.144 113.23 282.063 113.084 282.063 113.011C282.07 110.048 282.476 107.1 283.268 104.245C284.478 99.5573 285.323 94.7828 285.796 89.9645C285.796 89.8111 285.796 89.6577 285.796 89.5043C285.766 88.9698 285.846 88.4348 286.031 87.9323C286.215 87.4298 286.501 86.9704 286.87 86.5824C287.014 86.4458 287.204 86.3696 287.403 86.3696C287.601 86.3696 287.792 86.4458 287.936 86.5824C288.347 86.9928 288.643 87.5028 288.797 88.0625C288.951 88.6222 288.956 89.2122 288.813 89.7746C288.774 90.0481 288.752 90.3238 288.747 90.6C288.672 94.8459 288.071 99.0661 286.957 103.164C284.518 111.199 285.022 118.504 288.484 125.429C288.732 125.94 289.01 126.481 289.288 127.036C289.302 127.014 295.277 140.162 288.835 132.945Z"/><path fill="#F74700" d="M299.894 147.241C300.169 147.516 300.472 147.761 300.8 147.971C305.182 150.017 307.03 154.312 305.182 158.833C303.765 162.332 302.37 165.839 301.238 169.44C300.412 172.077 298.769 174.443 298.601 177.3L298.236 177.767C298.776 177.928 298.469 177.446 298.594 177.292C298.9 177.248 299.273 177.241 299.39 176.912C300.412 173.991 302.428 171.58 303.962 168.914C305.65 165.992 307.513 163.128 309.266 160.221C309.832 159.25 310.593 158.408 311.503 157.748C312.412 157.088 313.449 156.624 314.547 156.386C316.442 155.92 318.441 156.132 320.195 156.986C321.95 157.84 323.35 159.282 324.153 161.061C325.796 165.02 324.459 169.827 320.822 171.58C315.051 174.334 309.419 177.424 303.29 179.396C302.443 179.674 302.122 180.192 301.961 181.295C307.695 179.579 313.298 178.578 318.762 177.124C321.749 176.343 324.744 175.627 327.747 177.037C331.669 178.885 333.393 184.027 331.508 188.191C329.836 191.887 324.401 193.969 320.551 192.303C315.241 189.981 309.704 188.271 304.306 186.197C303.882 186.036 303.466 185.751 303.042 186.197C302.976 186.825 303.539 186.927 303.897 187.139C308.74 190.156 313.561 193.202 318.448 196.138C323.846 199.374 324.43 206.518 319.332 210.156C315.226 213.078 309.514 211.99 307.264 207.388C305.672 204.13 304.145 200.813 302.64 197.534C301.501 195.021 300.653 192.281 298.857 190.032C298.214 190.674 298.513 191.259 298.652 191.851C299.952 197.409 301.289 202.961 302.509 208.542C303.32 212.26 302.341 215.379 299.112 217.68C296.475 219.557 292.764 219.55 289.543 217.512C287.235 216.051 285.942 212.727 286.358 209.849C286.884 206.197 288.659 202.983 289.784 199.535C290.763 196.518 291.844 193.523 292.918 190.404C292.666 190.377 292.411 190.425 292.187 190.542C291.962 190.659 291.776 190.84 291.654 191.062C289.156 195.225 286.745 199.447 284.167 203.567C282.414 206.35 280.763 209.272 276.928 209.805C275.127 210.127 273.271 209.848 271.644 209.013C270.017 208.178 268.709 206.832 267.92 205.182C267.132 203.532 266.906 201.669 267.279 199.878C267.651 198.087 268.6 196.468 269.981 195.269C271.515 193.94 273.451 193.333 275.255 192.523C280.266 190.258 285.284 188.016 290.142 185.357C289.638 184.699 289.2 184.955 288.761 185.064C282.479 186.664 276.197 188.235 269.879 189.652C268.528 189.988 267.115 189.978 265.769 189.623C264.423 189.268 263.188 188.58 262.178 187.622C261.169 186.664 260.417 185.467 259.992 184.142C259.567 182.816 259.483 181.405 259.747 180.039C260.653 175.159 265.869 172.004 270.186 173.647C275.715 175.736 281.318 177.657 286.921 179.571C287.797 179.871 288.418 181.032 289.843 180.302C284.97 176.949 280.025 173.983 275.021 171.164C271.062 168.936 268.549 165.451 268.915 161.624C269.199 158.702 272.406 155.049 275.145 154.502C279.053 153.771 283.181 155.459 284.642 158.636C287.3 164.217 289.843 169.849 292.45 175.437C292.742 176.05 292.808 176.898 293.911 177.285C292.45 171.112 291.077 165.21 289.769 159.279C288.038 151.419 289.901 150.228 294.554 147.27C296.388 147.044 298.141 146.773 299.894 147.241ZM290.858 182.34C290.782 183.013 290.846 183.695 291.047 184.342C291.247 184.99 291.579 185.589 292.023 186.101C292.466 186.614 293.011 187.029 293.622 187.321C294.234 187.613 294.899 187.774 295.577 187.796C296.859 187.744 298.078 187.227 299.005 186.341C299.933 185.455 300.506 184.261 300.617 182.983C300.616 181.7 300.122 180.467 299.237 179.54C298.351 178.612 297.143 178.061 295.862 178.001C295.246 177.946 294.625 178.016 294.037 178.206C293.449 178.396 292.905 178.703 292.438 179.108C291.971 179.513 291.591 180.008 291.319 180.563C291.048 181.118 290.891 181.723 290.858 182.34Z"/><path fill="#91A88C" d="M296.191 176.942C295.337 176.865 294.477 176.961 293.662 177.225C292.847 177.489 292.093 177.914 291.446 178.476C290.8 179.039 290.273 179.725 289.898 180.496C289.524 181.267 289.308 182.105 289.266 182.961C288.988 187.11 291.844 190.404 295.803 190.514C299.222 190.609 302.597 187.38 302.779 183.845C302.962 180.309 299.879 177.117 296.191 176.942Z"/><path fill="#91A88C" d="M101.674 241.055C101.601 241.508 102.112 237.731 102.404 236.197C101.316 232.925 101.637 229.587 101.915 226.248C102.105 224.013 101.097 223.736 99.3657 224.787C99.3412 224.811 99.3229 224.841 99.3123 224.873C99.3018 224.906 99.2992 224.941 99.305 224.974C99.3107 225.008 99.3246 225.04 99.3453 225.067C99.3661 225.094 99.3931 225.116 99.4241 225.131C99.1578 226.287 99.1354 227.486 99.3584 228.652C99.2315 228.841 99.1607 229.062 99.1543 229.289C99.1478 229.517 99.2059 229.741 99.3218 229.937C98.8032 233.787 98.2627 237.644 97.744 241.493C96.8309 244.605 95.6987 247.644 94.5154 250.661L94.6322 250.712C93.7812 252.792 93.0496 254.918 92.4408 257.081L90.3298 258.031L90.5562 257.6C90.3371 257.293 89.5263 257.666 89.1975 257.483C86.8089 258.995 83.6898 257.885 81.0455 257.797C80.0883 257.717 79.1246 257.829 78.2118 258.129C77.299 258.428 76.4557 258.908 75.732 259.539C75.0083 260.171 74.419 260.942 73.9992 261.806C73.5793 262.67 73.3374 263.609 73.2879 264.569C73.2149 265.394 73.6459 266.468 72.7401 266.935C71.7101 267.454 70.9796 266.453 70.2565 265.913C65.523 261.45 54.6756 256.621 52.36 265.672C51.1693 269.887 55.4426 272.553 57.6705 275.46C60.7677 283.787 45.6397 269.952 43.85 269.324C35.771 262.385 20.6576 265.964 25.4203 278.645C26.3042 284.394 37.2247 289.492 35.2816 293.904C32.3598 296.381 22.2355 290.113 17.261 291.866C12.2061 292.779 10.1024 297.016 12.4764 301.538C19.2113 310.077 15.2083 309.5 9.2185 316.03C5.99713 319.171 8.5903 325.044 12.9731 325.3C18.8753 326.761 27.3999 319.456 31.6001 325.439C34.1859 329.741 38.8025 334.854 43.5286 332.458C47.6046 330.946 49.3724 328.076 49.1605 323.218C49.3212 322.575 48.956 321.421 49.6134 321.253C54.1496 320.062 55.8516 325.475 58.9634 329.04C62.1264 332.743 68.7225 331.721 71.7174 327.922C74.3544 324.745 74.9826 320.252 74.6393 316.14C72.8643 309.566 71.7978 298.718 80.9579 301.034L84.0696 302.319C87.9923 305.782 95.0267 304.978 95.7571 297.834L95.9398 297.79C95.5964 292.18 92.5577 286.161 87.6197 283.028C86.5532 282.538 85.516 281.888 85.6475 280.588C86.5825 277.111 88.657 277.666 89.6796 276.621C95.9032 270.398 93.5511 265.482 94.6103 258.878H94.5373C94.5373 258.878 98.3795 249.536 99.877 244.561L101.674 241.055ZM49.0144 323.145L48.788 323.057L49.0144 323.145Z"/><path fill="#2B3531" d="M87.9776 266.19C87.6725 266.423 87.4413 266.74 87.3117 267.101C87.1821 267.463 87.1597 267.854 87.2471 268.228C84.3586 270.791 81.8564 273.758 79.8183 277.038C78.4085 277.768 77.5538 279.119 76.3193 280.127C75.9903 280.438 75.7875 280.86 75.7496 281.311C75.2747 285.438 77.2105 289.945 80.4976 292.144C83.2003 293.51 84.0842 294.284 83.7993 294.591C83.5437 295.175 82.6306 294.912 82.1265 294.722C77.3566 293.992 73.8503 288.09 73.7042 282.728C61.4251 293.057 58.9926 303.736 66.9766 317.403C67.1812 318.923 65.9613 319.324 64.8802 317.498C59.5478 309.405 58.5616 299.828 63.0759 292.224C57.2322 295.694 52.5937 300.12 48.2109 305.635C43.1633 312.093 45.1137 316.592 43.6381 323.167L44.018 323.897L42.6447 323.437L42.8054 323.181C40.4387 317.454 42.8054 310.646 45.7711 304.993C40.2342 308.411 34.2224 311.267 28.4444 314.065C26.0777 314.635 20.0002 319.66 18.3274 317.476C28.1668 311.508 40.0954 306.643 47.9406 300.939C40.7893 303.064 33.3312 301.406 26.4064 300.047C24.5145 299.741 22.4838 300.011 20.7672 298.776C24.3392 296.103 29.6131 298.557 33.6088 298.908C48.262 302.166 55.6544 295.54 65.8955 286.556C52.5937 294.131 41.2422 281.23 31.6 273.831C31.096 273.597 30.4094 273.064 30.9864 272.165C35.8514 273.137 39.4233 277.761 43.2729 280.653C52.2431 288.689 64.7049 287.827 72.8569 280.653C73.0395 279.192 74.6904 279.755 75.0045 278.82C75.1506 278.33 75.9614 277.308 74.8511 277.578C67.0058 278.491 62.1555 272.779 58.2329 265.62C58.1922 265.522 58.184 265.414 58.2094 265.311C58.2349 265.208 58.2927 265.115 58.3744 265.048C58.4561 264.98 58.5574 264.94 58.6634 264.934C58.7694 264.928 58.8745 264.956 58.9634 265.014C61.6953 267.381 63.6384 270.405 66.5091 272.691C75.2748 279.755 82.7109 269.28 85.7643 265.387C85.4648 265.847 87.9776 266.19 87.9776 266.19Z"/><path fill="#B53A25" d="M107.079 88.2185H97.4956V163.8H107.079V88.2185Z"/><path fill="#B53A25" d="M145.02 64.1204C141.059 64.0512 137.283 62.4334 134.501 59.6136C131.718 56.7937 130.151 52.9963 130.135 49.0349C130.119 45.0735 131.655 41.2634 134.414 38.4208C137.173 35.5783 140.936 33.9296 144.896 33.8279H145.027C148.988 33.8971 152.764 35.5149 155.547 38.3348C158.329 41.1546 159.896 44.952 159.912 48.9134C159.929 52.8748 158.393 56.6849 155.633 59.5275C152.874 62.37 149.112 64.0187 145.151 64.1204H145.02ZM145.02 43.4043H144.969C143.526 43.4628 142.163 44.0786 141.166 45.122C140.168 46.1655 139.614 47.5553 139.621 48.9988C139.628 50.4423 140.194 51.827 141.201 52.8612C142.208 53.8955 143.577 54.4988 145.02 54.544H145.064C146.506 54.4864 147.87 53.8714 148.868 52.8286C149.866 51.7858 150.42 50.3965 150.415 48.953C150.409 47.5096 149.844 46.1246 148.837 45.0897C147.831 44.0548 146.463 43.4506 145.02 43.4043Z"/><path fill="#B53A25" d="M107.035 114.567L97.4663 114.07C97.5759 111.879 100.542 60.6581 131.667 50.1321L134.735 59.2118C127.722 61.5785 118.044 68.7079 111.71 89.3217C109.242 97.5425 107.674 106.007 107.035 114.567Z"/><path fill="#B53A25" d="M62.0899 64.1205H61.9584C57.8958 64.1031 54.0059 62.4747 51.1424 59.5927C48.2789 56.7108 46.6756 52.8106 46.6843 48.7479C46.6931 44.6852 48.313 40.7919 51.1889 37.9222C54.0647 35.0526 57.9615 33.4409 62.0242 33.4409C66.0868 33.4409 69.9836 35.0526 72.8594 37.9222C75.7353 40.7919 77.3553 44.6852 77.364 48.7479C77.3727 52.8106 75.7694 56.7108 72.9059 59.5927C70.0424 62.4747 66.1525 64.1031 62.0899 64.1205ZM62.0899 43.4044C60.6472 43.4506 59.2787 44.0548 58.2725 45.0897C57.2662 46.1247 56.7008 47.5096 56.6951 48.9531C56.6894 50.3965 57.244 51.7858 58.242 52.8287C59.2401 53.8715 60.6038 54.4864 62.0461 54.544H62.0899C63.5322 54.4918 64.898 53.8821 65.8999 52.8433C66.9018 51.8044 67.4616 50.4174 67.4616 48.9742C67.4616 47.5309 66.9018 46.144 65.8999 45.1051C64.898 44.0663 63.5322 43.4566 62.0899 43.4044Z"/><path fill="#B53A25" d="M97.5028 116.59C97.0432 107.872 95.6448 99.2296 93.3318 90.8118C87.4077 69.8474 77.8459 62.6376 70.8699 60.2782L73.9379 51.1985C105.129 61.7538 107.013 114.085 107.079 116.305L97.5028 116.59Z"/><path fill="#B53A25" d="M105.986 205.29L96.4028 205.333L96.6829 267.072L106.267 267.028L105.986 205.29Z"/><path fill="#B53A25" d="M144.253 335.862H144.121C142.132 335.854 140.163 335.454 138.328 334.685C136.494 333.916 134.828 332.794 133.427 331.381C130.597 328.528 129.017 324.668 129.034 320.65C129.05 316.632 130.662 312.785 133.515 309.956C136.368 307.126 140.228 305.546 144.246 305.562H144.377C148.337 305.664 152.1 307.313 154.859 310.155C157.618 312.998 159.154 316.808 159.138 320.769C159.122 324.731 157.555 328.528 154.772 331.348C151.99 334.168 148.214 335.786 144.253 335.855V335.862ZM144.253 315.146C142.785 315.148 141.377 315.729 140.335 316.763C139.292 317.797 138.7 319.2 138.687 320.668C138.675 322.143 139.249 323.563 140.283 324.615C141.317 325.667 142.727 326.265 144.202 326.278H144.253C145.721 326.28 147.13 325.702 148.173 324.668C149.216 323.635 149.807 322.231 149.819 320.763L154.604 320.8L149.819 320.763C149.829 319.287 149.253 317.867 148.218 316.814C147.183 315.761 145.773 315.162 144.297 315.146H144.253Z"/><path fill="#B53A25" d="M131.273 320.91C100.199 310.406 96.5462 260.281 96.4074 258.17L105.962 257.542C106.725 265.924 108.4 274.198 110.958 282.217C117.533 302.392 127.314 309.463 134.333 311.837L131.273 320.91Z"/><path fill="#F74700" d="M105.787 147.241C106.064 147.516 106.37 147.761 106.7 147.971C111.082 150.016 112.923 154.311 111.082 158.833C109.665 162.332 108.27 165.838 107.138 169.439C106.305 172.076 104.662 174.443 104.494 177.299L104.128 177.767C104.669 177.928 104.362 177.445 104.494 177.292C104.8 177.248 105.173 177.241 105.283 176.912C106.305 173.99 108.329 171.58 109.855 168.914C111.543 165.992 113.405 163.128 115.158 160.221C115.72 159.237 116.481 158.382 117.394 157.71C118.306 157.038 119.348 156.565 120.454 156.32C122.35 155.855 124.349 156.068 126.105 156.922C127.861 157.775 129.262 159.217 130.067 160.995C131.704 164.954 130.367 169.761 126.736 171.514C120.958 174.268 115.326 177.358 109.205 179.33C108.358 179.608 108.029 180.126 107.868 181.229C113.603 179.513 119.205 178.512 124.669 177.058C127.657 176.277 130.652 175.561 133.654 176.971C137.577 178.819 139.3 183.961 137.416 188.125C135.743 191.821 130.308 193.903 126.459 192.237C121.258 189.922 115.699 188.234 110.301 186.16C109.877 185.999 109.468 185.714 109.037 186.16C108.971 186.788 109.541 186.89 109.892 187.102C114.735 190.119 119.556 193.165 124.443 196.102C129.848 199.338 130.425 206.482 125.327 210.119C121.221 213.041 115.516 211.953 113.259 207.351C111.667 204.093 110.14 200.777 108.643 197.497C107.503 194.984 106.648 192.245 104.852 189.995C104.216 190.638 104.508 191.222 104.647 191.814C105.947 197.373 107.284 202.924 108.504 208.505C109.322 212.223 108.343 215.342 105.107 217.643C102.47 219.52 98.7594 219.513 95.538 217.475C93.2298 216.014 91.9368 212.691 92.3532 209.812C92.8791 206.16 94.6615 202.946 95.7791 199.498C96.7652 196.481 97.839 193.486 98.9128 190.367C98.662 190.342 98.4092 190.39 98.1858 190.507C97.9624 190.624 97.7783 190.804 97.6564 191.025C95.1509 195.188 92.7477 199.411 90.1618 203.53C88.416 206.314 86.7578 209.235 82.9229 209.769C81.1267 210.084 79.2768 209.803 77.6551 208.969C76.0335 208.135 74.7292 206.793 73.9413 205.149C73.1533 203.504 72.925 201.647 73.2911 199.861C73.6571 198.074 74.5975 196.456 75.9688 195.254C77.5028 193.925 79.4385 193.318 81.2428 192.508C86.2538 190.243 91.2721 188.001 96.1297 185.342C95.6257 184.684 95.1947 184.94 94.7492 185.05C88.4744 186.649 82.1924 188.22 75.8665 189.637C74.5163 189.971 73.1036 189.96 71.7588 189.605C70.4139 189.25 69.1802 188.561 68.1715 187.603C67.1627 186.646 66.4114 185.449 65.9869 184.125C65.5623 182.8 65.4782 181.39 65.7422 180.024C66.648 175.144 71.8636 171.989 76.1806 173.632C81.7176 175.721 87.3203 177.643 92.9157 179.556C93.7922 179.856 94.4131 181.017 95.8375 180.287C90.9726 176.934 86.0274 173.968 81.0163 171.149C77.0572 168.921 74.5517 165.437 74.9169 161.609C75.1945 158.687 78.4013 155.035 81.1405 154.487C85.0558 153.756 89.1757 155.444 90.6366 158.621C93.2955 164.202 95.8375 169.834 98.4526 175.422C98.7375 176.036 98.8106 176.883 99.877 177.27C98.4526 171.098 97.0428 165.195 95.7426 159.264C94.0041 151.404 95.8668 150.214 100.52 147.255C102.266 147.043 104.033 146.773 105.787 147.241ZM96.7579 182.34C96.6808 183.013 96.7443 183.695 96.9443 184.343C97.1444 184.991 97.4767 185.59 97.9202 186.103C98.3637 186.616 98.9087 187.031 99.5209 187.323C100.133 187.614 100.799 187.775 101.477 187.796C103.938 187.862 106.378 185.532 106.51 182.982C106.511 181.699 106.017 180.465 105.132 179.537C104.246 178.609 103.036 178.059 101.754 178.001C101.139 177.945 100.518 178.014 99.9302 178.204C99.342 178.393 98.7983 178.7 98.3317 179.106C97.865 179.511 97.4851 180.006 97.2146 180.562C96.9442 181.118 96.7889 181.722 96.7579 182.34Z"/><path fill="#91A88C" d="M102.083 176.941C101.23 176.865 100.37 176.963 99.5554 177.227C98.7406 177.491 97.9875 177.917 97.341 178.478C96.6945 179.04 96.168 179.727 95.793 180.497C95.4179 181.267 95.2021 182.105 95.1583 182.96C94.888 187.109 97.7368 190.404 101.696 190.513C105.115 190.608 108.497 187.38 108.679 183.844C108.862 180.309 105.779 177.117 102.083 176.941Z"/></g><defs><clipPath id="clip0"><rect width="374" height="374" fill="#fff"/></clipPath></defs></svg>