<?xml version="1.0" encoding="utf-8"?>
<!-- Generator: Adobe Illustrator 23.0.4, SVG Export Plug-In . SVG Version: 6.00 Build 0)  -->
<svg version="1.1" id="Layer_1" xmlns="http://www.w3.org/2000/svg" xmlns:xlink="http://www.w3.org/1999/xlink" x="0px" y="0px"
	 viewBox="0 0 452.3 442.3" style="enable-background:new 0 0 452.3 442.3;" xml:space="preserve">
<style type="text/css">
	.st0{fill:#92D8E3;}
	.st1{opacity:0.7;fill:#FFFFFF;enable-background:new    ;}
	.st2{fill:none;stroke:#263238;stroke-linecap:round;stroke-linejoin:round;}
	.st3{fill:#CCCCCC;}
	.st4{clip-path:url(#SVGID_2_);}
	.st5{opacity:0.2;}
	.st6{fill:#263238;stroke:#263238;stroke-linecap:round;stroke-linejoin:round;}
	.st7{fill:none;stroke:#263238;stroke-width:2;stroke-linecap:round;stroke-linejoin:round;}
	.st8{fill:none;stroke:#263238;stroke-width:0.5;stroke-linecap:round;stroke-linejoin:round;}
	.st9{fill:#FFFFFF;stroke:#263238;stroke-linecap:round;stroke-linejoin:round;}
	.st10{fill:#FFFFFF;}
	.st11{clip-path:url(#SVGID_4_);}
	.st12{fill:none;stroke:#828282;stroke-linecap:round;stroke-linejoin:round;}
	.st13{fill:#263238;}
	.st14{clip-path:url(#SVGID_6_);}
	.st15{fill:#92D8E3;stroke:#263238;stroke-linecap:round;stroke-linejoin:round;}
	.st16{clip-path:url(#SVGID_8_);}
	.st17{opacity:0.2;enable-background:new    ;}
	.st18{fill:#CCCCCC;stroke:#263238;stroke-linecap:round;stroke-linejoin:round;}
	.st19{fill:#A6A6A6;stroke:#263238;stroke-linecap:round;stroke-linejoin:round;}
</style>
<g id="freepik--background-simple--inject-28">
	<path class="st0" d="M372.4,27.7c0,0-50.5-41.3-116.2-23s-93.2,74.9-130.9,113.9c-19.7,20.4-48.9,27.9-72.3,43.6
		c-75,50.2-63.9,163-6.1,205.5c50.1,36.8,112.6,40.7,194,13.5s139.6-43.5,190.1-121.3S434.6,83.7,372.4,27.7z"/>
	<path class="st1" d="M372.4,27.7c0,0-50.5-41.3-116.2-23s-93.2,74.9-130.9,113.9c-19.7,20.4-48.9,27.9-72.3,43.6
		c-75,50.2-63.9,163-6.1,205.5c50.1,36.8,112.6,40.7,194,13.5s139.6-43.5,190.1-121.3S434.6,83.7,372.4,27.7z"/>
</g>
<g id="freepik--Plants--inject-28">
	<path class="st0" d="M406,219.6c0,0,0-6.4-8.9-15.3s-14.6-14-14.6-14s-4.5,14.6,3.8,23.6s19.7,17.2,19.7,17.2V219.6z"/>
	<path class="st0" d="M393.1,259.3c0,0,0-6.4-8.9-15.3s-14.6-14-14.6-14s-4.5,14.6,3.8,23.6s19.7,17.2,19.7,17.2V259.3z"/>
	<path class="st0" d="M405.4,230.4c0,0,0.7-6.3,10.5-14.2s16-12.4,16-12.4s2.9,15-6.3,23s-21.4,15-21.4,15L405.4,230.4z"/>
	<path class="st0" d="M389.8,277.4c0,0,1.3-6.2,11.9-13.1s17.2-10.6,17.2-10.6s1.3,15.2-8.7,22.2s-22.9,12.7-22.9,12.7L389.8,277.4z
		"/>
	<path class="st0" d="M392.7,328.6c0,0,0-6.4,8.9-15.3s14.6-14,14.6-14s4.5,14.6-3.8,23.5S392.8,340,392.8,340L392.7,328.6z"/>
	<path class="st0" d="M392.6,341.1c0,0,0.9-6.3-6.6-16.4s-12.5-15.9-12.5-15.9s-6.5,13.9,0.4,23.9s17.1,19.8,17.1,19.8L392.6,341.1z
		"/>
	<path class="st0" d="M383.8,378.1c0,0,0-6.4,8.9-15.3s14.6-14,14.6-14s4.5,14.6-3.8,23.5s-19.7,17.2-19.7,17.2V378.1z"/>
	<path class="st0" d="M389.8,411.6c0,0-1.6-6.2,4.8-17s10.6-17.3,10.6-17.3s8,13,2.3,23.8s-14.7,21.6-14.7,21.6L389.8,411.6z"/>
	<path class="st2" d="M406.8,218c-0.5,6.6-1.3,13.2-2.4,19.8c-3.5,18.2-12.3,30-15.9,46.4s6.6,37.6,3.9,58.7s-10.9,32.9-8.6,47
		s15,53,15,53"/>
	<line class="st2" x1="405.3" y1="234.7" x2="415" y2="227.3"/>
	<line class="st2" x1="405.8" y1="226.2" x2="401.8" y2="219"/>
	<path class="st2" d="M389,283.3c0,0,8-6,16.3-12.1"/>
	<path class="st2" d="M393.1,270.8c0,0-6.7-13.1-14.3-21.8"/>
	<path class="st2" d="M393.1,337.6c4.6-8.5,10.4-16.2,17.2-23"/>
	<path class="st2" d="M391.5,346.5c-2.4-5.7-5.4-11.3-8.7-16.5c-4.7-6.9-5.4-7.8-5.4-7.8"/>
	<path class="st2" d="M383.8,389.8c2-5.1,4.5-10,7.2-14.6c2.8-4.4,5.9-8.5,9.4-12.4"/>
	<path class="st2" d="M392.7,422.7c0,0-0.9-7.6,2.4-14.1s7.1-15,8.7-18.3"/>
	<path class="st0" d="M333.3,304.6c0,0-0.7-4,3.9-10.5s7.7-10.4,7.7-10.4s4.4,8.7,0.2,15.2c-3.1,4.6-6.6,8.9-10.5,12.9L333.3,304.6z
		"/>
	<path class="st0" d="M345.7,328.1c0,0-0.7-4,3.9-10.5s7.7-10.4,7.7-10.4s4.4,8.7,0.2,15.2c-3.1,4.6-6.7,8.9-10.5,12.9L345.7,328.1z
		"/>
	<path class="st0" d="M334.8,311.4c0,0-1.1-3.9-8.1-7.8s-11.4-6-11.4-6s-0.2,9.7,6.4,13.8c4.8,2.8,9.9,5.2,15.1,7.1L334.8,311.4z"/>
	<path class="st0" d="M349.7,339.1c0,0-1.5-3.8-8.9-6.9s-12-4.8-12-4.8s0.9,9.7,7.9,13c5.1,2.3,10.3,4.1,15.7,5.5L349.7,339.1z"/>
	<path class="st0" d="M353.4,371.5c0,0-0.7-4-7.2-8.6s-10.7-7.2-10.7-7.2s-1.2,9.7,5,14.4c4.5,3.3,9.3,6.2,14.2,8.6L353.4,371.5z"/>
	<path class="st0" d="M354.9,379.3c0,0-1.2-3.9,2.4-11s6.1-11.4,6.1-11.4s5.6,8,2.3,15c-2.4,5-5.3,9.8-8.6,14.3L354.9,379.3z"/>
	<path class="st0" d="M366,411.5c0,0,0.5-4,6.7-9s10.3-7.8,10.3-7.8s1.8,9.6-4.1,14.6c-4.3,3.5-8.9,6.7-13.7,9.5L366,411.5z"/>
	<path class="st0" d="M364.4,401.6c0,0-0.7-4-7.2-8.6s-10.7-7.2-10.7-7.2s-1.2,9.7,5,14.4c4.5,3.3,9.3,6.2,14.2,8.7L364.4,401.6z"/>
	<path class="st0" d="M364.3,423.3c0,0,0.3-4-4.8-10.2s-8.5-9.7-8.5-9.7s-3.6,9,1.1,15.1c3.5,4.3,7.4,8.3,11.6,12L364.3,423.3z"/>
	<path class="st2" d="M332.6,303.7c1,4.1,2.2,8.2,3.7,12.1c4.2,11,11,17.4,15,27.4s0,24.3,3.9,37.2s10.4,19.4,10.5,28.5
		s-3.3,33.7-3.3,33.7"/>
	<line class="st2" x1="335.3" y1="314" x2="328.5" y2="310.4"/>
	<line class="st2" x1="334.1" y1="308.7" x2="335.9" y2="303.8"/>
	<path class="st2" d="M350.8,342.8c0,0-5.7-2.9-11.5-5.8"/>
	<path class="st2" d="M346.9,335.3c0,0,2.8-9,6.6-15.2"/>
	<path class="st2" d="M354.2,377.2c-3.8-4.8-8.3-9-13.3-12.5"/>
	<path class="st2" d="M356.1,382.7c0.9-3.9,2.1-7.6,3.7-11.3c2.2-4.9,2.5-5.5,2.5-5.5"/>
	<path class="st2" d="M365.4,415.8c0,0,4.5-5.5,7.3-7.6c1.7-1.3,3.3-2.6,4.8-4.1"/>
	<path class="st2" d="M365.7,408.9c-1.8-3-3.9-5.8-6.1-8.4c-2.2-2.4-4.6-4.7-7.2-6.7"/>
	<path class="st2" d="M363.7,430.6c-0.2-3.1-1.3-6-3-8.6c-2.8-3.7-6.1-8.6-7.5-10.5"/>
	<path class="st0" d="M65.1,219.6c0,0,0-6.4,8.9-15.3s14.6-14,14.6-14s4.5,14.6-3.8,23.6s-19.7,17.2-19.7,17.2L65.1,219.6z"/>
	<path class="st0" d="M78.1,259.3c0,0,0-6.4,8.9-15.3s14.6-14,14.6-14s4.4,14.6-3.8,23.6s-19.7,17.2-19.7,17.2V259.3z"/>
	<path class="st0" d="M65.7,230.4c0,0-0.7-6.3-10.5-14.2s-16-12.4-16-12.4s-2.9,15,6.3,23s21.4,15,21.4,15L65.7,230.4z"/>
	<path class="st0" d="M81.3,277.4c0,0-1.3-6.2-11.9-13.1s-17.2-10.6-17.2-10.6s-1.3,15.2,8.7,22.2s22.9,12.7,22.9,12.7L81.3,277.4z"
		/>
	<path class="st0" d="M78.4,328.6c0,0,0-6.4-8.9-15.3s-14.6-14-14.6-14s-4.5,14.6,3.8,23.5S78.4,340,78.4,340V328.6z"/>
	<path class="st0" d="M78.5,341.1c0,0-0.9-6.3,6.7-16.4s12.5-15.9,12.5-15.9s6.5,13.9-0.4,23.9s-17.1,19.8-17.1,19.8L78.5,341.1z"/>
	<path class="st0" d="M87.3,378.1c0,0,0-6.4-8.9-15.3s-14.6-14-14.6-14s-4.5,14.6,3.8,23.5s19.7,17.2,19.7,17.2L87.3,378.1z"/>
	<path class="st0" d="M81.4,411.6c0,0,1.6-6.2-4.8-17S66,377.4,66,377.4s-8,13-2.3,23.8s14.7,21.6,14.7,21.6L81.4,411.6z"/>
	<path class="st2" d="M64.3,218c0.4,6.6,1.3,13.2,2.4,19.8c3.5,18.2,12.3,30,15.8,46.4s-6.6,37.6-3.9,58.7s10.9,32.9,8.6,47
		s-15,53-15,53"/>
	<line class="st2" x1="65.8" y1="234.7" x2="56.2" y2="227.3"/>
	<line class="st2" x1="65.3" y1="226.2" x2="69.3" y2="219"/>
	<path class="st2" d="M82.1,283.3c0,0-8-6-16.3-12.1"/>
	<path class="st2" d="M78.1,270.8c0,0,6.7-13.1,14.3-21.8"/>
	<path class="st2" d="M78,337.6c-4.6-8.5-10.4-16.2-17.2-23"/>
	<path class="st2" d="M79.6,346.5c2.4-5.7,5.4-11.3,8.7-16.5c4.7-6.9,5.4-7.8,5.4-7.8"/>
	<path class="st2" d="M87.3,389.8c-2-5.1-4.5-10-7.2-14.6c-2.8-4.4-5.9-8.5-9.4-12.4"/>
	<path class="st2" d="M78.4,422.7c0,0,0.9-7.6-2.4-14.1s-7.2-15-8.7-18.3"/>
	<path class="st0" d="M137.8,304.6c0,0,0.7-4-3.9-10.5s-7.7-10.4-7.7-10.4s-4.4,8.7-0.2,15.2c3.1,4.6,6.7,8.9,10.5,12.9L137.8,304.6
		z"/>
	<path class="st0" d="M125.4,328.1c0,0,0.7-4-3.9-10.5s-7.7-10.4-7.7-10.4s-4.4,8.7-0.2,15.2c3.1,4.6,6.6,8.9,10.5,12.9L125.4,328.1
		z"/>
	<path class="st0" d="M136.3,311.4c0,0,1.1-3.9,8.1-7.8s11.4-6,11.4-6s0.2,9.7-6.4,13.8c-4.8,2.8-9.9,5.2-15.1,7.1L136.3,311.4z"/>
	<path class="st0" d="M121.4,339.1c0,0,1.5-3.8,8.9-6.9c7.4-3.1,12-4.8,12-4.8s-0.9,9.7-7.9,13c-5.1,2.3-10.3,4.1-15.7,5.5
		L121.4,339.1z"/>
	<path class="st0" d="M117.7,371.5c0,0,0.7-4,7.2-8.6c6.5-4.6,10.7-7.2,10.7-7.2s1.2,9.7-5,14.4c-4.5,3.3-9.3,6.2-14.2,8.6
		L117.7,371.5z"/>
	<path class="st0" d="M116.3,379.3c0,0,1.2-3.9-2.4-11s-6.1-11.4-6.1-11.4s-5.6,8-2.3,15c2.5,5,5.3,9.8,8.6,14.3L116.3,379.3z"/>
	<path class="st0" d="M105.1,411.5c0,0-0.5-4-6.7-9s-10.3-7.8-10.3-7.8s-1.8,9.6,4.1,14.6c4.3,3.5,8.9,6.7,13.7,9.5L105.1,411.5z"/>
	<path class="st0" d="M106.7,401.6c0,0,0.7-4,7.2-8.6s10.7-7.2,10.7-7.2s1.2,9.7-4.9,14.4c-4.5,3.3-9.2,6.2-14.2,8.7L106.7,401.6z"
		/>
	<path class="st0" d="M106.8,423.3c0,0-0.3-4,4.8-10.2s8.5-9.7,8.5-9.7s3.6,9-1.1,15.1c-3.5,4.3-7.4,8.3-11.6,12L106.8,423.3z"/>
	<path class="st2" d="M138.5,303.7c-1,4.1-2.2,8.2-3.7,12.1c-4.2,11-11,17.4-15,27.4s0,24.3-3.9,37.2s-10.4,19.4-10.4,28.5
		s3.3,33.7,3.3,33.7"/>
	<line class="st2" x1="135.8" y1="314" x2="142.6" y2="310.4"/>
	<line class="st2" x1="137" y1="308.7" x2="135.3" y2="303.8"/>
	<path class="st2" d="M120.3,342.8c0,0,5.7-2.9,11.5-5.8"/>
	<path class="st2" d="M124.2,335.3c0,0-2.8-9-6.6-15.2"/>
	<path class="st2" d="M116.9,377.2c3.8-4.8,8.3-9,13.3-12.5"/>
	<path class="st2" d="M115,382.7c-0.9-3.9-2.1-7.6-3.7-11.3c-2.2-4.9-2.5-5.5-2.5-5.5"/>
	<path class="st2" d="M105.8,415.8c0,0-4.5-5.5-7.3-7.6c-1.7-1.3-3.3-2.6-4.8-4.1"/>
	<path class="st2" d="M105.5,408.9c1.8-3,3.9-5.8,6.1-8.4c2.2-2.4,4.6-4.7,7.2-6.7"/>
	<path class="st2" d="M107.4,430.6c0.2-3.1,1.3-6,3-8.6c2.8-3.7,6.1-8.6,7.4-10.5"/>
</g>
<g id="freepik--Character--inject-28">
	<path class="st3" d="M326.4,442.3c0.4-8.9,0.5-29.3-5.5-48.4c-8-25.3-24.1-59.4-27.7-65s0-12,0-12c4.8-14.2,7.9-28.9,9.2-43.8
		c0,0,2,0.8,7.6,6s56.2,36.2,64.2,37.9s20-2.3,22.8-7.9s-52.8-64.1-67.7-78.5s-51-12-57-15.6s-6.4-8.4-2.4-23.7s17.3-29.3,18.9-41.7
		s-7.6-36.5-28.5-49s-35.7-5.2-35.7-5.2s-11.6,10-13.2,17.7s-0.8,10.4-6,13.6c-5.2,3.2-13.2,2-12.4,4.8s2.8,9.6,6.8,10
		c0,0-5.6,5.2-4.4,7.6c0.7,1.5,1.1,3.1,1.2,4.8c0,0-1.2,3.2,0,5.6c0.8,1.6,1.4,3.2,2,4.8c0,0,1.2,8,7.2,9.6s16.9,0.9,16.9,0.9
		s-1.2,13.2-3.6,26.5s-8.4,11.6-24.5,10.8s-33.3,5.2-40.1,10.8s-41.8,16.4-41.8,16.4s-7.6-31.7-8.4-34.9s-1.6-16.9-1.6-24.9
		s2.8-22.1,3.6-28.9s-18.1-8.8-18.9-5.6s-5.6,44.6-9.2,61s-1.6,37.3-2,52.6s4.8,22.1,11.2,21.3s27.3-2.8,47.8-4.4s39.3-12,39.3-12
		l2.8,0.4c0,0-10.8,16-9.6,26.5s8.8,17.7,11.2,20.5c2,2.6,3.7,5.5,5.2,8.4c0,0,2,12-1.6,16.5s-16,26.1-22.1,51
		c-4.7,19.5-3.3,45.3-2.4,55.6"/>
	<g>
		<defs>
			<path id="SVGID_1_" d="M326.4,442.3c0.4-8.9,0.5-29.3-5.5-48.4c-8-25.3-24.1-59.4-27.7-65s0-12,0-12c4.8-14.2,7.9-28.9,9.2-43.8
				c0,0,2,0.8,7.6,6s56.2,36.2,64.2,37.9s20-2.3,22.8-7.9s-52.8-64.1-67.7-78.5s-51-12-57-15.6s-6.4-8.4-2.4-23.7
				s17.3-29.3,18.9-41.7s-7.6-36.5-28.5-49s-35.7-5.2-35.7-5.2s-11.6,10-13.2,17.7s-0.8,10.4-6,13.6c-5.2,3.2-13.2,2-12.4,4.8
				s2.8,9.6,6.8,10c0,0-5.6,5.2-4.4,7.6c0.7,1.5,1.1,3.1,1.2,4.8c0,0-1.2,3.2,0,5.6c0.8,1.6,1.4,3.2,2,4.8c0,0,1.2,8,7.2,9.6
				s16.9,0.9,16.9,0.9s-1.2,13.2-3.6,26.5s-8.4,11.6-24.5,10.8s-33.3,5.2-40.1,10.8s-41.8,16.4-41.8,16.4s-7.6-31.7-8.4-34.9
				s-1.6-16.9-1.6-24.9s2.8-22.1,3.6-28.9s-18.1-8.8-18.9-5.6s-5.6,44.6-9.2,61s-1.6,37.3-2,52.6s4.8,22.1,11.2,21.3
				s27.3-2.8,47.8-4.4s39.3-12,39.3-12l2.8,0.4c0,0-10.8,16-9.6,26.5s8.8,17.7,11.2,20.5c2,2.6,3.7,5.5,5.2,8.4c0,0,2,12-1.6,16.5
				s-16,26.1-22.1,51c-4.7,19.5-3.3,45.3-2.4,55.6"/>
		</defs>
		<clipPath id="SVGID_2_">
			<use xlink:href="#SVGID_1_"  style="overflow:visible;"/>
		</clipPath>
		<g class="st4">
			<g class="st5">
				<path d="M157.8,242c-7.1-1.1-24,14.2-38.7,21.8s-27.8,5.5-36.5,4.4c-2.1-0.3-4.2-0.8-6.1-1.7c1.3,9.7,5.7,14.1,10.9,13.4
					c6.4-0.8,27.3-2.8,47.8-4.4s39.3-12,39.3-12l2.8,0.4c0,0-1.7,2.5-3.6,6.1c4-1.6,7.2-2.9,7.2-2.9S164.9,243.1,157.8,242z"/>
				<path d="M329.3,230.6c-7.1-6.9-19.2-10-30.4-11.7l0,0c-12.2-1.8-23.4-2.1-26.6-4c-6-3.6-6.4-8.4-2.4-23.7s17.3-29.3,18.9-41.7
					s-7.6-36.5-28.5-49s-35.7-5.2-35.7-5.2s-1.6,1.4-3.8,3.6c3,7.3,13.6,32.6,21.6,40.6c9.3,9.3,6.5,21.3-0.5,25.6
					s-36.1,8.9-36.1,8.9l39.4-0.2l12.5,29.4c0,0-16.9,26.7-7.1,39.3s42.5,25.1,61.1,4.4c2.4-2.8,4.3-6,5.8-9.4
					c12.3,12.4,27.6,27.8,38.9,39.4c17.6,18,29.1,29.3,33.2,38.1c3.4-1.5,6.2-3.5,7.4-5.9C399.8,303.5,344.1,245,329.3,230.6z"/>
				<path d="M293.2,328.9c-3.6-5.6,0-12,0-12c4.8-14.2,7.9-28.9,9.2-43.8c0.2,0.1,0.4,0.2,0.6,0.3c-7.9-6.3-19.8-15.3-20.9-13.5
					c-1.6,2.7,0.5,13.6,1.6,28.4s-12,34.9-4.4,49.6s32.7,32.2,43.1,62.2l0.4,1c-0.6-2.4-1.2-4.9-2-7.3
					C312.8,368.6,296.8,334.5,293.2,328.9z"/>
			</g>
		</g>
	</g>
	<path class="st2" d="M326.4,442.3c0.4-8.9,0.5-29.3-5.5-48.4c-8-25.3-24.1-59.4-27.7-65s0-12,0-12c4.8-14.2,7.9-28.9,9.2-43.8
		c0,0,2,0.8,7.6,6s56.2,36.2,64.2,37.9s20-2.3,22.8-7.9s-52.8-64.1-67.7-78.5s-51-12-57-15.6s-6.4-8.4-2.4-23.7s17.3-29.3,18.9-41.7
		s-7.6-36.5-28.5-49s-35.7-5.2-35.7-5.2s-11.6,10-13.2,17.7s-0.8,10.4-6,13.6c-5.2,3.2-13.2,2-12.4,4.8s2.8,9.6,6.8,10
		c0,0-5.6,5.2-4.4,7.6c0.7,1.5,1.1,3.1,1.2,4.8c0,0-1.2,3.2,0,5.6c0.8,1.6,1.4,3.2,2,4.8c0,0,1.2,8,7.2,9.6s16.9,0.9,16.9,0.9
		s-1.2,13.2-3.6,26.5s-8.4,11.6-24.5,10.8s-33.3,5.2-40.1,10.8s-41.8,16.4-41.8,16.4s-7.6-31.7-8.4-34.9s-1.6-16.9-1.6-24.9
		s2.8-22.1,3.6-28.9s-18.1-8.8-18.9-5.6s-5.6,44.6-9.2,61s-1.6,37.3-2,52.6s4.8,22.1,11.2,21.3s27.3-2.8,47.8-4.4s39.3-12,39.3-12
		l2.8,0.4c0,0-10.8,16-9.6,26.5s8.8,17.7,11.2,20.5c2,2.6,3.7,5.5,5.2,8.4c0,0,2,12-1.6,16.5s-16,26.1-22.1,51
		c-4.7,19.5-3.3,45.3-2.4,55.6"/>
	<path class="st6" d="M216.9,126.3l-2.6,1.9c0,0,3.2,6.4,11.8-0.3C226.1,127.9,220.1,128.2,216.9,126.3z"/>
	<path class="st7" d="M217.8,114.8c0,0,5.4-5.4,12.1,3.5"/>
	<path class="st8" d="M215.6,135.9c3.2-0.9,6.6-1.1,9.9-0.3"/>
	<path class="st8" d="M217.5,137.5c3.1-0.6,6.2-0.6,9.3,0"/>
	<line class="st2" x1="196.2" y1="219.7" x2="225.2" y2="225"/>
	<line class="st2" x1="261.7" y1="222.9" x2="238.1" y2="225"/>
	<polyline class="st2" points="288,263.2 302.4,273.1 285.9,268 	"/>
	<line class="st2" x1="174.4" y1="263.5" x2="159.7" y2="252.4"/>
	<path class="st2" d="M112.5,239.4c0,0-4.9,9.8-14.1,14.1"/>
	
		<rect x="184.6" y="140.5" transform="matrix(0.1373 -0.9905 0.9905 0.1373 19.4999 315.4647)" class="st9" width="12.4" height="12"/>
	<path class="st10" d="M180,125.6l-20.6-2.9c-0.2-0.2-0.5-0.3-0.8-0.3c-1.2-0.2-2.2,0.6-2.4,1.8l-0.2,1.3h-0.2l0.2-1.3
		c0.2-1.2-0.6-2.2-1.8-2.4c-1.2-0.2-2.2,0.6-2.4,1.8l-0.2,1.3h-0.2l0.2-1.3c0.2-1.1-0.6-2.2-1.8-2.4c0,0,0,0,0,0
		c-0.3,0-0.6,0-0.9,0.1l-30.2-4.2c-0.2-0.2-0.5-0.3-0.8-0.3c-1.1-0.2-2.2,0.6-2.4,1.8c0,0,0,0,0,0l-0.2,1.3h-0.2l0.2-1.3
		c0.2-1.1-0.6-2.2-1.7-2.4c-1.1-0.2-2.2,0.6-2.4,1.7c0,0,0,0.1,0,0.1l-0.2,1.3h-0.2l0.2-1.3c0.2-1.2-0.7-2.2-1.8-2.4l0,0
		c-0.3,0-0.6,0-0.8,0.1l-30.2-4.3c-4.2-0.6-8,2.3-8.6,6.5c0,0,0,0,0,0L66.4,141c-0.6,4.2,2.3,8,6.5,8.6l29.9,4.1
		c0.3,0.3,0.7,0.4,1.1,0.5l0,0c1.1,0.2,2.2-0.6,2.4-1.8c0,0,0,0,0,0l0.3-1.9h0.2l-0.3,1.9c-0.2,1.1,0.6,2.2,1.7,2.4
		c1.1,0.2,2.2-0.6,2.4-1.7c0,0,0-0.1,0-0.1l0.3-1.9h0.2l-0.3,1.9c-0.2,1.1,0.6,2.2,1.8,2.4c0,0,0,0,0,0c0.4,0.1,0.8,0,1.1-0.2
		l29.8,4.2c0.3,0.2,0.6,0.4,1,0.5c1.1,0.2,2.2-0.6,2.4-1.8c0,0,0,0,0,0l0.3-1.9h0.2l-0.3,1.9c-0.2,1.2,0.6,2.2,1.8,2.4
		c1.2,0.2,2.2-0.6,2.4-1.8l0,0l0.3-1.9h0.2l-0.3,1.9c-0.2,1.2,0.7,2.2,1.8,2.4c0.4,0.1,0.8,0,1.1-0.2l20.3,2.8
		c4.2,0.6,8-2.3,8.6-6.5c0,0,0,0,0,0l3.2-23.1C187,130,184.1,126.2,180,125.6z"/>
	<g>
		<defs>
			<path id="SVGID_3_" d="M180,125.6l-20.6-2.9c-0.2-0.2-0.5-0.3-0.8-0.3c-1.2-0.2-2.2,0.6-2.4,1.8l-0.2,1.3h-0.2l0.2-1.3
				c0.2-1.2-0.6-2.2-1.8-2.4c-1.2-0.2-2.2,0.6-2.4,1.8l-0.2,1.3h-0.2l0.2-1.3c0.2-1.1-0.6-2.2-1.8-2.4c0,0,0,0,0,0
				c-0.3,0-0.6,0-0.9,0.1l-30.2-4.2c-0.2-0.2-0.5-0.3-0.8-0.3c-1.1-0.2-2.2,0.6-2.4,1.8c0,0,0,0,0,0l-0.2,1.3h-0.2l0.2-1.3
				c0.2-1.1-0.6-2.2-1.7-2.4c-1.1-0.2-2.2,0.6-2.4,1.7c0,0,0,0.1,0,0.1l-0.2,1.3h-0.2l0.2-1.3c0.2-1.2-0.7-2.2-1.8-2.4l0,0
				c-0.3,0-0.6,0-0.8,0.1l-30.2-4.3c-4.2-0.6-8,2.3-8.6,6.5c0,0,0,0,0,0L66.4,141c-0.6,4.2,2.3,8,6.5,8.6l29.9,4.1
				c0.3,0.3,0.7,0.4,1.1,0.5l0,0c1.1,0.2,2.2-0.6,2.4-1.8c0,0,0,0,0,0l0.3-1.9h0.2l-0.3,1.9c-0.2,1.1,0.6,2.2,1.7,2.4
				c1.1,0.2,2.2-0.6,2.4-1.7c0,0,0-0.1,0-0.1l0.3-1.9h0.2l-0.3,1.9c-0.2,1.1,0.6,2.2,1.8,2.4c0,0,0,0,0,0c0.4,0.1,0.8,0,1.1-0.2
				l29.8,4.2c0.3,0.2,0.6,0.4,1,0.5c1.1,0.2,2.2-0.6,2.4-1.8c0,0,0,0,0,0l0.3-1.9h0.2l-0.3,1.9c-0.2,1.2,0.6,2.2,1.8,2.4
				c1.2,0.2,2.2-0.6,2.4-1.8l0,0l0.3-1.9h0.2l-0.3,1.9c-0.2,1.2,0.7,2.2,1.8,2.4c0.4,0.1,0.8,0,1.1-0.2l20.3,2.8
				c4.2,0.6,8-2.3,8.6-6.5c0,0,0,0,0,0l3.2-23.1C187,130,184.1,126.2,180,125.6z"/>
		</defs>
		<clipPath id="SVGID_4_">
			<use xlink:href="#SVGID_3_"  style="overflow:visible;"/>
		</clipPath>
		<g class="st11">
			<path class="st0" d="M67.6,139.4l71-17.3l37,5c4.5,0.6,7.7,4.7,7.1,9.2l-2.3,17.8c-0.6,4.5-4.7,7.7-9.2,7.1c-0.1,0-0.1,0-0.2,0
				l-94.1-14.3C72.7,146.2,69.1,143.4,67.6,139.4z"/>
			<path class="st2" d="M87.2,142.9c0,0,4.8-2.7,8-4.3s15.6-2.1,15.6-2.1l10.7-14.5"/>
			<line class="st2" x1="142" y1="128.4" x2="133.9" y2="147.2"/>
		</g>
	</g>
	<path class="st2" d="M180,125.6l-20.6-2.9c-0.2-0.2-0.5-0.3-0.8-0.3c-1.2-0.2-2.2,0.6-2.4,1.8l-0.2,1.3h-0.2l0.2-1.3
		c0.2-1.2-0.6-2.2-1.8-2.4c-1.2-0.2-2.2,0.6-2.4,1.8l-0.2,1.3h-0.2l0.2-1.3c0.2-1.1-0.6-2.2-1.8-2.4c0,0,0,0,0,0
		c-0.3,0-0.6,0-0.9,0.1l-30.2-4.2c-0.2-0.2-0.5-0.3-0.8-0.3c-1.1-0.2-2.2,0.6-2.4,1.8c0,0,0,0,0,0l-0.2,1.3h-0.2l0.2-1.3
		c0.2-1.1-0.6-2.2-1.7-2.4c-1.1-0.2-2.2,0.6-2.4,1.7c0,0,0,0.1,0,0.1l-0.2,1.3h-0.2l0.2-1.3c0.2-1.2-0.7-2.2-1.8-2.4l0,0
		c-0.3,0-0.6,0-0.8,0.1l-30.2-4.3c-4.2-0.6-8,2.3-8.6,6.5c0,0,0,0,0,0L66.4,141c-0.6,4.2,2.3,8,6.5,8.6l29.9,4.1
		c0.3,0.3,0.7,0.4,1.1,0.5l0,0c1.1,0.2,2.2-0.6,2.4-1.8c0,0,0,0,0,0l0.3-1.9h0.2l-0.3,1.9c-0.2,1.1,0.6,2.2,1.7,2.4
		c1.1,0.2,2.2-0.6,2.4-1.7c0,0,0-0.1,0-0.1l0.3-1.9h0.2l-0.3,1.9c-0.2,1.1,0.6,2.2,1.8,2.4c0,0,0,0,0,0c0.4,0.1,0.8,0,1.1-0.2
		l29.8,4.2c0.3,0.2,0.6,0.4,1,0.5c1.1,0.2,2.2-0.6,2.4-1.8c0,0,0,0,0,0l0.3-1.9h0.2l-0.3,1.9c-0.2,1.2,0.6,2.2,1.8,2.4
		c1.2,0.2,2.2-0.6,2.4-1.8l0,0l0.3-1.9h0.2l-0.3,1.9c-0.2,1.2,0.7,2.2,1.8,2.4c0.4,0.1,0.8,0,1.1-0.2l20.3,2.8
		c4.2,0.6,8-2.3,8.6-6.5c0,0,0,0,0,0l3.2-23.1C187,130,184.1,126.2,180,125.6z"/>
	<line class="st2" x1="155.9" y1="125.5" x2="151.5" y2="156.8"/>
	<line class="st2" x1="151.7" y1="124.9" x2="147.4" y2="156.2"/>
	<line class="st2" x1="115.2" y1="119.9" x2="110.9" y2="151.2"/>
	<line class="st2" x1="111.1" y1="119.3" x2="106.7" y2="150.6"/>
	<line class="st2" x1="188.2" y1="140.1" x2="186.5" y2="152.2"/>
	<line class="st2" x1="190.6" y1="140.4" x2="188.9" y2="152.5"/>
	<line class="st2" x1="193" y1="140.7" x2="191.3" y2="152.8"/>
	<path class="st6" d="M167.5,290.4c1.2,10.4,8.8,17.7,11.2,20.5c2,2.6,3.7,5.5,5.2,8.4c0.6,3.7,0.7,7.5,0.3,11.3
		c4.1,0.4,11.1,6.5,49.1,8c23.7,0.9,53-5.9,60.5-8.5c-0.2-0.5-0.5-0.8-0.7-1.1c-3.6-5.6,0-12,0-12c2.8-8.2,5.1-16.7,6.6-25.3
		c-5.5-0.1-22.1-1.7-28.7-16.1c-6.8-14.5,5.8-48.4,10-58.7c-4.2-0.5-7.3-1-8.8-1.9l-0.2-0.1c-2.8,9.7-11.1,36.8-18.7,46.3
		c-9.2,11.6-26.5,14.5-40.1,8.8s-16.5-17.3-14.9-25.3c1.3-6.4,11.4-25.8,15.5-33.6c-1.9,1.2-4.3,1.6-7.4,1.6l-29.4,51.3
		C177.2,263.9,166.3,279.9,167.5,290.4z"/>
	<path class="st12" d="M221.9,316.8c14.5,6,30.5,7.6,45.9,4.5"/>
	<path class="st12" d="M209.7,310c1.3,1,2.7,1.9,4.1,2.7"/>
	<path class="st13" d="M240,70.7c-4.4,0.2-8.8,1.4-12.7,3.4c-5.9,3.1-12.3,8.9-8.7,19.2c6,17.3,26.1,39.7,32.9,41.7
		c4.1,1.2,8.2,2.8,12,4.8c0,0,6,11.2-1.6,35.7s-16.5,36.5-9.2,53.8s30.9,27.7,58.6,21.3s35.3-22.5,30.1-40.9s-19.3-20.5-18.9-31.3
		s11.2-9.2,2.8-23.3s-17.5-12.8-17.5-20.4s6.3-24.1-1.4-37.4C299.2,84.8,270,68.6,240,70.7z"/>
	<g>
		<defs>
			<path id="SVGID_5_" d="M240,70.7c-4.4,0.2-8.8,1.4-12.7,3.4c-5.9,3.1-12.3,8.9-8.7,19.2c6,17.3,26.1,39.7,32.9,41.7
				c4.1,1.2,8.2,2.8,12,4.8c0,0,6,11.2-1.6,35.7s-16.5,36.5-9.2,53.8s30.9,27.7,58.6,21.3s35.3-22.5,30.1-40.9s-19.3-20.5-18.9-31.3
				s11.2-9.2,2.8-23.3s-17.5-12.8-17.5-20.4s6.3-24.1-1.4-37.4C299.2,84.8,270,68.6,240,70.7z"/>
		</defs>
		<clipPath id="SVGID_6_">
			<use xlink:href="#SVGID_5_"  style="overflow:visible;"/>
		</clipPath>
		<g class="st14">
			<path class="st12" d="M217.9,77.3c0,0,13.8,30.5,38.9,46s52.7,11.8,52.7,11.8"/>
			<path class="st12" d="M234.3,68.3c0,0,28.3,55.9,51.8,61.4c23.5,5.5,26,2.9,26,2.9"/>
			<path class="st12" d="M268.1,85.3c6.6,14.5,16.7,33.7,26,38.5c15.4,8,21.5,2.6,21.5,2.6"/>
			<path class="st12" d="M261,68.3c0,0,1.6,4.4,4.4,10.8"/>
			<path class="st12" d="M272.3,130.9c0,0,16.7,16.4,14.8,35.7s-11.5,27.2-14.8,48.3s10.3,36.2,26.3,35.6s13.5-19,3.2-21.5
				s-12.2,7.4-7.7,10.6s7.1-1.3,7.1-2.2"/>
			<path class="st12" d="M286.7,134.8c0,0,11.9,10.3,11.9,29.9s-5.8,22.8-3.2,34.1s17,8.4,23.1,22.5c6.1,14.1,2.6,25.1-3.9,29.9"/>
			<path class="st12" d="M298.9,135.8c0,0,15.8,11.2,18.6,26.4s-15.1,11.6-3.5,31.8s36.3,23.5,24.4,44.4"/>
		</g>
	</g>
	<path class="st2" d="M240,70.7c-4.4,0.2-8.8,1.4-12.7,3.4c-5.9,3.1-12.3,8.9-8.7,19.2c6,17.3,26.1,39.7,32.9,41.7
		c4.1,1.2,8.2,2.8,12,4.8c0,0,6,11.2-1.6,35.7s-16.5,36.5-9.2,53.8s30.9,27.7,58.6,21.3s35.3-22.5,30.1-40.9s-19.3-20.5-18.9-31.3
		s11.2-9.2,2.8-23.3s-17.5-12.8-17.5-20.4s6.3-24.1-1.4-37.4C299.2,84.8,270,68.6,240,70.7z"/>
	<path class="st6" d="M222.5,174.8c0,0-0.2,2.5-0.7,6.5L245,172L222.5,174.8z"/>
	<path class="st15" d="M326.4,442.3c0.4-8.9,0.5-29.3-5.5-48.4c-2.1-6.8-4.9-14.2-7.8-21.5c-10.3,4.4-33.8,12.5-72.9,15.1
		c-39.9,2.6-65-8.5-75.8-14.8c-1.5,4.5-2.9,9.2-4.1,14c-4.7,19.5-3.3,45.3-2.4,55.6"/>
	<line class="st2" x1="265" y1="378.9" x2="236" y2="428.1"/>
	<path class="st2" d="M177.5,373.6c0,0,4.7,18.2,15.5,33.6"/>
	<path class="st3" d="M362.3,302.7c0,0-35,47.1-41.1,47.5s-20.9-14.5-22.1-13.6s-21.3,26.9-24.5,30.9s4,0.8,4,0.8s-2.4,6.4,0,6.8
		s6.4-2.4,6.4-2.4s-0.8,5.6,1.6,4.8s7.2-4.8,7.2-4.8s-4.4,5.6-0.8,4.8s15.6-10,15.6-10s4.8,9.2,14.9,5.6s74.6-54.9,75-60.9
		s-11.2-18.3-11.2-18.3"/>
	<g>
		<defs>
			<path id="SVGID_7_" d="M362.3,302.7c0,0-35,47.1-41.1,47.5s-20.9-14.5-22.1-13.6s-21.3,26.9-24.5,30.9s4,0.8,4,0.8
				s-2.4,6.4,0,6.8s6.4-2.4,6.4-2.4s-0.8,5.6,1.6,4.8s7.2-4.8,7.2-4.8s-4.4,5.6-0.8,4.8s15.6-10,15.6-10s4.8,9.2,14.9,5.6
				s74.6-54.9,75-60.9s-11.2-18.3-11.2-18.3"/>
		</defs>
		<clipPath id="SVGID_8_">
			<use xlink:href="#SVGID_7_"  style="overflow:visible;"/>
		</clipPath>
		<g class="st16">
			<path class="st17" d="M398.7,312.1c0.4-6-12.3-19.6-12.3-19.6l-9.3,4l-1.2,0.6c0,0,9.9,6.5,4.5,17.4s-45.3,48-52.9,51.8
				s-13.1-2.2-17.5-1.6c-2.3,0.3-6.4,4.7-9.9,9c4.3-2.9,8.7-6.2,8.7-6.2s4.8,9.2,14.9,5.6S398.3,318.2,398.7,312.1z"/>
		</g>
	</g>
	<path class="st2" d="M362.3,302.7c0,0-35,47.1-41.1,47.5s-20.9-14.5-22.1-13.6s-21.3,26.9-24.5,30.9s4,0.8,4,0.8s-2.4,6.4,0,6.8
		s6.4-2.4,6.4-2.4s-0.8,5.6,1.6,4.8s7.2-4.8,7.2-4.8s-4.4,5.6-0.8,4.8s15.6-10,15.6-10s4.8,9.2,14.9,5.6s74.6-54.9,75-60.9
		s-11.2-18.3-11.2-18.3"/>
	<line class="st2" x1="294" y1="372.6" x2="306.4" y2="359.8"/>
	<line class="st2" x1="285.1" y1="372.6" x2="300.8" y2="355"/>
	<line class="st2" x1="278.7" y1="368.2" x2="295.6" y2="349"/>
	<path class="st18" d="M99.3,175.2c0,0,12-11.2,21.3-11.2s12.4,0,14-3.6s13.2-10,14.9-14s-7.2-3.2-12.4-0.4c-3,1.5-5.7,3.6-8,6
		c0,0-16.1-4.4-23.3-4.4s-12.4,9.6-12.8,14.4"/>
	<path class="st19" d="M252.6,142.3c0,0,6-19.3,12.8-14.8c6.8,4.4,5.6,16.9,0.4,22.5s-8,4.8-10.8,1.6"/>
	<path class="st9" d="M222.5,345.6c0,1-0.8,1.7-1.8,1.7s-1.7-0.8-1.7-1.8c0-0.9,0.8-1.7,1.7-1.7
		C221.7,343.8,222.5,344.6,222.5,345.6C222.5,345.6,222.5,345.6,222.5,345.6z"/>
</g>
</svg>
