<?xml version="1.0" standalone="no"?>
<!DOCTYPE svg PUBLIC "-//W3C//DTD SVG 20010904//EN"
 "http://www.w3.org/TR/2001/REC-SVG-20010904/DTD/svg10.dtd">
<svg version="1.0" xmlns="http://www.w3.org/2000/svg"
 width="156.000000pt" height="226.000000pt" viewBox="0 0 156.000000 226.000000"
 preserveAspectRatio="xMidYMid meet">

<g transform="translate(0.000000,226.000000) scale(0.100000,-0.100000)"
fill="#000000" stroke="none">
<path d="M0 1130 l0 -1130 780 0 780 0 0 1130 0 1130 -780 0 -780 0 0 -1130z
m890 867 l95 -55 3 -110 3 -111 82 -47 c130 -74 117 -29 117 -403 0 -305 1
-328 20 -358 23 -38 59 -63 103 -72 42 -9 43 -35 0 -39 -32 -3 -105 27 -119
50 -6 9 -42 -109 -44 -144 0 -14 63 -40 129 -52 48 -9 67 -17 69 -29 5 -25
-83 -23 -150 3 -29 11 -56 20 -60 20 -10 0 -59 -112 -54 -125 6 -16 127 -54
201 -63 47 -6 60 -11 63 -26 4 -17 -2 -18 -75 -14 -43 3 -105 15 -138 27 -33
12 -67 24 -75 27 -10 3 -29 -14 -52 -46 -21 -28 -38 -55 -38 -59 0 -12 106
-57 175 -75 34 -9 93 -18 133 -22 63 -6 72 -9 72 -27 0 -19 -5 -19 -87 -14
-104 7 -183 26 -271 68 l-64 31 -37 -34 c-58 -55 -102 -88 -115 -88 -7 0 -43
28 -80 61 l-67 62 -68 -32 c-90 -41 -210 -71 -288 -71 -55 0 -63 2 -63 19 0
15 11 19 72 25 88 8 172 29 246 62 31 13 58 26 60 29 2 2 -15 29 -39 60 -30
40 -47 54 -58 49 -77 -31 -138 -46 -203 -51 -72 -5 -78 -4 -78 13 0 17 12 21
84 31 67 9 186 46 186 58 0 1 -13 32 -30 68 l-29 65 -41 -20 c-22 -11 -70 -23
-105 -26 -61 -4 -65 -4 -65 17 0 16 6 21 28 21 38 0 134 28 150 45 11 10 12
24 2 71 -20 101 -18 99 -43 76 -46 -43 -137 -58 -137 -23 0 14 10 20 38 24 47
8 77 29 99 70 14 26 18 71 23 255 l5 223 90 52 90 53 3 215 c2 190 4 218 20
231 29 26 196 118 207 114 6 -2 53 -29 105 -59z"/>
<path d="M680 1952 l-65 -38 -3 -210 -2 -209 66 -37 c36 -21 70 -38 75 -38 4
0 8 128 9 285 0 157 -3 285 -7 285 -5 0 -37 -17 -73 -38z"/>
<path d="M800 1815 c0 -96 3 -175 8 -175 4 0 36 17 72 38 l65 38 3 96 3 96
-72 41 c-39 23 -73 41 -75 41 -2 0 -4 -79 -4 -175z"/>
<path d="M868 1619 l-68 -40 0 -323 c0 -178 5 -347 10 -377 13 -66 66 -183 80
-174 5 3 20 36 32 73 21 64 22 84 26 475 2 224 0 407 -5 407 -4 -1 -38 -19
-75 -41z"/>
<path d="M994 1647 c-3 -8 -4 -176 -2 -373 4 -403 6 -416 78 -496 l38 -43 12
43 c6 24 15 94 20 155 11 133 13 627 2 643 -4 5 -37 27 -75 48 -53 29 -68 34
-73 23z"/>
<path d="M477 1399 l-69 -41 4 -256 c4 -244 17 -362 39 -362 5 0 24 21 44 47
59 77 65 114 65 400 0 139 -3 253 -7 253 -5 -1 -39 -19 -76 -41z"/>
<path d="M612 1134 c4 -292 5 -312 27 -371 13 -35 26 -63 30 -63 5 0 23 33 42
73 l34 72 3 260 3 260 -71 39 -71 38 3 -308z"/>
<path d="M980 820 c-1 -6 -44 -130 -54 -153 -6 -13 3 -28 40 -62 27 -25 55
-44 63 -43 8 2 25 29 39 61 l25 58 -36 37 c-19 20 -44 53 -56 72 -12 19 -21
33 -21 30z"/>
<path d="M556 793 c-3 -10 -24 -38 -46 -62 -22 -24 -40 -50 -40 -57 0 -7 12
-38 26 -69 l26 -55 27 19 c14 11 39 33 54 49 l29 30 -28 81 c-28 82 -38 95
-48 64z"/>
<path d="M733 720 l-41 -79 36 -52 c21 -29 42 -54 48 -56 6 -2 28 21 49 51
l38 56 -39 79 c-21 44 -41 80 -44 80 -3 0 -24 -35 -47 -79z"/>
<path d="M602 552 l-54 -47 39 -52 c21 -29 43 -53 50 -53 6 0 33 19 59 43 l47
43 -39 57 c-21 31 -41 56 -44 56 -3 0 -29 -21 -58 -47z"/>
<path d="M859 553 c-19 -26 -37 -52 -42 -59 -4 -8 11 -27 44 -53 29 -23 55
-41 60 -41 4 0 26 24 48 52 l40 53 -52 47 c-29 26 -55 47 -58 48 -3 0 -21 -21
-40 -47z"/>
<path d="M745 422 c-17 -15 -42 -36 -55 -46 l-25 -17 50 -45 c27 -24 56 -44
65 -44 8 1 36 20 63 44 l47 42 -54 47 c-30 26 -56 47 -58 47 -2 0 -17 -13 -33
-28z"/>
</g>
</svg>
