<svg width="50" height="32" xmlns="http://www.w3.org/2000/svg"><path d="M49.059 14.072c-2.585-4.227-6.06-7.623-10.424-10.188C34.27 1.318 29.66.035 24.806.035c-4.854 0-9.464 1.283-13.829 3.849C6.612 6.449 3.137 9.845.554 14.072c-.37.646-.554 1.283-.554 1.91 0 .628.185 1.265.554 1.91 2.583 4.227 6.058 7.624 10.423 10.189 4.365 2.565 8.975 3.847 13.83 3.847 4.853 0 9.463-1.277 13.828-3.833 4.365-2.557 7.84-5.957 10.424-10.202.369-.646.553-1.283.553-1.91 0-.628-.184-1.265-.553-1.911zM18.867 6.5c1.652-1.652 3.631-2.478 5.939-2.478.369 0 .683.13.941.388.258.258.388.572.388.941 0 .37-.13.683-.387.941a1.28 1.28 0 01-.942.388c-1.587 0-2.944.563-4.07 1.689-1.126 1.126-1.688 2.482-1.688 4.07 0 .369-.13.683-.388.941a1.28 1.28 0 01-.941.388c-.37 0-.683-.13-.942-.388a1.282 1.282 0 01-.388-.942c0-2.306.827-4.286 2.478-5.938zm17.969 18.522c-3.701 2.242-7.71 3.364-12.03 3.364-4.319 0-8.329-1.121-12.03-3.364-3.7-2.243-6.777-5.256-9.232-9.04 2.805-4.356 6.321-7.614 10.548-9.773a12.099 12.099 0 00-1.689 6.23c0 3.414 1.214 6.334 3.64 8.762 2.428 2.427 5.349 3.64 8.763 3.64 3.415 0 6.335-1.213 8.762-3.64 2.428-2.427 3.641-5.348 3.641-8.763 0-2.233-.563-4.31-1.689-6.229 4.227 2.16 7.743 5.418 10.548 9.773-2.454 3.784-5.532 6.797-9.232 9.04z" fill="#9EABB2" fill-rule="nonzero"/></svg>