<svg width="16" height="16" xmlns="http://www.w3.org/2000/svg" xmlns:xlink="http://www.w3.org/1999/xlink" id="praise-consumption-small" data-supported-dps="16x16">
  <defs>
    <rect id="reactions-praise-consumption-small-a" x="1" y="1" width="14" height="14" rx="7"/>
  </defs>
  <g fill="none" fill-rule="evenodd">
    <rect width="16" height="16" rx="8"/>
    <mask id="reactions-praise-consumption-small-b" fill="#fff">
      <use xlink:href="#reactions-praise-consumption-small-a"/>
    </mask>
    <use fill="#D8D8D8" fill-rule="nonzero" xlink:href="#reactions-praise-consumption-small-a"/>
    <g mask="url(#reactions-praise-consumption-small-b)">
      <circle fill="#6DAE4F" cx="8" cy="8" r="7"/>
      <path d="M8 1a7 7 0 110 14A7 7 0 018 1zm0-1a8 8 0 100 16A8 8 0 008 0z" fill="#FFF" fill-rule="nonzero"/>
      <path d="M12.133 9.224a9 9 0 00-.36-2.32 4.24 4.24 0 01-1.33-1.86c-.16-.53-.27-.72-.74-.73a.72.72 0 00-.65.8c.006.24.026.481.06.72.137.655.33 1.298.58 1.92l-4.5-3.42a.75.75 0 00-1.11.07.72.72 0 00.27 1l2.25 1.7.59.56-3.57-2.71a.71.71 0 10-.85 1.12l2.25 1.7 1.35 1-2.92-2.19a.75.75 0 00-1.11.07c-.31.4-.06.81.26 1.06l2.25 1.69 1.13.85-2.25-1.7a.74.74 0 00-1.09 0 .75.75 0 00.24 1.09l4.1 3c.594.447 2.07.833 2.72.268" stroke="#165209" stroke-width="1.5" stroke-linecap="round" stroke-linejoin="round"/>
      <path d="M12.613 9.904l-.42-.37a6.91 6.91 0 00-.51-2.14 5.72 5.72 0 01-1.21-2.38c-.16-.53-.27-.72-.74-.73a.72.72 0 00-.65.8c.006.24.026.481.06.72.115.631.3 1.248.55 1.84l-.19-.11-4.31-3.31a.75.75 0 00-1.11.07.73.73 0 00.27 1.06l2.2 1.69.64.51-3.57-2.71a.75.75 0 00-1.11.06.74.74 0 00.26 1.06l2.25 1.7 1.35 1-2.92-2.18a.74.74 0 00-1.11.06.73.73 0 00.26 1.06l2.25 1.69 1.13.85-2.25-1.69a.72.72 0 00-1.09 0 .74.74 0 00.24 1.08l4.1 3.11a2.72 2.72 0 002.08.51c.538.312 1.008.312 1.41 0 .602-.469.404-.511.85-1.13a11.57 11.57 0 001.29-2.12z" fill="#DCF0CB"/>
      <path d="M12.133 9.224a9 9 0 00-.36-2.32 4.24 4.24 0 01-1.33-1.86c-.16-.53-.27-.72-.74-.73a.72.72 0 00-.65.8c.006.24.026.481.06.72.137.655.33 1.298.58 1.92l-4.5-3.42a.75.75 0 00-1.11.07.72.72 0 00.27 1l2.25 1.7.59.56-3.57-2.71a.71.71 0 10-.85 1.12l2.25 1.7 1.35 1-2.92-2.19a.75.75 0 00-1.11.07c-.31.4-.06.81.26 1.06l2.25 1.69 1.13.85-2.25-1.7a.74.74 0 00-1.09 0 .75.75 0 00.24 1.09l4.1 3c.594.447 1.986.742 2.72.62" stroke="#165209" stroke-width=".5" stroke-linecap="round" stroke-linejoin="round"/>
      <path d="M14.767 11.388a2.2 2.2 0 01-.46-.75c0-.22-.06-.43-.1-.65a2.39 2.39 0 00-.36-1.08 5.91 5.91 0 01-1.21-2.38c-.16-.53-.27-.72-.74-.73a.72.72 0 00-.65.8c.007.24.027.48.06.72.18.92.37 1.68.39 1.73l-4.29-3.21a.74.74 0 00-1.11.07.72.72 0 00.26 1l2.25 1.7.68.56-3.6-2.71a.74.74 0 00-1.11.06.73.73 0 00.26 1.06l2.25 1.7 1.35 1-2.93-2.19a.74.74 0 00-1.1.08c-.31.4-.07.81.26 1.06l2.25 1.68 1.12.85-2.29-1.7a.73.73 0 00-1 .04.74.74 0 00.2 1.07l4 3c.334.25.72.421 1.13.5l.58.09c.305.045.6.143.87.29a.83.83 0 00.6.05 3.82 3.82 0 001.77-1.29 3.71 3.71 0 00.7-2 .85.85 0 00-.03-.42h0z" stroke="#165209" stroke-width="1.5" stroke-linecap="round" stroke-linejoin="round"/>
      <path d="M14.807 11.338l-.45-.34a6.64 6.64 0 00-.51-2.14 5.85 5.85 0 01-1.21-2.38c-.16-.53-.27-.72-.74-.73a.72.72 0 00-.65.8c.007.24.027.48.06.72.18.93.37 1.69.39 1.73l-4.29-3.21a.75.75 0 00-1.11.07c-.31.41-.06.81.26 1.06l2.25 1.69.68.56-3.6-2.76a.75.75 0 00-1.11.07c-.31.4-.06.81.26 1.06l2.25 1.69 1.35 1-2.93-2.19a.74.74 0 00-1.1.07.72.72 0 00.26 1.06l2.25 1.69 1.12.85-2.29-1.69a.71.71 0 00-1 .04.73.73 0 00.2 1.11l4 3a4.2 4.2 0 002 .59 6 6 0 00.8.41 3.22 3.22 0 002-1.26 4.81 4.81 0 00.86-2.57z" fill="#DDF6D1"/>
      <path d="M5.137 10.318c.57.43 4.43 3.43 4.89 3.59.476.17.995.17 1.47 0a1.48 1.48 0 00.47-.31" opacity=".5"/>
      <path d="M14.767 11.388a2.2 2.2 0 01-.46-.75c0-.22-.06-.43-.1-.65a2.39 2.39 0 00-.36-1.08 5.91 5.91 0 01-1.21-2.38c-.16-.53-.27-.72-.74-.73a.72.72 0 00-.65.8c.007.24.027.48.06.72.18.92.37 1.68.39 1.73l-4.29-3.21a.74.74 0 00-1.11.07.72.72 0 00.26 1l2.25 1.7.68.56-3.6-2.71a.74.74 0 00-1.11.06.73.73 0 00.26 1.06l2.25 1.7 1.35 1-2.93-2.19a.74.74 0 00-1.1.08c-.31.4-.07.81.26 1.06l2.25 1.68 1.12.85-2.29-1.7a.73.73 0 00-1 .04.74.74 0 00.2 1.07l4 3c.334.25.72.421 1.13.5l.58.09c.305.045.6.143.87.29a.83.83 0 00.6.05 3.82 3.82 0 001.77-1.29 3.71 3.71 0 00.7-2 .85.85 0 00-.03-.42h0z" stroke="#165209" stroke-width=".5" stroke-linecap="round" stroke-linejoin="round"/>
      <path d="M8.829 2.818l-.73.92M5.494 1.625l.065 1.193M7.538 1.633l-.649 1.56" stroke="#165209" stroke-linecap="round" stroke-linejoin="round"/>
    </g>
  </g>
</svg>
