<svg xmlns="http://www.w3.org/2000/svg" viewBox="0 0 24 24" data-supported-dps="24x24" fill="#e7a33e" class="mercado-match" width="24" height="24" focusable="false">
  <path d="M3 3v15a3 3 0 003 3h12a3 3 0 003-3V3zm13 1.75A1.25 1.25 0 1114.75 6 1.25 1.25 0 0116 4.75zm-8 0A1.25 1.25 0 116.75 6 1.25 1.25 0 018 4.75zM19 18a1 1 0 01-1 1H6a1 1 0 01-1-1V9h14zm-5.9-3a1 1 0 00-1-1H12a3.12 3.12 0 00-1 .2l-1-.2v-3h3.9v1H11v1.15a3.7 3.7 0 011.05-.15 1.89 1.89 0 012 1.78V15a1.92 1.92 0 01-1.84 2H12a1.88 1.88 0 01-2-1.75 1 1 0 010-.25h1a.89.89 0 001 1h.1a.94.94 0 001-.88z"></path>
</svg>