<svg id="hero-learning-home" xmlns="http://www.w3.org/2000/svg" width="340" height="272" viewBox="0 0 340 272">
  <g>
    <path d="M169.83,3.4A166.767,166.767,0,0,1,336.6,170.17H169.83Z" style="fill: #fbf1e2"/>
    <g>
      <path d="M50.859,127.628c16.8-9.11,38.074-2.888,51.887-8.171,17.072-7.695,44.505-9.116,56.581-2.325,0,0-.017,5.031-.158,10.5H169.83V3.4A166.835,166.835,0,0,0,8.542,127.628Z" style="fill: #edf3f4"/>
      <path d="M3.651,156.107q-.58,6.954-.588,14.063H18.206a215.949,215.949,0,0,1,25.109-5.421C81.388,158.58,50.479,154.193,3.651,156.107Z" style="fill: #8ebcbb"/>
      <path d="M22.8,139.2c-.78-5.464,21.124-9.1,28.056-11.571H8.542A165.966,165.966,0,0,0,4.131,151.2c16.394-.936,31.46-1.49,43.236-1.8C33.262,145.887,23.247,142.315,22.8,139.2Z" style="fill: #8ebcbb"/>
      <path d="M158.1,141.147,144.3,166.767s-16-2.217-36.4-5.564c.58,3.573-3.5,6.892-12.139,8.252-1.494.235-2.924.474-4.3.715H169.83V127.628H159.169C159.013,133.686,158.7,140.279,158.1,141.147Z" style="fill: #8ebcbb"/>
      <path d="M22.8,139.2c.444,3.116,10.459,6.688,24.564,10.206,11.708-.306,20.163-.368,23.424-.322,23.953.337,36.213,6.54,37.117,12.12,20.392,3.347,36.4,5.564,36.4,5.564l13.792-25.62c1.012-.594,1.276-22.759,1.231-24.015-12.152-6.839-39.712-5.3-56.581,2.325-13.81,5.282-35.086-.939-51.887,8.171C43.927,130.1,22.023,133.735,22.8,139.2Z" style="fill: #d6cec2"/>
      <path d="M107.908,161.2c-.9-5.58-13.164-11.783-37.117-12.12-3.261-.046-11.716.016-23.424.322-11.776.307-26.842.861-43.236,1.8q-.276,2.442-.48,4.905c46.828-1.914,77.737,2.473,39.664,8.642a215.949,215.949,0,0,0-25.109,5.421H91.465c1.38-.241,2.81-.48,4.3-.715C104.412,168.1,108.488,164.776,107.908,161.2Z" style="fill: #f3dfc1"/>
    </g>
    <g>
      <path d="M309.369,170.17v61.637A83.165,83.165,0,0,0,336.6,170.17Z" style="fill: #fce2ba"/>
      <path d="M282.142,170.17V248.4a83.344,83.344,0,0,0,27.227-16.588V170.17Z" style="fill: #fbf1e2"/>
      <path d="M254.915,253.532a83.11,83.11,0,0,0,27.227-5.137V170.17H254.915Z" style="fill: #fce2ba"/>
      <path d="M227.688,170.17v79.4a83.264,83.264,0,0,0,27.227,3.964V170.17Z" style="fill: #fbf1e2"/>
      <path d="M200.46,170.17v64.569a83.209,83.209,0,0,0,27.228,14.829v-79.4Z" style="fill: #fce2ba"/>
      <path d="M173.233,170.17v40.59a58.3,58.3,0,0,1,16.419,13.375,83.946,83.946,0,0,0,10.808,10.6V170.17Z" style="fill: #fbf1e2"/>
      <path d="M146.006,170.17v33.368a58.752,58.752,0,0,1,27.227,7.222V170.17Z" style="fill: #fbf1e2"/>
      <path d="M118.779,170.17v33.354h26.195c.345,0,.688.008,1.032.014V170.17Z" style="fill: #fce2ba"/>
      <rect x="91.552" y="170.17" width="27.227" height="33.353" style="fill: #fbf1e2"/>
      <rect x="64.324" y="170.17" width="27.227" height="33.353" style="fill: #fce2ba"/>
      <rect x="37.097" y="170.17" width="27.227" height="33.353" style="fill: #fce2ba"/>
      <path d="M9.87,170.17v20.192A33.372,33.372,0,0,0,37.1,203.524V170.17Z" style="fill: #fbf1e2"/>
      <path d="M3.063,170.17h0A33.2,33.2,0,0,0,9.87,190.362V170.17Z" style="fill: #fce2ba"/>
    </g>
    <g>
      <rect x="302.563" width="37.437" height="42.202" style="fill: #e9e5df"/>
      <path d="M330.811,6.563V31.652H319.239V27.568h-4.162C313.219,22.5,311.088,17,309.231,11.93,309.231,11.93,316.461,6.563,330.811,6.563Z" style="fill: #b4c6d8"/>
      <rect x="318.899" y="27.568" width="11.912" height="4.084" style="fill: #74899f"/>
      <polygon points="330.803 22.803 330.803 24.505 313.808 24.505 313.17 22.803 330.803 22.803" style="fill: #3b444f"/>
      <polygon points="330.803 18.422 330.803 20.08 312.173 20.08 311.531 18.422 330.803 18.422" style="fill: #3b444f"/>
      <polygon points="330.803 13.954 330.803 15.656 310.534 15.656 309.892 13.954 330.803 13.954" style="fill: #3b444f"/>
      <rect x="318.899" y="29.61" width="11.912" height="2.042" style="fill: #3b444f"/>
      <rect x="310.731" y="31.652" width="20.08" height="4.084" style="fill: #fff"/>
    </g>
    <g>
      <g>
        <rect x="168.128" y="166.767" width="171.872" height="3.403" style="fill: #fff"/>
        <rect x="168.128" y="112.312" width="171.872" height="3.403" style="fill: #fff"/>
        <rect x="168.128" y="56.156" width="117.417" height="3.403" style="fill: #fff"/>
        <rect x="168.128" width="117.417" height="3.403" style="fill: #fff"/>
      </g>
      <g>
        <rect x="84.745" y="83.383" width="170.17" height="3.403" transform="translate(254.915 -84.745) rotate(90)" style="fill: #fff"/>
        <rect x="140.901" y="83.383" width="170.17" height="3.403" transform="translate(311.071 -140.901) rotate(90)" style="fill: #fff"/>
        <rect x="198.759" y="83.383" width="170.17" height="3.403" transform="translate(368.929 -198.759) rotate(90)" style="fill: #fff"/>
        <rect x="309.369" y="139.54" width="57.858" height="3.403" transform="translate(479.54 -197.057) rotate(90)" style="fill: #fff"/>
      </g>
    </g>
    <g>
      <g>
        <rect x="219.86" y="17.017" width="5.105" height="39.139" transform="translate(444.825 73.173) rotate(180)" style="fill: #c66f53"/>
        <rect x="209.309" y="28.929" width="8.168" height="27.227" transform="translate(426.787 85.085) rotate(180)" style="fill: #fff"/>
        <rect x="215.776" y="24.164" width="4.084" height="31.992" transform="translate(435.636 80.32) rotate(180)" style="fill: #f5cea9"/>
      </g>
      <g>
        <rect x="227.688" y="80.32" width="5.786" height="31.992" style="fill: #5998c5"/>
        <rect x="236.196" y="85.085" width="8.168" height="27.227" style="fill: #dbe7e9"/>
        <rect x="232.793" y="80.32" width="4.424" height="31.992" style="fill: #7cb8dd"/>
        <rect x="246.036" y="84.639" width="3.403" height="27.227" transform="translate(-10.127 30.924) rotate(-7)" style="fill: #d3b291"/>
        <rect x="249.402" y="90.567" width="2.022" height="21.354" transform="translate(-10.472 31.272) rotate(-7)" style="fill: #f5987e"/>
      </g>
      <g>
        <rect x="185.485" y="52.753" width="23.824" height="3.403" transform="translate(394.795 108.909) rotate(180)" style="fill: #3b444f"/>
        <rect x="185.485" y="49.69" width="23.824" height="3.063" transform="translate(394.795 102.442) rotate(180)" style="fill: #7b9370"/>
      </g>
      <g>
        <rect x="257.297" y="94.577" width="18.378" height="7.147" transform="translate(532.973 196.301) rotate(180)" style="fill: #0d2135"/>
        <rect x="261.381" y="98.358" width="10.21" height="3.403" transform="translate(532.973 200.12) rotate(180)" style="fill: #697171"/>
        <path d="M270.211,69.429h-7.185L259.434,82l3.592,12.574h7.185L273.8,82Z" style="fill: #edb665"/>
        <polygon points="263.026 69.429 259.434 82.003 263.026 94.577 263.033 94.577 270.191 69.429 263.026 69.429" style="fill: #f8c77e"/>
      </g>
      <g>
        <path d="M330.313,152.213a14.527,14.527,0,0,1-14.526,14.526H304.5A14.523,14.523,0,0,1,293.981,142.2,10.681,10.681,0,0,0,295.7,130.9a11.15,11.15,0,0,1,10.243-15.446h8.4A11.169,11.169,0,0,1,324.586,130.9a10.667,10.667,0,0,0,1.79,11.377A14.456,14.456,0,0,1,330.313,152.213Z" style="fill: #db8a73"/>
        <path d="M324.245,130.856c-.007.015-.015.035-.023.05.008-.015.012-.035.02-.05Z" style="fill: #b57865"/>
        <path d="M295.334,130.938l-.024-.051h0C295.322,130.9,295.326,130.922,295.334,130.938Z" style="fill: #b57865"/>
        <polygon points="313.453 129.329 306.647 129.329 308.008 79.64 312.092 79.64 313.453 129.329" style="fill: #3b444f"/>
        <path d="M314.815,131.712a4.935,4.935,0,1,1-4.935-4.935A4.936,4.936,0,0,1,314.815,131.712Z" style="fill: #0d2135"/>
        <rect x="300.861" y="149.069" width="18.378" height="3.062" style="fill: #303a45"/>
        <g>
          <path d="M314.815,56.837l-.02,17.738a5.6,5.6,0,0,0-2.7,5.065h-4.084a5.658,5.658,0,0,0-2.723-5.075l.019-17.728Z" style="fill: #db8a73"/>
          <g>
            <path d="M312.306,60.581a1.155,1.155,0,0,0-1.235,1.147V72.366a1.192,1.192,0,0,0,2.382,0V61.728A1.147,1.147,0,0,0,312.306,60.581Z" style="fill: #fff"/>
            <rect x="314.815" y="69.429" width="1.361" height="2.042" rx="0.468" transform="translate(630.991 140.901) rotate(-180)" style="fill: #0d2135"/>
            <rect x="311.071" y="69.77" width="2.382" height="1.021" transform="matrix(-1, 0, 0, -1, 624.522, 140.573)" style="fill: #3b444f"/>
            <rect x="314.815" y="66.026" width="1.361" height="2.042" rx="0.468" transform="translate(630.991 134.095) rotate(-180)" style="fill: #0d2135"/>
            <rect x="311.071" y="66.366" width="2.382" height="1.021" transform="translate(624.522 133.766) rotate(-179.998)" style="fill: #3b444f"/>
            <rect x="314.815" y="62.623" width="1.361" height="2.042" rx="0.468" transform="translate(630.991 127.288) rotate(-180)" style="fill: #0d2135"/>
            <rect x="311.071" y="62.963" width="2.382" height="1.021" transform="translate(624.522 126.959) rotate(-179.998)" style="fill: #3b444f"/>
          </g>
          <g>
            <path d="M307.8,60.581a1.154,1.154,0,0,1,1.234,1.147V72.366a1.192,1.192,0,0,1-2.382,0V61.728A1.147,1.147,0,0,1,307.8,60.581Z" style="fill: #fff"/>
            <rect x="303.924" y="69.429" width="1.361" height="2.042" rx="0.468" style="fill: #0d2135"/>
            <rect x="306.647" y="69.77" width="2.382" height="1.021" style="fill: #3b444f"/>
            <rect x="303.924" y="66.026" width="1.361" height="2.042" rx="0.468" style="fill: #0d2135"/>
            <rect x="306.647" y="66.366" width="2.382" height="1.021" style="fill: #3b444f"/>
            <rect x="303.924" y="62.623" width="1.361" height="2.042" rx="0.468" style="fill: #0d2135"/>
            <rect x="306.647" y="62.963" width="2.382" height="1.021" style="fill: #3b444f"/>
          </g>
        </g>
        <g>
          <rect x="308.348" y="79.64" width="0.34" height="69.429" style="fill: #fff"/>
          <rect x="309.369" y="79.64" width="0.34" height="69.429" style="fill: #fff"/>
          <rect x="310.39" y="79.64" width="0.34" height="69.429" style="fill: #fff"/>
          <rect x="311.411" y="79.64" width="0.34" height="69.429" style="fill: #fff"/>
        </g>
      </g>
      <g>
        <g>
          <rect x="188.549" y="76.917" width="11.912" height="35.395" style="fill: #a8baac"/>
          <g>
            <path d="M197.057,102.272a2.553,2.553,0,1,1-2.552-2.552A2.553,2.553,0,0,1,197.057,102.272Z" style="fill: #6e6558"/>
            <path d="M194.505,100.571a1.7,1.7,0,0,1,0,3.4,1.7,1.7,0,0,1,0-3.4m0-.851a2.553,2.553,0,1,0,2.552,2.552,2.553,2.553,0,0,0-2.552-2.552Z" style="fill: #fff"/>
          </g>
        </g>
        <g>
          <rect x="200.46" y="76.917" width="11.912" height="35.395" style="fill: #7b9370"/>
          <g>
            <path d="M208.969,102.272a2.553,2.553,0,1,1-2.553-2.552A2.553,2.553,0,0,1,208.969,102.272Z" style="fill: #6e6558"/>
            <path d="M206.416,100.571a1.7,1.7,0,0,1,0,3.4,1.7,1.7,0,0,1,0-3.4m0-.851a2.553,2.553,0,1,0,2.553,2.552,2.553,2.553,0,0,0-2.553-2.552Z" style="fill: #fff"/>
          </g>
        </g>
        <g>
          <rect x="212.372" y="76.917" width="11.912" height="35.395" style="fill: #124a53"/>
          <g>
            <path d="M220.881,102.272a2.553,2.553,0,1,1-2.553-2.552A2.553,2.553,0,0,1,220.881,102.272Z" style="fill: #6e6558"/>
            <path d="M218.328,100.571a1.7,1.7,0,0,1,0,3.4,1.7,1.7,0,0,1,0-3.4m0-.851a2.553,2.553,0,1,0,2.553,2.552,2.553,2.553,0,0,0-2.553-2.552Z" style="fill: #fff"/>
          </g>
        </g>
      </g>
      <rect x="285.546" y="80.32" width="5.786" height="31.992" style="fill: #7b9370"/>
      <rect x="275.335" y="141.582" width="3.403" height="25.185" style="fill: #f8c77e"/>
      <rect x="270.917" y="141.485" width="3.403" height="25.185" transform="translate(13.39 -21.597) rotate(4.651)" style="fill: #d6cec2"/>
      <rect x="266.486" y="148.388" width="3.403" height="18.378" style="fill: #f5987e"/>
      <rect x="278.739" y="141.582" width="3.403" height="25.185" style="fill: #5998c5"/>
      <rect x="290.991" y="80.32" width="5.786" height="31.992" style="fill: #424435"/>
      <g>
        <rect x="171.532" y="119.459" width="47.307" height="47.307" style="fill: #a59384"/>
        <path d="M185.854,143.764V145.5a2.17,2.17,0,1,1-4.34,0v-1.736h-8.68v21.7h21.7v-21.7Z" style="fill: #f5cea9;fill-rule: evenodd"/>
        <path d="M209.074,143.764V145.5a2.171,2.171,0,0,1-4.341,0v-1.736h-8.68v21.7h21.7v-21.7Z" style="fill: #f5cea9;fill-rule: evenodd"/>
        <path d="M197.355,120.761V122.5a2.17,2.17,0,1,1-4.34,0v-1.737H172.834v21.7h44.92v-21.7Z" style="fill: #f5cea9;fill-rule: evenodd"/>
      </g>
      <g>
        <polygon points="258.372 137.223 230.441 137.117 235.862 116.985 253.105 117.051 258.372 137.223" style="fill: #fce2ba"/>
        <path d="M251.6,155.536l-14.516-.056c-5.046-11.246,5.288-12.851,6.053-18.316l2.544.01C246.4,142.644,256.726,144.328,251.6,155.536Z" style="fill: #e16745"/>
      </g>
      <g>
        <polygon points="259.37 155.536 227.688 155.536 227.688 166.767 259.37 166.767 259.37 155.536 259.37 155.536" style="fill: #a59384;fill-rule: evenodd"/>
        <path d="M233.822,156.9a4.256,4.256,0,1,1-4.255,4.255A4.258,4.258,0,0,1,233.822,156.9Z" style="fill: #edf3f4;fill-rule: evenodd"/>
        <path d="M232.155,161.151a.383.383,0,0,0-.38-.381h-1.269a.381.381,0,1,0,0,.762h1.269a.383.383,0,0,0,.38-.381Z" style="fill: #0d2135;fill-rule: evenodd"/>
        <path d="M251.286,164.869a4.255,4.255,0,1,1,5.787-1.65,4.257,4.257,0,0,1-5.787,1.65Z" style="fill: #edf3f4;fill-rule: evenodd"/>
        <path d="M254.812,161.961a.383.383,0,0,0,.147.518l1.109.617a.381.381,0,1,0,.37-.665l-1.109-.618a.382.382,0,0,0-.517.148Z" style="fill: #0d2135;fill-rule: evenodd"/>
        <path d="M247.563,159.8a4.255,4.255,0,1,1-5.386-2.682,4.257,4.257,0,0,1,5.386,2.682Z" style="fill: #edf3f4;fill-rule: evenodd"/>
        <path d="M243,159.571a.384.384,0,0,0,.24-.483c-.115-.344-.288-.858-.4-1.2a.381.381,0,0,0-.722.242c.115.344.288.859.4,1.2a.384.384,0,0,0,.482.24Z" style="fill: #0d2135;fill-rule: evenodd"/>
      </g>
      <g>
        <path d="M186.434,44.925h13.419a.948.948,0,0,1,.948.948V49.69a0,0,0,0,1,0,0H185.485a0,0,0,0,1,0,0V45.873A.948.948,0,0,1,186.434,44.925Z" style="fill: #9db3c8"/>
        <path d="M204.154,37.807a.509.509,0,0,0-.722,0c-13.87,12.764-32.832-6.216-20.073-20.073a.511.511,0,0,0-.722-.722c-9.413,9.358-2.859,25.635,10.271,25.954v2.1H194.1v-2.11a15.154,15.154,0,0,0,10.058-4.432A.511.511,0,0,0,204.154,37.807Z" style="fill: #9db3c8"/>
        <g>
          <path d="M206.927,27.761A13.426,13.426,0,0,0,193.5,14.336c-17.808.707-17.8,26.145,0,26.85A13.426,13.426,0,0,0,206.927,27.761Z" style="fill: #7b9370"/>
          <path d="M183.5,21.218a6.611,6.611,0,0,1,2.65-2.052c1.084-.321,2.532.33,2.529,1.461a2.771,2.771,0,0,1-.62,1.466,56.475,56.475,0,0,0-4.621,8.327c-.368.82-.663,1.919.018,2.506,1.341,1.045,2.922-1.069,4.336-.586a1.95,1.95,0,0,1,1.125,1.357c.174.586.194,1.206.326,1.8a5.128,5.128,0,0,0,6.058,3.7,10.382,10.382,0,0,1,1.678-.444c.854-.122,1.841.544,1.536,1.453a13.431,13.431,0,0,0,3.536-2.1A2.68,2.68,0,0,1,201.973,35c.775-.925,1.887-.995,2.572-1.99,1.353-1.968.966-3.357,0-3.744-1.7-.68-9.464,2.656-9.53-.68-.013-.634,1.326-1.5,1.237-2.128-.1-.676-1.754-1.474-2.921-1.614A2.033,2.033,0,0,1,191.5,23c-.15-2.517,4.747-1.867,6.68-3.726a4.562,4.562,0,0,1,5.173-.634C196.5,11.1,183.707,14,180.716,23.665A22.132,22.132,0,0,0,183.5,21.218Z" style="fill: #e8f3ff"/>
        </g>
      </g>
      <rect x="257.297" y="101.762" width="18.378" height="10.551" style="fill: #f5cea9"/>
      <g>
        <path d="M233.814,50.065a11.929,11.929,0,0,0,2,6.1h27.346a1.03,1.03,0,1,0-.007-2.051h-2.392a4.864,4.864,0,0,0-1.651-3.592l2.7-1.1a1.84,1.84,0,0,0,.714-1.781s-1.008-.1-1.032-1.425c0,0,.376-1.685-.691-2.468l-.4-.278c-1.117-.8-1.15-1.79-1.485-3.168-1.88.811-1.453,2.05-3.581,2.961-1.83.783-2.836,3.9-4.959,4.173s-4.795-1.429-6.5-1.429c-1.278,0-2.7-.174-6.039,1.583a11.5,11.5,0,0,1,2.027-2.55c1.147-1.128,2.582-2.244,2.987-3.958a4.545,4.545,0,0,0-5.708-5.475,4.381,4.381,0,0,0-2.673,2.406.919.919,0,0,0,1.658.789,2.418,2.418,0,0,1,1.583-1.247,2.27,2.27,0,0,1,2.724,2.854c-.418,1.123-1.586,1.755-2.475,2.58C235.948,44.637,233.871,47.52,233.814,50.065Z" style="fill: #b5776d"/>
        <path d="M266.146,53.263a2.553,2.553,0,1,0,2.553-2.552A2.553,2.553,0,0,0,266.146,53.263Z" style="fill: #f5987e"/>
      </g>
    </g>
    <path d="M75.547,73.51a9.736,9.736,0,0,0-11.919-9.73,3.818,3.818,0,0,1-3.88-1.346,14.054,14.054,0,0,0-11.1-5.419c-2.447.106-5.269.961-7.014-1.316A15.848,15.848,0,0,0,15.02,59.4a5.65,5.65,0,0,1-5.231,3.359A9.712,9.712,0,0,0,.065,73.514H75.544Z" style="fill: #fff"/>
    <path d="M80.666,57.856a5.922,5.922,0,0,1,7.248-5.923,2.321,2.321,0,0,0,2.359-.819,8.544,8.544,0,0,1,6.752-3.3c1.489.065,3.2.585,4.265-.8a9.634,9.634,0,0,1,16.183,2.254,3.435,3.435,0,0,0,3.181,2.045,5.909,5.909,0,0,1,5.913,6.545h-45.9Z" style="fill: #fff"/>
    <path d="M82.706,90.189c-.1-1.46,2.262-2.6,4.617-2.256a2.111,2.111,0,0,0,1.5-.312,7.214,7.214,0,0,1,4.3-1.257c.949.025,2.042.223,2.718-.305a8.255,8.255,0,0,1,4.7-1.314c2.5,0,4.648.892,5.6,2.173a2.555,2.555,0,0,0,2.027.779c2.233-.02,4.027,1.169,3.767,2.493H82.706Z" style="fill: #fff"/>
    <g>
      <g>
        <g>
          <g>
            <polygon points="74.19 231.84 86.474 231.84 86.474 249.835 72.322 249.835 74.19 231.84" style="fill: #61382d"/>
            <path d="M54.433,262.119H83.915a4.913,4.913,0,0,0,4.913-4.913H49.52A4.913,4.913,0,0,0,54.433,262.119Z" style="fill: #d7a38f"/>
            <path d="M88.828,257.206H49.52s-.149-2.935,5.445-4.265c6.523-1.542,15.574-4.11,18.15-11.142a6.868,6.868,0,0,1,5.988,5.579h7.371Z" style="fill: #f5cea9"/>
            <path d="M77.226,250.179c-.86-3.918-6.682-4.414-7.182-4.494-.332-.138-3.89-1.816-6.63-1.1-4.043,1.223-3.3,5.285.673,5.469,2.534,0,4.947-2.36,5.733-3.207.228,1.1.978,4.084,2.651,5.517C74.61,254.293,77.886,253.536,77.226,250.179Zm-14.146-1.55c-1.794-.691-1.373-2.225.668-2.858,1.5-.424,3.649.21,4.8.631C67.291,247.647,64.939,249.415,63.08,248.629Zm12.534,3.425a2.247,2.247,0,0,1-2.344-.619c-1.186-1.016-1.847-3.155-2.136-4.347,1.735.358,4.51,1.336,4.885,3.319C76.109,250.882,76.176,251.728,75.614,252.054Z" style="fill: #d7a38f"/>
          </g>
          <g>
            <polygon points="52.435 206.655 64.256 209.994 59.364 227.312 45.746 223.464 52.435 206.655" style="fill: #61382d"/>
            <path d="M25.191,230.422l28.371,8.015a4.913,4.913,0,0,0,6.064-3.392L21.8,224.358A4.913,4.913,0,0,0,25.191,230.422Z" style="fill: #d7a38f"/>
            <path d="M59.626,235.045,21.8,224.358s.655-2.865,6.4-2.624c6.7.29,16.1.279,20.495-5.787a6.865,6.865,0,0,1,4.246,7l7.093,2Z" style="fill: #f5cea9"/>
            <path d="M46.749,218.884c.284-1.111-4.354-3.1-5.672-3.293-2.981-.7-6.574,2.914-3,4.87a5.572,5.572,0,0,0,1.528.548c-1.784,2.071-1.283,6.112,2.191,4.944C44.826,224.872,46.747,221.013,46.749,218.884Zm-8.857-.794a2.777,2.777,0,0,1,2.917-1.3,14.1,14.1,0,0,1,3.9,1.612,17.268,17.268,0,0,0-3.688,1.524,4.85,4.85,0,0,1-2.6-.688C37.626,218.729,37.827,218.248,37.892,218.09Zm3.246,6.772c-2.092.553-1.395-2.722-.165-3.438.143-.1.291-.194.442-.286a10.805,10.805,0,0,0,3.882-.957C44.777,221.708,43.4,224.267,41.138,224.862Z" style="fill: #d7a38f"/>
          </g>
          <g>
            <path d="M156.428,168.217c-4.857,21.994-14.9,25.323-25.045,25.664l-33.2-.195a5.575,5.575,0,0,0-5.606,5.405l-3.748,38.066H67.9l2.078-55.341c-.692-10.389.972-28.17.972-28.17Z" style="fill: #424435;fill-rule: evenodd"/>
            <path d="M65.315,157.462,51.52,208.043l17.485,6.8,3.167-38.794a5.353,5.353,0,0,1,8.19-4.093l37.211,23.459,21.834.309c12.168.392,23.6-5.465,27.36-17.045l1.7-18.209-23.653,2.961L82.544,147.584A14.063,14.063,0,0,0,65.315,157.462Z" style="fill: #666850;fill-rule: evenodd"/>
          </g>
        </g>
        <polygon points="157.414 103.191 130.867 126.675 131.116 144.669 164.561 132.801 157.414 103.191" style="fill: #102325"/>
        <path d="M117.8,149.932a14.715,14.715,0,0,1,.706-5.434l10.317-31.908c1.036-3.5-.125-6.525.345-10.238l.782-6.615c.216-1.5,2.029-2.156,2.576-.851-.249-2.424,1.9-3.369,2.806-2.025a1.672,1.672,0,0,1,3.323-.186c.393-1.9,2.956-1.858,3.076-.117l.205,2.913a1.968,1.968,0,0,1,1.644-.887.933.933,0,0,1,.771,1.344,19.956,19.956,0,0,0-1.325,3.365l-.723,4.454-2.786,4.243a7.255,7.255,0,0,0-1.163,3.349l-3.4,38.819Z" style="fill: #553129"/>
        <g>
          <path d="M171.191,84.745a22.286,22.286,0,0,1,.914-5.305h0a28.829,28.829,0,0,0,1.306-6.341,16.022,16.022,0,0,0-31.522-4.054l-1.7.47,1.256,5.182h0c.038.382.093.76.157,1.134h0a16.468,16.468,0,0,1-.465,7.089c-.268.772-.569,1.848.674,2.486a1.894,1.894,0,0,1,1.04,1.21l1.413,4.1c.939,2.888,2.519,4.232,5.476,3.562,2.683-.614,4.67-1.025,5.544-1.211a14.084,14.084,0,0,1-.769,6.609l17.92-6.248C171.842,92.293,171.532,88.911,171.191,84.745Z" style="fill: #61382d"/>
          <path d="M140.192,69.514c1.748-.488,4.171-1.169,5.941-1.586l1.046,2.829a6.4,6.4,0,0,1,3.817.289,4.276,4.276,0,0,1,2.127,2.57l1.1,3.708c1.158,3.09-1.251,8.6-4.47,8.782H142.6l1.661,4.608c.939,2.888,2.188,4.571,5.145,3.9l7.488-1.7c1.988-.447,2.576-2.8,2.042-4.765-.875-2.889-1.8-5.682-2.572-8.608a13.922,13.922,0,0,1-.714-3.116,3.645,3.645,0,0,1,7.274-.439l.015,0c.207,1.03.63,3.183.834,4.2.749,3.587,5.019,4.493,7.756,4.484.007-.065.987-4.01,1.9-4.844a4.066,4.066,0,0,0,1.023-2.87,6.728,6.728,0,0,1,.753-3.291,3.078,3.078,0,0,0-.028-2.528,5.6,5.6,0,0,1-.553-3.348,3.079,3.079,0,0,0-.848-2.566,5.574,5.574,0,0,1-1.409-2.7,3.132,3.132,0,0,0-2.131-2.176,3.078,3.078,0,0,1-1.687-1.527,3.08,3.08,0,0,0-2.15-1.659,4.562,4.562,0,0,1-2.589-1.232,3.077,3.077,0,0,0-2.585-.765,7.566,7.566,0,0,1-1.985.2,7.049,7.049,0,0,1-1.917-.645,3.078,3.078,0,0,0-2.5.074,7.687,7.687,0,0,1-2.251.924c-1.6.169-3.348-.582-4.648.758-.62.568-1.5,1.581-2.354,1.775l-1.781.533a3.078,3.078,0,0,0-1.96,1.77l-.7,1.681c-.525,1.249-2.168,2.011-2.4,3.443C138.553,66.918,139.891,68.212,140.192,69.514Z" style="fill: #102325"/>
          <path d="M154.337,76.123a.452.452,0,0,0-.552-.326l-9.7,2.5-.782-2.929a.453.453,0,0,0-.876.234l1.795,6.727a.454.454,0,0,0,.877-.234l-.78-2.921,9.695-2.5A.454.454,0,0,0,154.337,76.123Z" style="fill: #fff"/>
        </g>
        <path d="M148.225,106.6c-8.215,19.166-21.108,49.009-21.108,49.009,18.549,7.419,32.332,29.2,32.332,29.2l5.446.851c9.226-8.915,13.013-25.08,14.294-37.268l3.233-24.844c1.362-17.358-9.987-30.118-9.987-30.118l-17.063,5.341C153.189,99.528,150.267,101.83,148.225,106.6Z" style="fill: #124a53"/>
        <path d="M146.379,150.8,119.6,142.08a13.827,13.827,0,0,1-6.07-4.335L109.9,134a4.973,4.973,0,0,0-4.842-1.348l-11.383,3.009c-2.286.5-1.026,2.229.268,2.188-1.241.479.239,2.158,2.7,1.318-1.037.937.833,1.7,2.843,1.041-.818.888.359,1.751,2.63,1.051a1.751,1.751,0,0,1,1.693.818l1.771,2.736c1.388,2.21,3.493,1.853,5.228,2.577s4.373,3.5,6.355,4.726l22.727,14.139a15.144,15.144,0,0,0,20.16-3.833Z" style="fill: #61382d"/>
      </g>
      <g>
        <path d="M194.941,133.106l-15.748,85.131-17.688-17.688c2.58-24.028,10.866-49.439,25.448-69.725l1.28-.569A4.984,4.984,0,0,1,194.941,133.106Z" style="fill: #dbe7e9"/>
        <path d="M95.567,218.158h83.976L161.855,200.2l-1.122-.33a164.059,164.059,0,0,0-45.6-6.548c-15.131-.054-19.58,0-19.58,0-2.744,0-4.684,1.356-4.684,6.139v14.276C91.211,216.8,92.818,218.165,95.567,218.158Z" style="fill: #bfd3d6"/>
        <rect x="109.604" y="171.686" width="39.958" height="7.075" rx="1.769" transform="translate(224.712 371.299) rotate(-169.397)" style="fill: #dbe7e9"/>
        <g>
          <path d="M201.424,257.876a3.729,3.729,0,0,1-3.326-2.027L179.23,219.258a2.155,2.155,0,0,1-.21-1.4l9.377-50.076a2.158,2.158,0,0,1,4.251.085l12.479,85.725A3.766,3.766,0,0,1,201.424,257.876Zm-10.912-90.149a.418.418,0,0,0-.442.37c.052.352-9.584,50.081-9.332,50.373l18.872,36.6a2.041,2.041,0,0,0,3.833-1.229l-12.479-85.726h0A.421.421,0,0,0,190.512,167.727Z" style="fill: #124a53"/>
          <path d="M97.561,258.557a.854.854,0,0,1-.848-.939l7.352-70.8c-.164-7.961,7.905-11.8,15.232-10.172l65.538,11.925a.851.851,0,0,1-.3,1.675l-65.557-11.929a14.074,14.074,0,0,0-6.022.006c-4.634,1.073-7.186,4.106-7.186,8.54-.064.045-7.305,70.872-7.36,70.932A.852.852,0,0,1,97.561,258.557Z" style="fill: #124a53"/>
          <rect x="140.25" y="179.95" width="1.702" height="77.998" transform="translate(-78.116 359.633) rotate(-89.891)" style="fill: #124a53"/>
        </g>
      </g>
      <path d="M42.222,103.857H40.34a.853.853,0,0,0-.809,1.124l15.325,45.74h45.891a4.072,4.072,0,0,0-4.073-4.073H58.048L44.316,105.364A2.208,2.208,0,0,0,42.222,103.857Z" style="fill: #0d2135;fill-rule: evenodd"/>
    </g>
    <g>
      <path d="M317.855,209.309a1.974,1.974,0,0,1,2.065,1.869v10.556a1.974,1.974,0,0,1-2.065,1.87H262.4v-14.3Z" style="fill: #a0b4b7;fill-rule: evenodd"/>
      <path d="M264.1,211.011h54.117a0,0,0,0,1,0,0V221.9a0,0,0,0,1,0,0H264.1a1.7,1.7,0,0,1-1.7-1.7V212.71A1.7,1.7,0,0,1,264.1,211.011Z" transform="translate(580.621 432.913) rotate(180)" style="fill: #fdfaf5"/>
    </g>
    <path d="M298.227,213.734a1.479,1.479,0,0,1,1.613,1.29v7.289a1.479,1.479,0,0,1-1.613,1.291H254.915v-9.87Z" style="fill: #666850;fill-rule: evenodd"/>
    <path d="M256.2,214.755h42.619a0,0,0,0,1,0,0v7.828a0,0,0,0,1,0,0H256.2a1.285,1.285,0,0,1-1.285-1.285V216.04A1.285,1.285,0,0,1,256.2,214.755Z" transform="translate(553.734 437.337) rotate(180)" style="fill: #fdfaf5"/>
    <g>
      <rect x="271.932" y="198.418" width="45.606" height="10.891" rx="1.361" style="fill: #0d2135"/>
      <rect x="295.756" y="199.78" width="8.168" height="8.168" style="fill: #b1c585"/>
      <polygon points="306.647 207.948 311.411 199.78 316.176 207.948 306.647 207.948" style="fill: #f4b7a8"/>
      <path d="M292.352,203.864a4.084,4.084,0,1,1-4.084-4.084A4.084,4.084,0,0,1,292.352,203.864Z" style="fill: #f8c77e"/>
      <path d="M278.34,203.864l2.922-2.922a.681.681,0,0,0-.962-.963l-2.923,2.922-2.922-2.922a.681.681,0,0,0-.962.963l2.922,2.922-2.922,2.922a.681.681,0,0,0,.962.963l2.922-2.923,2.923,2.923a.681.681,0,0,0,.962-.963Z" style="fill: #697171"/>
    </g>
    <g>
      <path d="M332.172,237.217A13.653,13.653,0,0,0,318.559,223.6H250.49a13.653,13.653,0,0,0-13.613,13.613v3.4h95.3Z" style="fill: #a8baac"/>
      <path d="M236.877,240.621v3.4a13.653,13.653,0,0,0,13.613,13.614h68.069a13.653,13.653,0,0,0,13.613-13.614v-3.4Z" style="fill: #fce2ba"/>
    </g>
  </g>
</svg>