<svg width="16" height="16" xmlns="http://www.w3.org/2000/svg" id="empathy-consumption-small" data-supported-dps="16x16">
  <g fill="none" fill-rule="evenodd">
    <rect width="16" height="16" rx="8"/>
    <circle fill="#DF704D" cx="8" cy="8" r="7"/>
    <path d="M7.71 5A2.62 2.62 0 004 5a2.65 2.65 0 000 3.75l4 4 4-4A2.65 2.65 0 0012 5a2.59 2.59 0 00-1.85-.77h0A2.57 2.57 0 008.3 5l-.3.3-.29-.3z" stroke="#77280C" fill="#FFF3F0"/>
    <path d="M11.43 5.18a2 2 0 01.53.63c.9 1.67-.6 2.72-1.54 3.67-.6.61-1.22 1.22-1.85 1.8" opacity=".6"/>
    <path d="M5.79 4.81a2.16 2.16 0 00-.79.11 1.77 1.77 0 00-1 .82A2.54 2.54 0 003.77 7a.28.28 0 000 .09" opacity=".4"/>
    <path d="M7.71 5A2.6 2.6 0 004 5a2.65 2.65 0 000 3.7l4 4 4-4A2.65 2.65 0 0012 5a2.6 2.6 0 00-1.85-.78h0A2.58 2.58 0 008.3 5l-.3.25L7.71 5z" stroke="#77280C" stroke-linecap="round" stroke-linejoin="round"/>
  </g>
</svg>
