<svg xmlns="http://www.w3.org/2000/svg" height="24" width="24" fill="rgba(0,0,0,0.6)">
                                    <path d="M16 3H8C6.14348 3 4.36301 3.77847 3.05025 5.16416C1.7375 6.54984 1 8.42923 1 10.3889C1 12.3485 1.7375 14.2279 3.05025 15.6136C4.36301 16.9993 6.14348 17.7778 8 17.7778H12V22L20.16 16.3106C21.0512 15.639 21.7751 14.7495 22.2697 13.7183C22.7643 12.687 23.0148 11.5446 23 10.3889C23 8.42923 22.2625 6.54984 20.9497 5.16416C19.637 3.77847 17.8565 3 16 3ZM8 11.7083C7.75277 11.7083 7.5111 11.631 7.30554 11.486C7.09998 11.341 6.93976 11.1349 6.84515 10.8938C6.75054 10.6527 6.72579 10.3874 6.77402 10.1315C6.82225 9.87553 6.9413 9.64043 7.11612 9.4559C7.29093 9.27137 7.51366 9.14571 7.75614 9.0948C7.99861 9.04389 8.24995 9.07002 8.47835 9.16988C8.70676 9.26975 8.90199 9.43886 9.03934 9.65585C9.17669 9.87283 9.25 10.1279 9.25 10.3889C9.25 10.7388 9.1183 11.0744 8.88388 11.3219C8.64946 11.5693 8.33152 11.7083 8 11.7083ZM12 11.7083C11.7528 11.7083 11.5111 11.631 11.3055 11.486C11.1 11.341 10.9398 11.1349 10.8452 10.8938C10.7505 10.6527 10.7258 10.3874 10.774 10.1315C10.8222 9.87553 10.9413 9.64043 11.1161 9.4559C11.2909 9.27137 11.5137 9.14571 11.7561 9.0948C11.9986 9.04389 12.2499 9.07002 12.4784 9.16988C12.7068 9.26975 12.902 9.43886 13.0393 9.65585C13.1767 9.87283 13.25 10.1279 13.25 10.3889C13.25 10.7388 13.1183 11.0744 12.8839 11.3219C12.6495 11.5693 12.3315 11.7083 12 11.7083ZM16 11.7083C15.7528 11.7083 15.5111 11.631 15.3055 11.486C15.1 11.341 14.9398 11.1349 14.8452 10.8938C14.7505 10.6527 14.7258 10.3874 14.774 10.1315C14.8222 9.87553 14.9413 9.64043 15.1161 9.4559C15.2909 9.27137 15.5137 9.14571 15.7561 9.0948C15.9986 9.04389 16.2499 9.07002 16.4784 9.16988C16.7068 9.26975 16.902 9.43886 17.0393 9.65585C17.1767 9.87283 17.25 10.1279 17.25 10.3889C17.25 10.7388 17.1183 11.0744 16.8839 11.3219C16.6495 11.5693 16.3315 11.7083 16 11.7083Z"></path>
                                </svg> 