<svg xmlns="http://www.w3.org/2000/svg" xmlns:xlink="http://www.w3.org/1999/xlink" width="500" zoomAndPan="magnify" viewBox="0 0 375 374.999991" height="500" preserveAspectRatio="xMidYMid meet" version="1.0"><defs><g/><clipPath id="f9201d8045"><path d="M 9.132812 178 L 86 178 L 86 245.558594 L 9.132812 245.558594 Z M 9.132812 178 " clip-rule="nonzero"/></clipPath><clipPath id="186b58fb80"><path d="M 85 143.558594 L 161.382812 143.558594 L 161.382812 211 L 85 211 Z M 85 143.558594 " clip-rule="nonzero"/></clipPath></defs><rect x="-37.5" width="450" fill="#ffffff" y="-37.499999" height="449.999989" fill-opacity="1"/><rect x="-37.5" width="450" fill="#ffffff" y="-37.499999" height="449.999989" fill-opacity="1"/><rect x="-37.5" width="450" fill="#0f1120" y="-37.499999" height="449.999989" fill-opacity="1"/><g clip-path="url(#f9201d8045)"><path fill="#0652e9" d="M 60.398438 226.015625 L 60.398438 235.25 L 18.429688 215.824219 L 18.429688 208.332031 L 60.398438 188.910156 L 60.398438 198.144531 L 28.660156 211.992188 L 28.660156 212.167969 Z M 85.324219 178.648438 L 15.140625 178.648438 C 11.828125 178.648438 9.140625 181.324219 9.140625 184.628906 L 9.140625 239.53125 C 9.140625 242.832031 11.828125 245.507812 15.140625 245.507812 L 65.839844 245.507812 L 85.324219 178.648438 " fill-opacity="1" fill-rule="nonzero"/></g><g clip-path="url(#186b58fb80)"><path fill="#62e1e9" d="M 152.101562 181.023438 L 110.136719 200.1875 L 110.136719 190.953125 L 142.574219 177.105469 L 142.574219 176.929688 L 110.136719 163.078125 L 110.136719 153.847656 L 152.101562 173.011719 Z M 104.808594 143.589844 L 85.324219 210.445312 L 155.394531 210.445312 C 158.707031 210.445312 161.394531 207.769531 161.394531 204.46875 L 161.394531 149.5625 C 161.394531 146.265625 158.707031 143.589844 155.394531 143.589844 L 104.808594 143.589844 " fill-opacity="1" fill-rule="nonzero"/></g><g fill="#ffffff" fill-opacity="1"><g transform="translate(165.167351, 208.215408)"><g><path d="M 27.003906 -37.769531 L -0.316406 -37.769531 L -0.316406 -30.402344 L 9.253906 -30.402344 L 9.253906 0 L 17.5 0 L 17.5 -30.402344 L 27.003906 -30.402344 Z M 27.003906 -37.769531 "/></g></g></g><g fill="#ffffff" fill-opacity="1"><g transform="translate(194.072137, 208.215408)"><g><path d="M 23.417969 -15.546875 C 27.886719 -16.871094 31.035156 -21.023438 31.035156 -26.1875 C 31.035156 -32.605469 26.25 -37.769531 19.765625 -37.769531 L 3.714844 -37.769531 L 3.714844 0 L 12.023438 0 L 12.023438 -14.605469 L 15.359375 -14.605469 L 24.675781 0 L 33.992188 0 Z M 18.507812 -21.464844 L 12.023438 -21.464844 L 12.023438 -30.402344 L 18.507812 -30.402344 C 21.152344 -30.402344 23.101562 -28.515625 23.101562 -25.933594 C 23.101562 -23.289062 21.152344 -21.464844 18.507812 -21.464844 Z M 18.507812 -21.464844 "/></g></g></g><g fill="#ffffff" fill-opacity="1"><g transform="translate(229.963837, 208.215408)"><g><path d="M 26.753906 -30.46875 L 26.753906 -37.769531 L 4.027344 -37.769531 L 4.027344 0 L 26.753906 0 L 26.753906 -7.300781 L 12.335938 -7.300781 L 12.335938 -15.234375 L 24.675781 -15.234375 L 24.675781 -22.535156 L 12.335938 -22.535156 L 12.335938 -30.46875 Z M 26.753906 -30.46875 "/></g></g></g><g fill="#ffffff" fill-opacity="1"><g transform="translate(261.512325, 208.215408)"><g><path d="M 26.4375 -19.136719 C 29.269531 -20.648438 31.097656 -23.289062 31.097656 -27.257812 C 31.097656 -33.929688 26.0625 -37.769531 19.703125 -37.769531 L 3.714844 -37.769531 L 3.714844 0 L 21.152344 0 C 27.445312 0 32.355469 -3.652344 32.355469 -10.324219 C 32.355469 -14.917969 29.964844 -17.75 26.4375 -19.136719 Z M 22.789062 -26.375 C 22.789062 -24.171875 20.960938 -22.285156 18.695312 -22.285156 L 12.023438 -22.285156 L 12.023438 -30.402344 L 18.695312 -30.402344 C 20.960938 -30.402344 22.789062 -28.640625 22.789062 -26.375 Z M 19.953125 -7.363281 L 12.023438 -7.363281 L 12.023438 -15.484375 L 19.953125 -15.484375 C 22.285156 -15.484375 24.046875 -13.597656 24.046875 -11.394531 C 24.046875 -9.128906 22.285156 -7.363281 19.953125 -7.363281 Z M 19.953125 -7.363281 "/></g></g></g><g fill="#ffffff" fill-opacity="1"><g transform="translate(297.907603, 208.215408)"><g><path d="M 12.023438 -7.363281 L 12.023438 -37.769531 L 3.714844 -37.769531 L 3.714844 0 L 24.550781 0 L 24.550781 -7.363281 Z M 12.023438 -7.363281 "/></g></g></g><g fill="#ffffff" fill-opacity="1"><g transform="translate(324.798134, 208.215408)"><g><path d="M 26.753906 -30.46875 L 26.753906 -37.769531 L 4.027344 -37.769531 L 4.027344 0 L 26.753906 0 L 26.753906 -7.300781 L 12.335938 -7.300781 L 12.335938 -15.234375 L 24.675781 -15.234375 L 24.675781 -22.535156 L 12.335938 -22.535156 L 12.335938 -30.46875 Z M 26.753906 -30.46875 "/></g></g></g></svg>