<?xml version="1.0" encoding="iso-8859-1"?>
<!-- Generator: Adobe Illustrator 19.0.0, SVG Export Plug-In . SVG Version: 6.00 Build 0)  -->
<svg version="1.1" id="Layer_1" xmlns="http://www.w3.org/2000/svg" xmlns:xlink="http://www.w3.org/1999/xlink" x="0px" y="0px"
	 viewBox="0 0 512 512" style="enable-background:new 0 0 512 512;" xml:space="preserve">
<circle style="fill:#263A7A;" cx="256" cy="256" r="256"/>
<path style="fill:#121149;" d="M510.012,287.999l-80.5-83.496l-2.843,0.153l-25.783-25.783l3.989,79.136h-168.32l-79.136-79.136
	l-25.41,61.166l-0.533-0.533l-49.223,67.744L288.103,510C403.853,495.518,495.576,403.763,510.012,287.999z"/>
<rect x="147.79" y="228.952" style="fill:#FFFFFF;" width="216.419" height="54.105"/>
<rect x="147.79" y="256" style="fill:#D0D1D3;" width="216.419" height="27.052"/>
<path style="fill:#FFC91B;" d="M147.792,337.156h-27.053c-7.47,0-13.526-6.056-13.526-13.526V188.369
	c0-7.47,6.056-13.526,13.526-13.526h27.052c7.47,0,13.526,6.056,13.526,13.526v135.261
	C161.318,331.1,155.262,337.156,147.792,337.156z"/>
<path style="fill:#EAA22F;" d="M107.213,256v67.631c0,7.47,6.056,13.526,13.526,13.526h27.052c7.47,0,13.526-6.056,13.526-13.526
	V256H107.213z"/>
<path style="fill:#FF7F4F;" d="M98.816,310.105H88.56c-4.639,0-8.399-3.76-8.399-8.399v-91.412c0-4.639,3.76-8.399,8.399-8.399
	h10.256c4.639,0,8.399,3.76,8.399,8.399v91.412C107.213,306.345,103.453,310.105,98.816,310.105z"/>
<path style="fill:#D35933;" d="M80.162,256v45.706c0,4.637,3.76,8.399,8.399,8.399h10.256c4.639,0,8.399-3.76,8.399-8.399V256
	H80.162z"/>
<path style="fill:#FFC91B;" d="M364.208,174.844h27.052c7.47,0,13.526,6.056,13.526,13.526v135.261
	c0,7.47-6.056,13.526-13.526,13.526h-27.052c-7.47,0-13.526-6.056-13.526-13.526V188.369
	C350.682,180.9,356.738,174.844,364.208,174.844z"/>
<path style="fill:#EAA22F;" d="M350.682,256v67.631c0,7.47,6.056,13.526,13.526,13.526h27.052c7.47,0,13.526-6.056,13.526-13.526
	V256H350.682z"/>
<path style="fill:#FF7F4F;" d="M413.184,201.895h10.256c4.639,0,8.399,3.76,8.399,8.399v91.412c0,4.639-3.76,8.399-8.399,8.399
	h-10.256c-4.639,0-8.399-3.76-8.399-8.399v-91.412C404.787,205.655,408.547,201.895,413.184,201.895z"/>
<path style="fill:#D35933;" d="M404.787,256v45.706c0,4.637,3.76,8.399,8.399,8.399h10.256c4.639,0,8.399-3.76,8.399-8.399V256
	H404.787z"/>
<g>
</g>
<g>
</g>
<g>
</g>
<g>
</g>
<g>
</g>
<g>
</g>
<g>
</g>
<g>
</g>
<g>
</g>
<g>
</g>
<g>
</g>
<g>
</g>
<g>
</g>
<g>
</g>
<g>
</g>
</svg>
