<svg xmlns="http://www.w3.org/2000/svg" version="1.1" xmlns:xlink="http://www.w3.org/1999/xlink" xmlns:svgjs="http://svgjs.com/svgjs" width="512" height="512" x="0" y="0" viewBox="0 0 512 512" style="enable-background:new 0 0 512 512" xml:space="preserve" class=""><circle r="256" cx="256" cy="256" fill="#ffffff" shape="circle"></circle><g transform="matrix(0.7,0,0,0.7,76.80000000000001,76.80000000000001)"><path fill="#ff8fb8" d="M421 165C421 73.874 347.126 0 256 0S91 73.874 91 165c0 80.867 58.218 148.019 135 162.144V376h-75v60h75v76h60v-76h75v-60h-75v-48.856C362.782 313.019 421 245.867 421 165zM256 270c-57.891 0-105-47.109-105-105S198.109 60 256 60s105 47.109 105 105-47.109 105-105 105z" data-original="#ff8fb8" class=""></path><path fill="#ff5f96" d="M286 436h75v-60h-75v-48.856C362.782 313.019 421 245.867 421 165 421 73.874 347.126 0 256 0v60c57.891 0 105 47.109 105 105s-47.109 105-105 105v242h30z" data-original="#ff5f96"></path></g></svg>