<svg xmlns="http://www.w3.org/2000/svg" width="900" height="900" viewBox="0 0 900 900"><path data-name="Rectangle 756" fill="#fff" d="M0 0h900v900H0z"/><g data-name="Composant 19 – 1"><g data-name="Groupe 24"><g data-name="Groupe 21"><g data-name="Groupe 20"><g data-name="Groupe 14" fill="none" stroke="#532a8c" stroke-linecap="round" stroke-width="60"><path data-name="Ligne 8" d="M330.473 634.676v211.488"/><path data-name="Ligne 9" d="M258.973 770.258h143"/></g><g data-name="Tracé 3736" fill="none"><path d="M332.969 204.096c120.774 0 218.68 97.706 218.68 218.233s-97.906 218.233-218.68 218.233-218.68-97.706-218.68-218.233 97.906-218.233 218.68-218.233Z"/><path d="M332.969 264.096c-87.496 0-158.68 70.983-158.68 158.233s71.184 158.233 158.68 158.233c87.497 0 158.68-70.983 158.68-158.233s-71.183-158.233-158.68-158.233m0-60c120.774 0 218.68 97.706 218.68 218.233s-97.906 218.233-218.68 218.233-218.68-97.706-218.68-218.233 97.906-218.233 218.68-218.233Z" fill="#532a8c"/></g><path data-name="Rectangle 753" fill="#fff" d="M464.649 341.711h90v108h-90z"/><path data-name="Rectangle 754" fill="#fff" d="m486.657 230.395 80.476 86.3-81.912 76.384-80.476-86.3z"/><g data-name="Groupe 11"><g data-name="Groupe 8"><g data-name="Groupe 3"><g data-name="Groupe 6"><g data-name="Tracé 3736" fill="none"><path d="M567.132 265.482c120.674 0 218.5 98.086 218.5 219.081s-97.826 219.081-218.5 219.081-218.5-98.086-218.5-219.081 97.826-219.081 218.5-219.081Z"/><path d="M567.132 325.482c-87.397 0-158.5 71.363-158.5 159.081 0 87.718 71.103 159.081 158.5 159.081s158.5-71.363 158.5-159.08c0-87.719-71.103-159.082-158.5-159.082m0-60c120.674 0 218.5 98.086 218.5 219.081 0 120.995-97.826 219.081-218.5 219.081s-218.5-98.086-218.5-219.08c0-120.996 97.826-219.082 218.5-219.082Z" fill="#046fb3"/></g><path data-name="Rectangle 753" fill="#fff" d="M698.632 363.282h85v146h-85z"/><path data-name="Rectangle 754" fill="#fff" d="m721.337 296.575 56.417 58.365L700.102 430l-56.417-58.365z"/></g></g><g data-name="Groupe 4" fill="#046fb3"><path data-name="Tracé 3735" d="M567.132 455.067h216.314v59.981H567.132Z"/><path data-name="Rectangle 755" d="M782.932 455.067h1v57h-1z"/></g></g><g data-name="Groupe 9" fill="none" stroke="#046fb3" stroke-width="58"><path data-name="Ligne 10" d="m566.779 279.726.353-224.94"/><path data-name="Ligne 11" stroke-linecap="round" d="m502.078 124.082 64.347-64.347"/><path data-name="Ligne 12" stroke-linecap="round" d="m631.479 124.79-65.054-65.055"/></g></g><path data-name="Tracé 3735" d="M332.969 392.831h216.494v59.981H332.969Z" fill="#532a8c"/></g></g></g><path data-name="Tracé 3739" d="m368.636 392.816 69.085.007-2.448 3.6-1.922 2.968-3.2 5.293-2.568 4.518-3.309 6.713-3.021 6.469-1.922 4.717-1.931 5.341-2.3 7.065-1.346 4.827-.687 2.925-1.229 5.568-60.922.019.283-2.033.581-3.57 1.765-9.524 1.52-6.31 2.251-8.382 2.062-6.557.862-2.525.913-2.738 1.131-3.056 1.994-5.187 1.681-4.065Z" fill="#fff"/></g></svg>