<svg xmlns="http://www.w3.org/2000/svg" version="1.1" xmlns:xlink="http://www.w3.org/1999/xlink" xmlns:svgjs="http://svgjs.com/svgjs" width="512" height="512" x="0" y="0" viewBox="0 0 512 512" style="enable-background:new 0 0 512 512" xml:space="preserve" class=""><circle r="256" cx="256" cy="256" fill="#ffffff" shape="circle" transform="matrix(1,0,0,1,0,0)"></circle><g transform="matrix(0.56,0,0,0.56,112.63999999999999,112.63999999999999)"><path fill="#7ea1ff" d="M320 0v64h82.73l-99.49 99.49C271.86 141.14 233.46 128 192 128 85.96 128 0 213.96 0 320c0 53.02 21.49 101.02 56.24 135.76C90.98 490.51 138.98 512 192 512c106.04 0 192-85.96 192-192 0-41.46-13.14-79.86-35.49-111.24l99.51-99.51V192H512V0zM192 448c-35.34 0-67.34-14.33-90.51-37.49C78.33 387.34 64 355.34 64 320c0-70.69 57.31-128 128-128 35.34 0 67.34 14.33 90.51 37.49C305.67 252.66 320 284.66 320 320c0 70.69-57.31 128-128 128z" data-original="#7ea1ff" class=""></path><path fill="#5a72e9" d="M512 0v192h-63.98v-82.75l-99.51 99.51C370.86 240.14 384 278.54 384 320c0 106.04-85.96 192-192 192-53.02 0-101.02-21.49-135.76-56.24l45.25-45.25C124.66 433.67 156.66 448 192 448c70.69 0 128-57.31 128-128 0-35.34-14.33-67.34-37.49-90.51z" data-original="#5a72e9"></path></g></svg>