<svg xmlns="http://www.w3.org/2000/svg" width="1em" height="1em" viewBox="0 0 24 24" fill="none"><title>instagram</title><g fill="currentColor"><path d="M21.15 2.85C19.05.74 16.23 1 12 1 8.04 1 5 .69 2.85 2.85.74 4.95 1 7.77 1 12c0 3.95-.31 7 1.85 9.15C4.95 23.26 7.77 23 12 23c3.96 0 7 .31 9.15-1.85C23.25 19.05 23 16.23 23 12c0-4.31.24-7.07-1.85-9.15Zm-1.4 16.9c-1.37 1.37-3.18 1.27-7.75 1.27-4.29 0-6.34.15-7.75-1.27-1.44-1.44-1.27-3.51-1.27-7.75 0-4.23-.15-6.33 1.27-7.75C5.66 2.84 7.6 2.98 12 2.98c4.23 0 6.33-.15 7.75 1.27 1.38 1.38 1.27 3.22 1.27 7.75 0 4.24.15 6.34-1.27 7.75Z"/><path d="M12 6.35a5.65 5.65 0 1 0 .001 11.301A5.65 5.65 0 0 0 12 6.35Zm0 9.32c-2.02 0-3.67-1.64-3.67-3.67 0-2.03 1.64-3.67 3.67-3.67 2.03 0 3.67 1.64 3.67 3.67 0 2.02-1.65 3.67-3.67 3.67ZM17.87 4.81c-.73 0-1.32.59-1.32 1.32 0 .73.59 1.32 1.32 1.32.73 0 1.32-.59 1.32-1.32 0-.73-.59-1.32-1.32-1.32Z"/></g></svg>