<svg xmlns="http://www.w3.org/2000/svg" width="16" height="16" viewBox="0 0 24 24" fill="none"><title>Keys car</title><g fill="currentColor"><path d="m13.003 8.5 1.746-1.746 2.504 2.503-1.747 1.747L13.003 8.5Z"/><path fill-rule="evenodd" clip-rule="evenodd" d="m18.41 2.41 3.17 3.17a4.834 4.834 0 0 1 0 6.84L15.5 18.5l-2-2L8 22H3.5L0 18.5l7.75-7.75L5.5 8.5l6.08-6.09C12.53 1.47 13.76 1 15 1c1.24 0 2.47.47 3.41 1.41ZM4.75 19h2.01l4.63-4.62-1.51-1.51-5.63 5.63.5.5Zm10.75-4.75 3.96-3.96c.72-.71.72-1.87 0-2.58l-3.17-3.17C15.95 4.19 15.49 4 15 4s-.95.19-1.3.54L9.74 8.5l5.76 5.75Z"/></g></svg>