<svg xmlns="http://www.w3.org/2000/svg" width="1em" height="1em" viewBox="0 0 24 24" fill="none"><title>linkedin</title><path d="M21.37 1H2.62C1.73 1 1 1.71 1 2.58v18.83c0 .88.73 1.59 1.62 1.59h18.75c.9 0 1.63-.71 1.63-1.59V2.58C23 1.71 22.27 1 21.37 1ZM7.53 19.75H4.26V9.25h3.27v10.5ZM5.89 7.81C4.85 7.81 4 6.96 4 5.92s.84-1.89 1.89-1.89c1.04 0 1.89.85 1.89 1.89.01 1.04-.84 1.89-1.89 1.89Zm13.86 11.94h-3.26v-5.1c0-1.22-.02-2.78-1.7-2.78-1.7 0-1.96 1.33-1.96 2.7v5.19H9.57V9.26h3.13v1.43h.04c.44-.83 1.5-1.7 3.09-1.7 3.3 0 3.91 2.17 3.91 5v5.76h.01Z" fill="currentColor"/></svg>