<svg xmlns="http://www.w3.org/2000/svg" width="1em" height="1em" viewBox="0 0 24 24" fill="none"><title>twitter</title><path d="M23 5.13c-.81.36-1.69.61-2.61.72.94-.56 1.66-1.45 2-2.51-.88.52-1.85.9-2.89 1.1A4.558 4.558 0 0 0 16.18 3a4.543 4.543 0 0 0-4.42 5.58c-3.78-.19-7.13-2-9.37-4.75-.39.67-.62 1.45-.62 2.28 0 1.58.8 2.97 2.02 3.78-.75-.02-1.45-.23-2.06-.57v.06c0 2.2 1.57 4.04 3.65 4.45-.38.12-.78.17-1.19.17-.29 0-.58-.03-.85-.08a4.557 4.557 0 0 0 4.25 3.16 9.112 9.112 0 0 1-5.64 1.95c-.37 0-.73-.02-1.08-.06 2.01 1.29 4.4 2.04 6.97 2.04 8.36 0 12.93-6.92 12.93-12.93 0-.2 0-.39-.01-.59.86-.65 1.63-1.45 2.24-2.36Z" fill="currentColor"/></svg>