<svg xmlns="http://www.w3.org/2000/svg" width="16" height="16" viewBox="0 0 24 24" fill="none"><title>Bike jump</title><path d="M24 5h-6.67l-.83-2H12v3h2.5l1.15 2.76L11.38 13h-.62L7.49 5H3v3h2.5l.43 1.03C5.79 9.02 5.65 9 5.5 9A5.51 5.51 0 0 0 0 14.5C0 17.53 2.47 20 5.5 20c2.51 0 4.63-1.7 5.29-4h1.83l.48-.48A5.505 5.505 0 0 0 18.5 20c3.03 0 5.5-2.47 5.5-5.5 0-1.74-.81-3.29-2.08-4.3L24 8.12V5ZM5.5 17a2.5 2.5 0 1 1 .002-5.002A2.5 2.5 0 0 1 5.5 17Zm14.38-9-.91.91-.39-.91h1.3Zm-1.38 9a2.5 2.5 0 0 1 0-5 2.5 2.5 0 0 1 0 5Z" fill="currentColor"/></svg>