<svg id="art" xmlns="http://www.w3.org/2000/svg" viewBox="0 0 1280 300"><defs><style>.cls-1{fill:#cbcbcb;}.cls-2{fill:#c78982;}.cls-3{fill:#fff;}.cls-4{fill:#99644d;}.cls-5{fill:#ff7d49;}</style></defs><title>whyRideWithUs_desktop</title><path class="cls-1" d="M1072.73,300H207.27a25.33,25.33,0,0,1-24.13-33l14.72-46.14L215,167.14l7.55-23.68a80.64,80.64,0,0,1,76.83-56.14H980.63a80.64,80.64,0,0,1,76.83,56.14L1096.86,267A25.33,25.33,0,0,1,1072.73,300Z"/><path class="cls-2" d="M415.27,82.85c.11.87.22,1.74.37,2.6.07.44.13.87.22,1.32a60.09,60.09,0,0,0,2.85,10v0a.37.37,0,0,0,.09.17c.08.24.16.47.25.7.15.38.3.74.47,1.12a3,3,0,0,0,.16.38l.22.54c.22.53.47,1.07.76,1.61s.7,1.37,1,2l.05.07.05.07h0a1.72,1.72,0,0,1,.07.2,1.13,1.13,0,0,1,.07.2c.07.09.13.18.18.28a.27.27,0,0,1,.05.08l.24.37c.07.13.15.25.21.37s.15.24.21.36l.08.16a4.9,4.9,0,0,0,.26.45s0,0,0,.05c.13.22.28.43.41.65l.37.61a6.57,6.57,0,0,0,.49.74l.2.3.21.33a2.19,2.19,0,0,1,.21.32,3.51,3.51,0,0,1,.22.3l.16.21h0a1.38,1.38,0,0,1,.17.25c.05,0,.05.07.11.13.2.3.4.59.62.88a10.75,10.75,0,0,0,.67.86s.05,0,0,0a0,0,0,0,1,0,0c.45.61.9,1.15,1.41,1.75l.05.07.05.07.34.41c.17.21.34.4.51.58l.51.57a.47.47,0,0,1,.13.15.35.35,0,0,0,.14.13h0l.13.17.13.17c.18.17.36.34.53.53s.34.37.51.57.41.34.58.49l1.21,1.23.08.07,0,0,.07.05.11.09.12.09.16.14.18.15c.2.2.41.41.65.62s.49.42.75.62h0s0,0,0,.05h0c.4.3.82.66,1.25,1l.43.33a3.06,3.06,0,0,0,.26.21l.63.5a1.13,1.13,0,0,1,.24.18c.24.17.46.34.69.53s.18.13.3.21l.33.22c.22.15.43.28.63.42l.67.43c.18.13.36.28.59.42l.71.44.71.44.42.22.08.07a.69.69,0,0,0,.16.09v59.35H508v-45.4h0l.7.24,6.37,2.19a15.74,15.74,0,0,0,1.91.53c.37.08.75.15,1.11.18a12.55,12.55,0,0,0,4.11-.32,10.9,10.9,0,0,0,2.73-1c.34-.18.67-.37,1-.57s.62-.4.91-.62l.12-.09a3.08,3.08,0,0,0,.41-.32,2.44,2.44,0,0,0,.38-.34c.28-.26.57-.53.83-.8l.38-.44c.11-.14.24-.29.36-.45a3.73,3.73,0,0,0,.33-.46,4,4,0,0,0,.28-.38c.17-.28.34-.57.5-.86a3.4,3.4,0,0,0,.26-.54,4.55,4.55,0,0,0,.28-.57c.07-.2.16-.38.22-.58.13-.4.28-.79.37-1.2.05-.2.09-.41.13-.62s.09-.4.13-.59c0,0,0-.07,0-.11s0-.38.07-.57l.71-6.58.54-5.07,1.27-11.82,6.92-3.2A4.2,4.2,0,0,0,543,99l-7.5-9.85a8.33,8.33,0,0,1-1.08-7.61A25.1,25.1,0,0,0,535.76,69c-.07-.63-.21-1.2-.33-1.85A59.85,59.85,0,0,0,525.75,45c-.26-.4-.54-.78-.82-1.16-.55-.78-1.13-1.54-1.74-2.28s-1.23-1.49-1.86-2.21-1.29-1.42-2-2.11l-1-1q-.85-.85-1.74-1.66l-.4-.36c-.58-.51-1.17-1-1.78-1.53s-1.34-1.11-2-1.65h0c-.7-.53-1.41-1.05-2.14-1.56s-1.41-1-2.14-1.44l-.13-.08c-.71-.46-1.44-.9-2.18-1.33h0c-.76-.45-1.54-.87-2.32-1.28s-1.27-.65-1.91-.95c-.36-.18-.71-.36-1.08-.51-.61-.28-1.21-.55-1.83-.8l-1.24-.5c-.42-.17-.83-.33-1.25-.47-.69-.26-1.38-.5-2.08-.72-.4-.15-.8-.26-1.2-.38-.62-.2-1.23-.37-1.85-.54-.87-.22-1.74-.45-2.62-.65s-1.78-.38-2.68-.54l-2-.33-2-.26-1.38-.13-.71-.07-.24,0-.46-.05h0v.05c-.3,0-.49-.11-.8-.13a51.13,51.13,0,0,0-5.3-.16l-1.05,0q-1,0-2.06.08a53,53,0,0,0-6,.63h-.11c-.78.13-1.57.28-2.35.45l-1.15.25q-1.17.26-2.33.59-.95.28-1.9.59l-1,.29c-.53.16-1,.33-1.56.47-.71.32-1.36.57-2.07.82a6.56,6.56,0,0,1-.65.26l-1.75.78c-.2.11-.46.21-.73.32a2.65,2.65,0,0,0-.47.24c-.47.24-.92.47-1.42.71-.05.07-.05.07-.12.07l-.55.3c-.49.26-1,.51-1.44.79l-.24.15c-.37.21-.71.43-1.05.65l-1.08.66c-.12.05-.26.16-.38.21-.61.38-1.2.83-1.74,1.23,0,0,0,0-.05,0a.73.73,0,0,0-.2.13l-.21.16c-.61.38-1.15.84-1.74,1.29h0l-1.25,1q-1.9,1.54-3.64,3.24c-.38.37-.76.76-1.15,1.15l-1.12,1.19c-.37.41-.74.8-1.09,1.23s-.7.83-1,1.25-.78.92-1.12,1.33-.47.59-.66.88a1.49,1.49,0,0,0-.13.17c-.12.16-.24.32-.34.49-.36.49-.67,1-1,1.46-.07.11-.15.2-.21.29s-.24.34-.34.51a1.59,1.59,0,0,0-.13.18c0,.05-.07.12-.11.18a13.17,13.17,0,0,0-.8,1.24c-.22.46-.49.87-.73,1.27a4.24,4.24,0,0,1-.25.41.15.15,0,0,0,0,.07s0,0,0,0,0,0,0,.05a1.21,1.21,0,0,1-.07.13h0a16.32,16.32,0,0,0-1,1.85c-.15.24-.3.54-.45.83l-.16.33c-.15.33-.28.69-.45,1h0c-.17.42-.38.78-.55,1.2s-.3.78-.44,1.16c-.05.13-.09.26-.14.41l-.05.12v0c0,.09-.09.17-.13.26a3.78,3.78,0,0,0-.2.49,1.68,1.68,0,0,1-.15.41c-.14.41-.3.79-.43,1.16l-.09.29c0,.13-.09.26-.13.4a1.48,1.48,0,0,0,0,.24.55.55,0,0,0-.09.3,5.94,5.94,0,0,0-.36,1.07l-.08.33c-.21.67-.42,1.36-.59,2.08-.05.18-.09.36-.13.54s-.15.63-.21,1-.16.66-.22,1a.91.91,0,0,1,0,.18c0,.07,0,.13,0,.18a3.06,3.06,0,0,0-.07.37,19.58,19.58,0,0,0-.44,2.83,12.15,12.15,0,0,0-.24,1.44c-.05.49-.11,1-.16,1.53A56.52,56.52,0,0,0,415.27,82.85Z"/><path d="M418.7,96.79c0,.07.06.12.12.19a12.23,12.23,0,0,0,.71,1.82,3.84,3.84,0,0,0,.15.39c.31.71.61,1.43,1,2.14s.68,1.39,1,2l.11.14c.06.13.1.27.16.39.34.47.59,1,.86,1.46.11.2.28.47.4.66.26.46.55.85.75,1.24a8,8,0,0,0,.51.74c.28.39.55.85.82,1.26a3.9,3.9,0,0,1,.34.46s0,.08.11.15a14.57,14.57,0,0,0,1.29,1.74.07.07,0,0,1,.06.07c.45.59.89,1.14,1.4,1.75l.11.14c.11.13.22.27.35.41.34.41.67.74,1,1.15.11.07.17.21.28.28l.29.34a13.69,13.69,0,0,1,1,1.09l.59.49c.4.41,1.43,1.45,1.62,1.59s.22.21.35.28,2.05,1.78,4.09,3.52a18.14,18.14,0,0,1,5.47,8.74.1.1,0,0,0,0,0L459.5,110a9.32,9.32,0,0,0-1.15-12.35h0l-3.28-3.06a12.71,12.71,0,0,1,5.08-21.49,13,13,0,0,1,4.7-.48,12.71,12.71,0,0,1,11.08,9.09l.89,3,1.43,4.85a2.94,2.94,0,0,0,.33-.1,3,3,0,0,0,1.31-.81c.84-1.06.91-2.49,1.33-3.76s1.43-2.57,2.73-2.45a6.19,6.19,0,0,0-.34-1.28,3.21,3.21,0,0,0,3.53-1.69,13.79,13.79,0,0,0,1.19-4.16,9.52,9.52,0,0,0,3.5-5,5.32,5.32,0,0,0,.28-1,13.45,13.45,0,0,0,.06-4.18,13.89,13.89,0,0,0-.34-1.78L489.61,55c-1.74-6.59,3.37-12.24,10.26-12.24h24.25a58.18,58.18,0,0,0-5.79-6.54,61.94,61.94,0,0,0-38.07-17.68l-1.43-.13v.06c-.31,0-.5-.1-.8-.13a45.36,45.36,0,0,0-5.29-.16l-1.07,0a66.25,66.25,0,0,0-8.12.73,52.13,52.13,0,0,0-7.74,1.87c-.82.24-1.67.55-2.5.78s-1.36.56-2.07.8a4.37,4.37,0,0,1-.64.26l-1.76.78a7.2,7.2,0,0,1-.71.32c-.65.31-1.24.63-1.9,1,0,.06,0,.06-.12.06-.73.44-1.52.79-2.24,1.23s-1.39.88-2.11,1.32c-.13,0-.27.17-.4.22-.59.38-1.2.83-1.74,1.22a2.6,2.6,0,0,0-.46.34c-.6.38-1.15.84-1.76,1.29a55.76,55.76,0,0,0-9.3,9.05c-.41.46-.76.92-1.12,1.33a11.26,11.26,0,0,0-.76,1.06c-.51.64-.94,1.29-1.38,1.94a12.81,12.81,0,0,0-.78,1.18,12.36,12.36,0,0,0-.79,1.24c-.31.6-.67,1.13-1,1.67-.08.13-.09.18-.16.3a18.25,18.25,0,0,0-1,1.85c-.14.24-.29.54-.45.84s-.39.89-.61,1.32-.38.78-.55,1.2-.4,1-.58,1.57a5.13,5.13,0,0,0-.39.91c-.17.55-.41,1.09-.58,1.58a4.35,4.35,0,0,0-.27.91.78.78,0,0,0-.1.31,7,7,0,0,0-.44,1.4c-.26.85-.52,1.7-.72,2.62-.13.61-.31,1.29-.44,2,0,.26-.1.51-.12.74a21.33,21.33,0,0,0-.44,2.85,23.82,23.82,0,0,0-.4,3A57.67,57.67,0,0,0,418.7,96.79Z"/><path d="M534.39,108.38l-1.25,11.84-.54,5.07-.7,6.54-.08.61s0,.08,0,.11l-.12.59c0,.21-.09.42-.14.62a9.74,9.74,0,0,1-.37,1.2c-.07.2-.15.38-.22.58s-.17.38-.26.57a5.17,5.17,0,0,1-.28.54c-.16.29-.33.58-.5.86s-.17.26-.26.38-.22.32-.34.46l-.36.45-.38.44c-.26.28-.54.54-.82.8s-.53.45-.8.66l-.12.09c-.29.22-.59.42-.91.62s-.66.38-1,.57a14.06,14.06,0,0,1-2.73,1,12.84,12.84,0,0,1-4.1.29,8.18,8.18,0,0,1-1.12-.16,13.63,13.63,0,0,1-1.91-.51l-6.37-2.2-.7-.24h0v0L490.18,134a9.88,9.88,0,0,1-6.55-7.9l-1.07-5.91L477.1,90l-1.81-10,13-4.71h0l3.7,24.82a17.39,17.39,0,0,0,8.38,12.43,15,15,0,0,0,17.07-1.34,14.89,14.89,0,0,1,9.49-3.41c.38,0,.78,0,1.16,0Z"/><path class="cls-3" d="M640,300l-17.06-53.5c-6-20.88-22.21-36.81-42.57-41.73L532,193.08c-14.07-3.4-24-16.48-24-31.54v-1.81h-8.56a9.43,9.43,0,0,0-3.2.55,9.83,9.83,0,0,0-3.3,2L476.49,177l-18-15a10,10,0,0,0-3-1.73,9.62,9.62,0,0,0-3.2-.55h-8.59v1.81c0,15.06-9.92,28.14-24,31.54l-48.54,11.69c-20.36,4.91-36.61,20.85-42.57,41.73L311.52,300Z"/><path class="cls-1" d="M527.4,300H494.23l-98-114.38c1.82-.1,33.08-.15,33.08-.15Z"/><circle cx="875.84" cy="69.05" r="23.48"/><path class="cls-4" d="M901.57,112.78l-7.83,4.48L890,138.6c-1.24,7-7.67,11.45-14.65,11-.47,0-9.87-2.31-18.51-4.84L852,183.08l-47.43-6,3.93-36.35A12.21,12.21,0,0,0,803,129.33a56.7,56.7,0,0,1-17.19-18.27q-.73-1.22-1.37-2.49c-.77-1.47-1.48-3-2.12-4.52a56.12,56.12,0,0,1-4.28-21.59c0-30.63,24.39-49.22,54.81-50.08l1.64,0c19.38,0,38.94,12.18,47.44,23.84a54.58,54.58,0,0,1,5.23,8.7,51.2,51.2,0,0,1,4.43,22.92,9.16,9.16,0,0,0,1.86,6.3c3.77,4.86,9.8,11.76,9.8,11.76C905.75,108.47,904.74,111.15,901.57,112.78Z"/><path d="M814.49,106.08l-6,34.64a12,12,0,0,0-2.13-8.17,12.6,12.6,0,0,0-3.3-3.22,56.7,56.7,0,0,1-17.19-18.27q-.73-1.22-1.37-2.49c-.77-1.47-1.48-3-2.12-4.52Z"/><circle cx="771.58" cy="32.36" r="32.36"/><path d="M887.2,64.89l-12.32,11a129.46,129.46,0,0,1-41.5,24.85,129.47,129.47,0,0,1-44.64,7.94c-1.42,0-2.84,0-4.26-.07a56,56,0,0,1-6.4-26.11c0-30.63,24.39-49.22,54.81-50.08l1.64,0c19.38,0,38.94,12.18,47.44,23.84A54.58,54.58,0,0,1,887.2,64.89Z"/><path class="cls-4" d="M834.75,96.19a12.18,12.18,0,0,1-19.3,9.89h-1l-1.68-2.6,0-.05-.77-1.19-.05-.09a12.18,12.18,0,1,1,22.81-6Z"/><path d="M816.73,129.5l-8.26,11.24v0h0a12,12,0,0,0-2.13-8.17l-4-15.25,12.15-11.22,3.21,5.54A16.33,16.33,0,0,1,816.73,129.5Z"/><polygon points="846.68 33.87 884.16 47.09 884.16 55.42 841.71 52.19 846.68 33.87"/><path class="cls-4" d="M973.69,300H916.32l-51-88.31,9-5.21A39.25,39.25,0,0,1,928,220.84Z"/><path class="cls-5" d="M930.16,300H749.43l-6.85-92.06,29-13.95,21.85-11.19a23.13,23.13,0,0,0,12.45-18.11l.46-4.2h48.48l-1.92,24.87a11.76,11.76,0,0,0,7.88,11.81l33.59,4,7.16,23.11a70.39,70.39,0,0,0,10.59,21l6.79,9.22A61.32,61.32,0,0,1,930.16,300Z"/><path class="cls-1" d="M776.55,300h33.17l98-114.38c-1.82-.1-33.08-.15-33.08-.15Z"/><path class="cls-4" d="M792.18,300H742.47l-15.74-51.27c-4-17.68,2.6-38.32,18.79-42a24.8,24.8,0,0,1,5.43-.62c13.91,0,25.74,12.17,29.3,27.85Z"/></svg>