<svg xmlns="http://www.w3.org/2000/svg" xmlns:xlink="http://www.w3.org/1999/xlink" viewBox="0,0,256,256" width="100px" height="100px" fill-rule="nonzero"><g fill="none" fill-rule="nonzero" stroke="none" stroke-width="1" stroke-linecap="butt" stroke-linejoin="miter" stroke-miterlimit="10" stroke-dasharray="" stroke-dashoffset="0" font-family="none" font-weight="none" font-size="none" text-anchor="none" style="mix-blend-mode: normal"><g transform="scale(3.2,3.2)"><path d="M40,77.5c-20.7,0 -37.5,-16.8 -37.5,-37.5c0,-20.7 16.8,-37.5 37.5,-37.5c20.7,0 37.5,16.8 37.5,37.5c0,20.7 -16.8,37.5 -37.5,37.5z" fill="#38cc8c"></path><path d="M40,3c20.4,0 37,16.6 37,37c0,20.4 -16.6,37 -37,37c-20.4,0 -37,-16.6 -37,-37c0,-20.4 16.6,-37 37,-37M40,2c-21,0 -38,17 -38,38c0,21 17,38 38,38c21,0 38,-17 38,-38c0,-21 -17,-38 -38,-38z" fill="#5e9c76"></path><path d="M34,56l-13.8,-13.8l4.3,-4.2l9.5,9.6l24.2,-24.2l4.3,4.2z" fill="#ffffff"></path></g></g></svg>