<svg xmlns="http://www.w3.org/2000/svg" width="21.367" height="20.826" viewBox="0 0 21.367 20.826">
  <path id="Icon_awesome-arrow-right" data-name="Icon awesome-arrow-right" d="M9.085,4.042l1.059-1.059a1.14,1.14,0,0,1,1.617,0l9.271,9.266a1.14,1.14,0,0,1,0,1.617L11.76,23.137a1.14,1.14,0,0,1-1.617,0L9.085,22.078A1.146,1.146,0,0,1,9.1,20.443l5.747-5.475H1.145A1.142,1.142,0,0,1,0,13.823V12.3a1.142,1.142,0,0,1,1.145-1.145H14.85L9.1,5.678A1.138,1.138,0,0,1,9.085,4.042Z" transform="translate(0 -2.647)" fill="#fff"/>
</svg>
