<svg xmlns="http://www.w3.org/2000/svg" width="2500" height="2500" viewBox="0 0 192.756 192.756"><g fill-rule="evenodd" clip-rule="evenodd"><path fill="#fff" d="M0 0h192.756v192.756H0V0z"/><path d="M123.893 57.728c-.4-.933-1.199-1.6-1.998-1.999-1.199-.267-2.398-.133-3.197.933-.668.8-1.066 2.132-.4 3.198.266.933 1.199 1.199 1.199 2.265l-8.395 19.187c-.533.667-.533 1.732-1.199 2.132-.268-.133-.533-.4-.533-.667l.934-15.856.666-10.793c.133-.799-.268-1.999.398-2.665 1.199-.267 2-.799 2.533-1.732.398-1.066.398-2.665-.4-3.464-.799-.799-1.732-1.065-2.932-.933-1.066.4-2.266 1.199-2.398 2.665s.666 2.665 1.732 3.198c.266 0 .4.267.533.533l-6.529 28.515c-.133.533-.533.933-.799.799-.133-.133-.4-.4-.4-.666l-2.932-31.312c.533-1.199 1.998-1.066 2.398-2.398.4-.666.268-1.866.133-2.665-.533-.8-1.332-1.333-2.264-1.599-.801-.133-1.732.267-2.398.533-.8.666-1.466 1.732-1.2 3.064.133.799.533 1.333 1.065 1.732.4.533 1.467.4 1.467 1.333l-1.332 15.723-1.333 15.855-.267.533c-.266.267-.666-.133-.666-.267L88.05 54.796c-.133-.399-.133-.933.133-1.333 1.066-.666 1.865-2.265 1.599-3.731-.533-1.332-1.465-2.132-2.931-2.132-1.199.133-2.398.666-2.798 1.866-.533 1.199-.267 2.665.533 3.464.667.799 2.265.266 2.665 1.332l.533 5.197 2.532 23.717c0 .666.267 1.333-.133 1.865-.133.133-.533.133-.666-.133-3.331-7.062-6.662-14.524-9.993-21.719-.134-.533-.533-1.199-.267-1.866.399-.533.933-1.066 1.199-1.732.133-.8.133-1.599-.4-2.265-.267-.667-.933-1.066-1.732-1.333-1.066-.267-2.532.133-3.332.933-.666.8-.666 2.265-.266 3.331.4.799 1.066 1.332 1.865 1.466.799.267 1.599 0 1.999.799 3.197 10.526 6.129 21.052 9.061 31.579L89.25 95.3c3.331 1.999 7.195 3.731 11.327 3.465 1.73-.135 3.197-.668 4.529-1.199 1.332-.4 2.398-.934 3.465-1.6.932-.266 1.598-.933 2.398-1.465l6.662-23.185 2.531-8.927c.533-1.333 2.531-.666 3.197-1.999.268-.797.666-1.73.534-2.662zm-13.991 36.509c-2.531 1.199-5.197 2.131-8.395 2.265-4.264.666-9.327-.8-12.658-2.532-.266 0-.133-.267 0-.4 2.665-1.865 5.729-2.931 9.328-3.331 4.396-.133 8.527.666 11.725 3.198.401.267.401.666 0 .8z" fill="#a89a6f"/><path d="M92.847 138.473c0 .533.399.934.799 1.199h1.333c3.332-.133 4.664.268 7.861-.266 1.066-.533 2.133-1.066 2.533-2.531.531-2.133.531-4.531.799-6.797h2.797v12.658l-27.181.135v-3.199c1.732-.133 2.132.135 4.131-.133.267-.266.933-.666.799-1.332v-19.721c-.133-.799 0-1.998-.799-2.531-1.199-.666-3.331-.266-3.998-.533v-2.932h16.257v2.666c-1.2.398-3.332.133-4.398.533-.399 0-.933.531-.933 1.064v21.72zM118.43 116.754c0-.398-.133-.932-.533-1.064-1.598-.135-2.664 0-4.396-.135v-3.064h29.047v12.125h-2.932c0-3.197-.133-7.061-2.797-8.527-.801-.266-1.6-.398-2.533-.533l-8.66.135c-.133.133-1.199-.135-1.332.398v8.928l.398.4c2.133 0 4.932.398 5.996-2.266.4-1.066.533-3.598.533-3.598h2.666v15.59h-3.064c-.135-1.865.266-4.664-1.334-5.73-1.199-1.064-3.064-.932-4.797-.666l-.398.268v10.26c.133.533.799.398 1.199.398 2.932-.133 5.596.135 9.594-.133 1.998-.4 3.598-1.998 3.996-4.396.268-1.732.268-3.465.4-5.197h3.064l-.133 12.926h-29.047v-3.199c1.865 0 3.598.268 4.529-.266.533-.4.666-1.332.533-1.998v-20.656h.001zM184.252 142.871h-17.455v-3.064c.934-.268 3.064.266 4.131-.4.4-.268.533-.934.533-1.467-1.732-2.398-3.598-4.662-5.463-6.928-.533 0-.934.4-1.332.934l-4.797 5.596c-.135.533-.268.932 0 1.465.266.4.666.666 1.199.801H164v3.064l-15.324-.135v-2.93c1.332-.135 1.732.133 3.197-.135.934-.266 1.732-.799 2.533-1.598 2.797-3.465 5.861-6.93 8.926-10.395l-.266-.398a270.248 270.248 0 0 0-7.994-10.393c-.666-1.066-2.266-1.199-3.73-1.199h-1.467v-3.199h16.389v3.064c-.533.268-1.465 0-2.131.135-.533 0-.801.266-1.199.531-.268.4-.4 1.066-.133 1.467l4.129 5.33h.4c1.6-1.732 3.197-3.73 4.797-5.73.266-.398.266-1.066-.133-1.465l-.533-.133-2.664-.135-.135-3.064h14.258v3.064s-4.131-.266-5.197 1.066c-2.664 3.332-5.463 6.396-8.127 9.727l.533.801 8.793 11.191c1.066 1.467 3.199 1.332 5.33 1.332v3.2zM39.95 134.609h-2.398c-.133 1.465.133 2.932-.4 4.264-.267.533-.799.666-1.333.533-.533-.133-.933-.4-1.199-.934-.399-2.398-.133-5.062-.666-7.461-.666-2.398-2.798-2.932-4.797-3.465-.133 0-.267-.398 0-.398 2.265-.533 4.131-.801 5.729-2.398 1.732-1.467 2.532-4.797 1.732-7.463-1.199-3.598-4.664-4.662-7.728-4.797H8.771v2.799c1.466.133 3.064 0 4.264.4.4.133.533.666.667 1.064v18.121l-.267 3.73c-.799 1.867-3.464 1.066-4.93 1.334v2.932H24.36v-3.064h-3.331l-.933-.135c-.4-.266-.533-.799-.533-1.332v-9.459l.4-.268c1.732-.133 2.798-.266 5.063 0 1.333.268 2.265 1.199 2.931 2.398.933 2.799.533 5.863 1.066 8.928.267 1.732 1.333 2.797 2.665 3.33 2.132.801 5.197.801 6.796-.533 1.865-1.997 1.332-5.462 1.466-8.126zm-13.192-9.859c-3.464.133-4.397.133-6.929.133l-.267-.268v-8.66c0-.266.533-.4.8-.4 1.999.4 6.662-.666 8.527 1.066 1.066 1.066 1.865 2.932 1.466 4.93-.666 1.732-1.864 3.064-3.597 3.199zM72.728 116.889c-2.532-2.799-5.597-4.398-9.727-4.932-1.066-.133-1.066 0-2.265-.133-3.464.133-6.662 1.332-9.46 3.332-4.397 3.197-7.195 10.26-5.463 16.654 1.599 5.996 5.596 9.861 10.66 11.459 1.466.268 3.998.533 5.33.533 6.129-.133 10.926-3.598 13.724-9.326 2.53-5.73 1.064-13.591-2.799-17.587zm-5.064 19.32c-1.466 2.264-4.13 3.73-6.662 3.598-1.333 0-2.931-.268-3.998-1.066-3.864-2.266-4.93-7.994-4.53-13.059.266-3.996 2.131-8.127 5.33-9.461 1.332-.666 2.798-.531 4.663-.531 2.266.398 4.264 1.865 5.463 4.129 2.399 4.663 2.399 11.859-.266 16.39z" fill="#526364"/></g></svg>