<svg xmlns="http://www.w3.org/2000/svg" xmlns:xlink="http://www.w3.org/1999/xlink" width="500" zoomAndPan="magnify" viewBox="0 0 375 374.999991" height="500" preserveAspectRatio="xMidYMid meet" version="1.0"><path fill="#967b5a" d="M 226.105469 209.0625 C 252.007812 192.109375 296.65625 189.902344 375 187.5 C 296.65625 185.097656 252.007812 182.890625 226.105469 165.9375 C 233.824219 148.519531 250.457031 128.335938 276.03125 98.96875 C 246.664062 124.542969 226.480469 141.175781 209.0625 148.894531 C 192.109375 122.992188 189.902344 78.34375 187.5 0 C 185.097656 78.34375 182.890625 122.992188 165.9375 148.894531 C 148.519531 141.175781 128.335938 124.542969 98.96875 98.96875 C 124.542969 128.335938 141.175781 148.519531 148.894531 165.9375 C 122.992188 182.890625 78.34375 185.097656 0 187.5 C 78.34375 189.902344 122.992188 192.109375 148.894531 209.0625 C 141.175781 226.480469 124.542969 246.664062 98.96875 276.03125 C 128.335938 250.457031 148.519531 233.824219 165.9375 226.105469 C 182.890625 252.007812 185.097656 296.65625 187.5 375 C 189.902344 296.65625 192.109375 252.007812 209.0625 226.105469 C 226.480469 233.824219 246.664062 250.457031 276.03125 276.03125 C 250.457031 246.664062 233.824219 226.480469 226.105469 209.0625 Z M 226.105469 209.0625 " fill-opacity="1" fill-rule="nonzero"/></svg>