<?xml version="1.0" encoding="UTF-8"?>
<svg width="116px" height="40px" viewBox="0 0 116 40" version="1.1" xmlns="http://www.w3.org/2000/svg" xmlns:xlink="http://www.w3.org/1999/xlink">
    <title>logo</title>
    <g id="💎-Blocks" stroke="none" stroke-width="1" fill="none" fill-rule="evenodd">
        <g id="_Styleguide" transform="translate(-172.000000, -197.000000)">
            <g id="Group" transform="translate(172.000000, 196.000000)">
                <g id="logo" transform="translate(0.000000, 1.000000)">
                    <path d="M34.875,0 C38.8100292,0 42,3.3578652 42,7.5 L42,32.5 C42,36.642136 38.8100292,40 34.875,40 L11.1250004,40 C7.1899708,40 4,36.642136 4,32.5 L4,7.5 C4,3.3578652 7.18997118,0 11.1250004,0 L34.875,0 Z" id="2" fill-opacity="0.2" fill="#0D6EFD"></path>
                    <path d="M30.875,0 C34.8100292,0 38,3.3578652 38,7.5 L38,32.5 C38,36.642136 34.8100292,40 30.875,40 L7.12500038,40 C3.1899708,40 0,36.642136 0,32.5 L0,7.5 C0,3.3578652 3.18997118,0 7.12500038,0 L30.875,0 Z" id="1" fill="#0D6EFD"></path>
                    <g id="Group-2" opacity="0.60083574" transform="translate(11.000000, 9.000000)" fill="#FFFFFF">
                        <path d="M8,0 C10.4866886,0 12.5048408,2.02690005 12.5048408,4.52167206 L13.4038928,4.52380956 C14.400135,4.52380956 15.2581205,5.33313185 15.320036,6.3279595 L15.9964336,17.1958499 C16.0584464,18.1922549 15.3044928,19 14.311204,19 L1.68878234,19 C0.696042352,19 -0.058361792,18.1906779 0.00355432992,17.1958499 L0.679950352,6.3279595 C0.74196464,5.33155485 1.59816672,4.52380956 2.59609408,4.52380956 L3.49514576,4.52380956 C3.49514576,2.02554744 5.51496128,0 8,0 Z M3.49535993,6.333299 L2.59630848,6.333299 C2.54996617,6.333299 2.48125644,6.39803213 2.47859464,6.44079996 L1.8162718,17.190418 L14.1907118,17.1880812 L13.5218213,6.44079996 C13.5192605,6.39966212 13.4488183,6.333299 13.4041075,6.333299 L12.5050569,6.333299 L12.5050569,8.14282278 C12.5050569,8.64250898 12.1016786,9.04758461 11.6040863,9.04758461 C11.1064949,9.04758461 10.703117,8.64250898 10.703117,8.14282278 L10.703117,6.333299 L5.29729928,6.333299 L5.29729928,8.14282278 C5.29729928,8.64250898 4.89392149,9.04758461 4.39632979,9.04758461 C3.89873797,9.04758461 3.49535993,8.64250898 3.49535993,8.14282278 L3.49535993,6.333299 Z M7.9988485,1.8101686 C6.50844797,1.8101686 5.295938,3.02611892 5.295938,4.52231767 L10.701759,4.5244549 C10.701759,3.02686698 9.490311,1.8101686 7.9988485,1.8101686 Z" id="Combined-Shape"></path>
                    </g>
                </g>
                <g id="text" transform="translate(49.000000, 8.000000)">
                    <path d="M7.85484359,17.2648233 C11.7326845,17.2648233 13.7980572,15.2416016 13.7980572,12.4933922 C13.7980572,9.93907606 11.9687261,8.39636806 10.0045164,8.30363725 L10.0045164,8.13503639 C11.8001254,7.73039235 13.1236491,6.45744903 13.1236491,4.42579779 C13.1236491,1.8377589 11.2015903,0 7.3911885,0 L0.47851562,0 L0.47851562,17.2648233 L7.85484359,17.2648233 Z M4.12874436,9.69460304 L7.18886632,9.69460304 C8.94232497,9.69460304 10.029807,10.7062149 10.029807,12.130899 C10.029807,13.4291336 9.14464779,14.2805713 7.10456627,14.2805713 L4.12874436,14.2805713 L4.12874436,9.69460304 Z M4.12874436,2.95053069 L6.90224377,2.95053069 C8.52082087,2.95053069 9.43969958,3.78510971 9.43969958,5.03276401 C9.43969958,6.3984378 8.32692889,7.22458731 6.8348029,7.22458731 L4.12874436,7.22458731 L4.12874436,2.95053069 Z M19.2587523,17.2648233 L19.2587523,9.93907606 C19.2587523,8.34578878 20.4221041,7.24987704 22.0069608,7.24987704 C22.504336,7.24987704 23.187173,7.3341773 23.5243771,7.44376833 L23.5243771,4.257195 C23.2040328,4.18132459 22.7572381,4.13074356 22.3947441,4.13074356 C20.94477,4.13074356 19.7561262,4.97375331 19.2840422,6.57547079 L19.1491597,6.57547079 L19.1491597,4.31620553 L15.6675343,4.31620553 L15.6675343,17.2648233 L19.2587523,17.2648233 Z M32.049406,15.4692144 L32.1505677,15.4692144 L32.1505677,17.2648233 L35.5563227,17.2648233 L35.5563227,8.53125004 C35.5563227,5.44583754 32.942998,4.14760466 30.0599076,4.14760466 C26.9576346,4.14760466 24.9175525,5.63129986 24.4201798,7.99172543 L27.7416315,8.26148817 C27.9861053,7.40161855 28.7532424,6.76936138 30.0430459,6.76936138 C31.2654085,6.76936138 31.9651066,7.38475868 31.9651066,8.44694979 L31.9651066,8.49752959 C31.9651066,9.33210808 31.0799493,9.44170052 28.8291154,9.66088364 C26.2663681,9.89692576 23.964953,10.7567947 23.964953,13.6483159 C23.964953,16.2110622 25.7942815,17.509296 28.264296,17.509296 C30.1779284,17.509296 31.4171476,16.6747172 32.049406,15.4692144 Z M27.3959998,13.5302945 C27.3959998,12.5186839 28.2305772,12.0213066 29.4950895,11.8442753 C30.2790889,11.7346847 31.5604622,11.5492227 31.9903965,11.2625999 L31.9903965,12.6367058 C31.9903965,13.9939494 30.8691976,15.0308499 29.2927711,15.0308499 C28.18843,15.0308499 27.3959998,14.5166152 27.3959998,13.5302945 Z M43.9485814,7.13185598 C45.3901292,7.13185598 46.2584286,8.07602621 46.2499946,9.66088364 L46.2499946,17.2648233 L49.8412151,17.2648233 L49.8412151,9.02019468 C49.8412151,6.00222309 48.0708954,4.14760466 45.3732643,4.14760466 C43.4512062,4.14760466 42.0602428,5.09177384 41.4785669,6.60076051 L41.3268252,6.60076051 L41.3268252,4.31620553 L37.904208,4.31620553 L37.904208,17.2648233 L41.4954247,17.2648233 L41.4954247,9.77890417 C41.5038543,8.10974649 42.4986054,7.13185598 43.9485814,7.13185598 Z M60.6803083,15.1910214 L60.832048,15.1910214 L60.832048,17.2648233 L64.3726886,17.2648233 L64.3726886,0 L60.7899059,0 L60.7899059,6.49116825 L60.6803083,6.49116825 C60.1997921,5.43740752 59.1628881,4.14760466 56.9963555,4.14760466 C54.1554161,4.14760466 51.75284,6.35628837 51.75284,10.8073755 C51.75284,15.1404423 54.0542589,17.4755748 57.0047896,17.4755748 C59.0954491,17.4755748 60.1829305,16.2700729 60.6803083,15.1910214 Z M55.4199266,10.7905144 C55.4199266,8.54811045 56.3640952,7.00540402 58.142847,7.00540402 C59.8878736,7.00540402 60.8657675,8.48067024 60.8657675,10.7905144 C60.8657675,13.100359 59.8710119,14.6177758 58.142847,14.6177758 C56.380955,14.6177758 55.4199266,13.0497781 55.4199266,10.7905144 Z" id="Brand" fill="#0D6EFD"></path>
                    <path d="M4.18942357,27.6818106 L4.18942357,26.8201722 L0.998867222,26.8201722 L0.998867222,24.7891677 L3.93404972,24.7891677 L3.93404972,23.9307691 L0.998867222,23.9307691 L0.998867222,21.9094828 L4.15063238,21.9094828 L4.15063238,21.0478446 L0,21.0478446 L0,27.6818106 L4.18942357,27.6818106 Z M9.10159356,26.1075396 L8.16091289,26.1075396 C8.03807509,26.6452534 7.62107111,26.9626989 7.06830034,26.9626989 C6.25045747,26.9626989 5.72354769,26.2792185 5.72354769,25.1940729 C5.72354769,24.1283629 6.26015505,23.45784 7.06830034,23.45784 C7.68249001,23.45784 8.05747025,23.8465486 8.16091289,24.3129997 L9.10159356,24.3129997 C8.99815025,23.3088346 8.18030738,22.6415516 7.05213726,22.6415516 C5.65243021,22.6415516 4.74730845,23.6975439 4.74730845,25.2167477 C4.74730845,26.7165169 5.62010472,27.782227 7.06183517,27.782227 C8.23526145,27.782227 8.9949175,27.0760726 9.10159356,26.1075396 Z M14.1042752,25.2167477 C14.1042752,23.6683906 13.1894552,22.6415516 11.7897488,22.6415516 C10.3900411,22.6415516 9.47522107,23.6683906 9.47522107,25.2167477 C9.47522107,26.7553872 10.3900411,27.782227 11.7897488,27.782227 C13.1894552,27.782227 14.1042752,26.7553872 14.1042752,25.2167477 Z M10.45146,25.2135087 C10.45146,24.2611717 10.8781602,23.4513613 11.7929802,23.4513613 C12.7013347,23.4513613 13.1280363,24.2611717 13.1280363,25.2135087 C13.1280363,26.1690847 12.7013347,26.9691773 11.7929802,26.9691773 C10.8781602,26.9691773 10.45146,26.1690847 10.45146,25.2135087 Z M15.7127475,27.6818106 L15.7127475,24.6142489 C15.7127475,23.9437259 16.1814715,23.4772755 16.7310109,23.4772755 C17.2676192,23.4772755 17.6393647,23.8335919 17.6393647,24.3745451 L17.6393647,27.6818106 L18.6026739,27.6818106 L18.6026739,24.5105934 C18.6026739,23.9113338 18.9679559,23.4772755 19.5983107,23.4772755 C20.1090564,23.4772755 20.5292911,23.7623286 20.5292911,24.4360905 L20.5292911,27.6818106 L21.4958331,27.6818106 L21.4958331,24.3453922 C21.4958331,23.2084186 20.8622483,22.6415516 19.9635907,22.6415516 C19.2491891,22.6415516 18.7125841,22.9849105 18.473372,23.5161463 L18.42165,23.5161463 C18.2050678,22.9719537 17.7492715,22.6415516 17.0865946,22.6415516 C16.4303805,22.6415516 15.9422614,22.9687144 15.7353768,23.5161463 L15.6739565,23.5161463 L15.6739565,22.706336 L14.7462055,22.706336 L14.7462055,27.6818106 L15.7127475,27.6818106 Z M23.3208897,27.6818106 L23.3208897,24.6142489 C23.3208897,23.9437259 23.7896136,23.4772755 24.339153,23.4772755 C24.87576,23.4772755 25.2475068,23.8335919 25.2475068,24.3745451 L25.2475068,27.6818106 L26.2108154,27.6818106 L26.2108154,24.5105934 C26.2108154,23.9113338 26.5760981,23.4772755 27.2064501,23.4772755 C27.7171978,23.4772755 28.1374339,23.7623286 28.1374339,24.4360905 L28.1374339,27.6818106 L29.1039726,27.6818106 L29.1039726,24.3453922 C29.1039726,23.2084186 28.4703884,22.6415516 27.5717308,22.6415516 C26.8573319,22.6415516 26.3207222,22.9849105 26.0815121,23.5161463 L26.0297921,23.5161463 C25.8132079,22.9719537 25.3574143,22.6415516 24.6947354,22.6415516 C24.0385213,22.6415516 23.5504022,22.9687144 23.3435169,23.5161463 L23.282098,23.5161463 L23.282098,22.706336 L22.3543477,22.706336 L22.3543477,27.6818106 L23.3208897,27.6818106 Z M34.1712998,26.4379421 L33.2564838,26.2727403 C33.0819254,26.7424302 32.6616893,26.9821347 32.1121513,26.9821347 C31.2846095,26.9821347 30.7286073,26.4444202 30.7027473,25.4856047 L34.2327254,25.4856047 L34.2327254,25.1422456 C34.2327254,23.3444663 33.159506,22.6415516 32.0345673,22.6415516 C30.6510233,22.6415516 29.7394374,23.6975439 29.7394374,25.2264654 C29.7394374,26.7715834 30.6380963,27.782227 32.102455,27.782227 C33.1853693,27.782227 33.9514862,27.2477522 34.1712998,26.4379421 Z M32.0410348,23.4416439 C32.7909926,23.4416439 33.2823438,23.9987932 33.2855766,24.7600148 L30.7059794,24.7600148 C30.7447711,24.0538604 31.2555168,23.4416439 32.0410348,23.4416439 Z M35.8347356,27.6818106 L35.8347356,24.6434022 C35.8347356,23.9923146 36.3357817,23.5226245 37.0210865,23.5226245 C37.2215083,23.5226245 37.4477894,23.558256 37.5253734,23.5809309 L37.5253734,22.654508 C37.4283929,22.6415511 37.2376754,22.6318334 37.1148343,22.6318334 C36.5329721,22.6318334 36.0351527,22.9622363 35.8541254,23.4967107 L35.8024014,23.4967107 L35.8024014,22.706336 L34.8681936,22.706336 L34.8681936,27.6818106 L35.8347356,27.6818106 Z M41.8783064,26.1075396 L40.9376231,26.1075396 C40.8147853,26.6452534 40.397784,26.9626989 39.8450139,26.9626989 C39.0271717,26.9626989 38.5002596,26.2792185 38.5002596,25.1940729 C38.5002596,24.1283629 39.0368666,23.45784 39.8450139,23.45784 C40.4592029,23.45784 40.8341818,23.8465486 40.9376231,24.3129997 L41.8783064,24.3129997 C41.7748618,23.3088346 40.9570196,22.6415516 39.8288468,22.6415516 C38.4291431,22.6415516 37.52402,23.6975439 37.52402,25.2167477 C37.52402,26.7165169 38.3968156,27.782227 39.8385484,27.782227 C41.011973,27.782227 41.7716324,27.0760726 41.8783064,26.1075396 Z M46.6837977,26.4379421 L45.7689797,26.2727403 C45.5944206,26.7424302 45.1741832,26.9821347 44.6246445,26.9821347 C43.7971047,26.9821347 43.2411032,26.4444202 43.2152412,25.4856047 L46.7452186,25.4856047 L46.7452186,25.1422456 C46.7452186,23.3444663 45.6720039,22.6415516 44.5470605,22.6415516 C43.1635172,22.6415516 42.2519313,23.6975439 42.2519313,25.2264654 C42.2519313,26.7715834 43.1505929,27.782227 44.6149516,27.782227 C45.6978659,27.782227 46.4639841,27.2477522 46.6837977,26.4379421 Z M44.553526,23.4416439 C45.3034905,23.4416439 45.794839,23.9987932 45.7980738,24.7600148 L43.2184773,24.7600148 C43.2572663,24.0538604 43.7680113,23.4416439 44.553526,23.4416439 Z M51.3311636,26.8655217 C50.733135,26.8655217 50.3193671,26.4314629 50.3193671,25.7544614 L50.3193671,22.706336 L49.3528258,22.706336 L49.3528258,25.8710744 C49.3528258,27.1052251 50.0284377,27.7465953 50.9820467,27.7465953 C51.7287731,27.7465953 52.2362847,27.3514078 52.4657999,26.8201722 L52.5175239,26.8201722 L52.5175239,27.6818106 L53.4678995,27.6818106 L53.4678995,22.706336 L52.4981247,22.706336 L52.4981247,25.6184136 C52.5013581,26.4638557 51.8742368,26.8655217 51.3311636,26.8655217 Z M55.2961887,27.6818106 L55.2961887,22.706336 L54.3296474,22.706336 L54.3296474,27.6818106 L55.2961887,27.6818106 Z M55.4287248,21.3620508 C55.4287248,21.0446053 55.1507217,20.782227 54.8177652,20.782227 C54.4815793,20.782227 54.2068056,21.0446053 54.2068056,21.3620508 C54.2068056,21.6794968 54.4815793,21.9386358 54.8177652,21.9386358 C55.1507217,21.9386358 55.4287248,21.6794968 55.4287248,21.3620508 Z M59.0982344,27.6818106 L59.0982344,25.9164239 L59.579884,25.4337767 L61.2672944,27.6818106 L62.4536547,27.6818106 L60.3072186,24.840996 L62.3178792,22.706336 L61.1606217,22.706336 L59.1822825,24.8118428 L59.0982344,24.8118428 L59.0982344,21.0478446 L58.1316897,21.0478446 L58.1316897,27.6818106 L59.0982344,27.6818106 Z M63.7283599,27.6818106 L63.7283599,22.706336 L62.7618185,22.706336 L62.7618185,27.6818106 L63.7283599,27.6818106 Z M63.8608959,21.3620508 C63.8608959,21.0446053 63.5828962,20.782227 63.2499363,20.782227 C62.9137504,20.782227 62.6389834,21.0446053 62.6389834,21.3620508 C62.6389834,21.6794968 62.9137504,21.9386358 63.2499363,21.9386358 C63.5828962,21.9386358 63.8608959,21.6794968 63.8608959,21.3620508 Z M65.8912237,22.706336 L65.8912237,21.5142954 L64.9246844,21.5142954 L64.9246844,22.706336 L64.1973538,22.706336 L64.1973538,23.4837538 L64.9246844,23.4837538 L64.9246844,26.4217453 C64.9214496,27.3254934 65.6099912,27.7627915 66.37288,27.7465953 C66.6799745,27.743356 66.8868598,27.6850495 67,27.6429389 L66.8254355,26.8428466 C66.7607832,26.8558039 66.6411882,26.8849568 66.4860229,26.8849568 C66.1724609,26.8849568 65.8912237,26.7813012 65.8912237,26.2209125 L65.8912237,23.4837538 L66.909487,23.4837538 L66.909487,22.706336 L65.8912237,22.706336 Z" id="Ecommerce-ui-kit" fill="#ACACAC"></path>
                </g>
            </g>
        </g>
    </g>
</svg>