<?xml version="1.0" standalone="no"?>
<!DOCTYPE svg PUBLIC "-//W3C//DTD SVG 20010904//EN"
 "http://www.w3.org/TR/2001/REC-SVG-20010904/DTD/svg10.dtd">
<svg version="1.0" xmlns="http://www.w3.org/2000/svg"
 width="626.000000pt" height="316.000000pt" viewBox="0 0 626.000000 316.000000"
 preserveAspectRatio="xMidYMid meet">

<g transform="translate(0.000000,316.000000) scale(0.100000,-0.100000)"
fill="#000000" stroke="none">
<path d="M0 1580 l0 -1580 3130 0 3130 0 0 1580 0 1580 -3130 0 -3130 0 0
-1580z m3380 810 c24 -16 -6 -29 -46 -20 -18 4 -35 5 -38 3 -2 -3 -10 -2 -17
3 -9 5 -7 10 7 15 27 11 77 10 94 -1z m215 -19 c3 -5 2 -12 -3 -15 -12 -7 -52
4 -52 15 0 12 47 12 55 0z m258 -85 c4 -10 -2 -12 -23 -10 -24 3 -28 0 -23
-14 6 -15 5 -15 -10 -3 -16 13 -16 14 0 27 23 17 49 18 56 0z m-438 -24 c-3
-3 -11 0 -18 7 -9 10 -8 11 6 5 10 -3 15 -9 12 -12z m85 -2 c7 10 10 11 10 3
0 -7 5 -13 11 -13 12 0 38 -29 39 -42 0 -4 -26 4 -57 18 -64 28 -96 51 -44 31
27 -10 33 -9 41 3z m171 -57 c13 -17 13 -17 -6 -3 -11 8 -22 16 -24 17 -2 2 0
3 6 3 6 0 17 -8 24 -17z m-1304 -19 c-3 -3 -12 -4 -19 -1 -8 3 -5 6 6 6 11 1
17 -2 13 -5z m1304 -22 c-7 -2 -18 1 -23 6 -8 8 -4 9 13 5 13 -4 18 -8 10 -11z
m59 -14 c0 -6 -6 -5 -15 2 -8 7 -15 14 -15 16 0 2 7 1 15 -2 8 -4 15 -11 15
-16z m152 -12 c4 3 9 1 13 -5 3 -6 0 -11 -7 -11 -19 1 -49 26 -41 34 4 4 13 0
19 -8 6 -9 13 -13 16 -10z m-1257 -66 c3 -5 1 -10 -4 -10 -6 0 -11 5 -11 10 0
6 2 10 4 10 3 0 8 -4 11 -10z m168 -7 c-7 -2 -19 -2 -25 0 -7 3 -2 5 12 5 14
0 19 -2 13 -5z m-88 -13 c-3 -5 -12 -10 -18 -10 -7 0 -6 4 3 10 19 12 23 12
15 0z m-983 -21 c-13 -5 -20 -13 -17 -19 4 -6 3 -10 -2 -9 -35 6 -52 -5 -77
-48 -15 -27 -24 -37 -20 -23 10 42 34 71 65 82 16 5 29 14 29 19 0 5 10 9 23
8 l22 0 -23 -10z m513 -39 c-3 -5 -12 -10 -18 -10 -7 0 -6 4 3 10 19 12 23 12
15 0z m598 -57 c-7 -2 -19 -2 -25 0 -7 3 -2 5 12 5 14 0 19 -2 13 -5z m-1178
-23 c-3 -5 -12 -10 -18 -10 -7 0 -6 4 3 10 19 12 23 12 15 0z m-99 -7 c-10
-11 -37 -12 -30 -2 3 5 12 9 21 9 9 0 13 -3 9 -7z m44 -37 c-14 -14 -24 0 -16
21 6 15 8 15 16 3 6 -9 5 -19 0 -24z m2879 15 c13 -12 20 -25 15 -32 -5 -8
-12 -4 -25 12 -31 40 -25 50 10 20z m-2204 -2 c-6 -9 -45 -8 -45 2 0 4 11 7
25 7 13 0 22 -4 20 -9z m-776 -20 c-22 -14 -33 -10 -19 6 7 8 17 12 22 9 6 -4
5 -10 -3 -15z m1591 -3 c35 2 60 0 60 -6 0 -6 4 -10 9 -10 5 0 22 -5 38 -12
15 -6 36 -10 46 -9 10 1 27 -5 37 -14 9 -9 21 -15 26 -13 5 1 35 -14 67 -35
31 -20 62 -37 67 -37 5 0 12 -17 16 -37 4 -21 11 -44 17 -51 5 -7 7 -15 4 -19
-4 -3 -12 7 -19 23 -7 16 -28 45 -47 64 -19 19 -27 25 -18 14 10 -12 19 -35
21 -50 2 -16 15 -42 31 -57 18 -19 24 -31 17 -40 -5 -7 -12 -25 -16 -40 -4
-16 -17 -33 -31 -39 -14 -6 -25 -15 -25 -20 0 -4 -6 -8 -14 -8 -8 0 -17 -7
-20 -16 -3 -8 -10 -12 -16 -9 -5 3 -10 -1 -10 -9 0 -9 -9 -16 -20 -16 -11 0
-20 -4 -20 -9 0 -4 11 -6 25 -3 14 2 25 0 25 -5 0 -5 -8 -9 -17 -10 -38 -3
-58 -8 -64 -17 -4 -5 -18 -8 -32 -8 -17 0 -24 -5 -20 -13 5 -14 -13 -15 -34
-2 -8 5 -13 3 -13 -4 0 -10 -3 -10 -12 -1 -17 17 -26 15 -24 -5 0 -10 -7 -18
-19 -20 l-20 -3 20 9 c20 9 18 11 -20 15 -5 1 -16 5 -22 9 -8 5 -13 4 -13 -2
0 -15 -63 -14 -81 2 -22 17 -60 87 -49 87 6 0 6 9 0 24 -5 13 -6 27 -2 32 4 4
0 5 -10 1 -9 -3 -23 2 -32 12 -16 18 -22 36 -8 28 4 -3 13 1 19 9 8 8 9 15 3
19 -6 3 -10 1 -10 -4 0 -6 -7 -11 -14 -11 -13 0 -13 7 0 51 17 57 13 69 -17
51 -18 -11 -18 -11 -7 8 7 11 18 20 25 20 7 0 13 7 13 16 0 13 -3 14 -13 5 -8
-6 -24 -9 -37 -6 -33 6 -38 15 -9 15 28 0 79 21 79 33 0 4 -7 7 -15 7 -8 0
-15 7 -15 15 0 9 10 15 26 15 18 0 28 6 31 21 3 11 11 18 17 16 6 -3 17 2 24
9 7 8 8 14 2 14 -20 0 -9 15 23 30 22 10 33 12 35 4 2 -7 24 -10 62 -8z m-580
9 c0 -2 -10 -10 -22 -16 -21 -11 -22 -11 -9 4 13 16 31 23 31 12z m95 -5 c-3
-5 -12 -10 -20 -10 -8 0 -17 -5 -21 -12 -5 -7 -2 -9 9 -5 11 4 14 2 10 -9 -6
-17 -20 -18 -25 -2 -2 6 -20 -4 -40 -25 -26 -25 -34 -30 -31 -16 3 11 28 35
57 54 51 35 72 43 61 25z m103 -2 c-3 -7 -13 -15 -24 -17 -16 -3 -17 -1 -5 13
16 19 34 21 29 4z m-1262 -38 c0 -12 -4 -16 -9 -11 -5 5 -6 14 -3 20 10 15 12
14 12 -9z m1889 11 c3 -5 2 -12 -3 -15 -5 -3 -9 1 -9 9 0 17 3 19 12 6z
m-1192 -18 c-7 -20 -23 -33 -38 -33 -5 1 -2 7 8 14 9 7 17 18 17 25 0 6 4 11
10 11 5 0 6 -8 3 -17z m1303 -20 c-5 -5 -11 -2 -13 5 -3 6 -9 10 -14 7 -5 -4
-6 1 -3 10 6 15 8 15 22 1 9 -9 12 -19 8 -23z m-1494 2 c0 -5 -5 -11 -11 -13
-6 -2 -11 4 -11 13 0 9 5 15 11 13 6 -2 11 -8 11 -13z m2038 5 c0 -5 -1 -12
-2 -14 -2 -2 5 -13 14 -23 23 -25 35 -107 17 -118 -9 -6 -11 -4 -6 7 3 10 -4
25 -18 38 -18 17 -22 27 -15 48 4 15 3 37 -1 50 -5 13 -5 22 1 22 6 0 10 -4
10 -10z m-620 -4 c0 -11 -19 -15 -25 -6 -3 5 1 10 9 10 9 0 16 -2 16 -4z m594
-12 c4 -10 1 -14 -6 -12 -15 5 -23 28 -10 28 5 0 13 -7 16 -16z m-2336 -22 c2
-7 -5 -12 -17 -12 -14 0 -19 5 -14 15 6 17 25 15 31 -3z m862 -51 c-22 -21
-40 -43 -40 -49 0 -5 -7 -12 -15 -16 -9 -3 -20 -16 -25 -28 -7 -18 -9 -19 -9
-5 -1 10 8 27 18 39 11 11 27 34 35 52 9 17 16 24 16 16 0 -11 6 -8 22 8 12
12 26 22 30 22 5 0 -10 -17 -32 -39z m1720 29 c0 -5 -2 -10 -4 -10 -3 0 -8 5
-11 10 -3 6 -1 10 4 10 6 0 11 -4 11 -10z m300 -15 c0 -8 -2 -15 -4 -15 -2 0
-6 7 -10 15 -3 8 -1 15 4 15 6 0 10 -7 10 -15z m-240 -16 c0 -11 -4 -18 -10
-14 -5 3 -7 12 -3 20 7 21 13 19 13 -6z m-2696 -12 c-3 -8 -12 -18 -20 -21
-11 -4 -11 0 2 20 18 26 28 27 18 1z m346 19 c0 -3 -4 -8 -10 -11 -5 -3 -10
-1 -10 4 0 6 5 11 10 11 6 0 10 -2 10 -4z m2170 -16 c6 -11 7 -20 2 -20 -6 0
-12 9 -15 20 -3 11 -3 20 -1 20 2 0 8 -9 14 -20z m-1963 -12 c-3 -8 -6 -5 -6
6 -1 11 2 17 5 13 3 -3 4 -12 1 -19z m1788 -18 c4 -22 4 -54 0 -71 -5 -22 -4
-29 4 -25 18 11 13 -9 -9 -37 -23 -30 -25 -38 -6 -31 7 3 16 -2 20 -11 3 -9
10 -13 16 -10 6 4 7 11 4 17 -4 7 -2 8 5 4 9 -6 9 -11 0 -22 -13 -16 -39 -19
-39 -3 0 5 -5 7 -10 4 -6 -4 -8 -11 -5 -16 4 -5 -1 -9 -9 -9 -14 0 -20 -12
-17 -32 0 -5 -2 -8 -7 -8 -10 0 -35 41 -28 48 3 3 6 -1 6 -8 0 -7 9 -1 20 13
11 14 20 36 20 50 0 13 7 41 15 60 8 20 13 42 11 49 -11 35 -15 78 -7 78 5 0
12 -18 16 -40z m85 -1 c0 -5 -4 -9 -8 -9 -5 0 -9 7 -9 15 0 8 4 12 9 9 4 -3 8
-9 8 -15z m-1626 -3 c-21 -15 -30 -14 -19 3 3 6 14 11 23 11 13 0 13 -2 -4
-14z m1589 -5 c-5 -21 -33 -37 -33 -20 0 11 22 38 32 39 3 0 4 -9 1 -19z
m-1883 5 c0 -2 -7 -7 -16 -10 -8 -3 -12 -2 -9 4 6 10 25 14 25 6z m1478 -41
c-3 -13 0 -26 6 -29 7 -3 7 -5 -1 -5 -17 -1 -23 12 -16 37 7 30 16 28 11 -3z
m1379 -7 c-3 -7 -5 -2 -5 12 0 14 2 19 5 13 2 -7 2 -19 0 -25z m-2082 -8 c-10
-11 -20 -18 -23 -15 -3 3 3 14 13 25 10 11 20 18 23 15 3 -3 -3 -14 -13 -25z
m1020 20 c-3 -5 -12 -10 -18 -10 -7 0 -6 4 3 10 19 12 23 12 15 0z m211 -26
c-4 -9 -9 -15 -11 -12 -3 3 -3 13 1 22 4 9 9 15 11 12 3 -3 3 -13 -1 -22z
m284 1 c0 -8 -4 -15 -10 -15 -5 0 -10 7 -10 15 0 8 5 15 10 15 6 0 10 -7 10
-15z m-774 -32 c-10 -10 -19 5 -10 18 6 11 8 11 12 0 2 -7 1 -15 -2 -18z m954
-5 c0 -5 -4 -8 -10 -8 -5 0 -10 10 -10 23 0 18 2 19 10 7 5 -8 10 -18 10 -22z
m390 28 c0 -3 -4 -8 -10 -11 -5 -3 -10 -1 -10 4 0 6 5 11 10 11 6 0 10 -2 10
-4z m-2530 -10 c0 -3 -4 -8 -10 -11 -5 -3 -10 -1 -10 4 0 6 5 11 10 11 6 0 10
-2 10 -4z m1431 -59 c-10 -26 -31 -37 -31 -17 0 6 4 10 9 10 5 0 12 12 16 28
4 15 9 22 12 16 2 -6 -1 -23 -6 -37z m516 26 c-9 -9 -19 -14 -23 -11 -10 10 6
28 24 28 15 0 15 -1 -1 -17z m-1537 -18 c0 -8 -4 -15 -9 -15 -5 0 -11 7 -15
15 -3 9 0 15 9 15 8 0 15 -7 15 -15z m696 -32 c-1 -21 -24 -38 -34 -28 -4 4
-1 10 6 12 6 3 12 11 12 19 0 8 4 14 9 14 5 0 8 -8 7 -17z m-2086 -28 c-8 -9
-10 -27 -6 -46 3 -18 2 -28 -4 -24 -6 3 -10 17 -10 30 0 29 23 82 28 66 2 -7
-2 -18 -8 -26z m3460 25 c0 -5 -5 -10 -11 -10 -5 0 -7 5 -4 10 3 6 8 10 11 10
2 0 4 -4 4 -10z m-1340 -29 c0 -13 -31 -43 -38 -36 -3 3 3 14 14 24 22 23 24
24 24 12z m1327 -6 c0 -17 -13 -20 -21 -6 -4 5 0 12 6 14 7 3 13 6 14 6 0 1 1
-6 1 -14z m-2847 -20 c0 -14 -3 -25 -7 -25 -5 0 -8 11 -8 25 0 14 3 25 8 25 4
0 7 -11 7 -25z m260 -8 c0 -5 -4 -5 -10 -2 -5 3 -10 14 -10 23 0 15 2 15 10 2
5 -8 10 -19 10 -23z m120 23 c0 -5 -2 -10 -4 -10 -3 0 -8 5 -11 10 -3 6 -1 10
4 10 6 0 11 -4 11 -10z m409 -37 c2 -2 -2 -3 -10 -3 -8 0 -20 10 -28 23 l-14
22 24 -20 c13 -11 26 -21 28 -22z m1118 15 c-3 -8 -6 -5 -6 6 -1 11 2 17 5 13
3 -3 4 -12 1 -19z m-499 -35 c-10 -2 -26 -2 -35 0 -10 3 -2 5 17 5 19 0 27 -2
18 -5z m478 -31 c-8 -9 -18 -13 -22 -10 -3 4 3 15 13 25 10 10 20 15 22 10 2
-5 -4 -16 -13 -25z m184 28 c0 -5 -5 -10 -11 -10 -5 0 -7 5 -4 10 3 6 8 10 11
10 2 0 4 -4 4 -10z m-1748 -72 c13 -10 18 -18 12 -18 -17 0 -74 61 -74 79 0
10 8 4 20 -14 10 -16 30 -37 42 -47z m568 42 c0 -15 -5 -12 -26 11 -19 22 -19
22 4 10 12 -6 22 -16 22 -21z m-1493 -12 c-3 -7 -5 -2 -5 12 0 14 2 19 5 13 2
-7 2 -19 0 -25z m487 -19 c-3 -5 2 -9 10 -9 9 0 16 -6 16 -13 0 -16 77 -97 91
-97 6 0 9 -6 6 -14 -3 -7 0 -20 6 -27 7 -7 3 -6 -9 4 -11 9 -26 17 -33 17 -7
0 -9 4 -6 10 5 8 -21 43 -77 102 -10 10 -18 32 -17 51 0 30 1 30 10 9 5 -13 7
-28 3 -33z m136 30 c0 -6 -4 -7 -10 -4 -5 3 -10 11 -10 16 0 6 5 7 10 4 6 -3
10 -11 10 -16z m2020 1 c0 -5 -4 -10 -10 -10 -5 0 -10 5 -10 10 0 6 5 10 10
10 6 0 10 -4 10 -10z m-463 -22 c-3 -8 -6 -5 -6 6 -1 11 2 17 5 13 3 -3 4 -12
1 -19z m193 -3 c-7 -9 -15 -13 -17 -11 -7 7 7 26 19 26 6 0 6 -6 -2 -15z
m-1717 -31 c3 -20 2 -22 -10 -13 -7 7 -11 14 -8 17 3 3 0 11 -7 19 -8 11 -7
12 5 8 8 -4 17 -17 20 -31z m1472 26 c20 16 26 -4 9 -28 -8 -12 -21 -19 -28
-16 -8 3 -31 1 -52 -5 -21 -6 -42 -7 -47 -2 -10 10 48 35 62 27 6 -4 16 2 23
14 7 11 15 15 16 10 3 -8 8 -7 17 0z m-1520 -20 c10 -11 16 -20 13 -20 -3 0
-13 9 -23 20 -10 11 -16 20 -13 20 3 0 13 -9 23 -20z m2695 16 c0 -3 -4 -8
-10 -11 -5 -3 -10 -1 -10 4 0 6 5 11 10 11 6 0 10 -2 10 -4z m-1785 -26 c3 -6
-1 -7 -9 -4 -18 7 -21 14 -7 14 6 0 13 -4 16 -10z m-1110 -10 c3 -5 -1 -10 -9
-10 -9 0 -16 5 -16 10 0 6 4 10 9 10 6 0 13 -4 16 -10z m1585 -16 c0 -8 -5
-12 -10 -9 -6 4 -8 11 -5 16 9 14 15 11 15 -7z m-235 -6 c5 4 5 2 2 -5 -4 -6
-15 -10 -25 -8 -9 2 -21 4 -25 4 -5 1 -5 6 -2 11 4 7 12 7 24 0 10 -5 22 -6
26 -2z m199 3 c4 -5 -6 -8 -20 -6 -14 1 -31 -3 -37 -10 -12 -13 -50 -8 -42 6
3 4 12 6 20 2 8 -3 15 -1 15 4 0 12 57 16 64 4z m-124 -15 c0 -3 -4 -8 -10
-11 -5 -3 -10 -1 -10 4 0 6 5 11 10 11 6 0 10 -2 10 -4z m202 -22 c-29 -15
-35 -15 -48 -2 -13 12 -9 14 33 16 l48 2 -33 -16z m-1308 -10 c3 -8 2 -12 -4
-9 -6 3 -10 10 -10 16 0 14 7 11 14 -7z m1229 9 c-7 -2 -19 -2 -25 0 -7 3 -2
5 12 5 14 0 19 -2 13 -5z m437 -13 c0 -5 -8 -10 -17 -10 -15 0 -16 2 -3 10 19
12 20 12 20 0z m340 -10 c0 -5 -5 -10 -11 -10 -5 0 -7 5 -4 10 3 6 8 10 11 10
2 0 4 -4 4 -10z m-1820 -4 c0 -11 -19 -15 -25 -6 -3 5 1 10 9 10 9 0 16 -2 16
-4z m1420 -12 c0 -2 -7 -4 -15 -4 -8 0 -15 4 -15 10 0 5 7 7 15 4 8 -4 15 -8
15 -10z m-60 -14 c0 -5 -10 -10 -22 -9 -22 0 -22 1 -3 9 11 5 21 9 23 9 1 1 2
-3 2 -9z m840 -4 c0 -2 -8 -10 -17 -17 -16 -13 -17 -12 -4 4 13 16 21 21 21
13z m-2439 -46 c5 0 9 -5 9 -11 0 -8 -5 -8 -15 1 -8 7 -14 20 -14 29 1 13 2
13 6 -1 2 -10 9 -18 14 -18z m864 9 c5 -5 -5 -4 -23 2 -17 6 -32 13 -32 16 0
7 43 -8 55 -18z m770 1 c4 -6 11 -8 16 -5 5 4 9 0 9 -9 0 -8 3 -23 6 -33 4
-13 3 -15 -4 -4 -7 9 -15 10 -28 4 -21 -10 -61 -10 -71 1 -3 3 1 6 11 6 9 0
21 11 26 25 10 26 24 32 35 15z m85 -50 c0 -5 -2 -10 -4 -10 -3 0 -8 5 -11 10
-3 6 -1 10 4 10 6 0 11 -4 11 -10z m260 -10 c0 -5 -7 -10 -16 -10 -8 0 -12 5
-9 10 3 6 10 10 16 10 5 0 9 -4 9 -10z m239 6 c-10 -8 -103 -59 -99 -53 14 16
76 55 89 56 8 1 12 -1 10 -3z m-1324 -16 c-3 -5 -12 -10 -18 -10 -7 0 -6 4 3
10 19 12 23 12 15 0z m70 0 c3 -5 -1 -10 -9 -10 -9 0 -16 5 -16 10 0 6 4 10 9
10 6 0 13 -4 16 -10z m560 0 c-3 -5 -14 -10 -23 -9 -14 0 -13 2 3 9 27 11 27
11 20 0z m60 0 c3 -5 -1 -10 -9 -10 -8 0 -18 5 -21 10 -3 6 1 10 9 10 8 0 18
-4 21 -10z m720 -11 c-4 -5 -12 -9 -20 -9 -8 0 -18 -7 -23 -15 -7 -14 -11 -13
-27 5 -15 16 -21 18 -34 8 -13 -10 -14 -10 -4 2 7 7 23 15 35 17 16 2 19 0 10
-6 -11 -7 -11 -9 1 -14 8 -3 23 3 33 12 19 18 40 18 29 0z m-2190 1 c3 -5 2
-10 -4 -10 -5 0 -13 5 -16 10 -3 6 -2 10 4 10 5 0 13 -4 16 -10z m815 0 c0 -5
-4 -10 -10 -10 -5 0 -10 5 -10 10 0 6 5 10 10 10 6 0 10 -4 10 -10z m807 3
c-4 -3 -2 -12 4 -20 9 -10 8 -13 -3 -13 -22 0 -29 12 -17 27 6 7 14 13 17 13
3 0 2 -3 -1 -7z m43 3 c0 -3 -4 -8 -10 -11 -5 -3 -10 -1 -10 4 0 6 5 11 10 11
6 0 10 -2 10 -4z m-109 -25 c-11 -7 -10 -10 4 -18 10 -6 14 -13 9 -16 -13 -8
-47 20 -39 32 3 6 14 11 23 11 14 0 14 -2 3 -9z m-860 -51 c5 0 9 -4 9 -10 0
-15 -20 -12 -38 7 -16 16 -16 16 1 10 10 -4 23 -7 28 -7z m1019 0 c-8 -5 -19
-10 -25 -10 -5 0 -3 5 5 10 8 5 20 10 25 10 6 0 3 -5 -5 -10z m-204 -9 c-4 -5
0 -12 6 -14 8 -3 6 -6 -4 -6 -18 -1 -24 10 -11 22 9 10 15 8 9 -2z m-69 -7
c-3 -3 -12 -4 -19 -1 -8 3 -5 6 6 6 11 1 17 -2 13 -5z m123 -12 c0 -5 -7 -9
-15 -9 -8 0 -12 4 -9 9 3 4 9 8 15 8 5 0 9 -4 9 -8z m-1045 -22 c3 -5 2 -10
-4 -10 -5 0 -13 5 -16 10 -3 6 -2 10 4 10 5 0 13 -4 16 -10z m1075 -4 c0 -2
-7 -6 -15 -10 -8 -3 -15 -1 -15 4 0 6 7 10 15 10 8 0 15 -2 15 -4z m-893 -21
c0 -8 -6 -15 -14 -15 -17 0 -17 17 0 23 6 3 12 6 13 6 0 1 1 -6 1 -14z m1240
-112 c-14 -14 -19 -15 -29 -4 -9 9 -9 12 -1 7 6 -3 14 -2 18 4 3 5 11 10 18
10 6 0 4 -7 -6 -17z m-592 -63 c4 -6 -6 -10 -22 -10 -22 0 -25 2 -13 10 19 12
27 12 35 0z m-95 -10 c12 -8 11 -10 -7 -10 -12 0 -25 5 -28 10 -8 13 15 13 35
0z m-1142 -472 c-2 -25 -8 -34 -25 -36 -20 -3 -23 1 -23 32 0 32 3 36 26 36
23 0 25 -3 22 -32z m32 7 c0 -18 5 -25 19 -25 12 0 21 9 25 25 8 32 24 32 36
-1 14 -36 13 -49 -4 -35 -10 8 -21 9 -42 1 -15 -6 -33 -9 -41 -6 -15 6 -18 66
-3 66 6 0 10 -11 10 -25z m150 15 c0 -6 -8 -10 -17 -8 -11 2 -18 -3 -18 -12 0
-8 8 -14 18 -14 18 2 23 -11 8 -20 -26 -17 -60 26 -40 50 13 16 49 19 49 4z
m31 -2 c0 -10 2 -10 6 0 2 6 12 12 20 12 13 0 13 -3 3 -15 -10 -12 -10 -18 0
-30 15 -18 -1 -20 -18 -3 -9 9 -12 9 -12 0 0 -7 -4 -12 -10 -12 -5 0 -10 14
-10 30 0 28 19 44 21 18z m96 0 c10 25 23 11 23 -25 -1 -34 -2 -36 -14 -20 -7
9 -16 17 -19 17 -3 0 -8 -8 -10 -17 -3 -10 -5 0 -6 22 0 31 2 37 10 25 8 -11
12 -12 16 -2z m91 -14 c4 -25 -20 -47 -42 -38 -16 6 -22 45 -9 58 14 14 48 1
51 -20z m38 -24 c8 0 14 -4 14 -10 0 -5 -9 -10 -20 -10 -17 0 -20 6 -19 38 2
30 3 32 6 10 2 -16 11 -28 19 -28z m59 40 c-17 -7 -17 -9 -2 -9 9 -1 17 -5 17
-11 0 -5 -8 -11 -17 -11 -17 -1 -17 -2 0 -6 25 -7 21 -25 -5 -21 -18 2 -24 11
-26 36 -3 29 -1 32 25 31 25 0 26 -1 8 -9z m85 -16 c6 -14 10 -26 10 -27 0 -1
-13 -2 -29 -3 -27 -1 -28 0 -17 28 13 35 24 36 36 2z m120 15 c0 -5 -8 -6 -17
-2 -12 4 -10 0 6 -13 21 -18 22 -21 7 -33 -12 -10 -19 -11 -30 -2 -10 8 -16 9
-21 1 -3 -5 -15 -10 -26 -10 -15 0 -19 7 -19 34 l0 34 50 0 c28 0 50 -4 50 -9z
m53 4 c-7 -2 -14 -17 -14 -31 l-2 -27 -4 25 c-3 14 -10 28 -17 32 -6 4 3 7 19
7 17 0 24 -3 18 -6z m64 -13 c-8 -31 9 -33 22 -2 12 26 13 26 27 7 8 -10 14
-24 14 -29 0 -13 -59 -15 -79 -2 -8 5 -16 4 -22 -5 -6 -10 -9 -4 -9 19 0 28 3
32 26 32 21 0 25 -4 21 -20z m123 11 c0 -5 -8 -8 -17 -7 -10 0 -19 -7 -21 -18
-3 -16 0 -18 25 -12 26 7 27 6 12 -9 -20 -21 -49 -9 -49 19 0 13 3 26 7 29 9
10 43 8 43 -2z m53 2 c-7 -2 -14 -17 -14 -31 l-2 -27 -4 25 c-3 14 -10 28 -17
32 -6 4 3 7 19 7 17 0 24 -3 18 -6z m87 -23 l6 -25 7 28 c4 15 12 27 18 27 6
0 8 -7 5 -16 -3 -8 -2 -12 4 -9 6 3 10 0 11 -7 0 -7 5 -3 11 10 12 23 42 30
54 11 4 -8 0 -9 -15 -4 -17 5 -21 2 -21 -15 0 -17 5 -21 20 -17 11 3 20 1 20
-4 0 -15 -29 -22 -43 -11 -13 10 -44 10 -94 -2 -33 -8 -33 -7 -33 29 0 32 3
36 22 33 14 -2 24 -12 28 -28z m154 19 c4 6 12 11 18 11 6 0 6 -6 -2 -15 -9
-11 -10 -19 -3 -26 7 -7 12 -2 17 15 5 19 13 26 31 26 14 0 25 -4 25 -9 0 -5
-9 -7 -20 -4 -15 4 -20 0 -20 -16 0 -12 6 -21 16 -21 9 0 12 5 8 12 -5 8 -2 9
9 5 13 -5 17 -1 17 14 0 16 5 20 27 17 21 -2 27 -9 28 -30 1 -31 -5 -34 -23
-16 -9 9 -12 9 -12 0 0 -7 -6 -12 -12 -11 -7 1 -21 -1 -31 -6 -10 -4 -23 -2
-31 4 -7 6 -16 8 -19 4 -4 -3 -13 -1 -21 6 -11 9 -15 9 -19 -1 -3 -7 -6 3 -6
22 0 23 2 30 8 21 6 -9 11 -10 15 -2z m217 -1 c0 -10 2 -10 6 0 8 21 23 13 23
-13 0 -14 5 -25 10 -25 6 0 10 11 10 25 0 14 5 25 10 25 6 0 10 -6 10 -12 0
-10 3 -9 9 1 7 10 12 8 24 -9 l15 -22 5 23 c3 19 5 17 6 -8 1 -36 -12 -43 -28
-15 -10 16 -10 16 -11 -2 0 -11 -5 -16 -14 -13 -7 3 -19 0 -25 -6 -8 -8 -16
-6 -30 7 -16 15 -19 15 -24 1 -14 -35 -64 -2 -52 35 7 22 54 29 56 8z m187 0
c16 -16 15 -23 -4 -42 -27 -27 -44 -20 -44 19 0 27 4 35 18 35 10 0 23 -5 30
-12z"/>
<path d="M3400 1591 c0 -28 22 -42 38 -25 11 12 10 14 -3 14 -8 0 -15 7 -15
15 0 8 -4 15 -10 15 -5 0 -10 -8 -10 -19z"/>
<path d="M3416 1525 c-9 -26 -7 -32 5 -12 6 10 9 21 6 23 -2 3 -7 -2 -11 -11z"/>
<path d="M2298 253 c7 -3 16 -2 19 1 4 3 -2 6 -13 5 -11 0 -14 -3 -6 -6z"/>
<path d="M2685 280 c-7 -12 2 -30 16 -30 5 0 9 9 9 20 0 21 -15 27 -25 10z"/>
<path d="M2984 265 c11 -8 24 -15 30 -15 5 0 1 7 -10 15 -10 8 -23 14 -29 14
-5 0 -1 -6 9 -14z"/>
<path d="M2948 253 c7 -3 16 -2 19 1 4 3 -2 6 -13 5 -11 0 -14 -3 -6 -6z"/>
<path d="M3115 280 c4 -6 11 -8 16 -5 14 9 11 15 -7 15 -8 0 -12 -5 -9 -10z"/>
<path d="M3378 253 c7 -3 16 -2 19 1 4 3 -2 6 -13 5 -11 0 -14 -3 -6 -6z"/>
<path d="M3680 280 c0 -5 5 -10 10 -10 6 0 10 5 10 10 0 6 -4 10 -10 10 -5 0
-10 -4 -10 -10z"/>
<path d="M3740 270 c0 -11 7 -20 15 -20 8 0 15 9 15 20 0 11 -7 20 -15 20 -8
0 -15 -9 -15 -20z"/>
<path d="M3930 270 c0 -11 7 -20 15 -20 8 0 15 9 15 20 0 11 -7 20 -15 20 -8
0 -15 -9 -15 -20z"/>
</g>
</svg>
