<?xml version="1.0" encoding="iso-8859-1"?>
<!-- Uploaded to: SVG Repo, www.svgrepo.com, Generator: SVG Repo Mixer Tools -->
<svg height="800px" width="800px" version="1.1" id="Layer_1" xmlns="http://www.w3.org/2000/svg" xmlns:xlink="http://www.w3.org/1999/xlink" 
	 viewBox="0 0 512.001 512.001" xml:space="preserve">
<path style="fill:#FF9737;" d="M227.549,391.203c-8.297,11.149-13.237,24.947-13.237,39.914c0,28.947,18.365,53.598,44.079,62.949
	c25.713-9.351,44.079-34.002,44.079-62.949c0-14.967-4.939-28.764-13.237-39.914H227.549z"/>
<path style="fill:#CAE9F7;" d="M335.852,261.531v-21.629v-97.964c0-54.492-31.596-101.586-77.461-124.001
	c-45.864,22.416-77.46,69.509-77.46,124.001v97.964v74.531v55.847c0,11.331,9.184,20.515,20.516,20.515h48.284h30.773h34.832
	c11.329,0,20.515-9.184,20.515-20.515v-55.848v-25.343"/>
<path style="fill:#90C8EC;" d="M180.93,339.061v31.221c0,11.331,9.184,20.515,20.516,20.515h48.284h30.773h34.832
	c11.329,0,20.515-9.184,20.515-20.515v-31.221H180.93z"/>
<g>
	<circle style="fill:#578CAD;" cx="258.395" cy="167.527" r="33.622"/>
	<polyline style="fill:#578CAD;" points="335.852,361.855 416.133,361.855 416.133,242.182 335.852,162.4 	"/>
	<polygon style="fill:#578CAD;" points="180.93,162.4 180.93,361.855 100.647,361.855 100.647,242.182 	"/>
</g>
<g style="opacity:0.2;">
	<path style="fill:#231F20;" d="M240.465,433.871c0-15.857,4.4-30.542,11.862-42.668h-24.778
		c-8.297,11.149-13.237,24.947-13.237,39.914c0,28.947,18.365,53.598,44.079,62.949c2.063-0.75,4.074-1.609,6.037-2.552
		C249.781,477.718,240.465,457.022,240.465,433.871z"/>
</g>
<g style="opacity:0.2;">
	<path style="fill:#231F20;" d="M306.657,386.473h-30.773h-48.284c-11.332,0-20.516-9.265-20.516-20.696v-56.342v-75.191v-98.831
		c0-46.989,23.094-88.509,58.439-113.706c-2.34-1.319-4.711-2.586-7.133-3.769c-45.863,22.416-77.46,69.509-77.46,124.001v97.964
		v74.531v55.847c0,11.331,9.184,20.515,20.516,20.515h48.284h30.773h34.832c4.74,0,9.092-1.623,12.566-4.323h-21.244V386.473z"/>
</g>
<g style="opacity:0.2;">
	<path style="fill:#231F20;" d="M250.921,167.528c0-13.93,8.473-25.882,20.546-30.983c-4.02-1.699-8.438-2.638-13.077-2.638
		c-18.569,0-33.623,15.054-33.623,33.621c0,18.572,15.054,33.622,33.623,33.622c4.639,0,9.057-0.939,13.077-2.637
		C259.395,193.411,250.921,181.46,250.921,167.528z"/>
</g>
<g style="opacity:0.2;">
	<polygon style="fill:#231F20;" points="126.8,251.908 180.93,198.117 180.93,162.4 100.647,242.182 100.647,361.855 126.8,361.855 
			"/>
</g>
<g>
	<path style="fill:#231F20;" d="M258.391,209.256c23.009,0,41.729-18.718,41.729-41.728c0-23.008-18.72-41.726-41.729-41.726
		c-23.009,0-41.729,18.718-41.729,41.726C216.662,190.537,235.382,209.256,258.391,209.256z M258.391,142.012
		c14.07,0,25.517,11.446,25.517,25.515c0,14.07-11.447,25.516-25.517,25.516c-14.07,0-25.517-11.447-25.517-25.516
		C232.873,153.459,244.32,142.012,258.391,142.012z"/>
	<path style="fill:#231F20;" d="M416.133,369.96c4.478,0,8.106-3.629,8.106-8.106V242.182c0-2.158-0.861-4.228-2.392-5.75
		l-77.889-77.405v-17.089c0-27.878-7.885-54.983-22.802-78.386c-14.513-22.769-34.987-41.061-59.206-52.898
		c-2.246-1.098-4.872-1.098-7.118,0c-24.219,11.837-44.692,30.129-59.205,52.898c-14.917,23.402-22.802,50.509-22.802,78.386v17.089
		l-77.891,77.405c-1.531,1.522-2.392,3.591-2.392,5.75v119.673c0,4.476,3.629,8.106,8.106,8.106h72.177v0.32
		c0,15.781,12.839,28.62,28.621,28.62h12.032c-4.781,9.998-7.272,20.922-7.272,32.216c0,31.459,19.859,59.818,49.414,70.566
		c0.895,0.325,1.832,0.488,2.771,0.488c0.937,0,1.875-0.162,2.77-0.488c29.556-10.749,49.415-39.108,49.415-70.566
		c0-11.294-2.49-22.218-7.271-32.216h12.033c15.782,0,28.62-12.839,28.62-28.62v-0.32H416.133z M189.036,141.938
		c0-48.679,26.472-92.35,69.355-114.914c42.884,22.564,69.356,66.234,69.356,114.914v119.593c0,4.476,3.628,8.106,8.106,8.106
		c4.478,0,8.106-3.629,8.106-8.106v-79.649l64.07,63.671v108.195h-64.07v-14.689v-49.97c0-4.476-3.628-8.106-8.106-8.106
		c-4.478,0-8.106,3.629-8.106,8.106v41.865h-61.25v-21.527c0-4.476-3.628-8.106-8.106-8.106c-4.476,0-8.106,3.629-8.106,8.106
		v21.527h-61.249V162.4L189.036,141.938L189.036,141.938z M108.753,353.749V245.554l64.072-63.671v157.178v14.689h-64.072V353.749z
		 M189.036,370.28v-8.425v-14.689h61.249v35.524h-48.839C194.603,382.69,189.036,377.123,189.036,370.28z M258.391,485.36
		c-21.634-9.14-35.974-30.572-35.974-54.244c0-11.389,3.226-22.307,9.367-31.808h18.501v14.975c0,4.476,3.629,8.106,8.106,8.106
		c4.478,0,8.106-3.629,8.106-8.106v-14.975h18.502c6.14,9.501,9.366,20.418,9.366,31.808
		C294.364,454.788,280.026,476.22,258.391,485.36z M327.746,370.28c0,6.843-5.567,12.409-12.409,12.409h-48.84v-35.524h61.25v23.115
		H327.746z"/>
	<path style="fill:#231F20;" d="M443.547,412.122c-9.096,0-18.082,1.816-26.405,5.29c-4.542-14.423-18.04-24.911-33.943-24.911
		c-19.617,0-35.577,15.96-35.577,35.578c0,4.476,3.628,8.106,8.106,8.106c4.478,0,8.106-3.629,8.106-8.106
		c0-10.679,8.687-19.367,19.366-19.367c10.679,0,19.367,8.688,19.367,19.367c0,4.576-1.624,9.016-4.573,12.501
		c-2.892,3.417-2.466,8.531,0.951,11.423c1.523,1.288,3.382,1.918,5.232,1.918c2.302,0,4.588-0.975,6.192-2.869
		c3.925-4.637,6.566-10.194,7.729-16.094c7.741-4.326,16.521-6.625,25.45-6.625c28.806,0,52.242,23.436,52.242,52.242
		c0,4.476,3.628,8.106,8.106,8.106s8.106-3.629,8.106-8.106C512,442.83,481.292,412.122,443.547,412.122z"/>
	<path style="fill:#231F20;" d="M155.229,446.41c-3.248,0-6.403,0.391-9.434,1.109c1.159-1.981,1.477-4.436,0.66-6.772
		c-6.285-17.949-23.301-30.01-42.344-30.01c-14.043,0-27.282,6.624-35.743,17.772c-4.499-1.188-9.193-1.815-13.992-1.815
		C24.393,426.694,0,451.086,0,481.069c0,4.476,3.629,8.106,8.106,8.106s8.106-3.629,8.106-8.106
		c0-21.044,17.121-38.164,38.165-38.164c13.205,0,25.292,6.682,32.334,17.875c2.383,3.788,7.386,4.929,11.177,2.545
		c3.789-2.384,4.928-7.388,2.544-11.177c-4.333-6.887-10.011-12.567-16.576-16.806c5.331-5.319,12.609-8.395,20.257-8.395
		c12.164,0,23.032,7.698,27.042,19.156c0.86,2.455,2.785,4.228,5.074,4.997c-13.038,6.859-21.954,20.536-21.954,36.263
		c0,4.476,3.629,8.106,8.106,8.106c4.476,0,8.106-3.629,8.106-8.106c0-13.643,11.1-24.743,24.744-24.743
		c13.644,0,24.745,11.1,24.745,24.743c0,4.476,3.629,8.106,8.106,8.106s8.106-3.629,8.106-8.106
		C196.184,464.781,177.811,446.41,155.229,446.41z"/>
</g>
</svg>