<?xml version="1.0" standalone="no"?>
<!DOCTYPE svg PUBLIC "-//W3C//DTD SVG 20010904//EN"
 "http://www.w3.org/TR/2001/REC-SVG-20010904/DTD/svg10.dtd">
<svg version="1.0" xmlns="http://www.w3.org/2000/svg"
 width="626.000000pt" height="417.000000pt" viewBox="0 0 626.000000 417.000000"
 preserveAspectRatio="xMidYMid meet">

<g transform="translate(0.000000,417.000000) scale(0.100000,-0.100000)"
fill="#000000" stroke="none">
<path d="M140 4034 c-15 -9 -17 -12 -5 -8 11 4 47 10 81 12 47 3 65 0 77 -13
10 -9 17 -13 17 -8 0 35 -122 47 -170 17z"/>
<path d="M34 4004 c-18 -14 -18 -15 4 -4 13 6 30 9 38 6 8 -3 14 -1 14 4 0 15
-34 12 -56 -6z"/>
<path d="M340 4002 c0 -5 6 -9 13 -9 6 0 21 -4 32 -8 20 -7 20 -6 1 9 -21 17
-46 21 -46 8z"/>
<path d="M277 3854 c-4 -4 -4 -18 0 -32 5 -22 3 -24 -13 -17 -39 16 -108 25
-147 18 -31 -5 -37 -8 -22 -13 19 -7 19 -7 -1 -18 -23 -12 -38 -59 -22 -68 4
-3 6 -10 3 -15 -4 -5 -2 -9 3 -9 5 0 12 -9 15 -20 4 -16 2 -18 -13 -10 -28 15
-51 12 -66 -7 -16 -21 -18 -37 -4 -28 6 3 10 2 10 -3 0 -5 8 -12 18 -15 9 -2
82 -25 162 -50 160 -50 237 -66 226 -48 -4 6 -20 11 -36 11 -39 0 -30 25 13
35 32 7 32 7 7 15 -14 4 -19 8 -12 9 6 1 12 5 12 10 0 6 -11 6 -29 0 -16 -6
-51 -9 -77 -7 -47 4 -48 4 -17 12 27 7 33 14 38 46 4 21 13 46 20 57 19 24 18
40 -1 47 -15 6 -15 4 -3 -11 11 -15 11 -16 -1 -6 -14 13 -21 35 -21 65 0 9 -7
22 -15 28 -7 7 -11 16 -8 21 6 10 -9 12 -19 3z"/>
<path d="M395 3849 c-4 -6 -5 -12 -2 -15 2 -3 7 2 10 11 7 17 1 20 -8 4z"/>
<path d="M570 3753 c0 -14 26 -42 40 -43 17 -1 2 40 -17 49 -19 9 -23 8 -23
-6z"/>
<path d="M5923 3619 c4 -34 2 -39 -14 -39 -12 0 -19 -7 -19 -19 0 -11 -2 -25
-5 -33 -3 -7 -1 -19 4 -27 7 -11 20 -8 70 14 33 15 58 31 55 36 -3 5 10 9 28
10 18 0 42 4 53 9 19 8 19 9 -3 9 -13 1 -40 14 -60 29 -20 16 -54 34 -76 40
l-38 11 5 -40z"/>
<path d="M743 3600 c34 -49 11 -84 -64 -99 -37 -7 -39 -9 -13 -10 17 -1 54 6
82 14 64 19 67 37 15 86 -27 25 -32 28 -20 9z"/>
<path d="M476 3588 c-26 -37 -19 -57 9 -25 14 15 25 32 25 38 0 16 -18 10 -34
-13z"/>
<path d="M20 3566 c0 -15 14 -36 36 -56 31 -27 42 -31 68 -25 41 9 44 9 94 1
28 -5 42 -4 42 3 0 6 7 11 17 11 14 0 15 -2 1 -17 -8 -10 -18 -26 -22 -37 -6
-17 -2 -18 46 -14 58 5 118 35 96 49 -7 4 -31 11 -53 14 -22 4 -102 26 -177
51 -76 24 -140 44 -143 44 -3 0 -5 -11 -5 -24z"/>
<path d="M6140 3511 c-38 -11 -6 -24 37 -16 27 5 33 9 22 16 -16 10 -24 10
-59 0z"/>
<path d="M448 3503 c6 -2 18 -2 25 0 6 3 1 5 -13 5 -14 0 -19 -2 -12 -5z"/>
<path d="M528 3493 c12 -2 30 -2 40 0 9 3 -1 5 -23 4 -22 0 -30 -2 -17 -4z"/>
<path d="M5995 3472 c-49 -14 -91 -27 -93 -28 -2 -1 4 -16 13 -33 l15 -31 43
27 c23 14 64 37 92 50 27 13 41 21 31 18 -16 -5 -17 -3 -6 10 15 19 15 19 -95
-13z"/>
<path d="M6145 3426 c-89 -25 -185 -64 -185 -76 0 -11 71 -58 106 -70 29 -10
37 -7 113 42 78 50 81 54 81 90 0 45 -1 45 -115 14z"/>
<path d="M175 3400 c-4 -6 7 -10 25 -10 18 0 29 4 25 10 -3 6 -15 10 -25 10
-10 0 -22 -4 -25 -10z"/>
<path d="M6198 3296 c-55 -33 -57 -39 -13 -31 66 11 75 15 75 36 0 24 -15 23
-62 -5z"/>
<path d="M1324 3018 c-34 -30 -42 -33 -92 -29 l-54 3 23 -42 c13 -23 42 -58
63 -78 30 -26 34 -34 18 -30 -12 3 -21 3 -20 -1 3 -27 -2 -33 -19 -20 -16 13
-17 12 -4 -3 17 -22 31 -23 31 -3 0 8 5 15 11 15 6 0 9 -9 6 -20 -5 -20 0 -23
58 -33 26 -4 24 -48 -4 -78 -12 -13 -23 -31 -27 -41 -3 -10 -9 -18 -13 -18 -4
0 -15 -18 -25 -40 -10 -22 -34 -53 -53 -68 -20 -15 -47 -37 -60 -49 -13 -13
-34 -23 -46 -23 -29 1 -103 34 -144 66 -29 22 -37 24 -70 15 -35 -10 -38 -9
-75 31 -21 23 -38 45 -38 50 0 4 -10 8 -23 8 -45 0 -64 47 -28 72 10 7 21 23
25 36 7 20 4 22 -31 21 l-38 -2 35 -7 c19 -4 27 -8 17 -9 -10 0 -15 -5 -12
-11 3 -5 0 -10 -7 -10 -27 -1 -106 -59 -126 -94 -12 -20 -18 -36 -13 -36 4 0
12 9 17 20 9 20 9 20 22 -1 8 -12 9 -18 3 -14 -6 3 -11 2 -11 -2 0 -20 23 -30
56 -26 38 5 55 -16 34 -42 -11 -13 -10 -15 6 -10 12 4 9 0 -6 -9 -23 -14 -23
-15 -5 -16 11 0 26 -9 33 -20 7 -11 19 -20 28 -20 23 0 79 -50 80 -71 1 -10 8
-29 16 -41 9 -13 19 -39 23 -58 8 -37 6 -38 49 23 12 16 15 16 44 1 17 -8 34
-19 37 -23 2 -5 16 -6 30 -3 22 4 25 1 26 -24 2 -25 2 -26 6 -6 5 23 5 23 34
-7 25 -27 29 -28 38 -13 14 23 14 6 0 -21 -9 -19 -7 -19 13 3 13 14 30 46 37
70 8 25 43 104 78 175 93 190 126 351 89 438 -12 30 -11 35 10 67 30 44 32 90
4 90 -10 0 -36 -15 -56 -32z m-410 -510 c35 -16 43 -46 18 -71 -23 -22 -45
-18 -62 12 -8 17 -7 24 9 40 13 13 16 21 8 25 -7 2 -9 5 -5 5 4 1 18 -4 32
-11z m260 -124 c31 -30 8 -69 -36 -62 -30 4 -38 46 -12 65 23 17 29 16 48 -3z"/>
<path d="M1030 2831 c-51 -27 -84 -96 -76 -156 12 -75 79 -135 154 -135 44 0
112 41 133 80 25 46 24 116 -1 158 -42 69 -137 93 -210 53z m135 -7 c33 -15
49 -41 60 -99 5 -21 4 -26 -3 -16 -7 10 -12 5 -21 -21 -11 -35 -54 -68 -88
-68 -37 0 -82 38 -93 79 -12 44 -3 75 31 115 26 30 65 34 114 10z"/>
<path d="M6106 2689 c3 -5 22 -14 42 -20 31 -9 45 -8 77 5 21 9 36 18 33 21
-3 3 -20 -2 -38 -12 -31 -15 -38 -15 -77 -1 -23 8 -40 12 -37 7z"/>
<path d="M646 2341 c-10 -10 -14 -21 -9 -24 8 -5 53 26 53 37 0 13 -28 5 -44
-13z"/>
<path d="M1242 2330 c0 -14 2 -19 5 -12 2 6 2 18 0 25 -3 6 -5 1 -5 -13z"/>
<path d="M700 2326 c0 -9 5 -16 10 -16 6 0 10 4 10 9 0 6 -4 13 -10 16 -5 3
-10 -1 -10 -9z"/>
<path d="M493 2216 c-48 -41 -112 -97 -141 -123 l-52 -48 19 -120 c10 -66 19
-115 20 -108 1 6 15 16 33 22 26 9 36 8 57 -6 14 -10 29 -17 32 -16 4 1 15 -7
24 -17 15 -17 16 -24 7 -46 -7 -13 -12 -32 -12 -40 0 -20 141 -156 156 -150 7
3 9 -6 7 -22 -2 -15 14 20 37 78 56 145 156 347 228 460 l60 94 -54 17 c-30 9
-61 23 -70 30 -11 9 -18 9 -26 1 -9 -9 -7 -12 10 -12 25 0 26 -3 10 -33 -7
-12 -13 -33 -13 -46 0 -17 -13 -33 -47 -56 -54 -38 -175 -90 -232 -101 l-39
-7 6 79 c7 91 31 177 59 217 11 15 17 27 14 27 -3 0 -45 -34 -93 -74z"/>
<path d="M1006 2243 c-6 -14 -5 -15 5 -6 7 7 10 15 7 18 -3 3 -9 -2 -12 -12z"/>
<path d="M130 2086 c0 -23 27 -61 47 -68 9 -4 8 3 35 -146 19 -107 20 -134 11
-208 -16 -131 -33 -131 -33 -1 0 88 -3 107 -15 107 -13 0 -15 -28 -15 -195 0
-107 2 -195 5 -195 9 0 32 55 28 68 -3 6 0 12 5 12 5 0 12 11 14 25 3 14 1 25
-6 25 -8 0 -8 2 0 8 31 20 44 208 23 345 -16 110 -49 207 -70 207 -6 0 -8 4
-5 9 3 5 -1 14 -9 21 -13 11 -15 8 -15 -14z"/>
<path d="M6090 1616 c-217 -65 -348 -187 -404 -375 -17 -57 -22 -229 -9 -306
l6 -40 19 75 c22 90 47 144 92 196 39 46 114 89 171 98 37 6 36 5 -19 -18
-130 -55 -198 -167 -212 -353 -4 -46 -8 -83 -10 -83 -1 0 -33 7 -71 16 -71 17
-162 14 -223 -7 -17 -6 -33 -9 -36 -6 -14 13 132 47 202 47 41 0 74 3 74 8 0
20 -165 167 -241 215 -124 77 -226 109 -367 115 -167 7 -276 -19 -447 -106
-219 -113 -373 -276 -426 -455 -28 -93 -30 -245 -3 -329 3 -9 -9 -3 -29 16
-78 73 -207 73 -317 0 -52 -35 -88 -105 -81 -159 1 -5 7 1 14 15 20 40 74 70
125 70 25 0 42 -3 38 -7 -4 -5 -11 -8 -14 -8 -73 -5 -122 -44 -122 -95 0 -37
-5 -39 -51 -27 -52 13 -110 -3 -163 -45 -26 -21 -35 -25 -28 -12 25 47 101 94
152 94 39 0 34 10 -39 85 -117 120 -240 176 -391 177 -166 2 -303 -63 -443
-211 -60 -63 -67 -68 -67 -51 0 22 -53 89 -94 118 -23 17 -64 36 -90 43 -93
23 -264 -25 -318 -90 l-24 -27 -24 39 c-32 51 -119 130 -184 168 -28 16 -87
41 -131 56 -74 25 -93 27 -245 28 -127 0 -179 -4 -228 -17 -82 -23 -163 -63
-212 -106 l-40 -34 19 -26 c25 -36 53 -104 45 -111 -4 -3 -9 -1 -11 6 -2 6
-18 32 -35 58 -36 54 -88 96 -168 134 -51 24 -64 26 -193 25 -138 -1 -153 5
-65 27 46 11 48 13 64 62 23 75 29 178 14 234 -39 147 -105 240 -210 297 -46
25 -134 49 -144 38 -3 -2 1 -14 9 -26 8 -11 15 -36 14 -56 0 -19 -3 -29 -6
-22 -2 6 -10 9 -15 6 -7 -4 -8 -2 -4 5 11 18 -31 69 -63 76 -17 3 -46 2 -66
-4 -33 -9 -36 -8 -30 7 4 9 9 33 12 53 4 30 0 41 -31 74 -43 45 -40 55 9 27
48 -29 47 -6 -3 50 -39 44 -101 77 -142 78 l-25 0 3 -350 c2 -220 0 -350 -6
-350 -6 0 -8 -9 -5 -20 4 -15 0 -20 -16 -20 -18 0 -19 3 -11 26 18 47 12 105
-16 146 -23 33 -79 78 -98 78 -3 0 -6 -119 -6 -265 l0 -265 38 0 c122 0 263
-91 333 -215 l31 -55 29 16 c78 40 171 25 223 -37 l25 -29 1953 0 1953 0 23
44 c77 145 290 196 426 103 l29 -20 26 31 c30 36 72 55 106 46 19 -5 27 0 38
23 26 50 102 104 144 102 10 0 -2 -8 -27 -17 -56 -22 -110 -95 -110 -150 l0
-35 -25 27 c-13 14 -31 26 -40 26 -22 0 -63 -43 -81 -85 -14 -34 -32 -51 -20
-19 3 9 2 12 -5 9 -6 -4 -18 0 -27 8 -67 59 -197 83 -279 52 -46 -18 -135 -91
-154 -127 -9 -17 26 -18 821 -18 l830 0 0 820 0 820 -47 -1 c-27 0 -82 -10
-123 -23z m-5890 -972 c0 -2 -7 -4 -15 -4 -8 0 -15 4 -15 10 0 5 7 7 15 4 8
-4 15 -8 15 -10z m36 -13 c-3 -5 -22 -11 -41 -13 -19 -2 -32 -1 -27 3 6 6 20
10 65 18 5 0 6 -3 3 -8z"/>
<path d="M0 150 l0 -150 184 0 184 0 -39 73 c-62 112 -129 171 -236 208 -98
33 -93 41 -93 -131z"/>
<path d="M463 30 c-24 -10 -43 -21 -43 -25 0 -3 50 -5 110 -5 117 0 137 10 75
36 -46 19 -92 17 -142 -6z"/>
</g>
</svg>
