<?xml version="1.0" standalone="no"?>
<!DOCTYPE svg PUBLIC "-//W3C//DTD SVG 20010904//EN"
 "http://www.w3.org/TR/2001/REC-SVG-20010904/DTD/svg10.dtd">
<svg version="1.0" xmlns="http://www.w3.org/2000/svg"
 width="626.000000pt" height="391.000000pt" viewBox="0 0 626.000000 391.000000"
 preserveAspectRatio="xMidYMid meet">

<g transform="translate(0.000000,391.000000) scale(0.100000,-0.100000)"
fill="#000000" stroke="none">
<path d="M0 3566 c0 -266 3 -346 13 -350 10 -5 10 -7 0 -12 -10 -4 -13 -335
-13 -1605 l0 -1599 3130 0 3130 0 0 1955 0 1955 -3130 0 -3130 0 0 -344z m140
314 c0 -5 -4 -10 -10 -10 -5 0 -10 5 -10 10 0 6 5 10 10 10 6 0 10 -4 10 -10z
m2690 -20 c0 -5 -4 -10 -10 -10 -5 0 -10 5 -10 10 0 6 5 10 10 10 6 0 10 -4
10 -10z m630 0 c0 -5 -2 -10 -4 -10 -3 0 -8 5 -11 10 -3 6 -1 10 4 10 6 0 11
-4 11 -10z m-3150 -220 c0 -5 -4 -10 -10 -10 -5 0 -10 5 -10 10 0 6 5 10 10
10 6 0 10 -4 10 -10z m3320 0 c0 -5 -2 -10 -4 -10 -3 0 -8 5 -11 10 -3 6 -1
10 4 10 6 0 11 -4 11 -10z m-125 -20 c3 -5 1 -10 -4 -10 -6 0 -11 5 -11 10 0
6 2 10 4 10 3 0 8 -4 11 -10z m-365 -40 c0 -5 -4 -10 -10 -10 -5 0 -10 5 -10
10 0 6 5 10 10 10 6 0 10 -4 10 -10z m-2463 -35 c-15 -16 -19 -13 -11 9 3 9
10 13 15 10 5 -3 3 -11 -4 -19z m2543 16 c0 -17 -18 -21 -24 -6 -3 9 0 15 9
15 8 0 15 -4 15 -9z m-3040 -10 c0 -6 -4 -13 -10 -16 -5 -3 -10 1 -10 9 0 9 5
16 10 16 6 0 10 -4 10 -9z m3607 -13 c-3 -8 -6 -5 -6 6 -1 11 2 17 5 13 3 -3
4 -12 1 -19z m-822 -38 c3 -5 1 -10 -4 -10 -6 0 -11 5 -11 10 0 6 2 10 4 10 3
0 8 -4 11 -10z m195 3 c0 -17 -19 -37 -27 -29 -4 5 -2 11 6 14 11 4 11 6 0 13
-11 7 -10 9 4 9 9 0 17 -3 17 -7z m-2350 -23 c0 -5 -4 -10 -10 -10 -5 0 -10 5
-10 10 0 6 5 10 10 10 6 0 10 -4 10 -10z m2250 -10 c0 -5 -4 -10 -9 -10 -6 0
-13 5 -16 10 -3 6 1 10 9 10 9 0 16 -4 16 -10z m258 -23 c15 6 15 5 3 -10 -7
-9 -10 -17 -5 -17 28 -2 91 -12 104 -18 8 -3 33 -6 54 -6 34 -1 41 -5 46 -26
4 -19 17 -29 50 -40 25 -8 48 -19 52 -25 4 -5 8 -7 8 -2 0 4 9 -2 20 -13 24
-24 53 -25 110 -5 74 26 102 14 56 -25 -22 -19 -43 -77 -52 -143 -5 -38 -3
-51 11 -67 14 -16 18 -34 16 -83 -2 -57 -1 -60 13 -42 15 20 15 20 40 -7 14
-15 22 -29 17 -33 -5 -3 -12 -1 -15 3 -3 5 -15 8 -28 7 -20 -1 -23 -6 -20 -33
3 -24 -1 -32 -12 -32 -9 0 -16 -7 -16 -15 0 -9 -7 -18 -16 -22 -8 -3 -13 -12
-10 -19 3 -8 -1 -15 -9 -15 -30 -3 -34 -4 -47 -17 -8 -8 -9 -15 -3 -20 17 -12
16 -39 -1 -46 -9 -4 -20 -3 -23 0 -3 4 0 9 7 11 6 3 9 9 6 15 -3 5 -14 2 -25
-8 -10 -9 -19 -14 -19 -9 0 4 -11 0 -25 -9 -14 -9 -30 -14 -36 -10 -7 4 -9 -1
-4 -15 8 -25 -7 -28 -29 -5 -15 14 -17 14 -22 0 -4 -9 -14 -15 -22 -14 -9 2
-17 -3 -18 -9 -3 -26 -5 -28 -15 -13 -8 11 -12 12 -16 3 -8 -22 -57 -73 -69
-73 -6 0 -28 -17 -50 -38 -30 -30 -44 -37 -59 -31 -32 12 -37 10 -30 -11 4
-11 2 -20 -4 -20 -6 0 -11 5 -11 11 0 5 -5 7 -11 4 -6 -4 -8 -14 -5 -22 3 -8
1 -11 -5 -8 -5 4 -7 14 -4 24 3 9 -5 27 -19 43 -14 14 -22 30 -18 34 4 5 -1 2
-11 -6 -15 -11 -20 -11 -27 -1 -4 8 -13 10 -21 6 -8 -5 -11 -4 -6 0 11 13 -23
45 -49 45 -12 0 -25 6 -27 13 -3 7 -6 5 -6 -5 -1 -21 -21 -24 -21 -3 0 8 -14
17 -34 20 -28 6 -35 12 -38 36 -3 16 1 37 8 47 8 12 9 23 3 33 -12 19 -11 32
1 24 6 -3 10 -2 10 4 0 5 -5 13 -10 16 -6 4 -7 12 -4 18 4 7 4 9 0 5 -4 -3
-17 3 -29 15 -23 23 -32 83 -16 102 4 6 4 17 -1 25 -13 20 -13 60 0 60 6 0 10
-12 10 -27 0 -22 2 -25 10 -13 6 10 5 22 -5 36 -9 14 -10 25 -4 31 6 6 6 19 0
36 -13 33 2 36 17 5 l11 -23 0 22 c1 12 4 29 7 38 6 13 9 14 16 3 7 -9 8 -4 3
15 -3 16 -2 27 2 24 4 -3 13 1 20 8 8 9 9 15 2 17 -7 2 -7 12 2 31 8 18 16 24
24 17 8 -6 16 1 27 25 14 31 14 34 0 37 -14 3 -14 5 0 19 15 14 12 21 -29 80
-24 35 -49 72 -54 82 -19 34 1 16 46 -43 26 -33 51 -57 57 -54 6 4 5 9 -3 15
-7 4 -11 10 -9 13 3 2 16 -4 30 -15 15 -11 18 -17 8 -13 -13 4 -18 1 -18 -10
0 -20 34 -34 68 -28 17 3 20 7 11 13 -11 6 -10 14 4 41 10 18 16 26 14 18 -3
-10 3 -15 19 -15 13 0 24 3 24 8 0 4 -7 7 -15 7 -8 0 -15 5 -15 11 0 7 10 9
25 5 27 -7 36 11 10 20 -8 4 -15 10 -15 15 0 15 49 22 64 10 11 -10 18 -7 33
13 16 21 18 22 21 6 2 -13 9 -17 20 -13z m-2438 -1 c0 -3 -4 -8 -10 -11 -5 -3
-10 -1 -10 4 0 6 5 11 10 11 6 0 10 -2 10 -4z m1811 -12 c17 -21 0 -49 -31
-49 -31 0 -48 28 -31 49 8 9 21 16 31 16 10 0 23 -7 31 -16z m-2596 -34 c3 -5
1 -10 -4 -10 -6 0 -11 5 -11 10 0 6 2 10 4 10 3 0 8 -4 11 -10z m3025 -21 c0
-4 -11 -6 -25 -6 -13 0 -22 3 -20 8 6 9 45 8 45 -2z m-890 -13 c0 -11 -19 -15
-25 -6 -3 5 1 10 9 10 9 0 16 -2 16 -4z m32 -38 c-7 -7 -12 -8 -12 -2 0 14 12
26 19 19 2 -3 -1 -11 -7 -17z m1418 -17 c-13 -24 -30 -28 -30 -6 0 8 7 15 15
15 8 0 15 5 15 12 0 6 3 9 6 6 3 -4 1 -16 -6 -27z m-1020 -42 c0 -5 -4 -9 -10
-9 -5 0 -10 7 -10 16 0 8 5 12 10 9 6 -3 10 -10 10 -16z m-417 -23 c4 -10 1
-13 -9 -9 -15 6 -19 23 -5 23 5 0 11 -7 14 -14z m367 4 c0 -5 -5 -10 -11 -10
-5 0 -7 -5 -3 -12 4 -7 3 -8 -4 -4 -6 4 -9 13 -5 21 6 17 23 20 23 5z m2784
-21 c-3 -5 -10 -7 -15 -3 -5 3 -7 10 -3 15 3 5 10 7 15 3 5 -3 7 -10 3 -15z
m-3296 -29 c-1 -16 -6 -30 -10 -30 -9 0 -10 7 -2 38 9 31 15 27 12 -8z m862
-16 c0 -7 -27 -34 -34 -34 -4 0 -1 9 6 20 12 19 28 27 28 14z m-695 -24 c3 -5
2 -10 -4 -10 -5 0 -13 5 -16 10 -3 6 -2 10 4 10 5 0 13 -4 16 -10z m380 -10
c3 -5 1 -10 -4 -10 -6 0 -11 5 -11 10 0 6 2 10 4 10 3 0 8 -4 11 -10z m-2577
-29 c-5 -24 -38 -27 -38 -3 0 10 3 21 6 25 11 11 35 -5 32 -22z m2057 9 c-3
-5 -14 -10 -23 -9 -14 0 -13 2 3 9 27 11 27 11 20 0z m122 -10 c-1 -11 -5 -20
-9 -20 -10 0 -10 4 -2 24 8 22 13 20 11 -4z m600 -21 c-16 -26 -27 -24 -25 5
2 17 7 22 20 19 14 -4 15 -8 5 -24z m-857 -5 c0 -8 -4 -12 -10 -9 -5 3 -10 10
-10 16 0 5 5 9 10 9 6 0 10 -7 10 -16z m320 -4 c0 -5 -5 -10 -11 -10 -5 0 -7
5 -4 10 3 6 8 10 11 10 2 0 4 -4 4 -10z m14 -32 c-3 -4 -9 -8 -15 -8 -5 0 -9
4 -9 8 0 5 7 9 15 9 8 0 12 -4 9 -9z m363 -17 c-1 -11 -6 -17 -14 -14 -10 4
-11 9 -2 19 15 19 18 18 16 -5z m-254 -30 c3 -15 0 -19 -14 -18 -22 1 -21 0
-13 21 8 22 21 20 27 -3z m431 4 c3 -8 1 -15 -4 -15 -6 0 -10 7 -10 15 0 8 2
15 4 15 2 0 6 -7 10 -15z m1636 1 c0 -3 -4 -8 -10 -11 -5 -3 -10 -1 -10 4 0 6
5 11 10 11 6 0 10 -2 10 -4z m-2080 -57 c0 -6 -4 -7 -10 -4 -5 3 -10 11 -10
16 0 6 5 7 10 4 6 -3 10 -11 10 -16z m400 11 c0 -5 -4 -10 -10 -10 -5 0 -10 5
-10 10 0 6 5 10 10 10 6 0 10 -4 10 -10z m1780 -10 c0 -5 -4 -10 -10 -10 -5 0
-10 5 -10 10 0 6 5 10 10 10 6 0 10 -4 10 -10z m-1842 -25 c-3 -3 -9 2 -12 12
-6 14 -5 15 5 6 7 -7 10 -15 7 -18z m1899 19 c-3 -3 -12 -4 -19 -1 -8 3 -5 6
6 6 11 1 17 -2 13 -5z m-2337 -8 c0 -2 -7 -6 -15 -10 -8 -3 -15 -1 -15 4 0 6
7 10 15 10 8 0 15 -2 15 -4z m-137 -31 c-3 -9 -8 -14 -10 -11 -3 3 -2 9 2 15
9 16 15 13 8 -4z m67 0 c-7 -9 -15 -13 -19 -10 -3 3 1 10 9 15 21 14 24 12 10
-5z m2400 -15 c0 -5 -5 -10 -11 -10 -5 0 -7 5 -4 10 3 6 8 10 11 10 2 0 4 -4
4 -10z m-2345 -20 c3 -5 1 -10 -4 -10 -6 0 -11 5 -11 10 0 6 2 10 4 10 3 0 8
-4 11 -10z m240 0 c-3 -5 -11 -10 -16 -10 -6 0 -7 5 -4 10 3 6 11 10 16 10 6
0 7 -4 4 -10z m310 0 c3 -5 -1 -10 -9 -10 -9 0 -16 5 -16 10 0 6 4 10 9 10 6
0 13 -4 16 -10z m-1565 -10 c0 -5 -4 -10 -10 -10 -5 0 -10 5 -10 10 0 6 5 10
10 10 6 0 10 -4 10 -10z m1560 -20 c0 -5 -4 -10 -9 -10 -6 0 -13 5 -16 10 -3
6 1 10 9 10 9 0 16 -4 16 -10z m-40 -10 c0 -5 -5 -10 -11 -10 -5 0 -7 5 -4 10
3 6 8 10 11 10 2 0 4 -4 4 -10z m1835 0 c3 -5 1 -10 -4 -10 -6 0 -11 5 -11 10
0 6 2 10 4 10 3 0 8 -4 11 -10z m-3175 -36 c0 -16 -9 -18 -30 -4 -13 9 -13 11
0 19 17 12 30 5 30 -15z m1396 9 c17 -23 17 -30 0 -30 -8 0 -12 6 -9 14 3 9
-3 13 -22 13 -15 0 -24 4 -20 10 10 16 36 12 51 -7z m1691 -1 c-10 -10 -14
-22 -10 -25 3 -4 1 -7 -5 -7 -7 0 -12 3 -12 7 0 8 31 43 38 43 3 0 -2 -8 -11
-18z m-2287 -16 c0 -3 -4 -8 -10 -11 -5 -3 -10 -1 -10 4 0 6 5 11 10 11 6 0
10 -2 10 -4z m-380 -36 c0 -5 -2 -10 -4 -10 -3 0 -8 5 -11 10 -3 6 -1 10 4 10
6 0 11 -4 11 -10z m790 0 c0 -13 -11 -13 -30 0 -12 8 -11 10 8 10 12 0 22 -4
22 -10z m44 -6 c3 -8 2 -12 -4 -9 -6 3 -10 10 -10 16 0 14 7 11 14 -7z m-574
-4 c0 -5 -4 -10 -10 -10 -5 0 -10 5 -10 10 0 6 5 10 10 10 6 0 10 -4 10 -10z
m108 -15 c-3 -3 -9 2 -12 12 -6 14 -5 15 5 6 7 -7 10 -15 7 -18z m-158 -21 c0
-8 -5 -12 -10 -9 -6 4 -8 11 -5 16 9 14 15 11 15 -7z m87 -50 c-3 -3 -12 -4
-19 -1 -8 3 -5 6 6 6 11 1 17 -2 13 -5z m729 -96 c0 -22 2 -22 -26 2 l-23 20
24 -2 c16 -1 25 -8 25 -20z m574 -18 c0 -5 -5 -10 -11 -10 -5 0 -7 5 -4 10 3
6 8 10 11 10 2 0 4 -4 4 -10z m-100 -40 c0 -5 -4 -10 -10 -10 -5 0 -10 5 -10
10 0 6 5 10 10 10 6 0 10 -4 10 -10z m-320 -44 c0 -3 -4 -8 -10 -11 -5 -3 -10
-1 -10 4 0 6 5 11 10 11 6 0 10 -2 10 -4z m-1440 -16 c0 -5 -4 -10 -10 -10 -5
0 -10 5 -10 10 0 6 5 10 10 10 6 0 10 -4 10 -10z m1435 -86 c-8 -13 -20 -24
-26 -24 -6 0 -3 8 7 17 11 11 13 18 5 21 -7 2 -6 9 4 19 8 8 16 24 17 36 0 12
3 7 5 -11 3 -20 -2 -43 -12 -58z m-21 60 c3 -7 -2 -10 -15 -7 -22 6 -26 20 -4
20 8 0 16 -6 19 -13z m198 -60 c-2 -10 -8 -21 -13 -22 -6 -2 -5 -10 2 -18 9
-11 8 -14 -5 -14 -18 0 -22 25 -5 36 6 3 8 15 6 26 -4 12 -1 18 6 15 7 -2 10
-13 9 -23z m-332 6 c0 -5 -5 -10 -11 -10 -5 0 -7 5 -4 10 3 6 8 10 11 10 2 0
4 -4 4 -10z m-40 -20 c0 -5 -5 -10 -11 -10 -5 0 -7 5 -4 10 3 6 8 10 11 10 2
0 4 -4 4 -10z m230 -10 c-8 -5 -17 -7 -19 -4 -3 3 1 9 9 14 8 5 17 7 19 4 3
-3 -1 -9 -9 -14z m-300 -15 c0 -8 -4 -15 -10 -15 -5 0 -7 7 -4 15 4 8 8 15 10
15 2 0 4 -7 4 -15z m173 -28 c-3 -5 -9 -3 -14 4 -4 7 -5 17 -2 22 3 5 9 3 14
-4 4 -7 5 -17 2 -22z m-1313 9 c0 -3 -4 -8 -10 -11 -5 -3 -10 -1 -10 4 0 6 5
11 10 11 6 0 10 -2 10 -4z m1650 -28 c0 -4 -7 -8 -15 -8 -8 0 -15 4 -15 8 0 5
7 9 15 9 8 0 15 -4 15 -9z m-100 -88 c0 -5 -5 -10 -11 -10 -5 0 -7 5 -4 10 3
6 8 10 11 10 2 0 4 -4 4 -10z m-1700 -10 c0 -5 -2 -10 -4 -10 -3 0 -8 5 -11
10 -3 6 -1 10 4 10 6 0 11 -4 11 -10z m381 -33 c-10 -9 -11 -8 -5 6 3 10 9 15
12 12 3 -3 0 -11 -7 -18z m1399 13 c0 -5 -4 -10 -10 -10 -5 0 -10 5 -10 10 0
6 5 10 10 10 6 0 10 -4 10 -10z m-1925 -9 c3 -5 1 -12 -5 -16 -5 -3 -10 1 -10
9 0 18 6 21 15 7z m1865 -21 c0 -5 -5 -10 -11 -10 -5 0 -7 5 -4 10 3 6 8 10
11 10 2 0 4 -4 4 -10z m-1486 -24 c-3 -9 -10 -16 -15 -16 -5 0 -4 9 3 20 14
22 21 20 12 -4z m-263 -69 c-7 -7 -15 -6 -26 3 -14 11 -13 14 2 26 15 10 19
10 27 -3 5 -9 4 -19 -3 -26z m-511 23 c0 -5 -4 -10 -10 -10 -5 0 -10 5 -10 10
0 6 5 10 10 10 6 0 10 -4 10 -10z m2290 -20 c0 -5 -4 -10 -10 -10 -5 0 -10 5
-10 10 0 6 5 10 10 10 6 0 10 -4 10 -10z m-440 -10 c0 -5 -4 -10 -10 -10 -5 0
-10 5 -10 10 0 6 5 10 10 10 6 0 10 -4 10 -10z m430 -20 c0 -5 -5 -10 -11 -10
-5 0 -7 5 -4 10 3 6 8 10 11 10 2 0 4 -4 4 -10z m-115 -40 c3 -5 -1 -10 -10
-10 -9 0 -13 5 -10 10 3 6 8 10 10 10 2 0 7 -4 10 -10z m85 0 c0 -5 -5 -10
-11 -10 -5 0 -7 5 -4 10 3 6 8 10 11 10 2 0 4 -4 4 -10z m-1628 -42 c-7 -7
-12 -8 -12 -2 0 6 3 14 7 17 3 4 9 5 12 2 2 -3 -1 -11 -7 -17z m-232 2 c0 -5
-2 -10 -4 -10 -3 0 -8 5 -11 10 -3 6 -1 10 4 10 6 0 11 -4 11 -10z m1740 -44
c0 -3 -4 -8 -10 -11 -5 -3 -10 -1 -10 4 0 6 5 11 10 11 6 0 10 -2 10 -4z m77
-2 c-3 -3 -12 -4 -19 -1 -8 3 -5 6 6 6 11 1 17 -2 13 -5z m-1897 -86 c0 -5 12
-19 26 -32 24 -20 27 -29 27 -89 0 -62 -19 -117 -41 -117 -4 0 -7 33 -7 73 0
58 -5 80 -23 110 -13 21 -21 44 -19 50 2 7 -10 20 -26 30 -23 14 -27 21 -17
27 14 9 80 -34 80 -52z m-828 -75 c22 -20 23 -41 1 -65 -20 -22 -41 -23 -65
-1 -22 20 -23 41 -1 65 20 22 41 23 65 1z m548 -7 c0 -3 -4 -8 -10 -11 -5 -3
-10 -1 -10 4 0 6 5 11 10 11 6 0 10 -2 10 -4z m3500 -76 c0 -5 -4 -10 -10 -10
-5 0 -10 5 -10 10 0 6 5 10 10 10 6 0 10 -4 10 -10z m-3780 -24 c0 -3 -4 -8
-10 -11 -5 -3 -10 -1 -10 4 0 6 5 11 10 11 6 0 10 -2 10 -4z m2775 -76 c849
-71 1604 -405 2142 -947 113 -114 149 -159 118 -147 -9 4 -14 8 -11 11 7 8
-66 82 -149 151 -44 36 -83 70 -87 76 -4 6 -10 7 -14 3 -4 -4 2 -17 14 -30 12
-13 22 -27 22 -32 0 -5 -14 5 -30 24 -17 18 -27 38 -24 44 4 7 4 9 -1 5 -4 -4
-24 2 -43 14 -30 18 -35 19 -29 5 10 -27 -12 -20 -44 15 -16 18 -29 29 -29 25
0 -5 -15 2 -32 14 -33 23 -33 23 -14 1 22 -26 10 -29 -22 -6 -12 8 -22 12 -22
8 0 -3 -6 -1 -14 5 -8 6 -18 11 -22 10 -20 -5 -86 14 -90 26 -3 7 -18 11 -35
9 -16 -2 -29 0 -29 4 0 16 -76 50 -125 57 -27 4 -58 14 -67 22 -9 8 -22 12
-27 8 -6 -3 -38 8 -71 24 -33 17 -72 31 -85 31 -14 0 -25 4 -25 9 0 15 -65 33
-93 26 -14 -4 -28 -2 -31 3 -4 6 3 8 16 5 13 -4 19 -2 15 3 -5 5 -39 12 -75
16 -117 12 -144 19 -138 34 4 11 -6 14 -45 14 -33 0 -48 -4 -44 -11 4 -5 19
-7 34 -4 20 4 28 2 28 -8 0 -11 -8 -12 -40 -5 -22 5 -45 12 -51 16 -6 4 -27 8
-46 9 -61 3 -75 6 -87 15 -7 6 -11 13 -9 17 6 9 -87 7 -102 -3 -7 -4 -27 1
-47 14 -22 14 -42 19 -53 15 -16 -7 -15 -8 2 -14 14 -6 16 -10 7 -15 -6 -4
-28 0 -48 9 -38 18 -193 36 -193 23 0 -5 -9 -4 -19 2 -11 5 -36 10 -55 10 -27
0 -34 3 -30 15 7 17 -7 20 -23 4 -7 -7 -34 -6 -93 5 -96 19 -100 19 -100 7 0
-5 12 -11 28 -13 15 -2 -7 -4 -50 -4 -42 1 -74 4 -72 7 7 12 -58 19 -74 8 -14
-8 -13 -9 5 -4 13 3 31 2 40 -4 17 -9 17 -10 0 -17 -24 -9 -151 12 -155 26 -2
5 -8 10 -14 10 -6 0 -8 -7 -4 -15 5 -13 2 -14 -17 -4 -32 18 -76 20 -126 7
-34 -9 -46 -9 -49 0 -2 7 -12 12 -22 12 -10 0 -22 5 -25 11 -4 6 -14 8 -22 5
-8 -3 -23 -1 -33 4 -10 5 -26 7 -36 3 -16 -6 -16 -7 2 -15 20 -9 6 -7 -56 8
l-25 6 23 -17 c21 -15 22 -42 1 -29 -5 3 -7 10 -4 15 4 5 -1 9 -9 9 -8 0 -18
-4 -21 -10 -3 -5 -16 -10 -28 -10 -18 0 -19 2 -7 10 19 12 13 12 -28 1 -24 -7
-32 -7 -32 4 0 7 10 15 22 18 12 4 20 9 16 12 -3 3 -25 -2 -49 -11 -26 -11
-44 -14 -46 -8 -4 12 -62 6 -79 -8 -17 -13 -87 -20 -79 -8 4 6 12 10 18 9 15
-3 47 11 47 20 0 3 -17 6 -37 6 -25 0 -37 4 -35 13 1 6 -5 12 -13 12 -9 0 -12
-6 -8 -15 3 -9 2 -15 -3 -14 -9 2 -31 -5 -74 -24 -21 -8 -22 -11 -7 -14 9 -3
17 -9 17 -14 0 -4 -11 -3 -25 3 -14 6 -25 17 -25 25 0 15 -39 17 -60 2 -12 -8
-10 -9 9 -4 15 5 21 3 17 -3 -3 -6 -19 -13 -35 -17 -29 -6 -64 -35 -43 -35 6
0 14 5 17 10 3 6 14 10 23 9 11 0 12 -2 4 -6 -6 -2 -9 -9 -6 -14 3 -6 -10 -10
-30 -9 -80 0 -110 -1 -99 -6 17 -7 4 -34 -16 -34 -14 0 -14 2 -1 10 13 9 13
10 0 10 -9 0 -20 -4 -25 -9 -14 -13 -151 -81 -164 -81 -11 0 -118 -47 -184
-81 -21 -10 -44 -19 -51 -19 -7 0 -19 -6 -25 -14 -10 -12 -55 -27 -86 -30 -5
-1 -15 -7 -21 -15 -8 -11 -13 -11 -18 -2 -5 7 0 18 10 26 26 20 9 19 -21 -1
-13 -9 -30 -14 -37 -12 -8 3 -1 11 17 21 44 24 9 20 -42 -4 -24 -12 -47 -19
-50 -16 -3 3 -12 -1 -20 -9 -9 -8 -18 -12 -21 -9 -4 3 0 10 8 15 11 7 11 10 2
10 -7 0 -25 -12 -40 -27 -15 -16 -37 -29 -49 -30 -12 -1 -32 -11 -45 -22 -12
-12 -25 -21 -29 -21 -5 0 -20 -11 -35 -25 -29 -27 -54 -34 -34 -10 20 24 5 18
-16 -7 -10 -12 -13 -18 -5 -13 34 20 -3 -16 -45 -44 -26 -17 -70 -52 -99 -79
-28 -26 -56 -47 -62 -45 -6 2 -14 -4 -17 -15 -4 -10 -19 -24 -34 -31 -36 -16
143 166 266 270 507 430 1200 705 1932 768 139 12 457 12 595 1z m-2660 -20
c3 -5 1 -10 -4 -10 -6 0 -11 5 -11 10 0 6 2 10 4 10 3 0 8 -4 11 -10z m-161
-62 c-10 -13 -20 -25 -21 -27 -2 -2 -3 1 -3 7 0 11 27 42 37 42 3 0 -2 -10
-13 -22z m4316 -128 c0 -5 -4 -10 -10 -10 -5 0 -10 5 -10 10 0 6 5 10 10 10 6
0 10 -4 10 -10z m-2196 -149 c3 -5 -3 -11 -14 -14 -20 -5 -26 3 -13 16 9 10
21 9 27 -2z m-511 -8 c-7 -2 -21 -2 -30 0 -10 3 -4 5 12 5 17 0 24 -2 18 -5z
m118 -2 c-11 -7 -10 -10 5 -14 10 -2 1 -5 -21 -6 -23 0 -46 -6 -53 -13 -6 -6
-15 -9 -18 -5 -4 3 6 11 22 18 16 6 36 15 44 19 20 12 39 12 21 1z m224 -11
c-3 -5 -12 -10 -18 -10 -7 0 -6 4 3 10 19 12 23 12 15 0z"/>
<path d="M3130 3346 c0 -2 7 -6 15 -10 8 -3 15 -1 15 4 0 6 -7 10 -15 10 -8 0
-15 -2 -15 -4z"/>
<path d="M2906 3005 c-3 -9 0 -15 9 -15 9 0 12 6 9 15 -4 8 -7 15 -9 15 -2 0
-5 -7 -9 -15z"/>
<path d="M2320 1255 c-7 -9 -11 -17 -9 -20 3 -2 10 5 17 15 14 24 10 26 -8 5z"/>
<path d="M2125 1249 c-4 -6 -5 -12 -2 -15 2 -3 7 2 10 11 7 17 1 20 -8 4z"/>
<path d="M2177 1243 c-12 -12 -7 -22 8 -17 8 4 15 10 15 15 0 11 -14 12 -23 2z"/>
<path d="M2234 1235 c-4 -8 -14 -15 -23 -16 -9 0 -11 -3 -4 -5 15 -6 53 13 53
26 0 16 -20 12 -26 -5z"/>
<path d="M2383 1235 c9 -7 14 -15 10 -18 -3 -4 -2 -7 3 -7 11 0 34 20 34 30 0
3 -14 6 -32 6 -27 1 -29 0 -15 -11z"/>
<path d="M2515 1230 c-3 -5 -1 -10 4 -10 6 0 11 5 11 10 0 6 -2 10 -4 10 -3 0
-8 -4 -11 -10z"/>
<path d="M2465 1216 c11 -8 24 -12 28 -9 11 7 -12 23 -32 23 -11 0 -9 -4 4
-14z"/>
<path d="M3098 1193 c6 -2 18 -2 25 0 6 3 1 5 -13 5 -14 0 -19 -2 -12 -5z"/>
<path d="M4085 1140 c3 -5 14 -10 23 -10 15 0 15 2 2 10 -20 13 -33 13 -25 0z"/>
<path d="M4198 1133 c7 -3 16 -2 19 1 4 3 -2 6 -13 5 -11 0 -14 -3 -6 -6z"/>
<path d="M4240 1120 c8 -5 22 -10 30 -10 13 0 13 1 0 10 -8 5 -22 10 -30 10
-13 0 -13 -1 0 -10z"/>
<path d="M4626 1098 c5 -8 2 -9 -9 -5 -10 3 -17 2 -17 -3 0 -5 12 -9 28 -8 15
1 36 -2 47 -7 l20 -7 -20 14 c-29 21 -58 31 -49 16z"/>
<path d="M4425 1060 c3 -5 13 -10 21 -10 8 0 12 5 9 10 -3 6 -13 10 -21 10 -8
0 -12 -4 -9 -10z"/>
<path d="M4733 1019 c22 -11 41 -18 44 -16 5 6 -56 37 -71 37 -6 -1 6 -10 27
-21z"/>
<path d="M5052 964 c10 -10 20 -15 24 -12 3 4 -5 12 -18 18 -22 12 -22 12 -6
-6z"/>
<path d="M4849 939 c27 -22 49 -26 32 -5 -6 8 -22 16 -34 19 -22 6 -22 6 2
-14z"/>
<path d="M5094 923 c2 -10 10 -18 19 -18 8 0 19 -4 24 -9 5 -5 2 -6 -6 -1 -9
5 -12 4 -7 -3 4 -6 13 -9 21 -5 8 3 15 1 15 -5 0 -5 14 -12 31 -16 17 -3 28
-10 24 -15 -3 -5 -1 -12 4 -15 5 -4 13 -1 17 5 4 6 1 15 -7 20 -106 64 -137
78 -135 62z"/>
<path d="M1406 905 c-7 -19 3 -19 28 0 19 15 19 15 -1 15 -11 0 -23 -7 -27
-15z"/>
<path d="M5284 809 c-4 -7 -3 -9 4 -5 6 3 13 2 17 -4 7 -11 45 -33 45 -26 0 3
-13 14 -29 26 -21 14 -32 17 -37 9z"/>
<path d="M5360 766 c0 -2 8 -10 18 -17 15 -13 16 -12 3 4 -13 16 -21 21 -21
13z"/>
</g>
</svg>
