<?xml version="1.0" standalone="no"?>
<!DOCTYPE svg PUBLIC "-//W3C//DTD SVG 20010904//EN"
 "http://www.w3.org/TR/2001/REC-SVG-20010904/DTD/svg10.dtd">
<svg version="1.0" xmlns="http://www.w3.org/2000/svg"
 width="626.000000pt" height="417.000000pt" viewBox="0 0 626.000000 417.000000"
 preserveAspectRatio="xMidYMid meet">

<g transform="translate(0.000000,417.000000) scale(0.100000,-0.100000)"
fill="#000000" stroke="none">
<path d="M5326 4118 c-8 -29 -18 -81 -21 -115 l-6 -61 65 -7 c82 -9 100 -3 89
27 -4 13 -8 65 -8 116 l1 92 -53 0 -52 0 -15 -52z"/>
<path d="M5994 4154 c3 -9 9 -33 12 -55 4 -21 8 -39 10 -39 12 0 145 58 188
81 l51 29 -134 0 c-118 0 -132 -2 -127 -16z"/>
<path d="M6200 4046 c-25 -13 -80 -38 -122 -56 -68 -28 -78 -36 -84 -63 -14
-64 -39 -84 -158 -121 -61 -20 -135 -41 -164 -47 -49 -12 -54 -11 -75 9 -13
12 -26 19 -30 16 -10 -10 -39 18 -33 32 3 7 0 16 -6 20 -7 5 -8 2 -3 -6 5 -8
4 -11 -3 -6 -6 4 -9 13 -6 20 4 10 -18 14 -98 18 -57 3 -104 4 -106 3 -10 -9
56 -174 89 -224 44 -66 95 -115 111 -105 5 3 73 19 151 34 78 16 174 38 212
49 94 27 283 102 340 135 40 24 45 31 45 63 0 43 -39 155 -51 147 -18 -10
-145 -54 -159 -54 -29 0 14 30 95 65 63 27 81 40 91 64 7 17 12 31 11 31 -1 0
-22 -11 -47 -24z m-839 -256 c6 0 7 -5 3 -11 -8 -14 -24 8 -23 31 1 11 3 10 6
-2 2 -10 9 -18 14 -18z m127 24 c28 -8 28 -20 -1 -39 -18 -11 -31 -12 -60 -4
-33 9 -36 12 -27 29 11 20 44 25 88 14z"/>
<path d="M4406 3902 c-3 -5 22 -35 54 -67 33 -33 60 -55 60 -51 0 5 10 1 23
-10 12 -10 -12 16 -53 59 -41 42 -75 77 -77 77 -1 0 -4 -4 -7 -8z"/>
<path d="M4520 3834 c0 -11 61 -67 66 -61 2 2 -12 19 -31 37 -19 19 -35 30
-35 24z"/>
<path d="M40 3816 c-23 -8 -36 -20 -38 -34 -3 -22 8 -29 22 -15 11 12 38 15
117 17 62 0 86 -4 138 -28 34 -15 65 -25 68 -22 4 3 1 6 -6 6 -8 0 -11 6 -7
16 4 10 -4 19 -27 29 -17 7 -35 11 -39 9 -5 -3 -8 0 -8 5 0 6 -5 11 -11 11 -5
0 -7 -4 -4 -10 10 -17 -4 -11 -25 10 -16 16 -33 20 -82 19 -35 0 -79 -6 -98
-13z"/>
<path d="M4476 3788 c3 -7 20 -24 37 -37 l32 -25 -34 37 c-38 40 -43 44 -35
25z"/>
<path d="M128 3773 c7 -3 16 -2 19 1 4 3 -2 6 -13 5 -11 0 -14 -3 -6 -6z"/>
<path d="M364 3729 c-8 -14 33 -56 43 -45 5 5 3 11 -4 13 -7 2 -11 10 -9 16 1
7 1 9 -1 5 -8 -15 -25 -8 -19 7 6 17 0 20 -10 4z"/>
<path d="M4505 3720 c10 -11 20 -20 23 -20 3 0 -3 9 -13 20 -10 11 -20 20 -23
20 -3 0 3 -9 13 -20z"/>
<path d="M416 3685 c-7 -19 8 -51 26 -58 7 -2 10 -7 6 -11 -3 -4 -15 -3 -26 3
-25 13 -69 14 -76 2 -4 -5 3 -7 13 -4 12 3 34 -5 52 -17 58 -42 80 -144 37
-174 -26 -18 -20 -20 17 -6 25 9 26 9 23 -25 -1 -19 -5 -35 -10 -35 -4 0 -19
-12 -34 -27 -25 -26 -26 -27 -21 -6 3 12 2 22 -2 21 -3 -1 -17 4 -31 10 -14 6
-19 11 -12 11 7 1 10 6 7 11 -4 6 -11 7 -17 4 -7 -5 -9 -2 -5 8 3 10 -5 25
-21 40 -24 22 -36 25 -99 24 -46 -1 -69 2 -62 9 5 5 34 9 64 9 30 0 52 3 49 8
-3 4 -12 8 -20 8 -8 0 -14 5 -14 12 0 9 -3 9 -11 1 -14 -14 -70 -6 -81 11 -4
6 -2 14 4 17 15 10 -80 23 -144 20 l-28 -1 0 -123 0 -124 98 -21 c133 -30 277
-52 339 -52 l52 0 21 57 c28 74 37 181 19 214 l-13 24 -7 -25 c-7 -24 -7 -24
-8 5 -1 17 -8 41 -15 54 -8 14 -12 30 -9 36 2 7 -3 17 -11 24 -8 7 -12 20 -9
29 4 15 3 15 -6 2 -6 -8 -11 -13 -12 -10 0 3 -2 15 -3 27 -3 30 -12 38 -20 18z
m-81 -255 c3 -5 1 -10 -4 -10 -6 0 -11 5 -11 10 0 6 2 10 4 10 3 0 8 -4 11
-10z m30 -90 c-3 -5 -12 -10 -20 -10 -8 0 -17 5 -20 10 -4 6 5 10 20 10 15 0
24 -4 20 -10z"/>
<path d="M6225 3676 c-45 -31 -254 -109 -373 -138 -91 -22 -153 -31 -219 -32
-106 -1 -107 -8 -4 -55 100 -46 211 -59 316 -38 98 20 205 72 268 131 44 41
47 47 47 95 0 54 -4 59 -35 37z m-450 -196 c9 -15 -17 -22 -61 -18 -38 4 -38
4 -14 15 32 15 67 16 75 3z"/>
<path d="M200 3610 c0 -5 7 -10 15 -10 16 0 35 -30 35 -55 0 -11 -6 -14 -24
-9 -13 3 -27 1 -30 -5 -10 -16 42 -25 59 -11 21 17 19 63 -3 83 -20 19 -52 23
-52 7z"/>
<path d="M4726 3564 c-22 -21 -20 -50 4 -74 24 -24 38 -25 68 -4 24 16 28 44
12 75 -13 23 -62 26 -84 3z"/>
<path d="M500 3565 c0 -5 5 -17 10 -25 5 -8 10 -10 10 -5 0 6 -5 17 -10 25 -5
8 -10 11 -10 5z"/>
<path d="M0 3151 l0 -111 28 -7 c15 -5 66 -8 113 -7 74 0 95 5 152 31 57 27
164 110 154 119 -2 2 -55 11 -118 19 -103 15 -265 46 -311 61 -16 5 -18 -4
-18 -105z"/>
<path d="M376 2151 c-4 -5 0 -11 6 -13 7 -3 13 -13 13 -23 0 -12 13 -22 45
-31 54 -16 50 -16 50 -5 0 18 -63 72 -77 67 -8 -3 -11 -1 -8 4 3 6 -1 10 -9
10 -8 0 -17 -4 -20 -9z"/>
<path d="M170 2100 c0 -5 5 -10 10 -10 6 0 10 5 10 10 0 6 -4 10 -10 10 -5 0
-10 -4 -10 -10z"/>
<path d="M141 2056 c-18 -21 -24 -100 -11 -140 14 -44 19 -45 182 -10 128 26
213 57 204 72 -3 5 -32 12 -65 15 -52 6 -67 3 -106 -17 -56 -30 -76 -25 -122
31 -44 54 -67 68 -82 49z"/>
<path d="M449 1924 c-58 -24 -205 -54 -267 -54 l-35 0 22 -24 22 -23 82 23
c147 43 237 77 237 91 0 7 -1 12 -2 12 -2 -1 -28 -12 -59 -25z"/>
<path d="M459 1874 c-36 -18 -230 -64 -243 -57 -6 3 -3 -3 7 -13 28 -30 152
-27 198 5 33 23 74 69 67 76 -1 2 -15 -3 -29 -11z"/>
<path d="M6241 1816 c-6 -7 -9 -20 -5 -29 3 -8 0 -18 -7 -23 -9 -5 -10 -2 -5
11 5 15 4 16 -9 5 -19 -16 -3 -30 26 -23 14 4 19 14 19 39 0 38 -2 40 -19 20z"/>
<path d="M6208 1688 c-27 -9 -28 -13 -28 -74 l0 -64 38 1 c20 0 31 3 25 6 -7
2 -13 9 -13 15 0 6 7 8 15 4 12 -4 15 6 15 59 0 69 -2 72 -52 53z"/>
<path d="M6242 1508 c-16 -16 -15 -35 3 -42 11 -4 15 2 15 24 0 34 -1 35 -18
18z"/>
<path d="M6180 1457 c0 -18 -60 -72 -89 -82 -27 -8 -27 -21 2 -29 38 -10 62
-7 78 12 9 9 28 27 44 39 29 23 29 25 -18 62 -15 11 -17 11 -17 -2z m-61 -106
c-15 -5 -22 6 -14 19 6 9 10 9 16 -1 5 -8 4 -15 -2 -18z"/>
<path d="M6250 1388 c0 -7 -12 -23 -27 -35 l-28 -23 32 17 c18 10 33 26 33 36
0 9 -2 17 -5 17 -3 0 -5 -5 -5 -12z"/>
<path d="M4329 686 c-21 -7 -43 -9 -51 -5 -9 5 -25 0 -44 -13 -16 -11 -21 -17
-11 -14 17 5 17 4 3 -16 -11 -15 -12 -25 -5 -34 7 -8 7 -14 -1 -19 -12 -8 -13
-52 -1 -57 13 -4 18 -53 6 -51 -5 1 -28 4 -50 7 l-40 6 38 -18 c21 -9 35 -21
30 -26 -4 -5 3 -5 17 -2 20 6 22 5 8 -4 -12 -7 -37 -6 -88 5 -283 59 -657 90
-995 82 -557 -14 -1061 -118 -1531 -317 -104 -44 -360 -172 -391 -196 -15 -11
72 -13 589 -13 l608 -1 16 25 c19 29 12 58 -19 73 -22 11 -22 11 3 11 32 1 70
-25 70 -47 0 -10 -7 -28 -16 -40 l-15 -22 1277 0 c830 0 1275 3 1268 10 -5 5
-27 16 -49 24 -22 8 -34 15 -27 15 7 1 40 -10 74 -24 54 -22 76 -25 187 -25
109 1 124 2 108 14 -33 25 -290 153 -402 201 -60 25 -122 52 -138 58 -17 7
-25 17 -22 26 4 11 3 11 -9 1 -12 -9 -29 -8 -83 10 -37 12 -72 26 -77 31 -6 5
-17 9 -26 9 -10 0 -27 8 -39 19 -18 16 -19 20 -6 31 8 7 15 19 15 26 0 8 5 14
10 14 6 0 10 7 10 16 0 13 9 15 54 10 44 -4 56 -2 72 14 46 46 46 47 -2 55
-46 7 -172 43 -232 67 -28 11 -32 16 -27 38 4 14 14 33 22 43 15 16 14 17 -18
17 -19 -1 -50 -7 -70 -14z m-1667 -272 c16 -10 7 -51 -14 -71 -26 -23 -90 -57
-128 -67 -14 -4 -4 5 22 19 72 38 104 100 58 112 -11 3 -20 10 -20 15 0 10 64
3 82 -8z m1795 -40 c-3 -3 -12 -4 -19 -1 -8 3 -5 6 6 6 11 1 17 -2 13 -5z
m-10 -134 c79 -27 153 -90 153 -129 0 -29 -18 -50 -60 -70 l-25 -12 22 18 c38
31 39 66 3 106 -48 55 -120 85 -270 111 -14 3 7 3 45 1 39 -2 98 -14 132 -25z
m-2389 -27 c21 -18 26 -32 23 -65 -1 -21 -75 -99 -116 -123 -25 -14 -23 -11
11 21 82 76 94 141 34 171 l-25 13 26 0 c15 0 36 -8 47 -17z"/>
</g>
</svg>
