<svg width="142" height="24" viewBox="0 0 142 24" fill="none" xmlns="http://www.w3.org/2000/svg">
<circle cx="138" cy="16" r="4" fill="#7F56D9"/>
<path d="M15.552 3.248V20H12.192V12.872H5.016V20H1.656V3.248H5.016V10.136H12.192V3.248H15.552ZM24.7631 20.216C23.4831 20.216 22.3311 19.936 21.3071 19.376C20.2831 18.8 19.4751 17.992 18.8831 16.952C18.3071 15.912 18.0191 14.712 18.0191 13.352C18.0191 11.992 18.3151 10.792 18.9071 9.752C19.5151 8.712 20.3391 7.912 21.3791 7.352C22.4191 6.776 23.5791 6.488 24.8591 6.488C26.1391 6.488 27.2991 6.776 28.3391 7.352C29.3791 7.912 30.1951 8.712 30.7871 9.752C31.3951 10.792 31.6991 11.992 31.6991 13.352C31.6991 14.712 31.3871 15.912 30.7631 16.952C30.1551 17.992 29.3231 18.8 28.2671 19.376C27.2271 19.936 26.0591 20.216 24.7631 20.216ZM24.7631 17.288C25.3711 17.288 25.9391 17.144 26.4671 16.856C27.0111 16.552 27.4431 16.104 27.7631 15.512C28.0831 14.92 28.2431 14.2 28.2431 13.352C28.2431 12.088 27.9071 11.12 27.2351 10.448C26.5791 9.76 25.7711 9.416 24.8111 9.416C23.8511 9.416 23.0431 9.76 22.3871 10.448C21.7471 11.12 21.4271 12.088 21.4271 13.352C21.4271 14.616 21.7391 15.592 22.3631 16.28C23.0031 16.952 23.8031 17.288 24.7631 17.288ZM50.6758 6.512C52.3078 6.512 53.6198 7.016 54.6118 8.024C55.6198 9.016 56.1238 10.408 56.1238 12.2V20H52.7638V12.656C52.7638 11.616 52.4998 10.824 51.9718 10.28C51.4438 9.72 50.7238 9.44 49.8118 9.44C48.8998 9.44 48.1718 9.72 47.6278 10.28C47.0998 10.824 46.8358 11.616 46.8358 12.656V20H43.4758V12.656C43.4758 11.616 43.2118 10.824 42.6838 10.28C42.1558 9.72 41.4358 9.44 40.5238 9.44C39.5958 9.44 38.8598 9.72 38.3158 10.28C37.7878 10.824 37.5238 11.616 37.5238 12.656V20H34.1638V6.704H37.5238V8.312C37.9558 7.752 38.5078 7.312 39.1798 6.992C39.8678 6.672 40.6198 6.512 41.4358 6.512C42.4758 6.512 43.4038 6.736 44.2198 7.184C45.0358 7.616 45.6678 8.24 46.1158 9.056C46.5478 8.288 47.1718 7.672 47.9878 7.208C48.8198 6.744 49.7158 6.512 50.6758 6.512ZM71.6723 13.064C71.6723 13.544 71.6403 13.976 71.5763 14.36H61.8563C61.9363 15.32 62.2723 16.072 62.8643 16.616C63.4563 17.16 64.1843 17.432 65.0483 17.432C66.2963 17.432 67.1843 16.896 67.7123 15.824H71.3363C70.9523 17.104 70.2163 18.16 69.1283 18.992C68.0403 19.808 66.7043 20.216 65.1203 20.216C63.8403 20.216 62.6883 19.936 61.6643 19.376C60.6563 18.8 59.8643 17.992 59.2883 16.952C58.7283 15.912 58.4482 14.712 58.4482 13.352C58.4482 11.976 58.7283 10.768 59.2883 9.728C59.8483 8.688 60.6323 7.888 61.6403 7.328C62.6483 6.768 63.8083 6.488 65.1203 6.488C66.3843 6.488 67.5123 6.76 68.5043 7.304C69.5123 7.848 70.2883 8.624 70.8323 9.632C71.3923 10.624 71.6723 11.768 71.6723 13.064ZM68.1923 12.104C68.1763 11.24 67.8643 10.552 67.2563 10.04C66.6483 9.512 65.9043 9.248 65.0243 9.248C64.1923 9.248 63.4883 9.504 62.9123 10.016C62.3523 10.512 62.0083 11.208 61.8803 12.104H68.1923Z" fill="#101828"/>
<path d="M77.4848 17.336H83.0048V20H74.1248V3.248H77.4848V17.336ZM84.2764 13.304C84.2764 11.96 84.5404 10.768 85.0684 9.728C85.6124 8.688 86.3404 7.888 87.2524 7.328C88.1804 6.768 89.2124 6.488 90.3484 6.488C91.3404 6.488 92.2044 6.688 92.9404 7.088C93.6924 7.488 94.2924 7.992 94.7404 8.6V6.704H98.1244V20H94.7404V18.056C94.3084 18.68 93.7084 19.2 92.9404 19.616C92.1884 20.016 91.3164 20.216 90.3244 20.216C89.2044 20.216 88.1804 19.928 87.2524 19.352C86.3404 18.776 85.6124 17.968 85.0684 16.928C84.5404 15.872 84.2764 14.664 84.2764 13.304ZM94.7404 13.352C94.7404 12.536 94.5804 11.84 94.2604 11.264C93.9404 10.672 93.5084 10.224 92.9644 9.92C92.4204 9.6 91.8364 9.44 91.2124 9.44C90.5884 9.44 90.0124 9.592 89.4844 9.896C88.9564 10.2 88.5244 10.648 88.1884 11.24C87.8684 11.816 87.7084 12.504 87.7084 13.304C87.7084 14.104 87.8684 14.808 88.1884 15.416C88.5244 16.008 88.9564 16.464 89.4844 16.784C90.0284 17.104 90.6044 17.264 91.2124 17.264C91.8364 17.264 92.4204 17.112 92.9644 16.808C93.5084 16.488 93.9404 16.04 94.2604 15.464C94.5804 14.872 94.7404 14.168 94.7404 13.352ZM108.774 6.512C110.358 6.512 111.638 7.016 112.614 8.024C113.59 9.016 114.078 10.408 114.078 12.2V20H110.718V12.656C110.718 11.6 110.454 10.792 109.926 10.232C109.398 9.656 108.678 9.368 107.766 9.368C106.838 9.368 106.102 9.656 105.558 10.232C105.03 10.792 104.766 11.6 104.766 12.656V20H101.406V6.704H104.766V8.36C105.214 7.784 105.782 7.336 106.47 7.016C107.174 6.68 107.942 6.512 108.774 6.512ZM116.409 13.304C116.409 11.96 116.673 10.768 117.201 9.728C117.745 8.688 118.481 7.888 119.409 7.328C120.337 6.768 121.369 6.488 122.505 6.488C123.369 6.488 124.193 6.68 124.977 7.064C125.761 7.432 126.385 7.928 126.849 8.552V2.24H130.257V20H126.849V18.032C126.433 18.688 125.849 19.216 125.097 19.616C124.345 20.016 123.473 20.216 122.481 20.216C121.361 20.216 120.337 19.928 119.409 19.352C118.481 18.776 117.745 17.968 117.201 16.928C116.673 15.872 116.409 14.664 116.409 13.304ZM126.873 13.352C126.873 12.536 126.713 11.84 126.393 11.264C126.073 10.672 125.641 10.224 125.097 9.92C124.553 9.6 123.969 9.44 123.345 9.44C122.721 9.44 122.145 9.592 121.617 9.896C121.089 10.2 120.657 10.648 120.321 11.24C120.001 11.816 119.841 12.504 119.841 13.304C119.841 14.104 120.001 14.808 120.321 15.416C120.657 16.008 121.089 16.464 121.617 16.784C122.161 17.104 122.737 17.264 123.345 17.264C123.969 17.264 124.553 17.112 125.097 16.808C125.641 16.488 126.073 16.04 126.393 15.464C126.713 14.872 126.873 14.168 126.873 13.352Z" fill="black"/>
</svg>
