<svg xmlns="http://www.w3.org/2000/svg" width="20" height="17"><path fill="#FFF" d="M20 2.172a8.192 8.192 0 01-2.357.646 4.11 4.11 0 001.804-2.27 8.22 8.22 0 01-2.605.996A4.096 4.096 0 0013.847.248c-2.65 0-4.596 2.472-3.998 5.037A11.648 11.648 0 011.392 1a4.109 4.109 0 001.27 5.478 4.086 4.086 0 01-1.858-.513c-.045 1.9 1.318 3.679 3.291 4.075a4.113 4.113 0 01-1.853.07 4.106 4.106 0 003.833 2.849A8.25 8.25 0 010 14.658a11.616 11.616 0 006.29 1.843c7.618 0 11.922-6.434 11.663-12.205A8.354 8.354 0 0020 2.172z"/></svg>