<svg width="254" height="238" viewBox="0 0 254 238" fill="none" xmlns="http://www.w3.org/2000/svg">
<path d="M181.577 33H66.0798C61.7823 33 57.6608 34.7072 54.622 37.746C51.5832 40.7848 49.876 44.9063 49.876 49.2038V180.815H50.074V227.032C50.0739 228.816 50.531 230.571 51.4019 232.129C52.2728 233.686 53.5283 234.995 55.0486 235.929C56.569 236.864 58.3034 237.393 60.0864 237.466C61.8694 237.54 63.6415 237.155 65.2336 236.349L118.508 209.343C119.96 208.615 121.561 208.236 123.185 208.236C124.809 208.236 126.41 208.615 127.861 209.343L182.774 236.547C184.368 237.336 186.136 237.706 187.912 237.621C189.688 237.535 191.412 236.998 192.923 236.059C194.433 235.121 195.678 233.812 196.541 232.258C197.404 230.703 197.855 228.954 197.853 227.176L197.709 180.815V49.1588C197.697 44.8815 195.995 40.7824 192.973 37.7554C189.951 34.7284 185.854 33.019 181.577 33Z" fill="url(#paint0_linear_115_303)"/>
<path d="M254.001 75.6248C254.004 79.1276 252.734 82.5122 250.426 85.1476C248.119 87.7829 244.932 89.489 241.459 89.9479C240.824 90.0289 240.185 90.0704 239.545 90.0724H191.488C190.445 90.0701 189.405 89.9842 188.376 89.8156C183.958 89.0534 179.979 86.6841 177.203 83.1639C174.428 79.6436 173.053 75.2211 173.343 70.7478C173.632 66.2744 175.567 62.0663 178.773 58.9334C181.979 55.8006 186.231 53.9644 190.71 53.7784C193.031 48.7379 196.929 44.589 201.814 41.9574C206.7 39.3259 212.309 38.3544 217.795 39.1896C223.281 40.0248 228.347 42.6212 232.228 46.5874C236.109 50.5536 238.596 55.6743 239.312 61.1772H239.53C241.429 61.1741 243.31 61.5456 245.066 62.2703C246.821 62.9949 248.417 64.0587 249.761 65.4005C251.105 66.7424 252.171 68.3362 252.899 70.0906C253.626 71.8449 254.001 73.7255 254.001 75.6248Z" fill="url(#paint1_linear_115_303)"/>
<path d="M9.625 47.3281C9.625 50.2169 10.7726 52.9873 12.8152 55.03C14.8579 57.0726 17.6283 58.2202 20.5171 58.2202H56.6789C60.2418 58.2013 63.6566 56.7921 66.1959 54.2926C68.7351 51.7931 70.198 48.401 70.2731 44.8388C70.3482 41.2765 69.0294 37.8258 66.5977 35.2216C64.166 32.6174 60.8136 31.0655 57.2546 30.8966C55.4993 27.1158 52.565 24.0063 48.8921 22.0351C45.2193 20.0638 41.0061 19.3371 36.8851 19.964C32.7642 20.5909 28.9577 22.5377 26.0372 25.5119C23.1167 28.4862 21.2398 32.3276 20.6883 36.4593H20.5249C17.6388 36.4573 14.8699 37.6007 12.8262 39.6386C10.7825 41.6764 9.63118 44.442 9.625 47.3281Z" fill="url(#paint2_linear_115_303)"/>
<path d="M128.114 58.8001L140.933 84.7712C141.313 85.5412 141.875 86.2073 142.569 86.7122C143.264 87.2171 144.071 87.5458 144.921 87.6699L173.574 91.8018C174.545 91.9505 175.455 92.3655 176.203 93.0007C176.951 93.6359 177.508 94.4663 177.813 95.3996C178.117 96.3328 178.156 97.3321 177.926 98.2863C177.696 99.2405 177.205 100.112 176.509 100.804L155.804 121.014C155.188 121.613 154.728 122.353 154.463 123.17C154.198 123.988 154.136 124.857 154.283 125.704L159.18 154.241C159.348 155.216 159.239 156.219 158.866 157.137C158.494 158.054 157.871 158.848 157.07 159.43C156.269 160.012 155.322 160.358 154.334 160.428C153.347 160.499 152.359 160.292 151.483 159.831L125.854 146.328C125.093 145.929 124.247 145.72 123.387 145.72C122.528 145.72 121.682 145.929 120.921 146.328L95.2919 159.831C94.4162 160.29 93.4297 160.495 92.4438 160.423C91.4578 160.351 90.5116 160.004 89.712 159.423C88.9125 158.842 88.2914 158.048 87.9189 157.132C87.5464 156.217 87.4373 155.215 87.604 154.241L92.4922 125.704C92.639 124.857 92.5772 123.988 92.3121 123.17C92.047 122.353 91.5866 121.613 90.9708 121.014L70.2659 100.804C69.5697 100.112 69.0792 99.2405 68.849 98.2863C68.6188 97.3321 68.6581 96.3328 68.9623 95.3996C69.2665 94.4663 69.8238 93.6359 70.5721 93.0007C71.3205 92.3655 72.2304 91.9505 73.2006 91.8018L101.854 87.6429C102.704 87.5188 103.511 87.1901 104.206 86.6852C104.9 86.1803 105.462 85.5142 105.842 84.7442L118.661 58.773C119.107 57.9021 119.786 57.1716 120.621 56.6624C121.457 56.1532 122.417 55.8852 123.396 55.888C124.374 55.8908 125.333 56.1643 126.166 56.6783C126.998 57.1922 127.673 57.9266 128.114 58.8001Z" fill="url(#paint3_linear_115_303)"/>
<path d="M1.89262e-05 186.589C-0.00170582 190.077 1.26481 193.447 3.56358 196.071C5.86235 198.694 9.03657 200.393 12.4948 200.85C13.1238 200.937 13.7581 200.981 14.3931 200.982H62.2406C63.2831 200.98 64.3239 200.895 65.3526 200.725C69.7763 199.989 73.7687 197.635 76.5552 194.122C79.3417 190.608 80.7236 186.184 80.4328 181.709C80.1421 177.234 78.1993 173.027 74.9815 169.903C71.7637 166.779 67.5003 164.962 63.0186 164.805C60.7041 159.789 56.8222 155.661 51.9577 153.043C47.0932 150.425 41.5097 149.459 36.0484 150.29C30.5871 151.122 25.544 153.705 21.6788 157.652C17.8136 161.599 15.3358 166.695 14.6188 172.172H14.3931C12.501 172.172 10.6275 172.545 8.87974 173.27C7.13196 173.995 5.54424 175.057 4.20741 176.396C2.87058 177.735 1.81087 179.325 1.08892 181.074C0.366976 182.823 -0.00304934 184.697 1.89262e-05 186.589Z" fill="url(#paint4_linear_115_303)"/>
<path d="M215.523 107.046C215.208 105.811 216.348 104.699 217.575 105.043L225.855 107.37C227.081 107.715 227.475 109.258 226.563 110.148L220.408 116.156C219.496 117.046 217.963 116.615 217.648 115.38L215.523 107.046Z" fill="#5799FD"/>
<path d="M24.3421 107.046C24.0273 105.811 25.1672 104.699 26.3938 105.043L34.674 107.37C35.9007 107.715 36.2942 109.258 35.3823 110.148L29.2271 116.156C28.3153 117.046 26.7819 116.615 26.4671 115.38L24.3421 107.046Z" fill="#ACC9F4"/>
<path d="M88.6108 7.99867C89.1001 5.97173 91.9832 5.97173 92.4725 7.99866L94.1193 14.8206C94.2941 15.5449 94.8597 16.1105 95.584 16.2853L102.406 17.9321C104.433 18.4214 104.433 21.3045 102.406 21.7938L95.584 23.4406C94.8597 23.6154 94.2941 24.181 94.1193 24.9053L92.4725 31.7272C91.9832 33.7542 89.1001 33.7542 88.6108 31.7272L86.964 24.9053C86.7892 24.181 86.2236 23.6154 85.4993 23.4406L78.6774 21.7938C76.6504 21.3045 76.6504 18.4214 78.6774 17.9321L85.4993 16.2853C86.2236 16.1105 86.7892 15.5449 86.964 14.8206L88.6108 7.99867Z" fill="#ACC9F4"/>
<path d="M133.165 226.768C133.165 229.282 131.127 231.32 128.613 231.32C126.099 231.32 124.061 229.282 124.061 226.768C124.061 224.254 126.099 222.217 128.613 222.217C131.127 222.217 133.165 224.254 133.165 226.768Z" stroke="#E6F1FF" stroke-width="2.48287"/>
<path d="M214.41 189.248C214.899 187.221 217.782 187.221 218.271 189.248L219.918 196.07C220.093 196.794 220.658 197.36 221.383 197.535L228.205 199.182C230.232 199.671 230.232 202.554 228.205 203.043L221.383 204.69C220.658 204.865 220.093 205.43 219.918 206.155L218.271 212.977C217.782 215.004 214.899 215.004 214.41 212.977L212.763 206.155C212.588 205.43 212.022 204.865 211.298 204.69L204.476 203.043C202.449 202.554 202.449 199.671 204.476 199.182L211.298 197.535C212.022 197.36 212.588 196.794 212.763 196.07L214.41 189.248Z" fill="#ACC9F4"/>
<circle cx="222.133" cy="160.559" r="4.55192" stroke="#5799FD" stroke-width="2.48287"/>
<defs>
<linearGradient id="paint0_linear_115_303" x1="233.854" y1="248.172" x2="56.4475" y2="88.769" gradientUnits="userSpaceOnUse">
<stop stop-color="#70A8FF"/>
<stop offset="1" stop-color="#5597FD"/>
</linearGradient>
<linearGradient id="paint1_linear_115_303" x1="238.687" y1="112.143" x2="198.547" y2="38.8982" gradientUnits="userSpaceOnUse">
<stop stop-color="#E9F3FF"/>
<stop offset="1" stop-color="#D7E7FF"/>
</linearGradient>
<linearGradient id="paint2_linear_115_303" x1="58.7663" y1="74.8138" x2="28.5819" y2="19.7533" gradientUnits="userSpaceOnUse">
<stop stop-color="#E9F3FF"/>
<stop offset="1" stop-color="#D7E7FF"/>
</linearGradient>
<linearGradient id="paint3_linear_115_303" x1="77.5256" y1="83.9386" x2="273.376" y2="160.346" gradientUnits="userSpaceOnUse">
<stop stop-color="#E9F2FF"/>
<stop offset="0.70369" stop-color="#B0CFFF"/>
</linearGradient>
<linearGradient id="paint4_linear_115_303" x1="65.1999" y1="222.969" x2="25.2319" y2="149.967" gradientUnits="userSpaceOnUse">
<stop stop-color="#E9F3FF"/>
<stop offset="1" stop-color="#D7E7FF"/>
</linearGradient>
</defs>
</svg>
