<?xml version="1.0" encoding="UTF-8"?>
<svg width="70px" height="40px" viewBox="0 0 70 40" version="1.1" xmlns="http://www.w3.org/2000/svg" xmlns:xlink="http://www.w3.org/1999/xlink">
    <!-- Generator: Sketch 44 (41411) - http://www.bohemiancoding.com/sketch -->
    <title>Fox-logo</title>
    <desc>Created with Sketch.</desc>
    <defs></defs>
    <g id="Working-Assets" stroke="none" stroke-width="1" fill="none" fill-rule="evenodd">
        <g id="Fox-logo">
            <g id="NBCSN" transform="translate(0.500000, 12.000000)">
                <path d="M8.50658466,2.20311039 C8.74099562,1.80785065 9.13174356,1.39642208 9.55084767,1.22304545 C10.2714723,0.88311039 11.2420093,1.02746104 11.8320066,1.56317532 C12.4030997,2.09440909 12.6925216,2.82161688 12.5564121,3.6360974 C12.6976258,3.60940909 12.8377052,3.51668182 12.9868586,3.46505844 C13.8694915,3.20888961 14.8069463,3.48687662 15.3738805,4.26824026 C15.8022477,4.8246039 15.9120805,5.69012338 15.6563079,6.36064286 C15.5287052,6.69999351 15.3120641,7.00603247 15.0313381,7.26473377 L15.0600723,7.2923961 C15.8841025,7.33427922 16.6935764,7.99116234 16.944623,8.79804545 C17.2136285,9.61135714 16.9760038,10.4801883 16.3962148,11.074539 C15.9224778,11.5537597 15.3171682,11.7216818 14.6407792,11.706487 L2.37276822,11.706487 C1.36404493,11.7290844 0.586329863,11.2701234 0.166280548,10.3504481 C-0.161705753,9.55914935 -0.000831780822,8.54869481 0.615631233,7.94869481 C0.999573699,7.53083766 1.48484219,7.36018831 2.00980932,7.27486364 C1.41829973,6.71187662 1.13095726,5.93733117 1.29788055,5.1096039 C1.41829973,4.43811039 1.97502575,3.75824026 2.61360658,3.52408442 C3.17808329,3.29440909 3.94048603,3.33453896 4.45713534,3.64700649 L4.4771737,3.6246039 C4.32064767,2.71038312 4.71631068,1.88674675 5.45168055,1.3822013 C6.10859836,0.926162338 7.16155726,0.936292208 7.80656548,1.42213636 C8.09466411,1.60505844 8.33361205,1.91655195 8.50658466,2.20311039" id="Fill-1" fill="#FFFFFF"></path>
                <path d="M11.9814058,2.54487662 C12.2420934,3.08994156 12.0916167,3.80624026 11.8133482,4.29675974 L9.68493452,9.2190974 L9.6673537,9.24013636 L8.8954989,4.24805844 C8.83368247,3.77059091 9.33483041,3.56585065 9.62708795,3.33442208 C9.61404411,3.2640974 9.53615918,3.26740909 9.4879537,3.23487662 L8.7703537,3.22688961 L8.74899205,3.20370779 C8.75126055,2.58559091 9.0781126,2.01208442 9.62708795,1.71188961 C10.2012058,1.3702013 11.0112468,1.46312338 11.508803,1.89987662 C11.7108879,2.08591558 11.8825373,2.30195455 11.9814058,2.54487662" id="Fill-4" fill="#5F53AE"></path>
                <path d="M8.05880301,2.37222078 C8.23120849,2.70241558 8.33385781,3.07975325 8.27166329,3.49468831 L7.4041537,9.20988312 C7.40755644,9.21923377 7.40094,9.22566234 7.39281123,9.22858442 L7.16936466,8.77001299 L4.99312356,3.77696104 C4.78990438,3.13332468 4.97913452,2.46202597 5.43264411,2.00209091 C5.89144685,1.52248052 6.65025781,1.39176623 7.24819479,1.65358442 C7.56710712,1.79345455 7.86919479,2.0541039 8.05880301,2.37222078" id="Fill-6" fill="#C81A46"></path>
                <path d="M15.1296584,4.77950649 C15.4219159,5.29242857 15.3555625,6.06814286 15.031357,6.54405195 C14.8287049,6.87853247 14.4946693,7.04431169 14.2164008,7.26483117 L9.70814877,10.4434675 L9.69548301,10.4434675 L9.74633507,10.2909351 L12.1363816,4.75087013 C12.4942364,4.0972987 13.1761077,3.76535065 13.9005132,3.86567532 C14.3958008,3.95781818 14.8899542,4.2885974 15.1296584,4.77950649" id="Fill-8" fill="#0E88D3"></path>
                <path d="M4.88820575,4.75079221 L7.37504137,10.4431948 L7.33401945,10.4431948 L2.32064959,6.89267532 C1.81023863,6.45222078 1.60304959,5.79007792 1.77602219,5.12131169 C1.9053263,4.62007792 2.31063041,4.15157143 2.79060575,3.96650649 C3.57909616,3.66981818 4.46834548,3.98462338 4.88820575,4.75079221" id="Fill-10" fill="#F25C19"></path>
                <path d="M16.4372556,8.79804545 C16.6850885,9.33940909 16.5871652,10.0827857 16.2308227,10.5440844 C15.8767488,10.986487 15.4020666,11.2262922 14.8464748,11.2109026 L9.50114877,11.2153831 L13.9793433,8.01531818 C14.4177296,7.72583766 15.08202,7.67304545 15.5584036,7.9072013 C15.9281679,8.05427922 16.2741132,8.42655195 16.4372556,8.79804545" id="Fill-12" fill="#33B540"></path>
                <path d="M0.608750137,8.79804545 C0.357892603,9.33940909 0.45581589,10.0827857 0.813103562,10.5440844 C1.1679337,10.986487 1.64223781,11.2262922 2.19782959,11.2109026 L7.5444789,11.2153831 L3.06552822,8.01531818 C2.62865425,7.72583766 1.96322959,7.67304545 1.48495562,7.9072013 C1.11651452,8.05427922 0.76962411,8.42655195 0.608750137,8.79804545" id="Fill-14" fill="#FAB20B"></path>
                <path d="M8.50658466,2.20311039 C8.74099562,1.80785065 9.13174356,1.39642208 9.55084767,1.22304545 C10.2714723,0.88311039 11.2420093,1.02746104 11.8320066,1.56317532 C12.4030997,2.09440909 12.6925216,2.82161688 12.5564121,3.6360974 C12.6976258,3.60940909 12.8377052,3.51668182 12.9868586,3.46505844 C13.8694915,3.20888961 14.8069463,3.48687662 15.3738805,4.26824026 C15.8022477,4.8246039 15.9120805,5.69012338 15.6563079,6.36064286 C15.5287052,6.69999351 15.3120641,7.00603247 15.0313381,7.26473377 L15.0600723,7.2923961 C15.8841025,7.33427922 16.6935764,7.99116234 16.944623,8.79804545 C17.2136285,9.61135714 16.9760038,10.4801883 16.3962148,11.074539 C15.9224778,11.5537597 15.3171682,11.7216818 14.6407792,11.706487 L2.37276822,11.706487 C1.36404493,11.7290844 0.586329863,11.2701234 0.166280548,10.3504481 C-0.161705753,9.55914935 -0.000831780822,8.54869481 0.615631233,7.94869481 C0.999573699,7.53083766 1.48484219,7.36018831 2.00980932,7.27486364 C1.41829973,6.71187662 1.13095726,5.93733117 1.29788055,5.1096039 C1.41829973,4.43811039 1.97502575,3.75824026 2.61360658,3.52408442 C3.17808329,3.29440909 3.94048603,3.33453896 4.45713534,3.64700649 L4.4771737,3.6246039 C4.32064767,2.71038312 4.71631068,1.88674675 5.45168055,1.3822013 C6.10859836,0.926162338 7.16155726,0.936292208 7.80656548,1.42213636 C8.09466411,1.60505844 8.33361205,1.91655195 8.50658466,2.20311039" id="Fill-16" fill="#FFFFFF"></path>
                <path d="M11.9814058,2.54487662 C12.2420934,3.08994156 12.0916167,3.80624026 11.8133482,4.29675974 L9.68493452,9.2190974 L9.6673537,9.24013636 L8.8954989,4.24805844 C8.83368247,3.77059091 9.33483041,3.56585065 9.62708795,3.33442208 C9.61404411,3.2640974 9.53615918,3.26740909 9.4879537,3.23487662 L8.7703537,3.22688961 L8.74899205,3.20370779 C8.75126055,2.58559091 9.0781126,2.01208442 9.62708795,1.71188961 C10.2012058,1.3702013 11.0112468,1.46312338 11.508803,1.89987662 C11.7108879,2.08591558 11.8825373,2.30195455 11.9814058,2.54487662" id="Fill-19" fill="#5F53AE"></path>
                <path d="M8.05880301,2.37222078 C8.23120849,2.70241558 8.33385781,3.07975325 8.27166329,3.49468831 L7.4041537,9.20988312 C7.40755644,9.21923377 7.40094,9.22566234 7.39281123,9.22858442 L7.16936466,8.77001299 L4.99312356,3.77696104 C4.78990438,3.13332468 4.97913452,2.46202597 5.43264411,2.00209091 C5.89144685,1.52248052 6.65025781,1.39176623 7.24819479,1.65358442 C7.56710712,1.79345455 7.86919479,2.0541039 8.05880301,2.37222078" id="Fill-21" fill="#C81A46"></path>
                <path d="M15.1296584,4.77950649 C15.4219159,5.29242857 15.3555625,6.06814286 15.031357,6.54405195 C14.8287049,6.87853247 14.4946693,7.04431169 14.2164008,7.26483117 L9.70814877,10.4434675 L9.69548301,10.4434675 L9.74633507,10.2909351 L12.1363816,4.75087013 C12.4942364,4.0972987 13.1761077,3.76535065 13.9005132,3.86567532 C14.3958008,3.95781818 14.8899542,4.2885974 15.1296584,4.77950649" id="Fill-23" fill="#0E88D3"></path>
                <path d="M4.88820575,4.75079221 L7.37504137,10.4431948 L7.33401945,10.4431948 L2.32064959,6.89267532 C1.81023863,6.45222078 1.60304959,5.79007792 1.77602219,5.12131169 C1.9053263,4.62007792 2.31063041,4.15157143 2.79060575,3.96650649 C3.57909616,3.66981818 4.46834548,3.98462338 4.88820575,4.75079221" id="Fill-25" fill="#F25C19"></path>
                <path d="M16.4372556,8.79804545 C16.6850885,9.33940909 16.5871652,10.0827857 16.2308227,10.5440844 C15.8767488,10.986487 15.4020666,11.2262922 14.8464748,11.2109026 L9.50114877,11.2153831 L13.9793433,8.01531818 C14.4177296,7.72583766 15.08202,7.67304545 15.5584036,7.9072013 C15.9281679,8.05427922 16.2741132,8.42655195 16.4372556,8.79804545" id="Fill-27" fill="#33B540"></path>
                <path d="M0.608750137,8.79804545 C0.357892603,9.33940909 0.45581589,10.0827857 0.813103562,10.5440844 C1.1679337,10.986487 1.64223781,11.2262922 2.19782959,11.2109026 L7.5444789,11.2153831 L3.06552822,8.01531818 C2.62865425,7.72583766 1.96322959,7.67304545 1.48495562,7.9072013 C1.11651452,8.05427922 0.76962411,8.42655195 0.608750137,8.79804545" id="Fill-29" fill="#FAB20B"></path>
                <polygon id="Fill-31" fill="#000000" points="18.0838792 1.71884416 20.3075696 1.74650649 25.3980682 7.82033766 25.3980682 1.71884416 27.6217586 1.71884416 27.6217586 11.4645584 25.6659395 11.4645584 20.3879121 5.30793506 20.3879121 11.4645584 18.0838792 11.4645584"></polygon>
                <path d="M66.7761962,1.69116234 L66.7761962,7.81681169 L61.6847523,1.71901948 C61.6751112,1.71785065 61.6671715,1.71940909 61.6579085,1.71901948 C61.6344674,1.71765584 61.6125386,1.71726623 61.5919332,1.71901948 L60.8616674,1.71278571 C61.0784975,2.03265584 61.181903,2.47953896 61.1790674,2.8447987 C61.1947578,3.45746104 60.6949332,4.17765584 59.4610619,4.79713636 L59.4610619,7.82616234 C59.9436838,7.97791558 60.3017277,8.43785065 60.3200647,8.99187662 L60.3200647,9.0659026 C60.3072099,9.62888961 59.9478427,10.0985649 59.4610619,10.2503182 L59.4610619,11.4748636 L61.7656619,11.4748636 L61.7656619,5.29369481 L67.0425551,11.4748636 L69.0000756,11.4748636 L69.0000756,1.69116234 L66.7761962,1.69116234 Z" id="Fill-33" fill="#000000"></path>
                <path d="M30.6378526,7.42174675 L33.6369896,7.42174675 C35.2604745,7.89181169 34.7642416,9.50713636 33.6369896,9.69492857 L30.6289677,9.69492857 L30.6378526,7.42174675 Z M30.6378526,3.59401948 L33.5950225,3.59401948 C35.1956334,4.03973377 34.7065841,5.57499351 33.5950225,5.75324026 L30.6289677,5.75324026 L30.6378526,3.59401948 Z M28.3451622,1.71882468 L28.3451622,11.4653182 L34.3194279,11.4653182 C38.1170745,11.2551234 38.5685047,7.47921429 35.5527321,6.38538312 C36.9083458,5.64298052 38.2214252,2.77603247 34.2116745,1.71882468 L28.3451622,1.71882468 Z" id="Fill-36" fill="#000000"></path>
                <path d="M47.4592775,3.08544156 L46.003283,4.6208961 C44.3624063,3.13102597 42.1411734,3.06927273 40.8222337,4.58602597 C39.7766474,6.05427273 39.8360063,7.42141558 40.8222337,8.70362338 C42.3699132,10.2388831 44.4835816,9.92836364 46.1047981,8.59901299 L47.5609816,9.96011688 C44.8987159,12.1524545 41.8014666,12.4551818 38.8919351,9.96011688 C37.1535132,7.88953247 37.1198638,5.70264935 38.8580967,3.39946753 C41.0156227,0.839727273 45.3724529,1.07096104 47.4592775,3.08544156" id="Fill-38" fill="#000000"></path>
                <path d="M56.9105989,9.06894156 C56.952755,9.15504545 56.9833797,9.24738312 56.9255331,9.36796753 C55.6362728,11.4593961 52.389303,13.2443961 49.5444235,13.624461 C49.1816537,13.5243312 49.2438482,13.299526 49.5115304,13.0137468 C51.3491989,11.3259545 54.9358756,9.56257792 56.9105989,9.06894156 L56.9105989,9.06894156 Z M57.4554153,0.194980519 C56.837818,0.20062987 56.2096345,0.289655844 55.5876893,0.327642857 L55.572566,0.327642857 C51.6450482,0.550305195 47.7551496,2.97933117 46.8685468,4.51634416 C46.5174975,5.32498052 46.1140838,6.70926623 47.71564,7.53582468 L47.71564,7.52666883 C48.8631194,8.1779026 50.3310235,8.12491558 51.7802126,8.10952597 C53.2477386,8.17400649 54.7128071,8.15238312 56.1803331,8.61543506 L56.3447989,8.67095455 C53.6052153,9.56861688 50.4327276,11.103487 48.8500756,12.7854351 C48.4825797,13.3480325 48.433429,13.959526 49.3228674,14.7069935 C51.9647167,15.5140714 54.5341632,13.7688117 56.7400838,11.7060195 C57.3283797,11.1255 57.9206454,10.5477078 57.8922893,8.87764286 L57.8654454,8.75121429 L57.8743304,8.77264286 C58.2614865,8.74946104 58.7473222,8.67718831 59.1942153,8.98264286 C59.2303222,9.07907143 59.2841989,9.16011039 59.2331578,9.34653896 C59.2225715,9.39582468 58.8751139,9.68881169 58.8352263,9.68881169 C58.8632043,9.76011039 58.7938263,9.86277273 59.0265359,9.87387662 C59.2507386,9.80043506 59.3758838,9.70985065 59.6464016,9.50374675 C60.0723112,9.21933117 59.9467879,8.92595455 59.8377112,8.58153896 C59.5798591,8.29634416 59.2490372,8.09666883 58.7484564,8.08186364 C58.4478811,8.0730974 58.0871906,8.13095455 57.6438893,8.27627922 L57.6469139,8.28231818 C57.5960619,8.29575974 57.5427523,8.31134416 57.4911441,8.32556494 C56.4593578,7.28842208 54.4935194,7.13335714 52.4566016,7.0455 C50.7085386,6.92569481 49.3429057,7.07082468 47.8173441,6.48407143 L47.8173441,6.4717987 C47.2683687,5.08205844 52.6006509,2.34913636 55.5426975,2.12277273 L55.5426975,2.12900649 C55.5905249,2.12491558 55.66444,2.11848701 55.7164263,2.11342208 C55.7468619,2.11225325 55.7791879,2.10816234 55.8090564,2.10738312 L55.8090564,2.10426623 C56.9376317,1.99478571 58.8458126,1.76004545 59.7749496,2.42511039 C59.3150126,2.96978571 58.0771715,3.54757792 57.2128756,4.13394156 L57.2128756,4.1430974 L55.9676619,4.76608442 C55.7910975,4.88121429 55.3477961,4.98407143 55.692418,5.12394156 C56.2298619,5.30394156 56.888292,5.20887662 57.4941687,5.04056494 L57.500218,5.03764286 C58.4395632,4.83212338 59.4915769,4.30361688 60.448503,3.57251299 C60.7524811,3.24192857 60.9069276,2.43329221 60.379692,1.51517532 C59.496303,0.412967532 58.4926838,0.185824675 57.4552263,0.194980519 L57.4554153,0.194980519 Z" id="Fill-40" fill="#000000"></path>
            </g>
        </g>
    </g>
</svg>