<svg xmlns="http://www.w3.org/2000/svg" width="18" height="18" viewBox="0 0 18 18"><g fill="none"><g fill="#5E6573"><path d="M17.9 12.7C17.9 14.2 17.5 15.4 16.5 16.5 15.5 17.5 14.2 17.9 12.7 17.9 11.5 18 10.3 18 9 18 7.7 18 6.5 18 5.3 17.9 3.8 17.9 2.6 17.5 1.5 16.5 0.4 15.5 0.1 14.2 0 12.7 0 11.5 0 10.3 0 9 0 7.7 0 6.5 0 5.3 0.1 3.8 0.4 2.6 1.5 1.5 2.5 0.4 3.8 0.1 5.3 0 6.5 0 7.7 0 9 0 10.3 0 11.5 0 12.7 0 14.2 0.1 15.4 0.4 16.5 1.5 17.5 2.5 17.9 3.8 17.9 5.3 18 6.5 18 7.8 18 9 18 10.2 18 11.5 17.9 12.7ZM3.7 2C3.3 2.2 3 2.3 2.7 2.7 2.3 3 2.2 3.3 2 3.7 1.5 4.9 1.6 7.7 1.6 9 1.6 10.3 1.5 13.1 2 14.3 2.2 14.7 2.3 15 2.7 15.3 3 15.7 3.3 15.8 3.7 16 4.9 16.5 7.7 16.4 9 16.4 10.3 16.4 13.1 16.5 14.3 16 14.7 15.8 15 15.7 15.3 15.3 15.7 15 15.8 14.7 16 14.3 16.5 13.1 16.4 10.3 16.4 9 16.4 7.7 16.5 4.9 16 3.7 15.8 3.3 15.7 3 15.3 2.7 15 2.3 14.7 2.2 14.3 2 13.1 1.5 10.3 1.6 9 1.6 7.7 1.6 4.9 1.5 3.7 2ZM9 13.6C6.4 13.6 4.4 11.6 4.4 9 4.4 6.4 6.4 4.4 9 4.4 11.6 4.4 13.6 6.5 13.6 9 13.6 11.5 11.6 13.6 9 13.6ZM9 6C7.3 6 6 7.4 6 9 6 10.7 7.3 12.1 9 12.1 10.7 12.1 12 10.7 12 9 12 7.4 10.7 6 9 6ZM13.8 5.3C13.2 5.3 12.7 4.8 12.7 4.2 12.7 3.6 13.2 3.1 13.8 3.1 14.4 3.1 14.9 3.6 14.9 4.2 14.9 4.8 14.4 5.3 13.8 5.3Z"/></g></g></svg>