<svg xmlns="http://www.w3.org/2000/svg" width="20" height="16" viewBox="0 0 20 16"><g fill="none"><g fill="#5E6573"><path d="M6.3 16C13.8 16 18 9.8 18 4.5 18 4.3 18 4.2 18 4 18.8 3.4 19.4 2.7 20 1.9 19.3 2.2 18.5 2.4 17.6 2.5 18.5 2 19.1 1.2 19.4 0.3 18.6 0.8 17.8 1.1 16.8 1.3 15.6-0.1 13.5-0.4 11.9 0.5 10.3 1.3 9.4 3.2 9.8 5 6.5 4.8 3.5 3.3 1.4 0.7 0.3 2.6 0.9 4.9 2.7 6.1 2 6.1 1.4 5.9 0.8 5.6 0.8 5.6 0.8 5.7 0.8 5.7 0.8 7.6 2.2 9.3 4.1 9.6 3.5 9.8 2.9 9.8 2.2 9.7 2.8 11.4 4.3 12.5 6.1 12.5 4.6 13.6 2.8 14.2 1 14.2 0.7 14.2 0.3 14.2 0 14.2 1.9 15.4 4.1 16 6.3 16"/></g></g></svg>