<?xml version="1.0" encoding="iso-8859-1"?>
<!-- Generator: Adobe Illustrator 19.0.0, SVG Export Plug-In . SVG Version: 6.00 Build 0)  -->
<svg version="1.1" id="Capa_1" xmlns="http://www.w3.org/2000/svg" xmlns:xlink="http://www.w3.org/1999/xlink" x="0px" y="0px"
	 viewBox="0 0 512 512" style="enable-background:new 0 0 512 512;" xml:space="preserve">
<path style="fill:#61DE56;" d="M317.8,335.3c-5.7-0.3-11.1,2.1-14.099,6.901L256,416.6l-47.701-74.399
	c-2.999-4.801-8.399-7.5-14.099-6.901C94.9,345.801,31,379.701,31,422c0,58.5,115.8,90,225,90s225-31.5,225-90
	C481,379.701,417.1,345.801,317.8,335.3z"/>
<path style="fill:#13C37B;" d="M481,422c0,58.5-115.8,90-225,90v-95.4l47.701-74.399c2.999-4.801,8.399-7.202,14.099-6.901
	C417.1,345.801,481,379.701,481,422z"/>
<path style="fill:#FD3018;" d="M256,0C166,0,91,72.599,91,165c0,35.099,10.499,66.599,30.901,96l121.5,191.6
	c2.999,4.799,7.8,6.899,12.6,6.899c4.799,0,9.6-2.1,12.599-6.899l122.1-192.2c19.801-28.2,30.3-61.2,30.3-95.4
	C421,74.099,346.901,0,256,0z M256,240c-41.355,0-75-33.645-75-75s33.645-75,75-75s75,33.645,75,75S297.355,240,256,240z"/>
<path style="fill:#E61E14;" d="M256,0v90l0,0c41.355,0,75,33.645,75,75s-33.645,75-75,75l0,0v219.5c4.799,0,9.6-2.1,12.599-6.899
	L390.7,260.4c19.801-28.2,30.3-61.2,30.3-95.4C421,74.099,346.901,0,256,0z"/>
<g>
</g>
<g>
</g>
<g>
</g>
<g>
</g>
<g>
</g>
<g>
</g>
<g>
</g>
<g>
</g>
<g>
</g>
<g>
</g>
<g>
</g>
<g>
</g>
<g>
</g>
<g>
</g>
<g>
</g>
</svg>
