<svg xmlns="http://www.w3.org/2000/svg" xmlns:xlink="http://www.w3.org/1999/xlink" id="Layer_1" width="335.986" height="235.19" x="0" y="0" enable-background="new 0 0 335.986 235.19" version="1.1" viewBox="0 0 335.986 235.19" xml:space="preserve"><switch><g><rect width="335.986" height="235.19" fill="#F4B900"/><g><path fill="#C2CBD1" d="M167.139,178.744L99.36,69.392 c-0.46-0.743-1.447-0.984-2.203-0.515l-75.962,47.084c-0.744,0.461-0.978,1.461-0.518,2.203l67.779,109.35 c0.462,0.745,1.459,0.979,2.204,0.519l75.962-47.083C167.377,180.479,167.6,179.487,167.139,178.744z" opacity=".7"/><g><path fill="#FFF" d="M160.79,176.439c0.461,0.743,0.238,1.735-0.517,2.204l-75.962,47.084 c-0.745,0.461-1.742,0.227-2.204-0.519L14.328,115.857c-0.46-0.744-0.227-1.744,0.518-2.205l75.962-47.084 c0.755-0.468,1.743-0.228,2.203,0.515L160.79,176.439z"/><g><rect width=".769" height="61.675" x="100.072" y="138.72" fill="#747D86" transform="matrix(0.515 0.8572 -0.8572 0.515 194.0718 -3.8713)"/></g><g><rect width=".769" height="61.675" x="102.138" y="142.335" fill="#747D86" transform="matrix(0.5145 0.8575 -0.8575 0.5145 198.2696 -3.8361)"/></g><g><rect width=".77" height="61.675" x="104.204" y="145.952" fill="#747D86" transform="matrix(0.5139 0.8578 -0.8578 0.5139 202.4914 -3.7881)"/></g><g><rect width=".769" height="61.675" x="106.27" y="149.567" fill="#747D86" transform="matrix(0.515 0.8572 -0.8572 0.515 206.3762 -3.9226)"/></g></g></g><g><path fill="#C2CBD1" d="M286.409,15H50.31c-4.191,0-5.526,3.114-2.962,6.917 l21.583,39.792c0.856,1.267,2.698,2.308,4.095,2.308h56.001v9.074c0,3.031,2.477,5.509,5.506,5.509h66.233 c3.025,0,5.505-2.478,5.505-5.509v-9.074h57.093c1.398,0,3.24-1.041,4.094-2.308l21.911-39.792 C291.933,18.114,290.603,15,286.409,15z" opacity=".7"/><g><g><g><g><g><g><path fill="#D9D9D9" d="M194.716,50.045h-66.243c-3.029,0-5.506,2.481-5.506,5.506v17.541c0,3.031,2.477,5.509,5.506,5.509 h66.243c3.025,0,5.505-2.478,5.505-5.509V55.551C200.221,52.526,197.741,50.045,194.716,50.045z"/></g></g></g></g></g><path fill="#404041" d="M280.358,15H44.249c-4.192,0-5.526,3.114-2.962,6.917L62.87,61.709c0.856,1.267,2.698,2.308,4.095,2.308 h190.349c1.397,0,3.239-1.041,4.093-2.308l21.912-39.792C285.882,18.114,284.552,15,280.358,15"/><polygon fill="#9BD9EA" points="48.05 21.516 276.483 21.516 257.007 59.663 67.159 59.663"/></g></g><path fill="#9BD9EA" d="M44.516,53.412"/><g opacity=".7"><polygon fill="#C2CBD1" points="211.849 196.048 209.176 198.718 204.64 194.23 181.746 217.127 186.456 221.404 183.597 224.26 195.975 235.006 250.682 235.057"/><path fill="#C2CBD1" d="M203.48,195.391c-7.735-9.332-8.673-9.812-16.697-19.005 c-5.56-6.372-6.987-8.297-9.838-9.462l19.014-10.761l-0.017-0.03l4.466-2.504l-2.629-4.693l-4.472,2.5l-0.014-0.022 l-23.88,13.517c-0.763-0.183-1.583-0.383-2.486-0.61c-12.91-3.251-14.429-0.833-14.429-0.833l-15,8.51l0.102,0.076 c-0.553,0.668-0.934,1.493-1.071,2.413c-0.405,2.705,1.461,5.228,4.17,5.632c0.771,0.115,1.521,0.029,2.217-0.19l-15.277,8.646 c0,0-0.002-0.001-0.002-0.002l-5.89,5.488l0-0.001l-2.523,2.354l11.08-3.088c0-0.001,0-0.004,0-0.004l32.874-18.604l1.407,0.271 c0,0,13.892,2.639,12.065,11.156c-0.299,0.785-0.753,1.604-1.405,2.453c-0.541,0.733-1.107,1.366-1.72,1.877 c-0.056,0.044-0.11,0.085-0.164,0.128c-0.143,0.113-0.289,0.221-0.437,0.32c-0.068,0.044-0.138,0.088-0.207,0.13 c-0.143,0.089-0.292,0.169-0.442,0.245c-0.07,0.035-0.14,0.071-0.211,0.104c-0.173,0.077-0.353,0.146-0.535,0.205 c-0.05,0.016-0.097,0.037-0.147,0.053c-0.232,0.069-0.472,0.123-0.721,0.161c-0.061,0.009-0.126,0.011-0.188,0.02 c-0.188,0.022-0.38,0.039-0.577,0.043c-0.094,0.002-0.19-0.002-0.287-0.004c-0.175-0.005-0.354-0.015-0.535-0.033 c-0.107-0.011-0.212-0.023-0.322-0.04c-0.189-0.026-0.384-0.065-0.581-0.108c-0.105-0.022-0.208-0.043-0.314-0.069 c-0.253-0.065-0.514-0.146-0.78-0.235c-0.057-0.021-0.11-0.033-0.165-0.053c-0.326-0.116-0.661-0.253-1.006-0.408 c-0.103-0.047-0.211-0.102-0.315-0.151c-0.251-0.119-0.504-0.243-0.767-0.383c-0.135-0.072-0.274-0.15-0.411-0.227 c-0.248-0.139-0.5-0.287-0.757-0.443c-0.145-0.089-0.291-0.177-0.439-0.271c-0.277-0.177-0.563-0.366-0.853-0.564 c-0.135-0.091-0.266-0.176-0.402-0.272c-0.43-0.302-0.87-0.619-1.327-0.968c-3.454-2.623-8.73-5.087-12.287-2.455 c-3.557,2.633-0.13,6.678,4.227,9.067c4.357,2.388,24.6,18.438,24.6,18.438s2.503,1.811,6.243,2.757L203.48,195.391z M193.949,152.583l-0.048-0.084l-0.016-0.028L193.949,152.583z"/><path fill="#C2CBD1" d="M203.019,152.112c0.276-0.153,0.371-0.504,0.21-0.786l-2.021-3.617 c-0.159-0.276-0.507-0.38-0.781-0.229l-2.62,1.47l2.596,4.632L203.019,152.112z"/></g><g><g><polygon fill="#28485D" points="188.771 235.006 243.479 235.057 204.646 196.048 176.394 224.26"/><polygon fill="#5DBFDA" points="179.273 221.423 201.975 198.72 197.438 194.23 174.543 217.127"/><path fill="#EBDEB4" d="M196.277,195.391c-7.735-9.332-8.673-9.812-16.697-19.005c-9.46-10.842-6.951-8.812-19.868-12.066 c-12.91-3.251-14.429-0.833-14.429-0.833l-15,8.51l0.102,0.076c-0.553,0.668-0.934,1.493-1.071,2.413 c-0.405,2.705,1.461,5.228,4.17,5.632c1.354,0.202,2.662-0.162,3.681-0.918l11.206-5.947l8.996,1.734 c0,0,13.904,2.639,12.077,11.156c-0.299,0.785-0.754,1.604-1.407,2.453c-0.542,0.733-1.109,1.366-1.722,1.877 c-0.055,0.044-0.11,0.085-0.164,0.128c-0.144,0.113-0.29,0.221-0.438,0.32c-0.068,0.044-0.138,0.088-0.207,0.13 c-0.144,0.089-0.292,0.169-0.444,0.245c-0.07,0.035-0.14,0.071-0.211,0.104c-0.173,0.077-0.353,0.146-0.536,0.205 c-0.05,0.016-0.097,0.037-0.148,0.053c-0.232,0.069-0.473,0.123-0.721,0.161c-0.061,0.009-0.126,0.011-0.189,0.02 c-0.188,0.022-0.38,0.039-0.578,0.043c-0.094,0.002-0.191-0.002-0.288-0.004c-0.175-0.005-0.354-0.015-0.536-0.033 c-0.106-0.011-0.212-0.023-0.321-0.04c-0.189-0.026-0.384-0.065-0.582-0.108c-0.105-0.022-0.207-0.043-0.313-0.069 c-0.254-0.065-0.515-0.146-0.782-0.235c-0.057-0.021-0.109-0.033-0.165-0.053c-0.325-0.116-0.661-0.253-1.006-0.408 c-0.103-0.047-0.211-0.102-0.315-0.151c-0.251-0.119-0.504-0.243-0.767-0.383c-0.135-0.072-0.274-0.15-0.411-0.227 c-0.248-0.139-0.5-0.287-0.757-0.443c-0.145-0.089-0.291-0.177-0.439-0.271c-0.277-0.177-0.563-0.366-0.853-0.564 c-0.135-0.091-0.266-0.176-0.402-0.272c-0.43-0.302-0.87-0.619-1.327-0.968c-3.454-2.623-8.73-5.087-12.287-2.455 c-3.557,2.633-0.13,6.678,4.227,9.067c4.358,2.388,24.612,18.438,24.612,18.438s2.503,1.811,6.243,2.757L196.277,195.391z"/></g><g id="pencil"><g><path fill="#FFF" d="M193.223,147.479l-2.62,1.47l2.597,4.632l2.616-1.469c0.276-0.153,0.371-0.504,0.21-0.786l-2.021-3.617 C193.845,147.433,193.497,147.329,193.223,147.479z"/></g><path fill="#FD8560" d="M120.421,188.575c0.406,0.521,1.084,0.725,1.66,0.494c0.001,0.004-0.007,0.011-0.007,0.011l0.009-0.004 c-0.556,0.414-0.714,1.22-0.348,1.885c0.374,0.66,1.146,0.938,1.79,0.684c0,0.004-0.012,0.009-0.011,0.011l0.012-0.004 c-0.496,0.374-0.672,1.056-0.441,1.671l65.672-37.159l-0.609-1.083l-1.448-2.581l-0.606-1.086L120.421,188.575z"/><path fill="#EBDEB4" d="M123.087,193.324c-0.235-0.617-0.059-1.299,0.437-1.673l0,0l-0.012,0.004 c-0.001-0.002,0.011-0.007,0.011-0.011c-0.644,0.255-1.416-0.023-1.79-0.684c-0.366-0.665-0.208-1.471,0.348-1.885l-0.009,0.004 c0,0,0.008-0.007,0.007-0.011l0,0c-0.575,0.23-1.254,0.026-1.659-0.498l-8.414,7.841L123.087,193.324z"/><g><rect width="5.386" height="5.124" x="186.962" y="149.971" fill="#404041" transform="matrix(-0.4889 -0.8724 0.8724 -0.4889 149.3049 392.5474)"/></g><path fill="#404041" d="M115.346,195.479c-0.098-0.235-0.194-0.473-0.327-0.705c-0.141-0.257-0.308-0.494-0.488-0.715 l-2.523,2.354L115.346,195.479z"/></g></g><g><path fill="#C2CBD1" d="M274.1,106.233c0-0.064-0.004-0.126-0.004-0.191v-0.016 c-0.1-6.408-4.991-11.573-11.02-11.578c-6.026-0.005-10.929,5.15-11.038,11.558v-0.001l-0.002,0.017 c0.002,0.064-0.003,0.126-0.003,0.191c0.001,0.07,0.002,0.14,0.004,0.21l-0.013,15.039c-0.001,0.072-0.004,0.139-0.003,0.211 c-0.002,0.063,0.001,0.124,0.003,0.19v0.016c0.099,6.406,4.989,11.572,11.018,11.579c6.028,0.005,10.927-5.152,11.038-11.56 l-0.002-0.016c0.002-0.065,0.009-0.129,0.006-0.192c0-0.069-0.002-0.141-0.003-0.207l0.015-15.042 C274.096,106.374,274.1,106.304,274.1,106.233z" opacity=".7"/><g><g><path fill="#FFF" d="M269.184,121.484l0.014-15.042c0-0.069,0.004-0.139,0.004-0.209c0-0.064-0.004-0.126-0.004-0.191 v-0.016l0,0c-0.1-6.408-4.991-11.573-11.019-11.578c-6.026-0.005-10.93,5.15-11.039,11.558v-0.001l-0.002,0.017 c0.002,0.064-0.003,0.126-0.003,0.191c0.001,0.07,0.002,0.14,0.004,0.21l-0.012,15.039c-0.001,0.072-0.004,0.139-0.003,0.211 c-0.002,0.063,0.001,0.124,0.003,0.19v0.018v-0.002c0.099,6.406,4.988,11.572,11.017,11.579 c6.028,0.005,10.928-5.152,11.039-11.56l0,0l-0.002-0.016c0.002-0.065,0.008-0.129,0.006-0.192 C269.187,121.622,269.185,121.551,269.184,121.484z"/></g><path fill="#D9D9D9" d="M259.748,106.319c0,0.819-0.663,1.484-1.483,1.484l0,0c-0.818,0-1.481-0.665-1.481-1.484v-6.648 c0-0.819,0.663-1.482,1.481-1.482l0,0c0.82,0,1.483,0.664,1.483,1.482V106.319z"/></g></g><g><polygon fill="#C2CBD1" points="74.341 159.546 74.333 110.187 16.876 110.056 17.95 166.954 66.729 166.954 66.729 166.965" opacity=".7"/><g id="postit"><polygon fill="#FD8560" points="13.413 106.304 70.87 106.435 70.878 155.801 63.311 155.801 63.266 163.209 14.486 163.209"/><rect width="43.286" height=".951" x="20.591" y="116.257" fill="#FFF"/><rect width="43.286" height=".95" x="20.591" y="121.892" fill="#FFF"/><rect width="43.286" height=".949" x="20.591" y="127.526" fill="#FFF"/><rect width="43.286" height=".95" x="20.591" y="133.16" fill="#FFF"/><rect width="27.495" height=".95" x="20.591" y="138.794" fill="#FFF"/><polygon fill="#747D86" points="63.311 155.801 70.878 155.801 63.266 163.219"/></g></g><g><path fill="#C2CBD1" d="M314.196,67.239h-23.053 c-2.79,0-5.062,2.137-5.062,4.764v56.266c0,2.628,2.272,4.764,5.062,4.764h23.053c2.793,0,5.062-2.136,5.062-4.764V72.003 C319.259,69.375,316.989,67.239,314.196,67.239z" opacity=".7"/><g id="phone_2_"><path fill="#28485D" d="M287.295,133.032c-2.791,0-5.062-2.136-5.062-4.764V72.003c0-2.627,2.271-4.764,5.062-4.764h23.053 c2.793,0,5.062,2.137,5.062,4.764v56.266c0,2.628-2.27,4.764-5.062,4.764H287.295z"/><path fill="#D9D9D9" d="M298.822,71.127c-0.289,0-0.527-0.22-0.527-0.494c0-0.272,0.238-0.494,0.527-0.494 c0.288,0,0.524,0.222,0.524,0.494C299.347,70.907,299.11,71.127,298.822,71.127"/><path fill="#D9D9D9" d="M296.457,73.589c-0.225,0-0.408-0.172-0.408-0.383c0-0.211,0.184-0.382,0.408-0.382h4.716 c0.226,0,0.407,0.171,0.407,0.382c0,0.21-0.182,0.383-0.407,0.383H296.457z"/><path fill="#D9D9D9" d="M298.822,125.9c-1.443,0-2.614,1.103-2.614,2.459c0,1.357,1.171,2.46,2.614,2.46 c1.441,0,2.613-1.103,2.613-2.46C301.436,127.003,300.264,125.9,298.822,125.9"/><rect width="28.156" height="47.186" x="284.647" y="76.631" fill="#5DBFDA"/></g></g><g><path fill="#C2CBD1" d="M237.297,87.056H97.978 c-2.435,0-4.427,1.993-4.427,4.428v50.989c0,2.436,1.992,4.427,4.427,4.427h139.319c2.435,0,4.428-1.991,4.428-4.427V91.484 C241.725,89.049,239.731,87.056,237.297,87.056z" opacity=".7"/><g><g><g><path fill="#D9D9D9" d="M232.688,87.056H93.36c-2.435,0-4.427,1.993-4.427,4.428v50.989c0,2.436,1.992,4.427,4.427,4.427 h139.327c2.434,0,4.427-1.991,4.427-4.427V91.484C237.114,89.049,235.121,87.056,232.688,87.056z"/></g><g><path fill="#FFF" d="M103.226,91.629h-7.082c-0.439,0-0.798,0.358-0.798,0.8v1.542c0,0.443,0.359,0.803,0.798,0.803h7.082 c0.439,0,0.798-0.36,0.798-0.803v-1.542C104.024,91.987,103.666,91.629,103.226,91.629z"/><path fill="#FFF" d="M113.832,91.629h-7.079c-0.442,0-0.8,0.358-0.8,0.8v1.542c0,0.443,0.358,0.803,0.8,0.803h7.079 c0.44,0,0.799-0.36,0.799-0.803v-1.542C114.631,91.987,114.272,91.629,113.832,91.629z"/><path fill="#FFF" d="M124.439,91.629h-7.079c-0.44,0-0.799,0.358-0.799,0.8v1.542c0,0.443,0.359,0.803,0.799,0.803h7.079 c0.441,0,0.799-0.36,0.799-0.803v-1.542C125.239,91.987,124.88,91.629,124.439,91.629z"/><path fill="#FFF" d="M135.047,91.629h-7.08c-0.44,0-0.798,0.358-0.798,0.8v1.542c0,0.443,0.358,0.803,0.798,0.803h7.08 c0.439,0,0.798-0.36,0.798-0.803v-1.542C135.845,91.987,135.487,91.629,135.047,91.629z"/><path fill="#FFF" d="M145.654,91.629h-7.079c-0.441,0-0.799,0.358-0.799,0.8v1.542c0,0.443,0.358,0.803,0.799,0.803h7.079 c0.44,0,0.799-0.36,0.799-0.803v-1.542C146.453,91.987,146.095,91.629,145.654,91.629z"/><path fill="#FFF" d="M156.261,91.629h-7.079c-0.441,0-0.799,0.358-0.799,0.8v1.542c0,0.443,0.357,0.803,0.799,0.803h7.079 c0.44,0,0.799-0.36,0.799-0.803v-1.542C157.06,91.987,156.702,91.629,156.261,91.629z"/><path fill="#FFF" d="M166.868,91.629h-7.08c-0.439,0-0.799,0.358-0.799,0.8v1.542c0,0.443,0.359,0.803,0.799,0.803h7.08 c0.442,0,0.802-0.36,0.802-0.803v-1.542C167.67,91.987,167.311,91.629,166.868,91.629z"/><path fill="#FFF" d="M177.48,91.629h-7.079c-0.441,0-0.799,0.358-0.799,0.8v1.542c0,0.443,0.357,0.803,0.799,0.803h7.079 c0.439,0,0.799-0.36,0.799-0.803v-1.542C178.279,91.987,177.92,91.629,177.48,91.629z"/><path fill="#FFF" d="M188.087,91.629h-7.077c-0.443,0-0.801,0.358-0.801,0.8v1.542c0,0.443,0.357,0.803,0.801,0.803h7.077 c0.441,0,0.801-0.36,0.801-0.803v-1.542C188.888,91.987,188.528,91.629,188.087,91.629z"/><path fill="#FFF" d="M198.694,91.629h-7.082c-0.438,0-0.795,0.358-0.795,0.8v1.542c0,0.443,0.357,0.803,0.795,0.803h7.082 c0.438,0,0.801-0.36,0.801-0.803v-1.542C199.495,91.987,199.133,91.629,198.694,91.629z"/><path fill="#FFF" d="M209.303,91.629h-7.08c-0.439,0-0.801,0.358-0.801,0.8v1.542c0,0.443,0.361,0.803,0.801,0.803h7.08 c0.438,0,0.799-0.36,0.799-0.803v-1.542C210.102,91.987,209.741,91.629,209.303,91.629z"/><path fill="#FFF" d="M219.911,91.629h-7.08c-0.44,0-0.799,0.358-0.799,0.8v1.542c0,0.443,0.358,0.803,0.799,0.803h7.08 c0.439,0,0.797-0.36,0.797-0.803v-1.542C220.708,91.987,220.351,91.629,219.911,91.629z"/><path fill="#FFF" d="M229.901,91.629h-6.464c-0.44,0-0.798,0.358-0.798,0.8v1.542c0,0.443,0.357,0.803,0.798,0.803h6.464 c0.441,0,0.799-0.36,0.799-0.803v-1.542C230.7,91.987,230.343,91.629,229.901,91.629z"/><path fill="#FFF" d="M101.618,97.064h-5.473c-0.439,0-0.798,0.356-0.798,0.798v5.472c0,0.441,0.359,0.798,0.798,0.798 h5.473c0.441,0,0.798-0.357,0.798-0.798v-5.472C102.416,97.42,102.059,97.064,101.618,97.064z"/><path fill="#FFF" d="M111.013,97.064h-5.473c-0.441,0-0.799,0.356-0.799,0.798v5.472c0,0.441,0.358,0.798,0.799,0.798 h5.473c0.44,0,0.798-0.357,0.798-0.798v-5.472C111.812,97.42,111.454,97.064,111.013,97.064z"/><path fill="#FFF" d="M120.407,97.064h-5.472c-0.44,0-0.799,0.356-0.799,0.798v5.472c0,0.441,0.358,0.798,0.799,0.798h5.472 c0.44,0,0.798-0.357,0.798-0.798v-5.472C121.206,97.42,120.848,97.064,120.407,97.064z"/><path fill="#FFF" d="M129.801,97.064h-5.472c-0.44,0-0.797,0.356-0.797,0.798v5.472c0,0.441,0.357,0.798,0.797,0.798h5.472 c0.442,0,0.801-0.357,0.801-0.798v-5.472C130.602,97.42,130.243,97.064,129.801,97.064z"/><path fill="#FFF" d="M139.196,97.064h-5.472c-0.44,0-0.799,0.356-0.799,0.798v5.472c0,0.441,0.358,0.798,0.799,0.798h5.472 c0.441,0,0.798-0.357,0.798-0.798v-5.472C139.995,97.42,139.638,97.064,139.196,97.064z"/><path fill="#FFF" d="M148.592,97.064h-5.473c-0.442,0-0.799,0.356-0.799,0.798v5.472c0,0.441,0.357,0.798,0.799,0.798 h5.473c0.44,0,0.798-0.357,0.798-0.798v-5.472C149.39,97.42,149.032,97.064,148.592,97.064z"/><path fill="#FFF" d="M157.985,97.064h-5.472c-0.441,0-0.8,0.356-0.8,0.798v5.472c0,0.441,0.359,0.798,0.8,0.798h5.472 c0.443,0,0.801-0.357,0.801-0.798v-5.472C158.786,97.42,158.428,97.064,157.985,97.064z"/><path fill="#FFF" d="M167.382,97.064h-5.474c-0.44,0-0.798,0.356-0.798,0.798v5.472c0,0.441,0.357,0.798,0.798,0.798h5.474 c0.442,0,0.801-0.357,0.801-0.798v-5.472C168.183,97.42,167.824,97.064,167.382,97.064z"/><path fill="#FFF" d="M176.781,97.064h-5.474c-0.438,0-0.798,0.356-0.798,0.798v5.472c0,0.441,0.359,0.798,0.798,0.798 h5.474c0.441,0,0.799-0.357,0.799-0.798v-5.472C177.58,97.42,177.223,97.064,176.781,97.064z"/><path fill="#FFF" d="M186.174,97.064h-5.47c-0.443,0-0.799,0.356-0.799,0.798v5.472c0,0.441,0.355,0.798,0.799,0.798h5.47 c0.441,0,0.801-0.357,0.801-0.798v-5.472C186.975,97.42,186.615,97.064,186.174,97.064z"/><path fill="#FFF" d="M195.572,97.064h-5.477c-0.438,0-0.798,0.356-0.798,0.798v5.472c0,0.441,0.359,0.798,0.798,0.798 h5.477c0.438,0,0.797-0.357,0.797-0.798v-5.472C196.369,97.42,196.01,97.064,195.572,97.064z"/><path fill="#FFF" d="M204.965,97.064h-5.475c-0.44,0-0.798,0.356-0.798,0.798v5.472c0,0.441,0.357,0.798,0.798,0.798h5.475 c0.441,0,0.799-0.357,0.799-0.798v-5.472C205.764,97.42,205.406,97.064,204.965,97.064z"/><path fill="#FFF" d="M214.359,97.064h-5.475c-0.44,0-0.796,0.356-0.796,0.798v5.472c0,0.441,0.355,0.798,0.796,0.798h5.475 c0.441,0,0.801-0.357,0.801-0.798v-5.472C215.16,97.42,214.801,97.064,214.359,97.064z"/><path fill="#FFF" d="M229.901,97.064h-11.62c-0.44,0-0.798,0.356-0.798,0.798v5.472c0,0.441,0.357,0.798,0.798,0.798h11.62 c0.441,0,0.799-0.357,0.799-0.798v-5.472C230.7,97.42,230.343,97.064,229.901,97.064z"/><path fill="#FFF" d="M107.766,134.03H96.145c-0.439,0-0.798,0.357-0.798,0.8v5.472c0,0.439,0.359,0.798,0.798,0.798h11.622 c0.44,0,0.798-0.358,0.798-0.798v-5.472C108.564,134.388,108.207,134.03,107.766,134.03z"/><path fill="#FFF" d="M132.876,134.03h-12.244c-0.439,0-0.798,0.357-0.798,0.8v5.472c0,0.439,0.358,0.798,0.798,0.798 h12.244c0.44,0,0.8-0.358,0.8-0.798v-5.472C133.676,134.388,133.316,134.03,132.876,134.03z"/><path fill="#FFF" d="M116.936,134.03h-5.472c-0.44,0-0.799,0.357-0.799,0.8v5.472c0,0.439,0.358,0.798,0.799,0.798h5.472 c0.44,0,0.799-0.358,0.799-0.798v-5.472C117.734,134.388,117.376,134.03,116.936,134.03z"/><path fill="#FFF" d="M205.414,134.03H193.17c-0.441,0-0.799,0.357-0.799,0.8v5.472c0,0.439,0.357,0.798,0.799,0.798h12.244 c0.441,0,0.799-0.358,0.799-0.798v-5.472C206.213,134.388,205.855,134.03,205.414,134.03z"/><path fill="#FFF" d="M229.901,134.03h-11.62c-0.44,0-0.798,0.357-0.798,0.8v5.472c0,0.439,0.357,0.798,0.798,0.798h11.62 c0.441,0,0.799-0.358,0.799-0.798v-5.472C230.7,134.388,230.343,134.03,229.901,134.03z"/><path fill="#FFF" d="M214.584,134.03h-5.471c-0.442,0-0.803,0.357-0.803,0.8v5.472c0,0.439,0.36,0.798,0.803,0.798h5.471 c0.443,0,0.799-0.358,0.799-0.798v-5.472C215.383,134.388,215.027,134.03,214.584,134.03z"/><path fill="#FFF" d="M189.693,134.03h-53.337c-0.196,0-0.356,0.16-0.356,0.356v6.356c0,0.196,0.16,0.356,0.356,0.356 h53.337c0.196,0,0.355-0.16,0.355-0.356v-6.356C190.049,134.19,189.89,134.03,189.693,134.03z"/><path fill="#FFF" d="M229.901,106.304h-5.472c-0.441,0-0.799,0.358-0.799,0.799v5.472c0,0.441,0.357,0.801,0.799,0.801 h5.472c0.441,0,0.799-0.36,0.799-0.801v-5.472C230.7,106.662,230.343,106.304,229.901,106.304z"/><path fill="#FFF" d="M220.507,106.304h-5.472c-0.441,0-0.801,0.358-0.801,0.799v5.472c0,0.441,0.359,0.801,0.801,0.801 h5.472c0.441,0,0.799-0.36,0.799-0.801v-5.472C221.306,106.662,220.948,106.304,220.507,106.304z"/><path fill="#FFF" d="M211.11,106.304h-5.472c-0.438,0-0.795,0.358-0.795,0.799v5.472c0,0.441,0.357,0.801,0.795,0.801 h5.472c0.443,0,0.801-0.36,0.801-0.801v-5.472C211.911,106.662,211.554,106.304,211.11,106.304z"/><path fill="#FFF" d="M201.716,106.304h-5.468c-0.445,0-0.803,0.358-0.803,0.799v5.472c0,0.441,0.357,0.801,0.803,0.801 h5.468c0.443,0,0.801-0.36,0.801-0.801v-5.472C202.517,106.662,202.159,106.304,201.716,106.304z"/><path fill="#FFF" d="M192.323,106.304h-5.474c-0.439,0-0.799,0.358-0.799,0.799v5.472c0,0.441,0.359,0.801,0.799,0.801 h5.474c0.443,0,0.799-0.36,0.799-0.801v-5.472C193.122,106.662,192.767,106.304,192.323,106.304z"/><path fill="#FFF" d="M182.929,106.304h-5.474c-0.441,0-0.799,0.358-0.799,0.799v5.472c0,0.441,0.357,0.801,0.799,0.801 h5.474c0.439,0,0.799-0.36,0.799-0.801v-5.472C183.728,106.662,183.368,106.304,182.929,106.304z"/><path fill="#FFF" d="M173.532,106.304h-5.472c-0.442,0-0.8,0.358-0.8,0.799v5.472c0,0.441,0.358,0.801,0.8,0.801h5.472 c0.44,0,0.801-0.36,0.801-0.801v-5.472C174.333,106.662,173.973,106.304,173.532,106.304z"/><path fill="#FFF" d="M164.134,106.304h-5.472c-0.439,0-0.799,0.358-0.799,0.799v5.472c0,0.441,0.36,0.801,0.799,0.801 h5.472c0.442,0,0.8-0.36,0.8-0.801v-5.472C164.934,106.662,164.576,106.304,164.134,106.304z"/><path fill="#FFF" d="M154.739,106.304h-5.473c-0.44,0-0.799,0.358-0.799,0.799v5.472c0,0.441,0.359,0.801,0.799,0.801 h5.473c0.441,0,0.799-0.36,0.799-0.801v-5.472C155.539,106.662,155.181,106.304,154.739,106.304z"/><path fill="#FFF" d="M145.345,106.304h-5.472c-0.442,0-0.8,0.358-0.8,0.799v5.472c0,0.441,0.358,0.801,0.8,0.801h5.472 c0.441,0,0.8-0.36,0.8-0.801v-5.472C146.145,106.662,145.786,106.304,145.345,106.304z"/><path fill="#FFF" d="M135.952,106.304h-5.474c-0.441,0-0.799,0.358-0.799,0.799v5.472c0,0.441,0.358,0.801,0.799,0.801 h5.474c0.439,0,0.797-0.36,0.797-0.801v-5.472C136.749,106.662,136.391,106.304,135.952,106.304z"/><path fill="#FFF" d="M126.556,106.304h-5.473c-0.441,0-0.8,0.358-0.8,0.799v5.472c0,0.441,0.359,0.801,0.8,0.801h5.473 c0.439,0,0.798-0.36,0.798-0.801v-5.472C127.354,106.662,126.995,106.304,126.556,106.304z"/><path fill="#FFF" d="M117.16,106.304h-5.471c-0.439,0-0.798,0.358-0.798,0.799v5.472c0,0.441,0.358,0.801,0.798,0.801 h5.471c0.442,0,0.801-0.36,0.801-0.801v-5.472C117.96,106.662,117.602,106.304,117.16,106.304z"/><path fill="#FFF" d="M107.766,106.304H96.145c-0.439,0-0.798,0.358-0.798,0.799v5.472c0,0.441,0.359,0.801,0.798,0.801 h11.622c0.44,0,0.798-0.36,0.798-0.801v-5.472C108.564,106.662,108.207,106.304,107.766,106.304z"/><path fill="#FFF" d="M212.959,115.546h-5.477c-0.438,0-0.797,0.357-0.797,0.799v5.472c0,0.438,0.359,0.801,0.797,0.801 h5.477c0.44,0,0.797-0.362,0.797-0.801v-5.472C213.756,115.903,213.399,115.546,212.959,115.546z"/><path fill="#FFF" d="M203.564,115.546h-5.475c-0.441,0-0.799,0.357-0.799,0.799v5.472c0,0.438,0.357,0.801,0.799,0.801 h5.475c0.438,0,0.799-0.362,0.799-0.801v-5.472C204.363,115.903,204.003,115.546,203.564,115.546z"/><path fill="#FFF" d="M194.168,115.546h-5.471c-0.441,0-0.801,0.357-0.801,0.799v5.472c0,0.438,0.359,0.801,0.801,0.801 h5.471c0.44,0,0.799-0.362,0.799-0.801v-5.472C194.967,115.903,194.608,115.546,194.168,115.546z"/><path fill="#FFF" d="M184.773,115.546h-5.475c-0.438,0-0.797,0.357-0.797,0.799v5.472c0,0.438,0.359,0.801,0.797,0.801 h5.475c0.438,0,0.797-0.362,0.797-0.801v-5.472C185.57,115.903,185.212,115.546,184.773,115.546z"/><path fill="#FFF" d="M175.379,115.546h-5.473c-0.441,0-0.799,0.357-0.799,0.799v5.472c0,0.438,0.357,0.801,0.799,0.801 h5.473c0.44,0,0.799-0.362,0.799-0.801v-5.472C176.178,115.903,175.819,115.546,175.379,115.546z"/><path fill="#FFF" d="M165.978,115.546h-5.471c-0.44,0-0.799,0.357-0.799,0.799v5.472c0,0.438,0.359,0.801,0.799,0.801 h5.471c0.443,0,0.801-0.362,0.801-0.801v-5.472C166.779,115.903,166.421,115.546,165.978,115.546z"/><path fill="#FFF" d="M156.583,115.546h-5.472c-0.441,0-0.8,0.357-0.8,0.799v5.472c0,0.438,0.359,0.801,0.8,0.801h5.472 c0.442,0,0.8-0.362,0.8-0.801v-5.472C157.383,115.903,157.026,115.546,156.583,115.546z"/><path fill="#FFF" d="M147.189,115.546h-5.472c-0.442,0-0.801,0.357-0.801,0.799v5.472c0,0.438,0.358,0.801,0.801,0.801 h5.472c0.442,0,0.799-0.362,0.799-0.801v-5.472C147.989,115.903,147.632,115.546,147.189,115.546z"/><path fill="#FFF" d="M137.795,115.546h-5.474c-0.439,0-0.798,0.357-0.798,0.799v5.472c0,0.438,0.358,0.801,0.798,0.801 h5.474c0.439,0,0.798-0.362,0.798-0.801v-5.472C138.593,115.903,138.235,115.546,137.795,115.546z"/><path fill="#FFF" d="M128.399,115.546h-5.472c-0.441,0-0.799,0.357-0.799,0.799v5.472c0,0.438,0.358,0.801,0.799,0.801 h5.472c0.442,0,0.801-0.362,0.801-0.801v-5.472C129.2,115.903,128.841,115.546,128.399,115.546z"/><path fill="#FFF" d="M119.005,115.546h-5.472c-0.441,0-0.799,0.357-0.799,0.799v5.472c0,0.438,0.357,0.801,0.799,0.801 h5.472c0.44,0,0.8-0.362,0.8-0.801v-5.472C119.805,115.903,119.445,115.546,119.005,115.546z"/><path fill="#FFF" d="M109.612,115.546H96.145c-0.439,0-0.798,0.357-0.798,0.799v5.472c0,0.438,0.359,0.801,0.798,0.801 h13.467c0.439,0,0.798-0.362,0.798-0.801v-5.472C110.41,115.903,110.051,115.546,109.612,115.546z"/><path fill="#FFF" d="M229.901,115.546H217.05c-0.439,0-0.797,0.357-0.797,0.799v5.472c0,0.438,0.357,0.801,0.797,0.801 h12.852c0.441,0,0.799-0.362,0.799-0.801v-5.472C230.7,115.903,230.343,115.546,229.901,115.546z"/><path fill="#FFF" d="M208.041,124.789h-5.477c-0.439,0-0.799,0.358-0.799,0.8v5.471c0,0.439,0.359,0.799,0.799,0.799h5.477 c0.438,0,0.797-0.359,0.797-0.799v-5.471C208.838,125.147,208.479,124.789,208.041,124.789z"/><path fill="#FFF" d="M198.643,124.789h-5.473c-0.441,0-0.799,0.358-0.799,0.8v5.471c0,0.439,0.357,0.799,0.799,0.799h5.473 c0.442,0,0.803-0.359,0.803-0.799v-5.471C199.445,125.147,199.085,124.789,198.643,124.789z"/><path fill="#FFF" d="M189.25,124.789h-5.473c-0.441,0-0.801,0.358-0.801,0.8v5.471c0,0.439,0.359,0.799,0.801,0.799h5.473 c0.44,0,0.799-0.359,0.799-0.799v-5.471C190.049,125.147,189.69,124.789,189.25,124.789z"/><path fill="#FFF" d="M179.855,124.789h-5.475c-0.438,0-0.799,0.358-0.799,0.8v5.471c0,0.439,0.36,0.799,0.799,0.799h5.475 c0.438,0,0.797-0.359,0.797-0.799v-5.471C180.652,125.147,180.294,124.789,179.855,124.789z"/><path fill="#FFF" d="M170.459,124.789h-5.477c-0.439,0-0.797,0.358-0.797,0.8v5.471c0,0.439,0.358,0.799,0.797,0.799h5.477 c0.441,0,0.801-0.359,0.801-0.799v-5.471C171.26,125.147,170.9,124.789,170.459,124.789z"/><path fill="#FFF" d="M161.061,124.789h-5.474c-0.44,0-0.798,0.358-0.798,0.8v5.471c0,0.439,0.357,0.799,0.798,0.799h5.474 c0.439,0,0.799-0.359,0.799-0.799v-5.471C161.86,125.147,161.5,124.789,161.061,124.789z"/><path fill="#FFF" d="M151.666,124.789h-5.472c-0.442,0-0.8,0.358-0.8,0.8v5.471c0,0.439,0.358,0.799,0.8,0.799h5.472 c0.442,0,0.8-0.359,0.8-0.799v-5.471C152.466,125.147,152.108,124.789,151.666,124.789z"/><path fill="#FFF" d="M142.272,124.789h-5.475c-0.44,0-0.798,0.358-0.798,0.8v5.471c0,0.439,0.358,0.799,0.798,0.799h5.475 c0.439,0,0.797-0.359,0.797-0.799v-5.471C143.07,125.147,142.711,124.789,142.272,124.789z"/><path fill="#FFF" d="M132.876,124.789h-5.472c-0.441,0-0.799,0.358-0.799,0.8v5.471c0,0.439,0.357,0.799,0.799,0.799h5.472 c0.44,0,0.8-0.359,0.8-0.799v-5.471C133.676,125.147,133.316,124.789,132.876,124.789z"/><path fill="#FFF" d="M123.481,124.789h-5.472c-0.441,0-0.799,0.358-0.799,0.8v5.471c0,0.439,0.357,0.799,0.799,0.799h5.472 c0.442,0,0.799-0.359,0.799-0.799v-5.471C124.28,125.147,123.923,124.789,123.481,124.789z"/><path fill="#FFF" d="M113.915,124.789h-17.77c-0.439,0-0.798,0.358-0.798,0.8v5.471c0,0.439,0.359,0.799,0.798,0.799h17.77 c0.439,0,0.799-0.359,0.799-0.799v-5.471C114.713,125.147,114.354,124.789,113.915,124.789z"/><path fill="#FFF" d="M229.901,124.789h-17.77c-0.441,0-0.799,0.358-0.799,0.8v5.471c0,0.439,0.357,0.799,0.799,0.799h17.77 c0.441,0,0.799-0.359,0.799-0.799v-5.471C230.7,125.147,230.343,124.789,229.901,124.789z"/></g></g></g></g><g><path fill="#C2CBD1" d="M329.146,198.376c-1.546-1.545-3.906-1.777-5.693-0.695 l-3.679-3.68c-0.354-0.352-0.88-0.403-1.303-0.186l-0.456-0.42c-1.642-1.604-3.81-2.487-6.105-2.487 c-1.861,0-3.637,0.576-5.109,1.65c-0.082,0.048-5.749,3.495-10.249,5.916c2.127-2.231,3.439-5.243,3.439-8.561 c0-0.19-0.011-0.38-0.021-0.57c-0.007-0.14-0.017-0.279-0.019-0.419c-0.028-1.445-0.603-8.469-0.626-8.733 c0-5.143,4.183-9.326,9.326-9.326c1.422,0,2.785,0.312,4.035,0.916c0.041,0.023,1.002,0.544,2.09,0.544 c1.031,0,1.986-0.303,2.812-0.802c0.306,0.016,0.616-0.082,0.85-0.314l3.679-3.679c1.787,1.081,4.147,0.847,5.691-0.697 c1.818-1.815,1.818-4.764,0-6.58c-1.816-1.816-4.764-1.816-6.581,0c-1.543,1.544-1.775,3.903-0.694,5.694l-3.677,3.678 c-0.438,0.436-0.438,1.144,0,1.584c0.103,0.101,0.221,0.175,0.346,0.229c-0.125-0.052-0.243-0.127-0.346-0.229 c-0.042-0.042-0.062-0.097-0.095-0.143c-0.604,0.286-1.272,0.459-1.984,0.459c-0.877,0-1.695-0.441-1.721-0.456 c-1.38-0.667-2.862-1.004-4.404-1.004c-5.584,0-10.126,4.543-10.125,10.157c0.005,0.073,0.598,7.298,0.625,8.716 c0.003,0.151,0.011,0.302,0.019,0.453c0.011,0.173,0.021,0.348,0.021,0.522c0,6.41-5.215,11.626-11.627,11.626 c-6.409,0-11.624-5.216-11.624-11.624c0.001-0.071,0.095-7.396,2.742-13.324c2.794-6.252,3.53-13.596,3.53-16.605 c0-8.427-6.855-15.283-15.283-15.283c-6.443,0-12.239,4.141-14.389,10.156h-18.076c-1.297,0-2.349,1.053-2.349,2.35v45.486 c0,1.299,1.052,2.35,2.349,2.35h28.175c1.295,0,2.348-1.051,2.348-2.35v-45.486c0-1.297-1.053-2.35-2.348-2.35h-9.253 c2.11-5.556,7.534-9.355,13.543-9.355c7.985,0,14.481,6.496,14.481,14.482c0,2.948-0.722,10.149-3.46,16.278 c-2.718,6.083-2.812,13.572-2.812,13.649c0,6.854,5.574,12.428,12.426,12.428c1.727,0,3.372-0.356,4.866-0.994 c3.565-1.282,14.33-7.828,14.813-8.123c1.362-0.991,2.976-1.516,4.666-1.516c2.086,0,4.057,0.801,5.556,2.267l0.472,0.436 c-0.146,0.397-0.064,0.856,0.253,1.174l3.68,3.677c-1.081,1.791-0.85,4.15,0.693,5.694c1.817,1.816,4.765,1.816,6.583,0 C330.962,203.14,330.962,200.193,329.146,198.376z M317.986,194.312c0.051-0.111,0.113-0.218,0.204-0.311 C318.1,194.093,318.039,194.201,317.986,194.312z" opacity=".7"/><g><g><path fill="#FFF" d="M226.93,202.695c0,1.299,1.053,2.35,2.349,2.35h28.175c1.296,0,2.348-1.051,2.348-2.35v-45.486 c0-1.297-1.052-2.35-2.348-2.35h-28.175c-1.296,0-2.349,1.053-2.349,2.35V202.695z"/><path fill="#7CCDC3" d="M230.7,189.127c0,1.281,1.038,2.321,2.32,2.321h20.69c1.28,0,2.32-1.04,2.32-2.321v-28.619 c0-1.282-1.04-2.321-2.32-2.321h-20.69c-1.282,0-2.32,1.039-2.32,2.321V189.127z"/><path fill="#D9D9D9" d="M247.278,198.493c0,2.161-1.751,3.911-3.913,3.911c-2.16,0-3.913-1.75-3.913-3.911 c0-2.163,1.753-3.916,3.913-3.916C245.527,194.577,247.278,196.33,247.278,198.493z"/></g><path fill="#D9D9D9" d="M322.623,160.253c1.817,1.816,1.817,4.765,0,6.58c-1.544,1.544-3.904,1.778-5.692,0.697 c-0.318-0.191-0.614-0.424-0.889-0.697c-0.273-0.272-0.505-0.569-0.694-0.886c-1.081-1.791-0.849-4.15,0.694-5.694 C317.859,158.437,320.806,158.437,322.623,160.253z"/><path fill="#747D86" d="M316.931,167.53l-3.679,3.679c-0.436,0.434-1.146,0.435-1.581,0c-0.438-0.44-0.438-1.148,0-1.584 l3.677-3.678c0.189,0.316,0.421,0.613,0.694,0.886C316.316,167.106,316.612,167.339,316.931,167.53z"/><path fill="#D9D9D9" d="M323.96,204.956c-1.818,1.816-4.765,1.816-6.583,0c-1.543-1.544-1.774-3.903-0.693-5.694 c0.188-0.315,0.421-0.613,0.694-0.886c0.275-0.272,0.571-0.507,0.89-0.695c1.787-1.082,4.146-0.85,5.692,0.695 C325.776,200.193,325.776,203.14,323.96,204.956z"/><path fill="#747D86" d="M316.684,199.262l-3.679-3.677c-0.438-0.436-0.438-1.145,0-1.584c0.437-0.434,1.147-0.434,1.583,0 l3.68,3.68c-0.318,0.188-0.614,0.423-0.89,0.695C317.104,198.648,316.872,198.946,316.684,199.262z"/><path fill="#FFF" d="M313.005,194.001c0.083-0.081,0.182-0.135,0.282-0.185l-0.457-0.421 c-1.643-1.604-3.811-2.487-6.106-2.487c-1.86,0-3.636,0.576-5.109,1.65c-0.081,0.048-5.748,3.495-10.249,5.916 c2.127-2.231,3.439-5.243,3.439-8.561c0-0.19-0.01-0.38-0.02-0.57c-0.007-0.14-0.018-0.279-0.02-0.419 c-0.027-1.445-0.603-8.469-0.625-8.733c0-5.143,4.183-9.326,9.325-9.326c1.422,0,2.786,0.312,4.036,0.916 c0.041,0.023,1.001,0.544,2.089,0.544c1.032,0,1.988-0.303,2.813-0.803c-0.268-0.013-0.53-0.111-0.733-0.313 c-0.042-0.042-0.062-0.097-0.095-0.143c-0.605,0.286-1.272,0.459-1.985,0.459c-0.876,0-1.694-0.441-1.721-0.456 c-1.38-0.667-2.862-1.004-4.404-1.004c-5.583,0-10.125,4.543-10.124,10.157c0.005,0.073,0.597,7.298,0.625,8.716 c0.003,0.151,0.011,0.302,0.019,0.453c0.01,0.173,0.02,0.348,0.02,0.522c0,6.41-5.215,11.626-11.627,11.626 c-6.409,0-11.624-5.216-11.624-11.624c0.001-0.071,0.095-7.396,2.742-13.324c2.794-6.252,3.531-13.596,3.531-16.605 c0-8.427-6.856-15.283-15.284-15.283c-6.715,0-12.739,4.492-14.651,10.925l0.768,0.228c1.811-6.095,7.521-10.352,13.884-10.352 c7.985,0,14.482,6.496,14.482,14.482c0,2.948-0.723,10.149-3.46,16.278c-2.719,6.083-2.813,13.572-2.813,13.649 c0,6.854,5.575,12.428,12.426,12.428c1.727,0,3.372-0.356,4.866-0.994c3.565-1.282,14.33-7.828,14.814-8.123 c1.362-0.991,2.976-1.516,4.665-1.516c2.087,0,4.057,0.801,5.556,2.267l0.473,0.437 C312.806,194.264,312.886,194.121,313.005,194.001z"/></g></g><g id="_x3C_Group_x3E_"><path fill="#FFF" d="M291.486,53.622c-1.024-1.024-1.1-2.77-0.075-3.793l9.834-9.834c1.236-1.238,3.475-1.012,4.713,0.225 c1.235,1.238,1.387,3.401,0.151,4.639l-6.486,6.484l-0.491-0.494l6.483-6.483c0.966-0.966,0.814-2.688-0.151-3.651 c-0.964-0.966-2.761-1.193-3.727-0.227l-9.832,9.833c-0.757,0.754-0.679,2.056,0.075,2.81c0.752,0.753,2.054,0.83,2.808,0.076 l8.913-8.915c0.524-0.524,0.524-1.376,0-1.899c-0.524-0.524-1.375-0.524-1.899,0l-5.872,5.873l-0.492-0.492l5.873-5.873 c0.795-0.797,2.088-0.797,2.883,0c0.796,0.794,0.796,2.088,0,2.883l-8.912,8.914C294.256,54.722,292.511,54.647,291.486,53.622"/><path fill="#7CCDC3" d="M33.801,87.759c0,1.449-1.18,2.737-2.629,2.737H17.265c-1.75,0-3.172-1.745-3.172-3.491 c0-1.752,1.423-3.388,3.172-3.388h9.17v0.699h-9.17c-1.366,0-2.476,1.321-2.476,2.689c0,1.363,1.11,2.792,2.476,2.792h13.907 c1.067,0,1.933-0.972,1.933-2.039c0-1.066-0.866-2.039-1.933-2.04H18.566c-0.741,0-1.343,0.603-1.343,1.344 s0.602,1.344,1.343,1.344h8.305v0.695h-8.305c-1.125,0-2.039-0.915-2.039-2.04c0-1.123,0.915-2.04,2.039-2.04h12.605 C32.621,85.023,33.801,86.309,33.801,87.759"/><path fill="#404041" d="M292.087,219.598c0,1.449-1.181,2.736-2.629,2.736h-13.907c-1.749,0-3.172-1.742-3.172-3.491 s1.423-3.386,3.172-3.386h9.17v0.696h-9.17c-1.366,0-2.476,1.323-2.476,2.689c0,1.363,1.109,2.795,2.476,2.795h13.907 c1.066,0,1.933-0.973,1.933-2.04c0-1.064-0.866-2.037-1.933-2.038h-12.605c-0.741,0-1.344,0.603-1.344,1.342 c0,0.741,0.603,1.345,1.344,1.345h8.305v0.695h-8.305c-1.125,0-2.04-0.913-2.04-2.04c0-1.122,0.915-2.04,2.04-2.04h12.605 C290.906,216.861,292.087,218.149,292.087,219.598"/><path fill="#FFF" d="M32.647,222.373c-1.024-1.022-1.1-2.77-0.076-3.794l9.834-9.833c1.237-1.237,3.476-1.012,4.713,0.227 c1.237,1.235,1.387,3.4,0.15,4.637l-6.485,6.485l-0.492-0.494l6.484-6.483c0.966-0.968,0.815-2.688-0.15-3.653 c-0.965-0.964-2.762-1.19-3.727-0.226l-9.834,9.833c-0.755,0.756-0.677,2.056,0.076,2.81s2.054,0.83,2.809,0.075l8.914-8.912 c0.524-0.523,0.522-1.376,0-1.9c-0.525-0.522-1.376-0.525-1.9,0l-5.874,5.872l-0.491-0.491l5.872-5.873 c0.795-0.795,2.088-0.797,2.884,0c0.794,0.794,0.795,2.089,0,2.885l-8.913,8.912C35.417,223.475,33.671,223.399,32.647,222.373"/><path fill="#404041" d="M33.635,63.267c-1.447,0-2.736-1.18-2.736-2.629l0.002-13.907c-0.002-1.75,1.743-3.174,3.492-3.173 c1.747,0,3.383,1.424,3.385,3.173l-0.002,9.17h-0.694l-0.002-9.17c0-1.366-1.323-2.476-2.686-2.476 c-1.364,0-2.798,1.11-2.798,2.476l0.002,13.905c-0.002,1.069,0.972,1.935,2.04,1.935c1.064,0,2.038-0.866,2.04-1.933V48.032 c0-0.741-0.604-1.343-1.343-1.343c-0.742,0-1.346,0.602-1.344,1.343l-0.002,8.305h-0.694l-0.001-8.305 c0-1.125,0.913-2.04,2.039-2.04c1.125,0,2.042,0.915,2.04,2.04l0.002,12.604C36.372,62.088,35.085,63.267,33.635,63.267"/><path fill="#28485D" d="M39.622,197.001c-1.201,0.811-2.928,0.553-3.739-0.648L28.1,184.827c-0.979-1.45-0.332-3.604,1.119-4.584 c1.45-0.979,3.602-0.714,4.581,0.734l5.132,7.602l-0.577,0.39l-5.132-7.6c-0.764-1.134-2.482-1.312-3.614-0.547 c-1.13,0.763-1.696,2.484-0.932,3.615l7.783,11.527c0.598,0.883,1.889,1.055,2.772,0.46c0.883-0.598,1.206-1.861,0.609-2.745 l-7.054-10.446c-0.415-0.613-1.252-0.775-1.865-0.361c-0.614,0.415-0.777,1.25-0.362,1.865l4.647,6.883l-0.575,0.39l-4.648-6.883 c-0.629-0.933-0.385-2.202,0.549-2.833c0.931-0.628,2.202-0.382,2.832,0.549l7.054,10.448 C41.229,194.49,40.823,196.189,39.622,197.001"/></g></g></switch></svg>