<svg xmlns="http://www.w3.org/2000/svg" xmlns:xlink="http://www.w3.org/1999/xlink" id="Layer_1" x="0" y="0" version="1.1" viewBox="0 0 120 120" xml:space="preserve" style="enable-background:new 0 0 120 120"><style type="text/css">.st0{fill:#f7f6e6}.st0,.st1,.st2,.st3,.st4,.st5,.st6{clip-path:url(#SVGID_2_);fill-rule:evenodd;clip-rule:evenodd}.st1{fill:#ccc}.st2{fill:#8bd6d6}.st3{fill:#ffc}.st4{fill:#666}.st5{fill:#999}.st6{fill:#b3b3b3}.st10{clip-path:url(#SVGID_2_)}.st7{fill:#666}.st7,.st8,.st9{clip-path:url(#SVGID_2_)}.st10,.st8,.st9{fill-rule:evenodd;clip-rule:evenodd}.st8{fill:#e6e6e6}.st9{fill:#4d4d4d}.st10{fill:#f9c}.st11{fill:none;stroke:#373435;stroke-width:.216;stroke-linecap:round;stroke-linejoin:round;stroke-miterlimit:2.6131}.st11,.st12,.st13{clip-path:url(#SVGID_2_)}.st12{opacity:.23;fill-rule:evenodd;clip-rule:evenodd;fill:#666}.st13{fill:#f4bb90}.st13,.st14,.st15{fill-rule:evenodd;clip-rule:evenodd}.st14{clip-path:url(#SVGID_2_);fill:#633}.st15{fill:#cf6}.st15,.st16,.st17{clip-path:url(#SVGID_2_)}.st16{fill-rule:evenodd;clip-rule:evenodd;fill:#093}.st17{fill:none;stroke:#093;stroke-width:.216;stroke-linecap:round;stroke-linejoin:round;stroke-miterlimit:2.6131}.st18{fill:#896745}.st18,.st19,.st20,.st21{clip-path:url(#SVGID_2_);fill-rule:evenodd;clip-rule:evenodd}.st19{fill:#e07fb0}.st20{fill:#f7c876}.st21{fill:#f63}</style><g><defs><rect id="SVGID_1_" width="120" height="120"/></defs><clipPath id="SVGID_2_"><use xlink:href="#SVGID_1_" style="overflow:visible"/></clipPath><rect width="120" height="120" y="0" class="st0"/><path d="M104.1,110.9c-3,3.7-8.5,4.3-12.2,1.2c-3.7-3-4.3-8.5-1.2-12.2c3-3.7,8.5-4.3,12.2-1.2 C106.6,101.7,107.1,107.2,104.1,110.9" class="st1"/><path d="M13.1,55.4h59v36.7c0,3.5-2.9,6.4-6.4,6.4H19.5c-3.5,0-6.4-2.9-6.4-6.4V55.4z" class="st2"/><path d="M21.2,76.9h1.1c0.6,0,1.1,0.5,1.1,1.1v0.7c0,0.6-0.5,1.1-1.1,1.1h-1.1c-0.6,0-1.1-0.5-1.1-1.1v-0.7 C20.2,77.3,20.6,76.9,21.2,76.9" class="st3"/><path d="M25.1,76.9h1.1c0.6,0,1.1,0.5,1.1,1.1v0.7c0,0.6-0.5,1.1-1.1,1.1h-1.1c-0.6,0-1.1-0.5-1.1-1.1v-0.7 C24,77.3,24.5,76.9,25.1,76.9" class="st3"/><path d="M29,76.9h1.1c0.6,0,1.1,0.5,1.1,1.1v0.7c0,0.6-0.5,1.1-1.1,1.1H29c-0.6,0-1.1-0.5-1.1-1.1v-0.7 C27.9,77.3,28.4,76.9,29,76.9" class="st3"/><path d="M32.9,76.9H34c0.6,0,1.1,0.5,1.1,1.1v0.7c0,0.6-0.5,1.1-1.1,1.1h-1.1c-0.6,0-1.1-0.5-1.1-1.1v-0.7 C31.8,77.3,32.3,76.9,32.9,76.9" class="st3"/><path d="M36.7,76.9h1.1c0.6,0,1.1,0.5,1.1,1.1v0.7c0,0.6-0.5,1.1-1.1,1.1h-1.1c-0.6,0-1.1-0.5-1.1-1.1v-0.7 C35.7,77.3,36.1,76.9,36.7,76.9" class="st3"/><path d="M40.6,76.9h1.1c0.6,0,1.1,0.5,1.1,1.1v0.7c0,0.6-0.5,1.1-1.1,1.1h-1.1c-0.6,0-1.1-0.5-1.1-1.1v-0.7 C39.5,77.3,40,76.9,40.6,76.9" class="st3"/><path d="M44.5,76.9h1.1c0.6,0,1.1,0.5,1.1,1.1v0.7c0,0.6-0.5,1.1-1.1,1.1h-1.1c-0.6,0-1.1-0.5-1.1-1.1v-0.7 C43.4,77.3,43.9,76.9,44.5,76.9" class="st3"/><path d="M48.3,76.9h1.1c0.6,0,1.1,0.5,1.1,1.1v0.7c0,0.6-0.5,1.1-1.1,1.1h-1.1c-0.6,0-1.1-0.5-1.1-1.1v-0.7 C47.3,77.3,47.8,76.9,48.3,76.9" class="st3"/><path d="M52.2,76.9h1.1c0.6,0,1.1,0.5,1.1,1.1v0.7c0,0.6-0.5,1.1-1.1,1.1h-1.1c-0.6,0-1.1-0.5-1.1-1.1v-0.7 C51.1,77.3,51.6,76.9,52.2,76.9" class="st3"/><path d="M56.1,76.9h1.1c0.6,0,1.1,0.5,1.1,1.1v0.7c0,0.6-0.5,1.1-1.1,1.1h-1.1c-0.6,0-1.1-0.5-1.1-1.1v-0.7 C55,77.3,55.5,76.9,56.1,76.9" class="st3"/><path d="M60,76.9h1.1c0.6,0,1.1,0.5,1.1,1.1v0.7c0,0.6-0.5,1.1-1.1,1.1H60c-0.6,0-1.1-0.5-1.1-1.1v-0.7 C58.9,77.3,59.4,76.9,60,76.9" class="st3"/><path d="M63.8,76.9H65c0.6,0,1.1,0.5,1.1,1.1v0.7c0,0.6-0.5,1.1-1.1,1.1h-1.1c-0.6,0-1.1-0.5-1.1-1.1v-0.7 C62.8,77.3,63.2,76.9,63.8,76.9" class="st3"/><path d="M19.4,80.6h0.8c0.7,0,1.2,0.6,1.2,1.2v0.8c0,0.7-0.6,1.2-1.2,1.2h-0.8c-0.7,0-1.2-0.6-1.2-1.2v-0.8 C18.1,81.2,18.7,80.6,19.4,80.6" class="st3"/><path d="M23.2,80.6H24c0.7,0,1.2,0.6,1.2,1.2v0.8c0,0.7-0.6,1.2-1.2,1.2h-0.8c-0.7,0-1.2-0.6-1.2-1.2v-0.8 C21.9,81.2,22.5,80.6,23.2,80.6" class="st3"/><path d="M27,80.6h0.8c0.7,0,1.2,0.6,1.2,1.2v0.8c0,0.7-0.6,1.2-1.2,1.2H27c-0.7,0-1.2-0.6-1.2-1.2v-0.8 C25.7,81.2,26.3,80.6,27,80.6" class="st3"/><path d="M30.8,80.6h0.8c0.7,0,1.2,0.6,1.2,1.2v0.8c0,0.7-0.6,1.2-1.2,1.2h-0.8c-0.7,0-1.2-0.6-1.2-1.2v-0.8 C29.5,81.2,30.1,80.6,30.8,80.6" class="st3"/><path d="M34.6,80.6h0.8c0.7,0,1.2,0.6,1.2,1.2v0.8c0,0.7-0.6,1.2-1.2,1.2h-0.8c-0.7,0-1.2-0.6-1.2-1.2v-0.8 C33.4,81.2,33.9,80.6,34.6,80.6" class="st3"/><path d="M38.4,80.6h0.8c0.7,0,1.2,0.6,1.2,1.2v0.8c0,0.7-0.6,1.2-1.2,1.2h-0.8c-0.7,0-1.2-0.6-1.2-1.2v-0.8 C37.2,81.2,37.7,80.6,38.4,80.6" class="st3"/><path d="M42.2,80.6H43c0.7,0,1.2,0.6,1.2,1.2v0.8c0,0.7-0.6,1.2-1.2,1.2h-0.8c-0.7,0-1.2-0.6-1.2-1.2v-0.8 C41,81.2,41.5,80.6,42.2,80.6" class="st3"/><path d="M46,80.6h0.8c0.7,0,1.2,0.6,1.2,1.2v0.8c0,0.7-0.6,1.2-1.2,1.2H46c-0.7,0-1.2-0.6-1.2-1.2v-0.8 C44.8,81.2,45.3,80.6,46,80.6" class="st3"/><path d="M49.8,80.6h0.8c0.7,0,1.2,0.6,1.2,1.2v0.8c0,0.7-0.6,1.2-1.2,1.2h-0.8c-0.7,0-1.2-0.6-1.2-1.2v-0.8 C48.6,81.2,49.2,80.6,49.8,80.6" class="st3"/><path d="M53.7,80.6h0.8c0.7,0,1.2,0.6,1.2,1.2v0.8c0,0.7-0.6,1.2-1.2,1.2h-0.8c-0.7,0-1.2-0.6-1.2-1.2v-0.8 C52.4,81.2,53,80.6,53.7,80.6" class="st3"/><path d="M57.5,80.6h0.8c0.7,0,1.2,0.6,1.2,1.2v0.8c0,0.7-0.6,1.2-1.2,1.2h-0.8c-0.7,0-1.2-0.6-1.2-1.2v-0.8 C56.2,81.2,56.8,80.6,57.5,80.6" class="st3"/><path d="M61.3,80.6h0.8c0.7,0,1.2,0.6,1.2,1.2v0.8c0,0.7-0.6,1.2-1.2,1.2h-0.8c-0.7,0-1.2-0.6-1.2-1.2v-0.8 C60,81.2,60.6,80.6,61.3,80.6" class="st3"/><path d="M65.1,80.6h0.8c0.7,0,1.2,0.6,1.2,1.2v0.8c0,0.7-0.6,1.2-1.2,1.2h-0.8c-0.7,0-1.2-0.6-1.2-1.2v-0.8 C63.8,81.2,64.4,80.6,65.1,80.6" class="st3"/><path d="M20.4,84.6h0.8c0.7,0,1.2,0.6,1.2,1.2v0.8c0,0.7-0.6,1.2-1.2,1.2h-0.8c-0.7,0-1.2-0.6-1.2-1.2v-0.8 C19.1,85.1,19.7,84.6,20.4,84.6" class="st3"/><path d="M24.2,84.6H25c0.7,0,1.2,0.6,1.2,1.2v0.8c0,0.7-0.6,1.2-1.2,1.2h-0.8c-0.7,0-1.2-0.6-1.2-1.2v-0.8 C22.9,85.1,23.5,84.6,24.2,84.6" class="st3"/><path d="M28,84.6h0.8c0.7,0,1.2,0.6,1.2,1.2v0.8c0,0.7-0.6,1.2-1.2,1.2H28c-0.7,0-1.2-0.6-1.2-1.2v-0.8 C26.7,85.1,27.3,84.6,28,84.6" class="st3"/><path d="M31.8,84.6h0.8c0.7,0,1.2,0.6,1.2,1.2v0.8c0,0.7-0.6,1.2-1.2,1.2h-0.8c-0.7,0-1.2-0.6-1.2-1.2v-0.8 C30.6,85.1,31.1,84.6,31.8,84.6" class="st3"/><path d="M35.6,84.6h0.8c0.7,0,1.2,0.6,1.2,1.2v0.8c0,0.7-0.6,1.2-1.2,1.2h-0.8c-0.7,0-1.2-0.6-1.2-1.2v-0.8 C34.4,85.1,34.9,84.6,35.6,84.6" class="st3"/><path d="M39.4,84.6h0.8c0.7,0,1.2,0.6,1.2,1.2v0.8c0,0.7-0.6,1.2-1.2,1.2h-0.8c-0.7,0-1.2-0.6-1.2-1.2v-0.8 C38.2,85.1,38.7,84.6,39.4,84.6" class="st3"/><path d="M43.2,84.6H44c0.7,0,1.2,0.6,1.2,1.2v0.8c0,0.7-0.6,1.2-1.2,1.2h-0.8c-0.7,0-1.2-0.6-1.2-1.2v-0.8 C42,85.1,42.5,84.6,43.2,84.6" class="st3"/><path d="M47,84.6h0.8c0.7,0,1.2,0.6,1.2,1.2v0.8c0,0.7-0.6,1.2-1.2,1.2H47c-0.7,0-1.2-0.6-1.2-1.2v-0.8 C45.8,85.1,46.4,84.6,47,84.6" class="st3"/><path d="M50.9,84.6h0.8c0.7,0,1.2,0.6,1.2,1.2v0.8c0,0.7-0.6,1.2-1.2,1.2h-0.8c-0.7,0-1.2-0.6-1.2-1.2v-0.8 C49.6,85.1,50.2,84.6,50.9,84.6" class="st3"/><path d="M54.7,84.6h0.8c0.7,0,1.2,0.6,1.2,1.2v0.8c0,0.7-0.6,1.2-1.2,1.2h-0.8c-0.7,0-1.2-0.6-1.2-1.2v-0.8 C53.4,85.1,54,84.6,54.7,84.6" class="st3"/><path d="M58.5,84.6h0.8c0.7,0,1.2,0.6,1.2,1.2v0.8c0,0.7-0.6,1.2-1.2,1.2h-0.8c-0.7,0-1.2-0.6-1.2-1.2v-0.8 C57.2,85.1,57.8,84.6,58.5,84.6" class="st3"/><path d="M62.3,84.6h0.8c0.7,0,1.2,0.6,1.2,1.2v0.8c0,0.7-0.6,1.2-1.2,1.2h-0.8c-0.7,0-1.2-0.6-1.2-1.2v-0.8 C61,85.1,61.6,84.6,62.3,84.6" class="st3"/><path d="M66.1,84.6h0.8c0.7,0,1.2,0.6,1.2,1.2v0.8c0,0.7-0.6,1.2-1.2,1.2h-0.8c-0.7,0-1.2-0.6-1.2-1.2v-0.8 C64.8,85.1,65.4,84.6,66.1,84.6" class="st3"/><path d="M20.1,88.8h0.8c0.7,0,1.2,0.6,1.2,1.2v0.8c0,0.7-0.6,1.2-1.2,1.2h-0.8c-0.7,0-1.2-0.6-1.2-1.2v-0.8 C18.9,89.4,19.5,88.8,20.1,88.8" class="st3"/><path d="M24,88.8h0.8c0.7,0,1.2,0.6,1.2,1.2v0.8c0,0.7-0.6,1.2-1.2,1.2H24c-0.7,0-1.2-0.6-1.2-1.2v-0.8 C22.7,89.4,23.3,88.8,24,88.8" class="st3"/><path d="M27.8,88.8h0.8c0.7,0,1.2,0.6,1.2,1.2v0.8c0,0.7-0.6,1.2-1.2,1.2h-0.8c-0.7,0-1.2-0.6-1.2-1.2v-0.8 C26.5,89.4,27.1,88.8,27.8,88.8" class="st3"/><path d="M31.6,88.8h0.8c0.7,0,1.2,0.6,1.2,1.2v0.8c0,0.7-0.6,1.2-1.2,1.2h-0.8c-0.7,0-1.2-0.6-1.2-1.2v-0.8 C30.3,89.4,30.9,88.8,31.6,88.8" class="st3"/><path d="M54.4,88.8h0.8c0.7,0,1.2,0.6,1.2,1.2v0.8c0,0.7-0.6,1.2-1.2,1.2h-0.8c-0.7,0-1.2-0.6-1.2-1.2v-0.8 C53.2,89.4,53.8,88.8,54.4,88.8" class="st3"/><path d="M58.3,88.8H59c0.7,0,1.2,0.6,1.2,1.2v0.8c0,0.7-0.6,1.2-1.2,1.2h-0.8c-0.7,0-1.2-0.6-1.2-1.2v-0.8 C57,89.4,57.6,88.8,58.3,88.8" class="st3"/><path d="M62.1,88.8h0.8c0.7,0,1.2,0.6,1.2,1.2v0.8c0,0.7-0.6,1.2-1.2,1.2h-0.8c-0.7,0-1.2-0.6-1.2-1.2v-0.8 C60.8,89.4,61.4,88.8,62.1,88.8" class="st3"/><path d="M65.9,88.8h0.8c0.7,0,1.2,0.6,1.2,1.2v0.8c0,0.7-0.6,1.2-1.2,1.2h-0.8c-0.7,0-1.2-0.6-1.2-1.2v-0.8 C64.6,89.4,65.2,88.8,65.9,88.8" class="st3"/><rect width="59" height="15.9" x="13.1" y="55.4" class="st1"/><rect width="58.7" height="16.2" x="13.3" y="39.3" class="st4"/><rect width="1.8" height="7.9" x="11.5" y="43.5" class="st5"/><rect width="58.7" height="2.1" x="13.3" y="46.3" class="st5"/><path d="M23.4,45.2h3.2c0.7,0,1.3,0.6,1.3,1.3v1.7c0,0.7-0.6,1.3-1.3,1.3h-3.2c-0.7,0-1.3-0.6-1.3-1.3v-1.7 C22.1,45.8,22.7,45.2,23.4,45.2" class="st5"/><path d="M55.9,45.2h3.2c0.7,0,1.3,0.6,1.3,1.3v1.7c0,0.7-0.6,1.3-1.3,1.3h-3.2c-0.7,0-1.3-0.6-1.3-1.3v-1.7 C54.6,45.8,55.2,45.2,55.9,45.2" class="st5"/><rect width="2" height="7.9" x="72.1" y="43.5" class="st5"/><rect width="2" height="5.5" x="74.1" y="44.6" class="st5"/><rect width="2" height="2.4" x="76.1" y="46.2" class="st5"/><rect width="2" height="4.8" x="78.1" y="43.8" class="st5"/><rect width="3.6" height="3.4" x="7.9" y="45.7" class="st6"/><rect width="1.8" height="20.4" x="6.1" y="45.7" class="st6"/><rect width="59" height="2.1" x="13.1" y="71.4" class="st5"/><path d="M42.4,55.4c0-0.1,0.1-0.3,0.3-0.3s0.3,0.1,0.3,0.3v10.6c0,0.1-0.1,0.3-0.3,0.3s-0.3-0.1-0.3-0.3V55.4z" class="st7"/><path d="M42.4,55.5c0-0.1,0.1-0.3,0.2-0.3c0.1,0,0.3,0.1,0.3,0.2l1.9,10.5c0,0.1-0.1,0.3-0.2,0.3 c-0.1,0-0.3-0.1-0.3-0.2L42.4,55.5z" class="st7"/><path d="M42.5,55.5c0-0.1,0-0.3,0.1-0.3c0.1,0,0.3,0,0.3,0.1l3.8,10.2c0,0.1,0,0.3-0.1,0.3c-0.1,0-0.3,0-0.3-0.1 L42.5,55.5z" class="st7"/><path d="M42.5,55.5c-0.1-0.1,0-0.3,0.1-0.3c0.1-0.1,0.3,0,0.3,0.1l5.6,9.7c0.1,0.1,0,0.3-0.1,0.3 c-0.1,0.1-0.3,0-0.3-0.1L42.5,55.5z" class="st7"/><path d="M42.5,55.6c-0.1-0.1-0.1-0.3,0-0.4c0.1-0.1,0.3-0.1,0.4,0l7.3,9.1c0.1,0.1,0.1,0.3,0,0.4 c-0.1,0.1-0.3,0.1-0.4,0L42.5,55.6z" class="st7"/><path d="M42.5,55.6c-0.1-0.1-0.1-0.3,0-0.4c0.1-0.1,0.3-0.1,0.4,0l8.8,8.2c0.1,0.1,0.1,0.3,0,0.4 c-0.1,0.1-0.3,0.1-0.4,0L42.5,55.6z" class="st7"/><path d="M42.5,55.6c-0.1-0.1-0.1-0.2-0.1-0.3c0.1-0.1,0.2-0.1,0.3-0.1L53,62.4c0.1,0.1,0.1,0.2,0.1,0.3 c-0.1,0.1-0.2,0.1-0.3,0.1L42.5,55.6z" class="st7"/><path d="M42.6,55.6c-0.1-0.1-0.2-0.2-0.1-0.3c0.1-0.1,0.2-0.2,0.3-0.1l11.4,6c0.1,0.1,0.2,0.2,0.1,0.3 c-0.1,0.1-0.2,0.2-0.3,0.1L42.6,55.6z" class="st7"/><path d="M42.6,55.7c-0.1,0-0.2-0.2-0.1-0.3s0.2-0.2,0.3-0.1L55.1,60c0.1,0,0.2,0.2,0.1,0.3c0,0.1-0.2,0.2-0.3,0.1 L42.6,55.7z" class="st7"/><path d="M42.6,55.7c-0.1,0-0.2-0.2-0.2-0.3c0-0.1,0.2-0.2,0.3-0.2l13.1,3.4c0.1,0,0.2,0.2,0.2,0.3 c0,0.1-0.2,0.2-0.3,0.2L42.6,55.7z" class="st7"/><path d="M42.7,55.7c-0.1,0-0.2-0.1-0.2-0.3c0-0.1,0.1-0.2,0.3-0.2l13.6,2c0.1,0,0.2,0.1,0.2,0.3c0,0.1-0.1,0.2-0.3,0.2 L42.7,55.7z" class="st7"/><path d="M42.7,55.7c-0.1,0-0.2-0.1-0.2-0.3c0-0.1,0.1-0.2,0.3-0.2l13.8,0.5c0.1,0,0.2,0.1,0.2,0.3 c0,0.1-0.1,0.2-0.3,0.2L42.7,55.7z" class="st7"/><path d="M42.4,55.4c0-0.1,0.1-0.3,0.3-0.3c0.1,0,0.3,0.1,0.3,0.3v10.6c0,0.1-0.1,0.3-0.3,0.3c-0.1,0-0.3-0.1-0.3-0.3 V55.4z" class="st7"/><path d="M42.4,55.4c0-0.1,0.2-0.2,0.3-0.2c0.1,0,0.2,0.2,0.2,0.3L41,66c0,0.1-0.2,0.2-0.3,0.2c-0.1,0-0.2-0.2-0.2-0.3 L42.4,55.4z" class="st7"/><path d="M42.5,55.3c0-0.1,0.2-0.2,0.3-0.1c0.1,0,0.2,0.2,0.1,0.3l-3.8,10.2c0,0.1-0.2,0.2-0.3,0.1 c-0.1,0-0.2-0.2-0.1-0.3L42.5,55.3z" class="st7"/><path d="M42.5,55.3c0.1-0.1,0.2-0.2,0.3-0.1c0.1,0.1,0.2,0.2,0.1,0.3l-5.6,9.7c-0.1,0.1-0.2,0.2-0.3,0.1 c-0.1-0.1-0.2-0.2-0.1-0.3L42.5,55.3z" class="st7"/><path d="M42.5,55.3c0.1-0.1,0.2-0.1,0.4,0c0.1,0.1,0.1,0.2,0,0.4l-7.3,9.1c-0.1,0.1-0.2,0.1-0.4,0 c-0.1-0.1-0.1-0.2,0-0.4L42.5,55.3z" class="st7"/><path d="M42.5,55.2c0.1-0.1,0.3-0.1,0.4,0c0.1,0.1,0.1,0.3,0,0.4L34,63.8c-0.1,0.1-0.3,0.1-0.4,0 c-0.1-0.1-0.1-0.3,0-0.4L42.5,55.2z" class="st7"/><path d="M42.5,55.2c0.1-0.1,0.3-0.1,0.3,0.1c0.1,0.1,0.1,0.3-0.1,0.3l-10.2,7.2c-0.1,0.1-0.3,0.1-0.3-0.1 c-0.1-0.1-0.1-0.3,0.1-0.3L42.5,55.2z" class="st7"/><path d="M42.6,55.2c0.1-0.1,0.3,0,0.3,0.1c0.1,0.1,0,0.3-0.1,0.3l-11.4,6c-0.1,0.1-0.3,0-0.3-0.1 c-0.1-0.1,0-0.3,0.1-0.3L42.6,55.2z" class="st7"/><path d="M42.6,55.2c0.1,0,0.3,0,0.3,0.1c0,0.1,0,0.3-0.1,0.3l-12.4,4.8c-0.1,0-0.3,0-0.3-0.1c0-0.1,0-0.3,0.1-0.3 L42.6,55.2z" class="st7"/><path d="M42.6,55.2c0.1,0,0.3,0,0.3,0.2c0,0.1,0,0.3-0.2,0.3l-13.1,3.4c-0.1,0-0.3,0-0.3-0.2s0-0.3,0.2-0.3L42.6,55.2z" class="st7"/><path d="M42.7,55.2c0.1,0,0.3,0.1,0.3,0.2c0,0.1-0.1,0.3-0.2,0.3l-13.6,2c-0.1,0-0.3-0.1-0.3-0.2 c0-0.1,0.1-0.3,0.2-0.3L42.7,55.2z" class="st7"/><path d="M42.7,55.2c0.1,0,0.3,0.1,0.3,0.2c0,0.1-0.1,0.3-0.2,0.3l-13.8,0.5c-0.1,0-0.3-0.1-0.3-0.2 c0-0.1,0.1-0.3,0.2-0.3L42.7,55.2z" class="st7"/><path d="M7.9,61.2h1.4c0.8,0,1.4,0.6,1.4,1.4v2.1c0,0.8-0.6,1.4-1.4,1.4H7.9V61.2z" class="st5"/><path d="M35.5,88.8h15.6c0.7,0,1.2,0.6,1.2,1.2v0.8c0,0.7-0.6,1.2-1.2,1.2H35.5c-0.7,0-1.2-0.6-1.2-1.2v-0.8 C34.2,89.4,34.8,88.8,35.5,88.8" class="st3"/><rect width="32.4" height="40.5" x="81.5" y="50.6" class="st8"/><path d="M83.9,56.6c-0.1,0-0.1-0.1-0.1-0.1c0-0.1,0.1-0.1,0.1-0.1h1.3l0.4-0.4c0,0,0.1,0,0.2,0l0.5,0.3l1.1-0.6 c0,0,0.1,0,0.1,0v0l0.9,0.6h0.5l0.7-0.3c0,0,0.1,0,0.1,0l0,0l0.5,0.3l0.6-0.3c0,0,0.1,0,0.1,0l0.6,0.2l0.5-0.3c0,0,0.1,0,0.1,0 l0.7,0.3h0.5l0.9-0.6c0,0,0.1,0,0.1,0l1.1,0.6l0.5-0.3c0,0,0.1,0,0.1,0l0.4,0.4h0.7l0.2-0.3c0,0,0.1,0,0.1,0v0l1,0.3l0.4-0.3 c0,0,0.1,0,0.2,0l0.5,0.3l1.1-0.6c0,0,0.1,0,0.1,0l0,0l0.9,0.6h0.5l0.7-0.3c0,0,0.1,0,0.1,0l0.5,0.3l0.6-0.3c0,0,0.1,0,0.1,0l0,0 l0.6,0.3l0.5-0.3c0,0,0.1,0,0.1,0l0.7,0.3h0.5l0.9-0.6c0,0,0.1,0,0.1,0l1.1,0.6l0.5-0.3c0,0,0.1,0,0.1,0l0.4,0.4h1.3 c0.1,0,0.1,0,0.1,0.1c0,0.1-0.1,0.1-0.1,0.1h-1.3v0c0,0-0.1,0-0.1,0l-0.3-0.3l-0.4,0.3c0,0-0.1,0-0.1,0l-1.1-0.6l-0.9,0.6 c0,0,0,0-0.1,0h-0.5v0c0,0,0,0,0,0l-0.7-0.3l-0.5,0.3c0,0-0.1,0-0.1,0l-0.6-0.3l-0.6,0.3v0c0,0-0.1,0-0.1,0l-0.5-0.3l-0.6,0.3 c0,0,0,0-0.1,0h-0.5v0c0,0,0,0-0.1,0l-0.9-0.6l-1.1,0.6l0,0c0,0-0.1,0-0.1,0l-0.4-0.3l-0.3,0.3c0,0-0.1,0-0.1,0l-1-0.3l-0.2,0.2 c0,0-0.1,0-0.1,0h-0.8v0c0,0-0.1,0-0.1,0l-0.3-0.3l-0.4,0.3c0,0-0.1,0-0.1,0l-1.1-0.6l-0.9,0.6c0,0,0,0-0.1,0h-0.5v0c0,0,0,0,0,0 L92,56.3l-0.5,0.3h0c0,0-0.1,0-0.1,0l-0.6-0.3l-0.6,0.3c0,0-0.1,0-0.1,0l-0.5-0.3l-0.6,0.3c0,0,0,0-0.1,0h-0.5v0c0,0,0,0-0.1,0 l-0.9-0.6l-1.1,0.6v0c0,0-0.1,0-0.1,0l-0.4-0.3l-0.3,0.3c0,0-0.1,0-0.1,0H83.9z" class="st7"/><path d="M104.4,58L104.4,58 M83.9,58.6c-0.1,0-0.1-0.1-0.1-0.1c0-0.1,0.1-0.1,0.1-0.1h1l0.3-0.3c0,0,0.1-0.1,0.2,0l0,0 l0.4,0.3l0.9-0.6c0,0,0.1,0,0.1,0l0,0l0.7,0.6h0.4l0.6-0.3c0,0,0.1,0,0.1,0l0.4,0.3l0.5-0.2c0,0,0.1,0,0.1,0l0.5,0.2l0.4-0.3 c0,0,0.1,0,0.1,0l0.6,0.3h0.4l0.7-0.6c0,0,0.1,0,0.1,0l0.9,0.6l0.4-0.3c0,0,0.1,0,0.2,0l0,0l0.3,0.3h0.5l0.2-0.3c0,0,0.1-0.1,0.1,0 l0.8,0.3l0.3-0.3c0,0,0.1-0.1,0.2,0l0,0l0,0l0.4,0.3l0.9-0.6c0,0,0.1,0,0.1,0l0,0l0.7,0.6h0.4l0.6-0.3c0,0,0.1,0,0.1,0l0.4,0.3 l0.5-0.2c0,0,0.1,0,0.1,0l0.5,0.2l0.4-0.3c0,0,0.1,0,0.1,0l0.6,0.3h0.4l0.7-0.6c0,0,0.1,0,0.1,0l0.9,0.6l0.4-0.3c0,0,0.1,0,0.2,0 l0,0l0.3,0.3l0.6-0.3c0,0,0.1,0,0.1,0l0.2,0.2l1.1,0.1L107,58c0,0,0.1-0.1,0.2,0l0,0l0.4,0.3l0.9-0.6c0,0,0.1,0,0.1,0l0,0l0.7,0.6 h0.4l0,0l1.2,0c0.1,0,0.1,0,0.1,0.1c0,0.1,0,0.1-0.1,0.1l-1.2,0l0,0h-0.4c0,0-0.1,0-0.1,0l-0.7-0.6l-0.9,0.6c0,0-0.1,0-0.1,0 l-0.3-0.3l-0.3,0.3c0,0-0.1,0-0.1,0l-1.1-0.1v0c0,0,0,0-0.1,0l-0.2-0.2l-0.7,0.3c0,0-0.1,0-0.1,0l-0.3-0.3l-0.3,0.3h0 c0,0-0.1,0-0.1,0l-0.9-0.6l-0.7,0.6c0,0,0,0-0.1,0h-0.4v0c0,0,0,0-0.1,0l-0.5-0.3l-0.4,0.3c0,0-0.1,0-0.1,0l-0.5-0.2l-0.5,0.2 c0,0-0.1,0-0.1,0l-0.4-0.3l-0.5,0.3c0,0,0,0-0.1,0h-0.4c0,0-0.1,0-0.1,0l-0.7-0.6l-0.9,0.6c0,0-0.1,0-0.1,0L96,58.2l-0.2,0.3 c0,0-0.1,0.1-0.1,0l-0.8-0.3l-0.2,0.2c0,0-0.1,0.1-0.1,0.1H94v0c0,0-0.1,0-0.1,0l-0.3-0.3l-0.3,0.3h0c0,0-0.1,0-0.1,0l-0.9-0.6 l-0.7,0.6c0,0,0,0-0.1,0h-0.4v0c0,0,0,0-0.1,0l-0.5-0.3l-0.4,0.3c0,0-0.1,0-0.1,0l-0.5-0.2L89,58.6c0,0-0.1,0-0.1,0l-0.4-0.3 L88,58.6c0,0,0,0-0.1,0h-0.4c0,0-0.1,0-0.1,0l-0.7-0.6l-0.9,0.6c0,0-0.1,0-0.1,0l-0.3-0.3l-0.3,0.3c0,0-0.1,0-0.1,0H83.9z" class="st7"/><path d="M83.9,60.5c-0.1,0-0.1-0.1-0.1-0.1c0-0.1,0.1-0.1,0.1-0.1h1.3l0.4-0.4c0,0,0.1,0,0.2,0l0.5,0.3l1.1-0.6 c0,0,0.1,0,0.1,0l0.9,0.6h0.5l0.7-0.3c0,0,0.1,0,0.1,0l0,0l0.5,0.3l0.6-0.3c0,0,0.1,0,0.1,0l0.6,0.2l0.5-0.3c0,0,0.1,0,0.1,0 l0.7,0.3h0.5l0.9-0.6c0,0,0.1,0,0.1,0l1.1,0.6l0.5-0.3c0,0,0.1,0,0.1,0l0.4,0.4h0.7l0.2-0.3c0,0,0.1,0,0.1,0v0l1,0.3l0.4-0.3 c0,0,0.1,0,0.2,0l0.5,0.3l1.1-0.6c0,0,0.1,0,0.1,0h0l0.9,0.6h0.5l0.7-0.3c0,0,0.1,0,0.1,0v0l0.5,0.3l0.6-0.3c0,0,0.1,0,0.1,0l0,0 l0.6,0.3L105,60c0,0,0.1,0,0.1,0l0.7,0.3h0.5l0.9-0.6c0,0,0.1,0,0.1,0l1.1,0.6l0.5-0.3c0,0,0.1,0,0.1,0l0.4,0.4h1.3 c0.1,0,0.1,0,0.1,0.1c0,0.1-0.1,0.1-0.1,0.1h-1.3v0c0,0-0.1,0-0.1,0l-0.3-0.3l-0.4,0.3c0,0-0.1,0-0.1,0l-1.1-0.6l-0.9,0.6 c0,0,0,0-0.1,0h-0.5v0c0,0,0,0,0,0l-0.7-0.3l-0.5,0.3c0,0-0.1,0-0.1,0l-0.6-0.3l-0.6,0.3c0,0-0.1,0-0.1,0l-0.5-0.3l-0.6,0.3 c0,0,0,0-0.1,0h-0.5v0c0,0,0,0-0.1,0l-0.9-0.6l-1.1,0.6l0,0c0,0-0.1,0-0.1,0l-0.4-0.3l-0.3,0.3c0,0-0.1,0-0.1,0l-1-0.3l-0.2,0.2 c0,0-0.1,0-0.1,0h-0.8v0c0,0-0.1,0-0.1,0l-0.3-0.3l-0.4,0.3c0,0-0.1,0-0.1,0l-1.1-0.6l-0.9,0.6c0,0,0,0-0.1,0h-0.5v0c0,0,0,0,0,0 L92,60.2l-0.5,0.3l0,0c0,0-0.1,0-0.1,0l-0.6-0.3l-0.6,0.3v0c0,0-0.1,0-0.1,0l-0.5-0.3l-0.6,0.3c0,0,0,0-0.1,0h-0.5v0c0,0,0,0-0.1,0 l-0.9-0.6l-1.1,0.6v0c0,0-0.1,0-0.1,0l-0.4-0.3l-0.3,0.3c0,0-0.1,0-0.1,0H83.9z" class="st7"/><path d="M104.4,61.9L104.4,61.9 M83.9,62.5c-0.1,0-0.1-0.1-0.1-0.1c0-0.1,0.1-0.1,0.1-0.1h1l0.3-0.4c0,0,0.1-0.1,0.2,0 l0,0l0.4,0.3l0.9-0.6c0,0,0.1,0,0.1,0l0,0l0.7,0.6h0.4l0.6-0.3c0,0,0.1,0,0.1,0l0.4,0.3l0.5-0.2c0,0,0.1,0,0.1,0l0.5,0.2l0.4-0.3 c0,0,0.1,0,0.1,0l0.6,0.3h0.4l0.7-0.6c0,0,0.1,0,0.1,0l0.9,0.6l0.4-0.3c0,0,0.1,0,0.2,0l0,0l0.3,0.3h0.5l0.2-0.3c0,0,0.1-0.1,0.1,0 l0.8,0.3l0.3-0.3c0,0,0.1-0.1,0.2,0l0,0l0,0l0.4,0.3l0.9-0.6c0,0,0.1,0,0.1,0l0,0l0.7,0.6h0.4l0.6-0.3c0,0,0.1,0,0.1,0l0.4,0.3 l0.5-0.2c0,0,0.1,0,0.1,0l0.5,0.2l0.4-0.3c0,0,0.1,0,0.1,0l0.6,0.3h0.4l0.7-0.6c0,0,0.1,0,0.1,0l0.9,0.6l0.4-0.3c0,0,0.1,0,0.2,0 l0,0l0.3,0.3l0.6-0.3c0,0,0.1,0,0.1,0l0.2,0.2l1.1,0.1l0.3-0.3c0,0,0.1-0.1,0.2,0l0,0l0.4,0.3l0.9-0.6c0,0,0.1,0,0.1,0l0,0l0.7,0.6 h0.4l0,0l1.2,0c0.1,0,0.1,0,0.1,0.1c0,0.1,0,0.1-0.1,0.1l-1.2,0l0,0h-0.4v0c0,0-0.1,0-0.1,0l-0.7-0.6l-0.9,0.6c0,0-0.1,0-0.1,0 l-0.3-0.3l-0.3,0.3c0,0-0.1,0-0.1,0l-1.1-0.1v0c0,0,0,0-0.1,0l-0.2-0.2l-0.7,0.3c0,0-0.1,0-0.1,0l-0.3-0.3l-0.3,0.3l0,0 c0,0-0.1,0-0.1,0l-0.9-0.6l-0.7,0.6c0,0,0,0-0.1,0h-0.4v0c0,0,0,0-0.1,0l-0.5-0.3l-0.4,0.3c0,0-0.1,0-0.1,0l-0.5-0.2l-0.5,0.2 c0,0-0.1,0-0.1,0l-0.4-0.3l-0.5,0.3c0,0,0,0-0.1,0h-0.4v0c0,0-0.1,0-0.1,0l-0.7-0.6l-0.9,0.6c0,0-0.1,0-0.1,0L96,62.2l-0.2,0.3 c0,0-0.1,0.1-0.1,0l-0.8-0.3l-0.2,0.2c0,0-0.1,0.1-0.1,0.1H94v0c0,0-0.1,0-0.1,0l-0.3-0.3l-0.3,0.3l0,0c0,0-0.1,0-0.1,0l-0.9-0.6 l-0.7,0.6c0,0,0,0-0.1,0h-0.4v0c0,0,0,0-0.1,0l-0.5-0.3l-0.4,0.3c0,0-0.1,0-0.1,0l-0.5-0.2L89,62.5c0,0-0.1,0-0.1,0l-0.4-0.3 L88,62.5c0,0,0,0-0.1,0h-0.4v0c0,0-0.1,0-0.1,0l-0.7-0.6l-0.9,0.6c0,0-0.1,0-0.1,0l-0.3-0.3l-0.3,0.3c0,0-0.1,0-0.1,0H83.9z" class="st7"/><path d="M83.9,64.5c-0.1,0-0.1,0-0.1-0.1c0-0.1,0.1-0.1,0.1-0.1h1.3l0.4-0.4c0,0,0.1,0,0.2,0l0.5,0.3l1.1-0.6 c0,0,0.1,0,0.1,0l0.9,0.6h0.5l0.7-0.3c0,0,0.1,0,0.1,0h0l0.5,0.3l0.6-0.3c0,0,0.1,0,0.1,0l0.6,0.2l0.5-0.3c0,0,0.1,0,0.1,0l0.7,0.3 h0.5l0.9-0.6c0,0,0.1,0,0.1,0l1.1,0.6l0.5-0.3c0,0,0.1,0,0.1,0l0.4,0.4h0.7l0.2-0.3c0,0,0.1,0,0.1,0v0l1,0.3l0.4-0.3 c0,0,0.1,0,0.2,0l0.5,0.3l1.1-0.6c0,0,0.1,0,0.1,0h0l0.9,0.6h0.5l0.7-0.3c0,0,0.1,0,0.1,0l0.5,0.3l0.6-0.3c0,0,0.1,0,0.1,0l0,0 l0.6,0.3l0.5-0.3c0,0,0.1,0,0.1,0l0.7,0.3h0.5l0.9-0.6c0,0,0.1,0,0.1,0l1.1,0.6l0.5-0.3c0,0,0.1,0,0.1,0l0.4,0.4h1.3 c0.1,0,0.1,0,0.1,0.1c0,0.1-0.1,0.1-0.1,0.1h-1.3v0c0,0-0.1,0-0.1,0l-0.3-0.3l-0.4,0.3c0,0-0.1,0-0.1,0l-1.1-0.6l-0.9,0.6 c0,0,0,0-0.1,0h-0.5v0c0,0,0,0,0,0l-0.7-0.3l-0.5,0.3c0,0-0.1,0-0.1,0l-0.6-0.3l-0.6,0.3c0,0-0.1,0-0.1,0l-0.5-0.3l-0.6,0.3 c0,0,0,0-0.1,0h-0.5c0,0,0,0-0.1,0l-0.9-0.6l-1.1,0.6l0,0c0,0-0.1,0-0.1,0l-0.4-0.3l-0.3,0.3c0,0-0.1,0-0.1,0l-1-0.3l-0.2,0.2 c0,0-0.1,0-0.1,0h-0.8v0c0,0-0.1,0-0.1,0l-0.3-0.3l-0.4,0.3c0,0-0.1,0-0.1,0l-1.1-0.6l-0.9,0.6c0,0,0,0-0.1,0h-0.5v0c0,0,0,0,0,0 L92,64.2l-0.5,0.3h0c0,0-0.1,0-0.1,0l-0.6-0.3l-0.6,0.3c0,0-0.1,0-0.1,0l-0.5-0.3l-0.6,0.3c0,0,0,0-0.1,0h-0.5c0,0,0,0-0.1,0 l-0.9-0.6l-1.1,0.6v0c0,0-0.1,0-0.1,0l-0.4-0.3l-0.3,0.3c0,0-0.1,0-0.1,0H83.9z" class="st7"/><path d="M104.4,65.9L104.4,65.9 M83.9,66.4c-0.1,0-0.1-0.1-0.1-0.1c0-0.1,0.1-0.1,0.1-0.1h1l0.3-0.3c0,0,0.1-0.1,0.2,0 l0,0l0.4,0.3l0.9-0.6c0,0,0.1,0,0.1,0h0l0.7,0.6h0.4l0.6-0.3c0,0,0.1,0,0.1,0l0.4,0.3l0.5-0.2c0,0,0.1,0,0.1,0l0.5,0.2l0.4-0.3 c0,0,0.1,0,0.1,0l0.6,0.3h0.4l0.7-0.6c0,0,0.1,0,0.1,0l0.9,0.6l0.4-0.3c0,0,0.1,0,0.2,0l0,0l0.3,0.3h0.5l0.2-0.3c0,0,0.1-0.1,0.1,0 l0.8,0.3l0.3-0.3c0,0,0.1-0.1,0.2,0l0,0l0,0l0.4,0.3l0.9-0.6c0,0,0.1,0,0.1,0h0l0.7,0.6h0.4l0.6-0.3c0,0,0.1,0,0.1,0l0.4,0.3 l0.5-0.2c0,0,0.1,0,0.1,0l0.5,0.2l0.4-0.3c0,0,0.1,0,0.1,0l0.6,0.3h0.4l0.7-0.6c0,0,0.1,0,0.1,0l0.9,0.6l0.4-0.3c0,0,0.1,0,0.2,0 l0,0l0.3,0.3l0.6-0.3c0,0,0.1,0,0.1,0l0.2,0.2l1.1,0.1l0.3-0.3c0,0,0.1-0.1,0.2,0l0,0l0.4,0.3l0.9-0.6c0,0,0.1,0,0.1,0h0l0.7,0.6 h0.4l0,0l1.2,0c0.1,0,0.1,0,0.1,0.1c0,0.1,0,0.1-0.1,0.1l-1.2,0l0,0h-0.4c0,0-0.1,0-0.1,0l-0.7-0.6l-0.9,0.6c0,0-0.1,0-0.1,0 l-0.3-0.3l-0.3,0.3c0,0-0.1,0-0.1,0l-1.1-0.1v0c0,0,0,0-0.1,0l-0.2-0.2l-0.7,0.3c0,0-0.1,0-0.1,0l-0.3-0.3l-0.3,0.3h0 c0,0-0.1,0-0.1,0l-0.9-0.6l-0.7,0.6c0,0,0,0-0.1,0h-0.4v0c0,0,0,0-0.1,0l-0.5-0.3l-0.4,0.3c0,0-0.1,0-0.1,0l-0.5-0.2l-0.5,0.2 c0,0-0.1,0-0.1,0l-0.4-0.3l-0.5,0.3c0,0,0,0-0.1,0h-0.4c0,0-0.1,0-0.1,0l-0.7-0.6l-0.9,0.6c0,0-0.1,0-0.1,0L96,66.1l-0.2,0.3 c0,0-0.1,0.1-0.1,0l-0.8-0.3l-0.2,0.2c0,0-0.1,0.1-0.1,0.1H94v0c0,0-0.1,0-0.1,0l-0.3-0.3l-0.3,0.3h0c0,0-0.1,0-0.1,0l-0.9-0.6 l-0.7,0.6c0,0,0,0-0.1,0h-0.4v0c0,0,0,0-0.1,0l-0.5-0.3l-0.4,0.3c0,0-0.1,0-0.1,0l-0.5-0.2L89,66.5c0,0-0.1,0-0.1,0l-0.4-0.3 L88,66.4c0,0,0,0-0.1,0h-0.4c0,0-0.1,0-0.1,0l-0.7-0.6l-0.9,0.6c0,0-0.1,0-0.1,0l-0.3-0.3l-0.3,0.3c0,0-0.1,0-0.1,0H83.9z" class="st7"/><path d="M83.9,68.4c-0.1,0-0.1,0-0.1-0.1c0-0.1,0.1-0.1,0.1-0.1h1.3l0.4-0.4c0,0,0.1,0,0.2,0l0.5,0.3l1.1-0.6 c0,0,0.1,0,0.1,0l0.9,0.6h0.5l0.7-0.3c0,0,0.1,0,0.1,0l0,0l0.5,0.3l0.6-0.3c0,0,0.1,0,0.1,0l0.6,0.2l0.5-0.3c0,0,0.1,0,0.1,0 l0.7,0.3h0.5l0.9-0.6c0,0,0.1,0,0.1,0l1.1,0.6l0.5-0.3c0,0,0.1,0,0.1,0v0l0.4,0.4h0.7l0.2-0.3c0,0,0.1,0,0.1,0v0l1,0.3l0.4-0.3 c0,0,0.1,0,0.2,0l0.5,0.3l1.1-0.6c0,0,0.1,0,0.1,0h0l0.9,0.6h0.5l0.7-0.3c0,0,0.1,0,0.1,0v0l0.5,0.3l0.6-0.3c0,0,0.1,0,0.1,0l0,0 l0.6,0.3l0.5-0.3c0,0,0.1,0,0.1,0l0.7,0.3h0.5l0.9-0.6c0,0,0.1,0,0.1,0l1.1,0.6l0.5-0.3c0,0,0.1,0,0.1,0v0l0.4,0.4h1.3 c0.1,0,0.1,0.1,0.1,0.1c0,0.1-0.1,0.1-0.1,0.1h-1.3v0c0,0-0.1,0-0.1,0l-0.3-0.3l-0.4,0.3c0,0-0.1,0-0.1,0l-1.1-0.6l-0.9,0.6 c0,0,0,0-0.1,0h-0.5c0,0,0,0,0,0l-0.7-0.3l-0.5,0.3c0,0-0.1,0-0.1,0l-0.6-0.3l-0.6,0.3v0c0,0-0.1,0-0.1,0l-0.5-0.3l-0.6,0.3 c0,0,0,0-0.1,0h-0.5c0,0,0,0-0.1,0l-0.9-0.6l-1.1,0.6l0,0c0,0-0.1,0-0.1,0L98.7,68l-0.3,0.3c0,0-0.1,0-0.1,0l-1-0.3l-0.2,0.2 c0,0-0.1,0-0.1,0h-0.8v0c0,0-0.1,0-0.1,0L95.8,68l-0.4,0.3c0,0-0.1,0-0.1,0l-1.1-0.6l-0.9,0.6c0,0,0,0-0.1,0h-0.5c0,0,0,0,0,0 L92,68.1l-0.5,0.3l0,0c0,0-0.1,0-0.1,0l-0.6-0.3l-0.6,0.3v0c0,0-0.1,0-0.1,0l-0.5-0.3l-0.6,0.3c0,0,0,0-0.1,0h-0.5c0,0,0,0-0.1,0 l-0.9-0.6l-1.1,0.6v0c0,0-0.1,0-0.1,0L85.7,68l-0.3,0.3c0,0-0.1,0-0.1,0H83.9z" class="st7"/><path d="M104.4,69.8L104.4,69.8 M83.9,70.4c-0.1,0-0.1-0.1-0.1-0.1c0-0.1,0.1-0.1,0.1-0.1h1l0.3-0.3c0,0,0.1-0.1,0.2,0 l0,0l0.4,0.3l0.9-0.6c0,0,0.1,0,0.1,0l0,0l0.7,0.6h0.4l0.6-0.3c0,0,0.1,0,0.1,0l0.4,0.3l0.5-0.2c0,0,0.1,0,0.1,0l0.5,0.2l0.4-0.3 c0,0,0.1,0,0.1,0l0.6,0.3h0.4l0.7-0.6c0,0,0.1,0,0.1,0l0.9,0.6l0.4-0.3c0,0,0.1,0,0.2,0l0,0l0.3,0.3h0.5l0.2-0.3c0,0,0.1-0.1,0.1,0 v0l0.8,0.3l0.3-0.3c0,0,0.1-0.1,0.2,0l0,0l0,0l0.4,0.3l0.9-0.6c0,0,0.1,0,0.1,0l0,0l0.7,0.6h0.4l0.6-0.3c0,0,0.1,0,0.1,0l0.4,0.3 l0.5-0.2c0,0,0.1,0,0.1,0l0.5,0.2l0.4-0.3c0,0,0.1,0,0.1,0l0.6,0.3h0.4l0.7-0.6c0,0,0.1,0,0.1,0l0.9,0.6l0.4-0.3c0,0,0.1,0,0.2,0 l0,0l0.3,0.3l0.6-0.3c0,0,0.1,0,0.1,0l0.2,0.2l1.1,0.1l0.3-0.3c0,0,0.1-0.1,0.2,0l0,0l0.4,0.3l0.9-0.6c0,0,0.1,0,0.1,0l0,0l0.7,0.6 h0.4l0,0l1.2,0c0.1,0,0.1,0,0.1,0.1c0,0.1,0,0.1-0.1,0.1l-1.2,0l0,0h-0.4v0c0,0-0.1,0-0.1,0l-0.7-0.6l-0.9,0.6c0,0-0.1,0-0.1,0 l-0.3-0.3l-0.3,0.3c0,0-0.1,0-0.1,0l-1.1-0.1v0c0,0,0,0-0.1,0l-0.2-0.2l-0.7,0.3c0,0-0.1,0-0.1,0l-0.3-0.3l-0.3,0.3l0,0 c0,0-0.1,0-0.1,0l-0.9-0.6l-0.7,0.6c0,0,0,0-0.1,0h-0.4v0c0,0,0,0-0.1,0l-0.5-0.3l-0.4,0.3c0,0-0.1,0-0.1,0l-0.5-0.2l-0.5,0.2 c0,0-0.1,0-0.1,0l-0.4-0.3l-0.5,0.3c0,0,0,0-0.1,0h-0.4v0c0,0-0.1,0-0.1,0l-0.7-0.6l-0.9,0.6c0,0-0.1,0-0.1,0L96,70l-0.2,0.3 c0,0-0.1,0.1-0.1,0l-0.8-0.3l-0.2,0.2c0,0-0.1,0.1-0.1,0.1H94v0c0,0-0.1,0-0.1,0L93.6,70l-0.3,0.3l0,0c0,0-0.1,0-0.1,0l-0.9-0.6 l-0.7,0.6c0,0,0,0-0.1,0h-0.4v0c0,0,0,0-0.1,0l-0.5-0.3l-0.4,0.3c0,0-0.1,0-0.1,0l-0.5-0.2L89,70.4c0,0-0.1,0-0.1,0l-0.4-0.3 L88,70.4c0,0,0,0-0.1,0h-0.4v0c0,0-0.1,0-0.1,0l-0.7-0.6l-0.9,0.6c0,0-0.1,0-0.1,0L85.4,70l-0.3,0.3c0,0-0.1,0-0.1,0H83.9z" class="st7"/><path d="M83.9,72.3c-0.1,0-0.1-0.1-0.1-0.1c0-0.1,0.1-0.1,0.1-0.1h1.3l0.4-0.4c0,0,0.1,0,0.2,0l0.5,0.3l1.1-0.6 c0,0,0.1,0,0.1,0v0l0.9,0.6h0.5l0.7-0.3c0,0,0.1,0,0.1,0l0,0l0.5,0.3l0.6-0.3c0,0,0.1,0,0.1,0l0.6,0.2l0.5-0.3c0,0,0.1,0,0.1,0 l0.7,0.3h0.5l0.9-0.6c0,0,0.1,0,0.1,0l1.1,0.6l0.5-0.3c0,0,0.1,0,0.1,0l0.4,0.4h0.7l0.2-0.3c0,0,0.1,0,0.1,0v0l1,0.3l0.4-0.3 c0,0,0.1,0,0.2,0l0.5,0.3l1.1-0.6c0,0,0.1,0,0.1,0l0,0l0.9,0.6h0.5l0.7-0.3c0,0,0.1,0,0.1,0l0.5,0.3l0.6-0.3c0,0,0.1,0,0.1,0h0 l0.6,0.3l0.5-0.3c0,0,0.1,0,0.1,0l0.7,0.3h0.5l0.9-0.6c0,0,0.1,0,0.1,0l1.1,0.6l0.5-0.3c0,0,0.1,0,0.1,0l0.4,0.4h1.3 c0.1,0,0.1,0,0.1,0.1c0,0.1-0.1,0.1-0.1,0.1h-1.3v0c0,0-0.1,0-0.1,0l-0.3-0.3l-0.4,0.3c0,0-0.1,0-0.1,0l-1.1-0.6l-0.9,0.6 c0,0,0,0-0.1,0h-0.5v0c0,0,0,0,0,0L105,72l-0.5,0.3c0,0-0.1,0-0.1,0l-0.6-0.3l-0.6,0.3c0,0-0.1,0-0.1,0l-0.5-0.3l-0.6,0.3 c0,0,0,0-0.1,0h-0.5v0c0,0,0,0-0.1,0l-0.9-0.6l-1.1,0.6l0,0c0,0-0.1,0-0.1,0L98.7,72l-0.3,0.3c0,0-0.1,0-0.1,0l-1-0.3l-0.2,0.2 c0,0-0.1,0-0.1,0h-0.8v0c0,0-0.1,0-0.1,0L95.8,72l-0.4,0.3c0,0-0.1,0-0.1,0l-1.1-0.6l-0.9,0.6c0,0,0,0-0.1,0h-0.5v0c0,0,0,0,0,0 L92,72l-0.5,0.3l0,0c0,0-0.1,0-0.1,0l-0.6-0.3l-0.6,0.3c0,0-0.1,0-0.1,0L89.5,72l-0.6,0.3c0,0,0,0-0.1,0h-0.5v0c0,0,0,0-0.1,0 l-0.9-0.6l-1.1,0.6v0c0,0-0.1,0-0.1,0L85.7,72l-0.3,0.3c0,0-0.1,0-0.1,0H83.9z" class="st7"/><path d="M104.4,73.7L104.4,73.7 M83.9,74.3c-0.1,0-0.1-0.1-0.1-0.1c0-0.1,0.1-0.1,0.1-0.1h1l0.3-0.3c0,0,0.1-0.1,0.2,0 l0,0l0.4,0.3l0.9-0.6c0,0,0.1,0,0.1,0l0,0l0.7,0.6h0.4l0.6-0.3c0,0,0.1,0,0.1,0l0.4,0.3l0.5-0.2c0,0,0.1,0,0.1,0l0.5,0.2l0.4-0.3 c0,0,0.1,0,0.1,0l0.6,0.3h0.4l0.7-0.6c0,0,0.1,0,0.1,0l0.9,0.6l0.4-0.3c0,0,0.1,0,0.2,0l0,0l0.3,0.3h0.5l0.2-0.3c0,0,0.1-0.1,0.1,0 l0.8,0.3l0.3-0.3c0,0,0.1-0.1,0.2,0l0,0h0l0.4,0.3l0.9-0.6c0,0,0.1,0,0.1,0l0,0l0.7,0.6h0.4l0.6-0.3c0,0,0.1,0,0.1,0l0.4,0.3 l0.5-0.2c0,0,0.1,0,0.1,0l0.5,0.2l0.4-0.3c0,0,0.1,0,0.1,0l0.6,0.3h0.4l0.7-0.6c0,0,0.1,0,0.1,0l0.9,0.6l0.4-0.3c0,0,0.1,0,0.2,0 l0,0l0.3,0.3l0.6-0.3c0,0,0.1,0,0.1,0l0.2,0.2l1.1,0.1l0.3-0.3c0,0,0.1-0.1,0.2,0l0,0l0.4,0.3l0.9-0.6c0,0,0.1,0,0.1,0l0,0l0.7,0.6 h0.4l0,0l1.2,0c0.1,0,0.1,0,0.1,0.1c0,0.1,0,0.1-0.1,0.1l-1.2,0l0,0h-0.4c0,0-0.1,0-0.1,0l-0.7-0.6l-0.9,0.6c0,0-0.1,0-0.1,0 l-0.3-0.3l-0.3,0.3c0,0-0.1,0-0.1,0l-1.1-0.1v0c0,0,0,0-0.1,0l-0.2-0.2l-0.7,0.3c0,0-0.1,0-0.1,0l-0.3-0.3l-0.3,0.3h0 c0,0-0.1,0-0.1,0l-0.9-0.6l-0.7,0.6c0,0,0,0-0.1,0h-0.4v0c0,0,0,0-0.1,0l-0.5-0.3l-0.4,0.3c0,0-0.1,0-0.1,0l-0.5-0.2l-0.5,0.2 c0,0-0.1,0-0.1,0L99.1,74l-0.5,0.3c0,0,0,0-0.1,0h-0.4c0,0-0.1,0-0.1,0l-0.7-0.6l-0.9,0.6c0,0-0.1,0-0.1,0L96,74l-0.2,0.3 c0,0-0.1,0.1-0.1,0L94.9,74l-0.2,0.2c0,0-0.1,0.1-0.1,0.1H94v0c0,0-0.1,0-0.1,0L93.6,74l-0.3,0.3h0c0,0-0.1,0-0.1,0l-0.9-0.6 l-0.7,0.6c0,0,0,0-0.1,0h-0.4v0c0,0,0,0-0.1,0L90.5,74l-0.4,0.3c0,0-0.1,0-0.1,0l-0.5-0.2L89,74.3c0,0-0.1,0-0.1,0L88.5,74L88,74.3 c0,0,0,0-0.1,0h-0.4c0,0-0.1,0-0.1,0l-0.7-0.6l-0.9,0.6c0,0-0.1,0-0.1,0L85.4,74l-0.3,0.3c0,0-0.1,0-0.1,0H83.9z" class="st7"/><path d="M83.9,76.3c-0.1,0-0.1,0-0.1-0.1c0-0.1,0.1-0.1,0.1-0.1h1.3l0.4-0.4c0,0,0.1,0,0.2,0l0.5,0.3l1.1-0.6 c0,0,0.1,0,0.1,0l0.9,0.6h0.5l0.7-0.3c0,0,0.1,0,0.1,0h0l0.5,0.3l0.6-0.3c0,0,0.1,0,0.1,0l0.6,0.2l0.5-0.3c0,0,0.1,0,0.1,0l0.7,0.3 h0.5l0.9-0.6c0,0,0.1,0,0.1,0l1.1,0.6l0.5-0.3c0,0,0.1,0,0.1,0l0.4,0.4h0.7l0.2-0.3c0,0,0.1,0,0.1,0v0l1,0.3l0.4-0.3 c0,0,0.1,0,0.2,0l0.5,0.3l1.1-0.6c0,0,0.1,0,0.1,0h0l0.9,0.6h0.5l0.7-0.3c0,0,0.1,0,0.1,0v0l0.5,0.3l0.6-0.3c0,0,0.1,0,0.1,0l0,0 l0.6,0.3l0.5-0.3c0,0,0.1,0,0.1,0l0.7,0.3h0.5l0.9-0.6c0,0,0.1,0,0.1,0l1.1,0.6l0.5-0.3c0,0,0.1,0,0.1,0l0.4,0.4h1.3 c0.1,0,0.1,0.1,0.1,0.1c0,0.1-0.1,0.1-0.1,0.1h-1.3v0c0,0-0.1,0-0.1,0l-0.3-0.3l-0.4,0.3c0,0-0.1,0-0.1,0l-1.1-0.6l-0.9,0.6 c0,0,0,0-0.1,0h-0.5v0c0,0,0,0,0,0L105,76l-0.5,0.3c0,0-0.1,0-0.1,0l-0.6-0.3l-0.6,0.3c0,0-0.1,0-0.1,0l-0.5-0.3l-0.6,0.3 c0,0,0,0-0.1,0h-0.5c0,0,0,0-0.1,0l-0.9-0.6l-1.1,0.6l0,0c0,0-0.1,0-0.1,0l-0.4-0.3l-0.3,0.3c0,0-0.1,0-0.1,0l-1-0.3l-0.2,0.2 c0,0-0.1,0-0.1,0h-0.8v0c0,0-0.1,0-0.1,0l-0.3-0.3l-0.4,0.3c0,0-0.1,0-0.1,0l-1.1-0.6l-0.9,0.6c0,0,0,0-0.1,0h-0.5v0c0,0,0,0,0,0 L92,76l-0.5,0.3l0,0c0,0-0.1,0-0.1,0L90.7,76l-0.6,0.3c0,0-0.1,0-0.1,0L89.5,76l-0.6,0.3c0,0,0,0-0.1,0h-0.5c0,0,0,0-0.1,0 l-0.9-0.6l-1.1,0.6v0c0,0-0.1,0-0.1,0l-0.4-0.3l-0.3,0.3c0,0-0.1,0-0.1,0H83.9z" class="st7"/><path d="M104.4,77.7L104.4,77.7 M83.9,78.3c-0.1,0-0.1-0.1-0.1-0.1c0-0.1,0.1-0.1,0.1-0.1h1l0.3-0.4c0,0,0.1-0.1,0.2,0 l0,0l0.4,0.3l0.9-0.6c0,0,0.1,0,0.1,0l0,0l0.7,0.6h0.4l0.6-0.3c0,0,0.1,0,0.1,0l0.4,0.3l0.5-0.2c0,0,0.1,0,0.1,0L90,78l0.4-0.3 c0,0,0.1,0,0.1,0l0.6,0.3h0.4l0.7-0.6c0,0,0.1,0,0.1,0l0.9,0.6l0.4-0.3c0,0,0.1,0,0.2,0l0,0L94,78h0.5l0.2-0.3c0,0,0.1-0.1,0.1,0v0 l0.8,0.3l0.3-0.3c0,0,0.1-0.1,0.2,0l0,0l0,0l0.4,0.3l0.9-0.6c0,0,0.1,0,0.1,0l0,0l0.7,0.6h0.4l0.6-0.3c0,0,0.1,0,0.1,0l0.4,0.3 l0.5-0.2c0,0,0.1,0,0.1,0l0.5,0.2l0.4-0.3c0,0,0.1,0,0.1,0l0.6,0.3h0.4l0.7-0.6c0,0,0.1,0,0.1,0l0.9,0.6l0.4-0.3c0,0,0.1,0,0.2,0 l0,0l0.3,0.3l0.6-0.3c0,0,0.1,0,0.1,0l0.2,0.2l1.1,0.1l0.3-0.3c0,0,0.1-0.1,0.2,0l0,0l0.4,0.3l0.9-0.6c0,0,0.1,0,0.1,0l0,0l0.7,0.6 h0.4l0,0l1.2,0c0.1,0,0.1,0,0.1,0.1c0,0.1,0,0.1-0.1,0.1l-1.2,0l0,0h-0.4v0c0,0-0.1,0-0.1,0l-0.7-0.6l-0.9,0.6c0,0-0.1,0-0.1,0 l-0.3-0.3l-0.3,0.3c0,0-0.1,0-0.1,0l-1.1-0.1v0c0,0,0,0-0.1,0l-0.2-0.2l-0.7,0.3c0,0-0.1,0-0.1,0l-0.3-0.3l-0.3,0.3l0,0 c0,0-0.1,0-0.1,0l-0.9-0.6l-0.7,0.6c0,0,0,0-0.1,0h-0.4v0c0,0,0,0-0.1,0l-0.5-0.3l-0.4,0.3c0,0-0.1,0-0.1,0l-0.5-0.2l-0.5,0.2 c0,0-0.1,0-0.1,0L99.1,78l-0.5,0.3c0,0,0,0-0.1,0h-0.4v0c0,0-0.1,0-0.1,0l-0.7-0.6l-0.9,0.6c0,0-0.1,0-0.1,0L96,77.9l-0.2,0.3 c0,0-0.1,0.1-0.1,0L94.9,78l-0.2,0.2c0,0-0.1,0.1-0.1,0.1H94v0c0,0-0.1,0-0.1,0l-0.3-0.3l-0.3,0.3l0,0c0,0-0.1,0-0.1,0l-0.9-0.6 l-0.7,0.6c0,0,0,0-0.1,0h-0.4v0c0,0,0,0-0.1,0L90.5,78l-0.4,0.3c0,0-0.1,0-0.1,0L89.5,78L89,78.3c0,0-0.1,0-0.1,0L88.5,78L88,78.2 c0,0,0,0-0.1,0h-0.4v0c0,0-0.1,0-0.1,0l-0.7-0.6l-0.9,0.6c0,0-0.1,0-0.1,0l-0.3-0.3l-0.3,0.3c0,0-0.1,0-0.1,0H83.9z" class="st7"/><path d="M106.2,81.2c0,0,0,0.1,0,0.1 M105.3,81c0,0,0,0.1,0,0.1 M102.5,81.7c0,0-0.1,0-0.2,0c0,0,0-0.1,0-0.2l0.4-0.3 c0,0,0.1,0,0.1,0h0l0.2,0.3l0.3-0.2c0,0,0.1,0,0.1,0v0l0.3,0.2l0.2-0.3c0,0,0.1,0,0.2,0l0,0l0.3,0.3h0.2l0.5-0.6c0,0,0.1-0.1,0.2,0 l0,0l0,0l0.5,0.5l0.2-0.3c0,0,0.1-0.1,0.2,0c0,0,0,0,0,0l0.2,0.3l0.4-0.2c0,0,0.1,0,0.1,0l0.1,0.2l0.6,0.1l0.2-0.3 c0-0.1,0.1-0.1,0.1,0c0,0,0,0,0,0l0,0l0.2,0.3l0.5-0.5c0,0,0.1,0,0.2,0l0,0l0.5,0.6h0.2h0l0.8,0c0.1,0,0.1,0,0.1,0.1 c0,0.1,0,0.1-0.1,0.1l-0.8,0l0,0h-0.3v0c0,0-0.1,0-0.1,0l-0.4-0.5l-0.5,0.5c0,0,0,0,0,0c0,0-0.1,0-0.2,0l-0.2-0.2l-0.1,0.2 c0,0-0.1,0.1-0.1,0.1l-0.7-0.1v0c0,0-0.1,0-0.1,0l-0.1-0.1l-0.4,0.2l0,0c-0.1,0-0.1,0-0.1,0l-0.1-0.2l-0.2,0.2l0,0l0,0 c0,0-0.1,0-0.2,0l-0.5-0.5l-0.4,0.5c0,0-0.1,0-0.1,0h-0.3v0c0,0,0,0-0.1,0l-0.3-0.2l-0.2,0.3c0,0-0.1,0.1-0.1,0l-0.3-0.2l-0.3,0.2 l0,0c0,0-0.1,0-0.1,0l-0.2-0.3L102.5,81.7z" class="st7"/><path d="M107.3,45.8c0,0-2,1-13.1,1l-9.4-0.1v-0.9v-0.9l9.4-0.1C105.4,44.8,107.3,45.8,107.3,45.8" class="st2"/><path d="M107.3,45.8c0,0-0.3,0.1-1.1,0.3v-0.6C107.1,45.7,107.3,45.8,107.3,45.8" class="st9"/><rect width="1.6" height="1.6" x="83.2" y="45" class="st6"/><rect width="7.2" height=".5" x="84.8" y="45.4" class="st9"/><rect width="12.5" height="12.4" x="87.2" y="29.1" class="st10"/><rect width="4.5" height="1.3" x="91.2" y="28.5" class="st8" transform="matrix(0.9957 -9.304428e-02 9.304428e-02 0.9957 -2.3066 8.8175)"/><path d="M88.3,37.3c0.2-0.6,0.3-0.6,0.4-1.2c0.2-0.6,0.2-0.8,0.3-1.4c0-0.1,0.1-0.6,0.3-0.6c0.4,1.2,0.2,1.8,0.7,2.9 l0,0.2c0.1,0.3,0.1,0.1,0.1,0.3c0.3,0,1.3-2.6,1.3-3c0.7,3.6,0.6,0.5,1,0.6c0.1,0,0.6,0.9,1-0.4c0.3-0.9-0.4-1.2,0.3-0.9 c0.2,0.1,1.4,0.1,1.6,0.1c0,0,1.1-0.3,1.1-0.6" class="st11"/><path d="M73.9,106.4l-3.4-6.7c0,0-0.4-8-1.3-9.9l-0.2-5.3c0,0-0.1-0.8-0.6-1.4c-0.5-0.6-2.1-2.3-2.1-2.3s-1,0-0.9,1 l1.4,2.1l0.1,3.3c0,0-0.4,0.9-0.9-0.1l-0.6-3.9c0,0-0.2-1.1-1.2-2c-1-0.8-2.4-1.6-2.4-1.6S60,79,60.1,80.1c0,0-0.1,0.3,0.9,1.2 c1,0.9,1.3,1.3,1.3,1.3s0.6,2.6,1,3.4c0.4,0.8-0.2,1.4-0.4,0.9c-0.2-0.5-1.6-4-1.6-4s-0.3-1-1.2-1.7c-0.9-0.7-1.5-1.1-1.5-1.1 s-1.6-0.6-1.4,0.9l1.5,2.7l1.2,3.2c0,0-0.1,1.4-1.1,0.7l-1.7-2.8c0,0-0.9-2.3-1-2.8c-0.1-0.5-1.7-1.2-1.8,0.4 c-0.1,1.6,0.7,5.5,1.8,7.3c0,0-0.1,2.3,0.2,3.3c0.3,1,0.3,1.7,0,1.5c-0.2-0.2-1.4-2.1-1.5-3.2c-0.1-1.1-0.6-2.9-2-2.8 s-0.8,1-1.1,2.7c-0.3,1.7-0.1,3.3,0.5,4c0.5,0.7,1.3,2.8,1.3,3.2c0,0.4,4.5,4,4.5,4s3.7,1.6,4.7,3.7c1,2.1,2.4,5.9,2.4,5.9L68,120 h14.6L73.9,106.4z" class="st12"/><path d="M70.4,106.4L67,99.7c0,0-0.4-8-1.3-9.9l-0.2-5.3c0,0-0.1-0.8-0.6-1.4c-0.5-0.6-2.1-2.3-2.1-2.3s-1,0-0.9,1 l1.4,2.1l0.1,3.3c0,0-0.4,0.9-0.9-0.1l-0.6-3.9c0,0-0.2-1.1-1.2-2c-1-0.8-2.4-1.6-2.4-1.6s-1.6-0.6-1.5,0.6c0,0-0.1,0.3,0.9,1.2 c1,0.9,1.3,1.3,1.3,1.3s0.6,2.6,1,3.4c0.4,0.8-0.2,1.4-0.4,0.9c-0.2-0.5-1.6-4-1.6-4s-0.3-1-1.2-1.7c-0.9-0.7-1.5-1.1-1.5-1.1 s-1.6-0.6-1.4,0.9l1.5,2.7l1.2,3.2c0,0-0.1,1.4-1.1,0.7l-1.7-2.8c0,0-0.9-2.3-1-2.8c-0.1-0.5-1.7-1.2-1.8,0.4 c-0.1,1.6,0.7,5.5,1.8,7.3c0,0-0.1,2.3,0.2,3.3c0.3,1,0.3,1.7,0,1.5c-0.2-0.2-1.4-2.1-1.5-3.2c-0.1-1.1-0.6-2.9-2-2.8 c-1.4,0.1-0.8,1-1.1,2.7c-0.3,1.7-0.1,3.3,0.5,4c0.5,0.7,1.3,2.8,1.3,3.2c0,0.4,4.5,4,4.5,4s3.7,1.6,4.7,3.7c1,2.1,2.4,5.9,2.4,5.9 l2.7,8.2h14.6L70.4,106.4z" class="st13"/><path d="M19.2,105.8l3.8-6.5c0,0,0.8-8,1.7-9.8l0.5-5.3c0,0,0.1-0.8,0.7-1.4c0.6-0.6,2.2-2.2,2.2-2.2s1,0,0.9,1 l-1.5,2l-0.2,3.3c0,0,0.3,1,0.9,0l0.8-3.9c0,0,0.2-1.1,1.2-1.9c1-0.8,2.5-1.5,2.5-1.5s1.6-0.5,1.5,0.7c0,0,0.1,0.3-1,1.2 c-1,0.9-1.4,1.2-1.4,1.2s-0.8,2.6-1.2,3.4c-0.4,0.8,0.1,1.4,0.4,0.9c0.2-0.5,1.8-4,1.8-4s0.3-1,1.3-1.7c0.9-0.7,1.6-1,1.6-1 s1.6-0.5,1.4,1l-1.7,2.6l-1.3,3.1c0,0,0,1.4,1.1,0.7l1.8-2.7c0,0,1-2.3,1.1-2.7c0.1-0.5,1.7-1.1,1.7,0.5c0,1.6-1,5.4-2.2,7.3 c0,0,0,2.3-0.4,3.3c-0.3,0.9-0.4,1.7-0.1,1.5c0.2-0.2,1.5-2,1.7-3.1c0.1-1.1,0.7-2.8,2.1-2.7c1.4,0.1,0.8,1,0.9,2.8 c0.2,1.7-0.1,3.3-0.7,4c-0.6,0.7-1.5,2.7-1.5,3.1c0,0.4-4.7,3.8-4.7,3.8s-3.8,1.4-4.9,3.5c-1.1,2-2.7,5.8-2.7,5.8l-3.1,8.4H8.2 L19.2,105.8z" class="st12"/><path d="M15,105.8l3.8-6.5c0,0,0.8-8,1.7-9.8l0.5-5.3c0,0,0.1-0.8,0.7-1.4c0.6-0.6,2.2-2.2,2.2-2.2s1,0,0.9,1l-1.5,2 L23,86.9c0,0,0.3,1,0.9,0l0.8-3.9c0,0,0.2-1.1,1.2-1.9c1-0.8,2.5-1.5,2.5-1.5s1.6-0.5,1.5,0.7c0,0,0.1,0.3-1,1.2 c-1,0.9-1.4,1.2-1.4,1.2s-0.8,2.6-1.2,3.4c-0.4,0.8,0.1,1.4,0.4,0.9c0.2-0.5,1.8-4,1.8-4s0.3-1,1.3-1.7c0.9-0.7,1.6-1,1.6-1 s1.6-0.5,1.4,1l-1.7,2.6l-1.3,3.1c0,0,0,1.4,1.1,0.7l1.8-2.7c0,0,1-2.3,1.1-2.7c0.1-0.5,1.7-1.1,1.7,0.5c0,1.6-1,5.4-2.2,7.3 c0,0,0,2.3-0.4,3.3c-0.3,0.9-0.4,1.7-0.1,1.5c0.2-0.2,1.5-2,1.7-3.1c0.1-1.1,0.7-2.8,2.1-2.7c1.4,0.1,0.8,1,0.9,2.8 c0.2,1.7-0.1,3.3-0.7,4c-0.6,0.7-1.5,2.7-1.5,3.1c0,0.4-4.7,3.8-4.7,3.8s-3.8,1.4-4.9,3.5c-1.1,2-2.7,5.8-2.7,5.8l-3.2,8.4H4 L15,105.8z" class="st13"/><path d="M17.2,103.1c1.8-0.4,3.5,0.7,3.9,2.4c0.4,1.8-0.7,3.5-2.4,3.9c-1.8,0.4-3.5-0.7-3.9-2.4 C14.4,105.3,15.4,103.6,17.2,103.1" class="st14"/><path d="M21.2,106.7c0,0,1.9,1.5,3.5,1.6c0,0-0.2,2.7-1.5,3.4l-4.2-2.2v0C20.3,109,21.1,107.9,21.2,106.7L21.2,106.7z" class="st14"/><path d="M17.4,103.8c1.4-0.3,2.8,0.5,3.1,1.9c0.3,1.4-0.5,2.8-1.9,3.1c-1.4,0.3-2.8-0.5-3.1-1.9 C15.1,105.5,16,104.1,17.4,103.8" class="st1"/><path d="M6,10.5l12.6-1.6c0.5-0.1,1,0.3,1.1,0.8l1.6,12.6c0.1,0.5-0.3,1-0.8,1.1L7.8,25c-0.5,0.1-1-0.3-1.1-0.8 L5.1,11.6C5.1,11.1,5.5,10.6,6,10.5" class="st14"/><rect width="9.9" height="9.9" x="8.2" y="12" class="st15" transform="matrix(0.9918 -0.1279 0.1279 0.9918 -2.0574 1.8269)"/><path d="M12.7,12.9c2.2-0.3,4.3,1.3,4.5,3.5s-1.3,4.3-3.5,4.5c-2.2,0.3-4.3-1.3-4.5-3.5C8.9,15.2,10.5,13.2,12.7,12.9" class="st16"/><path d="M11,19.7c-0.1,0.1-0.6,0.7-0.6,0.8c-0.1,0-0.1,0.1-0.2,0.1" class="st17"/><path d="M10.3,19.2c-0.1,0-0.6,0.1-0.8,0.1" class="st17"/><path d="M9.9,18.2c-0.3-0.1,0,0-0.5-0.2c-0.1,0-0.4-0.1-0.5-0.1c0,0,0,0,0,0l0,0" class="st17"/><path d="M9.4,16.2c-0.1,0-0.6-0.2-0.7-0.2" class="st17"/><path d="M9.7,15.5c0.1-0.5-0.4-0.9-0.4-1" class="st17"/><path d="M10.8,14.4c0-0.1-0.1-0.9-0.2-1c0-0.1,0-0.1-0.1-0.2" class="st17"/><path d="M12.2,13.8c0-0.3,0.6-1.1,0.6-1.2c0.1-0.1,0,0,0.1-0.1" class="st17"/><path d="M13.8,13.3c0.4-0.4,0.3-0.4,0.8-0.7c0.1,0,0,0,0.1-0.1" class="st17"/><path d="M15.2,13.9c0.2,0,1.2-0.1,1.3-0.2" class="st17"/><path d="M16.4,15.2c0,0.1,0.1,0.1,0.1,0.1c0.1,0.1,0.7,0.4,0.8,0.4" class="st17"/><path d="M17,16.8c0,0.2,0.2,0.2,0.3,0.4c0,0,0.2,0.3,0.2,0.2l0,0" class="st17"/><path d="M16.5,18.3c0.1,0,0.8,0.2,0.8,0.3" class="st17"/><path d="M16.1,19.1c0,0,0.2,0.1,0.2,0.1c0.2,0.1,0.4,0.2,0.6,0.4" class="st17"/><path d="M15.4,19.8c0,0.2,0.3,0.5,0.3,0.6c0,0,0.1,0.1,0.1,0.1" class="st17"/><path d="M14.6,20.1c0,0.2,0,0.6,0.1,0.7c0,0,0,0.1,0,0.1" class="st17"/><path d="M13.5,20.5c0,0.1-0.1,0.7-0.2,0.8c0,0.1,0,0-0.1,0" class="st17"/><path d="M12.3,20.4c-0.2,0-0.2,0.2-0.4,0.3c0,0-0.4,0.5-0.4,0.5" class="st17"/><path d="M11.8,14c-0.2-0.3-0.2-1.2-0.2-1.3c0-0.1,0,0,0-0.1" class="st17"/><path d="M103.5,99.1c3.1,3,3.6,7.8,1.1,11.4l-1.5-1.2c1.8-2.7,1.4-6.4-0.9-8.7L103.5,99.1z M91,99.3 c3-3.1,7.8-3.6,11.4-1.1l-1.2,1.5c-2.7-1.8-6.4-1.4-8.7,0.9L91,99.3z M91.2,111.8c-3.1-3-3.6-7.8-1.1-11.4l1.5,1.2 c-1.8,2.7-1.4,6.4,0.9,8.7L91.2,111.8z M103.7,111.6c-3,3.1-7.8,3.6-11.4,1.1l1.2-1.5c2.7,1.8,6.4,1.4,8.7-0.9L103.7,111.6z" class="st6"/><path d="M102.9,109.9c-2.5,3-7,3.5-10,1c-3-2.5-3.5-7-1-10c2.5-3,7-3.5,10-1C104.9,102.4,105.4,106.9,102.9,109.9" class="st4"/><rect width="70.1" height="3.2" x="41.8" y="5.6" class="st14"/><path d="M45.5,15.5h30.8v15.1c0,1.6-1.3,2.9-2.9,2.9h-25c-1.6,0-2.9-1.3-2.9-2.9V15.5z" class="st18"/><path d="M45.9,14.8h30.8v15.1c0,1.6-1.3,2.9-2.9,2.9h-25c-1.6,0-2.9-1.3-2.9-2.9V14.8z" class="st3"/><path d="M46.2,14h30.8v15.1c0,1.6-1.3,2.9-2.9,2.9H49c-1.6,0-2.9-1.3-2.9-2.9V14z" class="st18"/><rect width="1.8" height="8.3" x="49.6" y="18.9" class="st14"/><polygon points="101.3 21.9 101.8 21.2 113.7 21.9 114.3 33.6 113.7 34.3 101.3 34.3" class="st19"/><rect width="12.4" height="12.5" x="101.8" y="21.2" class="st10"/><path d="M98.5,105l-7.5,9.2l-1.1-0.9l7.3-9c0,0,0.1,0,0.2,0c0.3-0.1,0.2-0.1,0.1,0.1c0,0.1,0,0.1,0,0.1 c0,0,0.1,0,0.1,0c0,0,0,0,0,0c0,0,0,0.2,0,0.2c0.1,0.1,0.1,0,0.2,0c0.1-0.1,0.1,0.1,0.1,0.1c0.1,0.1,0,0.1,0.2,0 C98.4,104.8,98.5,105,98.5,105" class="st8"/><path d="M93,111.8l-2,2.4c-0.3,0.2-1.1-0.3-1.1-0.9l2-2.4L93,111.8z" class="st20"/><path d="M98.7,104.9c0,0-0.3,0.2-0.4,0.2c-0.1,0-0.1-0.2-0.2-0.1c-0.1,0.1-0.1,0.1-0.1,0c-0.1,0,0-0.2-0.1-0.1 c-0.1,0.1-0.1,0.1-0.1,0c0,0,0-0.2,0-0.2c0,0,0,0,0,0c0,0-0.1,0-0.1,0c0,0-0.1,0,0-0.1c0.1-0.2,0.1-0.2-0.1-0.1 c-0.2,0.1-0.2,0.1-0.2-0.1c0-0.1,0.2-0.2,0.2-0.3c0,0,0.1-0.1,0.1-0.1c0,0,0.1-0.2,0.2-0.1c0,0.1,0,0.1,0.1,0.2 c0.1,0,0.2-0.1,0.3-0.1c0.1,0,0.2,0.1,0.2,0.2c0,0.1-0.1,0.3,0,0.4c0.1,0,0.1,0,0.2,0.1c0.1,0.1,0.1,0.1,0.1,0.2 C98.6,104.7,98.7,104.8,98.7,104.9C98.7,104.8,98.7,104.8,98.7,104.9L98.7,104.9z" class="st21"/><path d="M25.2,12.3l12.5,1.9c0.5,0.1,0.9,0.6,0.8,1.1l-1.9,12.5c-0.1,0.5-0.6,0.9-1.1,0.8l-12.5-1.9 c-0.5-0.1-0.9-0.6-0.8-1.1l1.9-12.5C24.2,12.6,24.6,12.2,25.2,12.3" class="st14"/><rect width="9.9" height="9.9" x="25.4" y="15.5" class="st15" transform="matrix(0.1535 -0.9881 0.9881 0.1535 5.4251 47.277)"/><path d="M30.9,16.5c1.4,0.2,2.3,2.2,2,4.4c-0.3,2.2-1.8,3.8-3.2,3.6c-1.4-0.2-2.3-2.2-2-4.4 C28,17.9,29.5,16.2,30.9,16.5" class="st16"/><path d="M28.3,22.6c-0.1,0.1-0.5,0.6-0.6,0.6c0,0-0.1,0-0.1,0.1" class="st17"/><path d="M28,21.8c-0.1,0-0.4,0.1-0.6,0.1" class="st17"/><path d="M28,20.2c-0.2,0.1-0.1,0-0.4,0.1c-0.1,0-0.3,0.1-0.3,0.1c0,0,0,0,0,0l0,0" class="st17"/><path d="M28.1,18.9c-0.1,0.1-0.5,0-0.5,0" class="st17"/><path d="M28.9,18.1c-0.2-0.5-0.7-0.6-0.8-0.8" class="st17"/><path d="M29.6,17.8c-0.1-0.1-0.4-0.8-0.5-0.8c-0.1-0.1-0.1-0.1-0.1-0.2" class="st17"/><path d="M30.4,17.2c0.1-0.3,0.6-0.9,0.6-1c0.1-0.1,0,0,0.1-0.1" class="st17"/><path d="M31.5,17.1c0.3-0.3,0.3-0.3,0.7-0.5c0.1,0,0,0,0.1-0.1" class="st17"/><path d="M32.2,18c0.1,0.1,0.8,0.2,0.8,0.1" class="st17"/><path d="M32.7,19.5c0,0.1,0,0.1,0.1,0.1c0,0.1,0.3,0.5,0.4,0.5" class="st17"/><path d="M32.7,21.2c0,0.2,0.1,0.3,0.1,0.4c0,0.1,0.1,0.3,0.1,0.3l0,0" class="st17"/><path d="M32,22.5c0.1,0.1,0.4,0.4,0.4,0.5" class="st17"/><path d="M31.6,23.2c0,0,0.1,0.2,0.1,0.2c0.1,0.2,0.2,0.3,0.3,0.5" class="st17"/><path d="M31,23.8c0,0.2,0.1,0.6,0.1,0.7c0,0,0,0.1,0,0.1" class="st17"/><path d="M30.4,23.9c0,0.2-0.1,0.6-0.1,0.7c0,0,0,0.1,0,0.1" class="st17"/><path d="M29.6,24c0,0.1-0.3,0.7-0.3,0.7c0,0.1,0,0,0,0" class="st17"/><path d="M28.9,23.7c-0.1,0-0.2,0.1-0.3,0.2c0,0-0.3,0.4-0.3,0.4" class="st17"/><path d="M30.1,17.3c-0.1-0.3,0.2-1.2,0.2-1.3c0.1-0.1,0,0,0-0.1" class="st17"/></g></svg>