<?xml version="1.0" encoding="utf-8"?>
<!-- Generator: Adobe Illustrator 21.0.0, SVG Export Plug-In . SVG Version: 6.00 Build 0)  -->
<svg version="1.1" id="Layer_1" xmlns="http://www.w3.org/2000/svg" xmlns:xlink="http://www.w3.org/1999/xlink" x="0px" y="0px"
	 viewBox="0 0 120 120" style="enable-background:new 0 0 120 120;" xml:space="preserve">
<style type="text/css">
	.st0{clip-path:url(#SVGID_2_);fill-rule:evenodd;clip-rule:evenodd;fill:#FCFFE8;}
	.st1{opacity:0.27;clip-path:url(#SVGID_2_);fill-rule:evenodd;clip-rule:evenodd;fill:#635D54;}
	.st2{clip-path:url(#SVGID_2_);fill-rule:evenodd;clip-rule:evenodd;fill:#E09F3D;}
	.st3{clip-path:url(#SVGID_2_);fill-rule:evenodd;clip-rule:evenodd;fill:#E6E6E6;}
	.st4{clip-path:url(#SVGID_2_);fill-rule:evenodd;clip-rule:evenodd;fill:#CCCCCC;}
	.st5{clip-path:url(#SVGID_2_);fill-rule:evenodd;clip-rule:evenodd;fill:#4D4D4D;}
	.st6{clip-path:url(#SVGID_2_);fill-rule:evenodd;clip-rule:evenodd;fill:#3AA89D;}
	.st7{clip-path:url(#SVGID_2_);fill-rule:evenodd;clip-rule:evenodd;fill:#282F39;}
	.st8{clip-path:url(#SVGID_2_);fill-rule:evenodd;clip-rule:evenodd;fill:#CCFFCC;}
	.st9{clip-path:url(#SVGID_2_);fill-rule:evenodd;clip-rule:evenodd;fill:#64BFB6;}
	.st10{clip-path:url(#SVGID_2_);fill-rule:evenodd;clip-rule:evenodd;fill:#FFFFCC;}
	.st11{clip-path:url(#SVGID_2_);}
	.st12{clip-path:url(#SVGID_4_);fill:none;stroke:#373435;stroke-width:0.2398;stroke-miterlimit:2.6131;}
	.st13{opacity:0.15;clip-path:url(#SVGID_2_);fill-rule:evenodd;clip-rule:evenodd;fill:#635D54;}
	.st14{clip-path:url(#SVGID_2_);fill-rule:evenodd;clip-rule:evenodd;fill:#F2BE96;}
	.st15{clip-path:url(#SVGID_2_);fill-rule:evenodd;clip-rule:evenodd;fill:#A37556;}
	.st16{clip-path:url(#SVGID_2_);fill-rule:evenodd;clip-rule:evenodd;fill:#BF825A;}
</style>
<g>
	<defs>
		<rect id="SVGID_1_" width="120" height="120"/>
	</defs>
	<clipPath id="SVGID_2_">
		<use xlink:href="#SVGID_1_"  style="overflow:visible;"/>
	</clipPath>
	<rect y="0" class="st0" width="120" height="120"/>
	<path class="st1" d="M43.9,64.9h47.6v18.7c0,6.5-5.3,11.7-11.7,11.7H55.7c-6.5,0-11.7-5.3-11.7-11.7V64.9z"/>
	<path class="st1" d="M43.9,64.9h47.6v-9.4c0-3.2-2.6-5.9-5.9-5.9H49.8c-3.2,0-5.9,2.6-5.9,5.9V64.9z"/>
	<path class="st2" d="M13.3,28.4L24.9,23L34,42.5l-11.6,5.4c-1.1,0.5-2.4,0-3-1.1l-7.2-15.4C11.7,30.3,12.2,29,13.3,28.4"/>
	<path class="st3" d="M13.5,28l11.6-5.4L34.2,42l-11.6,5.4c-1.1,0.5-2.4,0-3-1.1L12.4,31C11.9,29.9,12.4,28.5,13.5,28"/>
	<path class="st3" d="M100,73.8c1.9-3.1,6-4,9.1-2.1c3.1,1.9,4,6,2.1,9.1c-2,3.1-6,4-9.1,2.1C99,80.9,98.1,76.9,100,73.8"/>
	
		<rect x="15.9" y="53.9" transform="matrix(0.3294 -0.9442 0.9442 0.3294 -40.8718 73.5956)" class="st4" width="30.9" height="23.3"/>
	
		<rect x="4.1" y="61.5" transform="matrix(0.9869 -0.1614 0.1614 0.9869 -12.2148 3.5512)" class="st3" width="23.3" height="30.9"/>
	<rect x="45" y="39" class="st5" width="42.5" height="4.9"/>
	<rect x="48.2" y="43.8" class="st5" width="36.1" height="4.9"/>
	<rect x="52.8" y="17.9" class="st3" width="27.3" height="30.9"/>
	<path class="st6" d="M42.4,64H90v18.7c0,6.5-5.3,11.7-11.7,11.7H54.2c-6.5,0-11.7-5.3-11.7-11.7V64z"/>
	<path class="st7" d="M43.8,70h44.9v12.1c0,4.2-3.4,7.6-7.6,7.6H51.4c-4.2,0-7.6-3.4-7.6-7.6V70z"/>
	<path class="st8" d="M45.8,71.5h2.3c0.1,0,0.2,0.1,0.2,0.2V74c0,0.1-0.1,0.2-0.2,0.2h-2.3c-0.1,0-0.2-0.1-0.2-0.2v-2.2
		C45.5,71.6,45.7,71.5,45.8,71.5"/>
	<path class="st8" d="M49.4,71.5h2.3c0.1,0,0.2,0.1,0.2,0.2V74c0,0.1-0.1,0.2-0.2,0.2h-2.3c-0.1,0-0.2-0.1-0.2-0.2v-2.2
		C49.1,71.6,49.2,71.5,49.4,71.5"/>
	<path class="st8" d="M53,71.5h2.3c0.1,0,0.2,0.1,0.2,0.2V74c0,0.1-0.1,0.2-0.2,0.2H53c-0.1,0-0.2-0.1-0.2-0.2v-2.2
		C52.7,71.6,52.8,71.5,53,71.5"/>
	<path class="st8" d="M56.5,71.5h2.3c0.1,0,0.2,0.1,0.2,0.2V74c0,0.1-0.1,0.2-0.2,0.2h-2.3c-0.1,0-0.2-0.1-0.2-0.2v-2.2
		C56.3,71.6,56.4,71.5,56.5,71.5"/>
	<path class="st8" d="M60.1,71.5h2.3c0.1,0,0.2,0.1,0.2,0.2V74c0,0.1-0.1,0.2-0.2,0.2h-2.3c-0.1,0-0.2-0.1-0.2-0.2v-2.2
		C59.9,71.6,60,71.5,60.1,71.5"/>
	<path class="st8" d="M63.7,71.5H66c0.1,0,0.2,0.1,0.2,0.2V74c0,0.1-0.1,0.2-0.2,0.2h-2.3c-0.1,0-0.2-0.1-0.2-0.2v-2.2
		C63.4,71.6,63.6,71.5,63.7,71.5"/>
	<path class="st8" d="M67.3,71.5h2.3c0.1,0,0.2,0.1,0.2,0.2V74c0,0.1-0.1,0.2-0.2,0.2h-2.3c-0.1,0-0.2-0.1-0.2-0.2v-2.2
		C67,71.6,67.1,71.5,67.3,71.5"/>
	<path class="st8" d="M70.9,71.5h2.3c0.1,0,0.2,0.1,0.2,0.2V74c0,0.1-0.1,0.2-0.2,0.2h-2.3c-0.1,0-0.2-0.1-0.2-0.2v-2.2
		C70.6,71.6,70.7,71.5,70.9,71.5"/>
	<path class="st8" d="M74.4,71.5h2.3c0.1,0,0.2,0.1,0.2,0.2V74c0,0.1-0.1,0.2-0.2,0.2h-2.3c-0.1,0-0.2-0.1-0.2-0.2v-2.2
		C74.2,71.6,74.3,71.5,74.4,71.5"/>
	<path class="st8" d="M78,71.5h2.3c0.1,0,0.2,0.1,0.2,0.2V74c0,0.1-0.1,0.2-0.2,0.2H78c-0.1,0-0.2-0.1-0.2-0.2v-2.2
		C77.8,71.6,77.9,71.5,78,71.5"/>
	<path class="st8" d="M81.6,71.5h2.3c0.1,0,0.2,0.1,0.2,0.2V74c0,0.1-0.1,0.2-0.2,0.2h-2.3c-0.1,0-0.2-0.1-0.2-0.2v-2.2
		C81.4,71.6,81.5,71.5,81.6,71.5"/>
	<path class="st8" d="M85.2,71.5h2.3c0.1,0,0.2,0.1,0.2,0.2V74c0,0.1-0.1,0.2-0.2,0.2h-2.3c-0.1,0-0.2-0.1-0.2-0.2v-2.2
		C84.9,71.6,85,71.5,85.2,71.5"/>
	<path class="st8" d="M46.5,74.9h3c0.1,0,0.2,0.1,0.2,0.2v2c0,0.1-0.1,0.2-0.2,0.2h-3c-0.1,0-0.2-0.1-0.2-0.2v-2
		C46.3,75,46.4,74.9,46.5,74.9"/>
	<path class="st8" d="M50.7,74.9h3c0.1,0,0.2,0.1,0.2,0.2v2c0,0.1-0.1,0.2-0.2,0.2h-3c-0.1,0-0.2-0.1-0.2-0.2v-2
		C50.4,75,50.5,74.9,50.7,74.9"/>
	<path class="st8" d="M54.8,74.9h3c0.1,0,0.2,0.1,0.2,0.2v2c0,0.1-0.1,0.2-0.2,0.2h-3c-0.1,0-0.2-0.1-0.2-0.2v-2
		C54.5,75,54.6,74.9,54.8,74.9"/>
	<path class="st8" d="M58.9,74.9h3c0.1,0,0.2,0.1,0.2,0.2v2c0,0.1-0.1,0.2-0.2,0.2h-3c-0.1,0-0.2-0.1-0.2-0.2v-2
		C58.7,75,58.8,74.9,58.9,74.9"/>
	<path class="st8" d="M63,74.9h3c0.1,0,0.2,0.1,0.2,0.2v2c0,0.1-0.1,0.2-0.2,0.2h-3c-0.1,0-0.2-0.1-0.2-0.2v-2
		C62.8,75,62.9,74.9,63,74.9"/>
	<path class="st8" d="M67.1,74.9h3c0.1,0,0.2,0.1,0.2,0.2v2c0,0.1-0.1,0.2-0.2,0.2h-3c-0.1,0-0.2-0.1-0.2-0.2v-2
		C66.9,75,67,74.9,67.1,74.9"/>
	<path class="st8" d="M71.2,74.9h3c0.1,0,0.2,0.1,0.2,0.2v2c0,0.1-0.1,0.2-0.2,0.2h-3c-0.1,0-0.2-0.1-0.2-0.2v-2
		C71,75,71.1,74.9,71.2,74.9"/>
	<path class="st8" d="M75.3,74.9h3c0.1,0,0.2,0.1,0.2,0.2v2c0,0.1-0.1,0.2-0.2,0.2h-3c-0.1,0-0.2-0.1-0.2-0.2v-2
		C75.1,75,75.2,74.9,75.3,74.9"/>
	<path class="st8" d="M79.4,74.9h3c0.1,0,0.2,0.1,0.2,0.2v2c0,0.1-0.1,0.2-0.2,0.2h-3c-0.1,0-0.2-0.1-0.2-0.2v-2
		C79.2,75,79.3,74.9,79.4,74.9"/>
	<path class="st8" d="M83.6,74.9h3c0.1,0,0.2,0.1,0.2,0.2v2c0,0.1-0.1,0.2-0.2,0.2h-3c-0.1,0-0.2-0.1-0.2-0.2v-2
		C83.3,75,83.4,74.9,83.6,74.9"/>
	<path class="st8" d="M46.5,78h3c0.1,0,0.2,0.1,0.2,0.2v2c0,0.1-0.1,0.2-0.2,0.2h-3c-0.1,0-0.2-0.1-0.2-0.2v-2
		C46.3,78.1,46.4,78,46.5,78"/>
	<path class="st8" d="M50.7,78h3c0.1,0,0.2,0.1,0.2,0.2v2c0,0.1-0.1,0.2-0.2,0.2h-3c-0.1,0-0.2-0.1-0.2-0.2v-2
		C50.4,78.1,50.5,78,50.7,78"/>
	<path class="st8" d="M54.8,78h3c0.1,0,0.2,0.1,0.2,0.2v2c0,0.1-0.1,0.2-0.2,0.2h-3c-0.1,0-0.2-0.1-0.2-0.2v-2
		C54.5,78.1,54.6,78,54.8,78"/>
	<path class="st8" d="M58.9,78h3c0.1,0,0.2,0.1,0.2,0.2v2c0,0.1-0.1,0.2-0.2,0.2h-3c-0.1,0-0.2-0.1-0.2-0.2v-2
		C58.7,78.1,58.8,78,58.9,78"/>
	<path class="st8" d="M63,78h3c0.1,0,0.2,0.1,0.2,0.2v2c0,0.1-0.1,0.2-0.2,0.2h-3c-0.1,0-0.2-0.1-0.2-0.2v-2
		C62.8,78.1,62.9,78,63,78"/>
	<path class="st8" d="M67.1,78h3c0.1,0,0.2,0.1,0.2,0.2v2c0,0.1-0.1,0.2-0.2,0.2h-3c-0.1,0-0.2-0.1-0.2-0.2v-2
		C66.9,78.1,67,78,67.1,78"/>
	<path class="st8" d="M71.2,78h3c0.1,0,0.2,0.1,0.2,0.2v2c0,0.1-0.1,0.2-0.2,0.2h-3c-0.1,0-0.2-0.1-0.2-0.2v-2
		C71,78.1,71.1,78,71.2,78"/>
	<path class="st8" d="M75.3,78h3c0.1,0,0.2,0.1,0.2,0.2v2c0,0.1-0.1,0.2-0.2,0.2h-3c-0.1,0-0.2-0.1-0.2-0.2v-2
		C75.1,78.1,75.2,78,75.3,78"/>
	<path class="st8" d="M79.4,78h3c0.1,0,0.2,0.1,0.2,0.2v2c0,0.1-0.1,0.2-0.2,0.2h-3c-0.1,0-0.2-0.1-0.2-0.2v-2
		C79.2,78.1,79.3,78,79.4,78"/>
	<path class="st8" d="M83.6,78h3c0.1,0,0.2,0.1,0.2,0.2v2c0,0.1-0.1,0.2-0.2,0.2h-3c-0.1,0-0.2-0.1-0.2-0.2v-2
		C83.3,78.1,83.4,78,83.6,78"/>
	<path class="st8" d="M46.5,81.1h3c0.1,0,0.2,0.1,0.2,0.2v2c0,0.1-0.1,0.2-0.2,0.2h-3c-0.1,0-0.2-0.1-0.2-0.2v-2
		C46.3,81.2,46.4,81.1,46.5,81.1"/>
	<path class="st8" d="M50.7,81.1h3c0.1,0,0.2,0.1,0.2,0.2v2c0,0.1-0.1,0.2-0.2,0.2h-3c-0.1,0-0.2-0.1-0.2-0.2v-2
		C50.4,81.2,50.5,81.1,50.7,81.1"/>
	<path class="st8" d="M54.8,81.1h3c0.1,0,0.2,0.1,0.2,0.2v2c0,0.1-0.1,0.2-0.2,0.2h-3c-0.1,0-0.2-0.1-0.2-0.2v-2
		C54.5,81.2,54.6,81.1,54.8,81.1"/>
	<path class="st8" d="M58.9,81.1h3c0.1,0,0.2,0.1,0.2,0.2v2c0,0.1-0.1,0.2-0.2,0.2h-3c-0.1,0-0.2-0.1-0.2-0.2v-2
		C58.7,81.2,58.8,81.1,58.9,81.1"/>
	<path class="st8" d="M63,81.1h3c0.1,0,0.2,0.1,0.2,0.2v2c0,0.1-0.1,0.2-0.2,0.2h-3c-0.1,0-0.2-0.1-0.2-0.2v-2
		C62.8,81.2,62.9,81.1,63,81.1"/>
	<path class="st8" d="M67.1,81.1h3c0.1,0,0.2,0.1,0.2,0.2v2c0,0.1-0.1,0.2-0.2,0.2h-3c-0.1,0-0.2-0.1-0.2-0.2v-2
		C66.9,81.2,67,81.1,67.1,81.1"/>
	<path class="st8" d="M71.2,81.1h3c0.1,0,0.2,0.1,0.2,0.2v2c0,0.1-0.1,0.2-0.2,0.2h-3c-0.1,0-0.2-0.1-0.2-0.2v-2
		C71,81.2,71.1,81.1,71.2,81.1"/>
	<path class="st8" d="M75.3,81.1h3c0.1,0,0.2,0.1,0.2,0.2v2c0,0.1-0.1,0.2-0.2,0.2h-3c-0.1,0-0.2-0.1-0.2-0.2v-2
		C75.1,81.2,75.2,81.1,75.3,81.1"/>
	<path class="st8" d="M79.4,81.1h3c0.1,0,0.2,0.1,0.2,0.2v2c0,0.1-0.1,0.2-0.2,0.2h-3c-0.1,0-0.2-0.1-0.2-0.2v-2
		C79.2,81.2,79.3,81.1,79.4,81.1"/>
	<path class="st8" d="M83.6,81.1h3c0.1,0,0.2,0.1,0.2,0.2v2c0,0.1-0.1,0.2-0.2,0.2h-3c-0.1,0-0.2-0.1-0.2-0.2v-2
		C83.3,81.2,83.4,81.1,83.6,81.1"/>
	<path class="st8" d="M47,84.2h2.5c0.1,0,0.2,0.1,0.2,0.2v2c0,0.1-0.1,0.2-0.2,0.2H47c-0.1,0-0.2-0.1-0.2-0.2v-2
		C46.8,84.3,46.9,84.2,47,84.2"/>
	<path class="st8" d="M50.7,84.2h3c0.1,0,0.2,0.1,0.2,0.2v2c0,0.1-0.1,0.2-0.2,0.2h-3c-0.1,0-0.2-0.1-0.2-0.2v-2
		C50.4,84.3,50.5,84.2,50.7,84.2"/>
	<path class="st8" d="M54.8,84.2h3c0.1,0,0.2,0.1,0.2,0.2v2c0,0.1-0.1,0.2-0.2,0.2h-3c-0.1,0-0.2-0.1-0.2-0.2v-2
		C54.5,84.3,54.6,84.2,54.8,84.2"/>
	<path class="st8" d="M75.3,84.2h3c0.1,0,0.2,0.1,0.2,0.2v2c0,0.1-0.1,0.2-0.2,0.2h-3c-0.1,0-0.2-0.1-0.2-0.2v-2
		C75.1,84.3,75.2,84.2,75.3,84.2"/>
	<path class="st8" d="M79.4,84.2h3c0.1,0,0.2,0.1,0.2,0.2v2c0,0.1-0.1,0.2-0.2,0.2h-3c-0.1,0-0.2-0.1-0.2-0.2v-2
		C79.2,84.3,79.3,84.2,79.4,84.2"/>
	<path class="st8" d="M83.6,84.2H86c0.1,0,0.2,0.1,0.2,0.2v2c0,0.1-0.1,0.2-0.2,0.2h-2.5c-0.1,0-0.2-0.1-0.2-0.2v-2
		C83.3,84.3,83.4,84.2,83.6,84.2"/>
	<path class="st8" d="M58.9,84.2h15.3c0.1,0,0.2,0.1,0.2,0.2v2c0,0.1-0.1,0.2-0.2,0.2H58.9c-0.1,0-0.2-0.1-0.2-0.2v-2
		C58.7,84.3,58.8,84.2,58.9,84.2"/>
	<path class="st9" d="M42.4,64H90v-9.4c0-3.2-2.6-5.9-5.9-5.9H48.3c-3.2,0-5.9,2.6-5.9,5.9V64z"/>
	<path class="st10" d="M66.9,48.5h-4v1.4l-9.3,5.4c2.8,9.2,23.9,9.2,26.6,0l-9.3-5.4v-1.4H66.9z"/>
	<path class="st9" d="M61.3,52.2c1.7,5,9.5,5,11.2,0l-2.2-1.5h-6.8L61.3,52.2z"/>
	<path class="st5" d="M55,55.5c3.6,7.5,20.1,7.5,23.7,0l-5.4-2.8c-1.7,5.4-11.1,5.4-12.8,0L55,55.5z"/>
	<g class="st11">
		<defs>
			<path id="SVGID_3_" d="M55,55.5c3.6,7.5,20.1,7.5,23.7,0l-5.4-2.8c-1.7,5.4-11.1,5.4-12.8,0L55,55.5z"/>
		</defs>
		<clipPath id="SVGID_4_">
			<use xlink:href="#SVGID_3_"  style="overflow:visible;"/>
		</clipPath>
		<line class="st12" x1="66.6" y1="51.6" x2="54.8" y2="54.8"/>
		<line class="st12" x1="66.6" y1="51.6" x2="55" y2="55.5"/>
		<line class="st12" x1="66.6" y1="51.6" x2="55.2" y2="56.1"/>
		<line class="st12" x1="66.6" y1="51.6" x2="55.5" y2="56.8"/>
		<line class="st12" x1="66.6" y1="51.6" x2="55.9" y2="57.5"/>
		<line class="st12" x1="66.6" y1="51.6" x2="56.2" y2="58.1"/>
		<line class="st12" x1="66.6" y1="51.6" x2="56.6" y2="58.7"/>
		<line class="st12" x1="66.6" y1="51.6" x2="57.1" y2="59.3"/>
		<line class="st12" x1="66.6" y1="51.6" x2="57.5" y2="59.8"/>
		<line class="st12" x1="66.6" y1="51.6" x2="58" y2="60.4"/>
		<line class="st12" x1="66.6" y1="51.6" x2="58.6" y2="60.9"/>
		<line class="st12" x1="66.6" y1="51.6" x2="59.1" y2="61.3"/>
		<line class="st12" x1="66.6" y1="51.6" x2="59.7" y2="61.7"/>
		<line class="st12" x1="66.6" y1="51.6" x2="60.3" y2="62.1"/>
		<line class="st12" x1="66.6" y1="51.6" x2="61" y2="62.5"/>
		<line class="st12" x1="66.6" y1="51.6" x2="61.6" y2="62.8"/>
		<line class="st12" x1="66.6" y1="51.6" x2="62.3" y2="63.1"/>
		<line class="st12" x1="66.6" y1="51.6" x2="63" y2="63.3"/>
		<line class="st12" x1="66.6" y1="51.6" x2="63.7" y2="63.5"/>
		<line class="st12" x1="66.6" y1="51.6" x2="64.4" y2="63.7"/>
		<line class="st12" x1="66.6" y1="51.6" x2="65.1" y2="63.8"/>
		<line class="st12" x1="66.6" y1="51.6" x2="65.9" y2="63.8"/>
		<line class="st12" x1="66.6" y1="51.6" x2="66.6" y2="63.9"/>
		<line class="st12" x1="66.6" y1="51.6" x2="78.4" y2="54.8"/>
		<line class="st12" x1="66.6" y1="51.6" x2="78.2" y2="55.5"/>
		<line class="st12" x1="66.6" y1="51.6" x2="78" y2="56.1"/>
		<line class="st12" x1="66.6" y1="51.6" x2="77.7" y2="56.8"/>
		<line class="st12" x1="66.6" y1="51.6" x2="77.3" y2="57.5"/>
		<line class="st12" x1="66.6" y1="51.6" x2="77" y2="58.1"/>
		<line class="st12" x1="66.6" y1="51.6" x2="76.6" y2="58.7"/>
		<line class="st12" x1="66.6" y1="51.6" x2="76.1" y2="59.3"/>
		<line class="st12" x1="66.6" y1="51.6" x2="75.7" y2="59.8"/>
		<line class="st12" x1="66.6" y1="51.6" x2="75.2" y2="60.4"/>
		<line class="st12" x1="66.6" y1="51.6" x2="74.6" y2="60.9"/>
		<line class="st12" x1="66.6" y1="51.6" x2="74.1" y2="61.3"/>
		<line class="st12" x1="66.6" y1="51.6" x2="73.5" y2="61.7"/>
		<line class="st12" x1="66.6" y1="51.6" x2="72.9" y2="62.1"/>
		<line class="st12" x1="66.6" y1="51.6" x2="72.2" y2="62.5"/>
		<line class="st12" x1="66.6" y1="51.6" x2="71.6" y2="62.8"/>
		<line class="st12" x1="66.6" y1="51.6" x2="70.9" y2="63.1"/>
		<line class="st12" x1="66.6" y1="51.6" x2="70.2" y2="63.3"/>
		<line class="st12" x1="66.6" y1="51.6" x2="69.5" y2="63.5"/>
		<line class="st12" x1="66.6" y1="51.6" x2="68.8" y2="63.7"/>
		<line class="st12" x1="66.6" y1="51.6" x2="68.1" y2="63.8"/>
		<line class="st12" x1="66.6" y1="51.6" x2="67.3" y2="63.8"/>
		<line class="st12" x1="66.6" y1="51.6" x2="66.6" y2="63.9"/>
	</g>
	<path class="st13" d="M72.4,82.4c0,0-1.1,0.5-0.6,1.8c0.5,1.3,4.8,9.7,4.8,9.7s0.4,2.6,4.7,4.2L91.8,120h16.9L90.4,94.8L90.1,84
		c0,0,0.8-3.1-2.2-5.9l-0.1,5.4l-0.4-5.9l-3.3-2l-0.8,0.2l0.4,2.4l0.7-0.1l-0.2,5.4l-1.2-7.7c0,0-1.1-1.5-1.4-1.6
		c-0.4-0.1-3.3,1.2-3.3,1.2s0,1.2,0.9,1.2c0.9,0,1-0.1,1-0.1l0.8,6.8l-6-9.1c0,0-1.9-1-2.3,0.7c0,0-0.2,0.5,0.8,2
		c1,1.5,4.4,8.4,4.4,8.4s0.3,1.5-0.2,1.8C77.2,87.4,73.1,81.8,72.4,82.4"/>
	<path class="st13" d="M66.2,82.9c0,0,1.1,0.5,0.6,1.8C66.3,86,62,94.4,62,94.4s-0.4,2.6-4.7,4.2L48.5,120H32.6l15.6-24.7l0.3-10.8
		c0,0-0.8-3.1,2.2-5.9l0.1,5.4l0.4-5.9l3.3-2l0.8,0.2l-0.4,2.4l-0.7-0.1l0.2,5.4l1.2-7.7c0,0,1.1-1.5,1.4-1.6
		c0.4-0.1,3.3,1.2,3.3,1.2s0,1.2-0.9,1.2c-0.9,0-1-0.1-1-0.1l-0.8,6.8l6-9.1c0,0,1.9-1,2.3,0.7c0,0,0.2,0.5-0.8,2
		c-1,1.5-4.4,8.4-4.4,8.4s-0.3,1.5,0.2,1.8C61.4,87.9,65.5,82.3,66.2,82.9"/>
	<path class="st14" d="M69.4,82.4c0,0-1.1,0.5-0.6,1.8c0.5,1.3,4.8,9.7,4.8,9.7s0.4,2.6,4.7,4.2L88.7,120h16.9L87.3,94.8L87.1,84
		c0,0,0.8-3.1-2.2-5.9l-0.1,5.4l-0.4-5.9l-3.3-2l-0.8,0.2l0.4,2.4l0.7-0.1l-0.2,5.4L80,75.9c0,0-1.1-1.5-1.4-1.6
		c-0.4-0.1-3.3,1.2-3.3,1.2s0,1.2,0.9,1.2c0.9,0,1-0.1,1-0.1l0.8,6.8l-6-9.1c0,0-1.9-1-2.3,0.7c0,0-0.2,0.5,0.8,2
		c1,1.5,4.4,8.4,4.4,8.4s0.3,1.5-0.2,1.8C74.2,87.4,70,81.8,69.4,82.4"/>
	<path class="st14" d="M63.1,82.9c0,0,1.1,0.5,0.6,1.8c-0.5,1.3-4.8,9.7-4.8,9.7s-0.4,2.6-4.7,4.2L45.4,120H29.6l15.6-24.7l0.3-10.8
		c0,0-0.8-3.1,2.2-5.9l0.1,5.4l0.4-5.9l3.3-2l0.8,0.2l-0.4,2.4L51,78.7l0.2,5.4l1.2-7.7c0,0,1.1-1.5,1.4-1.6
		c0.4-0.1,3.3,1.2,3.3,1.2s0,1.2-0.9,1.2c-0.9,0-1-0.1-1-0.1l-0.8,6.8l6-9.1c0,0,1.9-1,2.3,0.7c0,0,0.2,0.5-0.8,2
		c-1,1.5-4.4,8.4-4.4,8.4s-0.3,1.5,0.2,1.8C58.3,87.9,62.4,82.3,63.1,82.9"/>
	<path class="st3" d="M103.1,46.7c0,0,0.9,1.8-0.9,2.7c-2.6,1.3-3.9,1.9-6.4-0.2c-1.6-1.3-2.2-2.9-1.3-4.5c0.9-1.5,1.7-2.7,2.3-2.8
		c0.6-0.2,1.7-0.2,2.6,0.6C100.4,43.2,102,44.4,103.1,46.7"/>
	<path class="st5" d="M103.1,46.7c0,0,0.9,1.8-0.9,2.7c-2.6,1.3-3.9,1.9-6.4-0.2c-1.6-1.3-2.2-2.9-1.3-4.5c0.9-1.5,1.7-2.7,2.3-2.8
		c0.6-0.2,1.7-0.2,2.6,0.6C100.4,43.2,102,44.4,103.1,46.7 M104,46.7c0,0,1,2.1-1,3.2c-3.1,1.6-4.6,2.2-7.6-0.3
		c-1.9-1.6-2.6-3.5-1.5-5.3c0.7-1.2,1.4-2.2,1.9-2.8l-0.3-1l1.1-1l2.1,1.6c0.3,0.1,0.6,0.3,0.9,0.6C100.7,42.6,102.6,44,104,46.7z"
		/>
	<path class="st3" d="M107.1,50.2c0,0-1.9-0.7-2.6,1.1c-1,2.7-1.4,4.1,0.9,6.4c1.5,1.4,3.1,1.9,4.6,0.8c1.4-1.1,2.5-2,2.6-2.6
		c0.1-0.6,0-1.7-0.9-2.5C110.8,52.6,109.5,51.1,107.1,50.2"/>
	<path class="st5" d="M107.1,50.2c0,0-1.9-0.7-2.6,1.1c-1,2.7-1.4,4.1,0.9,6.4c1.5,1.4,3.1,1.9,4.6,0.8c1.4-1.1,2.5-2,2.6-2.6
		c0.1-0.6,0-1.7-0.9-2.5C110.8,52.6,109.5,51.1,107.1,50.2 M107,49.4c0,0-2.2-0.8-3,1.3c-1.2,3.2-1.7,4.9,1.1,7.5
		c1.8,1.7,3.7,2.2,5.4,0.9c1.1-0.8,2-1.6,2.5-2.2l1,0.2l0.9-1.2l-1.8-2c-0.2-0.3-0.4-0.6-0.7-0.8C111.4,52.2,109.8,50.5,107,49.4z"
		/>
	<path class="st5" d="M107.7,49.8c-1.6-1-3-2.2-4.2-3.8l0,0c0.1,0.1,0.1,0.2,0.2,0.3c0,0,1,1.8,0,2.9c0.6,0.1,0.8,0.4,0.9,0.8
		c1-1.1,2.9-0.3,2.9-0.3C107.4,49.8,107.5,49.8,107.7,49.8C107.6,49.9,107.6,49.9,107.7,49.8"/>
	<path class="st15" d="M100.9,74.3c1.7-2.6,5.1-3.4,7.8-1.7c2.6,1.7,3.4,5.1,1.7,7.8c-1.7,2.6-5.1,3.4-7.8,1.7
		C100,80.4,99.2,76.9,100.9,74.3"/>
	<path class="st16" d="M100.9,74.3c1.7-2.6,5.1-3.4,7.8-1.7c2.6,1.7,3.4,5.1,1.7,7.8c-0.1,0.2-0.2,0.4-0.4,0.5l0,0
		c-1.1-0.1-0.2-1-0.4-1.2c-0.3-0.4,0.2-0.5,0.1-0.6c-0.1-0.2,0.6-0.6,0.3-0.8c-0.4-0.3,0.3-0.9,0.2-1c-0.3-0.2-0.8-0.1-0.6-0.6
		c0.1-0.3,0.2-0.4,0.1-0.5c-0.4-0.2-0.4-0.6-0.1-0.9c-0.3-0.2-0.7-0.3-0.5-0.7c-0.1-0.1-0.5-0.6-0.6-0.7c-0.1-0.2,0-0.2-0.1-0.2
		c-0.2,0-0.8-0.3-1-0.4c-0.1-0.1-0.5,0.2-0.8-0.1c-0.5-0.5-0.8-0.3-0.9-0.3c-0.4,0.6-0.4,0.4-1,0c-0.2,0.3-0.5,0.5-0.6,0.7
		c-0.2,0.4-0.5,0.5-0.5,0.5c-0.1-0.1-0.3,0-0.4,0c-0.1,0.2-0.1,0.3-0.3,0.3c-0.4,0.1,0.1-0.1-0.2,0c-0.2,0.1-0.3,0.7-0.5,0.7
		c-0.7,0.2-0.5,0-0.5,0.9c0,0.6-0.5,1.2-1.1,1.4c-0.1,0-0.1,0-0.1,0c-0.1,0.1-0.3-0.1-0.5-0.2C100,76.1,100.3,75.2,100.9,74.3"/>
	<path class="st3" d="M99.9,84.2l1.5-2.3l2,1.2l-1.5,2.3c-0.3,0.5-1.1,0.7-1.6,0.4h0C99.7,85.5,99.5,84.8,99.9,84.2"/>
	<path class="st2" d="M13.8,27.2l11.6-5.4l9.1,19.4l-11.6,5.4c-1.1,0.5-2.4,0-3-1.1l-7.2-15.4C12.2,29.1,12.7,27.7,13.8,27.2"/>
	<polygon class="st2" points="34,42.5 34.4,41.2 33.9,41.5 33.4,42.7 	"/>
	<polygon class="st16" points="15.2,37.8 15.9,37 16.7,38.7 16,39.5 	"/>
	<rect x="16.1" y="36.1" transform="matrix(0.9065 -0.4221 0.4221 0.9065 -13.945 11.0933)" class="st16" width="4" height="1.9"/>
	<path class="st15" d="M19,36.1c0.2-0.1,0.5,0,0.6,0.2c0.1,0.2,0,0.5-0.2,0.6c-0.2,0.1-0.5,0-0.6-0.2C18.6,36.5,18.7,36.2,19,36.1"
		/>
</g>
</svg>
