<svg xmlns="http://www.w3.org/2000/svg" width="44" height="47" viewBox="0 0 44 47"><g fill="none" transform="translate(-3)"><path d="M0 0h46.76v46.76H0z"/><circle cx="23.16" cy="23.48" r="19.49" fill="#7BC8FF"/><path fill="#073984" d="M39.77 16.98v-2.04c0-.93-.78-1.92-1.71-1.92H11.75c-.93 0-1.63 1-1.63 1.92V37.8a19.23 19.23 0 0 0 13.22 5.17c6.9 0 12.81-3.6 16.43-9.02V16.98z"/><path fill="#FFF" d="M42.68 23.45L42.9 6.6V1.93C42.9 1 42.12 0 41.2 0H14.9c-.93 0-1.63 1-1.63 1.93v38.24A19.39 19.39 0 0 0 42.7 23.45z"/><path fill="#073984" d="M35.67 17.8a.7.7 0 0 0-.69-.69H19.01a.7.7 0 0 0-.7.7v.06c0 .38.32.69.7.69h15.97a.7.7 0 0 0 .7-.7v-.05zm-4.82-4.1a.7.7 0 0 0-.7-.68H19.02a.7.7 0 0 0-.7.69v.06c0 .38.32.7.7.7h11.15a.7.7 0 0 0 .7-.7v-.06zm6.99 0a.7.7 0 0 0-.7-.68H33a.7.7 0 0 0-.7.69v.06c0 .38.32.7.7.7h4.16a.7.7 0 0 0 .7-.7v-.06zM26.03 9.61a.7.7 0 0 0-.7-.7h-6.32a.7.7 0 0 0-.7.7v.06c0 .38.32.7.7.7h6.33a.7.7 0 0 0 .7-.7v-.06zm9.88 0a.7.7 0 0 0-.69-.7h-7.3a.7.7 0 0 0-.68.7v.06c0 .38.3.7.69.7h7.3a.7.7 0 0 0 .68-.7v-.06zm-7.47-4.1a.7.7 0 0 0-.7-.69h-8.73a.7.7 0 0 0-.7.7v.05c0 .39.32.7.7.7h8.74a.7.7 0 0 0 .7-.7v-.06z"/><circle cx="38" cy="38.05" r="4.15" fill="#FFF"/><path fill="#7BC8FF" d="M32.72 38.08a5.31 5.31 0 0 1 7.35-4.9 19.43 19.43 0 0 0 2.35-6.74 3.54 3.54 0 0 1-1.78-3.27.88.88 0 0 0-.78-.93 15.88 15.88 0 0 0-3.58 0 .89.89 0 0 0-.8.9 3.54 3.54 0 0 1-2.17 3.4c-1.3.53-3 .14-3.94-.9a.89.89 0 0 0-1.2-.1c-.95.75-1.82 1.6-2.57 2.54-.3.37-.25.9.1 1.21 1.1 1 1.46 2.6.88 3.97a3.68 3.68 0 0 1-3.46 2.15.87.87 0 0 0-.92.79c-.14 1.2-.14 2.4 0 3.61.04.45.58.79 1.04.79a3.48 3.48 0 0 1 3.23 2.08 19.3 19.3 0 0 0 6.7-2.46 5.28 5.28 0 0 1-.45-2.14z"/><path fill="#0B3E86" d="M46.76 43.3a.8.8 0 0 1 0-1.01V29.31c-.48-.3-.67-.6-1.01-.87a.71.71 0 0 0-.96.08 2.85 2.85 0 0 1-3.08.69 2.74 2.74 0 0 1-1.66-2.68.69.69 0 0 0-.61-.71 12.3 12.3 0 0 0-2.77-.01.69.69 0 0 0-.61.7 2.74 2.74 0 0 1-1.69 2.63c-1 .41-2.31.11-3.05-.7a.69.69 0 0 0-.93-.07c-.73.58-1.4 1.24-1.99 1.97-.22.28-.2.69.08.93.85.78 1.13 2.01.68 3.07a2.85 2.85 0 0 1-2.67 1.67.67.67 0 0 0-.72.6c-.1.93-.1 1.87 0 2.8.04.35.45.6.8.6a2.7 2.7 0 0 1 2.54 1.7 2.74 2.74 0 0 1-.69 3.04.64.64 0 0 0-.07.9c.31.4.66.87 1.03 1.1h17.25c.02 0 .13.05.13.03V43.3zm-8.74-1.12a4.11 4.11 0 1 1 .01-8.22 4.11 4.11 0 0 1 0 8.22z"/></g></svg>