<svg xmlns="http://www.w3.org/2000/svg" width="41" height="44" viewBox="0 0 41 44"><g fill="none"><g transform="translate(.63)"><circle cx="19.79" cy="23.57" r="19.59" fill="#7BC8FF"/><path fill="#FFF" d="M31.31 0H1.96C.96 0 .24.87.24 1.87V23.5H.2a19.6 19.6 0 0 0 19.63 19.62c5.14 0 9.73-1.95 13.36-5.2V1.87c0-1-.88-1.87-1.88-1.87z"/><path fill="#0B3E86" d="M8.48 32.73a.7.7 0 0 1-.7.7h-.05a.7.7 0 0 1-.7-.7V4.58c0-.39.3-.7.7-.7h.05c.39 0 .7.31.7.7v28.15zm17.92 2.18a.7.7 0 0 1-.7.7h-.05a.7.7 0 0 1-.7-.7V4.58c0-.39.32-.7.7-.7h.06c.38 0 .7.31.7.7V34.9zm-8.96 1.69a.7.7 0 0 1-.7.7h-.05a.7.7 0 0 1-.7-.7V4.59c0-.39.31-.7.7-.7h.05c.39 0 .7.31.7.7V36.6z"/><path fill="#7BC8FF" d="M10.42 9.93a1.2 1.2 0 0 1-1.21 1.21H6.3a1.2 1.2 0 0 1-1.21-1.2V7.98c0-.66.54-1.2 1.2-1.2h2.92c.67 0 1.2.54 1.2 1.2v1.94zm8.96 16.72a1.2 1.2 0 0 1-1.21 1.21h-2.9c-.68 0-1.22-.54-1.22-1.21V24.7c0-.67.54-1.21 1.21-1.21h2.91c.67 0 1.21.54 1.21 1.21v1.94zm8.97-13.08c0 .67-.55 1.2-1.22 1.2h-2.9a1.2 1.2 0 0 1-1.21-1.2v-1.94c0-.67.54-1.21 1.2-1.21h2.91c.67 0 1.22.54 1.22 1.2v1.95z"/></g><path fill="#0B3E86" d="M20.5 19.2v23.96c10.66 0 19.55-8.8 19.55-19.63 0-2.2-.41-4.4-1.08-6.33H22.36c-1.07 0-1.86.94-1.86 2z"/><path fill="#FFF" d="M37.46 23.47a.7.7 0 0 0-.7-.7H25.31a.7.7 0 0 0-.7.7v.06c0 .39.32.7.7.7h11.45a.7.7 0 0 0 .7-.7v-.06zm-6.3 13.08a.7.7 0 0 0-.7-.7h-5.39a.7.7 0 0 0-.7.7v.06c0 .39.32.7.7.7h5.4a.7.7 0 0 0 .69-.7v-.06zm6.3-8.96a.7.7 0 0 0-.7-.7H25.31a.7.7 0 0 0-.7.7v.06c0 .38.32.7.7.7h11.45a.7.7 0 0 0 .7-.7v-.06zm.38 4.87H24.99c-.38 0-.61.39-.61.77v.06c0 .39.23.63.61.63h12.02c.3-.49.57-.97.83-1.46z"/></g></svg>