<svg xmlns="http://www.w3.org/2000/svg" width="44" height="44" viewBox="0 0 44 44"><g fill="none" transform="translate(-3)"><ellipse cx="23.31" cy="23.61" fill="#7BC8FF" rx="19.49" ry="19.59"/><ellipse cx="30.96" cy="15.93" fill="#073984" rx="6.9" ry="6.93"/><path fill="#FFF" d="M46.73 14.22c-.05-.45-.57-.79-1.02-.79a3.52 3.52 0 0 1-2.4-6.11.89.89 0 0 0 .1-1.2 15.7 15.7 0 0 0-2.5-2.55.88.88 0 0 0-1.2.1 3.64 3.64 0 0 1-3.96.9 3.54 3.54 0 0 1-2.14-3.46.88.88 0 0 0-.77-.93 15.72 15.72 0 0 0-3.57-.01.88.88 0 0 0-.78.9 3.54 3.54 0 0 1-2.17 3.4c-1.3.53-2.98.15-3.92-.9a.88.88 0 0 0-1.2-.1c-.94.75-1.8 1.61-2.55 2.55-.3.37-.25.9.09 1.21 1.1 1 1.46 2.6.89 3.97a3.66 3.66 0 0 1-3.45 2.15.86.86 0 0 0-.91.78c-.14 1.2-.15 2.42-.01 3.62.05.45.58.79 1.04.79 1.38-.04 2.7.82 3.26 2.18.55 1.35.2 2.94-.89 3.93a.89.89 0 0 0-.1 1.2c.74.94 1.58 1.8 2.5 2.55.37.3.9.25 1.21-.1a3.63 3.63 0 0 1 3.95-.89 3.53 3.53 0 0 1 2.14 3.46.9.9 0 0 0 .78.93 15.65 15.65 0 0 0 3.56 0c.46-.04.8-.44.79-.9a3.54 3.54 0 0 1 2.16-3.4 3.64 3.64 0 0 1 3.93.9.9.9 0 0 0 1.2.1c.94-.75 1.8-1.6 2.55-2.55.3-.36.25-.9-.1-1.2a3.56 3.56 0 0 1-.88-3.98 3.54 3.54 0 0 1 3.24-2.16h.2c.45.05.87-.3.92-.77a16 16 0 0 0 .01-3.62zm-15.71 7.1a5.3 5.3 0 0 1 0-10.6 5.3 5.3 0 0 1 0 10.6z"/><path fill="#94D0FC" d="M33.62 13.3l-3.53 3.54-1.5-1.5-1.02 1.02 1.5 1.5 1.02 1.03 1.01-1.03 3.53-3.54z"/><path fill="#7BC8FF" d="M16.22 34.19a5.19 5.19 0 0 0-5.15 4.65c2.54 2.07 5.6 3.5 8.96 4.07a5.2 5.2 0 0 0-3.81-8.72z"/><path fill="#FFF" d="M17.44 37.68l-1.8 1.8-.76-.76-.51.52.76.77.51.52.52-.52 1.8-1.8z"/><path fill="#0B3E86" d="M27.32 37.48a2.64 2.64 0 0 1-1.8-4.6.67.67 0 0 0 .07-.9 11.8 11.8 0 0 0-1.88-1.9.66.66 0 0 0-.9.07 2.73 2.73 0 0 1-2.97.66 2.66 2.66 0 0 1-1.6-2.59.66.66 0 0 0-.59-.7c-.89-.1-1.78-.1-2.67 0a.66.66 0 0 0-.6.68 2.66 2.66 0 0 1-1.62 2.55c-.97.4-2.23.1-2.94-.67a.66.66 0 0 0-.9-.08c-.71.56-1.36 1.2-1.92 1.91a.67.67 0 0 0 .07.9c.75.7 1.04 1.74.76 2.7a19.63 19.63 0 0 0 4.51 4.29 3.98 3.98 0 0 1 3.95-4.36 3.98 3.98 0 0 1 2.35 7.18 19.43 19.43 0 0 0 6.1.51l.06-.14a2.66 2.66 0 0 1 2.44-1.62h.14c.34.03.66-.24.7-.59.1-.9.1-1.8 0-2.71-.03-.34-.42-.6-.76-.6z"/></g></svg>