<svg xmlns="http://www.w3.org/2000/svg" width="72" height="54" fill="none"><path d="M101.641 28.924l-21.01-22.74a5.309 5.309 0 00-2.025-1.338 6.35 6.35 0 00-2.549-.397 6.088 6.088 0 00-2.46.64c-.741.377-1.354.9-1.784 1.522l-9.109 13.164c-.447.646-1.091 1.185-1.87 1.565a6.14 6.14 0 01-2.578.602 6.296 6.296 0 01-2.618-.515c-.807-.353-1.49-.87-1.985-1.5L41.613 4.614c-.503-.638-1.199-1.16-2.02-1.513a6.308 6.308 0 00-2.66-.497 6.105 6.105 0 00-2.597.65c-.78.4-1.416.96-1.845 1.626L1.332 51.787" stroke="url(#paint0_linear)" stroke-width="2" stroke-linecap="round"/><defs><linearGradient id="paint0_linear" x1="69.96" y1="-7.211" x2="28.273" y2="65.656" gradientUnits="userSpaceOnUse"><stop stop-color="#1C90FF"/><stop offset=".568" stop-color="#67C5FF"/><stop offset="1" stop-color="#67C5FF" stop-opacity="0"/></linearGradient></defs></svg>