<svg xmlns="http://www.w3.org/2000/svg" width="24" height="24" viewBox="0 0 24 24"><path fill="#171515" fill-rule="evenodd" d="M0 3.99C0 1.79 1.78 0 3.99 0h16.02C22.21 0 24 1.78 24 3.99v16.02c0 2.2-1.78 3.99-3.99 3.99H3.99A3.99 3.99 0 0 1 0 20.01V3.99zm21.5 8.25c0 4.3-2.73 7.95-6.5 9.24-.48.1-.64-.2-.64-.47l.02-2.67c0-.9-.32-1.5-.65-1.8 2.11-.25 4.34-1.07 4.34-4.82 0-1.06-.37-1.92-.99-2.6.1-.25.43-1.24-.09-2.59-.8-.24-2.61 1.01-2.61 1.01A8.24 8.24 0 0 0 12 7.22c-.82 0-1.61.1-2.38.32 0 0-1.81-1.25-2.61-1a3.62 3.62 0 0 0-.1 2.58 3.78 3.78 0 0 0-.98 2.6c0 3.73 2.23 4.57 4.34 4.82-.27.24-.52.68-.6 1.3-.55.26-1.94.7-2.77-.8-.52-.94-1.45-1.02-1.45-1.02-.93 0-.07.61-.07.61.63.29 1.05 1.41 1.05 1.41.56 1.75 3.2 1.16 3.2 1.16l.01 1.8c0 .27-.16.58-.65.48a9.74 9.74 0 0 1-6.49-9.24A9.62 9.62 0 0 1 12 2.5c5.25 0 9.5 4.36 9.5 9.74z"/></svg>