<svg xmlns="http://www.w3.org/2000/svg" width="43" height="43" viewBox="0 0 43 43"><g fill="none"><ellipse cx="23.43" cy="23.48" fill="#FFF" rx="19.59" ry="19.49" transform="translate(0 -4)"/><path fill="#073984" d="M16.34 24.14v-1.06l1.1-1.01c2.18-2.02 3.21-3.13 3.23-4.35 0-.82-.45-1.55-1.66-1.55-.81 0-1.51.42-1.99.77l-.51-1.23a4.6 4.6 0 0 1 2.86-.96c2.05 0 3.05 1.3 3.05 2.8 0 1.62-1.17 2.93-2.78 4.42l-.82.7v.02h3.82v1.45h-6.3zm11.52 0V21.8h-4.2v-1.14l3.79-5.75h2.07v5.57h1.2v1.32h-1.2v2.34h-1.66zm0-3.66v-2.52c0-.52.01-1.06.06-1.6h-.06c-.29.58-.53 1.05-.81 1.56l-1.7 2.53-.02.03h2.53z"/><path fill="#073984" d="M23.43 35.66A16.23 16.23 0 0 1 7.17 19.48c0-8.91 7.3-16.17 16.26-16.17s16.26 7.26 16.26 16.17c0 8.92-7.3 16.18-16.26 16.18zm0-29.7c-7.5 0-13.6 6.07-13.6 13.52 0 7.46 6.1 13.53 13.6 13.53s13.6-6.07 13.6-13.53c0-7.45-6.1-13.52-13.6-13.52z"/><path fill="#7BC8FF" d="M29.2 36.71c.06.47-.08.88-.43 1.23L24.66 42a3.02 3.02 0 0 1-2.2.83 14.48 14.48 0 0 1-5.11-1.18 27 27 0 0 1-4.31-2.36A32.1 32.1 0 0 1 7.91 35a33.74 33.74 0 0 1-3.58-4.06 28.69 28.69 0 0 1-2.29-3.58c-.58-1.1-1-2.09-1.3-2.98-.29-.9-.48-1.66-.58-2.3a7.58 7.58 0 0 1-.1-2.14 2.98 2.98 0 0 1 .8-1.6l4.12-4.09c.28-.28.61-.43.98-.43.27 0 .51.08.72.23.2.16.38.35.52.57l3.3 6.24c.2.33.24.69.16 1.08-.08.39-.26.71-.52.98l-1.52 1.5a.51.51 0 0 0-.1.2.75.75 0 0 0-.05.24c.08.43.27.92.55 1.47.25.5.63 1.1 1.15 1.8.51.7 1.24 1.52 2.19 2.44.93.95 1.75 1.68 2.47 2.2.72.52 1.33.9 1.8 1.15.5.25.86.4 1.12.45l.39.08.2-.05a.6.6 0 0 0 .2-.1l1.76-1.79c.37-.33.8-.5 1.3-.5.35 0 .63.07.83.2h.03l5.97 3.5c.43.26.69.6.77 1.01z"/></g></svg>