<svg xmlns="http://www.w3.org/2000/svg" width="237" height="88" fill="none"><path d="M1 79.5v3.3c1.3.4 2.5.8 3.7 1.2 21.1 6.2 37.9 1 51.3-11.2 1.2-1.1 2.4-2.3 3.6-3.5C74.7 53.3 84.9 28.1 91.5 1" stroke-opacity="0.5" stroke="#C4DDF9"/><path d="M1 79.5c20.5-12.2 39.8-13.1 58.6-10.2 10.2 1.5 20.3 4.1 30.4 6.6C134.1 86.7 178.5 95.2 235.2 1H91.5" stroke-opacity="0.5" stroke="#C4DDF9"/><path d="M91.5 1h108.4C169 76.8 129.8 79.5 90 75.8c-11.3-1-22.7-2.6-34-3.1-17.7-.8-35 .9-51.3 11.2-1.2.8-2.5 1.7-3.7 2.6v-7" stroke-opacity="0.5" stroke="#C4DDF9"/></svg>