<svg xmlns="http://www.w3.org/2000/svg" width="44" height="44" viewBox="0 0 44 44"><g fill="none"><g transform="translate(-3)"><ellipse cx="23.31" cy="23.61" fill="#7BC8FF" rx="19.49" ry="19.59"/><g transform="translate(7.23)"><path fill="#043582" d="M11.14 23.27l-2.75 3.28a9.8 9.8 0 0 0 4.64 4.66c1.01-.82 2.3-1.93 3.32-2.76"/><path fill="#073984" d="M28.35 20.68v4.82a13 13 0 0 1-3.77 9.15l-4.72 4.74-.6-11.63 9.09-7.08zm-9.32-9.44l-5.01-.15a12.8 12.8 0 0 0-9.1 3.8L.18 19.62l11.57.6 7.27-9z"/><path fill="#FFF" d="M10.36 21.96a17.93 17.93 0 0 0 7.14 7.18l13.02-10.16a23.52 23.52 0 0 0 9.02-17.4l.01-.4a1.04 1.04 0 0 0-1.12-1.1l-.75.04a23.33 23.33 0 0 0-16.64 8.63L10.36 21.96z"/><ellipse cx="28.86" cy="11.07" fill="#073984" rx="4.15" ry="4.17"/><ellipse cx="20.75" cy="18.87" fill="#073984" rx="2.07" ry="2.08"/></g></g><path fill="#043582" d="M12.1 28.12l-8.36 5.8c1.5 2.42 3.51 4.5 5.88 6.06l5.86-8.48a9.63 9.63 0 0 1-3.37-3.38z"/></g></svg>