<svg xmlns="http://www.w3.org/2000/svg" width="318" height="305" fill="none"><mask id="a" maskUnits="userSpaceOnUse" x="0" y="0" width="318" height="305"><rect width="318" height="305" rx="6" fill="#fff"/></mask><g mask="url(#a)" fill="#C4DDF9" fill-opacity=".4"><path opacity=".4" d="M-35.63 31.5L-.92 48.16l30.67 14.77 5.44 2.58-42.24 87.83c-2.8 5.72 4.11 11.3 9.13 7.32L131.66 58.6a6 6 0 00-1.12-10.1L93.74 30.8l-28.5-13.73-5.45-2.58 42.24-87.83c2.8-5.72-4.1-11.3-9.13-7.32L-36.6 21.4a5.93 5.93 0 00.97 10.1z"/><path opacity=".4" d="M74.05-22.16l21.07 10.1 18.62 8.97 3.3 1.56L91.4 51.75c-1.7 3.46 2.5 6.85 5.54 4.44l78.68-61.9a3.64 3.64 0 00-.68-6.13l-22.35-10.74-17.3-8.33-3.3-1.56 25.64-53.28c1.7-3.46-2.5-6.85-5.54-4.44l-78.64 61.9a3.6 3.6 0 00.6 6.13zM234.54 282.17l15.86 7.5 14 6.67 2.49 1.16-19.3 39.6c-1.27 2.57 1.88 5.09 4.17 3.3l59.2-46.01a2.69 2.69 0 00-.51-4.56l-16.81-7.98-13.03-6.19-2.48-1.16 19.3-39.6c1.27-2.57-1.88-5.09-4.17-3.3l-59.17 46.01a2.66 2.66 0 00.45 4.56z"/></g></svg>