<svg xmlns="http://www.w3.org/2000/svg" version="1.1" id="Layer_1" x="0" y="0" viewBox="0 0 318 305" xml:space="preserve"><style>.st1{opacity:.1;fill:#C4DDF9;enable-background:new}.st2{opacity:.2;fill:#C4DDF9}</style><path d="M-.6 79.2V.4h91.1c-6.6 27.2-16.8 52.3-31.9 68.2-1.2 1.2-2.3 2.4-3.6 3.5C41.7 84.3 24.8 89.5 3.7 83.3c-1.4-.4-2.9-.9-4.3-1.4v-2.7z" opacity=".1" fill="#C4DDF9"/><path class="st1" d="M198.9.4H-.6v78.8c20.8-12.5 40.2-13.4 59.2-10.6 10.2 1.5 20.3 4.1 30.4 6.6 40.2 9.9 80.8 17.8 130.8-52.7.8-1.1 1.5-2.2 2.3-3.3 1.5-2.2 3.1-4.5 4.6-6.8l2.1-3.3c1.8-2.8 3.6-5.7 5.4-8.7h-35.3z"/><path class="st1" d="M-.6 81.9v4.4c1.4-1.1 2.9-2 4.3-3C20 73.1 37.4 71.3 55 72.1c11.3.5 22.6 2.1 34 3.1 39.8 3.7 78.9 1 109.8-74.8H-.6v81.5zm318 214.8v8.7H126.1c71.2-58.1 124.6 20.7 191.3-8.7z"/><circle class="st2" cx="305" cy="81" r="2"/><circle class="st2" cx="305" cy="71" r="2"/><circle class="st2" cx="305" cy="61" r="2"/><circle class="st2" cx="305" cy="51" r="2"/><circle class="st2" cx="305" cy="41" r="2"/><circle class="st2" cx="305" cy="31" r="2"/><circle class="st2" cx="305" cy="21" r="2"/><circle class="st2" cx="305" cy="11" r="2"/><circle class="st2" cx="298" cy="81" r="2"/><circle class="st2" cx="298" cy="71" r="2"/><circle class="st2" cx="298" cy="61" r="2"/><circle class="st2" cx="298" cy="51" r="2"/><circle class="st2" cx="298" cy="41" r="2"/><circle class="st2" cx="298" cy="31" r="2"/><circle class="st2" cx="298" cy="21" r="2"/><circle class="st2" cx="298" cy="11" r="2"/><circle class="st2" cx="291" cy="71" r="2"/><circle class="st2" cx="291" cy="61" r="2"/><circle class="st2" cx="291" cy="51" r="2"/><circle class="st2" cx="291" cy="41" r="2"/><circle class="st2" cx="291" cy="31" r="2"/><circle class="st2" cx="291" cy="21" r="2"/><circle class="st2" cx="291" cy="11" r="2"/><circle class="st2" cx="284" cy="71" r="2"/><circle class="st2" cx="284" cy="61" r="2"/><circle class="st2" cx="284" cy="51" r="2"/><circle class="st2" cx="284" cy="41" r="2"/><circle class="st2" cx="284" cy="31" r="2"/><circle class="st2" cx="284" cy="21" r="2"/><circle class="st2" cx="284" cy="11" r="2"/><circle class="st2" cx="277" cy="61" r="2"/><circle class="st2" cx="277" cy="51" r="2"/><circle class="st2" cx="277" cy="41" r="2"/><circle class="st2" cx="277" cy="31" r="2"/><circle class="st2" cx="277" cy="21" r="2"/><circle class="st2" cx="277" cy="11" r="2"/><circle class="st2" cx="270" cy="61" r="2"/><circle class="st2" cx="270" cy="51" r="2"/><circle class="st2" cx="270" cy="41" r="2"/><circle class="st2" cx="270" cy="31" r="2"/><circle class="st2" cx="270" cy="21" r="2"/><circle class="st2" cx="270" cy="11" r="2"/><circle class="st2" cx="263" cy="51" r="2"/><circle class="st2" cx="263" cy="41" r="2"/><circle class="st2" cx="263" cy="31" r="2"/><circle class="st2" cx="263" cy="21" r="2"/><circle class="st2" cx="263" cy="11" r="2"/><circle class="st2" cx="256" cy="51" r="2"/><circle class="st2" cx="256" cy="41" r="2"/><circle class="st2" cx="256" cy="31" r="2"/><circle class="st2" cx="256" cy="21" r="2"/><circle class="st2" cx="256" cy="11" r="2"/><circle class="st2" cx="249" cy="41" r="2"/><circle class="st2" cx="249" cy="31" r="2"/><circle class="st2" cx="249" cy="21" r="2"/><circle class="st2" cx="249" cy="11" r="2"/><circle class="st2" cx="242" cy="41" r="2"/><circle class="st2" cx="242" cy="31" r="2"/><circle class="st2" cx="242" cy="21" r="2"/><circle class="st2" cx="242" cy="11" r="2"/><circle class="st2" cx="235" cy="31" r="2"/><circle class="st2" cx="235" cy="21" r="2"/><circle class="st2" cx="235" cy="11" r="2"/><circle class="st2" cx="228" cy="31" r="2"/><circle class="st2" cx="228" cy="21" r="2"/><circle class="st2" cx="228" cy="11" r="2"/><circle class="st2" cx="221" cy="21" r="2"/><circle class="st2" cx="221" cy="11" r="2"/><circle class="st2" cx="214" cy="21" r="2"/><circle class="st2" cx="214" cy="11" r="2"/><circle class="st2" cx="207" cy="21" r="2"/><circle class="st2" cx="207" cy="11" r="2"/></svg>