<svg xmlns="http://www.w3.org/2000/svg" width="24" height="24" viewBox="0 0 24 24"><path fill="#E22470" fill-rule="evenodd" d="M0 3.99C0 1.79 1.78 0 3.99 0h16.02C22.21 0 24 1.78 24 3.99v16.02c0 2.2-1.78 3.99-3.99 3.99H3.99A3.99 3.99 0 0 1 0 20.01V3.99zM20.57 12c0-1.18.01-2.35-.05-3.54a5.1 5.1 0 0 0-1.39-3.59 5.1 5.1 0 0 0-3.59-1.38c-1.18-.07-2.35-.06-3.54-.06-1.18 0-2.35-.01-3.54.06a5.1 5.1 0 0 0-3.59 1.38 5.1 5.1 0 0 0-1.38 3.6c-.07 1.18-.06 2.35-.06 3.53 0 1.19-.01 2.36.06 3.54a5.1 5.1 0 0 0 1.38 3.6c1 1 2.22 1.31 3.6 1.38 1.18.06 2.35.05 3.53.05 1.19 0 2.36.01 3.54-.05a5.1 5.1 0 0 0 3.6-1.39c1-1 1.31-2.22 1.38-3.59.06-1.18.05-2.35.05-3.54zM12 4.97c1.25 0 3.93-.1 5.06.35.39.15.68.34.98.64.3.3.5.6.65.99.44 1.12.34 3.8.34 5.05s.1 3.93-.34 5.06a2.8 2.8 0 0 1-.65.98c-.3.3-.6.5-.98.65-1.13.44-3.8.34-5.06.34-1.25 0-3.93.1-5.05-.34a2.84 2.84 0 0 1-1.63-1.63c-.45-1.13-.35-3.8-.35-5.06 0-1.25-.1-3.93.35-5.05.15-.4.34-.68.64-.99.3-.3.6-.49.99-.64 1.12-.45 3.8-.35 5.05-.35zM16.4 12a4.4 4.4 0 1 0-8.78 0 4.4 4.4 0 0 0 8.78 0zm1.2-4.57a1.02 1.02 0 0 0-2.05 0c0 .57.46 1.02 1.03 1.02.57 0 1.02-.45 1.02-1.02zM14.86 12a2.86 2.86 0 0 1-5.72 0 2.86 2.86 0 0 1 5.72 0z"/></svg>