<svg xmlns="http://www.w3.org/2000/svg" xmlns:v="https://vecta.io/nano" width="290" height="289" fill="none"><path d="M144.92 288.37c79.595 0 144.121-64.525 144.121-144.121S224.515.128 144.92.128.799 64.654.799 144.249 65.324 288.37 144.92 288.37z" fill="#3987f0"/><g fill="#fff"><path d="M228.542 108.159l-6.511 3.722.063.109 6.448-3.831zm-15.638-9.287l.122-7.499-.122-.001v7.5zm-117.74 0l-7.269 1.848a7.5 7.5 0 0 0 7.269 5.652v-7.5zm-5.335-20.989l7.269-1.848-.021-.081-7.248 1.928zM80.63 71.01v7.5l.259-.005-.259-7.495zm-18.397 0v-7.5 7.5zm-9.198 9.287h-7.5 7.5zm20.605 9.287l7.247-1.931a7.5 7.5 0 0 0-7.247-5.569v7.5zm25.388 95.287l7.248-1.928-.001-.003-7.247 1.931zm9.199 6.873v-7.5l-.26.004.26 7.496zm82.786 0v7.5h.023l-.023-7.5zm8.187-5.108l6.71 3.349.011-.021-6.721-3.328zm30.171-60.925l6.721 3.329.06-.125-6.781-3.204zm5.683-21.275a25.99 25.99 0 0 0-9.287-9.451l-7.66 12.896c1.621.963 2.975 2.338 3.925 3.999l13.022-7.444zm-9.287-9.451c-3.861-2.293-8.251-3.54-12.74-3.613l-.244 14.998a10.76 10.76 0 0 1 5.324 1.511l7.66-12.896zm-12.862-3.614H95.164v15h117.74v-15zm-110.471 5.652l-5.336-20.989L82.56 79.73l5.335 20.99 14.538-3.696zm-5.357-21.07a16.79 16.79 0 0 0-6.171-9.136l-8.978 12.016a1.79 1.79 0 0 1 .653.976l14.496-3.856zm-6.171-9.136c-3.033-2.266-6.746-3.435-10.535-3.304l.518 14.991c.364-.013.73.099 1.038.329l8.978-12.016zM80.63 63.51H62.233v15H80.63v-15zm-18.397 0c-4.452 0-8.707 1.786-11.833 4.942l10.657 10.556c.324-.327.749-.498 1.176-.498v-15zM50.4 68.452c-3.123 3.154-4.865 7.416-4.865 11.845h15c0-.497.196-.96.523-1.289L50.4 68.452zm-4.865 11.845c0 4.429 1.742 8.691 4.865 11.845l10.657-10.556c-.327-.33-.523-.792-.523-1.289h-15zM50.4 92.142c3.126 3.156 7.381 4.942 11.833 4.942v-15c-.427 0-.851-.171-1.176-.498L50.4 92.142zm11.833 4.942h11.406v-15H62.233v15zm4.159-5.569l25.388 95.288 14.494-3.862-25.388-95.287-14.494 3.862zm25.387 95.285a16.79 16.79 0 0 0 6.171 9.136l8.978-12.017c-.309-.231-.545-.572-.653-.976l-14.496 3.857zm6.171 9.136c3.033 2.266 6.746 3.434 10.535 3.303l-.519-14.991c-.364.013-.73-.099-1.038-.329l-8.978 12.017zm10.276 3.308h82.786v-15h-82.786v15zm82.809 0c3.098-.01 6.129-.885 8.755-2.524l-7.94-12.726c-.265.165-.562.249-.861.25l.046 15zm8.755-2.524c2.625-1.638 4.74-3.972 6.119-6.735l-13.421-6.698a1.76 1.76 0 0 1-.638.707l7.94 12.726zm6.13-6.756l30.171-60.924-13.442-6.657-30.171 60.925 13.442 6.656zm30.231-61.049c1.833-3.879 2.685-8.152 2.482-12.439l-14.983.707a11.23 11.23 0 0 1-1.061 5.324l13.562 6.408zm2.482-12.439c-.202-4.287-1.452-8.46-3.643-12.149l-12.896 7.662a11.21 11.21 0 0 1 1.556 5.194l14.983-.707z"/><g stroke="#fff"><path d="M125.772 224.25c0 3.62-2.887 6.431-6.297 6.431s-6.298-2.811-6.298-6.431 2.887-6.431 6.298-6.431 6.297 2.811 6.297 6.431zm59.838 0c0 3.62-2.888 6.431-6.298 6.431s-6.298-2.811-6.298-6.431 2.888-6.431 6.298-6.431 6.298 2.811 6.298 6.431z" stroke-width="15"/><path d="M133.806 142.237l31.223-26.558-12.232 24.948 13.858 5.52-31.223 26.557 12.231-24.947-13.857-5.52z" stroke-width="4.889" stroke-linejoin="round"/></g></g></svg>