<svg xmlns="http://www.w3.org/2000/svg" width="214" height="94" fill="none"><style>path {stroke: #C4DDF9}</style><path opacity=".4" d="M27.5 18.5h113c3 0 5.5 2.5 5.5 5.5v59c0 3-2.5 5.5-5.5 5.5h-113c-3 0-5.5-2.5-5.5-5.5V24c0-3 2.5-5.5 5.5-5.5z"/><path opacity=".4" d="M6.5 1.5h43C52.5 1.5 55 4 55 7v81c0 3-2.5 5.5-5.5 5.5h-43C3.5 93.5 1 91 1 88V7c0-3 2.5-5.5 5.5-5.5z"/><path opacity=".4" d="M213 1v23c0 3-2.5 5.5-5.5 5.5h-38c-3 0-5.5-2.5-5.5-5.5V1h49z"/><path opacity=".4" d="M190 1v66c0 3-2.5 5.5-5.5 5.5h-136c-3 0-5.5-2.5-5.5-5.5V1h147z"/></svg>