<svg xmlns="http://www.w3.org/2000/svg" width="44" height="41" viewBox="0 0 44 41"><g fill="none" transform="translate(-3 -3)"><circle cx="23.42" cy="23.57" r="19.59" fill="#7BC8FF"/><path fill="#FFF" d="M47 35.1V5.74c0-.99-.88-1.86-1.88-1.86H23.5v.1A19.54 19.54 0 0 0 3.87 23.53c0 5.15 1.95 9.9 5.2 13.3h36.05c1 0 1.88-.74 1.88-1.73z"/><circle cx="23.42" cy="23.57" r="13.29" fill="#0B3E86"/><g fill="#FFF"><path d="M16.32 20.88c0-.18.13-.43.28-.53l6.55-4.68c.15-.1.4-.1.55 0l6.35 4.69c.16.1.23.35.23.54v.62c0 .19-.06.04-.25.04H16.66c-.19 0-.34 0-.34-.19v-.49zm.24 7.82c.1-.17.32-.35.5-.35h12.7c.19 0 .42.18.51.34l.63 1.08c.1.17.02.27-.17.27H16.11c-.18 0-.26-.1-.17-.27l.62-1.08z"/><path d="M21.8 22.53v.83c0 .3.13.38.43.38h.25l-.63 4.85h3.13l-.58-4.85h.2c.3 0 .6-.08.6-.38v-.83h-3.4zm-4.36 0v.83c0 .3 0 .38.3.38H18l-.62 4.85h3.13l-.58-4.85h.2c.3 0 .72-.08.72-.38v-.83h-3.4zm8.72 0v.83c0 .3.25.38.55.38h.25l-.63 4.85h3.13l-.58-4.85h.2c.3 0 .48-.08.48-.38v-.83h-3.4z"/></g><path fill="#7BC8FF" d="M30.7 6.58a4.84 4.84 0 0 0 4.84 4.84 4.85 4.85 0 0 0 4.02-7.54h-8.05c-.5.72-.8 1.71-.8 2.7z"/><path fill="#FFF" d="M36.72 8.07c-.2.2-.48.33-.82.4v.6h-.66v-.59c-.5-.04-.89-.18-1.19-.42l.28-.6c.3.21.62.34.97.37v-.97a3.89 3.89 0 0 1-.61-.21 1.1 1.1 0 0 1-.42-.33.92.92 0 0 1-.17-.58c0-.3.1-.54.32-.75.2-.21.48-.35.82-.4v-.6h.66v.59c.2.03.4.08.58.15.19.07.34.16.45.26l-.27.6c-.26-.18-.53-.3-.81-.35v1c.24.06.43.12.6.2a.9.9 0 0 1 .57.9 1 1 0 0 1-.3.73zm-1.68-2.15a.6.6 0 0 0 .26.16v-.83a.53.53 0 0 0-.26.16.4.4 0 0 0-.1.28c0 .1.03.17.1.23zm1.14 1.45a.28.28 0 0 0-.09-.21.73.73 0 0 0-.24-.15v.78c.22-.07.33-.2.33-.42z"/><path fill="#7BC8FF" d="M45.75 21.5a6.9 6.9 0 1 0 1.21 13.72c0-.04.04-.08.04-.12V21.6a8.3 8.3 0 0 0-1.25-.1z"/><path fill="#FFF" d="M47 24.95v-.97h-4.36v1.22h1.46c.84 0 1.42.24 1.53.96h-3v.97h3c-.1.73-.81 1.22-1.8 1.22h-1.2v.71l2.86 3.65H47v-.4l-2.44-3h.09c1.04 0 2.1-.62 2.35-1.47v-2.01c-.24-.28-.24-.52-.48-.67v-.2H47z"/></g></svg>