<svg xmlns="http://www.w3.org/2000/svg" width="48" height="48" viewBox="0 0 48 48"><g fill="none"><circle cx="23.42" cy="23.62" r="19.6" fill="#FFF"/><path fill="#7BC8FF" d="M25.18 12.45c0 .92-1.28 1.68-1.47 2.54-.2.89.6 2.13.22 2.93-.39.81-1.87.94-2.43 1.64s-.36 2.18-1.06 2.74c-.7.55-2.1.04-2.9.43-.8.39-1.26 1.8-2.15 2-.86.2-1.88-.87-2.8-.87-.92 0-1.94 1.06-2.8.87-.89-.2-1.35-1.61-2.15-2-.81-.4-2.2.12-2.9-.43-.7-.56-.5-2.04-1.07-2.74-.55-.7-2.03-.83-2.43-1.64-.38-.8.43-2.04.23-2.93-.2-.86-1.47-1.62-1.47-2.54 0-.91 1.28-1.68 1.47-2.53.2-.9-.61-2.13-.23-2.93.4-.81 1.88-.95 2.43-1.65.56-.7.37-2.17 1.07-2.73.7-.56 2.09-.04 2.9-.43.8-.39 1.26-1.8 2.15-2 .86-.2 1.88.87 2.8.87.92 0 1.94-1.07 2.8-.87.89.2 1.35 1.61 2.15 2 .8.4 2.2-.13 2.9.43.7.56.5 2.03 1.06 2.73.56.7 2.04.84 2.43 1.65.39.8-.43 2.04-.22 2.93.2.85 1.47 1.62 1.47 2.53zm14.38 22.29L33.82 29a2.3 2.3 0 0 0-1.46-.62l-8.52.18a.92.92 0 0 0-.9.9l-.2 8.54a2.3 2.3 0 0 0 .6 1.48l3.45 3.45a19.6 19.6 0 0 0 12.77-8.2zM25.15 30.8a1.75 1.75 0 1 1 2.47 2.47 1.75 1.75 0 0 1-2.47-2.47z"/><path fill="#073984" d="M32.36 22.8l-8.52.2a.92.92 0 0 0-.9.88l-.2 8.55c-.01.48.26 1.14.6 1.48l13.67 13.67c.34.34.98.46 1.32.12l9.32-9.31c.34-.34.18-.95-.16-1.29L33.82 23.43a2.3 2.3 0 0 0-1.46-.62zm-4.74 4.9a1.75 1.75 0 1 1-2.47-2.46 1.75 1.75 0 0 1 2.47 2.46z"/><path fill="#FFF" d="M16.2 7.03h-3.23c.57.45.98 1.1 1.1 2h2.14v.98h-2.12c-.2 2-1.78 3.27-4.29 3.35a94.62 94.62 0 0 1 4.84 5.6h-1.88a111.83 111.83 0 0 0-4.8-5.5v-1.22h1.08c2.11 0 3.25-.88 3.38-2.23H7.96v-.98h4.4c-.27-1.14-1.3-1.7-3.01-1.7h-1.4V6.05h8.26v.98z"/></g></svg>