<svg xmlns="http://www.w3.org/2000/svg" version="1.1" id="Layer_1" x="0" y="0" viewBox="0 0 318 305" xml:space="preserve"><style>.st5{fill:#C4DDF9}</style><g opacity=".5"><path opacity=".2" fill="#C4DDF9" d="M111.5 33.9L94.6 52.8 56.9 94.7-.3 69.3V0h92.2z"/><path d="M222.2 0L152 78.3l-39.2-17.4-18.2-8.1-77.9-34.5L18.6 0zm95.9 264.7V305h-129l1.3-13 105.2-22.5 3.2-.7 3.2-.7 3.9-.8 3.9-.8 1.7-.4 6.6-1.4z" fill="#C4DDF9" opacity=".1"/><path opacity=".15" fill="#C4DDF9" d="M138.4 17l-25.6 43.9-31.5 54.2L-.3 97.4V0h123.5z"/><g opacity=".32"><circle class="st5" cx="311" cy="228" r="2"/><circle class="st5" cx="311" cy="238" r="2"/><circle class="st5" cx="311" cy="248" r="2"/><circle class="st5" cx="311" cy="258" r="2"/><circle class="st5" cx="311" cy="268" r="2"/><circle class="st5" cx="311" cy="278" r="2"/><circle class="st5" cx="311" cy="288" r="2"/><circle class="st5" cx="311" cy="298" r="2"/><circle class="st5" cx="304" cy="228" r="2"/><circle class="st5" cx="304" cy="238" r="2"/><circle class="st5" cx="304" cy="248" r="2"/><circle class="st5" cx="304" cy="258" r="2"/><circle class="st5" cx="304" cy="268" r="2"/><circle class="st5" cx="304" cy="278" r="2"/><circle class="st5" cx="304" cy="288" r="2"/><circle class="st5" cx="304" cy="298" r="2"/><circle class="st5" cx="297" cy="238" r="2"/><circle class="st5" cx="297" cy="248" r="2"/><circle class="st5" cx="297" cy="258" r="2"/><circle class="st5" cx="297" cy="268" r="2"/><circle class="st5" cx="297" cy="278" r="2"/><circle class="st5" cx="297" cy="288" r="2"/><circle class="st5" cx="297" cy="298" r="2"/><circle class="st5" cx="290" cy="248" r="2"/><circle class="st5" cx="290" cy="258" r="2"/><circle class="st5" cx="290" cy="268" r="2"/><circle class="st5" cx="290" cy="278" r="2"/><circle class="st5" cx="290" cy="288" r="2"/><circle class="st5" cx="290" cy="298" r="2"/><circle class="st5" cx="283" cy="258" r="2"/><circle class="st5" cx="283" cy="268" r="2"/><circle class="st5" cx="283" cy="278" r="2"/><circle class="st5" cx="283" cy="288" r="2"/><circle class="st5" cx="283" cy="298" r="2"/><circle class="st5" cx="276" cy="268" r="2"/><circle class="st5" cx="276" cy="278" r="2"/><circle class="st5" cx="276" cy="288" r="2"/><circle class="st5" cx="276" cy="298" r="2"/><circle class="st5" cx="269" cy="278" r="2"/><circle class="st5" cx="269" cy="288" r="2"/><circle class="st5" cx="269" cy="298" r="2"/><circle class="st5" cx="262" cy="288" r="2"/><circle class="st5" cx="262" cy="298" r="2"/><circle class="st5" cx="255" cy="298" r="2"/></g></g></svg>