<svg width="40" height="40" viewBox="0 0 40 40" fill="none" xmlns="http://www.w3.org/2000/svg">
<path d="M35 7.5H5C4.33696 7.5 3.70107 7.76339 3.23223 8.23223C2.76339 8.70107 2.5 9.33696 2.5 10V30C2.5 30.663 2.76339 31.2989 3.23223 31.7678C3.70107 32.2366 4.33696 32.5 5 32.5H35C35.663 32.5 36.2989 32.2366 36.7678 31.7678C37.2366 31.2989 37.5 30.663 37.5 30V10C37.5 9.33696 37.2366 8.70107 36.7678 8.23223C36.2989 7.76339 35.663 7.5 35 7.5V7.5ZM32.25 10L20 18.475L7.75 10H32.25ZM5 30V11.1375L19.2875 21.025C19.4967 21.1702 19.7453 21.2479 20 21.2479C20.2547 21.2479 20.5033 21.1702 20.7125 21.025L35 11.1375V30H5Z" fill="#85B6FF"/>
</svg>
