<!DOCTYPE svg PUBLIC "-//W3C//DTD SVG 1.1//EN" "http://www.w3.org/Graphics/SVG/1.1/DTD/svg11.dtd">
<!-- Uploaded to: SVG Repo, www.svgrepo.com, Transformed by: SVG Repo Mixer Tools -->
<svg width="175px" height="175px" viewBox="0 0 32.00 32.00" id="Camada_1" version="1.1" xml:space="preserve" xmlns="http://www.w3.org/2000/svg" xmlns:xlink="http://www.w3.org/1999/xlink" fill="#2555e4" stroke="#2555e4" stroke-width="0.992">
<g id="SVGRepo_bgCarrier" stroke-width="0"/>
<g id="SVGRepo_tracerCarrier" stroke-linecap="round" stroke-linejoin="round"/>
<g id="SVGRepo_iconCarrier">
<style type="text/css"> .st0{fill:#FFFFFF;} </style>
<path d="M6,2h20c2.2,0,4,1.8,4,4v20c0,2.2-1.8,4-4,4H6c-2.2,0-4-1.8-4-4V6C2,3.8,3.8,2,6,2z"/>
<path class="st0" d="M7.4,18.6c0-3.6,1.8-7.2,3.9-7.2c1.1,0,2.1,0.7,3.6,2.8c-1.4,2.1-2.2,3.5-2.2,3.5c-1.9,2.9-2.5,3.6-3.6,3.6 C8,21.2,7.4,20.3,7.4,18.6 M19.7,17.3l-1.3-2.1c-0.3-0.6-0.7-1.1-1-1.6c1.2-1.8,2.1-2.7,3.3-2.7c2.4,0,4.3,3.5,4.3,7.8 c0,1.6-0.5,2.6-1.6,2.6C22.2,21.2,21.7,20.5,19.7,17.3 M16.3,12.1c-1.8-2.2-3.2-3.1-5-3.1C7.7,9,5,13.7,5,18.6c0,3.1,1.5,5,4,5 c1.8,0,3.1-0.8,5.4-4.9c0,0,1-1.7,1.6-2.9c0.2,0.4,0.5,0.8,0.7,1.2l1.1,1.8c2.1,3.5,3.3,4.7,5.4,4.7c2.4,0,3.8-2,3.8-5.1 c0-5.2-2.8-9.5-6.2-9.5C19,9,17.6,10.4,16.3,12.1"/>
</g>
</svg>