<svg width="40" height="40" viewBox="0 0 40 40" fill="none" xmlns="http://www.w3.org/2000/svg">
<path d="M30 13.3333H33.3333C33.7754 13.3333 34.1993 13.5089 34.5118 13.8214C34.8244 14.134 35 14.5579 35 15V35C35 35.442 34.8244 35.8659 34.5118 36.1785C34.1993 36.491 33.7754 36.6666 33.3333 36.6666H6.66667C6.22464 36.6666 5.80072 36.491 5.48816 36.1785C5.17559 35.8659 5 35.442 5 35V15C5 14.5579 5.17559 14.134 5.48816 13.8214C5.80072 13.5089 6.22464 13.3333 6.66667 13.3333H10V11.6666C10 9.01446 11.0536 6.47092 12.9289 4.59556C14.8043 2.72019 17.3478 1.66663 20 1.66663C22.6522 1.66663 25.1957 2.72019 27.0711 4.59556C28.9464 6.47092 30 9.01446 30 11.6666V13.3333ZM8.33333 16.6666V33.3333H31.6667V16.6666H8.33333ZM18.3333 23.3333H21.6667V26.6666H18.3333V23.3333ZM11.6667 23.3333H15V26.6666H11.6667V23.3333ZM25 23.3333H28.3333V26.6666H25V23.3333ZM26.6667 13.3333V11.6666C26.6667 9.89852 25.9643 8.20282 24.714 6.95258C23.4638 5.70234 21.7681 4.99996 20 4.99996C18.2319 4.99996 16.5362 5.70234 15.286 6.95258C14.0357 8.20282 13.3333 9.89852 13.3333 11.6666V13.3333H26.6667Z" fill="#85B6FF"/>
</svg>
