<svg xmlns="http://www.w3.org/2000/svg" viewBox="0 0 352.35 352.44"><defs><style>.cls-1{fill:#fff;}</style></defs><title>Asset 1</title><g id="Layer_2" data-name="Layer 2"><g id="Layer_1-2" data-name="Layer 1"><path class="cls-1" d="M352.35,176.34c-.15,97.15-79.21,176.11-176.3,176.1C78.64,352.42-.29,273,0,175.23.28,78.84,79.59,0,176.21,0,273.17,0,352.5,79.46,352.35,176.34Zm-175.88-162C87.08,14.18,14.07,86.51,13.67,175.6,13.27,265.08,86.38,338.75,175.81,339s162.55-72.87,162.47-162.7A161.82,161.82,0,0,0,176.47,14.34Z"/><path class="cls-1" d="M42.55,140.72c3.13-22.77,7.81-46,23-65.12C70.68,69.05,77.92,63.83,85,59.31c2.15-1.36,8.72.62,10.29,3s.26,9.14-1.91,10.45C70.94,86.38,66,109.26,60.89,132.12a76.84,76.84,0,0,0-1.55,10.7c-.48,5.78-2.85,9.63-9.19,9.42C45,152.07,42.24,148,42.55,140.72Z"/></g></g></svg>