<?xml version="1.0" encoding="utf-8"?>
<!-- Generator: Adobe Illustrator 23.0.3, SVG Export Plug-In . SVG Version: 6.00 Build 0)  -->
<svg version="1.1" id="Capa_1" xmlns="http://www.w3.org/2000/svg" xmlns:xlink="http://www.w3.org/1999/xlink" x="0px" y="0px"
	 viewBox="0 0 295.9 295.9" style="enable-background:new 0 0 295.9 295.9;" xml:space="preserve">
<path d="M68.4,148.7v31.4c0,0.4,0.2,39,0.2,39.3c0.5,42.2,35.1,76.5,76.8,76.5c42.2,0,77-34.3,77-76.6V116.2c3-2.9,5-7.3,5-12.2
	V15.8c0-8.7-6.8-15.8-15.5-15.8c-8.7,0-15.5,7.1-15.5,15.8v88.1c0,4.9,2,9.3,5,12.2v103.2c0,31.1-25.3,56.6-56.4,56.6
	c-27.3,0-50.3-20.1-55.3-46.1h36.5L68.4,148.7z"/>
</svg>
