<svg xmlns="http://www.w3.org/2000/svg" viewBox="0 0 92.71 116.43"><defs><style>.cls-1{fill:#f88e9e;}.cls-2,.cls-3{fill:none;stroke-linecap:round;stroke-miterlimit:10;}.cls-2{stroke:#f88e9e;stroke-width:5px;}.cls-3{stroke:#fff;stroke-width:3px;}</style></defs><title>Asset 2</title><g id="Layer_2" data-name="Layer 2"><g id="Layer_1-2" data-name="Layer 1"><path class="cls-1" d="M9.13,47.5C5.78,46.23-1.2,42,.18,36.31a47.52,47.52,0,0,1,92.35,0c1.38,5.72-5.62,9.88-9,11.19C74.86,50.93,66.85,52,46.35,52,27.85,52,17.9,50.82,9.13,47.5Z"/><path class="cls-2" d="M5.17,102.6c2.16-10.82,10-9.26,12.15-20.08s-5.69-12.39-3.53-23.21,10-9.27,12.15-20.09"/><path class="cls-2" d="M24.76,111.93c.92-9.2,6.78-8.61,7.7-17.81s-4.94-9.79-4-19,6.78-8.62,7.7-17.82-4.94-9.79-4-19"/><path class="cls-2" d="M84.24,104.6c-2.15-10.82-10-9.26-12.15-20.08s5.69-12.39,3.54-23.21S65.63,52,63.47,41.22"/><path class="cls-2" d="M64.65,113.93c-.92-9.2-6.78-8.61-7.7-17.81s4.94-9.79,4-19-6.78-8.62-7.7-17.82,4.94-9.79,4-19"/><path class="cls-3" d="M22.64,26.32A11.61,11.61,0,0,1,38.89,24"/><path class="cls-3" d="M55.2,23.91a11.61,11.61,0,0,1,16.33,1.83"/></g></g></svg>