<svg xmlns="http://www.w3.org/2000/svg" viewBox="0 0 180.21 95.65"><defs><style>.cls-1{fill:#02387b;}.cls-2{fill:#829bcc;}.cls-3{fill:#fff;}</style></defs><title>Asset 3</title><g id="Layer_2" data-name="Layer 2"><g id="Layer_1-2" data-name="Layer 1"><path class="cls-1" d="M150.82,28.72C150.59,56.12,116.65,78,75,77.7S-.23,55.87,0,28.48c0,0,30.82-5.92,63.06-5.48C97.82,23.48,150.82,28.72,150.82,28.72Z"/><path class="cls-2" d="M138,56.07c.14,0-.19.18-.29.28C124.05,69.43,101,77.91,75,77.7,39.62,77.41,10.06,61.86,2.11,40.39c0-.09-.17-.31-.1-.26C18.82,52.48,101.82,58.48,138,56.07Z"/><path class="cls-1" d="M130.48,95.65c-20.49.28-37.39-20.9-37.75-47.32s16-48,36.44-48.33c0,0-11.82,24.15-11.82,46.87C117.35,70.5,130.48,95.65,130.48,95.65Z"/><path class="cls-1" d="M180.21,76.39c-22.07.3-40.15-13.32-40.39-30.44s17.47-31.23,39.54-31.53c0,0-15.87,15.72-16,30.44C163.22,60.17,180.21,76.39,180.21,76.39Z"/><path class="cls-3" d="M40.94,31.21c1.16,4.07-1.75,8.47-6.51,9.82s-9.55-.85-10.71-4.92Z"/><path class="cls-3" d="M16.57,59.24a21.48,21.48,0,0,0,7.94,2.2,57.35,57.35,0,0,0,8.29.3c2.77-.1,5.52-.4,8.26-.68s5.49-.68,8.24-1.13l0,.1a40.73,40.73,0,0,1-8.14,2,54.58,54.58,0,0,1-8.38.49,57.18,57.18,0,0,1-8.37-.61,21.81,21.81,0,0,1-7.93-2.61Z"/></g></g></svg>