<svg width="150" height="143" viewBox="0 0 150 143" fill="none" xmlns="http://www.w3.org/2000/svg">
<path d="M98.2271 94.5088C85.1694 107.566 70.7267 116.714 57.9598 120.97C45.1454 125.241 34.2605 124.521 28.0085 118.269C21.7565 112.017 21.0356 101.132 25.3071 88.3172C29.5627 75.5503 38.7106 61.1076 51.7682 48.0499C64.8259 34.9922 79.2687 25.8444 92.0355 21.5887C104.85 17.3173 115.735 18.0381 121.987 24.2901C128.239 30.5421 128.96 41.427 124.688 54.2414C120.433 67.0083 111.285 81.4511 98.2271 94.5088Z" stroke="url(#paint0_linear_22_70)" stroke-width="1.5"/>
<path d="M91.4258 99.7293C75.4334 108.962 59.1152 114.061 45.6819 114.867C32.1985 115.676 21.8711 112.163 17.4503 104.506C13.0295 96.8485 15.1504 86.1479 22.5929 74.8756C30.0079 63.6452 42.582 52.0622 58.5744 42.829C74.5667 33.5959 90.885 28.4978 104.318 27.6915C117.802 26.8822 128.129 30.3957 132.55 38.0528C136.971 45.7099 134.85 56.4104 127.407 67.6827C119.992 78.9131 107.418 90.4961 91.4258 99.7293Z" stroke="url(#paint1_linear_22_70)" stroke-width="1.5"/>
<defs>
<linearGradient id="paint0_linear_22_70" x1="51.2379" y1="47.5195" x2="101.479" y2="80.875" gradientUnits="userSpaceOnUse">
<stop stop-color="#FF62B7"/>
<stop offset="1" stop-color="#9F53FF"/>
</linearGradient>
<linearGradient id="paint1_linear_22_70" x1="58.1994" y1="42.1795" x2="98.0958" y2="87.4018" gradientUnits="userSpaceOnUse">
<stop stop-color="#FF62B7"/>
<stop offset="1" stop-color="#9F53FF"/>
</linearGradient>
</defs>
</svg>
