<svg width="65" height="74" viewBox="0 0 65 74" fill="none" xmlns="http://www.w3.org/2000/svg">
<path d="M10.5478 27.2857L0 29.5714L10.5478 31.8571L13.1847 41L16.2611 31.8571L26.8089 29.5714L16.2611 27.2857L12.7452 17L10.5478 27.2857Z" fill="#2C0958"/>
<path d="M54.9149 35L48.9531 36.3333L54.9149 37.6667L56.4054 43L58.1442 37.6667L64.106 36.3333L58.1442 35L56.1569 29L54.9149 35Z" fill="#2C0958"/>
<path d="M20.6944 66.4286L17.4843 67.1905L20.6944 67.9524L21.497 71L22.4333 67.9524L25.6435 67.1905L22.4333 66.4286L21.3632 63L20.6944 66.4286Z" fill="#2C0958"/>
<path d="M5.04459 66L0 67.3333L5.04459 68.6667L6.30573 74L7.77707 68.6667L12.8217 67.3333L7.77707 66L6.09554 60L5.04459 66Z" fill="#2C0958"/>
<path d="M32.5235 6.85714L25.6445 8.38095L32.5235 9.90476L34.2433 16L36.2496 9.90476L43.1286 8.38095L36.2496 6.85714L33.9566 0L32.5235 6.85714Z" fill="#2C0958"/>
<path d="M40.5071 26.4286L37.2969 27.1905L40.5071 27.9524L41.3096 31L42.2459 27.9524L45.4561 27.1905L42.2459 26.4286L41.1759 23L40.5071 26.4286Z" fill="#2C0958"/>
</svg>
