<svg xmlns="http://www.w3.org/2000/svg" xmlns:xlink="http://www.w3.org/1999/xlink" viewBox="0 0 500 500"><defs><clipPath id="freepik--clip-path--inject-3"><path d="M271.67,312.44a39.33,39.33,0,0,0,0,20.4h42.6s-4.48-12.94,0-20.4Z" style="fill:#fff"></path></clipPath><clipPath id="freepik--clip-path-2--inject-3"><path d="M272.33,357.11a39.44,39.44,0,0,0,0,20.4h41.94s-4.48-12.94,0-20.4Z" style="fill:#fff"></path></clipPath><clipPath id="freepik--clip-path-3--inject-3"><path d="M314.27,333.34h-42.6a.5.5,0,0,1-.49-.37,40.37,40.37,0,0,1,0-20.68.5.5,0,0,1,.48-.35h42.6a.51.51,0,0,1,.43.76c-4.31,7.18,0,19.85,0,20a.5.5,0,0,1-.47.66Zm-42.22-1h41.53c-.83-2.68-3.54-12.69-.16-19.4H272A39.75,39.75,0,0,0,272.05,332.34Z" style="fill:#263238;clip-path:url(#freepik--clip-path--inject-3)"></path></clipPath><clipPath id="freepik--clip-path-4--inject-3"><path d="M314.27,378H272.33a.51.51,0,0,1-.48-.38,40.27,40.27,0,0,1,0-20.68.5.5,0,0,1,.47-.34h41.94a.5.5,0,0,1,.43.25.52.52,0,0,1,0,.51c-4.31,7.17,0,19.84,0,20a.51.51,0,0,1-.07.46A.49.49,0,0,1,314.27,378Zm-41.55-1h40.86c-.83-2.69-3.54-12.69-.16-19.4H272.71A39.74,39.74,0,0,0,272.72,377Z" style="fill:#263238;clip-path:url(#freepik--clip-path-2--inject-3)"></path></clipPath></defs><g id="freepik--background-simple--inject-3"><path d="M411,111.85s-24.44-47.5-78.41-54.54S241,84.58,201.26,102.18c-20.8,9.21-44.56,5.63-66.64,10.09C64,126.53,37.43,215.87,66.84,266.68c25.46,44,70.26,66.86,138.49,72.14s116.09,11.43,177.2-31.67S439.55,174.31,411,111.85Z" style="fill:#92E3A9"></path><path d="M411,111.85s-24.44-47.5-78.41-54.54S241,84.58,201.26,102.18c-20.8,9.21-44.56,5.63-66.64,10.09C64,126.53,37.43,215.87,66.84,266.68c25.46,44,70.26,66.86,138.49,72.14s116.09,11.43,177.2-31.67S439.55,174.31,411,111.85Z" style="fill:#fff;opacity:0.8"></path></g><g id="freepik--Books--inject-3"><path d="M396.18,204.9h0c-.41,0-40.91-.73-42-.73s-4.55,0-6.15-1.59-5-6.37-5.12-6.58a.54.54,0,0,1-.08-.41l10.5-43.8a.5.5,0,0,1,.6-.37.49.49,0,0,1,.37.6L343.87,195.6c.66.92,3.63,5,4.88,6.27s4.41,1.3,5.44,1.3,36.91.64,41.56.72l8-53.14a.5.5,0,0,1,1,.14l-8.05,53.58A.5.5,0,0,1,396.18,204.9Z" style="fill:#263238"></path><path d="M362.59,144.14h0l-3.33-.06a.51.51,0,0,1-.5-.51.54.54,0,0,1,.51-.49l3.34.06a.5.5,0,0,1,0,1Z" style="fill:#263238"></path><path d="M345.5,196.93a.5.5,0,0,1-.5-.5.5.5,0,0,1,.5-.5l43.75-.14,9.23-51-31.81-.58a.5.5,0,0,1-.49-.5.56.56,0,0,1,.51-.5l32.39.59a.5.5,0,0,1,.38.19.52.52,0,0,1,.11.4l-9.41,52a.49.49,0,0,1-.49.41l-44.17.15Z" style="fill:#263238"></path><path d="M394,202.36h0l-42.35-1.08a.56.56,0,0,1-.36-.17l-3.62-4a.51.51,0,0,1,0-.71.49.49,0,0,1,.7,0l3.48,3.82,41.7,1.07,7.56-45.81L398,151.11a.49.49,0,0,1,.11-.7.5.5,0,0,1,.7.12l3.32,4.59a.51.51,0,0,1,.08.38l-7.66,46.44A.5.5,0,0,1,394,202.36Z" style="fill:#263238"></path><path d="M355.44,199.09h6.13s-1,4.86-1.53,9.45-.77,10.48-.77,10.48l-3.57-6.65L351.35,218Z" style="fill:#263238"></path><path d="M97.09,209.19a.49.49,0,0,1-.46-.31.51.51,0,0,1,.27-.66l25.89-10.43a45.63,45.63,0,0,0,1.39-4.64c.12-.7-.31-1.75-1.27-3.1-.37-.52-12.62-18.41-14.6-21.29l-29.8,15.1a.49.49,0,0,1-.67-.21.5.5,0,0,1,.22-.68l30.19-15.3a.51.51,0,0,1,.64.16c.15.21,14.45,21.1,14.83,21.64.73,1,1.67,2.53,1.45,3.84s-1.45,4.87-1.5,5a.52.52,0,0,1-.29.31l-26.1,10.51A.46.46,0,0,1,97.09,209.19Z" style="fill:#263238"></path><path d="M90.88,209.44a.5.5,0,0,1-.41-.22l-1.18-1.72a.5.5,0,0,1,.83-.57l1.18,1.73a.51.51,0,0,1-.13.69A.52.52,0,0,1,90.88,209.44Z" style="fill:#263238"></path><path d="M88.26,205.61a.5.5,0,0,1-.41-.22L76.42,188.68a.5.5,0,0,1-.07-.41.51.51,0,0,1,.27-.32l29.87-14a.49.49,0,0,1,.62.16l16.07,22.43a.51.51,0,0,1-.11.7.5.5,0,0,1-.7-.12L106.54,175l-29,13.6,11.1,16.23a.5.5,0,0,1-.14.69A.47.47,0,0,1,88.26,205.61Z" style="fill:#263238"></path><path d="M122,195.88h-.1a.51.51,0,0,1-.39-.59l.68-3.08L107.8,170.78,82,183.41l-1.07,3.16a.51.51,0,0,1-.64.31.5.5,0,0,1-.31-.63l1.14-3.36a.51.51,0,0,1,.25-.29l26.42-12.91a.5.5,0,0,1,.64.17l14.78,22a.47.47,0,0,1,.08.38l-.72,3.29A.5.5,0,0,1,122,195.88Z" style="fill:#263238"></path><path d="M120.53,190.78l-2.22-3.12s2.84-1.24,5.37-2.65,5.61-3.4,5.61-3.4l-2.09,4.23,4.43.17Z" style="fill:#263238"></path><path d="M112.68,286.23h-.06a.53.53,0,0,1-.38-.27l-18.3-35a.53.53,0,0,1,0-.39.51.51,0,0,1,.25-.29l2.07-1a.5.5,0,0,1,.45.89l-1.61.81,17.73,33.93L143,252.77a.46.46,0,0,1,.21-.13l36.77-11.35-18.19-29-1.34.1a.49.49,0,0,1-.54-.46.5.5,0,0,1,.46-.53l1.65-.13a.48.48,0,0,1,.46.23l18.69,29.83a.5.5,0,0,1,0,.44.52.52,0,0,1-.32.31l-37.27,11.49-30.53,32.52A.52.52,0,0,1,112.68,286.23Z" style="fill:#263238"></path><path d="M113.08,281.46H113a.49.49,0,0,1-.35-.26l-17.5-33.41a.49.49,0,0,1,.13-.62c.08-.07,8.3-6.8,12.18-16.12,3.58-8.6,9.74-12.87,16.48-11.43a.49.49,0,0,1,.33.25l16.31,29.43a.5.5,0,0,1-.55.73c-.27-.06-6.7-1.39-8.15,4.8-1.56,6.62-8.39,15.14-11.67,19.23l-.36.46a59.85,59.85,0,0,1-6.43,6.82A.51.51,0,0,1,113.08,281.46ZM96.21,247.67l17,32.48a59.44,59.44,0,0,0,5.84-6.27l.36-.46c3.24-4,10-12.43,11.47-18.83,1.31-5.56,6.18-5.84,8.32-5.68L123.5,220.54c-6.14-1.19-11.78,2.86-15.13,10.89C104.83,239.93,97.78,246.32,96.21,247.67Z" style="fill:#263238"></path><path d="M140.13,250a.5.5,0,0,1-.44-.25l-16.31-29.44a.57.57,0,0,1,0-.34c1.18-5.5,7.22-8,19.58-8,10.79,0,15.16-3.43,15.2-3.46a.52.52,0,0,1,.4-.11.51.51,0,0,1,.34.23l18.3,29.83a.51.51,0,0,1-.15.68c-.05,0-1.34.86-8.88,3.24-5.23,1.66-11,1.43-15.65,1.25a49.21,49.21,0,0,0-5.54,0c-4.38.36-6.31,6-6.33,6a.5.5,0,0,1-.43.34Zm-15.78-30,15.71,28.36c.82-1.8,2.94-5.39,6.79-5.71a51.36,51.36,0,0,1,5.66,0c4.56.18,10.24.4,15.31-1.2a78.6,78.6,0,0,0,8.19-2.9l-17.73-28.92c-1.4.91-6.05,3.36-15.37,3.36C131.25,213,125.51,215.2,124.35,220Z" style="fill:#263238"></path><path d="M125.81,269.52a.5.5,0,0,1-.31-.1.51.51,0,0,1-.08-.71c1.93-2.42,3.46-4.56,4.81-6.45a36.41,36.41,0,0,1,5.2-6.34,24.45,24.45,0,0,1,5.7-3.66.49.49,0,0,1,.65.26.51.51,0,0,1-.26.66,23.72,23.72,0,0,0-5.44,3.5,35.15,35.15,0,0,0-5,6.17c-1.36,1.9-2.9,4-4.85,6.49A.5.5,0,0,1,125.81,269.52Z" style="fill:#263238"></path><path d="M144.5,250.83a.45.45,0,0,1-.3-.11.5.5,0,0,1-.09-.7,11.77,11.77,0,0,1,7.51-4.17l1.79-.14a69.53,69.53,0,0,0,22.34-5,.5.5,0,0,1,.36.94,71,71,0,0,1-22.62,5.06l-1.78.14a10.81,10.81,0,0,0-6.81,3.79A.53.53,0,0,1,144.5,250.83Z" style="fill:#263238"></path><path d="M101.55,252.42a.5.5,0,0,1-.37-.84,135.11,135.11,0,0,0,9.5-12.28c5.65-8.06,9.8-11.35,14.33-11.35a.5.5,0,0,1,.5.5.5.5,0,0,1-.5.5c-4.16,0-8.08,3.17-13.51,10.93a139.25,139.25,0,0,1-9.58,12.38A.5.5,0,0,1,101.55,252.42Z" style="fill:#263238"></path><path d="M104.73,257.59a.5.5,0,0,1-.34-.13.49.49,0,0,1,0-.7,139.26,139.26,0,0,0,9.51-12.29c5.64-8.06,9.79-11.35,14.33-11.35a.51.51,0,0,1,.5.5.5.5,0,0,1-.5.5c-4.17,0-8.08,3.17-13.52,10.93a139.25,139.25,0,0,1-9.58,12.38A.5.5,0,0,1,104.73,257.59Z" style="fill:#263238"></path><path d="M107.91,262.76a.5.5,0,0,1-.37-.83,139.87,139.87,0,0,0,9.51-12.28c5.64-8.07,9.79-11.36,14.33-11.36a.51.51,0,0,1,.5.5.5.5,0,0,1-.5.5c-4.17,0-8.08,3.17-13.51,10.93a140.28,140.28,0,0,1-9.59,12.38A.49.49,0,0,1,107.91,262.76Z" style="fill:#263238"></path><path d="M111.09,267.93a.46.46,0,0,1-.33-.13.49.49,0,0,1,0-.7,137.53,137.53,0,0,0,9.51-12.28c5.64-8.07,9.79-11.35,14.33-11.35a.5.5,0,0,1,.5.5.5.5,0,0,1-.5.5c-4.17,0-8.08,3.16-13.51,10.92a136.13,136.13,0,0,1-9.59,12.38A.49.49,0,0,1,111.09,267.93Z" style="fill:#263238"></path><path d="M130.58,226.57l-.17,0a.51.51,0,0,1-.3-.64c0-.05,1.79-4.71,8-4.71,11.65,0,19.21-1.8,20.21-4.83a.5.5,0,0,1,1,.32c-1.59,4.8-13.94,5.51-21.16,5.51-5.52,0-7,3.88-7.09,4.05A.5.5,0,0,1,130.58,226.57Z" style="fill:#263238"></path><path d="M134.16,232.53a.52.52,0,0,1-.31-.1.5.5,0,0,1-.08-.7c.12-.16,3-3.78,10.73-3.78,8.31,0,14.48-1.95,18.35-5.82a.5.5,0,0,1,.7,0,.5.5,0,0,1,0,.71C159.5,226.9,153.09,229,144.5,229c-7.18,0-9.92,3.36-9.94,3.39A.5.5,0,0,1,134.16,232.53Z" style="fill:#263238"></path><path d="M136.55,238.5a.54.54,0,0,1-.21-.05.49.49,0,0,1-.24-.66,10.39,10.39,0,0,1,9.6-5.46c8.36,0,15.68-1.75,19.59-4.67a.49.49,0,0,1,.7.1.51.51,0,0,1-.1.7c-5.87,4.39-16.08,4.87-20.19,4.87a9.42,9.42,0,0,0-8.7,4.88A.49.49,0,0,1,136.55,238.5Z" style="fill:#263238"></path><path d="M139.33,242.87a.36.36,0,0,1-.14,0,.51.51,0,0,1-.34-.62c.06-.18,1.38-4.32,8.41-4.73a66.22,66.22,0,0,0,21.31-4.73.5.5,0,1,1,.4.91,66.74,66.74,0,0,1-21.65,4.82c-6.29.37-7.46,3.87-7.51,4A.5.5,0,0,1,139.33,242.87Z" style="fill:#263238"></path><path d="M333,126.08h0a.51.51,0,0,1-.37-.23l-14.08-22.77L291.63,88.41a.48.48,0,0,1-.26-.38.5.5,0,0,1,.16-.43l20.12-18.23a.5.5,0,0,1,.37-.13.49.49,0,0,1,.34.17l1.05,1.2a.5.5,0,0,1-.75.65l-.71-.81L292.72,87.87l26.39,14.39a.66.66,0,0,1,.19.18l13.81,22.33,15.95-16.92-.27-.78a.5.5,0,1,1,.95-.33l.37,1.07a.5.5,0,0,1-.11.51l-16.61,17.61A.51.51,0,0,1,333,126.08Z" style="fill:#263238"></path><path d="M320.7,100.47a.58.58,0,0,1-.18,0,.51.51,0,0,1-.32-.45c0-.18-.23-4.57-4.44-4.44-4.74.1-11.59-3-14.89-4.45l-.36-.16a41.9,41.9,0,0,1-5.68-3.1.5.5,0,0,1-.22-.38.5.5,0,0,1,.17-.41L314,69.61a.51.51,0,0,1,.64,0,32.28,32.28,0,0,0,12.76,5.28c6.42.91,10.38,4.33,10.59,9.14a.5.5,0,0,1-.15.38l-16.76,16A.52.52,0,0,1,320.7,100.47Zm-4.79-5.93a5.09,5.09,0,0,1,5.14,4.4L337,83.81c-.3-4.23-3.83-7.12-9.72-8a32.36,32.36,0,0,1-12.88-5.23L295.93,87.35a40.53,40.53,0,0,0,5,2.67l.36.16c3.24,1.45,10,4.48,14.46,4.36Z" style="fill:#263238"></path><path d="M334.19,123a.54.54,0,0,1-.34-.12c-.08-.08-.87-.84-3.72-5.38-2-3.22-2.88-7.12-3.56-10.25a35.75,35.75,0,0,0-.93-3.67c-1-2.76-4.93-3.06-5-3.07a.5.5,0,0,1-.44-.32.52.52,0,0,1,.13-.54l16.76-15.95a.48.48,0,0,1,.32-.13c3.93-.19,6.68,3.45,8.84,11.77,1.86,7.15,4.85,9.4,4.88,9.42a.52.52,0,0,1,.21.36.51.51,0,0,1-.14.39L334.55,122.8A.51.51,0,0,1,334.19,123Zm-12.4-23.33c1.44.31,3.95,1.17,4.79,3.58a32.61,32.61,0,0,1,1,3.78c.67,3.06,1.51,6.86,3.44,9.94a57.15,57.15,0,0,0,3.23,4.79l15.93-16.57c-.95-.91-3.27-3.64-4.83-9.6-1.95-7.51-4.38-11-7.63-11h0Z" style="fill:#263238"></path><path d="M318.79,101.81a.51.51,0,0,1-.39-.19,16,16,0,0,0-3.24-3,24.8,24.8,0,0,0-4.94-2.27c-1.5-.57-3.2-1.22-5.17-2.1a.5.5,0,0,1-.25-.66.49.49,0,0,1,.66-.25c1.94.86,3.63,1.51,5.11,2.08a25,25,0,0,1,5.16,2.38,17.57,17.57,0,0,1,3.46,3.18.51.51,0,0,1-.09.71A.5.5,0,0,1,318.79,101.81Z" style="fill:#263238"></path><path d="M332.46,122.84a.51.51,0,0,1-.41-.21,48.89,48.89,0,0,1-7.3-14.21c-.14-.42-.28-.81-.4-1.16a7.38,7.38,0,0,0-3.62-3.79.5.5,0,1,1,.4-.91,8.2,8.2,0,0,1,4.16,4.36c.13.36.26.75.4,1.17a48.15,48.15,0,0,0,7.18,14,.49.49,0,0,1-.12.69A.45.45,0,0,1,332.46,122.84Z" style="fill:#263238"></path><path d="M332.11,86.76a.5.5,0,0,1-.48-.38c-.71-2.71-3.46-4.74-9.51-7a95,95,0,0,1-9.92-4.24.5.5,0,1,1,.47-.88,97,97,0,0,0,9.79,4.19c6.4,2.37,9.34,4.6,10.14,7.67a.5.5,0,0,1-.36.61Z" style="fill:#263238"></path><path d="M329.22,89.77a.5.5,0,0,1-.48-.37c-.71-2.72-3.46-4.74-9.51-7a96.12,96.12,0,0,1-9.92-4.25.5.5,0,1,1,.47-.88,93.89,93.89,0,0,0,9.8,4.19c6.39,2.38,9.33,4.6,10.13,7.67a.49.49,0,0,1-.36.61A.3.3,0,0,1,329.22,89.77Z" style="fill:#263238"></path><path d="M326.33,92.78a.5.5,0,0,1-.48-.37c-.71-2.72-3.46-4.74-9.51-7a95,95,0,0,1-9.92-4.24.5.5,0,1,1,.47-.89,93.89,93.89,0,0,0,9.8,4.19c6.39,2.38,9.33,4.6,10.13,7.68a.5.5,0,0,1-.36.61Z" style="fill:#263238"></path><path d="M323.44,95.8a.5.5,0,0,1-.48-.38c-.71-2.71-3.46-4.74-9.51-7a95,95,0,0,1-9.92-4.24.51.51,0,0,1-.21-.68.52.52,0,0,1,.68-.21,91.3,91.3,0,0,0,9.8,4.19c6.39,2.38,9.33,4.61,10.13,7.68a.5.5,0,0,1-.36.61Z" style="fill:#263238"></path><path d="M345.91,107.19h0c-3.39-.23-5.94-7.33-7.48-13.24-.93-3.56-3.67-3.89-3.79-3.9a.5.5,0,0,1-.44-.55.51.51,0,0,1,.54-.45c.15,0,3.55.38,4.66,4.64,2,7.69,4.46,12.36,6.57,12.5a.5.5,0,0,1,.47.53A.51.51,0,0,1,345.91,107.19Z" style="fill:#263238"></path><path d="M342.7,111.13a.48.48,0,0,1-.26-.07c-3.44-2-5.94-6-7.44-11.71-1.22-4.69-3.86-5.92-3.89-5.93a.5.5,0,0,1,.4-.91c.13,0,3.11,1.38,4.46,6.59,1.43,5.49,3.78,9.22,7,11.1a.5.5,0,0,1,.18.68A.51.51,0,0,1,342.7,111.13Z" style="fill:#263238"></path><path d="M339.4,113.68a.45.45,0,0,1-.31-.11c-4-3.17-6.07-9.91-6.79-12.67a6.36,6.36,0,0,0-4.63-4.82.5.5,0,0,1-.4-.58.51.51,0,0,1,.58-.41,7.35,7.35,0,0,1,5.42,5.56c1.44,5.53,3.85,10.07,6.44,12.14a.5.5,0,0,1,.08.71A.48.48,0,0,1,339.4,113.68Z" style="fill:#263238"></path><path d="M336.51,116.7a.52.52,0,0,1-.39-.19,46.28,46.28,0,0,1-7-13.62c-1.3-4-3.73-4.19-3.83-4.19a.51.51,0,0,1-.48-.53.46.46,0,0,1,.52-.47c.13,0,3.22.17,4.74,4.88a46.13,46.13,0,0,0,6.82,13.31.5.5,0,0,1-.09.7A.51.51,0,0,1,336.51,116.7Z" style="fill:#263238"></path><path d="M154.46,138.11l-.12,0-3.62-.9a.5.5,0,0,1-.3-.75l16.71-26.2a.5.5,0,0,1,.85.54l-16.34,25.61,2.6.65,16.51-24.55a.51.51,0,0,1,.67-.16l26.31,15.17,2.86-2.86-28.75-15a.5.5,0,0,1,.46-.89l29.36,15.36a.48.48,0,0,1,.26.37.48.48,0,0,1-.14.42l-3.61,3.62a.5.5,0,0,1-.6.08l-26.25-15.13-16.45,24.46A.49.49,0,0,1,154.46,138.11Z" style="fill:#263238"></path><path d="M200.52,169.27a.5.5,0,0,1-.24-.06l-22.13-12.65a.51.51,0,0,1-.25-.35l-7.23-43.36a.51.51,0,0,1,.42-.58.5.5,0,0,1,.57.42l7.19,43.12L200,167.87l-3.09-37.45a.52.52,0,0,1,.46-.54.5.5,0,0,1,.54.46L201,168.73a.48.48,0,0,1-.23.46A.43.43,0,0,1,200.52,169.27Z" style="fill:#263238"></path><path d="M200.52,169.27a.5.5,0,0,1-.44-.73l3.55-6.65-2.7-37.34a.5.5,0,1,1,1-.07L204.64,162a.6.6,0,0,1-.06.27L201,169A.5.5,0,0,1,200.52,169.27Z" style="fill:#263238"></path><path d="M163.49,177h-.1a.49.49,0,0,1-.39-.38l-7.68-35.23a.51.51,0,0,1,.39-.6.5.5,0,0,1,.59.39l7.44,34.14L178,155.83a.5.5,0,0,1,.81.59l-14.91,20.33A.48.48,0,0,1,163.49,177Z" style="fill:#263238"></path><path d="M163.49,177h-.06l-4.06-.45a.5.5,0,0,1-.43-.39l-8.58-39.3a.5.5,0,1,1,1-.21l8.51,38.94,3.7.41a.5.5,0,0,1,0,1Z" style="fill:#263238"></path><path d="M160.33,144.43a.5.5,0,0,1-.41-.79l11.75-16.26a.48.48,0,0,1,.69-.11.5.5,0,0,1,.12.7l-11.75,16.26A.49.49,0,0,1,160.33,144.43Z" style="fill:#263238"></path><path d="M161.23,152.11a.52.52,0,0,1-.29-.09.51.51,0,0,1-.11-.7l11.74-16.26a.49.49,0,0,1,.7-.11.5.5,0,0,1,.11.69L161.64,151.9A.49.49,0,0,1,161.23,152.11Z" style="fill:#263238"></path><path d="M162.13,159.79a.46.46,0,0,1-.29-.1.5.5,0,0,1-.11-.69l11.74-16.26a.5.5,0,0,1,.7-.12.51.51,0,0,1,.11.7l-11.74,16.26A.49.49,0,0,1,162.13,159.79Z" style="fill:#263238"></path><path d="M163,167.47a.45.45,0,0,1-.29-.1.5.5,0,0,1-.12-.7l11.75-16.26a.5.5,0,0,1,.69-.11.5.5,0,0,1,.12.7l-11.75,16.26A.5.5,0,0,1,163,167.47Z" style="fill:#263238"></path><path d="M192.85,137.66a.45.45,0,0,1-.25-.07l-15.81-9a.5.5,0,1,1,.5-.87l15.81,9a.51.51,0,0,1,.18.69A.5.5,0,0,1,192.85,137.66Z" style="fill:#263238"></path><path d="M192.85,144.88a.54.54,0,0,1-.25-.06l-15.81-9a.5.5,0,1,1,.5-.86l15.81,9a.5.5,0,0,1,.18.68A.5.5,0,0,1,192.85,144.88Z" style="fill:#263238"></path><path d="M195.1,152.56a.53.53,0,0,1-.24-.06l-15.81-9a.5.5,0,0,1-.19-.68.51.51,0,0,1,.69-.19l15.8,9a.49.49,0,0,1,.19.68A.5.5,0,0,1,195.1,152.56Z" style="fill:#263238"></path><path d="M195.56,160.24a.45.45,0,0,1-.25-.07l-15.81-9a.5.5,0,1,1,.5-.87l15.81,9a.5.5,0,0,1-.25.93Z" style="fill:#263238"></path><path d="M392,303a.39.39,0,0,1-.18,0l-30.76-12.32a.49.49,0,0,1-.3-.34.51.51,0,0,1,.1-.44l3.23-4a.51.51,0,0,1,.59-.14l27.64,12.41,13.9-26a.53.53,0,0,1,.51-.26l3.69.54a.48.48,0,0,1,.37.26.5.5,0,0,1,0,.46l-14,27.74a.5.5,0,0,1-.9-.45l13.68-27.12-2.65-.39L393,299a.51.51,0,0,1-.65.22l-27.71-12.44L362.08,290,392.21,302a.51.51,0,0,1,.28.65A.51.51,0,0,1,392,303Z" style="fill:#263238"></path><path d="M392.56,299.29a.5.5,0,0,1-.49-.36l-11.49-42.19-22.21-9.87,6.84,36.95a.5.5,0,0,1-.4.58.5.5,0,0,1-.58-.4l-7-37.88a.47.47,0,0,1,.18-.48.5.5,0,0,1,.51-.07l23.29,10.36a.5.5,0,0,1,.28.32L393,298.66a.52.52,0,0,1-.35.62Z" style="fill:#263238"></path><path d="M361.27,290.66a.49.49,0,0,1-.49-.42l-6.48-37a.61.61,0,0,1,0-.27l2.92-7.11a.5.5,0,0,1,.92.38l-2.86,7,6.45,36.88a.5.5,0,0,1-.41.58Z" style="fill:#263238"></path><path d="M405,269.44a.51.51,0,0,1-.48-.35l-10.84-33.22-12.22,20.77a.5.5,0,0,1-.86-.51l12.78-21.72a.49.49,0,0,1,.49-.24.5.5,0,0,1,.42.34l11.18,34.27a.49.49,0,0,1-.32.63Z" style="fill:#263238"></path><path d="M410.37,273.43a.5.5,0,0,1-.48-.34L397.51,235.2l-3.73,0a.5.5,0,0,1-.5-.5.52.52,0,0,1,.51-.5l4.09,0a.5.5,0,0,1,.47.35l12.49,38.23a.49.49,0,0,1-.32.63Z" style="fill:#263238"></path><path d="M390.16,284.56a.45.45,0,0,1-.25-.07.51.51,0,0,1-.19-.68l10-17.36a.51.51,0,0,1,.68-.19.52.52,0,0,1,.19.69l-10.05,17.36A.5.5,0,0,1,390.16,284.56Z" style="fill:#263238"></path><path d="M388.49,277a.43.43,0,0,1-.25-.07.5.5,0,0,1-.19-.68L398.1,258.9a.5.5,0,1,1,.86.5l-10,17.36A.5.5,0,0,1,388.49,277Z" style="fill:#263238"></path><path d="M386.81,269.46a.47.47,0,0,1-.25-.07.49.49,0,0,1-.18-.68l10.05-17.36a.5.5,0,0,1,.86.5l-10,17.36A.51.51,0,0,1,386.81,269.46Z" style="fill:#263238"></path><path d="M385.14,261.91a.47.47,0,0,1-.25-.07.49.49,0,0,1-.18-.68l10-17.36a.51.51,0,0,1,.69-.18.49.49,0,0,1,.18.68l-10.05,17.36A.5.5,0,0,1,385.14,261.91Z" style="fill:#263238"></path><path d="M385.17,284.61a.46.46,0,0,1-.2-.05l-16.64-7.39a.49.49,0,0,1-.25-.66.5.5,0,0,1,.66-.26l16.63,7.4a.5.5,0,0,1-.2,1Z" style="fill:#263238"></path><path d="M384.44,277.42a.65.65,0,0,1-.2,0L367.6,270a.5.5,0,1,1,.41-.91l16.63,7.39a.5.5,0,0,1-.2,1Z" style="fill:#263238"></path><path d="M381.42,270a.46.46,0,0,1-.2-.05l-16.64-7.39a.49.49,0,0,1-.25-.66.5.5,0,0,1,.66-.26l16.63,7.4a.5.5,0,0,1,.26.66A.51.51,0,0,1,381.42,270Z" style="fill:#263238"></path><path d="M380.2,262.41a.45.45,0,0,1-.2,0L363.36,255a.5.5,0,1,1,.4-.91l16.64,7.4a.5.5,0,0,1,.26.66A.52.52,0,0,1,380.2,262.41Z" style="fill:#263238"></path></g><g id="freepik--Plants--inject-3"><path d="M335.71,315.09c-2.8,6.93-5.68,1.36-5.22-27.67.21-13.61,1.17-41.41,16.22-35.29,14.45,5.88-4.6,47-4.6,47Zm20.67,4.12s31.37-32.69,19.61-42.95c-12.25-10.67-22.18,15.31-26.81,28.11-9.86,27.31-8.94,33.51-4,27.88ZM363,348.55s28.72-20.45,21.21-30c-7.82-9.93-19.18,8.49-24.57,17.61-11.49,19.45-11.69,24.33-7.13,20.73Zm7.77,29.25s28.72-20.45,21.21-30c-7.81-9.94-19.17,8.49-24.56,17.6-11.5,19.45-11.7,24.33-7.13,20.73ZM320.61,319s-40.19-20.92-46.72-6.75c-6.81,14.76,20.92,17,34.5,17.83,29,1.78,34.68-.84,27.89-4Zm5.66,23s-43.54-12.52-47.13,2.67C275.4,360.5,303,357.18,316.5,355.3c28.76-4,33.82-7.71,26.55-9.42Zm10,25.1s-37.12-9.57-39.8,3.36c-2.79,13.45,20.49,10,31.84,8.1,24.23-4.05,28.42-7.3,22.23-8.58Zm5.81,20.73s-35.89-13.46-39.93-.89c-4.21,13.09,19.31,12.13,30.8,11.44,24.52-1.46,29-4.24,23-6.17Zm-24-105s-16.38-50.92-35-41.67c-19.36,9.63,3,32.59,14.19,43.58,23.87,23.46,31.26,25.1,28.12,16.91Z" style="fill:#92E3A9"></path><path d="M335.71,315.09c-2.8,6.93-5.68,1.36-5.22-27.67.21-13.61,1.17-41.41,16.22-35.29,14.45,5.88-4.6,47-4.6,47Zm20.67,4.12s31.37-32.69,19.61-42.95c-12.25-10.67-22.18,15.31-26.81,28.11-9.86,27.31-8.94,33.51-4,27.88ZM363,348.55s28.72-20.45,21.21-30c-7.82-9.93-19.18,8.49-24.57,17.61-11.49,19.45-11.69,24.33-7.13,20.73Zm7.77,29.25s28.72-20.45,21.21-30c-7.81-9.94-19.17,8.49-24.56,17.6-11.5,19.45-11.7,24.33-7.13,20.73ZM320.61,319s-40.19-20.92-46.72-6.75c-6.81,14.76,20.92,17,34.5,17.83,29,1.78,34.68-.84,27.89-4Zm5.66,23s-43.54-12.52-47.13,2.67C275.4,360.5,303,357.18,316.5,355.3c28.76-4,33.82-7.71,26.55-9.42Zm10,25.1s-37.12-9.57-39.8,3.36c-2.79,13.45,20.49,10,31.84,8.1,24.23-4.05,28.42-7.3,22.23-8.58Zm5.81,20.73s-35.89-13.46-39.93-.89c-4.21,13.09,19.31,12.13,30.8,11.44,24.52-1.46,29-4.24,23-6.17Zm-24-105s-16.38-50.92-35-41.67c-19.36,9.63,3,32.59,14.19,43.58,23.87,23.46,31.26,25.1,28.12,16.91Z" style="fill:#fff;opacity:0.65"></path><path d="M362.35,423.63a.63.63,0,0,1-.62-.59c-1.51-26.61-9-58.74-20.5-88.15-9.7-24.76-50.48-74.67-50.9-75.17a.63.63,0,0,1,.09-.88.62.62,0,0,1,.88.09c.41.5,41.33,50.57,51.1,75.5C354,364,361.47,396.23,363,423a.63.63,0,0,1-.59.66Z" style="fill:#ccc"></path><path d="M333.62,318.89h-.07a.63.63,0,0,1-.55-.7l5.72-47.88a.62.62,0,0,1,1.24.15l-5.72,47.88A.63.63,0,0,1,333.62,318.89Z" style="fill:#ccc"></path><path d="M341.81,335.29a.72.72,0,0,1-.28-.07.63.63,0,0,1-.27-.85L362,294.13a.63.63,0,1,1,1.11.58L342.37,335A.64.64,0,0,1,341.81,335.29Z" style="fill:#ccc"></path><path d="M338.79,329.32h-.12l-43.36-8.83a.63.63,0,1,1,.25-1.23l43.36,8.83a.63.63,0,0,1,.48.74A.62.62,0,0,1,338.79,329.32Z" style="fill:#ccc"></path><path d="M350,358.12a.63.63,0,0,1-.47-1L375,328a.62.62,0,0,1,.94.82l-25.49,29.05A.64.64,0,0,1,350,358.12Z" style="fill:#ccc"></path><path d="M346.4,348.55h0l-32.73-.28a.63.63,0,0,1-.62-.63.64.64,0,0,1,.63-.62l32.73.28a.63.63,0,0,1,.62.63A.62.62,0,0,1,346.4,348.55Z" style="fill:#ccc"></path><path d="M327.6,373.31a.63.63,0,0,1-.63-.61.64.64,0,0,1,.6-.65l25.1-1a.63.63,0,0,1,.65.6.62.62,0,0,1-.6.65l-25.1,1Z" style="fill:#ccc"></path><path d="M357.85,387.48a.58.58,0,0,1-.37-.13.63.63,0,0,1-.13-.88l13.44-17.91a.63.63,0,0,1,.88-.13.62.62,0,0,1,.12.88l-13.44,17.92A.63.63,0,0,1,357.85,387.48Z" style="fill:#ccc"></path><path d="M358.84,394.14h0l-29.35-1.46a.63.63,0,0,1-.6-.66.63.63,0,0,1,.66-.59l29.36,1.46a.62.62,0,0,1,.59.65A.63.63,0,0,1,358.84,394.14Z" style="fill:#ccc"></path><path d="M414.86,354.75c-5.07,1.91-3.52-2.36,12.15-16.39,7.34-6.57,22.6-19.73,26.74-8.72,4,10.58-27.25,20.65-27.25,20.65Zm8,13s32.8.62,32.48-10.68c-.34-11.76-19.05-4.27-28.13-.44-19.37,8.18-22.22,11.71-16.81,11.55ZM410.47,385.7s25,5.23,26.38-3.46c1.45-9-13.94-6-21.44-4.41-16,3.45-18.69,5.74-14.53,6.4Zm-11.74,18.52s25,5.22,26.38-3.46c1.45-9-13.94-6-21.44-4.42-16,3.45-18.69,5.74-14.53,6.4Zm6.63-55.59S396.73,317,386,320.46c-11.19,3.63,1.25,19.48,7.48,27.11,13.3,16.3,17.49,18,15.81,12.89ZM395.89,363s-14.75-29.32-24.59-23.76C361.06,345,376.4,358,384,364.29c16.27,13.33,20.73,14.2,18.06,9.49Zm-8.45,17.64s-13.15-24.45-21.35-19.52c-8.53,5.13,4.75,15.82,11.34,20.92,14.07,10.89,17.85,11.53,15.49,7.61Zm-8.17,13.28s-10.48-25.71-19.16-21.68c-9,4.2,3.05,16.23,9.06,22,12.83,12.32,16.53,13.36,14.59,9.21Zm44-64.39s19-33.75,5-39.09c-14.64-5.57-15.86,17.61-16.2,29-.75,24.22,2,29,4.82,23.26Z" style="fill:#92E3A9"></path><path d="M414.86,354.75c-5.07,1.91-3.52-2.36,12.15-16.39,7.34-6.57,22.6-19.73,26.74-8.72,4,10.58-27.25,20.65-27.25,20.65Zm8,13s32.8.62,32.48-10.68c-.34-11.76-19.05-4.27-28.13-.44-19.37,8.18-22.22,11.71-16.81,11.55ZM410.47,385.7s25,5.23,26.38-3.46c1.45-9-13.94-6-21.44-4.41-16,3.45-18.69,5.74-14.53,6.4Zm-11.74,18.52s25,5.22,26.38-3.46c1.45-9-13.94-6-21.44-4.42-16,3.45-18.69,5.74-14.53,6.4Zm6.63-55.59S396.73,317,386,320.46c-11.19,3.63,1.25,19.48,7.48,27.11,13.3,16.3,17.49,18,15.81,12.89ZM395.89,363s-14.75-29.32-24.59-23.76C361.06,345,376.4,358,384,364.29c16.27,13.33,20.73,14.2,18.06,9.49Zm-8.45,17.64s-13.15-24.45-21.35-19.52c-8.53,5.13,4.75,15.82,11.34,20.92,14.07,10.89,17.85,11.53,15.49,7.61Zm-8.17,13.28s-10.48-25.71-19.16-21.68c-9,4.2,3.05,16.23,9.06,22,12.83,12.32,16.53,13.36,14.59,9.21Zm44-64.39s19-33.75,5-39.09c-14.64-5.57-15.86,17.61-16.2,29-.75,24.22,2,29,4.82,23.26Z" style="fill:#e5e5e5;opacity:0.65"></path><path d="M369.28,424a.6.6,0,0,1-.43-.17.63.63,0,0,1,0-.89c13.73-14.2,28.31-35.51,38.05-55.61,8.39-17.3,14.89-63.5,14.95-64a.64.64,0,0,1,.71-.54.63.63,0,0,1,.53.71c-.06.47-6.59,46.86-15.06,64.34-9.8,20.2-24.47,41.64-38.28,55.93A.6.6,0,0,1,369.28,424Z" style="fill:#ccc"></path><path d="M412.14,355.82a.63.63,0,0,1-.51-.26.64.64,0,0,1,.14-.88l28.28-20.48a.63.63,0,1,1,.74,1L412.51,355.7A.63.63,0,0,1,412.14,355.82Z" style="fill:#ccc"></path><path d="M407.45,368.23a.63.63,0,0,1-.17-1.23l31.58-8.76a.62.62,0,1,1,.33,1.2l-31.58,8.77A.44.44,0,0,1,407.45,368.23Z" style="fill:#ccc"></path><path d="M409.13,363.69a.6.6,0,0,1-.53-.3L392,336a.62.62,0,0,1,.21-.86.63.63,0,0,1,.86.21l16.61,27.4a.63.63,0,0,1-.21.86A.57.57,0,0,1,409.13,363.69Z" style="fill:#ccc"></path><path d="M399.3,383.79a.63.63,0,0,1,0-1.25l28-.72a.65.65,0,0,1,.65.61.63.63,0,0,1-.61.64l-28,.72Z" style="fill:#ccc"></path><path d="M402.64,377.19a.63.63,0,0,1-.46-.2l-15.94-17.55a.64.64,0,0,1,0-.89.63.63,0,0,1,.89.05l15.94,17.55a.63.63,0,0,1-.47,1Z" style="fill:#ccc"></path><path d="M393.1,392.22a.62.62,0,0,1-.44-.18l-12.87-12.86a.63.63,0,0,1,.89-.89l12.86,12.86a.63.63,0,0,1-.44,1.07Z" style="fill:#ccc"></path><path d="M387.57,402.42a.63.63,0,0,1-.07-1.25l16.14-1.66a.63.63,0,0,1,.13,1.25l-16.14,1.66Z" style="fill:#ccc"></path><path d="M384.51,406.22A.62.62,0,0,1,384,406l-13.66-16.33a.63.63,0,0,1,.08-.88.62.62,0,0,1,.88.08L385,405.19a.63.63,0,0,1-.08.88A.62.62,0,0,1,384.51,406.22Z" style="fill:#ccc"></path><path d="M173.49,315.09c2.8,6.93,5.68,1.36,5.23-27.67-.22-13.61-1.18-41.41-16.23-35.29-14.45,5.88,4.6,47,4.6,47Zm-20.67,4.12s-31.37-32.69-19.61-42.95c12.25-10.67,22.19,15.31,26.81,28.11,9.86,27.31,8.94,33.51,4,27.88Zm-6.62,29.34s-28.72-20.45-21.21-30c7.82-9.93,19.18,8.49,24.57,17.61,11.49,19.45,11.69,24.33,7.13,20.73Zm-7.77,29.25s-28.72-20.45-21.21-30c7.81-9.94,19.17,8.49,24.56,17.6,11.5,19.45,11.7,24.33,7.13,20.73ZM188.59,319s40.19-20.92,46.72-6.75c6.81,14.76-20.92,17-34.5,17.83-29,1.78-34.68-.84-27.89-4Zm-5.66,23s43.55-12.52,47.13,2.67c3.74,15.81-23.88,12.49-37.36,10.61-28.76-4-33.82-7.71-26.54-9.42Zm-10,25.1s37.12-9.57,39.8,3.36c2.79,13.45-20.49,10-31.84,8.1-24.23-4.05-28.42-7.3-22.23-8.58Zm-5.81,20.73S203,374.39,207.08,387c4.21,13.09-19.31,12.13-30.8,11.44-24.52-1.46-29-4.24-23-6.17Zm24-105s16.39-50.92,35-41.67c19.36,9.63-3,32.59-14.19,43.58-23.87,23.46-31.26,25.1-28.11,16.91Z" style="fill:#92E3A9"></path><path d="M173.49,315.09c2.8,6.93,5.68,1.36,5.23-27.67-.22-13.61-1.18-41.41-16.23-35.29-14.45,5.88,4.6,47,4.6,47Zm-20.67,4.12s-31.37-32.69-19.61-42.95c12.25-10.67,22.19,15.31,26.81,28.11,9.86,27.31,8.94,33.51,4,27.88Zm-6.62,29.34s-28.72-20.45-21.21-30c7.82-9.93,19.18,8.49,24.57,17.61,11.49,19.45,11.69,24.33,7.13,20.73Zm-7.77,29.25s-28.72-20.45-21.21-30c7.81-9.94,19.17,8.49,24.56,17.6,11.5,19.45,11.7,24.33,7.13,20.73ZM188.59,319s40.19-20.92,46.72-6.75c6.81,14.76-20.92,17-34.5,17.83-29,1.78-34.68-.84-27.89-4Zm-5.66,23s43.55-12.52,47.13,2.67c3.74,15.81-23.88,12.49-37.36,10.61-28.76-4-33.82-7.71-26.54-9.42Zm-10,25.1s37.12-9.57,39.8,3.36c2.79,13.45-20.49,10-31.84,8.1-24.23-4.05-28.42-7.3-22.23-8.58Zm-5.81,20.73S203,374.39,207.08,387c4.21,13.09-19.31,12.13-30.8,11.44-24.52-1.46-29-4.24-23-6.17Zm24-105s16.39-50.92,35-41.67c19.36,9.63-3,32.59-14.19,43.58-23.87,23.46-31.26,25.1-28.11,16.91Z" style="fill:#fff;opacity:0.65"></path><path d="M146.85,423.63h0a.63.63,0,0,1-.59-.66c1.51-26.74,9-59,20.59-88.54,9.76-24.93,50.68-75,51.09-75.5a.62.62,0,0,1,.88-.09.63.63,0,0,1,.09.88c-.41.5-41.2,50.42-50.9,75.17-11.52,29.41-19,61.54-20.5,88.15A.63.63,0,0,1,146.85,423.63Z" style="fill:#ccc"></path><path d="M175.58,318.89a.63.63,0,0,1-.62-.55l-5.72-47.88a.62.62,0,0,1,1.24-.15l5.72,47.88a.63.63,0,0,1-.55.7Z" style="fill:#ccc"></path><path d="M167.39,335.29a.64.64,0,0,1-.56-.34l-20.7-40.24a.63.63,0,0,1,.27-.85.65.65,0,0,1,.85.27l20.69,40.24a.63.63,0,0,1-.27.85A.72.72,0,0,1,167.39,335.29Z" style="fill:#ccc"></path><path d="M170.41,329.32a.62.62,0,0,1-.61-.5.63.63,0,0,1,.49-.74l43.35-8.83a.63.63,0,1,1,.25,1.23l-43.35,8.83Z" style="fill:#ccc"></path><path d="M159.24,358.12a.64.64,0,0,1-.47-.21l-25.49-29.05a.62.62,0,1,1,.94-.82l25.49,29a.63.63,0,0,1-.47,1Z" style="fill:#ccc"></path><path d="M162.81,348.55a.62.62,0,0,1-.63-.62.63.63,0,0,1,.62-.63l32.73-.28h0a.62.62,0,0,1,.63.62.63.63,0,0,1-.62.63l-32.73.28Z" style="fill:#ccc"></path><path d="M181.6,373.31h0l-25.1-1a.63.63,0,0,1,.05-1.25l25.1,1a.64.64,0,0,1,.6.65A.63.63,0,0,1,181.6,373.31Z" style="fill:#ccc"></path><path d="M151.35,387.48a.63.63,0,0,1-.5-.25l-13.44-17.92a.62.62,0,0,1,.12-.88.63.63,0,0,1,.88.13l13.44,17.91a.63.63,0,0,1-.13.88A.58.58,0,0,1,151.35,387.48Z" style="fill:#ccc"></path><path d="M150.37,394.14a.63.63,0,0,1-.63-.6.62.62,0,0,1,.59-.65l29.36-1.46a.61.61,0,0,1,.66.59.63.63,0,0,1-.6.66l-29.35,1.46Z" style="fill:#ccc"></path><path d="M94.35,354.75c5.06,1.91,3.51-2.36-12.16-16.39-7.34-6.57-22.6-19.73-26.74-8.72-4,10.58,27.25,20.65,27.25,20.65Zm-8,13s-32.81.62-32.49-10.68c.35-11.76,19-4.27,28.13-.44,19.37,8.18,22.22,11.71,16.82,11.55ZM98.73,385.7s-25,5.23-26.38-3.46c-1.44-9,13.94-6,21.44-4.41,16,3.45,18.69,5.74,14.53,6.4Zm11.74,18.52s-25,5.22-26.38-3.46c-1.45-9,13.94-6,21.44-4.42,16,3.45,18.69,5.74,14.53,6.4Zm-6.63-55.59s8.63-31.66,19.38-28.17c11.19,3.63-1.25,19.48-7.48,27.11-13.3,16.3-17.49,18-15.81,12.89ZM113.31,363s14.75-29.32,24.59-23.76c10.25,5.79-5.1,18.84-12.72,25.09-16.27,13.33-20.73,14.2-18.06,9.49Zm8.45,17.64s13.15-24.45,21.35-19.52c8.53,5.13-4.75,15.82-11.34,20.92-14.07,10.89-17.85,11.53-15.49,7.61Zm8.17,13.28s10.48-25.71,19.16-21.68c9,4.2-3.05,16.23-9.06,22-12.83,12.32-16.53,13.36-14.59,9.21Zm-44-64.39s-19-33.75-5-39.09c14.64-5.57,15.86,17.61,16.21,29,.74,24.22-2,29-4.83,23.26Z" style="fill:#92E3A9"></path><path d="M94.35,354.75c5.06,1.91,3.51-2.36-12.16-16.39-7.34-6.57-22.6-19.73-26.74-8.72-4,10.58,27.25,20.65,27.25,20.65Zm-8,13s-32.81.62-32.49-10.68c.35-11.76,19-4.27,28.13-.44,19.37,8.18,22.22,11.71,16.82,11.55ZM98.73,385.7s-25,5.23-26.38-3.46c-1.44-9,13.94-6,21.44-4.41,16,3.45,18.69,5.74,14.53,6.4Zm11.74,18.52s-25,5.22-26.38-3.46c-1.45-9,13.94-6,21.44-4.42,16,3.45,18.69,5.74,14.53,6.4Zm-6.63-55.59s8.63-31.66,19.38-28.17c11.19,3.63-1.25,19.48-7.48,27.11-13.3,16.3-17.49,18-15.81,12.89ZM113.31,363s14.75-29.32,24.59-23.76c10.25,5.79-5.1,18.84-12.72,25.09-16.27,13.33-20.73,14.2-18.06,9.49Zm8.45,17.64s13.15-24.45,21.35-19.52c8.53,5.13-4.75,15.82-11.34,20.92-14.07,10.89-17.85,11.53-15.49,7.61Zm8.17,13.28s10.48-25.71,19.16-21.68c9,4.2-3.05,16.23-9.06,22-12.83,12.32-16.53,13.36-14.59,9.21Zm-44-64.39s-19-33.75-5-39.09c14.64-5.57,15.86,17.61,16.21,29,.74,24.22-2,29-4.83,23.26Z" style="fill:#e5e5e5;opacity:0.65"></path><path d="M139.92,424a.61.61,0,0,1-.45-.19c-13.81-14.29-28.48-35.72-38.28-55.93-8.47-17.48-15-63.87-15.06-64.34a.63.63,0,0,1,.53-.71.64.64,0,0,1,.71.54c.06.46,6.56,46.67,14.95,64,9.74,20.1,24.32,41.41,38.05,55.61a.63.63,0,0,1,0,.89A.59.59,0,0,1,139.92,424Z" style="fill:#ccc"></path><path d="M97.06,355.82a.63.63,0,0,1-.37-.12L68.41,335.21a.63.63,0,1,1,.74-1l28.28,20.48a.64.64,0,0,1,.14.88A.64.64,0,0,1,97.06,355.82Z" style="fill:#ccc"></path><path d="M101.76,368.23a.47.47,0,0,1-.17,0L70,359.44a.62.62,0,1,1,.33-1.2L101.92,367a.63.63,0,0,1-.16,1.23Z" style="fill:#ccc"></path><path d="M100.07,363.69a.59.59,0,0,1-.33-.09.63.63,0,0,1-.21-.86l16.62-27.4a.63.63,0,1,1,1.07.65l-16.62,27.4A.6.6,0,0,1,100.07,363.69Z" style="fill:#ccc"></path><path d="M109.9,383.79h0l-28-.72a.63.63,0,0,1-.61-.64.66.66,0,0,1,.65-.61l28,.72a.62.62,0,0,1,.61.64A.63.63,0,0,1,109.9,383.79Z" style="fill:#ccc"></path><path d="M106.56,377.19a.62.62,0,0,1-.46-1L122,358.6a.63.63,0,0,1,.89-.05.64.64,0,0,1,0,.89L107,377A.63.63,0,0,1,106.56,377.19Z" style="fill:#ccc"></path><path d="M116.1,392.22a.63.63,0,0,1-.44-1.07l12.86-12.86a.63.63,0,0,1,.89.89L116.54,392A.62.62,0,0,1,116.1,392.22Z" style="fill:#ccc"></path><path d="M121.63,402.42h-.06l-16.14-1.66a.63.63,0,0,1,.13-1.25l16.14,1.66a.63.63,0,0,1-.07,1.25Z" style="fill:#ccc"></path><path d="M124.69,406.22a.62.62,0,0,1-.4-.15.63.63,0,0,1-.08-.88l13.66-16.33a.62.62,0,0,1,.88-.08.63.63,0,0,1,.08.88L125.17,406A.62.62,0,0,1,124.69,406.22Z" style="fill:#ccc"></path></g><g id="freepik--Character--inject-3"><rect x="187.65" y="311.7" width="105.72" height="21.64" style="fill:#fff"></rect><path d="M293.37,333.84H187.65a.51.51,0,0,1-.5-.5V311.7a.5.5,0,0,1,.5-.5H293.37a.5.5,0,0,1,.5.5v21.64A.5.5,0,0,1,293.37,333.84Zm-105.22-1H292.87V312.2H188.15Z" style="fill:#263238"></path><path d="M207.3,317.81H188.75a.5.5,0,0,1,0-1H207.3a.5.5,0,0,1,0,1Z" style="fill:#263238"></path><path d="M216,323.71h-2.53a.5.5,0,0,1-.5-.5.5.5,0,0,1,.5-.5H216a.5.5,0,0,1,.5.5A.5.5,0,0,1,216,323.71Z" style="fill:#263238"></path><path d="M209.27,323.71H188.46a.5.5,0,0,1-.5-.5.51.51,0,0,1,.5-.5h20.81a.5.5,0,0,1,.5.5A.5.5,0,0,1,209.27,323.71Z" style="fill:#263238"></path><path d="M197.46,329.83H188.9a.5.5,0,0,1-.5-.5.5.5,0,0,1,.5-.5h8.56a.5.5,0,0,1,.5.5A.5.5,0,0,1,197.46,329.83Z" style="fill:#263238"></path><path d="M271.67,312.44a39.33,39.33,0,0,0,0,20.4h42.6s-4.48-12.94,0-20.4Z" style="fill:#fff"></path><path d="M314.27,333.34h-42.6a.5.5,0,0,1-.49-.37,40.37,40.37,0,0,1,0-20.68.5.5,0,0,1,.48-.35h42.6a.51.51,0,0,1,.43.76c-4.31,7.18,0,19.85,0,20a.5.5,0,0,1-.47.66Zm-42.22-1h41.53c-.83-2.68-3.54-12.69-.16-19.4H272A39.75,39.75,0,0,0,272.05,332.34Z" style="fill:#263238"></path><g style="clip-path:url(#freepik--clip-path-3--inject-3)"><g style="opacity:0.24"><path d="M271.67,312.44a39.33,39.33,0,0,0,0,20.4h42.6s-4.48-12.94,0-20.4Z"></path><path d="M314.27,333.34h-42.6a.5.5,0,0,1-.49-.37,40.37,40.37,0,0,1,0-20.68.5.5,0,0,1,.48-.35h42.6a.51.51,0,0,1,.43.76c-4.31,7.18,0,19.85,0,20a.5.5,0,0,1-.47.66Zm-42.22-1h41.53c-.83-2.68-3.54-12.69-.16-19.4H272A39.75,39.75,0,0,0,272.05,332.34Z" style="fill:#263238"></path></g></g><path d="M188.9,329.33V314.56a1.37,1.37,0,0,1,1.37-1.37H316a1,1,0,0,0,1-1h0a1,1,0,0,0-1-1H186.87a1.37,1.37,0,0,0-1.37,1.37V331.4a2.21,2.21,0,0,0,2.21,2.22H316a1,1,0,0,0,1-1h0a1,1,0,0,0-1-1H191.11A2.22,2.22,0,0,1,188.9,329.33Z" style="fill:#263238"></path><path d="M316,334.12H187.71A2.72,2.72,0,0,1,185,331.4V312.49a1.87,1.87,0,0,1,1.87-1.87H316a1.54,1.54,0,1,1,0,3.07H190.27a.87.87,0,0,0-.87.87v14.77a1.72,1.72,0,0,0,1.71,1.72H316a1.54,1.54,0,1,1,0,3.07Zm-129.09-22.5a.87.87,0,0,0-.87.87V331.4a1.72,1.72,0,0,0,1.71,1.72H316a.54.54,0,1,0,0-1.07H191.11a2.71,2.71,0,0,1-2.71-2.72V314.56a1.87,1.87,0,0,1,1.87-1.87H316a.54.54,0,1,0,0-1.07Z" style="fill:#263238"></path><rect x="187.65" y="356.36" width="105.72" height="21.64" style="fill:#fff"></rect><path d="M293.37,378.5H187.65a.5.5,0,0,1-.5-.5V356.36a.51.51,0,0,1,.5-.5H293.37a.5.5,0,0,1,.5.5V378A.5.5,0,0,1,293.37,378.5Zm-105.22-1H292.87V356.86H188.15Z" style="fill:#263238"></path><path d="M208,361H189.42a.5.5,0,1,1,0-1H208a.5.5,0,1,1,0,1Z" style="fill:#263238"></path><path d="M216.69,366.94h-2.53a.51.51,0,0,1-.5-.5.5.5,0,0,1,.5-.5h2.53a.5.5,0,0,1,.5.5A.5.5,0,0,1,216.69,366.94Z" style="fill:#263238"></path><path d="M209.94,366.94h-20.8a.5.5,0,0,1-.5-.5.5.5,0,0,1,.5-.5h20.8a.5.5,0,0,1,.5.5A.5.5,0,0,1,209.94,366.94Z" style="fill:#263238"></path><path d="M198.13,373.05h-8.56a.5.5,0,0,1-.5-.5.5.5,0,0,1,.5-.5h8.56a.5.5,0,0,1,.5.5A.5.5,0,0,1,198.13,373.05Z" style="fill:#263238"></path><path d="M272.33,357.11a39.44,39.44,0,0,0,0,20.4h41.94s-4.48-12.94,0-20.4Z" style="fill:#fff"></path><path d="M314.27,378H272.33a.51.51,0,0,1-.48-.38,40.27,40.27,0,0,1,0-20.68.5.5,0,0,1,.47-.34h41.94a.5.5,0,0,1,.43.25.52.52,0,0,1,0,.51c-4.31,7.17,0,19.84,0,20a.51.51,0,0,1-.07.46A.49.49,0,0,1,314.27,378Zm-41.55-1h40.86c-.83-2.69-3.54-12.69-.16-19.4H272.71A39.74,39.74,0,0,0,272.72,377Z" style="fill:#263238"></path><g style="clip-path:url(#freepik--clip-path-4--inject-3)"><g style="opacity:0.24"><path d="M272.33,357.11a39.44,39.44,0,0,0,0,20.4h41.94s-4.48-12.94,0-20.4Z"></path><path d="M314.27,378H272.33a.51.51,0,0,1-.48-.38,40.27,40.27,0,0,1,0-20.68.5.5,0,0,1,.47-.34h41.94a.5.5,0,0,1,.43.25.52.52,0,0,1,0,.51c-4.31,7.17,0,19.84,0,20a.51.51,0,0,1-.07.46A.49.49,0,0,1,314.27,378Zm-41.55-1h40.86c-.83-2.69-3.54-12.69-.16-19.4H272.71A39.74,39.74,0,0,0,272.72,377Z" style="fill:#263238"></path></g></g><path d="M188.9,374V359.22a1.37,1.37,0,0,1,1.37-1.37H316a1,1,0,0,0,1-1h0a1,1,0,0,0-1-1H186.87a1.37,1.37,0,0,0-1.37,1.37v18.92a2.21,2.21,0,0,0,2.21,2.21H316a1,1,0,0,0,1-1h0a1,1,0,0,0-1-1H191.11A2.21,2.21,0,0,1,188.9,374Z" style="fill:#263238"></path><path d="M316,378.78H187.71a2.71,2.71,0,0,1-2.71-2.71V357.15a1.87,1.87,0,0,1,1.87-1.87H316a1.54,1.54,0,1,1,0,3.07H190.27a.87.87,0,0,0-.87.87V374a1.72,1.72,0,0,0,1.71,1.71H316a1.54,1.54,0,1,1,0,3.07Zm-129.09-22.5a.87.87,0,0,0-.87.87v18.92a1.72,1.72,0,0,0,1.71,1.71H316a.54.54,0,1,0,0-1.07H191.11A2.71,2.71,0,0,1,188.4,374V359.22a1.87,1.87,0,0,1,1.87-1.87H316a.54.54,0,1,0,0-1.07Z" style="fill:#263238"></path><path d="M189,398.62c.74-2.49,3.46-12.76.1-19.34H310.76v19.34Z" style="fill:#fff"></path><path d="M310.75,399.12H189a.51.51,0,0,1-.4-.2.51.51,0,0,1-.08-.45c.6-2,3.45-12.47.13-19a.5.5,0,0,1,0-.49.5.5,0,0,1,.43-.24H310.75a.5.5,0,0,1,.5.5v19.34A.5.5,0,0,1,310.75,399.12Zm-121.09-1H310.25V379.78H189.89C192.57,386,190.62,394.69,189.66,398.12Z" style="fill:#263238"></path><path d="M261.63,384.06H243.08a.5.5,0,0,1-.5-.5.5.5,0,0,1,.5-.5h18.55a.5.5,0,0,1,.5.5A.5.5,0,0,1,261.63,384.06Z" style="fill:#263238"></path><path d="M236.89,390h-2.53a.5.5,0,0,1-.5-.5.5.5,0,0,1,.5-.5h2.53a.5.5,0,0,1,.5.5A.5.5,0,0,1,236.89,390Z" style="fill:#263238"></path><path d="M261.92,390H241.11a.5.5,0,0,1-.5-.5.5.5,0,0,1,.5-.5h20.81a.51.51,0,0,1,.5.5A.5.5,0,0,1,261.92,390Z" style="fill:#263238"></path><path d="M261.48,396.08h-8.56a.5.5,0,0,1,0-1h8.56a.5.5,0,0,1,0,1Z" style="fill:#263238"></path><path d="M262.32,396.67V381.89a1.37,1.37,0,0,0-1.37-1.37H186.54a1,1,0,0,1-1-1h0a1,1,0,0,1,1-1H315.63a1.37,1.37,0,0,1,1.37,1.37v18.92a2.21,2.21,0,0,1-2.21,2.21H186.54a1,1,0,0,1-1-1h0a1,1,0,0,1,1-1h73.57A2.21,2.21,0,0,0,262.32,396.67Z" style="fill:#263238"></path><path d="M314.79,401.45H186.54a1.54,1.54,0,1,1,0-3.07h73.57a1.72,1.72,0,0,0,1.71-1.71V381.89A.87.87,0,0,0,261,381H186.54a1.54,1.54,0,1,1,0-3.07H315.63a1.87,1.87,0,0,1,1.87,1.87v18.92A2.72,2.72,0,0,1,314.79,401.45Zm-128.25-2.07a.54.54,0,1,0,0,1.07H314.79a1.72,1.72,0,0,0,1.71-1.71V379.82a.87.87,0,0,0-.87-.87H186.54a.54.54,0,1,0,0,1.07H261a1.87,1.87,0,0,1,1.87,1.87v14.78a2.72,2.72,0,0,1-2.71,2.71Z" style="fill:#263238"></path><path d="M189,421.28c.74-2.48,3.46-12.75.1-19.33H310.76v19.33Z" style="fill:#fff"></path><path d="M310.75,421.78H189a.48.48,0,0,1-.4-.2.49.49,0,0,1-.08-.44c.6-2,3.45-12.48.13-19a.5.5,0,0,1,0-.49.5.5,0,0,1,.43-.24H310.75a.5.5,0,0,1,.5.5v19.33A.5.5,0,0,1,310.75,421.78Zm-121.09-1H310.25V402.45H189.89C192.57,408.65,190.62,417.35,189.66,420.78Z" style="fill:#263238"></path><path d="M261.58,406.86H243a.5.5,0,0,1-.5-.5.5.5,0,0,1,.5-.5h18.56a.51.51,0,0,1,.5.5A.5.5,0,0,1,261.58,406.86Z" style="fill:#263238"></path><path d="M236.83,412.77H234.3a.5.5,0,1,1,0-1h2.53a.5.5,0,1,1,0,1Z" style="fill:#263238"></path><path d="M261.86,412.77H241.05a.5.5,0,1,1,0-1h20.81a.5.5,0,0,1,0,1Z" style="fill:#263238"></path><path d="M261.42,418.89h-8.56a.5.5,0,0,1-.5-.5.5.5,0,0,1,.5-.5h8.56a.5.5,0,0,1,.5.5A.5.5,0,0,1,261.42,418.89Z" style="fill:#263238"></path><path d="M262.32,419.33V404.56a1.37,1.37,0,0,0-1.37-1.37H186.54a1,1,0,0,1-1-1h0a1,1,0,0,1,1-1H315.63a1.37,1.37,0,0,1,1.37,1.37V421.4a2.21,2.21,0,0,1-2.21,2.22H186.54a1,1,0,0,1-1-1h0a1,1,0,0,1,1-1h73.57A2.22,2.22,0,0,0,262.32,419.33Z" style="fill:#92E3A9"></path><path d="M314.79,424.12H186.54a1.54,1.54,0,1,1,0-3.07h73.57a1.72,1.72,0,0,0,1.71-1.72V404.56a.87.87,0,0,0-.87-.87H186.54a1.54,1.54,0,1,1,0-3.07H315.63a1.87,1.87,0,0,1,1.87,1.87V421.4A2.72,2.72,0,0,1,314.79,424.12Zm-128.25-2.07a.54.54,0,1,0,0,1.07H314.79a1.72,1.72,0,0,0,1.71-1.72V402.49a.87.87,0,0,0-.87-.87H186.54a.54.54,0,1,0,0,1.07H261a1.87,1.87,0,0,1,1.87,1.87v14.77a2.72,2.72,0,0,1-2.71,2.72Z" style="fill:#263238"></path><path d="M189,353.28c.74-2.48,3.46-12.75.1-19.33H310.76v19.33Z" style="fill:#fff"></path><path d="M310.75,353.78H189a.48.48,0,0,1-.4-.2.49.49,0,0,1-.08-.44c.6-2,3.45-12.48.13-19a.5.5,0,0,1,0-.49.5.5,0,0,1,.43-.24H310.75a.5.5,0,0,1,.5.5v19.33A.5.5,0,0,1,310.75,353.78Zm-121.09-1H310.25V334.45H189.89C192.57,340.65,190.62,349.35,189.66,352.78Z" style="fill:#263238"></path><path d="M261.9,338.78H243.34a.5.5,0,0,1,0-1H261.9a.5.5,0,0,1,0,1Z" style="fill:#263238"></path><path d="M237.15,344.68h-2.53a.5.5,0,0,1-.5-.5.51.51,0,0,1,.5-.5h2.53a.5.5,0,0,1,.5.5A.5.5,0,0,1,237.15,344.68Z" style="fill:#263238"></path><path d="M262.18,344.68H241.37a.5.5,0,0,1-.5-.5.51.51,0,0,1,.5-.5h20.81a.5.5,0,0,1,.5.5A.5.5,0,0,1,262.18,344.68Z" style="fill:#263238"></path><path d="M261.75,350.8h-8.57a.5.5,0,0,1-.5-.5.51.51,0,0,1,.5-.5h8.57a.51.51,0,0,1,.5.5A.5.5,0,0,1,261.75,350.8Z" style="fill:#263238"></path><path d="M262.32,351.33V336.56a1.37,1.37,0,0,0-1.37-1.37H186.54a1,1,0,0,1-1-1h0a1,1,0,0,1,1-1H315.63a1.37,1.37,0,0,1,1.37,1.37V353.4a2.21,2.21,0,0,1-2.21,2.22H186.54a1,1,0,0,1-1-1h0a1,1,0,0,1,1-1h73.57A2.22,2.22,0,0,0,262.32,351.33Z" style="fill:#92E3A9"></path><path d="M314.79,356.12H186.54a1.54,1.54,0,1,1,0-3.07h73.57a1.72,1.72,0,0,0,1.71-1.72V336.56a.87.87,0,0,0-.87-.87H186.54a1.54,1.54,0,1,1,0-3.07H315.63a1.87,1.87,0,0,1,1.87,1.87V353.4A2.72,2.72,0,0,1,314.79,356.12Zm-128.25-2.07a.54.54,0,1,0,0,1.07H314.79a1.72,1.72,0,0,0,1.71-1.72V334.49a.87.87,0,0,0-.87-.87H186.54a.54.54,0,1,0,0,1.07H261a1.87,1.87,0,0,1,1.87,1.87v14.77a2.72,2.72,0,0,1-2.71,2.72Z" style="fill:#263238"></path><path d="M233.67,263.28s-10.34.34-25.34-3.33-27.33-1-29.66,13.33,36,29,62.66,34.34,53.34,7.66,66.34,2,12.66-26,7.66-35.34S293.67,263.62,285,265,233.67,263.28,233.67,263.28Z" style="fill:#263238"></path><path d="M286.07,313.4c-15.33,0-33.12-2.95-44.83-5.29-26.85-5.37-65.46-20.18-63.07-34.91.9-5.51,3.31-9.6,7.15-12.14,5.23-3.47,13.23-4,23.13-1.6,14.75,3.61,25.1,3.33,25.2,3.32h0c.43,0,42.71,3,51.22,1.68,7.75-1.2,25.49-.42,30.85,9.59,3.12,5.82,4.69,16.28,1.66,25-1.83,5.26-5.14,9.07-9.56,11C302.32,312.49,294.57,313.4,286.07,313.4ZM197.31,259c-4.64,0-8.51,1-11.44,2.91-3.6,2.39-5.86,6.25-6.71,11.47-2.19,13.47,34.76,28.26,62.27,33.77,18.1,3.62,50.75,8.69,66,2,4.16-1.82,7.28-5.41,9-10.41,2.91-8.38,1.35-18.74-1.59-24.23-5.11-9.54-22.3-10.23-29.81-9.08-8.59,1.33-49.36-1.51-51.42-1.66-.61,0-10.92.21-25.45-3.34A46,46,0,0,0,197.31,259Z" style="fill:#263238"></path><path d="M301,200.62q-2.14-14.42-4.29-28.82c-1.33-8.92-1.89-18.47-4.21-27.18-3-13-7.5-20-21-22.5s-28.5,12-28.5,18.5,4.64,21.17-2.5,44.25c-2.44,7.89,7,9,18.41,5.51Z" style="fill:#263238"></path><path d="M301,201.12l-.12,0-42-10.2c-8.5,2.59-15.21,2.49-18-.26-1.41-1.41-1.73-3.41-.95-5.92,5.53-17.88,3.94-30.81,3-38.54a48.19,48.19,0,0,1-.51-5.56c0-3.15,3.25-8,8.09-12,3.22-2.67,11.7-8.71,21-7,14.08,2.6,18.51,10.36,21.4,22.87a135.83,135.83,0,0,1,3.12,18.75c.34,2.8.68,5.7,1.1,8.48q1.16,7.78,2.32,15.57l2,13.24a.5.5,0,0,1-.15.45A.55.55,0,0,1,301,201.12Zm-42.09-11.24.12,0L300.4,200l-1.86-12.51q-1.17-7.78-2.32-15.58c-.42-2.79-.76-5.69-1.1-8.5a134.7,134.7,0,0,0-3.1-18.62c-2.87-12.42-7-19.62-20.61-22.14-6.16-1.14-13.7,1.39-20.18,6.78-4.55,3.79-7.73,8.4-7.73,11.23a49,49,0,0,0,.5,5.44c1,7.81,2.57,20.87-3,38.95-.66,2.14-.43,3.79.7,4.92,2.45,2.46,9,2.45,17.08,0A.4.4,0,0,1,258.91,189.88Z" style="fill:#263238"></path><path d="M264.75,180.62s-16.5,2.25-24.25,4.25S230,189.71,227.21,195s-6.94,24.94-10.94,33.19S205,238.62,203.75,247.37s5.75,11.75,11,12.75a94,94,0,0,0,11.75,1.25s8.5,20,25,21.5,28.75-10,36.25-14.25,8-14,8.25-25.25,6.9-36.55,5.15-43.55-4.37-8.15-15.73-14C280.56,183.35,271.75,180.12,264.75,180.62Z" style="fill:#92E3A9"></path><path d="M254.47,283.5c-1,0-2,0-3-.13-15.51-1.41-24.15-19-25.29-21.52a92.53,92.53,0,0,1-11.51-1.24c-4.84-.92-12.75-3.88-11.41-13.31.75-5.2,3.55-8.16,6.51-11.3a31.28,31.28,0,0,0,6.06-8.07c2.12-4.37,4.33-12.13,6.29-19,1.72-6,3.35-11.73,4.65-14.22,2.75-5.24,5.61-8.28,13.62-10.35,7.68-2,24.14-4.24,24.3-4.26h0c6.87-.5,15.59,2.54,20.94,5.28l1,.51c10.43,5.34,13.24,6.78,15,13.79,1,4.09-.66,13.74-2.43,24-1.28,7.33-2.59,14.9-2.7,19.72-.23,10.38-.47,21.12-8.5,25.67-1.51.85-3.18,2-5.12,3.29C275.83,277.11,266.37,283.5,254.47,283.5ZM264.8,181.11c-.6.09-16.65,2.3-24.17,4.24-7.69,2-10.32,4.76-13,9.84-1.26,2.4-2.87,8.05-4.58,14-2,6.89-4.19,14.7-6.35,19.15a32.41,32.41,0,0,1-6.23,8.32c-3,3.15-5.55,5.86-6.24,10.75-1.17,8.18,5.11,11.14,10.59,12.19a93.85,93.85,0,0,0,11.68,1.24.5.5,0,0,1,.44.3c.08.2,8.58,19.74,24.58,21.2,13,1.18,23.27-5.78,30.78-10.85,2-1.33,3.64-2.47,5.18-3.34,7-4,7.73-12.79,8-24.82.11-4.89,1.43-12.51,2.71-19.87,1.68-9.67,3.42-19.67,2.45-23.55-1.64-6.57-4.11-7.83-14.47-13.14l-1-.51C280,183.61,271.48,180.64,264.8,181.11Z" style="fill:#263238"></path><path d="M212.88,233.31c-3.81,4.56-8.19,7.45-9.13,14.06a12.39,12.39,0,0,0,0,4c1,1.54,4.16,5.19,10.26,3.45,7.64-2.19,6.82-12.83,2.18-19.38A4.68,4.68,0,0,0,212.88,233.31Z" style="fill:#fff"></path><path d="M210.93,255.74a9,9,0,0,1-7.55-4.13.46.46,0,0,1-.08-.19,12.88,12.88,0,0,1-.05-4.12c.75-5.2,3.55-8.17,6.52-11.3.9-1,1.83-1.94,2.72-3a.49.49,0,0,1,.45-.18,5.21,5.21,0,0,1,3.7,2.3c3.25,4.59,4.48,10.75,3,15a7.87,7.87,0,0,1-5.44,5.16A11.85,11.85,0,0,1,210.93,255.74Zm-6.66-4.6c1,1.56,4,4.76,9.64,3.16a6.81,6.81,0,0,0,4.77-4.53c1.39-4,.22-9.74-2.85-14.08a4.33,4.33,0,0,0-2.75-1.85c-.85,1-1.73,1.94-2.59,2.84-3,3.15-5.55,5.87-6.24,10.76A11.45,11.45,0,0,0,204.27,251.14Z" style="fill:#263238"></path><path d="M263.58,214.38c7-3.2,10.78-8.73,14-19.22a99.61,99.61,0,0,0,2.85-11.53c-4.75-1.82-10.66-3.37-15.66-3,0,0-7.12,1-14.21,2.2-.59,3.68-2,14.16-.35,22C252.23,214.38,256.59,217.58,263.58,214.38Z" style="fill:#fff"></path><path d="M258.82,216.08a6.87,6.87,0,0,1-3.14-.72c-2.83-1.42-4.79-4.85-6-10.48-1.65-7.79-.31-18.07.35-22.14a.49.49,0,0,1,.4-.41c7-1.22,14.16-2.2,14.23-2.21,5.85-.41,12.48,1.73,15.91,3a.51.51,0,0,1,.31.56A100.88,100.88,0,0,1,278,195.31c-3.33,10.88-7.32,16.35-14.25,19.53h0A12.13,12.13,0,0,1,258.82,216.08ZM251,183.25c-.66,4.23-1.87,14-.3,21.42,1.11,5.24,2.94,8.54,5.45,9.8,1.95,1,4.32.8,7.25-.54,6.63-3,10.47-8.35,13.7-18.91A100.85,100.85,0,0,0,279.84,184c-3.44-1.29-9.62-3.22-15-2.83C264.75,181.12,257.86,182.06,251,183.25Zm12.6,31.13h0Z" style="fill:#263238"></path><path d="M230.5,251.37a.46.46,0,0,1-.19,0,.49.49,0,0,1-.27-.65c.05-.12,5-12.45,5-15.81,0-2.36-1.08-4.75-2.33-7.52-.55-1.21-1.11-2.45-1.64-3.8-1.73-4.46,2.2-11.43,2.74-12.35.24-1.81,2.93-21.89,5.53-25.64a.49.49,0,0,1,.69-.12.5.5,0,0,1,.13.69c-2.52,3.64-5.35,25.09-5.37,25.3a.62.62,0,0,1-.07.19c0,.08-4.35,7.35-2.71,11.57.51,1.32,1.07,2.55,1.61,3.75,1.3,2.87,2.42,5.36,2.42,7.93,0,3.55-4.83,15.67-5,16.18A.48.48,0,0,1,230.5,251.37Z" style="fill:#263238"></path><path d="M206.75,226.37l3.75-4a41,41,0,0,0,7.75,3.25c10.13,3.37,14.75,5.5,15.25,11.5,0,0,6.75-4.25,13.5-3.5s12.75,3.5,14.75,3.75l2,.25.5,3.5-3.75,19.75-29.25-3-20-17.5Z" style="fill:#fff"></path><path d="M260.5,261.37h-.05l-29.25-3a.5.5,0,0,1-.28-.12l-20-17.5a.48.48,0,0,1-.15-.22l-4.5-14a.52.52,0,0,1,.12-.5l3.75-4a.5.5,0,0,1,.62-.08,40.64,40.64,0,0,0,7.65,3.2c10,3.33,14.66,5.47,15.5,11.16,1.9-1.06,7.47-3.81,13.15-3.18a56.16,56.16,0,0,1,11.48,2.81,23.91,23.91,0,0,0,3.27.94l2,.25a.51.51,0,0,1,.44.43l.5,3.5a.86.86,0,0,1,0,.16L261,261A.49.49,0,0,1,260.5,261.37Zm-29-4,28.63,2.93,3.65-19.22-.43-3-1.62-.21a22.49,22.49,0,0,1-3.46-1,55.26,55.26,0,0,0-11.29-2.77c-6.5-.73-13.11,3.39-13.17,3.43a.5.5,0,0,1-.49,0,.49.49,0,0,1-.28-.4c-.47-5.68-4.91-7.74-14.91-11.07a47.42,47.42,0,0,1-7.5-3.09l-3.27,3.49,4.36,13.59Z" style="fill:#263238"></path><polygon points="205.5 225.62 229.25 245.87 231.75 241.87 265.75 241.12 263.75 263.12 231.5 261.62 229.25 263.12 211.75 250.12 205.5 225.62" style="fill:#263238"></polygon><path d="M263.75,263.62h0l-32.09-1.5-2.11,1.41a.51.51,0,0,1-.58,0l-17.5-13a.47.47,0,0,1-.18-.28L205,225.74a.49.49,0,0,1,.22-.55.48.48,0,0,1,.58.05l23.31,19.87,2.2-3.51a.49.49,0,0,1,.41-.23l34-.75a.51.51,0,0,1,.38.16.52.52,0,0,1,.13.38l-2,22A.51.51,0,0,1,263.75,263.62Zm-32.25-2.5h0l31.77,1.48,1.91-21-33.17.73-2.36,3.77a.48.48,0,0,1-.34.23.51.51,0,0,1-.4-.11L206.37,227l5.82,22.8,17.08,12.69,1.95-1.31A.54.54,0,0,1,231.5,261.12Z" style="fill:#263238"></path><path d="M288.25,218.87l-.5,28.5s-14.75,8.25-23,10.5a54.3,54.3,0,0,1-14,2.25c-.75,0-4-5.25-5.75-7s-3.16-1.78-6.36-3.38c-4.46-2.23-6.39-2.62-6.14-1.62s.5,2,2.75,3.25,3.75,2.25,3.75,2.25l.5,1s-5.5-.75-7.75-1.25-8-4.5-8-4.5-2.45-.15-.7,2.85,3.45,3.15,3.45,3.15a9.08,9.08,0,0,0,2.5,4.75,37.67,37.67,0,0,0,3.5,2.75s-4.75-1.25-4.25,0,3.5,1.75,7.25,3.5,12.25,2,17,2.75a119.41,119.41,0,0,0,26,.5c10-1,25-7.75,27.75-10s1-27.5.25-33.25-2.25-16.5-3.25-21.5-5-12-7.5-13.5S288.75,194.12,288.25,218.87Z" style="fill:#fff"></path><path d="M268,270.1a110.84,110.84,0,0,1-15.57-1c-1.44-.23-3.25-.41-5.17-.6-4.35-.44-9.29-.94-12-2.19-1.36-.63-2.6-1.09-3.7-1.5-2.05-.77-3.4-1.27-3.8-2.27a.78.78,0,0,1,.12-.86c.37-.43,1.35-.44,2.46-.28-.5-.4-1.07-.87-1.7-1.42a9.3,9.3,0,0,1-2.6-4.71c-.66-.22-2.06-.93-3.45-3.31-.73-1.26-.89-2.19-.48-2.86a1.85,1.85,0,0,1,1.64-.74.43.43,0,0,1,.26.09c.05,0,5.69,3.95,7.82,4.42,1.64.37,5.1.87,6.77,1.11l0,0c-.38-.25-1.74-1.12-3.6-2.16-2.44-1.35-2.74-2.53-3-3.56a.84.84,0,0,1,.26-.93c.33-.26,1-.81,6.58,2,1.09.55,2,.91,2.74,1.22a9.83,9.83,0,0,1,3.75,2.25,36.55,36.55,0,0,1,2.9,3.67,20.37,20.37,0,0,0,2.6,3.2,55.47,55.47,0,0,0,13.77-2.25c7.51-2,20.66-9.22,22.63-10.31l.5-28.21h0c.33-16.14,2.51-26.51,6-28.43a2.18,2.18,0,0,1,2.27,0c2.69,1.61,6.74,8.85,7.73,13.83s2.52,15.92,3.26,21.53c.33,2.55,2.88,31-.43,33.7-2.87,2.35-18.09,9.12-28,10.11C275,270,271.42,270.1,268,270.1Zm-39.19-7.77c.38.52,1.61,1,3.14,1.55,1.12.41,2.38.88,3.77,1.53,2.52,1.18,7.37,1.67,11.64,2.1,1.93.2,3.75.38,5.23.61a118.2,118.2,0,0,0,25.87.5c9.76-1,24.68-7.6,27.48-9.89,2.35-1.92,1-25.42.07-32.8-.73-5.6-2.23-16.42-3.24-21.47s-5-11.81-7.27-13.16a1.19,1.19,0,0,0-1.27,0c-1.16.65-5,4.54-5.47,27.58l-.5,28.5a.48.48,0,0,1-.26.42c-.14.09-14.89,8.31-23.11,10.55a55.57,55.57,0,0,1-14.13,2.27c-.59,0-1.2-.73-3.3-3.6a37.82,37.82,0,0,0-2.8-3.55,9,9,0,0,0-3.43-2c-.79-.33-1.68-.69-2.81-1.25-3.79-1.9-5-2.08-5.4-2.1.24.94.52,1.75,2.48,2.84,2.24,1.25,3.77,2.26,3.79,2.27a.61.61,0,0,1,.17.19l.5,1a.53.53,0,0,1,0,.52.49.49,0,0,1-.48.2c-.22,0-5.54-.76-7.79-1.25s-7.14-3.87-8-4.49a.8.8,0,0,0-.61.27c-.09.14-.21.61.49,1.82,1.57,2.69,3.06,2.91,3.07,2.91a.51.51,0,0,1,.44.41,8.68,8.68,0,0,0,2.34,4.46,35.84,35.84,0,0,0,3.45,2.71.5.5,0,0,1-.41.9A12.22,12.22,0,0,0,228.8,262.33Zm58.95-15h0Z" style="fill:#263238"></path><path d="M226.5,254.87s5.95,3.53,10.41,4.52" style="fill:#fff"></path><path d="M236.91,259.88h-.11c-4.48-1-10.31-4.43-10.55-4.57a.51.51,0,0,1-.18-.69.49.49,0,0,1,.68-.17c.06,0,5.94,3.5,10.26,4.46a.5.5,0,0,1-.1,1Z" style="fill:#263238"></path><path d="M232.5,262.37a19.58,19.58,0,0,0,5.89,1.22" style="fill:#fff"></path><path d="M238.39,264.09a19.81,19.81,0,0,1-6.07-1.26.5.5,0,0,1-.29-.64.5.5,0,0,1,.65-.29,19.23,19.23,0,0,0,5.71,1.19.5.5,0,0,1,0,1Z" style="fill:#263238"></path><path d="M227.26,257.41a30.49,30.49,0,0,0,10.39,4.7" style="fill:#fff"></path><path d="M237.65,262.61l-.12,0A30.62,30.62,0,0,1,227,257.8a.5.5,0,0,1-.09-.7.5.5,0,0,1,.7-.09,30.21,30.21,0,0,0,10.2,4.61.49.49,0,0,1,.37.6A.5.5,0,0,1,237.65,262.61Z" style="fill:#263238"></path><path d="M281.48,268.68c9.77-1.81,22.28-7.53,24.77-9.56,2.75-2.25,1-27.5.25-33.25s-2.25-16.5-3.25-21.5-5-12-7.5-13.5-7,3.25-7.5,28l-.5,28.5s-5.73,3.2-12.05,6.16C278.14,256.18,282.25,261.78,281.48,268.68Z" style="fill:#92E3A9"></path><path d="M281.48,269.18a.55.55,0,0,1-.34-.13.51.51,0,0,1-.15-.42c.74-6.69-3.23-12.12-5.66-14.76a.52.52,0,0,1-.12-.43.49.49,0,0,1,.28-.36c5.49-2.57,10.59-5.36,11.76-6l.5-28.21c.33-16.14,2.51-26.51,6-28.43a2.18,2.18,0,0,1,2.27,0c2.69,1.61,6.74,8.85,7.73,13.83s2.52,15.92,3.26,21.53c.33,2.55,2.88,31-.43,33.7-2.66,2.18-15.33,7.88-25,9.67Zm-5-15.48c2.47,2.82,6,8,5.52,14.37,10-2,21.7-7.55,23.89-9.34,2.35-1.92,1-25.42.07-32.8-.73-5.6-2.23-16.42-3.24-21.47s-5-11.81-7.27-13.16a1.19,1.19,0,0,0-1.27,0c-1.16.65-5,4.54-5.47,27.58l-.5,28.5a.48.48,0,0,1-.26.42C287.94,247.83,282.54,250.85,276.52,253.7Z" style="fill:#263238"></path><path d="M255.88,177.65s-2.24,13-2.46,21,5.81,16.09,14.3,5.81,7.15-27.27,7.15-27.27A23.6,23.6,0,0,1,255.88,177.65Z" style="fill:#fff"></path><path d="M260.13,209.83a5.23,5.23,0,0,1-1.9-.35c-3.22-1.2-5.45-5.76-5.31-10.83.22-8,2.44-21,2.46-21.09a.55.55,0,0,1,.25-.35.52.52,0,0,1,.44,0,23.26,23.26,0,0,0,18.57-.43.5.5,0,0,1,.73.4c.06.7,1.26,17.31-7.26,27.63C264.87,208.71,262.16,209.83,260.13,209.83Zm-3.86-31.49c-.44,2.66-2.16,13.4-2.35,20.33-.13,4.66,1.83,8.81,4.66,9.88,2.56,1,5.59-.56,8.76-4.4,7.27-8.81,7.2-22.82,7.07-26.17A24.09,24.09,0,0,1,256.27,178.34Z" style="fill:#263238"></path><path d="M256.32,194.47h-.08a.5.5,0,0,1-.41-.58c.65-3.7.22-10.54.22-10.61a.49.49,0,0,1,.46-.53.51.51,0,0,1,.53.47c0,.28.45,7-.23,10.84A.49.49,0,0,1,256.32,194.47Z" style="fill:#263238"></path><path d="M206.17,244.71a4.33,4.33,0,0,0,.38,3.43c1,1.65,6.35,4.82,6.35,3.55s-2.67-3-2.8-3.93a7.49,7.49,0,0,0-.88-2.16S207.31,243.19,206.17,244.71Z" style="fill:#fff"></path><path d="M212.56,252.48c-1.55,0-5.53-2.6-6.43-4.08a4.77,4.77,0,0,1-.43-3.85.61.61,0,0,1,.07-.14,1.6,1.6,0,0,1,1.3-.7h0c1.23,0,2.39,1.42,2.52,1.58a8,8,0,0,1,1,2.4,5.1,5.1,0,0,0,1,1.27c.86.89,1.76,1.81,1.76,2.73a.76.76,0,0,1-.57.76A1.12,1.12,0,0,1,212.56,252.48ZM206.62,245a3.81,3.81,0,0,0,.36,2.93c.81,1.32,4.31,3.41,5.37,3.6a6.65,6.65,0,0,0-1.42-1.82,4.17,4.17,0,0,1-1.32-1.83,7,7,0,0,0-.82-2,3.14,3.14,0,0,0-1.71-1.15A.58.58,0,0,0,206.62,245Z" style="fill:#263238"></path><path d="M203.61,237.3s-.24,3.71.39,5.44,7.32,6.35,9,5.47-3.57-5.47-4.82-6.91A42.8,42.8,0,0,0,203.61,237.3Z" style="fill:#fff"></path><path d="M212.49,248.82a5.08,5.08,0,0,1-1.76-.41c-2.53-1-6.64-3.95-7.2-5.5-.66-1.81-.42-5.49-.41-5.64a.5.5,0,0,1,.29-.43.52.52,0,0,1,.51.06A44.28,44.28,0,0,1,208.6,241c.26.3.7.74,1.21,1.25,2.42,2.42,4.25,4.37,4.05,5.62a1,1,0,0,1-.6.81A1.65,1.65,0,0,1,212.49,248.82Zm-8.41-10.53a14.16,14.16,0,0,0,.39,4.28c.39,1.06,4,3.88,6.63,4.91,1.19.47,1.61.33,1.71.28.2-.92-2.44-3.56-3.7-4.83-.54-.53-1-1-1.27-1.3A35.67,35.67,0,0,0,204.08,238.29Z" style="fill:#263238"></path><path d="M203.63,232.79s-.5,3.68,0,5.45,6.85,6.85,8.63,6.09-3.17-5.71-4.31-7.23A43.43,43.43,0,0,0,203.63,232.79Z" style="fill:#fff"></path><path d="M211.83,244.91a4.62,4.62,0,0,1-1.88-.54c-2.46-1.17-6.35-4.41-6.8-6-.53-1.85,0-5.5,0-5.66a.49.49,0,0,1,.32-.4.51.51,0,0,1,.5.09,44.61,44.61,0,0,1,4.39,4.39c.23.32.64.79,1.12,1.34,2.24,2.58,3.92,4.65,3.64,5.89a1.06,1.06,0,0,1-.65.76A1.57,1.57,0,0,1,211.83,244.91ZM204,233.81a14.38,14.38,0,0,0,.09,4.3c.31,1.08,3.73,4.15,6.27,5.36,1.16.55,1.58.45,1.68.4.27-.91-2.17-3.72-3.35-5.08-.49-.57-.92-1.06-1.16-1.39A35.08,35.08,0,0,0,204,233.81Z" style="fill:#263238"></path><path d="M206.68,228.6s-3.81-2-4.44.51,2.28,5.2,4.95,7.36,3.8,1.77,3.8-.26S206.68,228.6,206.68,228.6Z" style="fill:#fff"></path><path d="M209.94,238.42a5.58,5.58,0,0,1-3.07-1.56c-3.06-2.48-5.8-5.15-5.12-7.87a2,2,0,0,1,1.15-1.45c1.51-.67,3.76.49,4,.62a.36.36,0,0,1,.16.14c.46.58,4.42,5.78,4.42,7.91,0,1.09-.31,1.78-.91,2.07A1.39,1.39,0,0,1,209.94,238.42Zm-6-10.09a1.74,1.74,0,0,0-.67.12,1.06,1.06,0,0,0-.59.78c-.54,2.19,2.11,4.69,4.78,6.85,1.85,1.49,2.49,1.37,2.65,1.3s.34-.53.34-1.17c0-1.49-2.92-5.63-4.14-7.21A6,6,0,0,0,204,228.33Z" style="fill:#263238"></path><path d="M206.33,308s-5,2.67-14.33,3-17-4.67-12.67-8.67a21.07,21.07,0,0,1,17-5.33c6,1,15,3.33,15,3.33Z" style="fill:#fff"></path><path d="M191.13,311.47c-6.25,0-12-2.33-13.28-5.48a3.52,3.52,0,0,1,1.14-4.07,21.49,21.49,0,0,1,17.43-5.46c6,1,15,3.32,15,3.34a.51.51,0,0,1,.34.3.5.5,0,0,1-.05.46l-5,7.66a.49.49,0,0,1-.18.17c-.21.11-5.21,2.73-14.55,3.06Zm2.34-14.25a20.9,20.9,0,0,0-13.8,5.43,2.52,2.52,0,0,0-.89,3c1,2.52,6.38,5.09,13.2,4.84,8.35-.3,13.23-2.51,14-2.89l4.54-7c-2.2-.55-9.31-2.32-14.28-3.15A17.09,17.09,0,0,0,193.47,297.22ZM206.33,308h0Z" style="fill:#263238"></path><path d="M207.67,299.62c.45.05.93.08,1.41.1-3.06-.76-8.61-2.08-12.75-2.77a21.07,21.07,0,0,0-17,5.33c-2.2,2-1.29,4.34,1.36,6.06a6.41,6.41,0,0,1,4-6.72C190.33,299,202,299,207.67,299.62Z" style="fill:#fff"></path><path d="M180.69,308.84a.53.53,0,0,1-.27-.08c-1.73-1.12-2.7-2.43-2.82-3.78a3.74,3.74,0,0,1,1.39-3.06,21.49,21.49,0,0,1,17.43-5.46c4.14.69,9.79,2,12.78,2.77a.51.51,0,0,1,.38.56.55.55,0,0,1-.52.43c-.49,0-1-.05-1.45-.11h0c-6-.7-17.36-.57-22.73,2a5.9,5.9,0,0,0-3.69,6.22.51.51,0,0,1-.24.48A.59.59,0,0,1,180.69,308.84Zm12.78-11.62a20.9,20.9,0,0,0-13.8,5.43,2.75,2.75,0,0,0-1.07,2.25,3.81,3.81,0,0,0,1.57,2.44,6.83,6.83,0,0,1,4.28-6.17c4.64-2.19,12.72-2.57,18.53-2.38-2.28-.51-4.69-1-6.73-1.35A17.09,17.09,0,0,0,193.47,297.22Z" style="fill:#263238"></path><path d="M310.67,280.28s-10,15-20,21S235,308,225.67,308H206.33v-7S237,296.62,254,287s26-20.33,39.33-24.67,25,3,24.67,21" style="fill:#263238"></path><path d="M225.67,308.45H206.33a.5.5,0,0,1-.5-.5v-7a.5.5,0,0,1,.43-.49c.31,0,30.77-4.44,47.49-13.94a174.55,174.55,0,0,0,18.07-12.15c7.27-5.38,13.55-10,21.36-12.56,6.7-2.18,12.95-1.48,17.61,2,5.13,3.8,7.87,10.73,7.71,19.51a.48.48,0,0,1-.51.49.5.5,0,0,1-.49-.51c.16-8.44-2.44-15.08-7.31-18.69-4.39-3.25-10.32-3.9-16.7-1.82-7.65,2.49-13.87,7.09-21.08,12.42a174.69,174.69,0,0,1-18.16,12.2c-15.8,9-43.62,13.43-47.42,14v6.07h18.84c.53,0,53.87-.07,64.74-6.6,9.79-5.87,19.74-20.69,19.84-20.84a.5.5,0,0,1,.69-.14.49.49,0,0,1,.14.69c-.1.15-10.17,15.16-20.16,21.15C279.82,308.37,226.21,308.45,225.67,308.45Z" style="fill:#263238"></path><path d="M274.79,306.68a.5.5,0,0,1-.09-1,56.56,56.56,0,0,0,28.9-14.29.5.5,0,0,1,.71,0,.49.49,0,0,1,0,.7,57.5,57.5,0,0,1-29.41,14.55Z" style="fill:#fff"></path><path d="M307.69,288.23a.51.51,0,0,1-.31-.11.5.5,0,0,1-.08-.7,25.53,25.53,0,0,0,2.75-4,.51.51,0,0,1,.67-.22.5.5,0,0,1,.23.67,25.76,25.76,0,0,1-2.87,4.2A.48.48,0,0,1,307.69,288.23Z" style="fill:#fff"></path><path d="M244,291.62a.5.5,0,0,1,0-1,29.11,29.11,0,0,0,15.71-5.88.49.49,0,0,1,.7.05.51.51,0,0,1-.06.71A29.55,29.55,0,0,1,244,291.62Z" style="fill:#fff"></path><path d="M200.43,266.06l-1.1-.11" style="fill:#263238"></path><path d="M200.43,266.56h-.05l-1.09-.1a.51.51,0,0,1-.46-.54.52.52,0,0,1,.54-.46l1.12.11a.5.5,0,0,1-.06,1Z" style="fill:#263238"></path><path d="M294.33,309.28a93.5,93.5,0,0,1,15.34-4c7-1,12.66,0,14.66,4.34s.67,9.66-6.33,11-19.67-1.34-21-1.34a9.82,9.82,0,0,1-3.33-1Z" style="fill:#fff"></path><path d="M313.27,321.49a96.86,96.86,0,0,1-13.9-1.38c-1.18-.18-2.11-.33-2.37-.33a10.36,10.36,0,0,1-3.56-1,.49.49,0,0,1-.27-.48l.66-9a.53.53,0,0,1,.33-.44,94.56,94.56,0,0,1,15.44-4c8-1.15,13.26.45,15.19,4.62a8.29,8.29,0,0,1,.09,7.27c-.81,1.59-2.65,3.64-6.79,4.43A26.47,26.47,0,0,1,313.27,321.49ZM294.19,318a8.46,8.46,0,0,0,2.81.8,25.22,25.22,0,0,1,2.52.34c4.24.66,13.06,2,18.39,1,3-.57,5.06-1.92,6.08-3.91a7.29,7.29,0,0,0-.11-6.39c-2.17-4.71-8.89-4.8-14.14-4.05a90.66,90.66,0,0,0-14.93,3.87Z" style="fill:#263238"></path><path d="M316.26,305c2.13.82,6.15,3.07,5.41,8.26-1,7-9.34,7-15,7a4.65,4.65,0,0,0-1.24.18c4.2.49,9.09.82,12.57.16,7-1.34,8.33-6.67,6.33-11C323,306.76,320.1,305.36,316.26,305Z" style="fill:#fff"></path><path d="M313.26,321.49a68.38,68.38,0,0,1-7.89-.54.5.5,0,0,1-.44-.46.52.52,0,0,1,.37-.52,5.51,5.51,0,0,1,1.37-.19c5.72,0,13.56,0,14.5-6.57.68-4.75-2.9-6.88-5.09-7.73a.51.51,0,0,1-.31-.58.5.5,0,0,1,.53-.38c4.31.38,7.17,2,8.49,4.89a8.29,8.29,0,0,1,.09,7.27c-.81,1.59-2.65,3.64-6.79,4.43A25.84,25.84,0,0,1,313.26,321.49Zm-.1-1a27.78,27.78,0,0,0,4.75-.36c3-.57,5.06-1.92,6.08-3.91a7.29,7.29,0,0,0-.11-6.39,7.08,7.08,0,0,0-4.7-3.77,7.37,7.37,0,0,1,3,7.29C321.46,318.25,317.46,319.92,313.16,320.49Z" style="fill:#263238"></path><path d="M196.67,258.62s-11.34-2-18.67,3.66-6.33,11.67.67,20.34,25,24,64,31,51,4.66,51,4.66l.66-9a79.23,79.23,0,0,1-46.66-15c-21.83-16-31.56-26.51-47.24-28.22" style="fill:#263238"></path><path d="M286.9,319.17c-7.23,0-20.88-.85-44.32-5.06-41.29-7.41-58.72-24.27-64.3-31.18-4.43-5.48-6.21-9.55-5.78-13.22.33-2.82,2-5.38,5.19-7.82,7.43-5.74,18.59-3.85,19.06-3.76a.48.48,0,0,1,.41.57.5.5,0,0,1-.58.41c-.11,0-11.2-1.89-18.27,3.57-2.94,2.27-4.52,4.61-4.82,7.15-.39,3.33,1.38,7.29,5.57,12.47,5.5,6.82,22.73,23.47,63.69,30.83,34.75,6.23,48.13,5,50.45,4.72l.59-8.05a80.9,80.9,0,0,1-46.42-15.11c-4.94-3.62-9.32-7-13.18-10-13.14-10.14-21.82-16.85-33.81-18.16a.5.5,0,0,1,.11-1c12.27,1.34,21,8.11,34.31,18.36,3.86,3,8.23,6.35,13.16,10a79.45,79.45,0,0,0,46.35,14.9.5.5,0,0,1,.38.15.52.52,0,0,1,.14.39l-.66,9a.51.51,0,0,1-.41.45A39.84,39.84,0,0,1,286.9,319.17Z" style="fill:#263238"></path><path d="M192.5,267.12a.49.49,0,0,1-.49-.41.49.49,0,0,1,.4-.58,28,28,0,0,1,3.64-.44.51.51,0,0,1,.53.48.5.5,0,0,1-.48.52,27.47,27.47,0,0,0-3.51.42Z" style="fill:#fff"></path><path d="M289.5,309.62h0c-.23,0-23.46-.74-49.29-20.61-18-13.82-28.9-20.15-37.74-21.86a.5.5,0,1,1,.19-1c9,1.74,20.06,8.13,38.15,22.05,25.58,19.67,48.48,20.39,48.71,20.4a.49.49,0,0,1,.49.51A.51.51,0,0,1,289.5,309.62Z" style="fill:#fff"></path><path d="M289.28,163.75c-6.14,3.24-7-3.26-6.95-7.18a.34.34,0,0,0,.13-.17c.44-1.8,0-10.78-5.17-14.38-4.56-3.17-10.6-5.9-16.24-5.91-4,0-7.5,2.53-9.63,5.75-2.53,3.83-2.32,8.27-2.52,12.69s-.63,9.3.25,13.73c1.18,5.9,6.69,18.29,13.38,18.29,6.07,0,16.85-9.08,20.55-14.43a6.51,6.51,0,0,0,2.27-1.31C286.73,169.65,289.48,167.69,289.28,163.75Z" style="fill:#fff"></path><path d="M262.53,187.07c-7.21,0-12.77-13.19-13.87-18.7-.78-3.91-.56-8.06-.35-12.08l.09-1.76.06-1.76c.14-3.81.27-7.75,2.55-11.19,2.47-3.74,6.22-6,10-6h0c5,0,11.05,2.2,16.52,6s5.86,13,5.37,14.91a.86.86,0,0,1-.11.24c0,2.21.31,5.88,2.18,7,1,.6,2.33.44,4-.46a.48.48,0,0,1,.48,0,.49.49,0,0,1,.25.41c.2,3.88-2.29,6-3.78,7.21l-.33.27a6.84,6.84,0,0,1-2.28,1.35C279.81,177.63,269.08,187.07,262.53,187.07ZM261,136.61c-3.47,0-6.91,2.07-9.2,5.52-2.12,3.21-2.24,6.84-2.38,10.68l-.06,1.77-.09,1.76c-.21,4-.43,8,.33,11.84,1.25,6.24,6.78,17.89,12.89,17.89,5.69,0,16.26-8.6,20.14-14.22a.46.46,0,0,1,.26-.19,5.79,5.79,0,0,0,2.09-1.21l.34-.28c1.32-1.1,3.26-2.73,3.42-5.62a4.55,4.55,0,0,1-4.29.08c-2.22-1.35-2.67-5.13-2.66-8.06a.52.52,0,0,1,.17-.37c.41-1.67-.13-10.38-5-13.77-5.3-3.69-11.12-5.81-15.95-5.82Z" style="fill:#263238"></path><path d="M261,170.2a2.1,2.1,0,0,1-1.09-.23.91.91,0,0,1-.44-.61c-.2-1,1.92-7.68,2.57-9.7a.51.51,0,0,1,.63-.32.49.49,0,0,1,.32.63c-1.31,4-2.62,8.57-2.54,9.2a6.93,6.93,0,0,0,2.91-.39.49.49,0,0,1,.62.34.5.5,0,0,1-.34.62A10.67,10.67,0,0,1,261,170.2Z" style="fill:#263238"></path><path d="M263.13,174.17a6,6,0,0,1-3.46-1,.5.5,0,0,1,.6-.8h0c.14.1,3.44,2.44,8.85-1.57a.5.5,0,0,1,.7.1.51.51,0,0,1-.11.7A11.06,11.06,0,0,1,263.13,174.17Z" style="fill:#263238"></path><path d="M273.53,165.76a5.66,5.66,0,0,1-5.16-2.78.49.49,0,0,1,.24-.66.49.49,0,0,1,.66.23c.08.16,1.89,3.68,7.64,1.52a.5.5,0,0,1,.64.29.5.5,0,0,1-.29.65A10.65,10.65,0,0,1,273.53,165.76Z" style="fill:#263238"></path><path d="M255.77,161.26c-4.33,0-5.32-3.23-5.33-3.27a.51.51,0,0,1,.35-.62.5.5,0,0,1,.61.34c0,.16,1.16,3.64,6.88,2.21a.5.5,0,0,1,.24,1A11.35,11.35,0,0,1,255.77,161.26Z" style="fill:#263238"></path><path d="M262.07,155.21a.51.51,0,0,1-.48-.37s-1-3.33-3.52-4.4c-1.5-.62-3.3-.37-5.33.77a.51.51,0,0,1-.68-.2.5.5,0,0,1,.19-.68c2.32-1.29,4.41-1.56,6.21-.81,3,1.26,4.05,4.9,4.1,5.06a.5.5,0,0,1-.35.61Z" style="fill:#263238"></path><path d="M272.17,171.73a8.37,8.37,0,1,1,8.37-8.37A8.38,8.38,0,0,1,272.17,171.73Zm0-15.74a7.37,7.37,0,1,0,7.37,7.37A7.38,7.38,0,0,0,272.17,156Z" style="fill:#263238"></path><path d="M254.07,168.19a8.37,8.37,0,1,1,8.37-8.37A8.39,8.39,0,0,1,254.07,168.19Zm0-15.74a7.37,7.37,0,1,0,7.37,7.37A7.38,7.38,0,0,0,254.07,152.45Z" style="fill:#263238"></path><path d="M279.64,165.43a.51.51,0,0,1-.49-.41.5.5,0,0,1,.4-.58l6.5-1.18a.5.5,0,0,1,.58.4.5.5,0,0,1-.4.58l-6.5,1.18Z" style="fill:#263238"></path><path d="M246.4,158.35a.51.51,0,0,1-.4-.2.5.5,0,0,1,.1-.7l2.36-1.77a.5.5,0,0,1,.7.1.51.51,0,0,1-.1.7l-2.36,1.77A.49.49,0,0,1,246.4,158.35Z" style="fill:#263238"></path><path d="M254.15,139.1s7-4.26,9.44-.22,13.65,30.88,25.69,24.87-.09-25.77-11.77-32.06S256,130.79,254.15,139.1Z" style="fill:#263238"></path><path d="M285.7,165.13c-9.24,0-17.31-15.84-21-23.1-.66-1.3-1.19-2.33-1.53-2.89a2.94,2.94,0,0,0-1.91-1.38c-2.79-.68-6.8,1.75-6.84,1.77a.5.5,0,0,1-.75-.53,13.13,13.13,0,0,1,7.44-9.19c4.86-2.24,10.77-1.73,16.65,1.44,8.14,4.39,17.15,15.82,17,24.57a9,9,0,0,1-5.25,8.38A8.48,8.48,0,0,1,285.7,165.13Zm-25.51-28.49a5.63,5.63,0,0,1,1.3.14,3.94,3.94,0,0,1,2.52,1.84c.36.59.9,1.63,1.57,3,4.07,8,13.59,26.66,23.48,21.72a8,8,0,0,0,4.7-7.49c.13-8.4-8.59-19.43-16.48-23.68-5.6-3-11.2-3.51-15.76-1.41a12.21,12.21,0,0,0-6.59,7.39A12.87,12.87,0,0,1,260.19,136.64Z" style="fill:#263238"></path><path d="M252.54,138.26h0a.5.5,0,0,1-.5-.5,5,5,0,0,1,2.52-3.85c2.57-1.72,6.64,1.68,6.81,1.82a.5.5,0,0,1-.64.77c-1-.86-4-2.84-5.62-1.76a4.05,4.05,0,0,0-2.07,3A.49.49,0,0,1,252.54,138.26Z" style="fill:#fff"></path><path d="M292.61,158.49l-.13,0a11,11,0,0,1-3-1.35.5.5,0,1,1,.54-.84,10,10,0,0,0,2.76,1.22.5.5,0,0,1-.13,1Z" style="fill:#fff"></path><path d="M285.55,153.13a.49.49,0,0,1-.4-.2,71.41,71.41,0,0,1-5.55-9.66,124.11,124.11,0,0,0-6.11-11c-2.58-4-5.32-6.15-8.14-6.37a7.43,7.43,0,0,0-5.57,2.23.48.48,0,0,1-.7,0,.49.49,0,0,1,0-.7,8.25,8.25,0,0,1,6.39-2.57c3.15.25,6.14,2.55,8.9,6.83a123.78,123.78,0,0,1,6.16,11,70.08,70.08,0,0,0,5.46,9.52.51.51,0,0,1-.1.7A.49.49,0,0,1,285.55,153.13Z" style="fill:#fff"></path><path d="M280.88,155.68a.49.49,0,0,1-.34-.14,8.42,8.42,0,0,0-9.65-1.49.51.51,0,0,1-.68-.21.5.5,0,0,1,.21-.68,9.59,9.59,0,0,1,10.81,1.66.5.5,0,0,1-.35.86Z" style="fill:#fff"></path><path d="M280.38,240c-12.54,0-20.3-9.52-20.38-9.61a.51.51,0,0,1,.79-.63c.07.09,7.54,9.24,19.59,9.24a.5.5,0,0,1,.5.5A.5.5,0,0,1,280.38,240Z" style="fill:#263238"></path></g><g id="freepik--Floor--inject-3"><path d="M425.69,424.12H80.58a.5.5,0,0,1-.5-.5.5.5,0,0,1,.5-.5H425.69a.5.5,0,0,1,.5.5A.5.5,0,0,1,425.69,424.12Z" style="fill:#263238"></path></g></svg>