<svg xmlns="http://www.w3.org/2000/svg" viewBox="0 0 500 500"><g id="freepik--background-complete--inject-20"><path d="M72.8,172.6c0-.84.11-3.07.11-4,0-4.07-1.45-5.91-5.24-6-1.79-.11-2.84-1.17-2.84-2.67a2.68,2.68,0,0,1,2.84-2.68c3.79-.16,5.24-2,5.24-6.07,0-.95-.11-3.18-.11-4,0-5.4,2.28-8.86,10.92-10.75a2.41,2.41,0,0,1,1.51,4.57c-5.41,1.67-6.19,3.4-6.19,7.19,0,1.11.11,3,.11,4.12,0,4.35-2.12,6.47-5.8,7.64,3.74,1.22,5.8,3.29,5.8,7.63,0,1.18-.11,3-.11,4.13,0,3.79.78,5.52,6.19,7.19a2.41,2.41,0,0,1-1.51,4.57C75.08,181.52,72.8,178.06,72.8,172.6Z" style="fill:#ebebeb"></path><path d="M105.46,147.12c0,.84-.11,3.07-.11,4,0,4.12,1.5,5.91,5.29,6.07a2.68,2.68,0,1,1,0,5.35c-3.79.11-5.29,1.95-5.29,6,0,.95.11,3.18.11,4,0,5.46-2.29,8.92-10.92,10.81a2.34,2.34,0,0,1-3.07-2.29,2.31,2.31,0,0,1,1.62-2.28c5.35-1.67,6.13-3.4,6.13-7.19,0-1.12-.11-3-.11-4.13,0-4.34,2.11-6.46,5.79-7.63-3.73-1.23-5.79-3.29-5.79-7.64,0-1.17.11-3,.11-4.12,0-3.79-.78-5.52-6.13-7.19a2.4,2.4,0,0,1,1.45-4.57C103.17,138.26,105.46,141.72,105.46,147.12Z" style="fill:#ebebeb"></path><path d="M212.82,100a3.3,3.3,0,0,1,0,4.67,3.36,3.36,0,0,1-2.29.94,3.46,3.46,0,0,1-2.38-.94L193.57,89.9a.41.41,0,0,1-.26-.32.69.69,0,0,0-.16-.1,1.42,1.42,0,0,1-.15-.42.26.26,0,0,1-.16-.2c-.05-.11-.05-.26-.1-.31s-.11-.21-.11-.26v-.37c0-.1,0-.15,0-.31s0-.21,0-.26V87c0-.1.11-.16.11-.21s0-.26.1-.41,0-.06,0-.11.16-.36.26-.46a.11.11,0,0,1,.11-.11.91.91,0,0,1,.31-.36l14.58-14.79a3.4,3.4,0,0,1,4.67,0,3.3,3.3,0,0,1,0,4.67l-12.3,12.4Z" style="fill:#ebebeb"></path><path d="M226.05,101.67l12.71-30.25a2.87,2.87,0,0,1,3.78-1.5A2.79,2.79,0,0,1,244,73.6l-12.71,30.3a2.89,2.89,0,0,1-2.65,1.72,2.58,2.58,0,0,1-1-.21A2.8,2.8,0,0,1,226.05,101.67Z" style="fill:#ebebeb"></path><path d="M269.11,89.48a0,0,0,0,1-.05,0,2.58,2.58,0,0,1-.37.37l-14.58,14.78a3.34,3.34,0,0,1-2.33.94,3.38,3.38,0,0,1-2.34-.94,3.3,3.3,0,0,1,0-4.67l12.3-12.4-12.3-12.4a3.3,3.3,0,0,1,0-4.67,3.4,3.4,0,0,1,4.67,0l14.58,14.79a2.55,2.55,0,0,1,.37.36c.05,0,.05.11.05.11a4.88,4.88,0,0,1,.26.46s.05,0,.05.11a2,2,0,0,0,.16.46c0,.06.05.06.05.16v.36c0,.05.05.21.05.26s-.05.21-.05.26v.42s-.05,0-.05.1a3.25,3.25,0,0,0-.16.47s-.05,0-.05.15S269.21,89.27,269.11,89.48Z" style="fill:#ebebeb"></path><path d="M414.79,294.56l13.36-.27,6.58-.12c2.19,0,4.36,0,6.54-.05l-.44.44-.06-11.18.5.49L428,283.81c-4.41,0-8.82-.11-13.24-.16l.28-.27c0,1.83-.09,3.67-.14,5.53Zm0,0-.14-5.53c0-1.87-.11-3.76-.13-5.65v-.27h.27c4.42-.05,8.83-.16,13.24-.16l13.24-.06h.5v.51l0,11.18V295h-.45c-2.23,0-4.47,0-6.69-.05l-6.66-.12Z" style="fill:#ebebeb"></path><path d="M429.56,308.67l13.36-.27,6.58-.12c2.19,0,4.36,0,6.54,0l-.44.44-.05-11.19.49.5-13.24-.06c-4.41,0-8.82-.11-13.24-.16l.28-.28c0,1.84-.09,3.68-.13,5.54Zm0,0-.14-5.53c0-1.87-.11-3.76-.13-5.65v-.27h.27c4.42,0,8.83-.16,13.24-.16L456,297h.51v.5l-.05,11.19v.45H456c-2.23,0-4.46,0-6.69-.05l-6.66-.12Z" style="fill:#ebebeb"></path><path d="M400,308.67l13.36-.27,6.58-.12c2.18,0,4.36,0,6.54,0l-.44.44L426,297.48l.5.5-13.24-.06c-4.41,0-8.83-.11-13.24-.16l.27-.28c0,1.84-.08,3.68-.13,5.54Zm0,0-.14-5.53c-.05-1.87-.11-3.76-.13-5.65v-.27H400c4.41,0,8.83-.16,13.24-.16L426.5,297h.5v.5L427,308.67v.45h-.44c-2.23,0-4.47,0-6.69-.05l-6.66-.12Z" style="fill:#ebebeb"></path><path d="M58.73,308.67l13.35-.27,6.58-.12c2.19,0,4.37,0,6.55,0l-.45.44-.05-11.19.5.5L72,297.92c-4.42,0-8.83-.11-13.24-.16l.27-.28c0,1.84-.09,3.68-.13,5.54Zm0,0-.15-5.53c0-1.87-.11-3.76-.13-5.65v-.27h.28c4.41,0,8.82-.16,13.24-.16L85.21,297h.5v.5l-.06,11.19v.45h-.44c-2.23,0-4.47,0-6.7-.05L71.85,309Z" style="fill:#ebebeb"></path><path d="M58.73,57.44l13.35-.28,6.58-.11c2.19,0,4.37,0,6.55-.06l-.45.45-.05-11.19.5.5L72,46.69c-4.42,0-8.83-.12-13.24-.17l.27-.27c0,1.83-.09,3.67-.13,5.54Zm0,0-.15-5.54c0-1.86-.11-3.75-.13-5.65V46h.28c4.41,0,8.82-.16,13.24-.17l13.24-.06h.5v.5l-.06,11.19v.45h-.44c-2.23,0-4.47,0-6.7-.06l-6.66-.11Z" style="fill:#ebebeb"></path><path d="M44,71.55l13.35-.28,6.58-.11c2.19,0,4.36,0,6.55-.06l-.45.45,0-11.19.5.5L57.2,60.8c-4.42,0-8.83-.12-13.24-.17l.27-.27c0,1.83-.09,3.67-.13,5.54Zm0,0L43.81,66c0-1.86-.11-3.75-.13-5.65v-.27H44c4.41-.05,8.82-.16,13.24-.17l13.24-.06h.5v.5l-.06,11.19V72h-.44c-2.24,0-4.47,0-6.7-.06l-6.66-.11Z" style="fill:#ebebeb"></path><path d="M429.56,57.45l13.36-.28,6.58-.11c2.19-.05,4.36,0,6.54-.05l-.44.44-.05-11.19.49.5L442.8,46.7c-4.41,0-8.82-.11-13.24-.16l.28-.28c0,1.83-.09,3.68-.13,5.54Zm0,0-.14-5.53c0-1.87-.11-3.76-.13-5.66V46h.27c4.42-.05,8.83-.16,13.24-.16L456,45.76h.51v.5l-.05,11.19v.45H456c-2.23,0-4.46,0-6.69-.06l-6.66-.11Z" style="fill:#ebebeb"></path><path d="M286.21,132.51l-13.35.28-6.58.11c-2.19,0-4.37,0-6.55,0l.45-.44.05,11.19-.5-.5,13.24.06c4.42,0,8.83.11,13.24.16l-.27.28c0-1.83.09-3.68.13-5.54Zm0,0,.15,5.53c0,1.87.11,3.76.13,5.66V144h-.28c-4.41.05-8.82.16-13.24.16l-13.24.07h-.5v-.5l.06-11.19v-.45h.44c2.23,0,4.47,0,6.7.06l6.66.11Z" style="fill:#ebebeb"></path><path d="M271.44,118.4l-13.35.28-6.58.11c-2.19,0-4.37,0-6.55,0l.45-.44.05,11.19-.5-.5,13.24.06c4.41,0,8.83.11,13.24.16l-.27.28c0-1.83.08-3.68.13-5.54Zm0,0,.14,5.53c.05,1.87.12,3.76.13,5.66v.27h-.28c-4.41,0-8.83.16-13.24.16l-13.24.07h-.5v-.5l.06-11.19V118H245c2.23,0,4.47,0,6.7.06l6.66.11Z" style="fill:#ebebeb"></path><rect x="423.02" width="1" height="149.23" style="fill:#c7c7c7"></rect><polygon points="382.12 189.13 385.45 196.45 461.6 196.45 464.92 189.13 432.5 166.69 414.54 166.69 382.12 189.13" style="fill:#ebebeb"></polygon><polygon points="412.29 145.07 414.54 166.69 432.5 166.69 434.75 145.07 412.29 145.07" style="fill:#dbdbdb"></polygon><polygon points="382.13 189.14 385.46 196.46 461.61 196.46 464.93 189.14 382.13 189.14" style="fill:#dbdbdb"></polygon><rect x="327.41" width="1" height="95.61" style="fill:#c7c7c7"></rect><polygon points="286.51 135.52 289.84 142.84 365.99 142.84 369.31 135.52 336.89 113.08 318.93 113.08 286.51 135.52" style="fill:#ebebeb"></polygon><polygon points="316.68 91.46 318.93 113.08 336.89 113.08 339.14 91.46 316.68 91.46" style="fill:#dbdbdb"></polygon><polygon points="286.51 135.52 289.84 142.84 365.99 142.84 369.31 135.52 286.51 135.52" style="fill:#dbdbdb"></polygon><polygon points="84.69 407.07 83.69 407.07 83.69 281.57 56.96 245.09 56.96 176.59 57.96 176.59 57.96 244.76 84.69 281.24 84.69 407.07" style="fill:#ebebeb"></polygon><path d="M57.46,177.13a2.88,2.88,0,1,1,2.87-2.88A2.88,2.88,0,0,1,57.46,177.13Zm0-4.75a1.88,1.88,0,1,0,1.87,1.87A1.88,1.88,0,0,0,57.46,172.38Z" style="fill:#ebebeb"></path><polygon points="77.8 407.07 76.8 407.07 76.8 285.98 50.07 249.49 50.07 201.58 51.07 201.58 51.07 249.17 77.8 285.65 77.8 407.07" style="fill:#ebebeb"></polygon><path d="M50.57,202.13a2.88,2.88,0,1,1,2.88-2.88A2.88,2.88,0,0,1,50.57,202.13Zm0-4.75a1.88,1.88,0,1,0,1.88,1.87A1.87,1.87,0,0,0,50.57,197.38Z" style="fill:#ebebeb"></path><rect x="90.32" y="240.66" width="1" height="166.41" style="fill:#ebebeb"></rect><path d="M90.82,241.16a2.88,2.88,0,1,1,2.88-2.88A2.88,2.88,0,0,1,90.82,241.16Zm0-4.75a1.88,1.88,0,1,0,1.88,1.87A1.87,1.87,0,0,0,90.82,236.41Z" style="fill:#ebebeb"></path><polygon points="97.71 407.07 96.71 407.07 96.71 322.37 96.77 322.26 114.86 288.14 114.86 226.9 115.86 226.9 115.86 288.39 115.8 288.5 97.71 322.62 97.71 407.07" style="fill:#ebebeb"></polygon><path d="M115.35,227.4a2.88,2.88,0,1,1,2.88-2.88A2.88,2.88,0,0,1,115.35,227.4Zm0-4.75a1.88,1.88,0,1,0,1.88,1.87A1.87,1.87,0,0,0,115.35,222.65Z" style="fill:#ebebeb"></path><polygon points="104.06 407.07 103.06 407.07 103.06 326.02 103.12 325.9 124.45 288.18 124.45 247.89 125.45 247.89 125.45 288.44 125.39 288.56 104.06 326.28 104.06 407.07" style="fill:#ebebeb"></polygon><path d="M125,248.39a2.88,2.88,0,1,1,2.88-2.87A2.88,2.88,0,0,1,125,248.39Zm0-4.75a1.88,1.88,0,1,0,1.88,1.88A1.88,1.88,0,0,0,125,243.64Z" style="fill:#ebebeb"></path><polygon points="416.31 407.07 415.31 407.07 415.31 341.24 415.41 341.11 442.04 304.76 442.04 266.59 443.04 266.59 443.04 305.09 442.94 305.22 416.31 341.57 416.31 407.07" style="fill:#ebebeb"></polygon><path d="M442.54,267.13a2.88,2.88,0,1,1,2.88-2.88A2.88,2.88,0,0,1,442.54,267.13Zm0-4.75a1.88,1.88,0,1,0,1.88,1.87A1.87,1.87,0,0,0,442.54,262.38Z" style="fill:#ebebeb"></path><polygon points="423.19 407.07 422.19 407.07 422.19 345.65 448.93 309.17 448.93 291.58 449.93 291.58 449.93 309.49 449.83 309.63 423.19 345.98 423.19 407.07" style="fill:#ebebeb"></polygon><path d="M449.43,292.12a2.87,2.87,0,1,1,2.87-2.87A2.88,2.88,0,0,1,449.43,292.12Zm0-4.74a1.87,1.87,0,1,0,1.87,1.87A1.88,1.88,0,0,0,449.43,287.38Z" style="fill:#ebebeb"></path><rect x="408.68" y="300.66" width="1" height="106.41" style="fill:#ebebeb"></rect><path d="M409.18,301.16a2.88,2.88,0,1,1,2.87-2.88A2.88,2.88,0,0,1,409.18,301.16Zm0-4.75a1.88,1.88,0,1,0,1.87,1.87A1.88,1.88,0,0,0,409.18,296.41Z" style="fill:#ebebeb"></path><polygon points="403.29 407.07 402.29 407.07 402.29 352.62 384.14 318.39 384.14 256.9 385.14 256.9 385.14 318.14 403.29 352.37 403.29 407.07" style="fill:#ebebeb"></polygon><path d="M384.64,257.4a2.88,2.88,0,1,1,2.88-2.88A2.88,2.88,0,0,1,384.64,257.4Zm0-4.75a1.88,1.88,0,1,0,1.88,1.87A1.87,1.87,0,0,0,384.64,252.65Z" style="fill:#ebebeb"></path><polygon points="396.94 407.07 395.94 407.07 395.94 356.28 374.55 318.44 374.55 277.89 375.55 277.89 375.55 318.18 396.94 356.02 396.94 407.07" style="fill:#ebebeb"></polygon><path d="M375.05,278.39a2.88,2.88,0,1,1,2.87-2.87A2.88,2.88,0,0,1,375.05,278.39Zm0-4.75a1.88,1.88,0,1,0,1.87,1.88A1.88,1.88,0,0,0,375.05,273.64Z" style="fill:#ebebeb"></path></g><g id="freepik--Shadow--inject-20"><ellipse cx="250" cy="426.67" rx="201.54" ry="16.06" style="fill:#ebebeb"></ellipse></g><g id="freepik--Chair--inject-20"><polygon points="54.45 407.23 175.57 407.23 151.42 266.75 60.85 266.75 54.45 407.23" style="fill:#dbdbdb"></polygon><polygon points="54.45 407.23 65.07 407.23 71.03 266.75 60.85 266.75 54.45 407.23" style="fill:#a6a6a6"></polygon></g><g id="freepik--Desk--inject-20"><polygon points="40.74 407.78 93.06 407.53 145.37 407.44 250 407.28 354.63 407.44 406.94 407.53 459.26 407.78 406.94 408.02 354.63 408.11 250 408.27 145.37 408.11 93.06 408.02 40.74 407.78" style="fill:#263238"></polygon></g><g id="freepik--Device--inject-20"><rect x="259.84" y="405.98" width="7.18" height="4.69" style="fill:#455a64"></rect><rect x="269.16" y="405.67" width="7.18" height="4.69" style="fill:#455a64"></rect><rect x="278.47" y="405.36" width="7.18" height="4.69" style="fill:#455a64"></rect><rect x="287.79" y="405.05" width="7.18" height="4.69" style="fill:#455a64"></rect><rect x="297.1" y="404.74" width="7.18" height="4.69" style="fill:#455a64"></rect><rect x="306.42" y="404.43" width="7.18" height="4.69" style="fill:#455a64"></rect><rect x="315.73" y="404.12" width="7.18" height="4.69" style="fill:#455a64"></rect><rect x="325.05" y="403.81" width="7.18" height="4.69" style="fill:#455a64"></rect><rect x="334.36" y="403.5" width="7.18" height="4.69" style="fill:#455a64"></rect><polygon points="343.3 413.36 258.08 413.36 258.08 407.66 343.3 405.28 343.3 413.36" style="fill:#37474f"></polygon><polygon points="426.48 390.86 285.8 390.86 308.17 286.12 448.85 286.12 426.48 390.86" style="fill:#455a64"></polygon><polygon points="431.68 390.86 291 390.86 313.37 286.12 454.06 286.12 431.68 390.86" style="fill:#37474f"></polygon><path d="M383.75,340.68a10.58,10.58,0,0,1-10.08,8.7,7.24,7.24,0,0,1-7.32-8.7,10.59,10.59,0,0,1,10.08-8.7A7.24,7.24,0,0,1,383.75,340.68Z" style="fill:#263238"></path><polygon points="366.09 306.08 362.7 321.98 359.63 321.98 363.02 306.08 366.09 306.08" style="fill:#263238"></polygon><polygon points="372.64 306.08 369.25 321.98 366.17 321.98 369.56 306.08 372.64 306.08" style="fill:#263238"></polygon><polygon points="379.18 306.08 375.79 321.98 372.72 321.98 376.11 306.08 379.18 306.08" style="fill:#263238"></polygon><polygon points="385.73 306.08 382.34 321.98 379.26 321.98 382.65 306.08 385.73 306.08" style="fill:#263238"></polygon><polygon points="392.27 306.08 388.88 321.98 385.81 321.98 389.2 306.08 392.27 306.08" style="fill:#263238"></polygon><polygon points="398.82 306.08 395.43 321.98 392.35 321.98 395.74 306.08 398.82 306.08" style="fill:#263238"></polygon><polygon points="389.89 418.21 320.7 418.21 320.7 412.84 389.89 410.6 389.89 418.21" style="fill:#455a64"></polygon><polygon points="408.71 418.2 371.56 418.2 349.18 359.52 386.33 359.52 408.71 418.2" style="fill:#455a64"></polygon><polygon points="414.82 418.2 377.67 418.2 355.3 359.52 392.45 359.52 414.82 418.2" style="fill:#263238"></polygon><path d="M273.78,419.64H202.44c-6.09,0,2.72-17.33,24.94-24S280.79,413.14,273.78,419.64Z" style="fill:#37474f"></path><path d="M245.79,419.64a21.77,21.77,0,0,1,1-5.81,24.6,24.6,0,0,1,2.4-5.43,19.71,19.71,0,0,1,3.78-4.6,17,17,0,0,1,5-3.13c-.77.62-1.64,1.06-2.34,1.74l-1.1.93-1,1a24.68,24.68,0,0,0-3.46,4.56,34.27,34.27,0,0,0-2.53,5.16A41.66,41.66,0,0,0,245.79,419.64Z" style="fill:#263238"></path><path d="M254.24,403.15a45.87,45.87,0,0,1,11.88,5.93,25.89,25.89,0,0,1,5,4.5,15.48,15.48,0,0,1,1.85,2.83,8.54,8.54,0,0,1,.84,3.23,9.4,9.4,0,0,0-1.27-3,15.4,15.4,0,0,0-2-2.55,33.82,33.82,0,0,0-5-4.19c-1.77-1.28-3.64-2.42-5.52-3.55-.94-.56-1.9-1.1-2.87-1.63S255.22,403.67,254.24,403.15Z" style="fill:#263238"></path></g><g id="freepik--Character--inject-20"><path d="M149.9,201.31c-3.4-6.59-15.58-20.27-30.09-12.95-20.69,10.45-12.25,53.56-19.54,69.72-13.2,29.28-7.35,53.06,9.88,52.38,19.32-.77,31.62-25.1,19.37-67.06-7.67-26.24-3.45-40,2-40.63s10.17,5.2,10.17,5.2Z" style="fill:#263238"></path><path d="M148.44,198.88a44.35,44.35,0,0,0-6.94-8.07,26.05,26.05,0,0,0-9.24-5.56,17.85,17.85,0,0,0-10.94-.15,23,23,0,0,0-9.4,5.62,25.84,25.84,0,0,0-5.73,9.3,47.45,47.45,0,0,0-2.39,10.51,95.08,95.08,0,0,0,.39,21.27,141.87,141.87,0,0,1,1.15-21.06,50.76,50.76,0,0,1,2.62-10,24.33,24.33,0,0,1,5.38-8.57,21.48,21.48,0,0,1,8.56-5.23,16.55,16.55,0,0,1,9.9-.16,26.5,26.5,0,0,1,9.07,4.82,43.21,43.21,0,0,1,4,3.45C146.08,196.25,147.28,197.55,148.44,198.88Z" style="fill:#263238"></path><path d="M125.65,228.84c.92,4.24,2.31,8.36,3.54,12.52s2.56,8.27,3.71,12.43,2.16,8.34,2.88,12.57a65.85,65.85,0,0,1,1.09,12.74,33.48,33.48,0,0,1-2.34,12.33,36.52,36.52,0,0,1-7,10.47A27,27,0,0,1,117,308.78a24.08,24.08,0,0,1-6.24,1.36,21.62,21.62,0,0,1-3.22,0,11.15,11.15,0,0,1-3.18-.53,16.11,16.11,0,0,0,6.43,1,25.31,25.31,0,0,0,6.51-1,26.59,26.59,0,0,0,6.07-2.64,29.64,29.64,0,0,0,5.26-4.06,34.63,34.63,0,0,0,4.31-5.06l.92-1.38.87-1.42a25.43,25.43,0,0,0,1.54-3,34.89,34.89,0,0,0,2.6-13c.12-8.87-1.91-17.5-4.48-25.79-1.29-4.16-2.76-8.25-4.27-12.31S127,233,125.65,228.84Z" style="fill:#263238"></path><path d="M151.18,201.08c-.29-2-2.19-4.34-3.55-4.47s-10.25,5.69-10.64,8.31,4.27,4,4.27,4Z" style="fill:#FFC727"></path><path d="M152.05,294.15C181.54,312,223,330.31,237.49,327.6c11.74-2.18,55.7-34.14,57.89-36,5.41-4.57-20.39-45.4-26.92-41.55-8.23,4.84-39.61,35.32-43.18,35.33-3.72,0-30.27-3.55-60.73-8C143.5,274.39,133.75,283.11,152.05,294.15Z" style="fill:#ad6359"></path><path d="M275.84,236.25c7.05-3.6,14.83-8.29,23.07-9.23s16.49,9,16.9,12.1-.1,22.88-8.31,24-5.24-14.44-5.78-16.1-1.13-3.8-2.66-3.44-26.93,16.84-26.93,16.84Z" style="fill:#ad6359"></path><path d="M276.52,237.31c.46-.06,21.31-11.67,29.54-12.61s16.5,9,16.91,12.1-.11,22.88-8.32,24-5.23-14.44-5.77-16.1-1.14-3.8-2.67-3.44-26.93,16.84-26.93,16.84Z" style="fill:#ad6359"></path><path d="M311.73,260.1c-1.19-1.16-1.62-3.09-2-4.67a17.05,17.05,0,0,1-.4-5.28,28.08,28.08,0,0,0,.4-4.65,9.12,9.12,0,0,0-1.73-4.19c-.78-1.07-1.94-.51-2.92,0a38.76,38.76,0,0,0-4.2,2.62c-1.47,1-2.91,2-4.36,3a44.15,44.15,0,0,0-4.42,3.26c-.1.09,0,.28.13.21a44,44,0,0,0,3.92-2.43q2.19-1.41,4.41-2.78c1.38-.85,2.72-1.77,4.12-2.6.49-.29,1.46-1,2.08-.93s1.16,1.55,1.36,2a7.78,7.78,0,0,1,.31,4.48,23.73,23.73,0,0,0-.25,4.61,12.07,12.07,0,0,0,.91,4.24,17.24,17.24,0,0,0,2.43,3.27C311.62,260.44,311.86,260.23,311.73,260.1Z" style="fill:#263238"></path><path d="M253.34,262.33s20-23.77,24.18-28.52c8.41-9.53,46.25-31.21,51.75-32.54s9,9.83-16.54,25.33c-13.49,8.17-14.94,16.71-14.06,21.22s6.34,12.4,14,11.17,11.08-13,17.94-15.21,3.94,11.31,0,19.41S318.39,278.62,312.11,282s-25.56,14.9-25.56,14.9Z" style="fill:#ad6359"></path><path d="M321.4,252.35c-2.58,2.62-5.46,5.94-9.23,6.58s-6.78-1.53-9-4.48-3.82-6.5-3.42-10.3a17.91,17.91,0,0,1,4.1-9.27,43.33,43.33,0,0,1,9.44-8.27c.15-.11,0-.33-.19-.23-3.31,2-13.65,8-14.55,17.93-.37,4.07,1.28,7.43,3.56,10.49,2.1,2.82,5,5.42,8.7,5.23,4.57-.24,8-4.43,10.84-7.6C321.76,252.29,321.53,252.22,321.4,252.35Z" style="fill:#263238"></path><path d="M221.5,282.27l-34.14,32.41s-22.68-10.06-39.73-22.19.54-19.63,28.69-16.68S221.5,282.27,221.5,282.27Z" style="fill:#FFC727"></path><path d="M179.22,310.82l-.45-.22c0-.07,0-.13,0-.2a26.12,26.12,0,0,0-1.61-8,6.91,6.91,0,0,0-2.42-3.13,5,5,0,0,0-1.84-.71,15,15,0,0,0-2-.07,27.56,27.56,0,0,0-8,1.61c-.71.25-1.42.52-2.12.81l-.39-.23c.79-.33,1.58-.64,2.38-.93a28.28,28.28,0,0,1,8.14-1.66,14.92,14.92,0,0,1,2.1.08,5.31,5.31,0,0,1,2,.76,7.3,7.3,0,0,1,2.58,3.31,26.17,26.17,0,0,1,1.66,8.13Zm23.37-31.73-.15.41c-1.25,3.33-2.82,6.68-5.54,9a9.35,9.35,0,0,1-4.8,2.08,9.51,9.51,0,0,1-5.15-1c-3.23-1.54-5.88-4.06-8.4-6.59s-4.77-5.11-7.19-7.63h0l-.18,0c2.43,2.57,4.77,5.23,7.25,7.78a31.8,31.8,0,0,0,8.43,6.69,9.18,9.18,0,0,0,10.23-1.12c2.78-2.4,4.36-5.79,5.64-9.12.06-.16.12-.31.17-.47Zm-18,34.3c1.78.84,2.8,1.29,2.8,1.29l0,0C186.47,314.21,185.51,313.8,184.56,313.39Z" style="fill:#fff"></path><path d="M178.91,308.74c6.89-7.49,14.31-14.51,21.85-21.36q3.19-2.91,6.53-5.67a.07.07,0,0,1,.1.09c-3.52,3.66-7.19,7.19-10.84,10.73s-7.34,7.08-11.1,10.53c-2.12,1.95-4.23,3.9-6.4,5.81C179,309,178.82,308.83,178.91,308.74Z" style="fill:#263238"></path><path d="M201.55,301.21l-14.19,13.47s-22.68-10.06-39.73-22.19c-6.94-4.94-8.14-9.11-5.23-12.11Z" style="opacity:0.1"></path><path d="M199.26,407.41H85.13s24.79-95.74,47.73-122.7c.51-.62,1-1.2,1.58-1.75.11-.13.2-.22.31-.33a24.13,24.13,0,0,1,6.13-4.74c.4-.22.8-.42,1.22-.61,8.84-4.06,18.17-.69,24.91,5.07,2.14,1.83,26.33,33.31,28.47,45.31,1.85,10.59-5.31,22-5.31,22Z" style="fill:#FFC727"></path><path d="M173,345.53A98.94,98.94,0,0,0,158.63,348c-2.35.62-4.65,1.35-6.95,2.13-1.15.38-2.3.73-3.46,1.08a15.63,15.63,0,0,1-3.71.73.09.09,0,0,0,0,.17,25.29,25.29,0,0,0,3.59-.09,26.72,26.72,0,0,0,3.41-.68c2.38-.61,4.74-1.33,7.12-2,4.8-1.28,9.59-2.56,14.48-3.49C173.33,345.89,173.27,345.51,173,345.53Z" style="fill:#263238"></path><path d="M185.1,349.74a108.06,108.06,0,0,0-12.07-.48c-2,0-4,.2-6,.41-.95.11-1.91.22-2.86.35s-2.08.43-3.13.56c-.11,0-.11.18,0,.17,1-.09,2,0,3-.05l3-.1c2-.07,4-.11,6-.2,4-.17,8-.3,12.05-.33C185.33,350.07,185.31,349.76,185.1,349.74Z" style="fill:#263238"></path><g style="opacity:0.1"><path d="M162.1,334a1.55,1.55,0,0,1,.66,2,1.17,1.17,0,0,1-.88.49,1.8,1.8,0,0,1-1.18-.31l-8.56-5.84c-.07,0-.11-.06-.16-.12l-.08,0a1,1,0,0,1-.13-.18.17.17,0,0,1-.1-.08s-.06-.11-.09-.13-.07-.09-.08-.11l-.05-.16a.5.5,0,0,1-.07-.13.41.41,0,0,0,0-.11l-.05-.16c0-.05,0-.07,0-.1s0-.11,0-.18,0,0,0,0a1.08,1.08,0,0,1,0-.21s0-.05,0-.05a.29.29,0,0,1,.09-.17l4.36-7a1.5,1.5,0,0,1,2.07-.18,1.55,1.55,0,0,1,.66,2l-3.69,5.87Z"></path><path d="M168.2,334.17l1.34-13.62a1.06,1.06,0,0,1,1.47-.81,1.57,1.57,0,0,1,1.16,1.55l-1.34,13.64a1,1,0,0,1-.93.85,1.18,1.18,0,0,1-.48,0A1.57,1.57,0,0,1,168.2,334.17Z"></path><path d="M185.54,327.18s0,0,0,0a.82.82,0,0,1-.11.17l-4.36,7a1.23,1.23,0,0,1-.91.5,1.84,1.84,0,0,1-1.16-.32,1.54,1.54,0,0,1-.66-2l3.69-5.87-7.21-4.89a1.55,1.55,0,0,1-.66-2,1.5,1.5,0,0,1,2.07-.18l8.55,5.84a1.27,1.27,0,0,1,.21.14s0,0,0,0a1.46,1.46,0,0,1,.18.2s0,0,0,0a1.5,1.5,0,0,0,.14.2s0,0,0,.06l.05.16.06.11s0,.09,0,.11l0,.18s0,0,0,.05a1.87,1.87,0,0,0,0,.21s0,0,0,.07Z"></path></g><path d="M192.61,365.12a4.59,4.59,0,0,1-.49.26l-1,.44c-.32.14-.66.23-1,.35a12.9,12.9,0,0,1-2,.49,10.4,10.4,0,0,1-4.19-.27,6.33,6.33,0,0,1-1.87-1,7.35,7.35,0,0,1-1.41-1.59,13.25,13.25,0,0,1-1.69-3.83,38.73,38.73,0,0,1-1.19-8.22c0-.48,0-1,0-1.44,0-.18,0-.36,0-.54-.14-4.87.1-9.73.36-14.58.3-5.51.7-11,.82-16.52,0-2.42.06-4.85-.08-7.26,0-.11,0-.22,0-.33s0-.43,0-.65a26.12,26.12,0,0,0-1.61-8,6.91,6.91,0,0,0-2.42-3.13,5,5,0,0,0-1.84-.71,15,15,0,0,0-2-.07,27.56,27.56,0,0,0-8,1.61,53.63,53.63,0,0,0-5.14,2.15l-.39.18c-3.15,1.52-6.19,3.28-9.2,5.07-4.74,2.82-9.4,5.78-14.3,8.34-1.67.86-3.36,1.68-5.09,2.4l-.2.09q-1.12.46-2.28.87a27.17,27.17,0,0,1-8.12,1.65,15,15,0,0,1-4.52-.6c0-.07,0-.13.08-.19a15.11,15.11,0,0,0,4.44.55,27,27,0,0,0,8-1.67c.75-.27,1.5-.56,2.24-.86l.21-.09c1.73-.73,3.42-1.54,5.08-2.41,4.87-2.56,9.52-5.53,14.26-8.37,2.93-1.74,5.9-3.47,9-5l.38-.19a57.32,57.32,0,0,1,5.41-2.29,28.28,28.28,0,0,1,8.14-1.66,14.92,14.92,0,0,1,2.1.08,5.31,5.31,0,0,1,2,.76,7.3,7.3,0,0,1,2.58,3.31,26.17,26.17,0,0,1,1.66,8.13c0,.29,0,.58.05.87a1.72,1.72,0,0,1,0,.32c.14,2.37.14,4.74.1,7.1-.11,5.53-.49,11-.79,16.54-.25,4.64-.49,9.28-.4,13.91,0,.18,0,.36,0,.54,0,.69,0,1.37.07,2.06a38.13,38.13,0,0,0,1.15,8.12,12.84,12.84,0,0,0,1.62,3.71,7.33,7.33,0,0,0,1.33,1.5,5.76,5.76,0,0,0,1.73,1,10,10,0,0,0,4,.27,13.56,13.56,0,0,0,2-.47c.32-.12.64-.21,1-.34l.92-.42.6-.31Zm2.78-37.88a88,88,0,0,0-6.27,7c-3.88,4.79-7.41,9.84-11,14.88l-.45.64-1.33,1.88c-2.46,3.47-4.95,6.95-7.59,10.29-.07.09-.14.19-.22.28-1.74,2.19-3.54,4.32-5.46,6.35a49.63,49.63,0,0,1-8.05,7.07,23.17,23.17,0,0,1-2.25,1.44c-.76.48-1.57.86-2.36,1.27a7.6,7.6,0,0,1-5.09.78,10.4,10.4,0,0,1-4.57-2.53,24.89,24.89,0,0,1-3.53-4,67.23,67.23,0,0,1-5.44-9.24c-3.21-6.42-5.94-13.07-8.76-19.67a196,196,0,0,0-9.26-19.48c-.35-.61-.71-1.21-1.08-1.81l-.21.52c.31.5.61,1,.9,1.52a193,193,0,0,1,9.19,19.45c2.84,6.59,5.58,13.24,8.81,19.67a69.06,69.06,0,0,0,5.5,9.3,25.64,25.64,0,0,0,3.6,4.05,10.7,10.7,0,0,0,4.77,2.61,8,8,0,0,0,5.34-.82c.81-.41,1.63-.8,2.39-1.28s1.54-.94,2.28-1.46a51.91,51.91,0,0,0,8.1-7.14c1.9-2,3.7-4.16,5.42-6.34.08-.09.15-.19.22-.28,2.66-3.37,5.15-6.87,7.62-10.37l1.08-1.53.44-.64c3.62-5.16,7.2-10.34,11.17-15.24a85.77,85.77,0,0,1,6.11-6.84C195.44,327.46,195.42,327.35,195.39,327.24Zm-54.8,72.23c-4.46-5.62-8.84-11.34-13.67-16.66s-10.18-10.34-16.73-13.46a24.39,24.39,0,0,0-5.13-1.66,24,24,0,0,0-2.68-.4,24.33,24.33,0,0,0-2.7-.05,22.45,22.45,0,0,0-3,.26l-.06.18a21.85,21.85,0,0,1,3-.26,26.7,26.7,0,0,1,2.68.06,23.39,23.39,0,0,1,2.64.42,23.81,23.81,0,0,1,5.08,1.67c6.48,3.11,11.81,8.15,16.61,13.43s9.18,11,13.63,16.67c2.06,2.6,4.14,5.2,6.29,7.74h.46C144.86,404.81,142.72,402.14,140.59,399.47Zm54.84-16.4c-.69,1.84-1.36,3.67-2,5.51-2.29,6.31-4.5,12.65-7.11,18.83h.5c2.59-6.13,4.79-12.41,7.08-18.66.57-1.56,1.15-3.13,1.73-4.69Zm-10.43,10c-.09-.52-.17-1.05-.28-1.58l-.36-1.56c-.21-1-.54-2.06-.83-3.09a55.43,55.43,0,0,0-5.11-11.71,83.27,83.27,0,0,0-9.38-13,2.91,2.91,0,0,1-.24-.27c-2-2.31-4.1-4.53-6.22-6.72-6-6.09-12.24-11.84-18.24-17.87-3-3-5.92-6.1-8.7-9.32-.7-.8-1.39-1.61-2.06-2.43s-1.34-1.65-2-2.51a31.48,31.48,0,0,1-2.89-4.83,1.15,1.15,0,0,1-.12-.25,3.73,3.73,0,0,1-.2-.4,30.61,30.61,0,0,1-2.74-12.33,40.23,40.23,0,0,1,1.92-12.54c.15-.49.32-1,.49-1.47l-.23.36q-.19.54-.36,1.08a40.39,40.39,0,0,0-2,12.57,30.91,30.91,0,0,0,2.71,12.42c.06.14.12.27.19.4a.85.85,0,0,0,.13.25,32.55,32.55,0,0,0,2.89,4.89c.62.87,1.29,1.7,2,2.52s1.35,1.64,2.05,2.44c2.78,3.23,5.71,6.32,8.7,9.35,6,6,12.27,11.81,18.2,17.89,2.14,2.2,4.24,4.46,6.24,6.78.09.09.16.18.24.27a81.94,81.94,0,0,1,9.28,12.89A55.67,55.67,0,0,1,183.16,387c.28,1,.6,2,.81,3.07l.36,1.55c.1.52.18,1.05.28,1.57a21.41,21.41,0,0,1-2,14.23h.48a21.78,21.78,0,0,0,1.9-14.3Zm5.64-77-.55-.27c-3.56-1.7-7.19-3.21-10.85-4.65l-.44-.18c-3.17-1.25-6.36-2.46-9.52-3.71-3.48-1.39-6.94-2.82-10.3-4.46l-1.27-.64-.4-.21a48.45,48.45,0,0,1-7.89-5,26,26,0,0,1-7.24-8.39,19.47,19.47,0,0,1-1.88-5.21,18.48,18.48,0,0,1-.28-5.09,4.78,4.78,0,0,0-.42.26,19.19,19.19,0,0,0,.31,4.9,20.21,20.21,0,0,0,1.94,5.32,26.42,26.42,0,0,0,7.35,8.49,50.49,50.49,0,0,0,7.73,4.87l.39.2,1.51.76c3.38,1.65,6.85,3.07,10.33,4.45,3.21,1.27,6.45,2.48,9.66,3.75l.44.17c3.62,1.42,7.2,2.9,10.71,4.58l.9.43C190.79,316.43,190.71,316.29,190.64,316.15Z" style="fill:#fff"></path><path d="M128.7,287.17c-19.78,20.38-67.38,97.37-52.71,112s96.54,5.48,119.12,1.15c7.54-1.45-10.58-51.13-18.7-52.3-6.77-1-46.73,6.78-48.11,5-1.12-1.42,6.91-20,15.83-50C154.42,268.52,137.44,278.16,128.7,287.17Z" style="fill:#ad6359"></path><path d="M215.14,341.4c17,.22,21.34,2.89,35.79-4.55,9.48-4.88,16.67-.92,10.3,8.16-10.42,14.85-32.42,19.18-40.48,18.48Z" style="fill:#ad6359"></path><path d="M168.46,350.69s20.29-7.54,38.44-9.1c12.55-1.08,40.12-.38,61.92,30.25,5.17,7.26,7.39,21.28-5.37,12.48-9.06-6.24-12.91-12.95-18.85-15.62,0,0,.71,18.17-6.77,23.06a164.86,164.86,0,0,1-20.46,11.41,35.55,35.55,0,0,1-2.48-3.64s-7.42,3.92-19.78.81Z" style="fill:#ad6359"></path><path d="M219,342.47c5.33,3.9,16.48,12.36,23.2,22.45,7.46,11.2,18.81,34.8,10.48,40.22-6.11,4-11.23-4.65-11.23-4.65s2.63,10.74-3.67,13.13c-5.74,2.17-9.31-4.74-9.31-4.74s.48,6.79-5.45,7.82c-7.14,1.23-7-13.2-15.29-18.2C205.91,397.38,219,342.47,219,342.47Z" style="fill:#ad6359"></path><path d="M229.08,370.82c4.41,4.49,11.81,17.26,12.54,29.42,0,.28-.19.44-.25.19A132.49,132.49,0,0,0,229,370.89C228.94,370.83,229,370.77,229.08,370.82Z" style="fill:#263238"></path><path d="M218,378.68c3.41,4.27,10.44,17.76,10.76,30.12,0,.27-.21.42-.27.17a141.63,141.63,0,0,0-10.6-30.22A.07.07,0,0,1,218,378.68Z" style="fill:#263238"></path><path d="M244.62,368.59c5.19,2.43,8.31,5.63,12.41,9.51a75,75,0,0,0,6.31,5.49c2,1.53,5,3.84,7.66,2.32,1.47-.84,1.74-2.74,1.67-4.28a12,12,0,0,0-1.25-5c0-.07.1-.15.14-.07a16.15,16.15,0,0,1,1.63,4.36,7.36,7.36,0,0,1-.15,4.31c-1.26,2.87-4.85,2.72-7.22,1.52a24.19,24.19,0,0,1-4-2.72c-1.2-1-2.35-2-3.48-3-2.31-2.13-4.5-4.4-6.79-6.56a70.7,70.7,0,0,0-7.08-5.71C244.42,368.69,244.52,368.54,244.62,368.59Z" style="fill:#263238"></path><path d="M253.08,389.42c-.93-3.31-6.57-17.36-8.59-20.72a.08.08,0,0,1,.13-.09c3.62,4.66,8.79,16.35,9.86,20s2.2,8.2,1.62,12c-.86,5.67-4.79,6.17-6.22,6.23a7.4,7.4,0,0,1-4.7-1.52,15.08,15.08,0,0,1-3.75-4.78c-.05-.09.07-.18.13-.09,1.62,2.53,4.55,5.24,7.69,5.3a5.19,5.19,0,0,0,3.8-1.36,6.74,6.74,0,0,0,1.6-4.43A31.56,31.56,0,0,0,253.08,389.42Z" style="fill:#263238"></path><path d="M228.75,408.8c.68.79,1.95,3.39,4.46,4.29a5.92,5.92,0,0,0,5.5-.38,7.43,7.43,0,0,0,2.82-4.84,47.61,47.61,0,0,0-.09-7.32c0-.12.13-.15.15,0a27,27,0,0,1,.53,7.94,7.82,7.82,0,0,1-3,5.32,5.89,5.89,0,0,1-6.13.33c-1-.53-3.83-3.06-4.45-5.22C228.5,408.83,228.72,408.76,228.75,408.8Z" style="fill:#263238"></path><path d="M208.46,397.56a14.12,14.12,0,0,1,2.1,2.4c.68.88,1.32,1.8,1.95,2.72a32.92,32.92,0,0,1,3.1,6c.86,2.1,1.58,4.4,3.25,6a5.36,5.36,0,0,0,6.18,1.1,5.24,5.24,0,0,0,2.38-2.58,10.33,10.33,0,0,0,1-3.81.08.08,0,1,1,.16,0,18.4,18.4,0,0,1-.26,3.55,6.26,6.26,0,0,1-1.57,2.82,6,6,0,0,1-6.12,1.28c-2.3-.8-3.77-2.84-4.76-5-1.1-2.37-1.94-4.83-3.15-7.15-.64-1.22-1.26-2.45-2-3.62S209,399,208.31,397.7C208.26,397.6,208.36,397.48,208.46,397.56Z" style="fill:#263238"></path><path d="M201.09,401.39a49.16,49.16,0,0,0,9.42-.5c.1,0,.19.27.1.3a21.38,21.38,0,0,1-4.73.8,16.1,16.1,0,0,1-4.79-.43C201,401.54,201,401.38,201.09,401.39Z" style="fill:#263238"></path><path d="M87.39,370.14a121.78,121.78,0,0,1,15.42-8.42,117.63,117.63,0,0,1,16.3-6c3.17-.94,6.38-1.73,9.58-2.53a.08.08,0,1,1,0,.15,149.53,149.53,0,0,0-16.46,5.82q-8,3.29-15.94,6.85c-3,1.35-5.9,2.84-8.83,4.29A.12.12,0,0,1,87.39,370.14Z" style="fill:#263238"></path><path d="M88.07,335.35l47.07-.65s9.2-23.05,12.93-43.64-13.31-14.61-31.39,7.16S88.07,335.35,88.07,335.35Z" style="fill:#FFC727"></path><path d="M143.53,309.88c0,.15-.08.3-.13.45-3.15,1.91-6.31,3.79-9.58,5.5-1.67.86-3.36,1.68-5.09,2.4l-.2.09q-1.12.46-2.28.87a27.17,27.17,0,0,1-8.12,1.65,15.12,15.12,0,0,1-7.72-1.93l-.24-.13-.76-.46a21.21,21.21,0,0,1-5.09-4.78l.07-.1a21.37,21.37,0,0,0,4.65,4.41,10.85,10.85,0,0,0,1.11.7l.11.07a15.07,15.07,0,0,0,7.87,2,27,27,0,0,0,8-1.67c.75-.27,1.5-.56,2.24-.86l.21-.09c1.73-.73,3.42-1.54,5.08-2.41C137,313.81,140.29,311.85,143.53,309.88Zm-29.72,14.31a54.47,54.47,0,0,0-3.4-5.28l-.26-.36a32.92,32.92,0,0,0-2.67-3.11,16.17,16.17,0,0,0-2.83-2.33l-.26.33a16.17,16.17,0,0,1,2.78,2.31c.66.67,1.28,1.37,1.87,2.1l.37.47a50.5,50.5,0,0,1,4,6.1c1.94,3.41,3.66,6.93,5.28,10.51h.52C117.56,331.27,115.8,327.67,113.81,324.19ZM135.64,328c-.7-.8-1.39-1.61-2.06-2.43s-1.34-1.65-2-2.51a31.48,31.48,0,0,1-2.89-4.83,1.15,1.15,0,0,1-.12-.25,3.73,3.73,0,0,1-.2-.4,30.61,30.61,0,0,1-2.74-12.33,40.23,40.23,0,0,1,1.92-12.54,57.46,57.46,0,0,1,3.62-8.83.47.47,0,0,0-.12.09,57,57,0,0,0-3.6,8.71,40.39,40.39,0,0,0-2,12.57,30.91,30.91,0,0,0,2.71,12.42c.06.14.12.27.19.4a.85.85,0,0,0,.13.25,32.55,32.55,0,0,0,2.89,4.89c.62.87,1.29,1.7,2,2.52s1.35,1.64,2.05,2.44c.5.58,1,1.15,1.51,1.72,0-.09.07-.18.11-.28C136.58,329.08,136.11,328.54,135.64,328Zm6.54-39.32a19.47,19.47,0,0,1-1.88-5.21,18.67,18.67,0,0,1-.32-4.54,3.84,3.84,0,0,0-.4.14,18.64,18.64,0,0,0,.33,4.47,20.21,20.21,0,0,0,1.94,5.32,24.91,24.91,0,0,0,5.31,6.77l.09-.41A24.41,24.41,0,0,1,142.18,288.68Z" style="fill:#fff"></path><path d="M133.2,334.5c.26,0,1.92-.25,1.92-.25.13-.61,3-10.27,3.75-12.36,1.52-4.28,3.29-8.48,5-12.68a.12.12,0,0,1,.22.07c-1.13,3.62-2.2,7.27-3.36,10.88.34-.51.67-1,1-1.54.66-1.07,1.24-2.17,1.86-3.26a.09.09,0,0,1,.17.08,18.37,18.37,0,0,1-2.16,4.29,15,15,0,0,1-1.25,1.63c-.1.3-.19.61-.29.91-.71,2.11-4.36,12.55-4.54,12.55h-2.27C133.11,334.82,133.07,334.5,133.2,334.5Z" style="fill:#263238"></path><path d="M95.86,326.39c10.16-.56,20.37-.42,30.55-.07q4.32.15,8.64.5c.08,0,.09.13,0,.13-5.07.18-10.16.14-15.24.14s-10.21,0-15.31-.2c-2.88-.09-5.75-.17-8.63-.31A.1.1,0,0,1,95.86,326.39Z" style="fill:#263238"></path><path d="M146.15,278.25c.35,2,9.08,15.51,18.21,15.63,3,0,3.87-16.19,3.87-16.19l.34-1.18L173.32,260l-18.95-13.81-2.75-1.84s-1,4.61-2.18,10.37c-.06.26-.12.53-.17.82s-.16.63-.21.93c-.19.86-.38,1.74-.55,2.61-.13.67-.26,1.32-.38,2s-.24,1.39-.37,2.1A110,110,0,0,0,146.15,278.25Z" style="fill:#ad6359"></path><path d="M149.44,254.68a34.54,34.54,0,0,0,19.13,21.83L173.32,260l-18.95-13.81-2.75-1.84S150.62,248.92,149.44,254.68Z" style="fill:#263238"></path><path d="M194.39,226.86c8.53,29-7.87,37.37-14.12,39.2-5.68,1.66-25.21,6.61-36.7-21.34s-.7-41.08,12.08-45.57S185.85,197.87,194.39,226.86Z" style="fill:#ad6359"></path><path d="M188.82,223.06a20.55,20.55,0,0,1-2.08.11,3.38,3.38,0,0,1-2.15-.28,1.08,1.08,0,0,1-.34-1.27,2.7,2.7,0,0,1,2.38-1.29,3.91,3.91,0,0,1,2.73.7A1.15,1.15,0,0,1,188.82,223.06Z" style="fill:#263238"></path><path d="M169.3,228.51c.66-.27,1.23-.62,1.86-.95a3.44,3.44,0,0,0,1.71-1.33,1.08,1.08,0,0,0-.34-1.27,2.65,2.65,0,0,0-2.7.09,3.87,3.87,0,0,0-2,2A1.15,1.15,0,0,0,169.3,228.51Z" style="fill:#263238"></path><path d="M174.67,234.53c0-.07-.13.14-.1.22.65,1.95,1.06,4.3-.53,5.48,0,0,0,.14,0,.11C176.17,239.39,175.6,236.28,174.67,234.53Z" style="fill:#263238"></path><path d="M172.3,233c-3.25.7-1.61,7.14,1.39,6.49S175,232.41,172.3,233Z" style="fill:#263238"></path><path d="M171.12,233.65c-.47.51-.86,1.29-1.52,1.53s-1.53-.25-2.2-.76c-.07-.06-.11,0-.09.1.29,1.24,1.09,2.38,2.46,2.23s1.83-1.45,1.83-2.77C171.6,233.74,171.31,233.45,171.12,233.65Z" style="fill:#263238"></path><path d="M186.34,231.08c0-.08.18.06.2.14.43,2,1.26,4.25,3.23,4.47.06,0,.08.1,0,.11C187.49,236,186.42,233.06,186.34,231.08Z" style="fill:#263238"></path><path d="M187.61,228.56c3.16-1,5,5.35,2.07,6.3S185,229.42,187.61,228.56Z" style="fill:#263238"></path><path d="M189.07,228.59c.6.2,1.27.67,1.89.53s1-1,1.28-1.78c0-.08.1,0,.12,0,.39,1.21.35,2.6-.76,3.17s-2.09-.3-2.73-1.43C188.75,228.91,188.82,228.51,189.07,228.59Z" style="fill:#263238"></path><path d="M179.05,251.39c.58.37,1.2.92,1.94.83a5.42,5.42,0,0,0,2.07-.95.07.07,0,0,1,.1.08,2.75,2.75,0,0,1-2.33,1.63,2.21,2.21,0,0,1-2-1.46C178.82,251.41,179,251.34,179.05,251.39Z" style="fill:#263238"></path><path d="M185.69,241.34s1.2,2.86,1.57,4.26c0,.13-4.79,2.54-7.94-.31a.15.15,0,0,1,.16-.25,10.31,10.31,0,0,0,6.54.12c0-.41-2.22-4.83-2-4.9a12.74,12.74,0,0,1,3.37-.13c-2.33-6-5.6-11.64-7.83-17.67a.2.2,0,0,1,.34-.19c3.85,5.63,6.68,12.51,9.25,18.68C189.48,241.71,186.31,241.43,185.69,241.34Z" style="fill:#263238"></path><path d="M185.65,245.64a7.58,7.58,0,0,1-2.06,3.17,3.46,3.46,0,0,1-1.89.79c-1.52.12-2-1.15-2.12-2.33a7.82,7.82,0,0,1,0-1.89A9.71,9.71,0,0,0,185.65,245.64Z" style="fill:#263238"></path><path d="M183.59,248.81a3.46,3.46,0,0,1-1.89.79c-1.52.12-2-1.15-2.12-2.33C181.13,246.9,183,247.4,183.59,248.81Z" style="fill:#ff99ba"></path><path d="M145,248.38a12.48,12.48,0,0,0,5.09-11.23A32.53,32.53,0,0,0,161.3,224.3c-.09.65-.74,5.35-1.15,7.73,18.28-6.91,21.54-22.42,21.54-22.42,7.22,5,9.15,8.72,10.39,10.51,0,0-1.94-11.62-9.29-18.32-9-8.21-18.63-4.63-18.63-4.63a27.14,27.14,0,0,0-24.66,12.69C129.61,225.44,145,248.38,145,248.38Z" style="fill:#263238"></path><path d="M174,226.33a35.25,35.25,0,0,1-9.06,5.29s0,0,0,0a30,30,0,0,0,12.37-10.87,28.35,28.35,0,0,0,3.07-6.43,19.66,19.66,0,0,0,1.22-7.65.15.15,0,0,1,.3,0,23.26,23.26,0,0,1-.17,7.72,21.25,21.25,0,0,1-3.08,7,24.19,24.19,0,0,1-4.64,5" style="fill:#263238"></path><path d="M173.1,245.1a8.87,8.87,0,1,1,6.78-12.26h0a8.89,8.89,0,0,1-4.66,11.65A8.78,8.78,0,0,1,173.1,245.1Zm-2.57-16.36a7.69,7.69,0,1,0,8.26,4.57A7.7,7.7,0,0,0,170.53,228.74Z" style="fill:#FFC727"></path><path d="M192.68,239.52c-3.35.53-6.94-2.43-8.18-6.89a10.64,10.64,0,0,1,.13-6.48,5.53,5.53,0,0,1,9.12-2.55,10.62,10.62,0,0,1,3.47,5.47c1.32,4.71-.46,9.34-4,10.33Zm-3.45-16.17a3.48,3.48,0,0,0-.44.1,4.73,4.73,0,0,0-3,3.11,9.51,9.51,0,0,0-.1,5.75c1.14,4.08,4.4,6.75,7.29,5.94s4.29-4.78,3.15-8.86a9.41,9.41,0,0,0-3.07-4.86A4.93,4.93,0,0,0,189.23,223.35Z" style="fill:#FFC727"></path><path d="M179.87,233.91l-1-.67c1-1.45,3.58-3.75,6.29-2.1l-.62,1C182.14,230.67,180,233.78,179.87,233.91Z" style="fill:#FFC727"></path><path d="M142.41,246.75l-1.17-.24c.12-.54,1.17-5.32,3.61-6.45,2.28-1.05,18-3.89,18.66-4l.21,1.16c-4.51.81-16.62,3.11-18.37,3.93S142.68,245.44,142.41,246.75Z" style="fill:#FFC727"></path><path d="M149,243.53s-8.33-7.93-12.06-4.78,3.84,15.57,9.14,16.41a5.12,5.12,0,0,0,6.17-4Z" style="fill:#ad6359"></path><path d="M139.17,242.26a.07.07,0,0,0,0,.13c3.74.7,6.2,3.54,8.15,6.6-1.29-1.07-2.83-1.49-4.29.08-.08.08,0,.21.13.17a3.16,3.16,0,0,1,3.61.38,15.63,15.63,0,0,1,2.17,2.42c.23.27.75,0,.56-.34a.43.43,0,0,1,0-.07C148.65,247.21,144,241.74,139.17,242.26Z" style="fill:#263238"></path><path d="M142.4,280.38c1.2,1.53,2.43,3,3.73,4.47s2.6,2.87,4,4.2c2.79,2.64,5.78,5.19,9.28,6.66a10.22,10.22,0,0,0,5.42.9,3.28,3.28,0,0,0,2.29-1.1,7.5,7.5,0,0,0,1.32-2.39,21.63,21.63,0,0,0,1-5.63,30.38,30.38,0,0,0,0-5.8,26.42,26.42,0,0,1,.52,5.83,21.59,21.59,0,0,1-.8,5.84,7.21,7.21,0,0,1-1.4,2.72,3.83,3.83,0,0,1-1.28,1,5.62,5.62,0,0,1-1.52.43,11.08,11.08,0,0,1-5.95-.88,24.21,24.21,0,0,1-5.07-3.09,38,38,0,0,1-4.36-4A58.06,58.06,0,0,1,142.4,280.38Z" style="fill:#263238"></path></g><g id="freepik--Screens--inject-20"><rect x="330.91" y="68.64" width="93.64" height="59.73" style="fill:#fff"></rect><path d="M425.14,129H330.32V68.05h94.82Zm-93.64-1.18H424V69.24H331.5Z" style="fill:#ebebeb"></path><rect x="330.91" y="68.64" width="93.64" height="11.3" style="fill:#455a64"></rect><path d="M425.14,80.53H330.32V68.05h94.82ZM331.5,79.35H424V69.24H331.5Z" style="fill:#ebebeb"></path><path d="M341.51,74.38a2.84,2.84,0,1,1-2.84-2.85A2.84,2.84,0,0,1,341.51,74.38Z" style="fill:#FFC727"></path><path d="M353.12,74.38a2.84,2.84,0,1,1-2.84-2.85A2.84,2.84,0,0,1,353.12,74.38Z" style="fill:#ebebeb"></path><path d="M364.73,74.38a2.84,2.84,0,1,1-2.84-2.85A2.84,2.84,0,0,1,364.73,74.38Z" style="fill:#fff"></path><path d="M347.07,102.28A11.56,11.56,0,0,1,358.62,91a11.75,11.75,0,0,1,7.26,2.45,1.81,1.81,0,0,1-2.2,2.87,7.78,7.78,0,0,0-5.06-1.73A8.36,8.36,0,0,0,353,96.8a7.8,7.8,0,0,0-2.29,5.48,7.65,7.65,0,0,0,2.29,5.47,8.33,8.33,0,0,0,5.67,2.27,7.89,7.89,0,0,0,5.06-1.73,1.91,1.91,0,0,1,2.52.34,1.85,1.85,0,0,1-.32,2.52,11.75,11.75,0,0,1-7.26,2.45A11.51,11.51,0,0,1,347.07,102.28Z" style="fill:#ebebeb"></path><path d="M371.61,108.13a1.64,1.64,0,0,1,2.3-.22,10.26,10.26,0,0,0,6,2.42,6.82,6.82,0,0,0,3.94-1.16,2.85,2.85,0,0,0,1.35-2.27,1.81,1.81,0,0,0-.28-1A3,3,0,0,0,384,105a12.58,12.58,0,0,0-4.31-1.48h-.06a17.22,17.22,0,0,1-4.06-1.22,6.82,6.82,0,0,1-2.92-2.46,4.76,4.76,0,0,1-.73-2.58,5.8,5.8,0,0,1,2.52-4.59A9.31,9.31,0,0,1,379.85,91a12.3,12.3,0,0,1,6.86,2.52,1.62,1.62,0,0,1,.44,2.23,1.58,1.58,0,0,1-2.23.47c-1.61-1.07-3.15-2-5.07-2a6,6,0,0,0-3.52,1.07,2.51,2.51,0,0,0-1.2,2,1.57,1.57,0,0,0,.22.88,3,3,0,0,0,.85.82,10.74,10.74,0,0,0,3.94,1.38h.06a18.74,18.74,0,0,1,4.34,1.33,7.36,7.36,0,0,1,3.15,2.61,5.1,5.1,0,0,1,.75,2.67,6.08,6.08,0,0,1-2.7,4.88,9.89,9.89,0,0,1-5.83,1.79,13.59,13.59,0,0,1-8.05-3.14A1.68,1.68,0,0,1,371.61,108.13Z" style="fill:#ebebeb"></path><path d="M392.28,108.13a1.64,1.64,0,0,1,2.3-.22,10.26,10.26,0,0,0,6,2.42,6.82,6.82,0,0,0,3.94-1.16,2.85,2.85,0,0,0,1.35-2.27,1.81,1.81,0,0,0-.28-1,3,3,0,0,0-.95-.94,12.58,12.58,0,0,0-4.31-1.48h-.06a17.22,17.22,0,0,1-4.06-1.22,6.82,6.82,0,0,1-2.92-2.46,4.76,4.76,0,0,1-.73-2.58,5.8,5.8,0,0,1,2.52-4.59A9.31,9.31,0,0,1,400.52,91a12.3,12.3,0,0,1,6.86,2.52,1.62,1.62,0,0,1,.44,2.23,1.58,1.58,0,0,1-2.23.47c-1.61-1.07-3.15-2-5.07-2A6,6,0,0,0,397,95.23a2.51,2.51,0,0,0-1.2,2,1.57,1.57,0,0,0,.22.88,3,3,0,0,0,.85.82,10.74,10.74,0,0,0,3.94,1.38h.06a18.74,18.74,0,0,1,4.34,1.33,7.36,7.36,0,0,1,3.15,2.61,5.1,5.1,0,0,1,.75,2.67,6.08,6.08,0,0,1-2.7,4.88,9.89,9.89,0,0,1-5.83,1.79,13.59,13.59,0,0,1-8.05-3.14A1.68,1.68,0,0,1,392.28,108.13Z" style="fill:#ebebeb"></path><rect x="74.86" y="196.25" width="52.57" height="23.62" style="fill:#455a64"></rect><path d="M90.5,209.1H88.32V213a1,1,0,0,1-1,1,1,1,0,0,1-1-1V202.48a1,1,0,0,1,1-1H90.5a3.8,3.8,0,1,1,0,7.59Zm-2.18-2H90.5a1.83,1.83,0,1,0,0-3.65H88.32Z" style="fill:#fff"></path><path d="M96.7,213V202.48a1,1,0,0,1,1-1,1,1,0,0,1,1,1v4.26h4.6v-4.26a1,1,0,0,1,1-1,1,1,0,0,1,1,1V213a1,1,0,0,1-1,1,1,1,0,0,1-1-1V208.7h-4.6V213a1,1,0,0,1-1,1A1,1,0,0,1,96.7,213Z" style="fill:#fff"></path><path d="M113.44,209.1h-2.19V213a1,1,0,0,1-2,0V202.48a1,1,0,0,1,1-1h3.18a3.8,3.8,0,1,1,0,7.59Zm-2.19-2h2.19a1.83,1.83,0,1,0,0-3.65h-2.19Z" style="fill:#fff"></path><rect x="144.86" y="123.32" width="93.64" height="59.73" style="fill:#fff"></rect><path d="M239.09,183.64H144.27V122.73h94.82Zm-93.64-1.18h92.46V123.91H145.45Z" style="fill:#ebebeb"></path><rect x="144.86" y="123.32" width="93.64" height="11.3" style="fill:#455a64"></rect><path d="M239.09,135.21H144.27V122.73h94.82ZM145.45,134h92.46V123.91H145.45Z" style="fill:#ebebeb"></path><path d="M155.46,129.05a2.84,2.84,0,1,1-2.84-2.84A2.84,2.84,0,0,1,155.46,129.05Z" style="fill:#FFC727"></path><path d="M167.07,129.05a2.84,2.84,0,1,1-2.84-2.84A2.84,2.84,0,0,1,167.07,129.05Z" style="fill:#ebebeb"></path><path d="M178.68,129.05a2.85,2.85,0,1,1-2.84-2.84A2.84,2.84,0,0,1,178.68,129.05Z" style="fill:#fff"></path><path d="M162.34,157a11.55,11.55,0,0,1,11.55-11.32,11.8,11.8,0,0,1,7.27,2.45,1.81,1.81,0,0,1-2.21,2.86,7.83,7.83,0,0,0-5.06-1.73,8.28,8.28,0,0,0-5.66,2.27,7.74,7.74,0,0,0-2.3,5.47,7.66,7.66,0,0,0,2.3,5.48,8.32,8.32,0,0,0,5.66,2.26A7.89,7.89,0,0,0,179,163a1.91,1.91,0,0,1,2.52.35,1.86,1.86,0,0,1-.31,2.52,11.8,11.8,0,0,1-7.27,2.45A11.52,11.52,0,0,1,162.34,157Z" style="fill:#ebebeb"></path><path d="M192.51,158.94H188a1.73,1.73,0,0,1-1.73-1.74,1.75,1.75,0,0,1,1.73-1.73h4.47V151.1a1.8,1.8,0,0,1,3.59,0v4.37h4.47a1.75,1.75,0,0,1,1.73,1.73,1.73,1.73,0,0,1-1.73,1.74H196.1v4.37a1.8,1.8,0,0,1-3.59,0Z" style="fill:#ebebeb"></path><path d="M212,158.94h-4.47a1.74,1.74,0,0,1,0-3.47H212V151.1a1.76,1.76,0,0,1,1.79-1.79,1.78,1.78,0,0,1,1.79,1.79v4.37h4.47a1.75,1.75,0,0,1,1.73,1.73,1.73,1.73,0,0,1-1.73,1.74H215.6v4.37a1.78,1.78,0,0,1-1.79,1.79,1.76,1.76,0,0,1-1.79-1.79Z" style="fill:#ebebeb"></path><g style="opacity:0.6000000000000001"><rect x="255.94" y="136.79" width="156.16" height="109.4" style="fill:#fff"></rect><path d="M412.7,246.78H255.35V136.19H412.7ZM256.54,245.6h155V137.38h-155Z" style="fill:#ebebeb"></path><rect x="255.94" y="136.79" width="156.16" height="11.3" style="fill:#455a64"></rect><path d="M412.7,148.67H255.35V136.19H412.7Zm-156.16-1.18h155V137.38h-155Z" style="fill:#ebebeb"></path><path d="M266.55,142.52a2.85,2.85,0,1,1-2.85-2.85A2.85,2.85,0,0,1,266.55,142.52Z" style="fill:#FFC727"></path><path d="M278.16,142.52a2.85,2.85,0,1,1-2.85-2.85A2.85,2.85,0,0,1,278.16,142.52Z" style="fill:#ebebeb"></path><path d="M289.77,142.52a2.85,2.85,0,1,1-2.85-2.85A2.85,2.85,0,0,1,289.77,142.52Z" style="fill:#fff"></path><rect x="268.06" y="170.55" width="6.04" height="2.21" style="fill:#ebebeb"></rect><rect x="278.5" y="170.55" width="69.28" height="2.21" style="fill:#ebebeb"></rect><rect x="351.49" y="170.55" width="11.47" height="2.21" style="fill:#FFC727"></rect><rect x="365.46" y="170.55" width="19.83" height="2.21" style="fill:#a6a6a6"></rect><rect x="274.1" y="176.46" width="6.04" height="2.21" style="fill:#ebebeb"></rect><rect x="284.39" y="176.46" width="45.46" height="2.21" style="fill:#a6a6a6"></rect><rect x="278.5" y="194.17" width="43.42" height="2.21" style="fill:#a6a6a6"></rect><rect x="284.39" y="182.36" width="30.46" height="2.21" style="fill:#FFC727"></rect><rect x="359.16" y="188.27" width="11.62" height="2.21" style="fill:#a6a6a6"></rect><rect x="318.23" y="182.36" width="48.65" height="2.21" style="fill:#a6a6a6"></rect><rect x="278.5" y="200.07" width="58.07" height="2.21" style="fill:#FFC727"></rect><rect x="364.18" y="176.46" width="31.47" height="2.21" style="fill:#FFC727"></rect><rect x="332.71" y="176.46" width="28.97" height="2.21" style="fill:#ebebeb"></rect><rect x="369.17" y="182.36" width="19.55" height="2.21" style="fill:#ebebeb"></rect><rect x="274.1" y="182.36" width="6.04" height="2.21" style="fill:#ebebeb"></rect><rect x="268.06" y="188.27" width="6.04" height="2.21" style="fill:#a6a6a6"></rect><rect x="278.5" y="188.27" width="35.69" height="2.21" style="fill:#ebebeb"></rect><rect x="324.38" y="194.17" width="38.58" height="2.21" style="fill:#ebebeb"></rect><rect x="365.46" y="194.17" width="24.55" height="2.21" style="fill:#FFC727"></rect><rect x="317.82" y="188.27" width="38.53" height="2.21" style="fill:#FFC727"></rect><rect x="268.06" y="194.17" width="6.04" height="2.21" style="fill:#ebebeb"></rect><rect x="268.06" y="200.07" width="6.04" height="2.21" style="fill:#ebebeb"></rect><path d="M271.79,164.74a.53.53,0,0,1-.36.9.54.54,0,0,1-.38-.15l-2.33-2.36a.05.05,0,0,1,0,0l0,0a.07.07,0,0,1,0-.06.05.05,0,0,1,0,0s0,0,0-.05,0,0,0,0v-.06a.2.2,0,0,1,0-.05v-.13a.64.64,0,0,0,0-.07h0s0-.06,0-.08h0s0-.05.05-.06l2.33-2.36a.53.53,0,0,1,.74,0,.51.51,0,0,1,0,.74l-2,2Z" style="fill:#FFC727"></path><path d="M273.9,165l2-4.83a.46.46,0,0,1,.61-.24.44.44,0,0,1,.23.58l-2,4.85a.46.46,0,0,1-.42.27.51.51,0,0,1-.17,0A.45.45,0,0,1,273.9,165Z" style="fill:#FFC727"></path><path d="M280.78,163.06h0l0,.06-2.33,2.36a.54.54,0,0,1-.38.15.53.53,0,0,1-.37-.15.53.53,0,0,1,0-.75l2-2-2-2a.51.51,0,0,1,0-.74.54.54,0,0,1,.75,0l2.33,2.36a.15.15,0,0,1,0,.06h0a.59.59,0,0,1,0,.08h0a.26.26,0,0,0,0,.08v.12a.23.23,0,0,1,0,0v.09s0,.06,0,.07,0,0,0,0Z" style="fill:#FFC727"></path></g><rect x="97.82" y="101.3" width="63.79" height="23.62" style="fill:#FFC727"></rect><path d="M107,118V107.54a1,1,0,0,1,2,0v4.26h4.6v-4.26a1,1,0,0,1,2,0V118a1,1,0,0,1-2,0v-4.26H109V118a1,1,0,0,1-2,0Z" style="fill:#fff"></path><path d="M127.21,108.53h-2.83V118a1,1,0,0,1-1,1,1,1,0,0,1-1-1v-9.48h-2.8a1,1,0,0,1-1-1,1,1,0,0,1,1-1h7.58a1,1,0,0,1,1,1A1,1,0,0,1,127.21,108.53Z" style="fill:#fff"></path><path d="M141.8,107.54V118a1,1,0,0,1-1,1,1,1,0,0,1-1-1v-7.47l-2.56,3.55a1,1,0,0,1-.8.41h0a1,1,0,0,1-.82-.41l-2.54-3.55V118a1,1,0,0,1-2,0V107.54a1,1,0,0,1,1-1h0a.93.93,0,0,1,.78.41l3.54,4.9L140,107a1,1,0,0,1,.8-.41h0A1,1,0,0,1,141.8,107.54Z" style="fill:#fff"></path><path d="M146.1,118V107.54a1,1,0,0,1,1-1,1,1,0,0,1,1,1V117h4.81a1,1,0,0,1,0,2h-5.81A1,1,0,0,1,146.1,118Z" style="fill:#fff"></path><rect x="227.87" y="228.48" width="35.61" height="23.62" style="fill:#FFC727"></rect><path d="M237.54,242.58a2.37,2.37,0,0,0,4.62-.72V235a1,1,0,0,1,1.91,0v6.83a4.27,4.27,0,0,1-8.34,1.3.92.92,0,0,1,.6-1.18A.94.94,0,0,1,237.54,242.58Z" style="fill:#fff"></path><path d="M246.47,243.13a.89.89,0,0,1,1.25-.12,5.61,5.61,0,0,0,3.29,1.32,3.78,3.78,0,0,0,2.15-.63,1.56,1.56,0,0,0,.73-1.24,1,1,0,0,0-.15-.55,1.59,1.59,0,0,0-.52-.52,7,7,0,0,0-2.35-.81h0a9.07,9.07,0,0,1-2.21-.67,3.63,3.63,0,0,1-1.6-1.34,2.61,2.61,0,0,1-.4-1.41,3.19,3.19,0,0,1,1.38-2.51,5.1,5.1,0,0,1,3-.91,6.73,6.73,0,0,1,3.75,1.38.87.87,0,0,1,.24,1.22.86.86,0,0,1-1.22.25,5,5,0,0,0-2.77-1.1,3.22,3.22,0,0,0-1.92.59,1.35,1.35,0,0,0-.66,1.08.85.85,0,0,0,.12.48,1.57,1.57,0,0,0,.47.45,5.82,5.82,0,0,0,2.15.76h0a9.7,9.7,0,0,1,2.37.72,3.91,3.91,0,0,1,1.72,1.43,2.77,2.77,0,0,1,.42,1.46,3.32,3.32,0,0,1-1.48,2.66,5.39,5.39,0,0,1-3.18,1,7.35,7.35,0,0,1-4.41-1.72A.91.91,0,0,1,246.47,243.13Z" style="fill:#fff"></path></g><g id="freepik--Mug--inject-20"><path d="M106.85,396.19s21.86-10.07,21.86-23.57-28.35-22.2-28.35-32.75,12.36-16.77,12.36-16.77-19.53,6.68-19.53,20,18.69,22.39,20.48,30.88C116.15,385.81,106.85,396.19,106.85,396.19Z" style="fill:#dbdbdb;opacity:0.6000000000000001"></path><path d="M107.93,396.19s-21.87-7.92-21.87-18.53,28.36-17.46,28.36-25.75-12.37-13.18-12.37-13.18,19.54,5.24,19.54,15.74-21.47,17.71-23,26.24C97.08,389.07,107.93,396.19,107.93,396.19Z" style="fill:#dbdbdb;opacity:0.6000000000000001"></path><rect x="96.68" y="430.15" width="20.8" height="3.25" style="fill:#37474f"></rect><rect x="96.68" y="430.15" width="20.8" height="2.14" style="fill:#263238"></rect><path d="M72,421.42a11.77,11.77,0,0,0,11.71,5,11.4,11.4,0,0,0,2.11-.61,14.86,14.86,0,0,0,2.94-1.54l-2.64-3.92a9.64,9.64,0,0,1-1.56.88c-5,2.25-8.09-1.65-8.71-2.55-2.85-4-3.87-13.16-1-16.68.19-.26,1-.67,4.38,0,.61.14,1.32.3,2.11.52a8.51,8.51,0,0,0,1.9.41l.08-2.36.23-2.34c-.21,0-.55-.14-1-.26a30,30,0,0,0-4.73-1c-2.46-.26-5,0-6.63,2C66.52,404.77,68.42,416.4,72,421.42Z" style="fill:#37474f"></path><path d="M86.11,420.36a9.64,9.64,0,0,1-1.56.88l1.26,4.58a14.86,14.86,0,0,0,2.94-1.54Z" style="fill:#263238"></path><path d="M77.84,397l1.4,5c.61.14,1.32.3,2.11.52a8.51,8.51,0,0,0,1.9.41l.08-2.36.23-2.34c-.21,0-.55-.14-1-.26A30,30,0,0,0,77.84,397Z" style="fill:#263238"></path><path d="M134.75,390.9s-2.5,21.2-6.81,30.13-10.33,9.91-14.06,9.91h-13.6c-3.74,0-9.75-1-14.06-9.91s-6.81-30.13-6.81-30.13Z" style="fill:#37474f"></path><path d="M131.79,408.51c-.43,1.95-.9,3.88-1.42,5.7H83.79c-.52-1.82-1-3.75-1.42-5.7Z" style="fill:#455a64"></path><path d="M129.73,416.37c-.32,1-.65,2-1,2.85H85.43c-.35-.88-.68-1.84-1-2.85Z" style="fill:#455a64"></path><path d="M132.86,403.15c-.17.93-.35,1.88-.55,2.85H81.85c-.2-1-.38-1.92-.55-2.85Z" style="fill:#455a64"></path></g></svg>