<svg width="12" height="16" viewBox="0 0 12 16" fill="none" xmlns="http://www.w3.org/2000/svg">
<path d="M10.3226 13.9301C9.09534 15.2434 7.39179 16 5.64653 16C5.18413 16 4.72174 15.9433 4.27326 15.8367C3.03558 15.5434 1.97869 14.8967 1.12691 13.9135C1.0991 13.8801 -1.25805 10.9803 0.928746 7.52058C1.04695 7.33726 1.17906 7.1706 1.28336 7.04395C2.23596 5.89402 3.16769 4.30413 2.6601 3.60085C2.62072 3.54516 2.59996 3.47929 2.60058 3.41201C2.60121 3.34473 2.62318 3.27922 2.66358 3.22421C2.74354 3.10755 2.89304 3.05422 3.0321 3.09088C3.16769 3.12088 4.21763 3.43753 4.44361 5.43072C4.67307 4.96409 4.87471 4.3408 4.82604 3.63085C4.75303 2.55425 4.13767 1.53099 2.99386 0.584388C2.93401 0.53482 2.89375 0.467037 2.87983 0.392398C2.8659 0.31776 2.87916 0.2408 2.91737 0.174416C2.99386 0.0377589 3.16422 -0.0322363 3.31719 0.0144272C3.39715 0.0344258 10.8267 2.19428 9.70027 9.57711C10.1348 9.13047 10.6181 8.26386 10.4999 6.6773C10.4895 6.52065 10.5903 6.38066 10.7433 6.33399C10.8997 6.28733 11.0666 6.35066 11.1465 6.48398C11.1709 6.52398 13.5176 10.507 10.3226 13.9301Z" fill="white"/>
</svg>
