<svg width="16" height="17" viewBox="0 0 16 17" fill="none" xmlns="http://www.w3.org/2000/svg">
<path d="M9.25149 3.5206C9.47237 3.16294 9.8423 2.94938 10.2122 3.23412L11.5429 4.09183C12.1337 4.52068 11.7638 5.02071 11.6165 5.23601L8.29074 10.4551C8.14349 10.6687 7.92081 10.7399 7.69993 10.5975C7.69993 10.5975 7.6263 10.5263 6.66556 9.95336C5.70482 9.38214 5.9257 8.5227 6.44288 7.665L9.25149 3.5206Z" fill="#B2683B"/>
<path d="M12.0667 0C13.0621 0 13.8667 0.806087 13.8667 1.79927C13.8667 2.7942 13.0603 3.59854 12.0667 3.59854C11.0714 3.59854 10.2667 2.79245 10.2667 1.79927C10.265 0.806087 11.0714 0 12.0667 0Z" fill="#B2683B"/>
<path d="M9.97746 3.10001L7.20057 2.16333C6.98232 2.09155 6.68955 2.09155 6.54228 2.16333L3.39987 3.82134C2.9616 4.03844 2.81433 4.54266 3.03435 4.90333C3.17985 5.19221 3.39987 5.33577 3.69264 5.33577C3.83814 5.33577 3.98541 5.33577 4.13091 5.26399L6.98055 3.82134L9.46467 4.68623C9.90293 4.82979 10.3412 4.61445 10.4885 4.182C10.634 3.67602 10.4157 3.24357 9.97746 3.10001Z" fill="#B2683B"/>
<path d="M5.3539 9.67883L4.41385 10.969H1.01385C0.507804 10.969 0 11.399 0 11.9005C0 12.4751 0.434005 12.9051 1.01209 12.9051H4.99194C5.3539 12.9051 5.64382 12.7623 5.85995 12.4037L6.8 11.0421C6.72972 11.0404 5.4277 10.1803 5.3539 9.67883Z" fill="#B2683B"/>
<path d="M11.2044 10.8572L7.69352 8.35736C7.25489 8.07112 6.59604 8.14224 6.3048 8.6436C6.01179 9.07209 6.0846 9.71396 6.59782 10.0002L9.37703 12.0004L7.6953 15.6434C7.47509 16.1431 7.6953 16.7155 8.20674 16.9289C8.35236 17 8.49976 17 8.64538 17C9.0112 17 9.37703 16.7867 9.52265 16.4293L11.4974 12.0004C11.7158 11.643 11.5702 11.1417 11.2044 10.8572Z" fill="#B2683B"/>
<path d="M15.3746 7.67116L12.66 7.0347L11.8525 4.63298C11.7064 4.20924 11.2661 3.99652 10.8258 4.13891C10.3856 4.27958 10.1646 4.70503 10.3125 5.12876L11.2661 7.95422C11.3392 8.23728 11.5602 8.44829 11.8525 8.51863L15.0092 9.29576H15.0823C15.5226 9.36609 15.8898 9.08475 15.9628 8.66102C16.1072 8.16523 15.8149 7.7415 15.3746 7.67116Z" fill="#B2683B"/>
</svg>
