<svg xmlns="http://www.w3.org/2000/svg" width="512" height="512" fill="none" xmlns:v="https://vecta.io/nano"><mask id="A" maskUnits="userSpaceOnUse" x="0" y="0" width="512" height="512" mask-type="alpha"><circle cx="256" cy="256" r="256" fill="#d9d9d9"/></mask><g mask="url(#A)"><path d="M0 0h512v512H0z" fill="#f7f7f7"/><g filter="url(#B)"><circle cx="256" cy="256" r="256" fill="#000" fill-opacity=".01"/></g><path d="M287.16 294.4h3.38v2.6H233.6v-2.6h3.38c4.507 0 8.32-1.56 11.44-4.68 3.293-3.293 5.027-7.193 5.2-11.7v-144.3c-.173-4.507-1.907-8.32-5.2-11.44-3.12-3.12-6.933-4.68-11.44-4.68h-3.38V115h56.94v2.6h-3.38c-4.507 0-8.407 1.56-11.7 4.68-3.12 3.12-4.767 6.933-4.94 11.44v144.3c0 4.507 1.647 8.407 4.94 11.7 3.293 3.12 7.193 4.68 11.7 4.68zM467.34 336v2.6c-6.587 1.56-13.173 2.34-19.76 2.34-28.427 0-55.987-14.213-82.68-42.64l-86.06-91.78 61.36-76.96c1.387-1.733 2.08-3.293 2.08-4.68s-.26-2.6-.78-3.64c-1.387-2.6-3.9-3.9-7.54-3.9h-2.6V115h54.86v2.34h-1.04c-11.44 0-20.8 4.073-28.08 12.22l-60.58 69.94 88.4 94.38c11.44 12.307 24.267 22.36 38.48 30.16 14.387 7.973 29.033 11.96 43.94 11.96zM92.94 148.16c11.267-4.68 22.1-7.02 32.5-7.02 8.667 0 17.593 3.207 26.78 9.62 5.027 3.467 10.66 10.227 16.9 20.28 4.16 6.933 9.447 19.5 15.86 37.7l31.72 89.96c7.28 20.107 14.647 36.053 22.1 47.84 7.627 11.96 14.56 20.887 20.8 26.78 6.24 6.067 12.74 10.313 19.5 12.74s12.307 3.64 16.64 3.64c4.507 0 8.493-.347 11.96-1.04l.26 2.6c-8.32 2.773-16.467 4.16-24.44 4.16s-15.947-2.08-23.92-6.24c-7.973-3.987-15.427-9.62-22.36-16.9-14.907-15.08-27.56-38.047-37.96-68.9l-10.14-29.64H117.9l-17.94 46.28c-.867 2.08-1.3 4.16-1.3 6.24s.867 4.333 2.6 6.76c1.907 2.253 4.767 3.38 8.58 3.38h2.08v2.6H59.66v-2.6H62c4.16 0 8.233-1.213 12.22-3.64 3.987-2.6 7.28-6.413 9.88-11.44l64.48-154.44c-9.36-13.347-20.973-20.02-34.84-20.02-6.24 0-12.913 1.3-20.02 3.9l-.78-2.6zm27.82 117.78h65.78L166 205.36c-3.987-11.613-7.627-20.713-10.92-27.3l-34.32 87.88z" fill="#000"/></g></svg>