<svg id="Layer_1" data-name="Layer 1" xmlns="http://www.w3.org/2000/svg" width="135" height="35" viewBox="0 0 135 35"><defs><style>.cls-1{fill:#562912;}</style></defs><path class="cls-1" d="M37.19,32a4.17,4.17,0,0,1-3-1.24L13.74,10.22a4.22,4.22,0,1,1,6-6L40.18,24.77a4.26,4.26,0,0,1,0,6A4.21,4.21,0,0,1,37.19,32Z"/><path class="cls-1" d="M16.72,32a4.17,4.17,0,0,1-3-1.24,4.24,4.24,0,0,1,0-6L34.21,4.24a4.22,4.22,0,0,1,6,6L19.7,30.76A4.17,4.17,0,0,1,16.72,32Z"/><path class="cls-1" d="M118.28,32a4.17,4.17,0,0,1-3-1.24L94.82,10.22a4.22,4.22,0,0,1,6-6l20.47,20.53a4.24,4.24,0,0,1,0,6A4.17,4.17,0,0,1,118.28,32Z"/><path class="cls-1" d="M97.81,32a4.21,4.21,0,0,1-3-1.24,4.26,4.26,0,0,1,0-6L115.3,4.24a4.22,4.22,0,0,1,6,6L100.79,30.76A4.17,4.17,0,0,1,97.81,32Z"/></svg>