<svg id="Layer_1" data-name="Layer 1" xmlns="http://www.w3.org/2000/svg" width="135" height="35" viewBox="0 0 135 35"><defs><style>.cls-1{fill:#ff5a58;}</style></defs><path class="cls-1" d="M100,2.7c4.71-1.79,9.14.07,11.94,3.76,2.92-3.6,7.41-5.32,12-3.38,5.84,2.43,7,8.29,4.42,13.87-1.83,4-9.85,11.53-14.17,15.4a4.08,4.08,0,0,1-5.49-.09c-4.18-4-11.94-11.74-13.64-15.83C92.73,10.78,94.06,5,100,2.7Z"/><path class="cls-1" d="M12.18,2.7c4.71-1.79,9.13.07,11.93,3.76C27,2.86,31.52,1.14,36.17,3.08c5.84,2.43,7,8.29,4.42,13.87-1.84,4-9.85,11.53-14.17,15.4a4.08,4.08,0,0,1-5.49-.09C16.74,28.26,9,20.52,7.29,16.43,4.93,10.78,6.26,5,12.18,2.7Z"/></svg>