<svg id="Layer_1" data-name="Layer 1" xmlns="http://www.w3.org/2000/svg" width="130" height="65" viewBox="0 0 130 65"><defs><style>.cls-1{fill:#3d3506;}.cls-2{fill:#ff5a58;}</style></defs><path class="cls-1" d="M64.74,40a12,12,0,0,1-7.94-2.91,9.49,9.49,0,0,1-2.23-11.82,9.48,9.48,0,0,1-1.35-3.47c-1-5.58,3.28-10.81,9.46-11.68A12.18,12.18,0,0,1,72,12.64a3.41,3.41,0,0,1,.31,5.17,4.4,4.4,0,0,1-5.74.28,3.45,3.45,0,0,0-2.67-.73,3,3,0,0,0-2.68,3.31,2.79,2.79,0,0,0,1,1.72,3.42,3.42,0,0,1,.19,5.34l-.13.11a2.69,2.69,0,0,0,.13,4,3.46,3.46,0,0,0,4.54,0,4.38,4.38,0,0,1,5.75-.05,3.41,3.41,0,0,1,.06,5.17A12,12,0,0,1,64.74,40Z"/><path class="cls-2" d="M48.38,17.47a16.26,16.26,0,0,0-22.19-2.8,14.56,14.56,0,0,0-5.49,8.75l-.21-.07C12,21.06,3.48,25.78,1.38,33.9s3,16.55,11.49,18.83l32,8.67,6.74-31A15.31,15.31,0,0,0,48.38,17.47Z"/></svg>